<?xml version="1.0" encoding="UTF-8"?>
<svg width="78px" height="74px" viewBox="0 0 78 74" version="1.1" xmlns="http://www.w3.org/2000/svg" xmlns:xlink="http://www.w3.org/1999/xlink">
    <!-- Generator: Sketch 50.2 (55047) - http://www.bohemiancoding.com/sketch -->
    <title>Cell</title>
    <desc>Created with Sketch.</desc>
    <defs></defs>
    <g id="Cell" stroke="none" stroke-width="1" fill="none" fill-rule="evenodd">
        <g fill="#333333">
            <path d="M37.195,2.115 C35.594,2.292 33.448,2.486 31.316,2.78 C30.138,2.942 28.979,3.257 27.817,3.529 C26.581,3.818 25.328,4.063 24.127,4.459 C22.158,5.108 20.232,5.882 18.375,6.81 C16.965,7.516 15.533,8.158 14.23,9.095 C12.964,10.005 11.805,11.021 10.669,12.069 C10.024,12.664 9.484,13.376 8.92,14.054 C7.876,15.31 6.799,16.542 6.214,18.111 C5.788,19.253 5.3,20.373 4.858,21.51 C4.106,23.44 3.251,25.337 2.884,27.397 L2.819,27.622 C2.524,29.198 2.175,30.767 1.956,32.355 C1.801,33.48 1.798,34.629 1.771,35.769 C1.742,36.957 1.633,38.164 1.794,39.33 C2.084,41.433 2.616,43.503 2.917,45.605 C3.108,46.942 3.374,48.24 3.89,49.482 C4.308,50.487 4.746,51.484 5.216,52.465 C5.831,53.75 6.457,55.033 7.135,56.286 C7.577,57.103 8.15,57.848 8.612,58.655 C9.417,60.062 10.352,61.387 11.615,62.387 C12.329,62.952 12.932,63.627 13.656,64.168 C14.902,65.1 16.135,66.049 17.401,66.951 C20.125,68.894 23.065,70.397 26.324,71.234 C28.343,71.753 30.404,72.023 32.471,72.185 C34.979,72.381 37.493,72.492 40.013,72.546 C43.266,72.617 46.497,72.408 49.725,72.103 C50.724,72.009 51.708,71.712 52.689,71.471 C54.325,71.069 55.96,70.658 57.585,70.212 C58.94,69.839 60.261,69.364 61.43,68.554 C62.172,68.039 62.964,67.586 63.415,66.737 C63.554,66.474 63.836,66.284 64.063,66.072 C64.367,65.789 64.687,65.524 64.989,65.239 C66.855,63.48 68.267,61.355 69.723,59.273 C70.269,58.494 70.697,57.624 71.109,56.762 C71.555,55.83 72.022,54.889 72.301,53.901 C72.999,51.432 73.586,48.933 74.242,46.452 C74.413,45.802 74.734,45.19 74.883,44.536 C75.429,42.132 75.917,39.714 76.039,37.242 C76.065,36.701 76.025,36.155 75.991,35.613 C75.901,34.163 75.722,32.715 75.724,31.266 C75.726,30.191 75.604,29.141 75.384,28.11 C75.092,26.743 74.678,25.4 74.3,24.052 C74.104,23.353 73.922,22.644 73.644,21.978 C73.246,21.021 72.787,20.087 72.314,19.164 C71.831,18.219 71.374,17.248 70.776,16.377 C69.456,14.455 67.902,12.707 66.237,11.088 C65.247,10.124 64.053,9.335 62.857,8.628 C61.635,7.905 60.279,7.413 59.015,6.757 C57.081,5.752 54.992,5.232 52.898,4.733 C50.248,4.102 47.581,3.538 44.924,2.934 C42.559,2.396 40.163,2.155 37.195,2.115 Z M43.601,73.627 C41.188,73.567 38.773,73.538 36.362,73.436 C34.86,73.372 33.36,73.218 31.863,73.067 C30.418,72.921 28.963,72.808 27.541,72.533 C25.995,72.233 24.432,71.948 23.007,71.184 C21.524,70.389 19.986,69.697 18.506,68.895 C17.828,68.528 17.239,67.997 16.598,67.558 C16.236,67.311 15.824,67.134 15.481,66.866 C14.012,65.714 12.533,64.574 11.111,63.366 C9.596,62.079 8.383,60.527 7.389,58.802 C6.833,57.836 6.229,56.898 5.67,55.934 C5.411,55.487 5.197,55.014 4.978,54.546 C3.921,52.291 2.815,50.055 2.237,47.612 C2.082,46.956 1.964,46.291 1.839,45.628 C1.508,43.868 1.194,42.104 0.849,40.347 C0.551,38.828 0.564,37.3 0.655,35.767 C0.719,34.679 0.785,33.591 0.874,32.504 C0.916,31.989 1.02,31.479 1.088,30.965 C1.386,28.724 1.745,26.498 2.589,24.38 C3.519,22.043 4.382,19.676 5.389,17.372 C6.163,15.604 7.34,14.073 8.68,12.678 C9.397,11.931 10.123,11.192 10.829,10.435 C12.535,8.605 14.576,7.239 16.803,6.143 C18.661,5.228 20.48,4.222 22.485,3.627 C23.677,3.273 24.829,2.771 26.035,2.483 C27.969,2.021 29.863,1.383 31.874,1.232 C33.185,1.133 34.48,0.823 35.788,0.644 C36.294,0.575 36.818,0.569 37.329,0.602 C38.746,0.693 40.159,0.659 41.585,0.846 C44.088,1.176 46.51,1.839 48.968,2.349 C50.922,2.754 52.842,3.32 54.789,3.763 C56.233,4.091 57.601,4.585 58.906,5.284 C59.335,5.515 59.831,5.62 60.284,5.811 C61.941,6.506 63.455,7.444 64.894,8.513 C65.726,9.131 66.577,9.722 67.418,10.327 C67.523,10.403 67.649,10.47 67.715,10.574 C68.68,12.086 70.091,13.231 71.105,14.698 C71.782,15.675 72.542,16.606 72.962,17.742 C73.015,17.887 73.083,18.032 73.171,18.159 C74.325,19.823 75.055,21.665 75.529,23.626 C75.706,24.356 75.961,25.069 76.224,25.774 C76.506,26.53 76.739,27.289 76.842,28.095 C77.073,29.898 77.329,31.695 77.102,33.52 C77.067,33.8 77.1,34.093 77.138,34.374 C77.452,36.722 77.15,39.037 76.773,41.346 C76.602,42.396 76.391,43.44 76.194,44.485 C76.151,44.714 76.139,44.967 76.029,45.162 C75.391,46.296 75.265,47.582 74.932,48.805 C74.538,50.253 74.318,51.745 73.788,53.161 C73.444,54.082 73.219,55.048 72.868,55.965 C72.159,57.818 71.17,59.514 69.943,61.08 C69.257,61.957 68.73,62.967 67.993,63.793 C67.013,64.893 65.915,65.891 64.831,66.892 C64.525,67.175 64.233,67.427 64.012,67.799 C63.81,68.139 63.444,68.381 63.152,68.668 C62.067,69.732 60.751,70.372 59.314,70.807 C57.923,71.228 56.557,71.737 55.15,72.091 C52.71,72.705 50.259,73.284 47.718,73.345 C46.63,73.371 45.545,73.521 44.457,73.604 C44.173,73.625 43.887,73.607 43.601,73.607 L43.601,73.627 Z" id="Fill-1926"></path>
            <path d="M73.069,33.421 L72.933,33.417 C72.933,32.509 73.023,31.59 72.912,30.696 C72.724,29.182 72.419,27.683 72.145,26.18 C71.797,24.275 71.109,22.487 70.202,20.784 C69.593,19.64 68.938,18.521 68.321,17.381 C67.401,15.681 66.038,14.374 64.599,13.135 C63.951,12.577 63.289,12.033 62.608,11.517 C62.286,11.274 61.912,11.091 61.544,10.919 C60.961,10.646 60.352,10.427 59.774,10.143 C59.242,9.882 58.765,9.49 58.216,9.285 C54.983,8.081 51.758,6.893 48.338,6.235 C45.943,5.775 43.57,5.196 41.138,4.967 C39.953,4.855 38.753,4.819 37.563,4.85 C35.544,4.901 33.535,5.24 31.505,5.078 C30.99,5.037 30.469,5.031 29.952,5.052 C27.928,5.138 26.028,5.762 24.143,6.433 C22.742,6.931 21.472,7.686 20.213,8.471 C18.625,9.46 17.042,10.452 15.629,11.686 C14.437,12.728 13.233,13.758 12.086,14.848 C11.433,15.468 10.78,16.133 10.307,16.89 C8.946,19.065 7.681,21.303 6.726,23.692 C6.304,24.746 5.926,25.836 5.698,26.945 C5.272,29.025 4.962,31.129 4.62,33.225 C4.537,33.735 4.484,34.254 4.479,34.77 C4.471,35.47 4.548,36.17 4.543,36.87 C4.531,38.509 4.794,40.12 5.019,41.733 C5.18,42.886 5.436,44.026 5.667,45.169 C5.81,45.875 5.971,46.577 6.154,47.273 C6.272,47.724 6.461,48.155 6.589,48.603 C6.876,49.606 7.291,50.538 7.862,51.422 C8.437,52.311 8.985,53.24 9.381,54.218 C9.904,55.507 10.644,56.655 11.428,57.776 C12.169,58.834 12.969,59.859 13.827,60.823 C14.652,61.75 15.529,62.649 16.488,63.431 C17.347,64.131 18.302,64.749 19.297,65.237 C21.252,66.195 23.25,67.071 25.259,67.909 C25.943,68.194 26.709,68.343 27.451,68.417 C29.315,68.604 31.15,68.92 32.964,69.381 C33.717,69.573 34.478,69.807 35.245,69.848 C36.927,69.937 38.616,69.966 40.3,69.925 C42.506,69.871 44.709,69.696 46.915,69.627 C48.885,69.566 50.849,69.567 52.792,69.109 C54.544,68.695 56.248,68.153 57.877,67.404 C59.695,66.569 61.192,65.287 62.555,63.84 C62.891,63.483 63.26,63.156 63.592,62.796 C64.33,61.996 65.114,61.23 65.771,60.368 C66.966,58.798 67.999,57.122 68.752,55.284 C69.097,54.444 69.581,53.656 69.869,52.8 C70.654,50.466 71.633,48.2 72.232,45.798 C72.731,43.793 73.007,41.782 72.917,39.714 C72.867,38.576 72.886,37.432 72.913,36.292 C72.936,35.334 73.015,34.378 73.069,33.421 Z M74.098,34.07 C74.098,34.771 74.103,35.472 74.097,36.173 C74.084,37.624 74.123,39.078 74.033,40.524 C73.932,42.153 73.77,43.78 73.361,45.373 C72.812,47.513 72.073,49.581 71.261,51.635 C70.641,53.203 70.123,54.814 69.335,56.309 C68.67,57.57 67.938,58.796 67.22,60.029 C66.363,61.501 65.206,62.719 63.97,63.874 C63.326,64.476 62.742,65.142 62.104,65.751 C60.645,67.144 58.999,68.265 57.108,68.988 C55.189,69.721 53.215,70.284 51.194,70.65 C50.486,70.778 49.746,70.727 49.022,70.773 C47.368,70.88 45.716,71.055 44.061,71.095 C41.161,71.165 38.26,71.484 35.36,71.145 C34.667,71.064 33.983,70.898 33.296,70.768 C31.614,70.452 29.931,70.137 28.25,69.814 C27.436,69.657 26.63,69.463 25.814,69.319 C24.205,69.036 22.826,68.18 21.343,67.58 C19.302,66.754 17.527,65.491 15.709,64.296 C15.451,64.127 15.218,63.908 15.009,63.679 C13.65,62.188 12.057,60.908 11.01,59.134 C10.484,58.243 9.864,57.406 9.296,56.539 C9.125,56.279 8.945,56.013 8.842,55.724 C8.232,54.022 7.167,52.566 6.321,50.991 C6.223,50.809 6.11,50.631 6.038,50.438 C5.38,48.686 4.814,46.897 4.481,45.061 C4.147,43.228 3.974,41.363 3.79,39.506 C3.647,38.063 3.526,36.61 3.525,35.161 C3.525,34.082 3.713,33.001 3.854,31.925 C4.059,30.356 4.331,28.796 4.511,27.224 C4.633,26.152 4.962,25.145 5.344,24.156 C5.632,23.412 6.027,22.71 6.375,21.99 C6.432,21.873 6.514,21.766 6.554,21.644 C7.139,19.879 8.239,18.384 9.113,16.771 C9.774,15.551 10.601,14.485 11.736,13.632 C12.622,12.965 13.394,12.14 14.19,11.359 C15.631,9.948 17.327,8.878 19.01,7.807 C20.341,6.959 21.77,6.26 23.175,5.532 C24.313,4.944 25.564,4.693 26.795,4.364 C28.217,3.983 29.656,3.88 31.107,3.805 C31.263,3.797 31.425,3.764 31.573,3.795 C32.72,4.036 33.847,3.717 34.983,3.681 C37.187,3.61 39.39,3.463 41.592,3.701 C44.098,3.972 46.579,4.369 49,5.094 C49.098,5.123 49.202,5.149 49.304,5.155 C51.037,5.261 52.657,5.838 54.279,6.381 C55.776,6.882 57.255,7.435 58.734,7.987 C59.169,8.15 59.572,8.397 59.997,8.591 C60.724,8.924 61.473,9.216 62.183,9.581 C62.683,9.837 63.166,10.149 63.601,10.504 C64.343,11.109 65.069,11.74 65.751,12.412 C66.561,13.211 67.357,14.032 68.086,14.904 C68.564,15.475 68.904,16.159 69.321,16.782 C69.652,17.277 70.061,17.726 70.339,18.247 C70.876,19.252 71.353,20.288 71.837,21.32 C72.134,21.953 72.438,22.588 72.666,23.247 C73.383,25.319 73.624,27.485 73.936,29.642 C74.15,31.122 74.056,32.595 74.098,34.07 Z" id="Fill-1927"></path>
            <path d="M67.591,28.745 C67.092,27.625 66.398,26.787 65.649,25.998 C65.152,25.474 64.588,25.012 64.049,24.528 C63.81,24.313 63.544,24.101 63.779,23.745 C63.994,23.418 64.323,23.481 64.619,23.602 C64.856,23.699 65.11,23.813 65.288,23.989 C66.247,24.932 67.233,25.833 68.009,26.968 C69.325,28.891 70.053,31.035 70.684,33.233 C70.847,33.798 71.072,34.374 71.074,34.947 C71.077,35.657 70.886,36.37 70.762,37.079 C70.722,37.306 70.655,37.538 70.548,37.74 C70.487,37.853 70.293,38 70.208,37.973 C70.066,37.929 69.879,37.77 69.861,37.638 C69.763,36.948 69.66,36.252 69.653,35.557 C69.636,33.701 69.101,31.98 68.383,30.298 C68.262,30.014 68.071,29.89 67.767,30.05 C67.265,30.315 66.762,30.578 66.234,30.856 C66.663,31.889 67.031,32.883 67.481,33.838 C68.088,35.126 68.338,36.496 68.55,37.882 C68.574,38.036 68.588,38.191 68.614,38.344 C68.787,39.359 68.788,39.359 69.775,39.364 C69.48,39.467 69.185,39.57 68.887,39.674 C68.887,40.244 68.915,40.813 68.879,41.377 C68.841,41.942 68.383,42.189 67.968,41.879 C67.828,41.775 67.735,41.545 67.711,41.361 C67.617,40.616 67.572,39.865 67.484,39.12 C67.36,38.064 67.071,37.924 66.105,38.419 C65.486,38.736 65.401,38.89 65.475,39.589 C65.513,39.951 65.598,40.312 65.592,40.672 C65.588,41.002 65.525,41.343 65.423,41.657 C65.327,41.955 65.065,42.097 64.743,42.057 C64.431,42.018 64.308,41.795 64.283,41.514 C64.264,41.308 64.268,41.099 64.274,40.892 C64.317,39.558 64.163,38.25 63.777,36.972 C63.63,36.486 63.532,36.417 63.06,36.561 C62.668,36.68 62.287,36.834 61.856,36.989 C61.942,37.537 62.019,38.044 62.103,38.549 C62.157,38.882 62.236,39.211 62.276,39.545 C62.348,40.125 62.196,40.623 61.669,40.983 C61.193,40.884 61.12,40.514 61.064,40.116 C60.909,39.013 60.817,37.894 60.565,36.813 C60.168,35.1 59.375,33.565 58.263,32.185 C57.279,30.964 56.021,30.161 54.654,29.437 C53.556,28.855 52.398,28.544 51.218,28.253 C51.067,28.216 50.88,28.209 50.781,28.114 C50.646,27.984 50.49,27.772 50.508,27.615 C50.526,27.46 50.727,27.281 50.891,27.201 C51.039,27.128 51.254,27.137 51.426,27.174 C53.55,27.621 55.555,28.333 57.335,29.637 C59.134,30.954 60.368,32.66 61.129,34.734 C61.165,34.832 61.185,34.938 61.237,35.026 C61.391,35.285 61.555,35.746 61.721,35.749 C62.135,35.756 62.571,35.594 62.964,35.422 C63.244,35.299 63.219,34.992 63.112,34.734 C62.675,33.682 62.273,32.611 61.487,31.746 C61.103,31.324 60.76,30.864 60.363,30.456 C60.023,30.107 59.632,29.807 59.266,29.484 C59.012,29.262 58.746,29.051 58.513,28.808 C58.287,28.571 58.146,28.288 58.396,27.976 C58.608,27.709 58.984,27.678 59.297,27.945 C60.008,28.55 60.736,29.143 61.383,29.812 C61.974,30.423 62.519,31.094 62.991,31.8 C63.862,33.102 64.462,34.533 64.825,36.063 C64.937,36.532 65.109,36.987 65.275,37.517 C65.775,37.325 66.191,37.191 66.584,37.008 C66.89,36.865 67.075,36.608 66.95,36.245 C66.56,35.12 66.207,33.979 65.755,32.879 C65.045,31.154 63.898,29.698 62.622,28.372 C61.839,27.559 60.902,26.879 59.977,26.221 C59.241,25.697 58.417,25.295 57.632,24.839 C56.226,24.021 54.68,23.571 53.132,23.127 C53.008,23.092 52.84,23.11 52.762,23.032 C52.628,22.9 52.479,22.716 52.468,22.546 C52.46,22.423 52.647,22.205 52.781,22.173 C53.048,22.108 53.353,22.083 53.617,22.146 C55.412,22.569 57.18,23.071 58.734,24.124 C58.926,24.254 59.12,24.391 59.332,24.484 C61.686,25.512 63.462,27.22 64.98,29.241 C65.525,29.967 65.681,30.002 66.457,29.547 C66.831,29.328 67.169,29.046 67.591,28.745" id="Fill-1928"></path>
            <path d="M20.63,18.985 L20.729,19.163 C20.875,19.129 21.032,19.119 21.165,19.058 C21.791,18.773 22.303,18.984 22.825,19.353 C23.524,19.846 23.969,20.548 24.47,21.206 C24.835,21.685 25.206,21.687 25.565,21.204 C25.811,20.874 25.805,20.531 25.624,20.179 C25.199,19.349 25.12,18.442 25.027,17.537 C24.958,16.863 25.24,16.369 25.839,16.079 C26.187,15.911 26.556,15.765 26.931,15.679 C27.696,15.505 28.316,15.771 28.74,16.432 C28.964,16.781 29.147,17.156 29.347,17.52 C29.535,17.861 29.704,18.213 29.911,18.542 C30.156,18.929 30.361,18.962 30.751,18.743 C31.185,18.499 31.27,18.084 31.189,17.666 C31.092,17.16 30.927,16.663 30.743,16.181 C30.542,15.656 30.56,15.174 30.852,14.694 C31.21,14.102 32.418,13.568 33.09,13.744 C33.281,13.793 33.482,13.908 33.618,14.051 C34.237,14.706 34.667,15.462 34.721,16.387 C34.73,16.54 34.722,16.703 34.678,16.848 C34.572,17.193 34.276,17.257 34.026,16.984 C33.927,16.877 33.887,16.716 33.816,16.582 C33.597,16.171 33.405,15.742 33.149,15.356 C32.86,14.92 32.592,14.852 32.233,15.027 C31.839,15.22 31.666,15.624 31.803,16.071 C31.916,16.443 32.068,16.804 32.165,17.18 C32.405,18.113 32.196,18.905 31.44,19.558 C30.485,20.383 29.471,20.204 28.903,19.079 C28.588,18.456 28.281,17.827 27.929,17.225 C27.711,16.852 27.188,16.728 26.761,16.872 C26.279,17.035 26.018,17.367 26.101,17.875 C26.201,18.486 26.298,19.122 26.552,19.676 C26.865,20.359 26.801,20.979 26.573,21.634 C26.239,22.593 24.617,23.078 23.913,22.257 C23.696,22.004 23.5,21.732 23.281,21.48 C22.944,21.092 22.636,20.663 22.242,20.341 C21.746,19.935 21.257,20.152 21.082,20.762 C20.844,21.589 21.196,22.229 21.714,22.813 C21.914,23.038 22.141,23.247 21.847,23.534 C21.587,23.789 21.306,23.672 21.079,23.474 C20.213,22.72 19.645,21.833 19.871,20.611 C19.906,20.419 19.907,20.22 19.929,19.978 C18.7,20.925 18.398,22.928 19.281,24.052 C19.759,24.661 20.338,25.077 21.165,25.16 C22.143,25.258 23.099,25.244 23.988,24.818 C25.32,24.179 26.64,23.51 27.931,22.793 C28.744,22.342 29.488,21.766 30.276,21.268 C31.723,20.353 33.195,19.477 34.626,18.539 C35.208,18.157 35.732,17.679 36.246,17.205 C36.95,16.555 37.105,15.744 36.781,14.855 C36.706,14.652 36.537,14.352 36.382,14.333 C35.831,14.266 35.669,13.892 35.502,13.468 C35.448,13.33 35.339,13.19 35.217,13.107 C34.215,12.429 33.177,11.993 31.947,12.542 C29.723,13.536 27.486,14.5 25.259,15.488 C24.953,15.624 24.663,15.806 24.392,16.003 C23.615,16.568 22.841,17.137 22.086,17.731 C21.583,18.126 21.114,18.565 20.63,18.985 Z M21.767,26.483 C21.059,26.339 20.346,26.213 19.645,26.04 C19.432,25.987 19.222,25.833 19.061,25.674 C17.46,24.088 17.095,22.223 18.093,20.232 C18.599,19.224 19.35,18.455 20.181,17.752 C21.169,16.917 22.198,16.126 23.232,15.348 C23.663,15.023 24.154,14.779 24.618,14.498 C24.861,14.35 25.097,14.188 25.347,14.052 C25.638,13.893 25.935,13.742 26.239,13.61 C27.333,13.135 28.423,12.65 29.53,12.208 C30.42,11.853 31.329,11.547 32.234,11.235 C33.415,10.828 34.487,11.123 35.483,11.792 C35.913,12.08 36.331,12.389 36.729,12.719 C37.571,13.416 38.011,14.336 38.126,15.412 C38.21,16.209 37.863,16.875 37.432,17.507 C36.792,18.446 35.942,19.169 34.992,19.764 C33.411,20.755 31.801,21.698 30.211,22.676 C29.261,23.26 28.353,23.916 27.38,24.454 C26.429,24.98 25.421,25.4 24.435,25.86 C23.596,26.251 22.704,26.393 21.767,26.483 Z" id="Fill-1929"></path>
            <path d="M36.773,48.711 C36.292,48.882 35.812,48.981 35.449,49.395 C36.608,51.218 37.722,53.022 39.432,54.416 C41.155,55.819 43.024,56.961 44.939,58.055 C45.248,58.231 45.554,58.45 45.783,58.717 C46.018,58.991 45.84,59.303 45.474,59.285 C45.194,59.271 44.902,59.208 44.644,59.098 C44.024,58.834 43.415,58.544 42.815,58.238 C42.138,57.893 42.013,57.915 41.557,58.553 C41.364,58.824 41.161,59.087 40.889,59.451 C41.439,59.755 41.906,60.095 42.427,60.281 C43.329,60.603 44.266,60.79 45.243,60.759 C46.51,60.718 47.779,60.728 49.048,60.72 C49.176,60.719 49.311,60.723 49.432,60.762 C49.705,60.849 49.781,61.134 49.544,61.291 C49.249,61.487 48.911,61.69 48.572,61.733 C46.763,61.961 44.951,62.018 43.15,61.633 C42.041,61.396 41.062,60.854 40.085,60.316 C38.423,59.401 37.098,58.086 35.885,56.654 C35.662,56.39 35.514,56.038 35.419,55.701 C35.379,55.559 35.522,55.297 35.66,55.195 C35.747,55.131 35.995,55.237 36.141,55.318 C36.271,55.391 36.357,55.539 36.469,55.647 C37.436,56.581 38.392,57.527 39.38,58.439 C39.794,58.82 39.995,58.791 40.344,58.347 C40.61,58.008 40.806,57.615 41.066,57.192 C40.494,56.717 40.007,56.253 39.461,55.872 C37.733,54.664 36.344,53.163 35.318,51.316 C35.005,50.753 34.58,50.253 34.255,49.695 C33.892,49.071 33.574,48.421 33.263,47.77 C33.191,47.618 33.173,47.391 33.233,47.238 C33.3,47.066 33.458,46.878 33.623,46.814 C33.748,46.766 34.005,46.854 34.096,46.967 C34.304,47.226 34.449,47.537 34.615,47.83 C34.873,48.285 35.024,48.33 35.482,48.075 C36.139,47.708 36.181,47.548 35.955,46.841 C35.743,46.176 35.577,45.497 35.407,44.82 C35.364,44.648 35.369,44.46 35.379,44.28 C35.395,43.993 35.533,43.779 35.83,43.723 C36.156,43.66 36.298,43.901 36.404,44.14 C36.476,44.302 36.511,44.488 36.529,44.667 C36.632,45.699 37.023,46.638 37.555,47.502 C38.481,49.005 39.502,50.443 40.81,51.649 C41.001,51.825 41.188,52.019 41.411,52.14 C41.572,52.227 41.84,52.297 41.977,52.222 C42.467,51.953 42.986,51.695 43.34,51.14 C42.96,50.794 42.599,50.477 42.251,50.148 C41.817,49.738 41.383,49.328 40.966,48.9 C40.124,48.035 39.683,46.969 39.467,45.798 C39.444,45.673 39.409,45.514 39.463,45.417 C39.556,45.249 39.693,45.035 39.85,44.995 C40.006,44.956 40.247,45.068 40.382,45.19 C40.501,45.297 40.557,45.505 40.585,45.678 C40.781,46.892 41.42,47.837 42.329,48.628 C42.974,49.19 43.6,49.772 44.249,50.329 C45.394,51.314 46.745,51.896 48.18,52.307 C48.404,52.371 48.636,52.435 48.831,52.554 C48.939,52.619 49.044,52.805 49.03,52.922 C49.016,53.043 48.865,53.232 48.758,53.243 C48.353,53.286 47.917,53.358 47.538,53.254 C46.894,53.078 46.284,52.779 45.662,52.526 C45.373,52.409 45.1,52.226 44.802,52.17 C44.545,52.122 44.221,52.135 44,52.256 C43.583,52.483 43.121,52.696 42.835,53.254 C43.155,53.505 43.443,53.754 43.753,53.969 C45.168,54.951 46.679,55.737 48.338,56.231 C48.935,56.409 49.087,56.613 48.998,56.917 C48.91,57.22 48.622,57.323 48.06,57.176 C46.957,56.887 45.872,56.57 44.871,55.973 C42.655,54.652 40.607,53.118 38.806,51.277 C38.158,50.614 37.651,49.813 37.078,49.076 C36.986,48.957 36.885,48.844 36.773,48.711" id="Fill-1930"></path>
            <path d="M66.871,48.463 C67.024,48.563 67.101,48.629 67.19,48.667 C67.431,48.771 67.509,48.97 67.391,49.169 C67.315,49.295 67.091,49.442 66.97,49.415 C66.247,49.257 65.947,49.718 65.636,50.226 C64.814,51.569 63.684,52.649 62.553,53.719 C61.632,54.591 60.666,55.419 59.694,56.235 C59.361,56.514 58.944,56.692 58.569,56.923 C58.107,57.208 57.641,57.488 57.195,57.797 C57.083,57.874 56.955,58.069 56.978,58.181 C57.086,58.712 57.22,59.241 57.393,59.755 C57.476,60.005 57.721,60.093 57.973,59.963 C58.319,59.785 58.643,59.566 58.992,59.396 C60.501,58.661 61.808,57.645 63.036,56.517 L63.152,56.412 C63.391,56.191 63.678,55.964 63.956,56.263 C64.224,56.55 64.003,56.862 63.779,57.081 C63.092,57.751 62.39,58.406 61.685,59.058 C61.271,59.442 61.215,59.653 61.448,60.056 C61.603,60.326 61.809,60.447 62.083,60.25 C62.31,60.087 62.515,59.888 62.715,59.691 C62.997,59.414 63.292,59.363 63.53,59.573 C63.786,59.797 63.818,60.207 63.531,60.461 C62.362,61.496 61.156,62.479 59.591,62.867 C59.49,62.892 59.39,62.925 59.287,62.937 C58.982,62.975 58.617,63.082 58.514,62.656 C58.41,62.223 58.792,62.154 59.081,62.063 C59.76,61.851 60.359,61.512 60.949,60.986 C60.818,60.764 60.715,60.532 60.56,60.34 C60.336,60.064 60.055,59.996 59.74,60.224 C57.97,61.5 55.904,62.018 53.832,62.502 C53.015,62.693 52.834,62.56 52.609,61.812 C53.809,61.236 55.205,61.185 56.442,60.543 C56.231,59.879 56.038,59.27 55.848,58.671 C55.373,58.541 55.028,58.757 54.684,58.91 C54.211,59.12 53.769,59.405 53.29,59.597 C52.962,59.728 52.597,59.785 52.243,59.82 C51.956,59.848 51.753,59.691 51.698,59.38 C51.648,59.094 51.795,58.954 52.031,58.841 C52.685,58.528 53.331,58.197 53.984,57.881 C55.268,57.26 56.56,56.657 57.834,56.017 C58.224,55.821 58.587,55.552 58.923,55.271 C59.665,54.65 59.661,54.282 58.896,53.485 C58.68,53.622 58.433,53.75 58.216,53.917 C57.055,54.813 55.777,55.5 54.406,56.007 C53.949,56.176 53.457,56.272 52.972,56.339 C52.816,56.361 52.565,56.225 52.475,56.086 C52.32,55.845 52.494,55.641 52.717,55.52 C52.99,55.372 53.275,55.247 53.554,55.109 C54.389,54.695 55.223,54.28 56.057,53.864 C56.174,53.805 56.286,53.735 56.335,53.708 C56.257,53.056 55.816,52.798 55.535,52.443 C55.469,52.358 55.192,52.373 55.047,52.43 C54.711,52.564 54.404,52.768 54.071,52.914 C53.693,53.08 53.308,53.244 52.91,53.348 C52.747,53.39 52.461,53.332 52.372,53.213 C52.199,52.982 52.282,52.71 52.537,52.543 C52.862,52.329 53.191,52.118 53.532,51.932 C54.814,51.232 55.995,50.388 57,49.331 C58.095,48.179 58.943,46.847 59.58,45.385 C59.632,45.266 59.67,45.142 59.715,45.02 C59.831,44.704 60.051,44.561 60.383,44.65 C60.672,44.728 60.889,45.084 60.788,45.387 C60.625,45.878 60.456,46.378 60.206,46.827 C59.79,47.573 59.361,48.324 58.837,48.995 C58.314,49.667 57.681,50.257 57.07,50.857 C56.455,51.459 56.47,52.226 57.177,52.73 C57.303,52.819 57.595,52.816 57.731,52.73 C59.117,51.849 60.456,50.91 61.25,49.4 L61.372,49.206 C61.544,49.122 61.764,48.974 61.901,49.024 C62.041,49.077 62.204,49.345 62.185,49.498 C62.145,49.819 62.055,50.17 61.874,50.432 C61.418,51.091 60.976,51.769 60.294,52.241 C60.087,52.384 59.939,52.612 59.706,52.863 C59.905,53.172 60.096,53.468 60.288,53.766 C60.724,53.815 61.012,53.584 61.263,53.329 C62.738,51.837 64.359,50.47 65.352,48.563 C65.447,48.382 65.612,48.238 65.719,48.061 C66.118,47.398 66.52,46.735 66.892,46.056 C67.029,45.805 67.186,45.565 67.468,45.665 C67.643,45.728 67.839,45.978 67.862,46.164 C67.895,46.426 67.829,46.732 67.713,46.975 C67.48,47.461 67.184,47.918 66.871,48.463" id="Fill-1931"></path>
            <path d="M40.432,31.97 C40.94,31.475 41.357,31.091 41.749,30.683 C42.747,29.645 43.816,28.704 45.201,28.218 C45.611,28.074 46.052,27.996 46.486,27.945 C46.777,27.91 47.087,28 47.128,28.363 C47.162,28.665 46.945,28.827 46.679,28.92 L46.457,28.994 C45.173,29.231 44.218,30.039 43.273,30.852 C42.422,31.583 41.733,32.455 41.146,33.414 C40.645,34.23 40.076,35.005 39.591,35.831 C39.319,36.294 39.163,36.825 38.943,37.321 C38.82,37.6 38.728,37.945 38.326,37.918 C37.99,37.895 37.706,37.443 37.793,37.011 C37.92,36.379 38.045,35.747 38.466,35.207 C38.881,34.677 39.222,34.09 39.602,33.532 C39.798,33.244 39.858,32.967 39.601,32.685 C39.219,32.264 38.855,31.825 38.45,31.429 C38.179,31.165 37.856,31.211 37.65,31.528 C36.776,32.875 35.861,34.201 35.068,35.595 C33.868,37.704 33.686,40.072 33.527,42.43 C33.492,42.943 33.512,42.945 33.24,43.337 C32.659,43.101 32.287,42.467 32.367,41.644 C32.483,40.432 32.647,39.223 32.83,38.019 C32.995,36.932 33.346,35.91 33.989,34.994 C34.239,34.639 34.393,34.217 34.612,33.783 C34.012,33.377 33.493,32.912 32.746,32.827 C31.372,34.91 31.234,37.45 30.095,39.622 C29.675,39.42 29.621,39.064 29.625,38.747 C29.631,38.26 29.686,37.766 29.79,37.29 C29.956,36.531 30.149,35.775 30.387,35.036 C30.889,33.47 31.659,32.033 32.578,30.67 C33.113,29.878 33.606,29.056 34.115,28.252 C33.873,27.821 33.634,27.466 33.162,27.325 C32.772,27.568 32.624,27.949 32.492,28.345 C32.387,28.661 32.292,28.997 31.793,29.014 C31.758,28.83 31.673,28.655 31.704,28.503 C32.012,27.004 32.622,25.647 33.645,24.49 C33.903,24.199 34.136,23.886 34.4,23.601 C34.681,23.297 34.959,22.981 35.285,22.731 C35.811,22.33 36.16,22.393 36.711,22.902 C36.728,23.259 36.445,23.353 36.207,23.515 C35.206,24.195 34.478,25.121 33.875,26.103 C33.918,26.222 33.922,26.281 33.953,26.317 C35.063,27.558 34.78,27.344 35.885,26.397 C36.102,26.211 36.306,26.008 36.538,25.844 C36.747,25.696 36.974,25.555 37.215,25.475 C37.672,25.322 38.031,25.454 38.154,25.768 C38.273,26.075 38.059,26.314 37.633,26.587 C37.138,26.906 36.661,27.274 36.243,27.688 C35.243,28.679 34.395,29.793 33.752,31.053 C33.649,31.256 33.576,31.475 33.452,31.773 C33.916,32.021 34.33,32.275 34.771,32.47 C35.269,32.691 35.352,32.651 35.678,32.211 C36.079,31.669 36.417,31.07 36.879,30.588 C37.917,29.503 38.997,28.456 40.095,27.43 C40.96,26.622 42.023,26.123 43.114,25.692 C43.258,25.635 43.412,25.592 43.565,25.578 C43.969,25.538 44.276,25.75 44.323,26.078 C44.367,26.387 44.13,26.772 43.78,26.827 C42.025,27.1 40.83,28.264 39.636,29.418 C38.99,30.044 39.012,30.106 39.552,30.82 C39.815,31.167 40.081,31.511 40.432,31.97" id="Fill-1932"></path>
            <path d="M41.455,40.105 C41.526,40.788 41.562,41.279 41.631,41.765 C41.86,43.375 42.564,44.774 43.872,45.72 C45.166,46.655 46.537,47.5 48.092,48.004 C49.554,48.479 50.96,48.419 52.315,47.738 C52.98,47.403 53.6,46.96 54.196,46.508 C56.438,44.807 57.738,42.559 57.966,39.739 C58.054,38.641 57.953,37.525 57.379,36.567 C56.796,35.594 56.122,34.664 55.395,33.792 C53.883,31.978 50.498,30.848 48.011,32.062 C47.593,32.266 47.175,32.474 46.749,32.661 C44.497,33.643 43.327,35.668 42.017,37.559 L41.991,37.632 C41.8,38.512 41.609,39.391 41.455,40.105 Z M40.178,39.914 C40.229,39.05 40.509,38.277 40.85,37.512 C41.776,35.434 43.068,33.63 44.983,32.374 C46.258,31.537 47.608,30.794 49.139,30.489 C49.317,30.454 49.499,30.409 49.677,30.418 C52.062,30.532 54.281,31.027 56.055,32.832 C57.123,33.919 58.001,35.133 58.642,36.48 C59.02,37.276 59.175,38.233 59.205,39.126 C59.248,40.394 59.082,41.664 58.399,42.804 C58.066,43.359 57.833,43.976 57.485,44.52 C57.095,45.127 56.673,45.728 56.181,46.253 C54.757,47.769 53.139,48.999 51.016,49.354 C49.824,49.554 48.66,49.523 47.492,49.091 C46.092,48.573 44.789,47.871 43.567,47.048 C41.888,45.918 40.807,44.326 40.463,42.3 C40.328,41.512 40.271,40.71 40.178,39.914 Z" id="Fill-1933"></path>
            <path d="M27.943,64.958 C29.169,64.934 30.098,64.669 30.646,63.847 C31.337,62.811 31.64,61.613 31.35,60.356 C31.259,59.965 31.065,59.556 30.805,59.253 C29.677,57.937 28.506,56.658 27.352,55.364 C26.542,54.456 25.716,53.562 24.932,52.632 C23.987,51.511 22.891,50.572 21.665,49.778 C21.538,49.696 21.383,49.643 21.234,49.611 C20.346,49.423 19.518,49.445 18.704,49.991 C17.875,50.548 17.487,51.372 17.074,52.2 C17.01,52.328 17.028,52.508 17.039,52.662 C17.204,54.982 18.045,57.05 19.456,58.878 C20.087,59.696 20.8,60.452 21.494,61.219 C22.296,62.106 23.135,62.953 24.213,63.517 C24.695,63.768 25.146,64.097 25.652,64.279 C26.473,64.575 27.266,65.018 27.943,64.958 Z M32.606,61.339 C32.501,61.814 32.458,62.315 32.276,62.758 C32.011,63.404 31.696,64.042 31.307,64.619 C31.074,64.965 30.691,65.246 30.32,65.458 C29.249,66.069 28.11,66.297 26.878,65.978 C25.271,65.562 23.86,64.802 22.51,63.836 C21.451,63.079 20.677,62.084 19.828,61.147 C18.711,59.913 17.72,58.578 17.025,57.053 C16.431,55.752 16.003,54.395 15.839,52.967 C15.827,52.865 15.83,52.757 15.848,52.656 C16.124,51.103 16.876,49.847 18.23,49.014 C18.682,48.736 19.201,48.517 19.718,48.407 C20.537,48.233 21.332,48.512 22.041,48.885 C23.308,49.553 24.414,50.432 25.362,51.533 C27.085,53.535 28.87,55.484 30.624,57.461 C30.934,57.81 31.204,58.193 31.512,58.543 C32.212,59.34 32.591,60.247 32.606,61.339 Z" id="Fill-1934"></path>
            <path d="M50.799,12.205 C50.073,12.213 49.284,12.578 48.917,13.004 C48.357,13.658 48.514,14.318 49.326,14.577 C49.918,14.765 50.538,14.862 51.133,15.042 C51.974,15.296 52.81,15.571 53.633,15.879 C53.859,15.964 54.064,16.17 54.22,16.367 C54.672,16.935 55.155,17.491 55.513,18.117 C56.112,19.163 57.044,19.798 58.055,20.337 C58.457,20.551 58.931,20.662 59.386,20.742 C60.11,20.871 60.631,20.462 61.055,19.944 C61.457,19.454 61.22,18.95 60.969,18.491 C60.486,17.608 59.759,17.033 58.778,16.75 C57.681,16.433 56.583,16.109 55.519,15.699 C54.327,15.241 53.214,14.648 52.47,13.516 C52.192,13.092 51.765,12.755 51.366,12.428 C51.181,12.277 50.9,12.243 50.799,12.205 Z M50.586,11.033 C51.915,11.087 52.822,11.629 53.454,12.608 C53.976,13.418 54.678,13.969 55.53,14.418 C56.808,15.093 58.199,15.417 59.55,15.855 C60.943,16.306 61.71,17.292 62.279,18.547 C62.505,19.045 62.482,19.528 62.277,19.974 C61.558,21.539 59.883,22.29 58.434,21.833 C56.756,21.303 55.409,20.387 54.454,18.9 C54.174,18.464 53.877,18.035 53.548,17.637 C52.785,16.711 51.684,16.479 50.587,16.243 C49.906,16.097 49.202,16.005 48.557,15.76 C47.159,15.229 46.866,13.325 47.926,12.171 C48.694,11.335 49.697,11.163 50.586,11.033 Z" id="Fill-1935"></path>
            <path d="M16.525,32.601 C16.279,34.909 16.126,37.115 15.196,39.167 C14.846,39.94 14.862,39.981 15.625,40.338 C16.046,40.535 16.483,40.703 16.927,40.84 C17.461,41.005 17.605,40.9 17.763,40.355 C18.065,39.309 18.335,38.252 18.694,37.226 C18.878,36.7 19.183,36.201 19.505,35.74 C19.964,35.081 20.488,34.469 20.985,33.836 L21.028,33.772 C21.252,33.544 21.41,33.11 21.814,33.303 C22.191,33.482 21.927,33.84 21.906,34.134 C21.85,34.903 21.322,35.41 20.877,35.922 C19.714,37.261 19.023,38.817 18.789,40.534 C18.644,41.597 18.783,42.699 18.799,43.784 L18.862,44.008 C18.92,44.324 18.82,44.579 18.523,44.714 C18.268,44.83 17.928,44.63 17.833,44.257 C17.724,43.833 17.663,43.391 17.636,42.953 C17.613,42.595 17.459,42.349 17.151,42.222 C16.312,41.877 15.468,41.546 14.618,41.229 C14.317,41.116 14.133,41.317 13.997,41.562 C13.746,42.016 13.518,42.486 13.236,42.92 C12.741,43.68 12.233,44.434 11.693,45.161 C11.336,45.642 11.002,45.728 10.717,45.516 C10.416,45.292 10.417,44.827 10.767,44.411 C11.825,43.151 12.705,41.789 13.34,40.262 C13.587,39.668 14.001,39.146 14.279,38.563 C15.24,36.551 15.527,34.41 15.433,32.201 C15.382,31 15.145,29.835 14.83,28.681 C14.769,28.457 14.674,28.212 14.714,27.999 C14.749,27.809 14.915,27.572 15.086,27.498 C15.33,27.391 15.53,27.579 15.605,27.832 C15.769,28.378 15.967,28.919 16.066,29.477 C16.255,30.549 16.385,31.631 16.525,32.601" id="Fill-1936"></path>
            <path d="M50.43,19.08 C50.312,18.804 50.264,18.452 50.062,18.266 C49.526,17.768 48.88,17.341 48.128,17.401 C46.909,17.499 45.714,17.541 44.503,17.27 C44.088,17.177 43.745,17.059 43.383,16.842 C42.768,16.474 42.103,16.182 41.439,15.906 C41.075,15.754 40.785,15.946 40.614,16.291 C40.46,16.603 40.378,16.893 40.643,17.223 C41.094,17.785 41.648,17.907 42.307,17.739 C43.437,17.451 44.467,17.675 45.385,18.376 C45.754,18.658 46.074,19.003 46.43,19.302 C47.003,19.783 47.556,20.297 48.175,20.711 C48.757,21.1 49.353,20.947 49.861,20.455 C50.249,20.08 50.358,19.623 50.43,19.08 Z M51.489,19.242 C51.368,20.386 50.834,21.323 49.777,21.815 C48.653,22.339 47.591,22.029 46.677,21.233 C46.229,20.842 45.8,20.425 45.389,19.994 C44.443,18.998 43.273,18.721 41.977,18.975 C41.086,19.15 40.426,18.877 39.826,18.235 C38.63,16.955 39.315,15.68 40.256,14.955 C40.716,14.6 41.271,14.487 41.861,14.806 C42.475,15.138 43.131,15.392 43.76,15.699 C44.996,16.302 46.31,16.345 47.638,16.235 C48.473,16.165 49.246,16.353 49.963,16.735 C50.943,17.257 51.595,18.017 51.489,19.242 Z" id="Fill-1937"></path>
            <path d="M26.053,42.247 C25.747,41.417 25.752,40.542 25.748,39.67 C25.747,39.515 25.826,39.344 25.781,39.209 C25.723,39.037 25.607,38.804 25.463,38.757 C25.129,38.646 24.763,38.631 24.358,38.569 C24.267,38.836 24.16,39.046 24.126,39.267 C23.977,40.212 23.86,41.162 23.709,42.107 C23.649,42.487 23.576,42.876 23.431,43.229 C23.277,43.604 22.906,43.603 22.751,43.228 C22.636,42.951 22.591,42.625 22.597,42.322 C22.631,40.573 22.953,38.886 23.505,37.214 C23.98,35.779 24.592,34.416 25.209,33.047 C25.877,31.567 26.876,30.3 27.826,29.005 C28.242,28.439 28.545,28.4 29.248,28.701 C29.115,28.966 29.028,29.263 28.846,29.48 C27.534,31.042 26.517,32.8 25.667,34.63 C25.257,35.512 24.773,36.44 24.737,37.502 C24.893,37.559 25.009,37.611 25.131,37.644 C26.103,37.908 26.121,37.899 26.479,36.947 C26.663,36.461 26.833,35.97 27.033,35.491 C27.097,35.338 27.214,35.146 27.351,35.098 C27.523,35.038 27.792,35.042 27.922,35.143 C28.028,35.226 28.05,35.507 28.007,35.674 C27.887,36.149 27.713,36.61 27.563,37.078 C27.28,37.965 26.993,38.851 26.723,39.741 C26.664,39.934 26.659,40.146 26.646,40.349 C26.619,40.789 26.632,41.234 26.571,41.668 C26.54,41.89 26.385,42.095 26.286,42.308 L26.053,42.247" id="Fill-1938"></path>
            <path d="M13.183,56.204 C13.911,55.648 14.108,55.069 13.85,54.357 C13.665,53.846 13.441,53.345 13.31,52.822 C13.212,52.429 13.195,52.006 13.208,51.598 C13.233,50.745 13.312,49.893 13.348,49.039 C13.361,48.71 12.714,48.095 12.367,48.065 C12.027,48.035 11.722,48.329 11.555,48.775 C11.276,49.521 11.515,50.171 11.963,50.732 C12.477,51.375 12.603,52.045 12.455,52.841 C12.352,53.396 12.324,53.984 12.378,54.545 C12.44,55.175 12.61,55.805 13.183,56.204 Z M14.351,49.25 C14.303,50.285 14.246,51.319 14.213,52.355 C14.207,52.551 14.278,52.754 14.338,52.947 C14.49,53.443 14.666,53.931 14.812,54.428 C15.133,55.514 14.661,56.346 13.921,57.075 C13.822,57.173 13.647,57.228 13.502,57.24 C12.723,57.306 11.918,56.699 11.658,55.948 C11.302,54.918 11.245,53.87 11.418,52.814 C11.523,52.179 11.397,51.636 11.044,51.121 C10.956,50.993 10.897,50.845 10.806,50.719 C10.17,49.846 10.358,48.943 10.747,48.06 C11.014,47.452 11.908,46.998 12.575,47.123 C13.738,47.342 14.408,47.906 14.351,49.25 Z" id="Fill-1939"></path>
            <path d="M39.953,66.267 C40.185,66.267 40.424,66.304 40.647,66.259 C41.015,66.184 41.492,66.165 41.562,65.696 C41.63,65.242 41.289,64.944 40.93,64.709 L40.719,64.613 C40.093,64.468 39.466,64.329 38.839,64.187 C38.388,64.085 37.892,64.066 37.497,63.857 C36.963,63.573 36.522,63.748 36.12,64.001 C35.895,64.142 35.728,64.479 35.668,64.756 C35.602,65.067 35.941,65.134 36.17,65.25 C37.361,65.851 38.639,66.121 39.953,66.267 Z M35.412,63.126 C35.294,62.897 35.193,62.702 35.029,62.386 C35.37,62.333 35.642,62.221 35.884,62.267 C36.311,62.347 36.741,62.477 37.129,62.669 C37.837,63.017 38.562,63.249 39.351,63.301 C39.737,63.327 40.118,63.412 40.502,63.469 C41.479,63.616 42.102,64.232 42.566,65.043 C42.913,65.649 42.502,66.674 41.76,67.09 C41.247,67.377 40.694,67.443 40.109,67.433 C39.081,67.416 38.136,67.038 37.156,66.811 C36.755,66.717 36.374,66.537 35.973,66.438 C35.456,66.312 35.131,65.939 34.819,65.568 C34.378,65.043 34.447,64.213 34.936,63.633 C35.084,63.458 35.25,63.298 35.412,63.126 Z" id="Fill-1940"></path>
            <path d="M32.355,53.806 C32.286,53.592 32.253,53.352 32.139,53.162 C31.456,52.025 30.385,51.283 29.35,50.515 C29.225,50.422 28.909,50.42 28.799,50.514 C28.647,50.644 28.511,50.922 28.544,51.105 C28.585,51.328 28.777,51.552 28.959,51.713 C29.188,51.916 29.476,52.053 29.734,52.225 C30.276,52.585 30.779,52.973 31.036,53.613 C31.15,53.895 31.337,54.155 31.525,54.399 C31.752,54.693 32.031,54.665 32.196,54.34 C32.275,54.185 32.299,54.001 32.355,53.806 Z M33.449,53.876 C33.601,54.815 32.974,55.34 32.368,55.814 C31.895,56.184 30.991,55.824 30.639,55.219 C30.444,54.884 30.231,54.556 30.066,54.206 C29.771,53.583 29.25,53.234 28.674,52.911 C28.342,52.725 28.045,52.459 27.772,52.188 C27.233,51.653 27.244,50.093 27.988,49.666 C28.362,49.451 28.702,49.351 29.085,49.499 C30.664,50.114 32.001,51.066 33.014,52.435 C33.325,52.855 33.531,53.337 33.449,53.876 Z" id="Fill-1941"></path>
            <path d="M9.126,39.647 C9.029,39.216 9.264,38.883 9.517,38.599 C11.482,36.393 11.794,33.743 11.656,30.947 C11.611,30.043 11.333,29.223 11.051,28.387 C10.878,27.877 10.758,27.344 10.672,26.811 C10.648,26.664 10.8,26.384 10.927,26.344 C11.081,26.296 11.315,26.406 11.474,26.509 C11.593,26.586 11.664,26.753 11.729,26.893 C12.63,28.812 13.09,30.807 12.733,32.934 C12.579,33.853 12.404,34.769 12.23,35.685 C11.94,37.214 11.104,38.452 10.119,39.607 C9.794,39.989 9.751,39.984 9.126,39.647" id="Fill-1942"></path>
            <path d="M45.693,9.936 C44.866,9.398 44.055,9.404 43.188,9.929 C42.723,10.211 42.574,10.477 42.665,10.859 C42.758,11.25 43.115,11.533 43.577,11.583 C44.798,11.715 45.439,11.227 45.693,9.936 Z M46.88,9.927 C46.904,11.21 46.155,12.214 44.923,12.529 C44.598,12.613 44.258,12.637 43.935,12.724 C42.798,13.029 41.75,12.083 41.447,11.107 C41.26,10.504 41.337,9.904 41.851,9.472 C42.182,9.194 42.547,8.909 42.947,8.768 C43.626,8.529 44.336,8.361 45.047,8.237 C46.008,8.07 46.861,8.885 46.88,9.927 Z" id="Fill-1943"></path>
            <path d="M63.52,15.128 L63.423,15.252 C63.633,15.714 63.819,16.189 64.062,16.633 C64.167,16.823 64.373,16.979 64.567,17.091 C64.698,17.167 64.944,17.213 65.037,17.141 C65.137,17.064 65.178,16.818 65.141,16.672 C64.921,15.804 64.229,15.451 63.52,15.128 Z M64.937,18.615 C64.476,18.554 63.99,18.417 63.668,18.014 C63.282,17.532 62.945,17.01 62.609,16.491 C62.442,16.233 62.342,15.931 62.178,15.67 C61.932,15.276 61.747,14.865 62.045,14.447 C62.349,14.02 62.823,13.756 63.331,13.91 C63.939,14.094 64.53,14.376 65.08,14.698 C65.785,15.111 66.126,15.83 66.386,16.571 C66.662,17.359 65.775,18.625 64.937,18.615 Z" id="Fill-1944"></path>
            <path d="M19.803,13.461 C20.278,13.448 20.703,13.06 20.88,12.477 C21.069,11.855 20.627,11.39 19.986,11.537 C19.537,11.639 19.131,12.152 19.075,12.689 C19.023,13.194 19.288,13.476 19.803,13.461 Z M20.035,10.281 C21.517,10.263 22.429,11.577 21.881,12.939 C21.565,13.723 21.087,14.328 20.202,14.514 C19.058,14.754 18.23,14.233 17.894,13.11 C17.568,12.021 18.954,10.15 20.035,10.281 Z" id="Fill-1945"></path>
            <path d="M55.942,11.539 C55.915,12.24 56.179,12.657 56.711,12.762 C56.997,12.818 57.176,12.722 57.187,12.418 C57.211,11.731 56.656,11.343 55.942,11.539 Z M55.957,10.21 C56.087,10.223 56.245,10.222 56.395,10.258 C56.812,10.358 57.311,10.253 57.618,10.642 C58.071,11.217 58.426,11.857 58.481,12.604 C58.527,13.229 57.784,14.033 57.104,14.071 C55.299,14.174 54.099,12.393 54.73,10.978 C54.992,10.391 55.281,10.194 55.957,10.21 Z" id="Fill-1946"></path>
            <path d="M66.212,53.137 C66.845,53.562 67.258,53.494 67.561,52.9 C67.732,52.563 67.827,52.186 67.958,51.823 C67.254,51.663 66.533,52.213 66.212,53.137 Z M66.86,54.496 C65.775,54.484 64.891,53.539 65.395,52.427 C65.63,51.909 65.994,51.518 66.46,51.23 C66.941,50.932 67.443,50.658 67.962,50.438 C68.126,50.369 68.464,50.432 68.572,50.561 C68.906,50.961 69.166,51.436 68.975,51.985 C68.789,52.521 68.578,53.052 68.324,53.558 C68.005,54.194 67.422,54.446 66.86,54.496 Z" id="Fill-1947"></path>
            <path d="M24.841,47.195 C24.844,47.695 24.983,47.882 25.358,47.892 C25.76,47.902 26.139,47.576 26.155,47.207 C26.173,46.817 25.774,46.507 25.29,46.532 C24.947,46.55 24.838,46.71 24.841,47.195 Z M23.686,46.927 C23.594,46.099 24.446,45.42 25.229,45.407 C26.3,45.39 27.167,46.257 27.148,47.329 C27.131,48.308 26.304,49.167 25.355,49.106 C24.157,49.028 23.758,48.41 23.686,46.927 Z" id="Fill-1948"></path>
            <path d="M27.639,9.39 L27.839,9.372 C27.914,9.18 28.034,8.992 28.055,8.795 C28.081,8.533 27.916,8.361 27.64,8.37 C27.382,8.378 27.27,8.576 27.325,8.788 C27.38,9.002 27.53,9.19 27.639,9.39 Z M27.52,7.302 C28.544,7.324 28.859,7.553 29.104,8.408 C29.399,9.441 29.254,9.971 28.488,10.42 C28.258,10.554 27.958,10.612 27.686,10.627 C26.723,10.679 25.691,9.022 26.259,8.045 C26.548,7.548 26.937,7.187 27.52,7.302 Z" id="Fill-1949"></path>
            <path d="M68.624,23.403 C68.542,22.647 68.362,22.464 67.677,22.432 C67.818,22.939 68.111,23.242 68.624,23.403 Z M67.791,21.128 C68.105,21.282 68.458,21.389 68.725,21.604 C69.062,21.876 69.347,22.221 69.622,22.56 C70.014,23.042 70.013,23.549 69.66,23.963 C69.155,24.555 68.462,24.782 67.951,24.441 C67.299,24.006 66.803,23.388 66.487,22.684 C66.156,21.949 66.85,21.185 67.791,21.128 Z" id="Fill-1950"></path>
            <path d="M47.145,25.141 C46.992,24.654 47.257,24.514 47.562,24.379 C48.553,23.939 49.554,24.091 50.523,24.396 C51.531,24.714 52.512,25.127 53.495,25.522 C53.909,25.688 54.046,25.952 53.936,26.221 C53.788,26.586 53.344,26.762 52.965,26.544 C51.829,25.888 50.594,25.522 49.32,25.274 C48.894,25.191 48.454,25.174 48.019,25.145 C47.74,25.126 47.459,25.141 47.145,25.141" id="Fill-1951"></path>
            <path d="M13.272,21.14 C12.575,20.812 12.316,20.834 12.18,21.204 C12.076,21.487 12.19,21.688 12.508,21.783 C12.91,21.902 13.094,21.754 13.272,21.14 Z M14.195,21.238 C14.208,21.822 13.762,22.546 13.262,22.752 C12.498,23.066 11.844,22.935 11.36,22.348 C11.248,22.213 11.152,22.043 11.111,21.874 C10.984,21.347 11.574,19.907 12.055,19.667 C12.288,19.55 12.608,19.526 12.871,19.569 C13.331,19.642 14.184,20.771 14.195,21.238 Z" id="Fill-1952"></path>
            <path d="M46.067,65.186 C46.48,65.625 46.786,65.805 47.16,65.641 C47.301,65.579 47.428,65.339 47.436,65.174 C47.44,65.078 47.186,64.875 47.065,64.887 C46.781,64.916 46.507,65.046 46.067,65.186 Z M46.789,63.965 C47.863,63.981 48.277,64.273 48.477,65.096 C48.612,65.65 48.374,66.196 47.872,66.484 C47.038,66.962 45.746,66.603 45.277,65.768 C45.105,65.463 45.139,65.166 45.307,64.885 C45.66,64.297 46.106,63.855 46.789,63.965 Z" id="Fill-1953"></path>
            <path d="M9.689,32.294 C9.546,32.998 9.409,33.702 9.256,34.403 C9.2,34.656 9.018,34.858 8.758,34.759 C8.573,34.689 8.382,34.489 8.311,34.302 C8.245,34.132 8.31,33.894 8.364,33.699 C8.584,32.91 8.612,32.127 8.422,31.325 C8.345,31.004 8.314,30.655 8.353,30.329 C8.396,29.965 8.769,29.866 8.95,30.18 C9.215,30.639 9.394,31.153 9.569,31.658 C9.632,31.842 9.579,32.068 9.579,32.274 L9.689,32.294" id="Fill-1954"></path>
            <path d="M48.016,45.021 C48.298,44.985 48.583,44.962 48.863,44.91 C50.72,44.564 51.268,41.994 50.229,40.886 C49.543,40.153 48.072,39.747 47.157,40.157 C46.412,40.491 45.812,41.04 45.396,41.743 C45.263,41.966 45.215,42.308 45.275,42.561 C45.443,43.28 45.823,43.929 46.4,44.369 C46.853,44.714 47.35,45.123 48.016,45.021 Z M47.842,46.2 C46.513,46.118 45.455,45.493 44.709,44.358 C43.62,42.702 43.76,41.457 45.16,40.042 C45.701,39.494 46.356,39.129 47.066,38.867 C47.326,38.771 47.632,38.718 47.904,38.752 C48.621,38.84 49.337,38.961 50.04,39.125 C50.271,39.178 50.533,39.358 50.658,39.557 C51.071,40.213 51.469,40.885 51.791,41.588 C52.036,42.122 51.922,42.705 51.768,43.266 C51.202,45.332 49.948,46.064 47.842,46.2 Z" id="Fill-1955"></path>
            <path d="M21.749,52.926 C21.329,52.72 20.985,52.833 20.69,53.06 C20.178,53.455 19.682,53.871 19.197,54.298 C18.848,54.605 18.608,54.664 18.399,54.434 C18.194,54.209 18.218,53.886 18.523,53.615 C19.045,53.152 19.594,52.719 20.132,52.274 C20.599,51.889 21.148,51.779 21.735,51.796 C22.469,51.816 22.901,52.247 22.838,52.987 C22.765,53.846 22.566,54.668 21.961,55.347 C21.658,55.688 21.365,56.07 21.574,56.714 C21.871,56.546 22.143,56.429 22.371,56.255 C22.742,55.973 23.068,55.63 23.442,55.353 C24.342,54.686 25.263,54.927 25.751,55.932 C26.26,56.981 26.121,57.885 25.349,58.788 C25.082,59.099 24.831,59.439 24.654,59.806 C24.573,59.976 24.611,60.355 24.731,60.434 C24.905,60.549 25.259,60.574 25.435,60.469 C25.876,60.205 26.269,59.857 26.666,59.524 C27.479,58.843 28.728,58.969 29.317,59.846 C29.478,60.085 29.551,60.428 29.549,60.723 C29.546,61.425 29.168,62.006 28.805,62.575 C28.659,62.804 28.394,62.966 28.136,62.795 C27.843,62.6 27.95,62.3 28.079,62.032 C28.224,61.731 28.394,61.44 28.502,61.127 C28.586,60.882 28.602,60.606 28.337,60.424 C28.07,60.24 27.78,60.106 27.47,60.301 C27.098,60.535 26.755,60.819 26.377,61.042 C26.004,61.262 25.62,61.504 25.208,61.613 C24.473,61.808 23.712,61.342 23.536,60.599 C23.391,59.982 23.398,59.358 23.91,58.857 C24.17,58.603 24.424,58.341 24.654,58.061 C24.992,57.652 25.067,57.179 24.912,56.671 C24.757,56.168 24.422,56.024 23.964,56.283 C23.786,56.384 23.639,56.54 23.469,56.659 C23.066,56.94 22.678,57.249 22.249,57.483 C21.262,58.021 20.343,57.448 20.341,56.308 C20.34,55.882 20.49,55.524 20.797,55.191 C21.363,54.578 21.854,53.903 21.749,52.926" id="Fill-1956"></path>
        </g>
    </g>
</svg>