<?xml version="1.0" encoding="UTF-8"?>
<svg width="69px" height="108px" viewBox="0 0 69 108" version="1.1" xmlns="http://www.w3.org/2000/svg" xmlns:xlink="http://www.w3.org/1999/xlink">
    <!-- Generator: Sketch 50.2 (55047) - http://www.bohemiancoding.com/sketch -->
    <title>Sprout</title>
    <desc>Created with Sketch.</desc>
    <defs></defs>
    <g id="Sprout" stroke="none" stroke-width="1" fill="none" fill-rule="evenodd">
        <g id="Group" fill="#333333">
            <path d="M66.7301521,40.5525749 C65.9601521,45.2085749 63.5001521,48.9215749 60.2201521,52.1635749 C59.1401521,53.2375749 57.8801521,54.0745749 56.3701521,54.4925749 C55.3701521,54.7675749 54.4101521,55.2035749 53.4101521,55.4455749 C50.9101521,56.0485749 48.6601521,55.3565749 46.5701521,53.9765749 C46.4601521,53.9025749 46.3901521,53.7575749 46.3401521,53.6905749 C47.1401521,52.0025749 47.8901521,50.3605749 48.7001521,48.7455749 C49.3801521,47.3735749 50.4701521,46.4025749 51.8901521,45.7985749 C53.3801521,45.1595749 54.3401521,44.3845749 55.3201521,43.0375749 C55.0201521,42.7165749 54.7101521,42.7035749 54.3701521,42.9825749 C53.3801521,43.8005749 52.1301521,44.0965749 50.9901521,44.5915749 C49.2601521,45.3375749 48.1101521,46.5975749 47.4101521,48.3315749 C46.9701521,49.4285749 46.4601521,50.5025749 45.9301521,51.5585749 C45.6201521,52.1795749 45.2801521,52.8295749 44.4001521,52.8535749 C44.5401521,54.1905749 43.6001521,54.9245749 42.8201521,55.6485749 C41.1701521,57.1815749 39.4301521,58.6195749 37.6801521,60.0465749 C36.7401521,60.8145749 35.6701521,61.4255749 34.7401521,62.2025749 C32.7001521,63.9065749 31.2801521,66.0595749 30.6301521,68.6355749 C29.9001521,71.5065749 29.3701521,74.4175749 29.4401521,77.4045749 C29.4501521,77.9195749 29.3901521,78.4395749 29.3301521,78.9525749 C29.0401521,81.1735749 29.5201521,83.3715749 29.5301521,85.5855749 C29.5401521,86.4885749 29.8901521,87.3885749 30.0701521,88.2935749 C30.1401521,88.6865749 30.1701521,89.0895749 30.2301521,89.5605749 C29.5101521,89.5985749 28.8501521,89.6425749 28.1901521,89.6655749 C26.2701521,89.7305749 25.8801521,90.0085749 25.1901521,91.8285749 C25.1401521,91.9635749 25.0801521,92.0975749 25.0101521,92.2885749 C24.0301521,92.0865749 23.0601521,91.6825749 22.1201521,91.7475749 C21.2301521,91.8085749 20.3801521,92.3605749 19.5101521,92.6945749 C19.1401521,91.4355749 19.9701521,90.4815749 20.5801521,89.4705749 C21.1001521,88.5845749 21.6701521,87.7205749 22.2501521,86.8685749 C24.1901521,84.0315749 25.3701521,80.8335749 26.5401521,77.6495749 C27.0301521,76.3165749 27.1701521,74.8435749 27.3901521,73.4225749 C27.7301521,71.1775749 27.4401521,68.9345749 27.1801521,66.7045749 C27.1001521,65.9835749 26.8001521,65.2875749 26.5801521,64.5835749 C26.3801521,63.9325749 26.1701521,63.2875749 25.9201521,62.5155749 C25.2801521,62.4775749 24.8601521,61.8815749 24.3901521,61.3045749 C23.1001521,59.7535749 21.5501521,58.4955749 19.7901521,57.5225749 C18.1301521,56.6035749 16.5801521,55.5675749 15.1701521,54.2885749 C13.7901521,53.0295749 12.5701521,51.6725749 11.9501521,49.8645749 C11.9201521,49.7595749 11.9001521,49.6215749 11.8301521,49.5605749 C11.6501521,49.4185749 11.4401521,49.3145749 11.2501521,49.1955749 C11.1101521,49.4215749 10.8301521,49.6655749 10.8601521,49.8725749 C11.0001521,51.1025749 11.4801521,52.2085749 12.2101521,53.2225749 C14.0001521,55.7145749 16.3801521,57.4915749 19.0701521,58.8935749 C20.7001521,59.7485749 22.0201521,60.9605749 23.2401521,62.3145749 C23.3301521,62.4215749 23.3901521,62.5615749 23.4601521,62.6895749 C23.4801521,62.7155749 23.4501521,62.7615749 23.4401521,62.8725749 C20.0501521,63.7225749 16.6401521,64.0775749 13.2401521,62.8235749 C12.4701521,62.5425749 11.7001521,62.2755749 10.9201521,62.0405749 C8.34015212,61.2595749 6.38015212,59.6385749 4.84015212,57.4775749 C4.26015212,56.6695749 3.61015212,55.8825749 3.20015212,54.9905749 C1.59015212,51.4535749 0.960152118,47.7605749 1.68015212,43.8885749 C1.99015212,42.2465749 2.41015212,40.6505749 3.06015212,39.1015749 C4.00015212,36.8525749 4.91015212,34.5885749 5.74015212,32.2945749 C6.76015212,29.4465749 7.19015212,26.4765749 7.02015212,23.4615749 C6.94015212,22.1105749 6.53015212,20.7775749 6.25015212,19.4405749 C6.14015212,18.9065749 5.97015212,18.3835749 5.76015212,17.5755749 C6.38015212,17.9085749 6.79015212,18.0995749 7.18015212,18.3375749 C8.37015212,19.0795749 9.53015212,19.8785749 10.7401521,20.5835749 C13.3901521,22.1265749 16.0501521,23.6625749 18.7401521,25.1265749 C19.9801521,25.7975749 21.2701521,26.3625749 22.3401521,27.2975749 C23.6601521,28.4435749 24.7501521,29.7895749 25.6801521,31.2535749 C26.6301521,32.7495749 27.4901521,34.3055749 28.3401521,35.8605749 C29.3501521,37.7065749 30.0001521,39.7425749 30.0301521,41.7915749 C30.0701521,43.8655749 30.0501521,46.0175749 29.3101521,48.0375749 C28.4901521,50.2905749 27.7301521,52.5665749 26.8001521,54.7765749 C25.8601521,57.0375749 26.0601521,59.2745749 26.7301521,61.4985749 C27.1201521,62.7975749 27.7701521,64.0165749 28.2801521,65.2835749 C28.4501521,65.7205749 28.5301521,66.1965749 28.6701521,66.6505749 C28.6801521,66.7045749 28.7801521,66.7345749 28.9801521,66.8685749 C29.1301521,66.5865749 29.3101521,66.3345749 29.3901521,66.0535749 C29.5401521,65.5215749 29.6201521,64.9705749 29.7501521,64.4315749 C30.2301521,62.3685749 31.4401521,60.7115749 32.9401521,59.3335749 C33.8401521,58.5055749 35.0601521,58.0065749 36.1601521,57.4085749 C39.4301521,55.6345749 42.2201521,53.3655749 44.2301521,50.1675749 C45.3601521,48.3645749 46.3001521,46.5215749 46.7501521,44.4295749 C46.9601521,43.4615749 47.4001521,42.5455749 47.6601521,41.5855749 C47.8901521,40.7315749 48.0101521,39.8505749 48.1801521,38.9805749 C48.5801521,36.9205749 48.4401521,34.8505749 48.2801521,32.7835749 C48.2401521,32.3115749 48.0901521,31.8375749 47.9301521,31.3885749 C47.4201521,29.9975749 46.8801521,28.6185749 46.3601521,27.2335749 C46.1901521,26.7705749 45.9801521,26.3425749 45.4101521,26.2755749 C44.9801521,26.4835749 45.1001521,26.8175749 45.2101521,27.1335749 C45.7301521,28.6365749 46.2201521,30.1475749 46.7801521,31.6355749 C47.3001521,33.0125749 47.5001521,34.4215749 47.3901521,35.8805749 C47.3801521,35.9745749 47.2901521,36.0615749 47.1701521,36.2805749 C46.7301521,35.2945749 46.3901521,34.3845749 45.9501521,33.5295749 C45.4901521,32.6495749 44.9901521,31.7705749 44.3801521,30.9905749 C43.9001521,30.3635749 43.2501521,29.7815749 42.1501521,30.2995749 C42.3701521,30.6145749 42.5101521,30.9675749 42.7601521,31.1415749 C43.5601521,31.6815749 44.1001521,32.4245749 44.5301521,33.2375749 C45.4201521,34.8675749 46.0901521,36.5825749 46.4401521,38.4115749 C46.4801521,38.6285749 46.4601521,38.9125749 46.6001521,39.0455749 C47.0901521,39.5405749 46.9001521,40.0685749 46.7301521,40.5915749 C46.4501521,41.4945749 46.1301521,42.3895749 45.7701521,43.4345749 C45.5301521,42.6155749 45.4401521,41.9885749 45.8701521,41.3715749 C46.3901521,40.6225749 46.0101521,39.8145749 45.7901521,39.1305749 C45.5001521,38.1945749 44.9301521,37.3405749 44.4301521,36.4755749 C44.2301521,36.1265749 43.9001521,35.7415749 43.4501521,36.0825749 C43.0701521,36.3635749 43.1001521,36.7795749 43.3801521,37.1655749 C43.6201521,37.4965749 43.8601521,37.8295749 44.0601521,38.1805749 C44.4601521,38.8645749 45.0701521,39.5145749 44.1901521,40.3275749 C44.0101521,40.4935749 44.1101521,41.0325749 44.1801521,41.3805749 C44.3401521,42.2105749 44.5701521,43.0285749 44.7701521,43.8515749 C44.8201521,44.0635749 44.8101521,44.3475749 44.9501521,44.4715749 C45.5301521,45.0025749 45.3101521,45.5035749 45.0001521,46.0595749 C44.4801521,46.9935749 43.9701521,47.9345749 43.5001521,48.8975749 C43.2301521,49.4555749 42.8801521,49.5655749 42.3401521,49.3425749 C40.2101521,48.4625749 38.3701521,47.2455749 37.1301521,45.2155749 C36.4001521,44.0145749 35.5201521,42.8985749 35.2001521,41.4925749 C35.0701521,40.8855749 34.9801521,40.2645749 34.9101521,39.6455749 C34.5601521,36.0915749 34.8301521,32.6245749 36.4501521,29.3695749 C37.1801521,27.9035749 38.1801521,26.6245749 39.2501521,25.3885749 C40.9801521,23.4035749 43.2301521,22.0875749 45.3001521,20.5555749 C47.9701521,18.5805749 50.1801521,16.1845749 51.6101521,13.2255749 C52.6001521,11.1905749 53.5301521,9.03657485 53.2901521,6.63757485 C53.2701521,6.43657485 53.3301521,6.22557485 53.3901521,5.78657485 C53.6201521,6.13357485 53.7601521,6.28057485 53.8201521,6.45457485 C54.6501521,8.55357485 55.4601521,10.6555749 56.2801521,12.7575749 C56.3601521,12.9645749 56.4201521,13.1815749 56.5301521,13.3735749 C57.6701521,15.4015749 58.8001521,17.4385749 59.9801521,19.4455749 C61.1301521,21.3935749 62.5001521,23.1765749 63.9401521,24.9275749 C64.9801521,26.1975749 65.7601521,27.7085749 66.0801521,29.3905749 C66.2001521,30.0455749 66.2901521,30.7145749 66.5001521,31.3415749 C67.5401521,34.3935749 67.2501521,37.4665749 66.7301521,40.5525749 Z M33.1301521,94.9185749 C33.1801521,95.0565749 33.2001521,95.2065749 33.2401521,95.3505749 C33.4501521,96.3335749 33.9401521,96.8905749 35.0301521,96.1745749 C36.5601521,95.1575749 38.5701521,96.1185749 39.5301521,97.1695749 C40.2801521,97.9975749 40.8801521,98.9315749 41.0701521,100.065575 C41.2301521,101.004575 41.3901521,101.945575 41.5401521,102.868575 C40.1001521,103.639575 38.8501521,104.308575 37.6401521,104.956575 C37.0601521,103.813575 36.5301521,102.724575 35.9701521,101.650575 C35.7601521,101.258575 35.5201521,100.879575 35.2501521,100.531575 C34.4301521,99.4775749 33.6901521,99.2735749 32.4301521,99.7195749 C31.9801521,99.8765749 31.5401521,100.055575 31.0301521,100.249575 C30.8501521,99.9735749 30.7101521,99.7255749 30.5401521,99.4995749 C30.1001521,98.9145749 29.6801521,98.3035749 29.1801521,97.7695749 C28.3301521,96.8595749 27.2401521,96.6175749 26.0301521,96.7985749 C23.8501521,97.1255749 23.5401521,97.2545749 21.4301521,98.8315749 C20.6301521,98.1595749 19.8201521,97.4805749 18.9501521,96.7485749 C19.3401521,95.5275749 19.9601521,94.4265749 21.0201521,93.6245749 C21.4501521,93.3075749 21.9301521,93.1285749 22.4801521,93.3225749 C23.2801521,93.6005749 24.0801521,93.8515749 24.8801521,94.1285749 C25.2101521,94.2445749 25.5301521,94.3995749 25.8401521,94.5295749 C26.1301521,93.6435749 26.3801521,92.8785749 26.6501521,92.1225749 C26.8901521,91.4415749 27.4201521,91.1695749 28.1201521,91.1605749 L28.2301521,91.1585749 C31.3201521,91.0965749 32.0001521,91.8855749 33.1301521,94.9185749 Z M17.5001521,96.0605749 C16.9901521,95.9795749 16.5501521,95.9125749 16.0401521,95.8325749 C16.7501521,94.8715749 17.4201521,93.9715749 18.1301521,93.0175749 C18.4501521,93.1315749 18.7401521,93.2355749 19.1001521,93.3625749 C18.5501521,94.2855749 18.0501521,95.1295749 17.5001521,96.0605749 Z M15.5901521,95.8665749 C14.7501521,96.2025749 14.0801521,96.2875749 13.3601521,95.7365749 C12.8101521,95.3215749 12.1301521,95.0805749 11.5001521,94.7725749 C11.1501521,94.5955749 10.7801521,94.4395749 10.4301521,94.2795749 C11.2801521,90.9735749 14.7601521,89.5865749 17.3101521,91.6495749 C17.0601521,92.0525749 16.8501521,92.4275749 16.6101521,92.7795749 C16.3801521,93.1125749 16.1301521,93.4305749 15.8701521,93.7415749 C15.3401521,94.3755749 15.0401521,95.0425749 15.5901521,95.8665749 Z M68.2501521,32.8345749 C68.2301521,32.4345749 68.0901521,32.0385749 67.9901521,31.6465749 C67.7401521,30.7195749 67.4301521,29.8065749 67.2501521,28.8675749 C66.8301521,26.6285749 65.9301521,24.6435749 64.3601521,22.9725749 C63.2501521,21.7775749 62.3201521,20.4465749 61.5101521,19.0285749 C61.2801521,18.6125749 60.9601521,18.2415749 60.7301521,17.8225749 C59.5701521,15.7215749 58.2601521,13.6805749 57.3201521,11.4865749 C55.9301521,8.26557485 54.8001521,4.93057485 53.5401521,1.64957485 C53.3801521,1.23857485 53.1701521,0.844574853 52.9401521,0.468574853 C52.6501521,-0.00742514718 52.2401521,-0.137425147 51.6601521,0.155574853 C51.6601521,0.632574853 51.6201521,1.10857485 51.6601521,1.57557485 C51.7501521,2.42157485 51.8701521,3.26457485 52.0001521,4.10357485 C52.5101521,7.26057485 51.9301521,10.2065749 50.3501521,12.9735749 C48.7201521,15.8345749 46.3901521,18.0375749 43.7201521,19.8785749 C41.2001521,21.6075749 38.8301521,23.4635749 37.0501521,25.9755749 C36.3001521,27.0305749 35.4801521,28.0415749 35.0801521,29.3025749 C34.3001521,31.7005749 33.5901521,34.1085749 33.6401521,36.6665749 C33.6501521,37.1105749 33.6201521,37.5555749 33.5901521,37.9985749 C33.4701521,40.0715749 33.7601521,42.0525749 34.8601521,43.8615749 C35.2601521,44.5225749 35.6501521,45.1885749 36.0401521,45.8565749 C37.1601521,47.7855749 38.8001521,49.1035749 40.8201521,50.0045749 C41.2701521,50.2085749 41.7201521,50.4295749 42.2301521,50.6745749 C42.0101521,50.9765749 41.9001521,51.1615749 41.7601521,51.3215749 C39.5601521,53.7925749 36.8601521,55.5725749 33.9301521,57.0325749 C32.9201521,57.5365749 32.0501521,58.1705749 31.3601521,59.0825749 C30.3701521,60.3985749 29.3801521,61.7095749 28.8701521,63.4265749 C28.2501521,62.7815749 27.9501521,62.1135749 27.8201521,61.3865749 C27.6701521,60.5145749 27.5601521,59.6325749 27.4501521,58.7535749 C27.3501521,57.9375749 27.4101521,57.1415749 27.7101521,56.3575749 C28.2801521,54.8745749 28.8501521,53.3885749 29.3601521,51.8845749 C29.8501521,50.4545749 30.3301521,49.0165749 30.6901521,47.5515749 C30.9701521,46.4255749 31.1001521,45.2555749 31.2101521,44.0975749 C31.2901521,43.2985749 31.3601521,42.4645749 31.2201521,41.6865749 C30.9101521,40.0655749 30.5801521,38.4585749 29.9201521,36.9065749 C29.0601521,34.8935749 28.1901521,32.9025749 26.9801521,31.0795749 C25.2601521,28.5035749 23.3201521,26.1375749 20.5701521,24.5835749 C19.0401521,23.7145749 17.3901521,23.0155749 15.9301521,22.0385749 C13.2601521,20.2545749 10.1901521,19.1065749 7.78015212,16.9105749 C7.64015212,16.7905749 7.45015212,16.7375749 7.29015212,16.6465749 C5.85015212,15.8395749 4.46015212,15.0095749 3.46015212,13.6515749 C3.23015212,14.2405749 3.00015212,14.8325749 2.80015212,15.4305749 C3.07015212,15.7275749 3.31015212,16.0475749 3.51015212,16.4125749 C5.13015212,19.3655749 5.98015212,22.5105749 5.78015212,25.8855749 C5.70015212,27.1345749 5.47015212,28.3785749 5.25015212,29.6135749 C5.11015212,30.3725749 4.88015212,31.1175749 4.65015212,31.8535749 C3.56015212,35.2285749 1.70015212,38.3025749 0.820152118,41.7695749 C0.420152118,43.3575749 0.100152118,44.9365749 0.0201521184,46.5685749 C-0.109847882,49.4615749 0.390152118,52.2465749 1.49015212,54.9165749 C1.83015212,55.7305749 2.22015212,56.5425749 2.71015212,57.2685749 C3.37015212,58.2435749 4.11015212,59.1765749 4.90015212,60.0515749 C5.99015212,61.2545749 7.17015212,62.4065749 8.71015212,63.0045749 C10.5601521,63.7265749 12.4601521,64.3495749 14.3601521,64.9285749 C15.1601521,65.1735749 16.0301521,65.2875749 16.8701521,65.3035749 C19.2701521,65.3465749 21.6601521,65.1805749 23.9701521,64.4265749 C24.4901521,64.2585749 24.8001521,64.3845749 25.0501521,64.8715749 C25.5701521,65.9035749 26.0201521,66.9585749 26.0801521,68.1275749 C26.1701521,69.7865749 26.2901521,71.4495749 26.2601521,73.1085749 C26.2201521,74.6645749 25.9201521,76.2045749 25.3201521,77.6525749 C24.6101521,79.3545749 23.8701521,81.0465749 23.0701521,82.7095749 C22.6801521,83.5355749 22.1301521,84.2855749 21.6501521,85.0715749 C20.6601521,86.7065749 19.6701521,88.3465749 18.6701521,89.9755749 C18.5601521,90.1495749 18.3701521,90.2695749 18.1901521,90.4365749 C17.9501521,90.2485749 17.7201521,90.1105749 17.5501521,89.9295749 C15.5901521,87.9225749 12.2401521,89.0845749 10.9901521,90.3535749 C10.2101521,91.1515749 9.52015212,92.1905749 9.18015212,93.2465749 C8.85015212,94.2735749 8.26015212,94.5805749 7.37015212,94.8745749 C4.51015212,95.8065749 2.80015212,97.7655749 2.34015212,100.774575 C2.29015212,101.133575 2.31015212,101.466575 2.72015212,101.572575 C3.11015212,101.671575 3.37015212,101.439575 3.50015212,101.102575 C3.61015212,100.793575 3.64015212,100.452575 3.76015212,100.142575 C4.70015212,97.4995749 7.78015212,95.9225749 10.3401521,96.2615749 C11.1701521,96.3705749 12.0701521,96.6005749 12.6101521,97.3825749 C12.1201521,98.1635749 11.5901521,98.8475749 11.2401521,99.6135749 C10.8601521,100.441575 10.6201521,101.338575 10.3701521,102.222575 C10.2701521,102.592575 10.4001521,102.992575 10.8401521,103.105575 C11.3401521,103.235575 11.4401521,102.840575 11.5701521,102.474575 C11.9601521,101.358575 12.4601521,100.310575 13.1101521,99.2985749 C14.1101521,97.7315749 16.6001521,97.2705749 18.0601521,98.0335749 C19.0801521,98.5675749 20.0001521,99.2285749 20.6901521,100.161575 C20.4101521,100.729575 20.0901521,101.237575 19.8901521,101.788575 C19.6501521,102.459575 19.8501521,102.691575 20.6601521,102.839575 C21.0301521,102.211575 21.4701521,101.603575 21.7601521,100.934575 C22.4201521,99.4575749 23.6701521,98.8395749 25.1201521,98.4845749 C25.4101521,98.4145749 25.7101521,98.3815749 26.0001521,98.3375749 C27.3001521,98.1425749 28.3701521,98.5985749 29.0701521,99.6695749 C29.5101521,100.332575 29.8101521,101.110575 30.0601521,101.872575 C30.2601521,102.464575 30.5301521,102.775575 31.2101521,102.626575 C31.6401521,101.856575 32.3401521,101.417575 33.2201521,101.251575 C33.6301521,101.174575 34.0601521,101.176575 34.3301521,101.565575 C35.2701521,102.898575 36.1701521,104.261575 36.3501521,105.936575 C36.4101521,106.509575 36.4301521,107.060575 37.0601521,107.316575 C37.7101521,107.583575 37.9501521,107.008575 38.3201521,106.681575 C40.1501521,105.075575 42.1801521,104.134575 44.6101521,105.124575 C45.4701521,105.477575 46.2401521,106.123575 46.9801521,106.712575 C47.4501521,107.077575 47.8901521,107.284575 48.6201521,107.216575 C48.4901521,106.883575 48.4401521,106.596575 48.2801521,106.381575 C47.1201521,104.754575 45.7601521,103.318575 43.6501521,103.060575 C42.5701521,102.926575 42.5601521,102.648575 42.4901521,101.706575 C42.3401521,99.7905749 41.8601521,97.9985749 40.6501521,96.4455749 C39.2401521,94.6385749 37.5501521,93.6015749 35.1701521,94.2685749 C34.9301521,94.3375749 34.6701521,94.3665749 34.2601521,94.4435749 C34.0101521,93.8545749 33.8201521,93.3335749 33.5601521,92.8525749 C33.2001521,92.1755749 32.8601521,91.4505749 32.3501521,90.8895749 C31.8001521,90.2775749 31.4801521,89.5905749 31.3301521,88.8355749 C30.5901521,84.9725749 30.2601521,81.0785749 30.6601521,77.1485749 C30.8201521,75.5675749 30.9601521,73.9785749 31.2301521,72.4155749 C31.5001521,70.8925749 31.7501521,69.3255749 32.3301521,67.9075749 C33.2601521,65.6165749 34.8101521,63.7675749 36.8801521,62.3195749 C39.3101521,60.6305749 41.6301521,58.7925749 43.7101521,56.6785749 C44.3001521,56.0805749 44.8401521,55.4355749 45.4301521,54.7865749 C45.9201521,55.1275749 46.3301521,55.4415749 46.7701521,55.7075749 C48.5501521,56.7925749 50.4301521,57.5505749 52.5601521,57.0075749 C54.3901521,56.5415749 56.1901521,55.9765749 58.0001521,55.4445749 C58.2101521,55.3835749 58.4201521,55.2765749 58.5901521,55.1435749 C60.2701521,53.8275749 61.9701521,52.5455749 63.2201521,50.7545749 C64.7301521,48.6025749 66.2501521,46.4975749 67.0301521,43.9135749 C68.1201521,40.2805749 68.4701521,36.5955749 68.2501521,32.8345749 Z" id="Fill-1059"></path>
            <path d="M13.2201521,32.9855749 C13.8101521,32.5775749 14.1301521,32.9125749 14.2501521,33.3015749 C14.5401521,34.2105749 14.7601521,35.1425749 14.9501521,36.0775749 C15.0701521,36.6445749 15.0601521,37.2345749 15.1301521,37.9875749 C16.1101521,37.1935749 16.9501521,36.5065749 17.8001521,35.8335749 C18.1401521,35.5675749 18.4801521,35.2405749 19.0601521,35.5195749 C18.9601521,35.7405749 18.9101521,35.9515749 18.7801521,36.0945749 C18.5101521,36.3985749 18.2001521,36.6655749 17.9101521,36.9515749 C17.0601521,37.8015749 16.0501521,38.5375749 15.7201521,39.7945749 C15.5501521,40.4155749 15.0301521,40.2065749 14.6301521,40.2075749 C13.3701521,42.8495749 12.0701521,45.4315749 12.4001521,48.4905749 C11.3701521,48.4175749 11.3101521,47.7455749 11.3301521,47.1965749 C11.3701521,46.1295749 11.4801521,45.0555749 11.7001521,44.0115749 C11.8401521,43.3035749 12.1601521,42.6205749 12.4801521,41.9615749 C13.8801521,39.0765749 14.1401521,36.1025749 13.2201521,32.9855749" id="Fill-1060"></path>
            <path d="M20.5201521,56.0855749 C20.2401521,56.3895749 19.9301521,56.3205749 19.6701521,56.0615749 C19.4701521,55.8605749 19.2201521,55.6235749 19.1601521,55.3655749 C18.7301521,53.3105749 18.8201521,51.3365749 20.2101521,49.6125749 C20.5601521,49.1865749 20.8901521,48.7415749 21.2901521,48.3745749 C21.9801521,47.7485749 22.3101521,47.6895749 22.6101521,48.0175749 C22.9101521,48.3575749 22.7801521,48.6805749 22.1901521,49.3215749 C21.6701521,49.8875749 21.1601521,50.4755749 20.7401521,51.1175749 C19.8001521,52.5625749 19.8201521,54.0945749 20.4901521,55.6495749 C20.5301521,55.7475749 20.5401521,55.8585749 20.5601521,55.9645749 L20.5201521,56.0855749" id="Fill-1061"></path>
            <path d="M17.6901521,52.2235749 C17.3301521,52.1275749 17.0901521,52.0645749 16.7801521,51.9855749 C16.8301521,50.5485749 17.0101521,49.1675749 17.6001521,47.8775749 C17.9801521,47.0435749 18.3801521,46.2005749 18.9201521,45.4645749 C19.4101521,44.7805749 20.1101521,44.2535749 21.0501521,44.2555749 C21.1601521,44.2565749 21.2701521,44.2785749 21.3701521,44.3155749 C21.4301521,44.3385749 21.4801521,44.4085749 21.6201521,44.5445749 C21.0701521,45.0055749 20.4601521,45.3925749 20.0101521,45.9175749 C19.5201521,46.4945749 19.1001521,47.1675749 18.7701521,47.8545749 C18.4601521,48.5125749 18.2401521,49.2305749 18.0701521,49.9435749 C17.8901521,50.6495749 17.8301521,51.3825749 17.6901521,52.2235749" id="Fill-1062"></path>
            <path d="M55.9601521,38.6355749 C55.6201521,39.5325749 54.7801521,39.9945749 54.1101521,40.5705749 C53.4701521,41.1135749 52.7201521,41.5235749 52.0201521,41.9915749 C51.8701521,42.0925749 51.7201521,42.2125749 51.5601521,42.2835749 C51.1701521,42.4485749 50.7601521,42.5855749 50.5101521,42.0955749 C50.2601521,41.6265749 50.6301521,41.4435749 50.9501521,41.2435749 C52.2101521,40.4325749 53.4701521,39.6065749 54.7401521,38.8165749 C55.0701521,38.6165749 55.4601521,38.5275749 55.8201521,38.3865749 L55.9601521,38.6355749" id="Fill-1063"></path>
            <path d="M57.2801521,29.5015749 C56.1101521,30.7845749 54.3501521,31.3835749 53.4501521,32.8725749 C52.8001521,32.5625749 52.6601521,32.1575749 52.9301521,31.7885749 C53.8301521,30.5455749 54.9501521,29.5415749 56.5001521,29.1805749 C56.7001521,29.1345749 56.9301521,29.2065749 57.1401521,29.2245749 C57.1901521,29.3165749 57.2301521,29.4085749 57.2801521,29.5015749" id="Fill-1064"></path>
            <path d="M15.2701521,48.3825749 C14.7501521,47.7535749 14.7101521,47.2375749 14.9001521,46.8085749 C15.4001521,45.7025749 15.9101521,44.5895749 16.8401521,43.7455749 C17.1801521,43.4275749 17.5601521,43.2535749 18.1301521,43.4835749 C17.5701521,44.2925749 16.9901521,45.0255749 16.5201521,45.8235749 C16.0701521,46.5955749 15.7301521,47.4345749 15.2701521,48.3825749" id="Fill-1065"></path>
            <path d="M56.6801521,25.0365749 C56.1201521,26.1755749 55.2801521,26.9525749 54.2501521,27.5335749 C54.1201521,27.6085749 53.7901521,27.5285749 53.6801521,27.4075749 C53.5701521,27.2755749 53.5901521,27.0115749 53.5701521,26.8045749 L53.6901521,26.6265749 C54.5401521,26.0585749 55.2801521,25.3175749 56.2701521,24.9905749 C56.3601521,24.9615749 56.4801521,25.0115749 56.6801521,25.0365749" id="Fill-1067"></path>
            <path d="M6.18015212,44.6925749 C7.26015212,44.1235749 8.47015212,44.6565749 9.21015212,45.9455749 C7.93015212,46.0395749 7.26015212,45.0645749 6.18015212,44.6925749" id="Fill-1068"></path>
            <path d="M5.35015212,48.2065749 C6.27015212,48.3665749 7.25015212,48.2475749 8.18015212,48.8215749 C6.90015212,49.4125749 6.01015212,49.2315749 5.35015212,48.2065749" id="Fill-1069"></path>
            <path d="M10.4101521,40.4165749 C9.33015212,40.2845749 9.04015212,39.6835749 9.27015212,38.2275749 C9.90015212,38.8525749 10.0901521,39.5815749 10.4101521,40.4165749" id="Fill-1070"></path>
            <path d="M10.7201521,33.7945749 C11.5601521,34.3065749 11.7901521,34.8335749 11.7601521,35.9595749 C11.1501521,35.6795749 11.1101521,35.5895749 10.7201521,33.7945749" id="Fill-1071"></path>
        </g>
    </g>
</svg>