<?xml version="1.0" encoding="UTF-8"?>
<svg width="197px" height="92px" viewBox="0 0 197 92" version="1.1" xmlns="http://www.w3.org/2000/svg" xmlns:xlink="http://www.w3.org/1999/xlink">
    <!-- Generator: Sketch 50.2 (55047) - http://www.bohemiancoding.com/sketch -->
    <title>Artboard</title>
    <desc>Created with Sketch.</desc>
    <defs></defs>
    <g id="Artboard" stroke="none" stroke-width="1" fill="none" fill-rule="evenodd">
        <path d="M94.651,78.662 C95.03,72.185 89.868,66.535 88.099,60.24 C85.57,51.24 90.124,42.044 93.538,33.273 C96.952,24.502 98.967,13.931 92.417,6.67 C86.831,0.476 76.373,-1.067 67.815,1.342 C59.256,3.75 52.355,9.39 46.686,15.525 C41.016,21.66 36.268,28.445 30.241,34.311 C24.781,39.625 18.352,44.104 12.723,49.281 C7.094,54.457 2.155,60.582 0.683,67.63 C-0.789,74.677 1.934,82.747 8.827,86.559 C15.334,90.157 23.743,89.3 31.211,87.708 C38.679,86.115 46.338,83.897 53.883,85.181 C61.103,86.41 67.323,90.738 74.598,91.689 C83.852,92.898 94.17,86.885 94.651,78.662" id="Fill-954" fill="#F7D869"></path>
        <polygon id="Fill-955" fill="#231F20" points="91.796 13.412 93.179 13.412 93.179 13.105 91.796 13.105"></polygon>
        <polygon id="Fill-956" fill="#231F20" points="90.106 13.412 91.489 13.412 91.489 13.105 90.106 13.105"></polygon>
        <polygon id="Fill-957" fill="#231F20" points="90.106 28.161 91.489 28.161 91.489 27.853 90.106 27.853"></polygon>
        <polygon id="Fill-958" fill="#231F20" points="91.796 28.161 93.179 28.161 93.179 27.853 91.796 27.853"></polygon>
        <polygon id="Fill-959" fill="#231F20" points="91.489 14.795 91.796 14.795 91.796 11.722 91.489 11.722"></polygon>
        <polygon id="Fill-960" fill="#231F20" points="91.489 29.543 91.796 29.543 91.796 26.471 91.489 26.471"></polygon>
        <polygon id="Fill-961" fill="#231F20" points="90.106 72.408 91.489 72.408 91.489 72.1 90.106 72.1"></polygon>
        <polygon id="Fill-962" fill="#231F20" points="91.796 72.408 93.179 72.408 93.179 72.1 91.796 72.1"></polygon>
        <path d="M90.106,87.093 C90.2,87.013 90.293,86.931 90.384,86.849 L90.106,86.849 L90.106,87.093" id="Fill-963" fill="#231F20"></path>
        <polygon id="Fill-964" fill="#231F20" points="91.489 73.79 91.796 73.79 91.796 70.718 91.489 70.718"></polygon>
        <path d="M91.489,85.746 C91.572,85.653 91.656,85.561 91.737,85.467 L91.489,85.467 L91.489,85.746" id="Fill-965" fill="#231F20"></path>
        <polygon id="Fill-966" fill="#231F20" points="84.423 6.038 85.805 6.038 85.805 5.73 84.423 5.73"></polygon>
        <polygon id="Fill-967" fill="#231F20" points="82.733 6.038 84.115 6.038 84.115 5.73 82.733 5.73"></polygon>
        <polygon id="Fill-968" fill="#231F20" points="67.983 6.038 69.366 6.038 69.366 5.73 67.983 5.73"></polygon>
        <polygon id="Fill-969" fill="#231F20" points="69.673 6.038 71.056 6.038 71.056 5.73 69.673 5.73"></polygon>
        <polygon id="Fill-970" fill="#231F20" points="75.358 13.412 76.74 13.412 76.74 13.105 75.358 13.105"></polygon>
        <polygon id="Fill-971" fill="#231F20" points="77.048 13.412 78.431 13.412 78.431 13.105 77.048 13.105"></polygon>
        <polygon id="Fill-972" fill="#231F20" points="62.299 13.412 63.682 13.412 63.682 13.105 62.299 13.105"></polygon>
        <polygon id="Fill-973" fill="#231F20" points="60.609 13.412 61.992 13.412 61.992 13.105 60.609 13.105"></polygon>
        <path d="M48.714,13.412 L48.932,13.412 L48.932,13.192 C48.859,13.265 48.787,13.339 48.714,13.412" id="Fill-974" fill="#231F20"></path>
        <polygon id="Fill-975" fill="#231F20" points="82.733 20.787 84.115 20.787 84.115 20.479 82.733 20.479"></polygon>
        <polygon id="Fill-976" fill="#231F20" points="84.423 20.787 85.805 20.787 85.805 20.479 84.423 20.479"></polygon>
        <polygon id="Fill-977" fill="#231F20" points="67.983 20.787 69.366 20.787 69.366 20.479 67.983 20.479"></polygon>
        <polygon id="Fill-978" fill="#231F20" points="69.673 20.787 71.056 20.787 71.056 20.479 69.673 20.479"></polygon>
        <polygon id="Fill-979" fill="#231F20" points="53.235 20.787 54.617 20.787 54.617 20.479 53.235 20.479"></polygon>
        <polygon id="Fill-980" fill="#231F20" points="54.925 20.787 56.307 20.787 56.307 20.479 54.925 20.479"></polygon>
        <polygon id="Fill-981" fill="#231F20" points="77.048 28.161 78.431 28.161 78.431 27.853 77.048 27.853"></polygon>
        <polygon id="Fill-982" fill="#231F20" points="75.358 28.161 76.74 28.161 76.74 27.853 75.358 27.853"></polygon>
        <polygon id="Fill-983" fill="#231F20" points="60.609 28.161 61.992 28.161 61.992 27.853 60.609 27.853"></polygon>
        <polygon id="Fill-984" fill="#231F20" points="62.299 28.161 63.682 28.161 63.682 27.853 62.299 27.853"></polygon>
        <polygon id="Fill-985" fill="#231F20" points="45.86 28.161 47.243 28.161 47.243 27.853 45.86 27.853"></polygon>
        <polygon id="Fill-986" fill="#231F20" points="47.55 28.161 48.932 28.161 48.932 27.853 47.55 27.853"></polygon>
        <polygon id="Fill-987" fill="#231F20" points="82.733 35.535 84.115 35.535 84.115 35.228 82.733 35.228"></polygon>
        <polygon id="Fill-988" fill="#231F20" points="84.423 35.535 85.805 35.535 85.805 35.228 84.423 35.228"></polygon>
        <polygon id="Fill-989" fill="#231F20" points="67.983 35.535 69.366 35.535 69.366 35.228 67.983 35.228"></polygon>
        <polygon id="Fill-990" fill="#231F20" points="69.673 35.535 71.056 35.535 71.056 35.228 69.673 35.228"></polygon>
        <polygon id="Fill-991" fill="#231F20" points="54.925 35.535 56.307 35.535 56.307 35.228 54.925 35.228"></polygon>
        <polygon id="Fill-992" fill="#231F20" points="53.235 35.535 54.617 35.535 54.617 35.228 53.235 35.228"></polygon>
        <polygon id="Fill-993" fill="#231F20" points="40.175 35.535 41.558 35.535 41.558 35.228 40.175 35.228"></polygon>
        <polygon id="Fill-994" fill="#231F20" points="38.485 35.535 39.868 35.535 39.868 35.228 38.485 35.228"></polygon>
        <polygon id="Fill-995" fill="#231F20" points="75.358 42.91 76.74 42.91 76.74 42.602 75.358 42.602"></polygon>
        <polygon id="Fill-996" fill="#231F20" points="77.048 42.91 78.431 42.91 78.431 42.602 77.048 42.602"></polygon>
        <polygon id="Fill-997" fill="#231F20" points="60.609 42.91 61.992 42.91 61.992 42.602 60.609 42.602"></polygon>
        <polygon id="Fill-998" fill="#231F20" points="62.299 42.91 63.682 42.91 63.682 42.602 62.299 42.602"></polygon>
        <polygon id="Fill-999" fill="#231F20" points="45.86 42.91 47.243 42.91 47.243 42.602 45.86 42.602"></polygon>
        <polygon id="Fill-1000" fill="#231F20" points="47.55 42.91 48.932 42.91 48.932 42.602 47.55 42.602"></polygon>
        <polygon id="Fill-1001" fill="#231F20" points="32.801 42.91 34.183 42.91 34.183 42.602 32.801 42.602"></polygon>
        <polygon id="Fill-1002" fill="#231F20" points="31.111 42.91 32.493 42.91 32.493 42.602 31.111 42.602"></polygon>
        <polygon id="Fill-1003" fill="#231F20" points="84.423 50.285 85.805 50.285 85.805 49.977 84.423 49.977"></polygon>
        <polygon id="Fill-1004" fill="#231F20" points="82.733 50.285 84.115 50.285 84.115 49.977 82.733 49.977"></polygon>
        <polygon id="Fill-1005" fill="#231F20" points="67.983 50.285 69.366 50.285 69.366 49.977 67.983 49.977"></polygon>
        <polygon id="Fill-1006" fill="#231F20" points="69.673 50.285 71.056 50.285 71.056 49.977 69.673 49.977"></polygon>
        <polygon id="Fill-1007" fill="#231F20" points="53.235 50.285 54.617 50.285 54.617 49.977 53.235 49.977"></polygon>
        <polygon id="Fill-1008" fill="#231F20" points="54.925 50.285 56.307 50.285 56.307 49.977 54.925 49.977"></polygon>
        <polygon id="Fill-1009" fill="#231F20" points="40.175 50.285 41.558 50.285 41.558 49.977 40.175 49.977"></polygon>
        <polygon id="Fill-1010" fill="#231F20" points="38.485 50.285 39.868 50.285 39.868 49.977 38.485 49.977"></polygon>
        <polygon id="Fill-1011" fill="#231F20" points="75.358 57.659 76.74 57.659 76.74 57.352 75.358 57.352"></polygon>
        <polygon id="Fill-1012" fill="#231F20" points="77.048 57.659 78.431 57.659 78.431 57.352 77.048 57.352"></polygon>
        <polygon id="Fill-1013" fill="#231F20" points="62.299 57.659 63.682 57.659 63.682 57.352 62.299 57.352"></polygon>
        <polygon id="Fill-1014" fill="#231F20" points="60.609 57.659 61.992 57.659 61.992 57.352 60.609 57.352"></polygon>
        <polygon id="Fill-1015" fill="#231F20" points="45.86 57.659 47.243 57.659 47.243 57.352 45.86 57.352"></polygon>
        <polygon id="Fill-1016" fill="#231F20" points="47.55 57.659 48.932 57.659 48.932 57.352 47.55 57.352"></polygon>
        <polygon id="Fill-1017" fill="#231F20" points="31.111 57.659 32.493 57.659 32.493 57.352 31.111 57.352"></polygon>
        <polygon id="Fill-1018" fill="#231F20" points="32.801 57.659 34.183 57.659 34.183 57.352 32.801 57.352"></polygon>
        <polygon id="Fill-1019" fill="#231F20" points="84.115 7.42 84.423 7.42 84.423 4.347 84.115 4.347"></polygon>
        <polygon id="Fill-1020" fill="#231F20" points="69.366 7.42 69.673 7.42 69.673 4.347 69.366 4.347"></polygon>
        <polygon id="Fill-1021" fill="#231F20" points="76.74 14.795 77.048 14.795 77.048 11.722 76.74 11.722"></polygon>
        <polygon id="Fill-1022" fill="#231F20" points="61.992 14.795 62.299 14.795 62.299 11.722 61.992 11.722"></polygon>
        <path d="M47.373,14.795 L47.55,14.795 L47.55,14.607 C47.491,14.67 47.433,14.732 47.373,14.795" id="Fill-1023" fill="#231F20"></path>
        <polygon id="Fill-1024" fill="#231F20" points="84.115 22.17 84.423 22.17 84.423 19.097 84.115 19.097"></polygon>
        <polygon id="Fill-1025" fill="#231F20" points="69.366 22.17 69.673 22.17 69.673 19.097 69.366 19.097"></polygon>
        <polygon id="Fill-1026" fill="#231F20" points="54.617 22.17 54.925 22.17 54.925 19.097 54.617 19.097"></polygon>
        <polygon id="Fill-1027" fill="#231F20" points="76.74 29.543 77.048 29.543 77.048 26.471 76.74 26.471"></polygon>
        <polygon id="Fill-1028" fill="#231F20" points="61.992 29.543 62.299 29.543 62.299 26.471 61.992 26.471"></polygon>
        <polygon id="Fill-1029" fill="#231F20" points="47.243 29.543 47.55 29.543 47.55 26.471 47.243 26.471"></polygon>
        <polygon id="Fill-1030" fill="#231F20" points="84.115 36.918 84.423 36.918 84.423 33.845 84.115 33.845"></polygon>
        <polygon id="Fill-1031" fill="#231F20" points="69.366 36.918 69.673 36.918 69.673 33.845 69.366 33.845"></polygon>
        <polygon id="Fill-1032" fill="#231F20" points="54.617 36.918 54.925 36.918 54.925 33.845 54.617 33.845"></polygon>
        <polygon id="Fill-1033" fill="#231F20" points="39.868 36.918 40.175 36.918 40.175 33.845 39.868 33.845"></polygon>
        <polygon id="Fill-1034" fill="#231F20" points="76.74 44.293 77.048 44.293 77.048 41.22 76.74 41.22"></polygon>
        <polygon id="Fill-1035" fill="#231F20" points="61.992 44.293 62.299 44.293 62.299 41.22 61.992 41.22"></polygon>
        <polygon id="Fill-1036" fill="#231F20" points="47.243 44.293 47.55 44.293 47.55 41.22 47.243 41.22"></polygon>
        <polygon id="Fill-1037" fill="#231F20" points="32.493 44.293 32.801 44.293 32.801 41.22 32.493 41.22"></polygon>
        <polygon id="Fill-1038" fill="#231F20" points="84.115 51.667 84.423 51.667 84.423 48.594 84.115 48.594"></polygon>
        <polygon id="Fill-1039" fill="#231F20" points="69.366 51.667 69.673 51.667 69.673 48.594 69.366 48.594"></polygon>
        <polygon id="Fill-1040" fill="#231F20" points="54.617 51.667 54.925 51.667 54.925 48.594 54.617 48.594"></polygon>
        <polygon id="Fill-1041" fill="#231F20" points="39.868 51.667 40.175 51.667 40.175 48.594 39.868 48.594"></polygon>
        <polygon id="Fill-1042" fill="#231F20" points="76.74 59.042 77.048 59.042 77.048 55.969 76.74 55.969"></polygon>
        <polygon id="Fill-1043" fill="#231F20" points="61.992 59.042 62.299 59.042 62.299 55.969 61.992 55.969"></polygon>
        <polygon id="Fill-1044" fill="#231F20" points="47.243 59.042 47.55 59.042 47.55 55.969 47.243 55.969"></polygon>
        <polygon id="Fill-1045" fill="#231F20" points="32.493 59.042 32.801 59.042 32.801 55.969 32.493 55.969"></polygon>
        <polygon id="Fill-1046" fill="#231F20" points="84.423 65.034 85.805 65.034 85.805 64.726 84.423 64.726"></polygon>
        <polygon id="Fill-1047" fill="#231F20" points="82.733 65.034 84.115 65.034 84.115 64.726 82.733 64.726"></polygon>
        <polygon id="Fill-1048" fill="#231F20" points="67.983 65.034 69.366 65.034 69.366 64.726 67.983 64.726"></polygon>
        <polygon id="Fill-1049" fill="#231F20" points="69.673 65.034 71.056 65.034 71.056 64.726 69.673 64.726"></polygon>
        <polygon id="Fill-1050" fill="#231F20" points="53.235 65.034 54.617 65.034 54.617 64.726 53.235 64.726"></polygon>
        <polygon id="Fill-1051" fill="#231F20" points="54.925 65.034 56.307 65.034 56.307 64.726 54.925 64.726"></polygon>
        <polygon id="Fill-1052" fill="#231F20" points="38.485 65.034 39.868 65.034 39.868 64.726 38.485 64.726"></polygon>
        <polygon id="Fill-1053" fill="#231F20" points="40.175 65.034 41.558 65.034 41.558 64.726 40.175 64.726"></polygon>
        <polygon id="Fill-1054" fill="#231F20" points="75.358 72.408 76.74 72.408 76.74 72.1 75.358 72.1"></polygon>
        <polygon id="Fill-1055" fill="#231F20" points="77.048 72.408 78.431 72.408 78.431 72.1 77.048 72.1"></polygon>
        <polygon id="Fill-1056" fill="#231F20" points="62.299 72.408 63.682 72.408 63.682 72.1 62.299 72.1"></polygon>
        <polygon id="Fill-1057" fill="#231F20" points="60.609 72.408 61.992 72.408 61.992 72.1 60.609 72.1"></polygon>
        <polygon id="Fill-1058" fill="#231F20" points="47.55 72.408 48.932 72.408 48.932 72.1 47.55 72.1"></polygon>
        <polygon id="Fill-1059" fill="#231F20" points="45.86 72.408 47.243 72.408 47.243 72.1 45.86 72.1"></polygon>
        <polygon id="Fill-1060" fill="#231F20" points="31.111 72.408 32.493 72.408 32.493 72.1 31.111 72.1"></polygon>
        <polygon id="Fill-1061" fill="#231F20" points="32.801 72.408 34.183 72.408 34.183 72.1 32.801 72.1"></polygon>
        <polygon id="Fill-1062" fill="#231F20" points="84.423 79.783 85.805 79.783 85.805 79.475 84.423 79.475"></polygon>
        <polygon id="Fill-1063" fill="#231F20" points="82.733 79.783 84.115 79.783 84.115 79.475 82.733 79.475"></polygon>
        <polygon id="Fill-1064" fill="#231F20" points="69.673 79.783 71.056 79.783 71.056 79.475 69.673 79.475"></polygon>
        <polygon id="Fill-1065" fill="#231F20" points="67.983 79.783 69.366 79.783 69.366 79.475 67.983 79.475"></polygon>
        <polygon id="Fill-1066" fill="#231F20" points="53.235 79.783 54.617 79.783 54.617 79.475 53.235 79.475"></polygon>
        <polygon id="Fill-1067" fill="#231F20" points="54.925 79.783 56.307 79.783 56.307 79.475 54.925 79.475"></polygon>
        <polygon id="Fill-1068" fill="#231F20" points="38.485 79.783 39.868 79.783 39.868 79.475 38.485 79.475"></polygon>
        <polygon id="Fill-1069" fill="#231F20" points="40.175 79.783 41.558 79.783 41.558 79.475 40.175 79.475"></polygon>
        <polygon id="Fill-1070" fill="#231F20" points="75.358 87.157 76.74 87.157 76.74 86.849 75.358 86.849"></polygon>
        <polygon id="Fill-1071" fill="#231F20" points="77.048 87.157 78.431 87.157 78.431 86.849 77.048 86.849"></polygon>
        <path d="M60.609,86.849 L60.609,87.116 C60.645,87.129 60.68,87.143 60.716,87.157 L61.992,87.157 L61.992,86.849 L60.609,86.849" id="Fill-1072" fill="#231F20"></path>
        <polygon id="Fill-1073" fill="#231F20" points="62.299 87.157 63.682 87.157 63.682 86.849 62.299 86.849"></polygon>
        <path d="M34.183,87.053 L34.183,86.849 L32.801,86.849 L32.801,87.157 L33.718,87.157 C33.873,87.122 34.028,87.088 34.183,87.053" id="Fill-1074" fill="#231F20"></path>
        <polygon id="Fill-1075" fill="#231F20" points="31.111 87.157 32.493 87.157 32.493 86.849 31.111 86.849"></polygon>
        <polygon id="Fill-1076" fill="#231F20" points="84.115 66.416 84.423 66.416 84.423 63.343 84.115 63.343"></polygon>
        <polygon id="Fill-1077" fill="#231F20" points="69.366 66.416 69.673 66.416 69.673 63.343 69.366 63.343"></polygon>
        <polygon id="Fill-1078" fill="#231F20" points="54.617 66.416 54.925 66.416 54.925 63.343 54.617 63.343"></polygon>
        <polygon id="Fill-1079" fill="#231F20" points="39.868 66.416 40.175 66.416 40.175 63.343 39.868 63.343"></polygon>
        <polygon id="Fill-1080" fill="#231F20" points="76.74 73.79 77.048 73.79 77.048 70.718 76.74 70.718"></polygon>
        <polygon id="Fill-1081" fill="#231F20" points="61.992 73.79 62.299 73.79 62.299 70.718 61.992 70.718"></polygon>
        <polygon id="Fill-1082" fill="#231F20" points="47.243 73.79 47.55 73.79 47.55 70.718 47.243 70.718"></polygon>
        <polygon id="Fill-1083" fill="#231F20" points="32.493 73.79 32.801 73.79 32.801 70.718 32.493 70.718"></polygon>
        <polygon id="Fill-1084" fill="#231F20" points="84.115 81.165 84.423 81.165 84.423 78.093 84.115 78.093"></polygon>
        <polygon id="Fill-1085" fill="#231F20" points="69.366 81.165 69.673 81.165 69.673 78.093 69.366 78.093"></polygon>
        <polygon id="Fill-1086" fill="#231F20" points="54.617 81.165 54.925 81.165 54.925 78.093 54.617 78.093"></polygon>
        <polygon id="Fill-1087" fill="#231F20" points="39.868 81.165 40.175 81.165 40.175 78.093 39.868 78.093"></polygon>
        <polygon id="Fill-1088" fill="#231F20" points="76.74 88.539 77.048 88.539 77.048 85.467 76.74 85.467"></polygon>
        <path d="M62.299,86.849 L62.299,85.467 L61.992,85.467 L61.992,87.649 C62.094,87.689 62.197,87.73 62.299,87.771 L62.299,86.849" id="Fill-1089" fill="#231F20"></path>
        <path d="M32.801,85.467 L32.493,85.467 L32.493,87.429 C32.595,87.406 32.698,87.384 32.801,87.361 L32.801,85.467" id="Fill-1090" fill="#231F20"></path>
        <polygon id="Fill-1091" fill="#231F20" points="23.737 50.285 25.119 50.285 25.119 49.977 23.737 49.977"></polygon>
        <polygon id="Fill-1092" fill="#231F20" points="25.427 50.285 26.809 50.285 26.809 49.977 25.427 49.977"></polygon>
        <path d="M12.06,50.285 L12.06,49.977 L11.981,49.977 C11.872,50.081 11.762,50.181 11.654,50.285 L12.06,50.285" id="Fill-1093" fill="#231F20"></path>
        <polygon id="Fill-1094" fill="#231F20" points="16.362 57.659 17.744 57.659 17.744 57.352 16.362 57.352"></polygon>
        <polygon id="Fill-1095" fill="#231F20" points="18.052 57.659 19.434 57.659 19.434 57.352 18.052 57.352"></polygon>
        <polygon id="Fill-1096" fill="#231F20" points="25.119 51.667 25.427 51.667 25.427 48.594 25.119 48.594"></polygon>
        <path d="M10.678,51.667 L10.678,51.24 C10.574,51.344 10.473,51.449 10.37,51.553 L10.37,51.667 L10.678,51.667" id="Fill-1097" fill="#231F20"></path>
        <polygon id="Fill-1098" fill="#231F20" points="17.744 59.042 18.052 59.042 18.052 55.969 17.744 55.969"></polygon>
        <polygon id="Fill-1099" fill="#231F20" points="23.737 65.034 25.119 65.034 25.119 64.726 23.737 64.726"></polygon>
        <polygon id="Fill-1100" fill="#231F20" points="25.427 65.034 26.809 65.034 26.809 64.726 25.427 64.726"></polygon>
        <polygon id="Fill-1101" fill="#231F20" points="10.678 65.034 12.06 65.034 12.06 64.726 10.678 64.726"></polygon>
        <polygon id="Fill-1102" fill="#231F20" points="8.987 65.034 10.37 65.034 10.37 64.726 8.987 64.726"></polygon>
        <polygon id="Fill-1103" fill="#231F20" points="16.362 72.408 17.744 72.408 17.744 72.1 16.362 72.1"></polygon>
        <polygon id="Fill-1104" fill="#231F20" points="18.052 72.408 19.434 72.408 19.434 72.1 18.052 72.1"></polygon>
        <polygon id="Fill-1105" fill="#231F20" points="1.614 72.408 2.996 72.408 2.996 72.1 1.614 72.1"></polygon>
        <polygon id="Fill-1106" fill="#231F20" points="3.304 72.408 4.686 72.408 4.686 72.1 3.304 72.1"></polygon>
        <polygon id="Fill-1107" fill="#231F20" points="25.427 79.783 26.809 79.783 26.809 79.475 25.427 79.475"></polygon>
        <polygon id="Fill-1108" fill="#231F20" points="23.737 79.783 25.119 79.783 25.119 79.475 23.737 79.475"></polygon>
        <polygon id="Fill-1109" fill="#231F20" points="8.987 79.783 10.37 79.783 10.37 79.475 8.987 79.475"></polygon>
        <polygon id="Fill-1110" fill="#231F20" points="10.678 79.783 12.06 79.783 12.06 79.475 10.678 79.475"></polygon>
        <polygon id="Fill-1111" fill="#231F20" points="18.052 87.157 19.434 87.157 19.434 86.849 18.052 86.849"></polygon>
        <polygon id="Fill-1112" fill="#231F20" points="16.362 87.157 17.744 87.157 17.744 86.849 16.362 86.849"></polygon>
        <polygon id="Fill-1113" fill="#231F20" points="25.119 66.416 25.427 66.416 25.427 63.343 25.119 63.343"></polygon>
        <polygon id="Fill-1114" fill="#231F20" points="10.37 66.416 10.678 66.416 10.678 63.343 10.37 63.343"></polygon>
        <polygon id="Fill-1115" fill="#231F20" points="17.744 73.79 18.052 73.79 18.052 70.718 17.744 70.718"></polygon>
        <polygon id="Fill-1116" fill="#231F20" points="2.996 73.79 3.304 73.79 3.304 70.718 2.996 70.718"></polygon>
        <polygon id="Fill-1117" fill="#231F20" points="25.119 81.165 25.427 81.165 25.427 78.093 25.119 78.093"></polygon>
        <polygon id="Fill-1118" fill="#231F20" points="10.37 81.165 10.678 81.165 10.678 78.093 10.37 78.093"></polygon>
        <polygon id="Fill-1119" fill="#231F20" points="17.744 88.539 18.052 88.539 18.052 85.467 17.744 85.467"></polygon>
        <path d="M125.37,86.796 L196.209,86.796 L196.209,19.232 L125.37,19.232 L125.37,86.796 Z M125.09,87.206 L196.489,87.206 L196.489,18.822 L125.09,18.822 L125.09,87.206 Z" id="Fill-1342" fill="#000000"></path>
        <path d="M125.23,19.092 L196.348,19.092 L196.348,18.963 L125.23,18.963 L125.23,19.092 Z M125.51,86.656 L196.069,86.656 L196.069,19.372 L125.51,19.372 L125.51,86.656 Z M125.23,87.065 L196.348,87.065 L196.348,86.936 L125.23,86.936 L125.23,87.065 Z M124.949,87.346 L196.629,87.346 L196.629,18.682 L124.949,18.682 L124.949,87.346 Z" id="Fill-1343" fill="#000000"></path>
        <polygon id="Fill-1344" fill="#000000" points="125.23 70.212 196.349 70.212 196.349 69.803 125.23 69.803"></polygon>
        <path d="M125.37,70.072 L196.208,70.072 L196.208,69.943 L125.37,69.943 L125.37,70.072 Z M125.089,70.352 L196.489,70.352 L196.489,69.662 L125.089,69.662 L125.089,70.352 Z" id="Fill-1345" fill="#000000"></path>
        <polygon id="Fill-1346" fill="#000000" points="125.23 53.219 196.349 53.219 196.349 52.809 125.23 52.809"></polygon>
        <path d="M125.37,53.079 L196.208,53.079 L196.208,52.949 L125.37,52.949 L125.37,53.079 Z M125.089,53.359 L196.489,53.359 L196.489,52.669 L125.089,52.669 L125.089,53.359 Z" id="Fill-1347" fill="#000000"></path>
        <polygon id="Fill-1348" fill="#000000" points="125.23 36.225 196.349 36.225 196.349 35.816 125.23 35.816"></polygon>
        <path d="M125.37,36.085 L196.208,36.085 L196.208,35.956 L125.37,35.956 L125.37,36.085 Z M125.089,36.366 L196.489,36.366 L196.489,35.676 L125.089,35.676 L125.089,36.366 Z" id="Fill-1349" fill="#000000"></path>
        <polygon id="Fill-1350" fill="#000000" points="178.051 87.001 178.468 87.001 178.468 19.027 178.051 19.027"></polygon>
        <path d="M178.191,86.861 L178.328,86.861 L178.328,19.167 L178.191,19.167 L178.191,86.861 Z M177.911,87.141 L178.608,87.141 L178.608,18.887 L177.911,18.887 L177.911,87.141 Z" id="Fill-1351" fill="#000000"></path>
        <polygon id="Fill-1352" fill="#000000" points="160.398 87.001 160.814 87.001 160.814 19.027 160.398 19.027"></polygon>
        <path d="M160.538,86.861 L160.674,86.861 L160.674,19.167 L160.538,19.167 L160.538,86.861 Z M160.257,87.141 L160.955,87.141 L160.955,18.887 L160.257,18.887 L160.257,87.141 Z" id="Fill-1353" fill="#000000"></path>
        <polygon id="Fill-1354" fill="#000000" points="142.744 87.001 143.161 87.001 143.161 19.027 142.744 19.027"></polygon>
        <path d="M142.884,86.861 L143.02,86.861 L143.02,19.167 L142.884,19.167 L142.884,86.861 Z M142.603,87.141 L143.301,87.141 L143.301,18.887 L142.603,18.887 L142.603,87.141 Z" id="Fill-1355" fill="#000000"></path>
    </g>
</svg>