<?xml version="1.0" encoding="UTF-8"?>
<svg width="356px" height="230px" viewBox="0 0 356 230" version="1.1" xmlns="http://www.w3.org/2000/svg" xmlns:xlink="http://www.w3.org/1999/xlink">
    <!-- Generator: Sketch 51.2 (57519) - http://www.bohemiancoding.com/sketch -->
    <title>Artboard</title>
    <desc>Created with Sketch.</desc>
    <defs></defs>
    <g id="Artboard" stroke="none" stroke-width="1" fill="none" fill-rule="evenodd">
        <path d="M94.9125026,35.7969085 C96.267033,35.7509318 96.4739613,35.8508811 96.3869914,37.1522206 C96.3460056,37.777903 96.2300458,38.3985879 96.1370781,39.1022308 C93.7639007,39.1522054 91.5356731,39.1841892 89.3094448,39.2531542 C88.235817,39.2861374 87.6490204,38.7404144 87.4650842,37.7589126 C87.2921441,36.8353814 87.2191694,35.8938593 87.0712207,34.7134584 C89.8242664,35.7089531 92.3593876,35.8848639 94.9125026,35.7969085 Z M105.504831,36.6944529 C104.920033,37.5760055 104.415208,38.4745494 103.77543,39.2641486 C103.109661,40.0867311 102.155992,40.0997245 101.492222,39.4810385 C100.840448,38.873347 100.145688,38.3116321 99.3729563,37.64597 C99.7228351,35.7719212 101.514214,35.4031084 105.504831,36.6944529 Z M101.229313,33.6430018 C101.508216,31.568055 102.658817,30.6155385 104.168294,29.9108961 C106.707414,27.4791304 110.985931,30.6345288 112.506404,32.929364 C112.593374,33.061297 112.643356,33.1922306 112.664349,33.3181667 C112.761315,33.4051225 112.860281,33.4910789 112.955248,33.5820327 C113.090201,33.7119668 113.046217,34.028806 113.114193,34.4276035 C111.076899,35.0592829 109.183556,34.1787299 107.254224,34.0078166 C105.292904,33.8339049 103.321588,33.7649399 101.229313,33.6430018 Z M124.097386,25.9079279 C124.088389,25.9069285 124.080392,25.905929 124.071395,25.9049295 C123.915449,25.901931 123.756504,25.8839401 123.599558,25.8539553 C123.400627,25.8149751 123.255677,25.6540568 123.194699,25.4661522 C123.035754,25.2432653 123.027756,24.8664566 123.254678,24.6915454 C123.517587,24.4876488 123.794491,24.2937473 124.14337,24.2937473 C124.382287,24.2937473 124.590215,24.3687092 124.808139,24.4566646 C125.169014,24.6005915 125.367945,24.9684048 125.166015,25.3362181 C125.104037,25.4481613 125.028063,25.5351172 124.947091,25.6100791 C124.825133,25.8719462 124.532235,25.9988818 124.246334,25.9339148 C124.22834,25.9299168 124.037406,25.9009315 124.190353,25.9179229 L124.097386,25.9079279 Z M128.629815,25.6000842 C128.485864,25.7040314 128.301928,25.7500081 128.127988,25.6920375 C127.940054,25.6290695 127.769113,25.5511091 127.621164,25.4501603 C127.607169,25.4391659 127.593174,25.4301704 127.579179,25.4181765 C127.378248,25.2692521 127.224302,25.0703531 127.14333,24.7884961 C127.088349,24.5945946 127.14133,24.3427224 127.297276,24.2057919 C127.677145,23.8739603 128.164976,23.5681156 128.690793,23.5931029 C129.082658,23.6110938 129.525504,23.788004 129.699444,24.1688107 C129.909371,24.6275778 129.773418,25.1283237 129.33557,25.3981867 C129.121644,25.5301197 128.878728,25.5860913 128.629815,25.6000842 Z M126.427578,29.4471315 C126.466564,29.446132 126.688487,29.4181462 126.552535,29.4371366 C126.71048,29.4151478 126.868425,29.3921594 127.02637,29.3741686 C127.28828,29.3421848 127.558186,29.3112005 127.822094,29.3291914 C128.387898,29.3671721 129.13464,29.6380346 129.082658,30.3446759 C128.969697,31.8908911 126.585523,31.900886 125.910757,30.752469 C125.819789,30.5995466 125.810792,30.401647 125.871771,30.2317333 C125.784801,29.8909063 125.968737,29.4611244 126.427578,29.4471315 Z M95.283374,26.1098255 C99.6648552,23.370216 103.531515,19.9809364 107.262222,16.4407333 C109.25753,14.5476942 109.340501,14.4417479 112.678344,15.4642289 C107.486144,19.8759896 102.454888,24.1498203 97.0827502,28.7135039 C97.8744758,28.5685775 98.3813001,28.626548 98.6662013,28.4016622 C102.90973,25.0693536 107.132267,21.7090592 111.337809,18.328775 C112.087549,17.7260809 112.823294,17.0684147 113.418088,16.3197947 C114.499713,14.9584857 115.890231,14.7485922 117.502672,14.8025648 C121.125416,14.9265019 124.752159,14.9424938 128.376902,14.9934679 C131.920674,15.0434425 135.464445,15.0774253 139.008217,15.1363953 C139.22914,15.1403933 139.448064,15.3063091 139.722969,15.4202513 C139.584017,20.0379074 139.445065,24.6485672 139.306114,29.2582274 C139.199151,29.2932096 139.092188,29.3281919 138.985225,29.3621746 C138.803288,29.0183492 138.573368,28.6905156 138.446412,28.3267002 C137.579712,25.826969 136.963925,23.2082982 135.830318,20.8375016 C133.904986,16.8135441 129.604477,14.9944674 125.521892,16.6906065 C124.364293,17.1723619 123.619551,18.0199317 122.851817,19.0114285 C120.892497,21.538146 120.637585,24.2597645 121.454302,27.1882781 C121.768193,28.3107083 122.250026,29.3861625 122.821828,30.9353761 C121.915142,31.9168779 120.952476,33.5030728 119.543964,34.3026669 C118.51832,34.8853712 116.903879,34.4296025 115.567343,34.4375985 C115.208467,33.1442549 114.889578,31.9948384 114.494714,30.5695618 C116.408051,29.2222457 118.411357,27.810962 120.396669,26.4116723 C119.966818,25.1902922 119.236071,25.5321187 118.626282,25.9239198 C117.346726,26.7475018 116.128148,27.6650361 114.865586,28.5176033 C114.280789,28.9134024 113.653006,29.247233 113.039219,29.6140468 C112.138531,28.8644273 111.343807,28.2027631 110.279176,27.3172126 C112.952249,25.2392673 115.505364,23.2542749 118.230419,21.1353504 C117.286747,20.3807334 116.750932,20.576634 116.018186,21.1513423 C113.866932,22.8394854 111.641703,24.4356752 109.420473,26.0308655 C109.004618,26.3287144 108.468803,26.4586484 107.562118,26.8504495 C108.568769,24.0028949 111.144876,23.4461775 112.663349,21.8140059 C114.214811,20.1438537 116.079165,18.7645538 117.916528,17.164366 C116.525011,16.3597744 115.656312,17.1743609 114.909571,17.773057 C112.843287,19.4292164 110.87197,21.2043154 108.872663,22.9434327 C106.871357,24.6845489 104.956021,26.4926312 102.442892,27.5890746 C101.424245,28.0328494 100.590534,29.1232959 99.9157682,30.0898053 C97.4506227,33.6160155 97.2406955,33.7959242 93.0061634,33.4331083 C91.5176794,33.3051733 90.0461894,32.9753407 88.1028631,32.663499 C88.8536029,31.3921443 89.268459,30.4596176 89.8842456,29.6870098 C93.137118,25.6050817 96.1450753,21.3612357 98.7271802,16.817542 C99.1670277,16.0449342 99.7858132,15.5611797 100.879434,15.6081559 C102.27695,15.667126 103.68946,15.3642797 105.458847,15.1793735 C102.428897,19.7930317 98.0694082,22.4256955 94.0897877,26.0598508 C94.7795486,26.0978316 95.104436,26.2217686 95.283374,26.1098255 Z M83.4024925,37.0992475 C84.0132807,37.1802064 84.6280676,37.2611653 85.2838403,37.3481211 C85.2118653,38.6854423 85.1708795,40.1886793 85.0369259,41.6849199 C84.9889425,42.2296434 84.7900115,42.6844125 84.4821182,43.0662188 C84.1862208,42.4785171 83.9013196,41.8868174 83.6863941,41.261135 C83.239549,39.962794 83.3944952,38.4755489 83.4024925,37.0992475 Z M352.983043,69.853622 C352.804105,71.5027849 351.927409,72.8161183 350.013072,73.2189139 C345.690571,74.1264532 341.420051,75.2938607 337.082555,76.1114457 C330.914693,77.2738557 324.726838,78.3772956 318.507994,79.2128715 C311.341478,80.1763824 304.240939,81.6996092 296.94147,81.6696245 C293.987494,81.6576306 291.029519,82.2663216 288.078542,82.626139 C283.603093,83.1728615 279.14164,83.8765043 274.653196,84.2563115 C272.50594,84.4382192 270.303703,84.1323744 268.340384,82.9389802 C265.946214,81.4847183 265.225464,80.0494468 265.715294,77.2958445 C265.867241,76.4402788 266.106159,75.6017044 266.30309,74.7641296 C265.448387,74.2084116 264.866588,74.4203041 264.272794,74.98002 C263.483068,75.7236425 263.170176,76.6441753 263.156181,77.6306746 C263.262144,78.0814458 263.371107,78.530218 263.489066,78.9769912 C263.596029,79.3807862 263.548045,79.7346066 263.404095,80.0264585 C263.499062,80.6431455 263.604026,81.2598325 263.692995,81.8795179 C262.49541,82.0214459 261.382796,82.1533789 260.10124,82.3043023 C259.988279,82.0814155 259.738366,81.7595788 259.656394,81.3997614 C258.764703,77.4847486 257.984974,73.5407505 256.976323,69.656722 C256.664432,68.4543323 255.842716,67.3398979 255.089977,66.3044235 C253.197633,63.6997456 251.003394,61.3689287 248.376305,59.4728911 C247.998436,59.2010291 247.637561,58.9051792 246.881823,58.320476 C248.218359,58.2445146 249.090057,58.0995881 249.945761,58.1615567 C254.689116,58.5063816 259.426474,58.9421605 264.170829,59.2619981 C266.262104,59.4019271 268.368374,59.3969296 270.465647,59.3579494 C273.762504,59.2979798 277.057362,59.1680458 280.351221,59.0241189 C280.746084,59.006128 281.128951,58.7102782 281.870694,58.39144 C281.772728,58.3354684 281.683759,58.2804963 281.599788,58.2285227 C281.33388,58.326473 281.020988,58.3434643 280.67011,58.2425156 C277.84409,57.4229316 274.839131,57.6997911 271.933139,57.634824 C268.18044,57.5518661 264.422742,57.5458692 260.673042,57.3579646 C257.098281,57.1790554 253.432552,57.6628098 249.88978,57.0511203 C247.590577,56.6543217 245.266383,56.5373811 242.952185,56.3204912 C241.592656,56.4104455 240.217133,56.4014501 238.673668,56.4454277 C238.278805,57.5778529 237.584046,58.4254227 236.15754,58.7832411 C234.405148,59.2220184 233.124592,60.5423482 232.153928,62.0845654 C231.77206,62.6912575 231.435177,63.3259353 231.012324,64.061562 C226.477896,62.8861586 222.140399,64.0795528 217.978842,65.5088274 C214.888913,66.5702886 212.144864,68.5192993 210.16555,71.3388681 C208.966966,73.0460016 207.568451,74.5912173 207.081619,76.7211362 C206.839703,77.779599 206.080966,78.1604057 204.884381,78.0644544 C197.647889,77.4817501 190.411398,76.8050936 183.160911,76.5412275 C179.001353,76.3893046 174.815804,76.956017 170.642251,77.1988937 C170.260383,77.2208826 169.878516,77.2388734 169.280723,77.2698577 C169.625603,76.1464279 170.330359,75.8036019 171.128083,75.4427851 C174.113048,74.0964684 177.287947,73.6846775 180.497835,73.4028205 C181.369532,73.3268591 182.24223,73.2598931 183.233886,73.1789342 C183.265875,73.0989748 183.296864,73.0190153 183.327854,72.9390559 C183.437815,72.9760372 183.562772,72.9840331 183.700724,72.9470519 C184.908306,72.6232162 185.424127,71.7716485 185.715026,70.602242 C185.901961,69.8496241 186.052909,69.0880106 186.195859,68.3233987 C188.769967,67.2169603 191.313085,65.8716432 194.01215,65.3059303 C197.660885,64.5413184 199.826134,62.9401312 200.421928,59.0850879 C201.073702,54.8672288 202.178319,50.7213332 203.009031,46.5294609 C203.494863,44.0797043 203.748775,41.5829716 204.265595,39.1422105 C204.664457,37.2601658 204.316578,35.7199476 203.123991,34.1947217 C200.696833,31.0922965 198.202697,28.0468423 195.624591,25.074351 C193.914184,23.447177 192.190781,21.8319968 190.648316,20.0419054 C190.019534,19.3122758 189.392751,18.5116821 188.714986,17.7610631 C188.713986,17.6521184 188.678999,17.5351778 188.592029,17.4182371 C187.86828,16.4457308 186.672694,15.8560301 185.791999,15.0214537 C184.683384,13.9709869 183.13492,13.7550965 181.685423,13.5661924 C181.496488,13.541205 181.308554,13.5192162 181.119619,13.4962279 C179.741097,13.0314638 178.266608,12.8325647 176.81811,12.8525546 C175.875437,12.865548 174.94276,12.9025292 174.013082,12.9425089 C172.777511,12.9195206 171.53894,12.9395104 170.290373,13.0224683 C170.053455,13.0384602 169.817537,13.0534526 169.581619,13.0674455 C168.840875,13.064447 168.097133,13.0444572 167.346393,12.993483 C165.708961,12.8815399 164.101518,12.9604998 162.494076,13.0764409 C161.007591,13.1094242 159.514109,13.2573491 158.029623,13.210373 C156.898015,13.1743912 155.767407,13.2453552 154.636799,13.3073237 C154.184956,13.2873339 153.733112,13.267344 153.280269,13.2533511 C152.561519,13.2303628 151.839769,13.2833359 151.118019,13.346304 C149.676519,13.2563496 148.267007,13.0804389 146.857496,13.5811847 C146.579592,13.6801345 146.449637,13.9010224 146.429644,14.1309057 C145.942813,14.4627373 145.907825,15.1453908 146.12475,16.4187445 C146.216718,16.961469 146.244708,17.5451727 146.15374,18.0848987 C145.05712,24.5246301 144.070462,30.9883492 142.760916,37.3861019 C142.033168,40.9362999 142.141131,44.3635602 142.587976,47.9157572 C143.279736,53.4199634 143.6736,58.9631498 144.095453,64.4983403 C144.389351,68.3473866 144.501313,72.2104258 144.734232,76.065469 C144.782215,76.8580667 145.004138,77.63967 145.166082,78.5362149 C144.802208,78.6251698 144.425339,78.8030795 144.052468,78.796083 C140.028863,78.7261185 136.005258,78.6131759 131.980653,78.5402129 C126.412583,78.4372651 120.843514,78.2943377 115.274444,78.2893402 C110.188207,78.2853423 105.162949,77.6876456 100.1127,77.2058902 C94.9185005,76.7101418 89.6643218,76.9030439 84.445131,76.6271839 C77.8394209,76.278361 71.2427076,75.7566258 64.6409961,75.3198475 C63.0855353,75.2159002 62.4187665,74.3273513 62.1738513,72.860096 C61.8019803,70.6412223 61.3861244,68.4243475 60.8533091,66.2394565 C59.9586193,62.5693194 57.5424568,59.9956257 54.3345688,58.2824953 C48.9004526,55.3789691 43.1434482,55.2290452 37.2314976,56.6713131 C34.4474627,57.3499686 31.8873501,58.4214248 29.5621561,60.0685887 C27.8147619,61.3069601 26.5492006,62.891156 25.7304844,64.9231246 C25.2426535,66.1355093 24.2939823,67.1619882 23.5562381,68.2744236 C23.2943289,68.6692232 22.9944328,69.0470314 22.7985007,69.4718158 C21.9657894,71.2768996 21.6389027,71.4438149 19.2797205,71.0080361 C19.4386654,68.9320898 19.6006093,66.8351541 19.7865448,64.4163819 C16.4107151,63.6967471 12.5320596,64.3504153 8.82734383,62.7642205 C8.76936393,59.3239667 8.63141175,55.7957575 8.69438992,52.2705468 C8.71538264,51.0961429 9.13123848,49.8837583 9.57508462,48.7723225 C10.2598473,47.055194 11.3284768,46.0846866 13.4717339,45.7918353 C19.1597621,45.01423 24.8627852,44.7033878 30.5798034,44.5594608 C33.9546335,44.4745039 37.3374608,44.6913938 40.7162896,44.6923933 C43.0534794,44.6943923 45.3906692,44.5654578 47.727859,44.4834994 C48.8504699,44.4445192 49.9720811,44.393545 51.0936923,44.32458 C54.4595255,44.1156861 57.8343556,43.6359296 61.188193,43.7538697 C64.6150051,43.8748083 67.7749098,42.3575784 71.1847277,42.5954577 C72.8981338,42.7153968 74.2536639,41.9477864 75.1693465,40.3955743 C75.5622103,39.7279132 76.2159837,39.2131745 76.8857515,38.4825453 C77.576512,39.5270152 77.2336309,40.5824794 77.2656198,41.532997 C77.3555886,44.1896485 78.6991229,46.1636466 81.1772638,47.0392021 C82.7977021,47.6119115 85.4337883,46.3955289 86.2724976,44.6564116 C86.5154134,44.1506683 86.6293739,43.583956 86.8542959,43.0682177 C87.2071736,42.2626266 87.7589823,41.8188519 88.7346441,41.877822 C90.9528751,42.011754 93.1791034,42.0947119 95.335356,41.3560868 C95.4783064,41.3071116 95.6602433,41.326102 95.8151896,41.3570863 C97.7515184,41.7478879 99.6828489,42.1656758 101.623176,42.5354881 C102.492875,42.7014039 103.375569,42.8193441 104.258263,42.8823121 C107.466151,43.1141944 110.674039,43.4260361 113.886925,43.4930021 C117.586643,43.5709626 121.291358,43.4410285 124.993075,43.3630681 C127.565184,43.3090955 130.14329,43.2821092 132.706401,43.0772132 C135.231526,42.8763151 137.839622,43.038233 140.327759,41.8638291 C140.986531,36.8803586 141.71028,31.9558581 142.270086,27.0143663 C142.820895,22.1608299 143.028823,17.2883031 142.133134,12.1369178 C140.115833,11.6961415 137.839622,11.5012405 135.498434,11.8240766 C134.55676,11.9540107 133.584097,11.8750507 132.625429,11.8690538 C130.77707,11.8580594 128.929711,11.8290741 127.081351,11.8120827 C126.597519,11.8080847 126.10469,11.8830467 125.630854,11.8180797 C121.117419,11.1973947 116.618978,11.5802004 112.117538,11.973001 C108.754704,12.2668519 105.389871,12.5397134 102.022038,12.7655987 C99.5778853,12.928516 97.9074644,14.1678869 96.5429374,16.1388865 C93.9368408,19.9019764 91.2457736,23.6090948 88.5077228,27.2762334 C87.3081386,28.8824182 85.9596061,30.3896531 84.572087,31.839917 C83.6564045,32.797431 82.604769,33.7439505 80.8243862,33.0313123 C81.9969797,31.3281767 83.0975982,29.7619717 84.1642284,28.1717789 C87.2101726,23.6330826 90.1891399,19.0484097 93.3020608,14.5556901 C94.7545573,12.459754 96.8418338,11.2563648 99.3239733,10.4137924 C105.026996,8.47677563 110.749013,9.45827744 116.487024,9.79610597 C119.983812,10.0020015 123.483598,10.1909056 126.983385,10.333833 C130.043325,10.4587696 133.107262,10.6026966 136.167202,10.5657153 C139.20015,10.5287341 142.2301,10.264868 145.262049,10.1219406 C147.345327,10.0239903 149.455595,9.72114402 151.508884,9.93503545 C156.180264,10.4237874 160.823655,9.73613641 165.476042,9.86906893 C169.486652,9.98401059 173.491263,10.2858574 177.501873,10.4167909 C179.186289,10.4727625 180.924687,10.5277346 182.555121,10.1859081 C185.378143,9.59420845 187.902268,10.8225849 190.563345,11.157415 C191.147143,11.2313775 191.694953,11.7581101 192.214773,12.1379173 C192.220771,12.1429148 192.225769,12.1469127 192.231767,12.1509107 C193.938175,12.790586 195.529624,13.7041223 196.788188,15.0204542 C199.123378,17.4632143 200.495902,20.5676386 202.313272,23.376213 C203.402895,25.0603582 204.465526,26.7644932 205.606131,28.4146556 C206.725743,30.0378317 208.010297,31.5470656 209.086924,33.1982275 C210.261517,34.9993133 211.214187,37.0442754 212.302809,38.9742957 C212.407773,39.0892374 212.512737,39.204179 212.6187,39.3191207 C213.276472,40.0327585 214.009218,40.9772791 214.923901,41.3710792 C215.096841,41.4450416 215.275779,41.5070102 215.457716,41.5609828 C216.041513,41.5539863 216.71528,41.7958636 217.331066,41.8728245 C219.724237,42.1756708 222.112409,42.5384866 224.512577,42.7613735 C228.287268,43.1131949 232.068957,43.5689636 235.851646,43.6159397 C240.672975,43.6749098 245.498302,43.367066 250.32263,43.2261376 C252.495877,43.1631695 254.668124,43.1041995 256.84137,43.0752142 C260.384142,43.026239 263.930913,42.8723172 267.466687,43.0042502 C271.332347,43.1501761 275.195008,43.5019976 279.045673,43.8987962 C281.2759,44.129679 281.933672,46.0427079 282.509472,47.8108105 C283.770035,51.6838446 283.299199,55.6298417 282.813367,59.5618459 C282.419504,62.7492281 281.989653,65.9316128 281.625779,69.1209939 C281.502821,70.1954485 280.816059,70.3743577 279.954358,70.4583151 C275.7938,70.8651086 271.634242,71.2818971 267.474684,71.7006845 C266.797919,71.76865 265.904229,71.4757986 265.768276,72.5592487 C265.675308,73.3128662 266.588991,74.0994669 267.604639,74.0325009 C269.917837,73.8795785 272.225037,73.6406998 274.534237,73.4308063 C275.570878,73.3358545 276.60252,73.1979245 277.64016,73.1289595 C280.848048,72.9180666 284.061934,72.7921305 287.263824,72.519269 C291.195461,72.18244 295.117102,71.7296698 299.042741,71.3288732 C303.760106,70.8481172 308.47947,70.3773562 313.195835,69.8806083 C314.39342,69.7546723 315.607999,69.6537235 316.770596,69.3608721 C321.861831,68.080522 327.166992,68.3194008 332.255228,67.2169603 C335.440124,66.5263109 338.631018,65.8526528 341.829909,65.2319679 C345.445656,64.5313235 349.086394,63.9586142 353.046021,63.2729622 C353.043022,65.625768 353.210964,67.7616838 352.983043,69.853622 Z M276.088698,90.7919941 C274.717174,89.5446273 273.564573,88.4961595 272.175055,87.2318012 C274.90011,85.8205176 277.577182,87.4406952 280.309235,86.0154186 C279.391553,88.3312432 277.359258,88.9169459 276.088698,90.7919941 Z M242.700272,75.2868642 C243.51299,73.8425973 244.446667,72.8411056 246.041114,72.8590965 C246.516949,72.8650935 247.203711,73.1659408 247.397644,73.537752 C247.557588,73.8455958 247.248695,74.5512376 246.9478,74.9170519 C245.731221,76.4032975 244.303716,75.8355857 242.700272,75.2868642 Z M244.250735,85.689584 C244.122779,85.8784881 243.968832,86.2852817 243.675934,86.5081685 C242.732261,87.2238053 241.789588,87.9734248 240.74595,88.5151498 C239.855258,88.9769154 238.974564,88.5911113 238.49473,87.7255506 C237.985906,86.8090158 238.603692,86.1673415 239.337438,85.7775394 C240.389073,85.2178235 241.479695,84.6970878 242.609304,84.3312735 C243.554976,84.0254287 244.317711,84.6591071 244.250735,85.689584 Z M282.827362,102.012299 C284.933632,104.605982 285.928287,105.96929 283.312194,109.957266 C282.174588,111.692386 280.824057,113.287576 279.575489,114.951731 C279.382556,115.2096 279.224611,115.493456 279.049672,115.765318 C278.862737,115.621391 278.675801,115.477464 278.487866,115.333537 C278.21696,114.092167 277.869081,112.861792 277.688144,111.607429 C277.38225,109.485506 276.876425,107.429549 276.250642,105.413573 C275.000075,103.540523 274.025413,101.47857 272.744857,99.6275094 C272.008113,98.8838869 271.234381,98.1672506 270.489639,97.431624 C271.127418,98.9378595 271.718213,100.468083 272.330001,101.982314 C273.727517,105.43756 274.639201,109.010747 275.230995,112.654897 C276.148677,115.826287 276.767463,119.096627 277.215308,122.372964 C277.892073,127.323452 278.36291,132.19298 277.367255,136.886597 C277.06436,140.607709 275.618861,143.981996 273.581567,147.152387 C273.142719,147.83604 272.314007,148.392757 271.542274,148.720591 C263.893925,151.969941 256.072637,152.183833 248.136388,149.890997 C247.440629,149.690099 246.760865,149.371261 246.05211,149.289302 C243.650943,149.011443 242.381383,147.519201 241.629643,145.396278 C241.365735,144.648658 241.058841,143.917029 240.977869,143.707136 C243.172109,141.775116 245.135428,140.018008 247.128737,138.295882 C251.252308,134.731691 253.32359,129.969109 252.388914,124.106085 C252.11001,122.353974 251.703151,120.648839 251.220319,118.969692 C249.360963,115.057677 247.080754,111.32857 244.626604,107.772375 C244.546632,107.811355 244.46666,107.850336 244.390686,107.888316 C244.37969,108.189164 244.315712,108.37307 244.376691,108.495008 C245.01547,109.785354 245.698233,111.054709 246.323016,112.352051 C248.437283,116.735826 249.645864,121.39546 250.422595,126.174035 C250.535556,126.866683 250.450586,127.623299 250.305636,128.318946 C249.590884,131.749205 247.940456,134.602757 244.942495,136.543771 C242.806235,137.927069 241.11982,140.07298 238.377771,140.454786 C238.17784,140.482772 237.997902,140.732645 237.82996,140.899561 C235.363815,143.351316 232.09095,143.973001 228.760105,144.997481 C227.722464,141.648181 226.715813,138.399829 225.641186,134.932589 C229.732767,132.085035 234.077261,129.647272 234.648063,124.260006 C234.365162,122.887703 234.150236,121.484415 233.777365,120.124106 C233.350513,118.574892 232.809701,117.053664 232.270887,115.537434 C231.544139,113.491472 230.607464,111.50548 230.053656,109.415541 C229.075995,105.724415 229.727769,102.24618 232.761717,99.7614414 C235.489772,97.5275753 238.429753,95.4916087 241.491691,93.7484935 C242.154461,93.3706853 242.85022,93.0498481 243.563973,92.7599952 C245.062453,91.1218267 246.574929,89.4996501 248.395298,88.2063066 C250.432592,86.7600407 252.68681,86.103374 255.065986,85.4467073 C257.175254,84.8640031 259.796346,84.4921918 262.29448,84.7150787 C262.487413,84.6840944 262.688343,84.6701015 262.898271,84.6810959 C263.024227,84.6381177 263.149184,84.5971385 263.277139,84.5531608 C263.272141,84.6121309 263.270142,84.665104 263.266143,84.7230746 C263.355112,84.7370675 263.443082,84.7530594 263.53405,84.7760477 C263.949906,84.879995 264.344769,85.0109285 264.731635,85.1528565 C265.419397,85.3477575 266.077169,85.6056266 266.690956,85.9344597 C267.483681,86.3292593 268.247416,86.8080163 268.972165,87.3627348 C271.620247,89.3917049 274.052404,91.9294168 276.17067,94.5081079 C276.315619,94.6830191 276.453572,94.8619283 276.590524,95.041837 C278.785763,97.2457184 280.852047,99.5815328 282.827362,102.012299 Z M272.689876,155.222291 C270.57261,159.199272 267.728596,162.553569 263.845942,164.899379 C260.294173,167.04529 256.663432,169.061266 252.851753,171.259151 C252.994704,168.812393 257.210242,164.458603 258.184904,162.545574 C258.88966,161.163275 259.026613,160.673524 258.458809,159.713011 C257.803037,160.726497 257.186251,161.771966 256.420516,162.702494 C254.756093,164.726467 252.952718,166.575528 250.905428,168.214696 C250.877438,168.237684 250.847448,168.250678 250.819458,168.270668 C250.735487,168.416594 250.661512,168.553524 250.600534,168.68046 C248.944108,172.114716 249.252001,173.811855 252.127004,176.312586 C254.363229,178.257598 256.621446,180.182621 258.778699,182.21359 C262.517403,185.735803 266.256107,189.262013 269.856858,192.922155 C272.264024,195.368913 272.076089,196.561308 269.486987,198.865138 C267.619634,200.527295 265.717293,202.075509 263.241152,202.826128 C261.872626,203.240917 260.829988,203.179948 259.707377,202.214438 C256.184598,199.180978 252.561854,196.26246 249.033077,193.235996 C247.772514,192.153545 246.667897,190.889187 245.461315,189.677802 C248.375305,183.595889 249.531904,177.397035 247.620567,171.001282 C245.808195,164.93736 243.184104,159.245249 238.040887,155.009399 C238.988559,153.440195 239.788282,152.116867 240.488039,150.958455 C246.263037,152.201824 251.474231,154.174822 257.153262,154.028896 C262.711335,153.885969 268.215427,153.700063 273.363643,151.045411 C274.028412,152.854493 273.311661,154.052884 272.689876,155.222291 Z M273.877465,198.156498 C275.104039,199.457838 276.451572,200.692211 277.568185,202.108492 C280.15129,205.386828 279.003688,210.411278 275.066053,211.739604 C271.960129,212.787072 270.551618,214.518193 270.0258,217.661598 C269.609944,220.150335 267.580647,221.847473 265.499369,223.081847 C263.589031,224.214272 261.405788,224.885931 259.348501,225.772481 C258.062947,226.327199 257.165258,225.625555 256.343543,224.818965 C255.540821,224.030365 255.710762,223.150812 256.098628,222.155317 C257.192249,219.342744 258.994624,216.961953 260.799998,214.636133 C262.478416,212.472232 263.061214,210.262353 262.430433,207.658675 C262.355459,207.349832 262.336465,207.024997 262.303477,206.707158 C262.296479,206.633196 262.337465,206.554236 262.435431,206.147442 C267.099814,204.816118 270.57261,201.75767 273.877465,198.156498 Z M229.557828,148.472717 C232.471818,147.140393 235.136894,145.922011 238.001901,144.612676 C238.665671,146.195872 239.213481,147.503209 239.812273,148.930484 C238.92658,149.987948 237.97591,151.04641 237.114209,152.172839 C236.325482,153.205314 235.530757,153.043397 234.649063,152.36674 C233.069611,151.155355 231.487159,149.947968 229.557828,148.472717 Z M244.548631,187.089116 C244.173761,188.081612 243.690929,188.983154 242.899203,189.718781 C242.406374,190.175549 241.902549,190.549359 241.374732,190.874195 C240.597001,192.438401 238.972564,193.258984 237.388114,193.929644 C234.148237,195.301947 230.64845,195.436879 227.198646,194.759223 C224.522573,194.23249 221.902482,193.421901 219.242404,192.802216 C217.104145,192.303469 215.510697,190.911176 213.912251,189.584849 C211.975923,187.976665 211.074235,185.825757 210.739351,183.285047 C210.285509,179.839795 210.722357,176.609435 211.683024,173.276127 C213.043553,168.550526 214.765956,163.973849 216.451371,159.371185 C216.91621,158.103828 217.082153,156.708536 217.251094,155.355223 C217.403041,154.147836 217.771914,153.465183 219.175427,153.432199 C221.550604,153.377227 223.318991,151.89398 225.145358,150.575649 C226.654834,149.486202 226.455903,149.228333 228.445214,150.501687 C231.633109,152.54465 234.538102,154.922443 237.294146,157.467151 C238.863602,158.916416 240.381076,160.596563 241.361736,162.466614 C243.000168,165.588029 244.197753,168.940328 245.56228,172.203671 C246.304023,173.97877 246.261038,175.829831 246.001128,177.689887 C245.711228,179.767832 245.488306,181.858771 245.095442,183.917725 C245.016469,184.334514 244.918503,184.744306 244.798545,185.139106 C244.84153,185.792774 244.792547,186.441444 244.548631,187.089116 Z M214.651995,204.078492 C213.249481,204.782135 211.936936,204.817117 210.80033,203.898584 C208.744043,202.236427 206.844701,200.381369 204.842396,198.650248 C203.93571,197.867645 203.859736,196.870151 204.377557,196.032576 C205.796065,193.735742 207.376517,191.540856 209.106917,188.99215 C212.364788,193.049091 216.382395,194.979111 220.858843,196.435372 C219.315379,199.638746 217.827894,202.4863 214.651995,204.078492 Z M202.017375,213.652633 C201.249641,213.234845 200.574875,212.014464 200.486905,211.103926 C200.288974,209.035976 199.193354,208.51524 197.352992,208.234383 C194.896843,207.858574 192.489678,207.133941 190.078513,206.497265 C187.108543,205.713662 185.669042,203.468802 184.80934,200.743185 C184.482453,199.705712 184.863321,199.003068 186.015922,198.894124 C187.040567,198.797173 188.079206,198.617264 189.094854,198.697224 C191.661965,198.898122 194.216079,199.260938 196.783189,199.479826 C197.556921,199.545793 198.421621,199.522805 199.124378,199.239948 C200.38594,198.733205 201.147676,199.038051 202.048364,200.040542 C203.595828,201.761668 205.277245,203.390841 207.068624,204.855098 C208.717052,206.201415 210.584405,207.279867 212.41777,208.519238 C211.451105,213.360781 206.365867,216.02143 202.017375,213.652633 Z M214.284123,143.611184 C214.14817,141.363325 215.745616,139.79712 217.605971,138.641707 C218.151782,138.303878 218.768568,138.080991 219.320377,137.751159 C221.2727,136.58675 223.373972,137.179449 224.058734,139.334355 C224.683518,141.304355 225.017402,143.373305 225.364282,145.418267 C225.445254,145.892027 225.214334,146.654639 224.855458,146.925502 C223.252014,148.137887 221.577594,149.263315 219.866188,150.320779 C219.433338,150.587643 218.774566,150.488693 217.914864,150.595639 C217.314072,150.082899 216.306422,149.611139 215.950545,148.83953 C215.18681,147.180373 214.392085,145.389282 214.284123,143.611184 Z M213.02256,138.659697 C212.776645,138.899576 212.062893,138.922564 211.718012,138.747653 C210.758345,138.2599 209.87865,137.615228 208.612089,136.805639 C210.13656,136.435826 211.120219,136.196948 212.225836,135.929084 C212.120872,134.318901 212.025905,132.841651 211.906947,131.007582 C213.185503,131.239464 214.238139,131.430367 215.450718,131.651255 C217.336065,130.659758 217.32107,127.99711 219.620273,127.223502 C220.257052,129.345425 220.179079,131.48434 220.323029,133.582275 C220.347021,133.935096 219.910172,134.470824 219.547298,134.673721 C217.323069,135.920088 214.902908,136.826628 213.02256,138.659697 Z M230.397537,127.038596 C229.438869,129.33543 226.619846,131.513325 223.203031,132.729707 C223.035089,131.712224 222.897137,130.882645 222.729195,129.86816 C225.272314,128.929636 227.683478,128.040088 230.397537,127.038596 Z M202.104345,132.160996 C201.082699,129.727231 200.12803,127.265481 199.050403,124.579844 C208.98396,120.958682 218.752574,117.39749 228.616154,113.802315 C230.379543,116.33403 231.246243,119.246551 231.678093,122.284009 C231.920009,123.982148 231.595122,124.376947 229.949692,124.936663 C228.129323,125.556348 226.286962,126.114065 224.435604,126.632802 C223.913784,126.778728 223.325988,126.690773 222.757185,126.711762 C222.227369,125.308474 221.723544,123.971153 221.117754,122.366967 C220.474977,122.751772 219.882182,122.97266 219.469325,123.376455 C218.152782,124.6668 216.813246,125.953147 215.658646,127.382422 C214.864921,128.364923 214.018215,128.571818 212.904601,128.294958 C212.355791,128.159027 211.803982,128.030093 211.248175,127.927145 C209.221877,127.551336 208.601093,128.227992 209.042939,130.30194 C209.250867,131.281443 209.441801,132.264943 209.640732,133.249444 C208.075275,133.531301 206.828707,133.766181 205.57814,133.980073 C203.793759,134.284918 202.792106,133.796166 202.104345,132.160996 Z M192.678612,137.13747 C191.337077,137.626222 189.898576,137.860103 188.492063,138.146958 C188.254146,138.195933 187.725329,137.936065 187.724329,137.814127 C187.720331,137.477298 187.832292,136.931575 188.059213,136.830626 C191.203124,135.431336 194.372025,134.086019 197.539927,132.741701 C198.731514,132.235958 199.125377,132.932604 199.334305,134.106009 C197.400975,135.671214 194.976815,136.297896 192.678612,137.13747 Z M232.414838,78.1783965 C233.267542,77.7576101 234.015283,77.2798526 234.832999,77.0379754 C235.168883,76.9380261 235.765676,77.2468694 236.034583,77.5537136 C236.213521,77.7576101 236.159539,78.5122271 235.969605,78.6291677 C235.317831,79.0309638 234.582086,79.3567984 233.837344,79.5267122 C233.12959,79.68863 232.605771,79.3158192 232.414838,78.1783965 Z M232.049964,87.744541 C232.14793,88.0024101 232.17692,88.2852665 232.225903,88.562126 C230.716426,87.7415425 229.137974,88.3522325 227.597508,88.4102031 C225.082379,88.5041554 222.775179,87.9644294 220.851846,86.30827 C217.557988,83.4707103 217.794906,78.1454133 221.47363,75.9435309 C223.0041,75.0269961 224.927433,74.5902178 226.726809,74.355337 C227.997369,74.1904208 228.536182,73.7906237 228.561173,72.7021762 C228.724117,73.3128662 228.929046,73.9205577 228.984027,74.5402432 C229.383888,79.0889344 230.424528,83.4827042 232.049964,87.744541 Z M219.28139,95.9014007 C214.46506,93.672532 211.371132,90.063364 210.153554,85.0958854 C209.533769,82.5641704 209.232874,79.7096193 210.633388,77.1369252 C211.167203,71.5487616 215.93455,70.0765089 219.812206,67.7696798 C219.849193,67.747691 219.890179,67.7316991 219.930165,67.7147077 C222.220371,66.3633936 225.527225,65.8766407 227.998369,66.5742865 C228.505193,66.6142663 228.995023,66.6882287 229.452864,66.8001719 C229.3509,67.1419984 229.248935,67.4848244 229.129976,67.883622 C229.190955,68.3313947 229.063,68.8051542 228.700125,69.1629726 C228.62815,69.2329371 228.569171,69.3039011 228.515189,69.374865 C228.649143,69.3408823 228.780098,69.3068995 228.91805,69.2719173 C228.741111,70.6172344 228.621153,71.5237743 228.501194,72.4253167 C226.833772,71.6836931 225.272314,72.3473563 223.645877,72.7191675 C220.382009,73.4647891 217.932858,74.7581326 216.501354,78.2403651 C214.943894,82.0284423 215.779604,84.9379655 218.153781,87.7545359 C220.907826,91.0218775 224.657527,91.424673 228.495196,90.7190312 C229.788748,90.4811519 231.575129,90.3881991 232.26389,88.7080519 C233.376504,90.5141352 234.488119,92.3182195 235.412798,93.820457 C233.479469,95.4606244 231.804049,96.9418726 230.049657,98.324171 C229.693781,98.6050284 228.989025,98.6929838 228.535182,98.5600512 C225.459249,97.6585088 222.273353,97.2856981 219.28139,95.9014007 Z M163.732646,79.4007761 C163.285801,80.1623895 162.992903,81.0139573 162.583045,81.7995585 C161.8473,83.2088432 161.301489,83.5786555 159.887979,82.95897 C156.074301,81.2888178 152.122671,79.816565 149.027744,76.8630642 C148.586896,76.4422778 148.047084,75.8635715 148.008097,75.3238455 C147.622231,70.1144896 147.332331,64.8971378 147.026437,59.6807855 C147.01844,59.5368586 147.137399,59.3849357 147.346326,58.8642 C149.246668,59.2390098 151.082031,59.4858845 152.852418,59.9726374 C157.190914,61.1630332 161.489424,62.4993549 165.823921,63.7057426 C167.917196,64.2894463 170.045458,64.7642053 172.176719,65.1959861 C175.497568,65.8706437 178.682464,66.9351034 181.816377,68.0895174 C181.382528,70.2334292 180.731753,70.6881984 178.469538,70.738173 C175.28964,70.809137 172.298677,71.5837439 169.478654,73.0939773 C166.802582,74.5262503 165.203136,76.9010449 163.732646,79.4007761 Z M169.525638,18.9794447 C168.801889,18.8265223 168.089136,18.6965883 167.428365,18.5596578 C166.486691,18.3647567 165.537021,18.2118343 164.585351,18.0709059 C164.76129,17.7840515 164.936229,17.4882016 165.10717,17.1763599 C164.650328,17.4172376 164.213479,17.6791047 163.788627,17.9549647 C162.231167,17.7350763 160.670708,17.5301803 159.127243,17.227334 C157.957648,16.9974507 156.878022,16.5716668 155.770406,16.1488814 C155.250586,15.9499824 154.679784,15.8650255 154.098986,15.8210478 C154.191953,15.6731229 154.3459,15.5591808 154.565824,15.5421894 C155.882367,15.4392416 157.310872,15.4402411 158.662404,15.7021082 C159.36516,15.7390894 160.067917,15.7820676 160.763675,15.7540818 C162.167189,15.6981102 163.54771,15.3093076 164.957222,15.326299 C166.253772,15.3422908 167.525331,15.5911645 168.820882,15.6401397 C170.273379,15.6941123 171.737871,15.6721234 173.200364,15.6601295 C171.849832,16.6406318 170.64525,17.779054 169.525638,18.9794447 Z M179.725102,16.4977044 C178.307594,18.1478668 176.636173,19.8829861 175.569543,22.0658781 C175.190674,21.6211038 174.777817,21.2033159 174.303982,20.8355026 C173.503259,20.2138182 172.521599,19.7910328 171.485958,19.4721946 C172.499607,18.3657562 173.535248,17.1693635 174.51191,15.6561315 C176.400255,15.6581305 178.279603,15.7200991 180.121965,16.0319408 C179.990011,16.1868622 179.857057,16.344782 179.725102,16.4977044 Z M181.010657,21.7800232 C180.04899,22.899455 178.971364,24.059866 178.045685,25.3721999 C177.464886,24.6655585 176.957062,23.9009466 176.420248,23.1593231 C178.388566,20.9694346 180.414863,18.8475117 182.181251,16.417745 C182.186249,16.411748 182.190248,16.405751 182.195246,16.3987546 C183.109929,16.6386328 183.965632,17.0014487 184.772353,17.4572173 C183.441814,18.8705 182.225236,20.36774 181.010657,21.7800232 Z M189.211814,28.6125551 C187.46442,30.6445237 185.334158,32.8074259 184.422474,35.7759192 C184.160565,35.3371419 183.892658,34.8973651 183.642744,34.4575883 C183.100932,33.5070708 182.581112,32.5465583 182.066291,31.5850464 C182.103278,31.5330727 182.144264,31.4850971 182.181251,31.4331235 C184.225542,28.6195516 186.917609,26.7185165 189.141838,22.6755686 C185.835984,24.4126869 183.409825,27.1682882 181.135613,29.8529255 C181.031649,29.661023 180.929685,29.4681209 180.824721,29.2772178 C180.243923,28.496614 179.64513,27.7300031 179.033342,26.9763856 C180.56881,25.2862435 182.09628,23.585107 183.466805,21.6990643 C184.316511,20.5296578 185.279177,19.5161723 186.272833,18.4417176 C187.120539,19.0763955 187.914264,19.7990287 188.667003,20.5676386 C188.803955,20.708567 188.850939,20.8684859 188.836944,21.0204087 C189.112848,21.3472429 189.381755,21.6900688 189.649662,22.0478872 L192.273752,25.0533617 C191.21212,26.2357615 190.209468,27.4521441 189.211814,28.6125551 Z M190.497368,33.8948739 C189.131842,35.4820683 187.534395,37.1522206 186.465766,39.2221699 C185.802996,38.0687554 185.113235,36.9353307 184.438469,35.803905 C184.586417,36.0127989 184.733366,36.2216929 184.880315,36.4305869 C187.157526,33.815914 189.592682,31.3871468 191.666963,28.5315962 C192.219771,27.7729813 192.819563,27.0793334 193.443347,26.3926819 L195.295705,28.5136054 C193.544312,30.2177404 192.018841,32.1237729 190.497368,33.8948739 Z M191.782923,39.1761932 C190.704296,40.4305566 189.479721,41.735894 188.486065,43.2481264 C188.110196,42.3285932 187.673347,41.4300492 187.200511,40.5454982 C189.166829,38.3586082 191.189128,36.2406833 192.952517,33.813915 C193.994156,32.3806425 195.203737,31.1812513 196.43431,29.8169438 L197.364988,30.8834025 C197.821829,31.2282275 198.266675,31.5860458 198.694527,31.9588566 C195.991464,34.0298054 193.884194,36.7314342 191.782923,39.1761932 Z M193.067477,44.4585121 C191.764929,45.9727435 190.250454,47.5609373 189.184823,49.5009526 C189.22281,48.1416426 189.139839,46.7433523 188.871932,45.4000342 C190.715293,43.3630681 192.589643,41.3640827 194.238072,39.0962338 C195.812526,36.9293337 197.768848,35.2981617 199.601212,32.8194198 C200.237992,33.483083 200.795798,34.2107136 201.216652,35.0442905 C201.389592,35.3891155 201.518548,35.7479334 201.611516,36.1167462 C198.086737,38.254661 195.574608,41.5419924 193.067477,44.4585121 Z M198.711521,57.4569143 C198.499594,59.7417546 198.017761,62.0405878 195.732553,63.1450272 C193.165443,64.3873966 190.357417,64.6372697 187.589376,65.141014 C187.305475,65.1929877 187.043565,65.1749968 186.808647,65.1080308 C186.882621,64.7622063 186.960594,64.4153824 187.048564,64.0715569 C187.533396,62.1615264 187.935256,60.1915263 188.262143,58.2035354 C189.380755,57.8547124 190.482373,57.4599128 191.620979,57.2060417 C192.001847,57.2430229 192.375717,57.2790046 192.732593,57.2929975 C193.661271,57.3289793 194.596947,57.1330787 195.514629,57.0161381 C195.62759,57.0021452 195.738551,56.9951487 195.849513,56.9891518 C196.696219,57.0531193 197.538927,57.1590655 198.348647,57.2720082 C198.470604,57.3309783 198.591562,57.3909478 198.711521,57.4569143 Z M188.694993,55.2280457 C188.831946,54.1296032 188.942907,53.0321602 189.032876,51.9417137 C191.224116,49.452977 193.538314,47.1101661 195.523626,44.3775531 C197.347993,41.8668275 199.688182,40.0777356 201.751467,36.8483748 C202.097347,39.5370101 200.864774,42.6704197 200.447919,45.1491615 C199.870119,48.5814194 199.211348,51.9267213 198.88646,55.3769701 C195.700565,53.9387001 191.990851,54.1056154 188.694993,55.2280457 Z M145.736884,47.1051687 C145.577939,45.5109778 145.429991,43.914788 145.306034,42.3165992 C144.99914,38.388593 146.497621,34.7074615 146.90348,30.8694096 C147.267354,27.4341533 147.976108,24.0338792 148.54691,20.6216112 C148.718851,19.5981307 148.942773,18.5836456 149.186688,17.3392772 C151.909745,17.2883031 154.390884,17.8530164 156.851032,18.5756497 C157.545791,18.7795462 158.224556,19.0444117 158.926312,19.211327 C160.875637,19.6750916 162.82796,20.1258628 164.779283,20.5816315 C166.644637,20.8884757 168.615953,20.8644879 170.38534,21.5581358 C171.955796,22.1738233 172.95145,23.6120933 173.886126,24.944417 C176.574195,28.7784709 179.255265,32.6255182 181.913344,36.4805615 C183.381835,38.6104804 184.882315,40.6914241 185.681038,43.0272385 C186.358803,43.6769088 186.719678,44.5434689 186.501753,45.7208713 C186.406786,46.2326116 186.316817,46.7443518 186.229848,47.2570916 C186.227848,47.2870763 186.227848,47.3160616 186.224849,47.3470459 C186.216852,47.4360007 186.197859,47.5169596 186.172867,47.5939206 C185.918955,49.1051535 185.681038,50.6203844 185.406133,52.1286189 C184.612408,56.4794105 183.791693,60.8242052 182.900002,65.6097761 C181.206589,65.1540075 179.973016,64.8331703 178.746442,64.4893448 C175.72349,63.6407755 172.697538,62.8022012 169.683583,61.9216481 C166.670628,61.0400956 163.685662,60.0595933 160.660711,59.2230179 C158.567437,58.6443116 156.430178,58.2235252 154.308913,57.7517647 C152.422567,57.3329772 150.525224,56.9621655 148.641877,56.5333831 C147.349325,56.2395323 146.551602,55.5278935 146.444639,54.0756306 C146.273698,51.7478122 145.968804,49.4289891 145.736884,47.1051687 Z M117.058826,81.8475342 C116.721942,81.9204971 116.379061,81.9664738 116.03718,82.0164484 L115.997194,81.4947133 C116.336076,81.4777219 116.674959,81.4537341 117.012842,81.46173 C117.032835,81.4627295 117.071821,81.8445357 117.058826,81.8475342 Z M112.901267,83.581654 C112.873276,83.439726 112.845286,83.297798 112.817296,83.1568696 C113.282135,83.0529223 113.746974,82.9479756 114.211812,82.8440284 C114.2468,83.0089447 114.281788,83.1748604 114.316776,83.3397767 C113.84494,83.4207356 113.373103,83.5006951 112.901267,83.581654 Z M68.9794922,80.6171587 C68.8425397,80.5162099 68.7055871,80.4152612 68.5686346,80.3143124 L69.5213044,78.9480059 C69.6842479,79.0789394 69.8471914,79.2108725 70.0101349,79.341806 C69.6662541,79.7665904 69.323373,80.1923743 68.9794922,80.6171587 Z M58.9769595,78.7501064 C57.4145012,81.6826179 55.1552843,83.7695586 51.9393991,84.9209742 C48.0357523,86.3192644 42.7395882,87.1368494 39.3977466,86.5421513 C33.0239561,85.8435059 26.4692283,79.4427548 25.5975305,72.9260625 C25.4555797,71.8646013 25.5565447,70.6542157 25.939412,69.6647179 C26.5442023,68.1015114 27.4828769,66.6672394 28.2806004,65.1779953 C29.1053145,63.6377771 30.3388869,62.5533275 31.8603595,61.6947633 C37.0545589,58.7652503 42.6266274,57.9646566 48.3896296,59.069096 C52.6621486,59.88868 58.188233,63.8086903 58.6730649,69.8266357 C58.8590004,72.1354638 59.3538289,74.4173056 59.5687544,76.7251342 C59.6297333,77.3798019 59.3048459,78.1364179 58.9769595,78.7501064 Z M15.8049251,74.0704816 C15.4930332,74.7181529 14.2074788,75.2898627 13.4087557,75.2398881 C10.5927319,75.0619784 7.77970699,74.6801722 4.99967068,74.1844238 C4.36389108,74.0714811 3.58116241,73.2908773 3.3642376,72.6482036 C2.98436929,71.5277723 2.83742022,70.2724095 2.86541052,69.0800147 C2.92738904,66.4743373 4.14396731,65.7886853 6.76805768,65.6367624 C9.85098898,65.4588527 12.8239584,65.8046772 15.8129223,66.3683911 C16.1258138,66.4273611 16.4337071,66.5133175 16.9425307,66.6342561 C17.4143672,69.3618716 16.892548,71.8116282 15.8049251,74.0704816 Z M34.6883791,41.1601862 C40.305432,40.7963709 45.93648,40.64045 51.5605304,40.3775834 C55.5751388,40.1896788 59.5857485,39.9138188 63.6003569,39.7449046 C65.6416492,39.6599477 67.6889396,39.7189178 69.7342306,39.7169188 C68.3547088,41.0762288 66.4483696,40.7433978 64.8419265,40.9073146 C58.364172,41.5709777 51.8574275,41.9897651 45.353682,42.3515815 C41.4170467,42.5704704 37.4664161,42.5274922 33.5217835,42.5744684 C32.8090306,42.5834638 32.095278,42.4615257 31.0976239,42.3755693 C32.2052399,41.1052141 33.5917593,41.2311502 34.6883791,41.1601862 Z M72.4522883,39.4720431 C71.4426383,40.0687402 70.6559111,39.8348589 69.8861779,39.6819365 C70.6009301,39.2201709 71.3436726,38.9662998 72.4522883,39.4720431 Z M83.1255885,43.7718606 C83.2015621,43.8568175 83.2835337,43.9107901 83.3675046,43.9427738 C82.2948764,44.4974923 81.6321062,44.3625608 80.9473435,43.4020483 C79.5418308,41.4320482 79.7987417,38.5695012 81.3841921,36.8323829 C81.4871564,36.8463758 81.5851225,36.8593692 81.6860875,36.8723626 C80.383539,38.8353662 81.7330712,42.2116525 83.1255885,43.7718606 Z M284.702712,43.5859549 C287.70767,42.6394354 291.076503,43.2071472 294.234408,42.833337 C294.417345,46.580435 294.586286,50.0486746 294.757227,53.5498975 C291.911213,54.500415 289.287123,53.3559959 286.834973,53.3230126 C286.115222,50.0336822 285.436458,46.9352549 284.702712,43.5859549 Z M286.337146,56.0536266 C289.409081,55.9256916 291.967194,55.8187458 294.871187,55.6968077 C294.884183,59.4758895 294.898178,63.2149917 294.912173,67.0040684 C291.48836,68.2824195 288.109531,68.6842156 284.682719,68.5662755 C285.230529,64.4213793 285.781338,60.2544943 286.337146,56.0536266 Z M321.583927,45.7188723 C316.394726,46.3245649 311.195528,46.8532965 305.995331,47.3600393 C303.594163,47.5939206 301.182,47.7548389 298.771835,47.8327993 C297.204378,47.8837735 297.053431,47.604915 296.826509,46.0557014 C296.670563,44.9852447 296.373666,43.9357774 296.16174,42.9822614 C309.905975,41.4250518 323.692196,39.8618452 337.595377,38.2866448 C338.388102,40.0367564 338.181174,41.8148539 337.912267,43.650922 C332.360192,44.3585628 326.978057,45.0891919 321.583927,45.7188723 Z M336.839639,50.2985478 C337.362458,51.4709527 336.72068,53.139106 336.682693,54.5883703 C336.644706,56.0376347 336.660701,57.4918966 336.74967,58.9381625 C336.83564,60.3444487 337.044568,61.7427389 337.205512,63.2009988 C334.81634,64.3843981 302.936391,68.8821151 297.248363,68.7271938 C297.529266,68.3903647 297.756187,68.1185027 297.970113,67.8616331 C297.514271,67.6347483 297.156395,67.2019679 297.108412,66.5612931 C296.916478,63.9696086 297.162393,61.4109074 297.477284,58.8512066 C297.440297,56.2295373 297.408308,53.5818812 297.37232,50.8332764 C310.384809,48.9082535 323.892127,49.0681723 337.03957,46.1176699 C338.197168,47.6418962 336.14288,48.7353412 336.839639,50.2985478 Z M111.523744,5.62622251 C112.283481,5.46130622 113.039219,5.18044878 113.803954,5.15246298 C117.326733,5.01953046 120.82552,4.47380745 124.378288,4.8086375 C126.696485,5.0275264 129.048669,4.94157003 131.384859,4.92158017 C136.059239,4.88060098 140.734618,4.84761772 145.406999,4.70469026 C149.107716,4.59174759 152.834424,5.0545127 156.476162,4.80963699 C161.594387,4.46581151 166.69362,4.95656242 171.793852,4.59274708 C173.231353,4.48979934 174.71184,4.93357409 176.143344,4.80164105 C179.977015,4.44882014 183.811686,4.57275723 187.646357,4.54876941 C190.692301,4.52977904 193.742243,4.69269635 196.785189,4.60873897 C199.186356,4.54277245 201.577527,4.16396472 203.978695,4.03503017 C206.310886,3.91109308 208.651075,3.90509612 210.988265,3.88910424 C214.454064,3.8671154 217.923861,3.990053 221.384661,3.85512149 C225.873105,3.67921078 230.351553,3.2254411 234.839997,3.05652684 C238.039888,2.93658772 241.249775,3.11049944 244.455664,3.10550198 C245.484307,3.10450249 246.54294,3.07351821 247.536596,2.83563896 C248.791161,2.53579115 249.678853,2.89360953 250.590537,3.7441778 C255.980669,8.77062648 261.460769,13.7021234 266.806916,18.7755482 C269.421009,21.2552895 272.021108,23.7750106 273.950439,26.8924282 C275.307969,29.0843157 277.694142,29.6380346 279.986347,30.0798104 C287.297813,31.4880956 294.663259,32.2926872 302.128671,31.6380195 C303.008366,31.5610585 303.905056,31.6030372 304.790749,31.6520124 C309.843997,31.9288718 314.895246,32.249709 319.950494,32.4985827 C321.393993,32.5695466 322.856486,32.5465583 324.292988,32.3966344 C328.121661,31.9988363 331.90435,32.8524031 335.761013,32.6285167 C338.964902,32.4426111 342.233769,33.3591459 345.907496,33.8448993 C344.839866,34.2107136 344.125113,34.6285016 343.38537,34.6814747 C337.115543,35.1322459 330.935686,36.2276898 324.724838,37.1172383 C321.470966,37.5830019 318.168111,37.6989431 314.899245,38.0747523 C311.148545,38.5055337 307.417838,39.1322156 303.66214,39.5150213 C300.467247,39.8418554 297.247364,39.9328092 294.040475,40.1477001 C292.676948,40.2396535 291.318419,40.4115662 289.954891,40.4955236 C283.519122,40.8893237 277.098348,40.4585424 270.674575,40.1387047 C268.100467,40.0107696 265.517363,39.889831 262.942255,39.9527991 C258.60176,40.0597448 254.267262,40.3885779 249.926767,40.4925251 C243.650943,40.6414495 237.390113,41.5659802 231.089297,40.6624389 C228.382235,40.2746357 225.602199,40.4165637 222.881142,40.0997245 C220.500968,39.822865 218.158779,39.2261679 215.795599,38.7953865 C214.49405,38.5575073 213.728315,37.7539152 213.049551,36.6584712 C208.722051,29.6800133 204.286588,22.7695209 200.000074,15.7660757 C197.807834,12.183894 194.539967,9.93403596 191.007191,7.98402574 C190.20447,7.54125048 189.127843,7.471286 188.173174,7.44829767 C183.174907,7.33335601 178.17364,7.31836362 173.175373,7.20642044 C170.436322,7.14445189 167.700271,6.84860206 164.96322,6.85260003 C158.997288,6.86259496 153.032355,6.97253915 147.067423,7.08947979 C143.523652,7.15844479 139.97888,7.46129107 136.438108,7.40831796 C130.960007,7.32536007 125.484905,7.01551734 120.006804,6.82561373 C117.9985,6.75564924 115.987197,6.78363503 113.978893,6.69967765 C113.15118,6.66469541 112.330465,6.45080397 111.505751,6.31887094 C111.511748,6.08798813 111.517746,5.85710532 111.523744,5.62622251 Z M347.428968,47.9137582 C346.958131,51.4739512 346.579263,54.8252501 346.042449,58.1515617 C345.835521,59.4389083 344.963823,60.2474979 343.511326,60.3184619 C342.339732,60.3744335 341.176136,60.5913234 339.927568,60.7472442 C338.888929,57.3329772 339.420744,54.1495931 339.80861,50.9752043 C339.843598,50.6933474 340.06652,50.2975483 340.303438,50.199598 C342.63363,49.2320891 344.915839,48.0676801 347.428968,47.9137582 Z M348.148719,45.1031848 C345.552619,45.8138241 342.965515,46.5214649 340.041529,47.3210591 C340.273449,43.924783 340.481377,40.8803283 340.704299,37.6249806 C343.498331,37.3711095 346.072438,37.1362287 348.974432,36.8723626 C349.232343,39.8638442 348.811489,42.4395368 348.148719,45.1031848 Z M355.978005,62.215499 C355.912027,60.1785329 355.179282,59.7327592 353.166979,60.2225106 C352.305278,60.432404 351.454573,60.7092635 350.581875,60.852191 C349.749164,60.988122 348.89446,60.988122 347.48095,61.0880712 C349.724173,58.3094816 349.547234,55.4129518 349.976085,52.6593495 C350.692837,48.0556862 351.560536,43.4850062 351.814448,38.802383 C351.869429,37.7829005 351.795455,36.8093946 351.641508,35.858877 C351.189664,34.8993641 350.575877,33.9418501 349.711177,33.4510992 C348.499597,32.7634482 347.141068,32.4685979 345.787537,32.1877404 C342.353727,31.4761017 339.004888,30.539577 335.503102,30.1607693 C331.743406,29.7539758 327.960717,30.0088464 324.215015,29.6480295 C323.846143,29.6120478 323.475272,29.5690696 323.103401,29.523093 C321.226051,29.5390848 319.350701,29.5460813 317.499343,29.3361878 C317.431367,29.3281919 317.36339,29.3221949 317.295414,29.3151985 C315.899898,29.4741178 314.503382,29.7020021 313.100868,29.6240417 C309.149238,29.4051528 305.201606,29.1043055 301.241979,29.1932604 C297.479283,29.2772178 293.733582,28.8184506 289.971886,28.8784202 C287.94059,28.9114034 285.841317,28.9303938 283.911986,28.3346962 C283.867002,28.3326972 283.825016,28.3366952 283.776033,28.3306982 C281.886688,28.1038134 279.808409,28.362682 277.975044,27.7809772 C276.076702,27.1782831 274.684185,25.9489071 273.385635,24.471657 C270.327695,20.9934224 267.840557,17.0834071 264.731635,13.6381558 C261.603719,10.1719152 258.285869,6.81262032 254.717107,3.79515193 C252.909733,2.26592813 251.091363,0.870636349 248.622219,0.880631276 C246.42898,0.888627218 244.26373,1.08852575 242.181452,0.249951396 C242.035503,0.190981328 241.907547,0.116019377 241.794586,0.0310624995 C241.268768,0.00507568991 240.74495,-0.00691822223 240.222131,0.00407619723 C235.390806,0.113020899 230.565479,0.406871747 225.736153,0.578784487 C219.775219,0.791676428 213.812286,0.948596778 207.851352,1.14649633 C202.374251,1.328404 196.899149,1.55628833 191.422048,1.72020513 C188.526052,1.8061615 185.627057,1.82515186 182.729061,1.82515186 C179.353231,1.82615135 175.977402,1.73519752 172.602571,1.75318838 C168.989824,1.77217875 165.377076,1.9151062 161.763329,1.92210265 C158.458474,1.9280996 155.15262,1.81515693 151.846766,1.77317824 C148.944772,1.7371965 146.041779,1.66323404 143.140784,1.72120462 C139.282122,1.79916505 135.424459,2.00106257 131.565797,2.12599915 C130.039326,2.17497429 128.508856,2.18396973 126.980386,2.17097632 C122.877808,2.13599408 118.775231,2.04104228 114.672653,2.06203162 C113.81495,2.06702909 112.941253,2.41185406 112.107542,2.69570998 C108.242882,4.01304133 104.404212,5.40633412 100.528556,6.68968272 C96.7618615,7.93704959 93.3410473,9.95802378 91.0208516,13.0304643 C86.9082772,18.4737014 83.3365153,24.3227326 79.4818516,29.9628697 C77.9473835,32.2067308 76.2609681,34.3466446 74.723501,36.4255894 C73.6558711,36.3676188 72.8511501,36.2366853 72.0594245,36.2946559 C67.8038997,36.6054981 63.5523735,36.9863048 59.2968487,37.2981465 C56.9676561,37.4690598 54.6324656,37.5909979 52.2982747,37.6549654 C51.1726649,37.6859497 50.027062,37.3811044 48.916447,37.4880501 C43.1514454,38.0407696 37.4024383,38.7644023 31.6314388,39.2201709 C30.2839059,39.3261171 29.5401638,39.688933 29.0383377,40.853342 C28.5814961,41.9138037 27.7957685,42.3725708 26.568194,42.4085526 C23.8331421,42.4895115 21.0990898,42.695407 18.3730348,42.9482786 C16.0448419,43.164169 13.7206476,43.4580199 11.4124477,43.8268327 C9.75002398,44.0926977 8.41348729,45.0192274 7.59277179,46.4954781 C6.52314258,48.4195015 5.81438826,50.4844534 5.85037579,52.723317 C5.90335742,56.0046515 6.00232312,59.2859859 6.08929297,62.8311865 C5.3215591,63.0450779 4.50884083,63.3169399 3.67512983,63.4958491 C1.7228066,63.9166355 0.621188478,65.076047 0.241320158,67.0500451 C-0.212522518,69.4108468 -0.0145911303,71.6657023 0.73714828,73.9545405 C1.26496531,75.5597257 2.36458413,76.410294 3.83207543,76.6601672 C7.23689515,77.2398729 10.6167235,78.0184777 14.1474996,77.5876964 C15.7519434,77.3927953 16.999511,76.8060931 17.7732427,75.5337389 C18.9508345,73.5977216 20.6362503,73.5357531 22.575578,73.742648 C22.8934678,74.5522371 23.1933639,75.2888632 23.4742665,76.0334853 C24.871782,79.7316082 26.9860491,83.0419279 30.2339233,85.2318164 C35.1082336,88.5181483 40.4973655,90.2732574 46.5082818,88.8189956 C46.9731207,88.7060529 47.479945,88.7760174 47.9527811,88.6860631 C52.2852792,87.8604821 56.2339104,86.2113192 59.5457624,83.2208371 C59.702708,83.0789091 59.7856792,82.8430289 59.8716494,82.6381329 C60.3904696,81.396763 60.836315,80.1194113 61.4471033,78.9270166 C61.6540315,78.524221 62.2908108,78.0624554 62.6966701,78.0924402 C64.1061815,78.1963874 65.5006981,78.5052306 66.9012126,78.735114 C66.9272036,78.9070267 66.9541943,79.07794 66.9811849,79.2498527 C65.1978031,80.2733332 63.4144213,81.2978132 61.1701993,82.5861593 C62.4467567,82.3942567 63.1575104,82.2873109 64.2261399,82.1263926 C63.3924289,82.8280365 62.8856046,83.2548199 62.3787803,83.6816032 C63.0465488,83.9764536 63.6133523,84.0234297 64.067195,83.8195332 C67.1341319,82.4412328 70.2280594,81.1089091 73.2100257,79.5606949 C74.9834109,78.6401622 76.5498679,78.9570013 78.7341108,79.6636427 C75.0203981,81.0399441 71.7685254,82.2443328 68.3467115,83.5116895 C68.5916266,83.8165347 68.763567,84.2563115 69.0314742,84.3252765 C70.3660116,84.6661035 71.7755229,85.3337646 72.9291231,83.9024911 C76.6638284,83.1708625 80.0956388,81.6066564 83.5584384,80.1074174 C84.3021806,79.7855808 85.1908725,79.7995737 86.0125877,79.6586452 C86.0645697,79.8505478 86.1165517,80.0424504 86.1685336,80.234353 C83.7753632,81.7535819 81.1222829,82.7200913 77.7054673,83.5856519 C78.2972622,84.2892948 78.6261482,84.6800964 78.8230799,84.9139777 C82.8266921,83.1878538 86.369464,81.6766209 89.8982407,80.1304057 C91.0678353,79.6186655 92.1264683,79.8395534 93.2460802,80.6001673 C91.8415671,81.1608827 90.437054,81.7215981 89.0325408,82.2823135 C89.0755259,82.4792135 89.118511,82.6761136 89.1624958,82.8730137 C89.8002747,82.7940537 90.4700425,82.8130441 91.068835,82.616144 C92.2904115,82.214348 93.5109884,81.7725722 94.6645885,81.2098578 C96.5599315,80.2853271 98.5022582,80.3952713 101.032381,80.6501419 C96.471962,83.1188889 92.0614908,84.5161796 87.6010371,85.8465044 C90.4480501,86.0723897 92.8742091,84.5951395 95.4923016,83.9564637 C98.1613763,83.3047945 100.745481,82.3043023 103.367572,81.457732 C103.427551,81.6046574 103.48753,81.7515829 103.548509,81.8985083 C100.816456,83.1488736 98.0854027,84.399239 95.3543494,85.6496043 C95.4253248,85.8165196 95.4953005,85.9834349 95.5662759,86.1513496 C95.9741345,86.0084222 96.3839925,85.8714917 96.7888521,85.7215678 C100.640517,84.3032877 104.46719,82.8120446 108.353843,81.4977117 C109.782348,81.0139573 111.3638,80.7750785 113.220156,81.798559 C111.85363,82.4262404 110.818989,82.8500253 109.838329,83.374759 C109.364493,83.6296296 108.585763,84.3172806 108.634746,84.4002385 C109.6314,86.0813852 108.01796,86.1093709 107.291211,86.6790818 C107.792038,86.6740843 108.340848,86.7650381 108.747707,86.5661391 C113.52705,84.2273262 118.521319,82.5032014 123.736511,81.5097056 C125.531888,81.1688786 127.43223,81.2628309 129.321575,82.0864129 C127.074354,82.9299847 124.827133,83.7735566 122.364986,84.6980873 C123.143716,84.9719483 123.633546,85.143861 124.529236,85.4587012 C123.528583,86.0613953 122.859815,86.4511974 122.204042,86.8619889 C121.564264,87.2627855 120.519626,87.3777272 120.793531,88.6420854 C122.566916,87.7795232 124.17036,86.9419483 125.819789,86.2063217 C128.952703,84.8100305 132.150594,83.5536682 135.242522,82.074419 C136.585057,81.4317452 137.840622,80.8860222 139.356096,81.118904 C139.811938,81.1888685 140.299769,81.0049618 140.774605,81.0029629 C141.916209,80.9959664 143.058813,81.0279502 144.201417,81.0449415 C144.222409,81.2308472 144.244402,81.4157533 144.266394,81.601659 C142.318069,82.415246 140.351751,83.1878538 138.429417,84.058412 C137.491743,84.4831964 136.616046,85.0449112 135.721356,85.5636479 C137.12387,85.1148757 138.523385,84.6541096 139.933896,84.2293252 C140.782602,83.9744546 141.651301,83.7875495 142.512002,83.5696601 C142.565984,83.7225824 142.619965,83.8755048 142.674946,84.0294267 C141.663296,84.6321208 140.651647,85.2358143 139.639998,85.8395079 C141.685289,85.4876865 143.523652,84.7110807 145.421994,84.127377 C147.007444,83.638625 148.392964,83.0249365 148.904786,81.049939 C150.009403,81.7735717 150.917089,82.3692693 152.162657,83.1858549 C149.432603,84.8320193 147.020439,86.2872806 144.607276,87.7415425 C145.498967,87.8065095 146.307686,87.6156064 147.030436,87.255789 C148.826813,86.3602436 150.591202,85.3997311 152.35459,84.4412177 C153.160311,84.0034399 153.922047,83.78655 154.742762,84.4492136 C154.165962,86.0693912 151.859762,85.6376104 151.338942,87.9054593 C152.430564,87.4376967 153.132321,87.1758296 153.796091,86.8409996 C154.436869,86.5191629 154.999673,85.9994268 155.667442,85.7795384 C157.330865,85.2318164 158.90432,85.352755 160.438788,86.8589905 C158.844341,87.7295486 157.46182,88.4841656 156.080299,89.239782 C156.166269,89.3937039 156.253239,89.5486253 156.340209,89.7035466 C160.048923,88.5931103 163.235818,86.3922274 166.571662,84.5031862 C166.60565,84.4841959 166.57766,84.3572603 166.579659,84.1813496 C166.073835,83.9704566 165.532022,83.7455708 165.143157,83.5836529 C165.22113,80.6261541 167.026504,79.9534955 169.380688,79.9454996 C169.860522,79.9435006 170.339356,79.7855808 170.820189,79.7735869 C172.658552,79.7266107 174.496915,79.7096193 176.334278,79.682633 C176.376263,79.8705376 176.417249,80.0594418 176.458235,80.2483459 C171.322015,83.5246829 166.186795,86.8010199 161.050576,90.0783564 C161.570396,90.2932473 161.971257,90.2612635 162.286148,90.0803554 C166.686622,87.5636328 171.094094,85.0589041 175.448585,82.4652206 C176.237311,81.9954591 176.79012,81.1338964 177.470884,80.4732317 C177.843755,80.1104159 178.212627,79.5876812 178.659472,79.4917299 C179.593148,79.2908319 180.583805,79.2218669 181.540473,79.278838 C188.382101,79.6856315 195.220731,80.1314052 202.05936,80.5801775 C203.612822,80.6821257 205.162285,80.843044 206.781723,80.982973 C207.10761,82.1263926 206.432844,82.7340842 205.396204,83.299797 C203.002033,84.606134 200.659845,86.0074227 198.320656,87.4107104 C197.880809,87.673577 197.550923,88.1223492 197.171055,88.485165 L197.423967,88.8799647 C200.504899,87.2897718 203.585831,85.7005784 206.899682,83.9904465 C209.418809,95.384663 217.322069,99.9103658 227.928393,101.021802 C227.685477,102.854871 227.327601,104.516028 227.284616,106.18618 C227.242631,107.84134 227.518535,109.504496 227.661485,111.245612 C226.449905,111.813324 225.256319,112.488981 223.98376,112.94375 C221.41565,113.862284 218.79156,114.620899 216.215453,115.518444 C212.269821,116.893745 208.352179,118.349007 204.409546,119.733304 C201.909412,120.611858 199.371292,121.384466 196.877157,122.281011 C195.441654,122.796749 195.232727,123.233527 195.565611,124.656805 C195.728555,125.35545 196.027451,126.02611 196.296358,126.69677 C196.703217,127.712254 197.137067,128.717744 197.598906,129.820184 C196.818177,130.217982 196.269367,130.536821 195.690568,130.786694 C192.159792,132.311919 188.621019,133.817155 185.089243,135.341382 C184.396483,135.64023 183.825681,136.044025 183.888659,136.947567 C184.067597,139.492275 186.603718,141.45228 189.125844,140.78262 C191.671961,140.106963 194.190088,139.291377 196.656233,138.364847 C198.258678,137.763153 199.672188,136.386851 201.516548,137.765152 C201.68549,137.891088 202.125337,137.647211 202.441228,137.585243 C203.451878,137.386344 204.462527,137.191443 205.214267,137.045517 C207.412505,138.735659 209.424807,140.282874 211.389126,141.793107 C210.307501,145.558196 212.451758,148.444731 213.589363,151.564147 C215.281777,152.458693 215.022866,153.894964 214.625004,155.353224 C214.158166,157.059358 213.731314,158.780485 213.170509,160.455634 C212.432764,162.660515 211.532077,164.811423 210.790334,167.015305 C210.069584,169.156218 209.572756,171.376091 208.78303,173.488019 C207.112609,177.953753 207.115608,182.435478 208.34918,186.713306 C206.319883,189.475904 204.321576,191.994626 202.556188,194.668269 C201.231647,196.674251 199.206349,197.211978 197.194047,197.280943 C194.807874,197.361901 192.400708,196.821176 190.00154,196.560308 C188.796958,196.429375 187.592375,196.276452 186.383794,196.211485 C182.784042,196.015585 180.747748,198.72421 182.028304,202.017538 C182.434163,203.062008 182.989971,204.047508 183.449811,205.071988 C184.182557,206.707158 185.376143,207.862572 187.072555,208.411293 C189.438735,209.178903 191.826907,209.879548 194.21408,210.579193 C195.205736,210.870045 196.220384,211.082937 197.110076,211.302825 C197.370985,212.211364 197.50294,212.936996 197.784842,213.59966 C198.450611,215.163866 199.553229,216.398239 201.263636,216.684094 C203.244949,217.015926 205.271247,217.213825 207.276552,217.202831 C208.246216,217.196834 209.352832,216.778046 210.152555,216.204337 C212.000914,214.878011 213.510391,213.167879 214.490051,211.085935 C214.818937,210.385291 215.064852,209.537721 215.004873,208.784104 C214.883915,207.25488 215.477709,206.415306 216.861229,205.811613 C218.926513,204.91007 220.371013,203.344865 221.316685,201.253926 C221.806515,200.170476 222.640226,199.245945 223.284003,198.228462 C223.827814,197.368898 224.551563,197.013079 225.54122,197.302931 C227.928393,198.000577 230.323563,197.763698 232.745723,197.489837 C236.8503,197.025072 240.621993,195.944621 243.329054,192.531353 C243.45701,192.370435 243.722918,192.319461 243.936844,192.210516 C244.160766,192.389425 244.3507,192.531353 244.530638,192.684276 C247.087751,194.872165 249.700845,197.000085 252.184984,199.268934 C254.309248,201.208949 256.545473,203.114981 258.263877,205.389827 C260.388141,208.203399 260.675041,210.618173 258.431819,213.552683 C257.697074,214.513196 256.838371,215.380755 256.134615,216.362257 C255.150956,217.733561 254.091323,219.090872 253.370573,220.600106 C252.380916,222.674054 251.718146,224.883932 253.736446,226.849934 C255.588804,228.655018 257.657087,229.415632 260.319165,228.776956 C263.557042,228.00035 266.260105,226.254236 268.830214,224.352202 C270.826522,222.874952 272.596909,220.970918 272.949786,218.301273 C273.1977,216.424226 274.080394,215.322785 275.871773,214.566169 C277.540195,213.860527 279.268596,212.953987 280.225264,211.255849 C282.010645,208.090456 281.347875,202.666209 278.872733,199.887619 C277.75612,198.633256 276.548539,197.458852 275.415931,196.217482 C274.840131,195.586802 274.3523,194.876163 273.801491,194.221495 C273.302664,193.627797 272.520935,193.141044 272.30401,192.465387 C271.602253,190.288492 270.158754,188.694301 268.558309,187.206056 C263.9679,182.941221 259.345502,178.711368 254.757093,174.444534 C254.50618,174.210653 254.4482,173.768877 254.329241,173.492017 C254.546166,173.239146 254.626138,173.077228 254.756093,173.005264 C257.641093,171.41907 260.540088,169.855863 263.421089,168.261672 C266.484028,166.567532 269.379024,164.492585 271.388327,161.698004 C274.349301,157.580094 276.634509,153.045396 277.186318,147.823046 C277.327269,146.493721 277.943055,145.206375 278.397898,143.920027 C279.28559,141.4123 280.4092,138.912569 280.250256,136.214938 C279.944362,130.995588 280.203272,125.729261 279.069665,120.566881 C278.857738,119.597373 279.162633,118.770793 279.879384,117.933218 C281.817712,115.672365 283.653076,113.315562 285.404469,110.905785 C286.196194,109.816338 286.824976,108.559975 287.286816,107.291619 C287.875612,105.677439 288.061548,104.027276 286.825976,102.495054 C285.160553,100.431102 283.647078,98.2432121 281.951666,96.2052465 C280.590138,94.567078 279.05567,93.0718369 277.337265,91.2357689 C280.146292,89.1848099 282.585446,87.2308017 285.205538,85.5606495 C286.662033,84.6321208 288.449413,84.4941908 290.509699,84.940964 C289.031212,86.0154186 287.750656,86.8340031 286.604053,87.8105075 C285.465448,88.7800154 283.774034,89.3247389 283.460143,91.6705482 C284.339838,91.2937395 284.917638,91.146814 285.377478,90.8299749 C286.964928,89.7375294 288.509393,88.5821158 290.07385,87.4576866 C291.096496,86.7230595 292.427034,86.3382548 292.818899,84.8959868 C292.883876,84.6571081 293.286736,84.3812481 293.560642,84.3492643 C295.109105,84.1673567 296.655569,83.638625 298.622887,84.2063369 C297.658221,85.0938864 296.868495,85.7415576 296.179734,86.4841807 C295.740886,86.9559412 295.432992,87.5506394 295.076116,88.0983614 C297.408308,87.7675293 298.95877,86.034409 300.708164,84.7520599 C302.669484,83.3147894 304.146972,82.9429781 306.753068,84.1663572 C304.176961,86.1613446 301.710816,88.0723746 299.243671,89.9824051 C299.85446,90.3622123 300.333294,90.4451702 300.655182,90.2572656 C301.41092,89.8174888 302.07369,89.2207917 302.807436,88.7380367 C305.089645,87.2347997 307.70174,86.0673923 309.584087,84.1723541 C311.227517,82.5181938 313.139854,82.5281887 314.99921,81.9764687 C315.322098,81.8805174 315.758946,82.1683713 316.291762,82.3212937 C314.453399,83.6836022 312.790975,84.8080315 311.254508,86.0843836 C309.731036,87.3497414 307.764718,88.1753223 306.782058,90.0153883 L307.113943,90.4411722 C310.859645,87.9684273 314.606346,85.4966819 318.407029,82.9879553 C317.905203,82.5042009 317.572318,82.1843632 317.042502,81.6736224 C319.478657,81.3517858 321.550939,81.0789243 323.62322,80.8050633 C321.119088,83.7325774 317.236434,84.5501624 315.017204,87.6685795 C315.571012,87.7055608 316.09583,87.6505887 316.513685,87.4097109 C317.345397,86.9299544 318.122127,86.3522477 318.916852,85.8095231 C321.563934,83.9984424 324.729837,83.0119431 327.033038,80.6351495 C327.441897,80.2133636 328.178641,80.0074681 328.796427,79.9075189 C331.32555,79.4997259 333.882664,79.2518517 336.401791,78.796083 C341.842905,77.8115827 347.277021,76.7561185 352.523202,74.9660271 C354.170631,74.4043122 355.567147,73.4577926 355.607133,71.3918413 C355.625127,70.5092892 355.825058,69.6307352 355.856047,68.7471836 C355.932021,66.5702886 356.04898,64.3893956 355.978005,62.215499 Z" id="Fill-206" fill="#000000"></path>
        <path d="M167.000744,16.229 C167.667906,16.261 168.333953,16.268 169,16.263 C168.003719,16.192 167.001859,16.045 166,16 C166.334697,16.071 166.668278,16.146 167.000744,16.229" id="Fill-207" fill="#000000"></path>
        <path d="M247.991611,206 C246.161834,207.011886 244.353168,208.018884 242.550536,209.021972 C241.232492,210.338891 239.514311,211.104405 237.70263,211.711536 C235.845707,212.738088 233.988784,213.758773 232.126834,214.763816 C225.033931,218.593342 218.24264,223.041731 217,225 C227.847969,219.039158 238.356122,213.266029 249,207.417619 C248.63505,206.905321 248.341481,206.491767 247.991611,206" id="Fill-208" fill="#000000"></path>
        <path d="M251.165404,210.2728 C245.998025,213.858223 240.789227,217.38291 235.6269,220.977598 C234.03072,222.089357 232.539606,223.358615 231,224.555815 C231.096983,224.68655 231.192956,224.817284 231.289939,224.948019 C231.439454,224.960372 231.62938,225.039636 231.733434,224.974783 C237.89691,221.136127 244.071497,217.31394 250.194563,213.408372 C251.23511,212.744405 252.052395,211.717057 253,210.832797 C252.323139,209.97736 251.899848,209.763243 251.165404,210.2728" id="Fill-209" fill="#000000"></path>
        <path d="M195,82.5600084 C194.943542,82.3730226 194.887085,82.1860367 194.830627,82 C194.153136,82.0503058 193.448424,82.0075933 192.806219,82.1755959 C192.043033,82.3758701 191.313117,82.7204176 190.603364,83.0659144 C186.949751,84.8456022 183.303194,86.6395275 179.660671,88.440097 C178.43171,89.0475638 177.219888,89.6873023 176,90.3128032 C176.131062,90.5415524 176.261116,90.7712508 176.392179,91 C179.541706,89.7727273 182.446249,88.0632778 185.493951,86.6281375 C188.605168,85.1635731 191.827284,83.9078254 195,82.5600084" id="Fill-210" fill="#000000"></path>
        <path d="M279.233091,221.162369 C276.506009,222.611585 273.784718,224.072448 271.080797,225.565344 C270.667778,225.793453 270.357049,226.208901 270,226.536989 C270.08685,226.691326 270.173699,226.845663 270.260549,227 C273.416089,226.130276 276.250285,224.389859 279.303535,223.23961 C279.942363,222.998883 280.429687,222.351444 281,221.880667 C280.418107,220.99056 279.868059,220.824574 279.233091,221.162369" id="Fill-211" fill="#000000"></path>
        <path d="M184.54368,81.0378618 C180.01802,83.536934 175.510969,86.0671266 171,88.591661 C171.102834,88.7274597 171.204688,88.8642014 171.307522,89 C176.000653,86.3887054 181.139397,84.5507085 186,81.204781 C185.122486,81.0935015 184.748368,80.9237532 184.54368,81.0378618" id="Fill-212" fill="#000000"></path>
        <path d="M188.524755,89.6027 C191.00545,88.3173175 193.471692,87.0044999 195.933805,85.6855857 C196.442745,85.4132675 196.944459,85.1124982 197.401782,84.7639715 C198.347399,84.0415155 198.028408,83.4399768 197.430688,83 C193.844364,85.2699956 190.422182,87.4373639 187,89.6047322 C187.065037,89.7358107 187.131106,89.8679054 187.196143,90 C187.641078,89.8709537 188.123178,89.811003 188.524755,89.6027" id="Fill-213" fill="#000000"></path>
        <path d="M239,223.310668 C239.170116,223.54078 239.340232,223.769888 239.510349,224 C241.881693,222.811254 244.156763,221.465751 246,219.110367 C245.559754,218.675264 245.20924,218.330598 244.875551,218 C242.829483,219.848937 240.914274,221.580305 239,223.310668" id="Fill-214" fill="#000000"></path>
        <path d="M288.811113,225.062279 C286.799301,226.43177 284.708315,227.708743 283,229.575253 C283.271016,229.807626 283.405002,230.015255 283.510566,229.999118 C286.032944,229.623664 287.922952,227.957252 289.854576,226.405951 C290.038298,226.258567 290.051494,225.517342 289.873861,225.308637 C289.668823,225.066582 289.041527,224.905213 288.811113,225.062279" id="Fill-215" fill="#000000"></path>
        <path d="M330.073624,80.5724495 C328.269712,81.9095303 326.497874,83.2925825 324.730895,84.6795471 C324.445146,84.9045131 324.242012,85.2360935 324,85.5177902 C324.12538,85.6782007 324.250759,85.8395894 324.376139,86 C326.911918,84.2168995 329.447698,82.4328209 332,80.6370049 C331.132062,79.4603347 330.569311,80.2046789 330.073624,80.5724495" id="Fill-216" fill="#000000"></path>
        <path d="M332,85 C334.249931,83.3932802 336.45752,81.8156364 339,80 C336.448859,80.3370666 332.507149,83.2769761 332,85" id="Fill-217" fill="#000000"></path>
        <path d="M291,90 C292.897016,89.444668 294.231054,89.0470825 295,88 C293.419857,88.0748491 292.132295,88.522334 291,90" id="Fill-218" fill="#000000"></path>
        <path d="M295.038,88 C295.026,88.023 295.012,88.043 295,88.066 C295.027,88.064 295.054,88.061 295.082,88.06 C295.083,88.061 295.038,88 295.038,88" id="Fill-219" fill="#000000"></path>
        <path d="M107.001,87 C107.002,87.025 107,87.046 107,87.069 C107.019,87.07 107.037,87.071 107.056,87.072 C107.055,87.07 107.001,87 107.001,87" id="Fill-220" fill="#000000"></path>
        <path d="M105,89 C106.099663,88.5684191 107.004661,88.4166914 106.999982,87.0084338 C105.977062,86.9387515 105.218997,87.2748002 105,89" id="Fill-221" fill="#000000"></path>
        <path d="M101,86.9658686 C101.873191,87.1123876 102.534468,86.7865756 103,86 C102.466383,86.6265615 101.118298,85.3136742 101,86.9658686" id="Fill-222" fill="#000000"></path>
        <path d="M132,88 C133,87.3342817 134,86.6685634 135,86.0028451 C133.725275,85.970028 132.554945,86.1962316 132,88" id="Fill-223" fill="#000000"></path>
        <path d="M135.093,86 C135.062,86.016 135.031,86.032 135,86.048 C135.048,86.049 135.096,86.05 135.144,86.051 C135.148,86.055 135.093,86 135.093,86" id="Fill-224" fill="#000000"></path>
        <path d="M129,88 C130.047501,87.832149 131.02056,87.6772097 131.992556,87.5212771 C131.992556,87.5212771 131.997873,87.5222703 131.99681,87.5222703 L131.997873,87.5222703 C131.997873,87.5202839 131.998937,87.5192907 132,87.5182975 C131.997873,87.5192907 131.995746,87.5202839 131.993619,87.5212771 C129.814605,86.7604851 129.813541,86.7614783 129,88" id="Fill-225" fill="#000000"></path>
        <path d="M342,82 C341.265033,82.3550707 340.631403,82.6625873 340,82.9685188 C341.187082,83.0541162 341.206013,83.0335095 342,82" id="Fill-226" fill="#000000"></path>
        <path d="M340.03,83.031 C340.041,83.023 340.053,83.015 340.065,83.007 C340.043,83.005 340.023,83.003 340,83 L340.03,83.031" id="Fill-227" fill="#000000"></path>
        <path d="M338.946015,83 C338.634772,83.6763231 338.317386,84.3381616 338,85 C338.750123,84.7426184 339.152828,84.1476323 338.946015,83" id="Fill-228" fill="#000000"></path>
        <path d="M340.038,83.045 C340.03,83.031 340,83 340,83 C340.008,83.024 340.013,83.046 340.019,83.069 C340.026,83.061 340.032,83.053 340.038,83.045" id="Fill-229" fill="#000000"></path>
        <path d="M103.103343,86.356 L103.099001,86.356 L103.09987,86.356 L103.099001,86.356 C103.067738,86.417 103.033,86.469 103,86.526 C103.038211,86.48 103.072948,86.425 103.102475,86.357 C103.772036,86.619 104.469388,87.198 105,86 C104.367781,86.119 103.735562,86.237 103.103343,86.356" id="Fill-230" fill="#000000"></path>
        <path d="M131.056593,57.4460949 C125.663301,56.8588947 120.248996,57.2454986 114.845698,57.110552 C111.781828,57.0348724 108.714956,57.0111656 105.649085,57.0029594 C102.178966,56.9929296 98.7088483,57.041255 95.2387301,57.0385196 C89.6773355,57.0339606 84.1159409,56.9847233 78.5545463,57.004783 C76.8675165,57.0102538 75.1814874,57.2008203 73.4924564,57.2728526 C70.2804959,57.408711 67.0675347,57.5783061 63.853573,57.6193372 C61.8473484,57.6448676 59.9662001,58.0378541 58,58.5083437 C58.2691643,60.0383466 59.454888,60.0036982 60.4384884,59.9991392 C61.640222,59.9936683 62.8529622,59.6025055 64.038686,59.673626 C67.9890972,59.9116062 71.9054878,59.7538646 75.8388887,59.3818495 C77.4048445,59.2332259 78.9677985,59.3408185 80.57578,59.0773078 C82.4119008,58.7773251 84.383104,59.2423439 86.2972724,59.2532855 C92.419009,59.2897576 98.5427469,59.2505501 104.665484,59.2769924 C109.078178,59.297052 113.490871,59.3964384 117.903565,59.4219688 C121.433719,59.4420284 124.964875,59.4009974 128.495029,59.3964384 C129.140423,59.3955266 129.78982,59.4894421 130.430211,59.4511464 C131.834068,59.3672607 133.232921,59.2268433 135,59.0791314 C133.772251,57.5409223 132.384403,57.5910714 131.056593,57.4460949" id="Fill-231" fill="#000000"></path>
        <path d="M227.270793,56.210995 C223.467154,56.0470061 219.658491,55.991292 215.855857,55.80733 C211.339914,55.5886781 206.82799,55.2806733 202.119153,55 C201.767522,56.6377867 202.178428,57.4293486 203.561843,57.5407769 C204.128471,57.585979 204.694094,57.6427444 205.261727,57.6700759 C210.022806,57.9076496 214.785895,58.1315575 219.546974,58.3743872 C223.269236,58.5646564 226.991498,58.7696426 230.712755,58.9819872 C231.868113,59.0482135 232.966206,58.9977553 234,57.6543077 C233.290711,57.2716669 232.720064,56.763932 232.091148,56.664067 C230.498763,56.4107251 228.882267,56.2814262 227.270793,56.210995" id="Fill-232" fill="#000000"></path>
        <path d="M17.3702287,59.0000321 C17.0932467,58.996688 16.8084349,59.2548553 16,59.6474568 C17.3418454,59.8139948 18.1277694,59.9885587 18.9166296,59.9945781 C21.2665718,60.0133053 23.6174927,59.9818704 25.9664561,59.9256889 C26.3168431,59.917663 26.6554854,59.6735411 27,59.538438 C26.966723,59.426075 26.933446,59.313712 26.9001691,59.2013491 C23.723196,59.1277781 20.5472017,59.0441747 17.3702287,59.0000321" id="Fill-233" fill="#000000"></path>
        <path d="M214.625505,11.7346223 C214.717279,11.8629865 214.810051,11.9913507 214.901826,12.119715 C212.875806,13.8302428 214.113763,16.3348375 212.834907,18.3946354 C215.226029,17.608529 216.882956,15.3039435 218.021158,11.4012734 C218.826179,11.507746 219.658134,11.6172039 220.811299,11.7694498 C220.133964,13.2162837 219.581322,14.5148519 218.928926,15.7616764 C218.224657,17.1099982 217.286962,18.3528424 216.71437,19.7489276 C216.211606,20.9748556 214.57064,21.7679276 215.211066,23.7720014 C215.680911,23.3172538 216.017084,23.0595303 216.271459,22.7361321 C218.795255,19.5389675 221.171414,16.243291 222.845299,12.5028175 C223.217384,11.6729279 223.492707,10.7534819 225.034916,11.5823764 C224.676796,12.3764434 224.384515,13.2371802 223.925643,13.9984098 C222.071202,17.0761658 220.149925,20.1131238 218.299473,23.1918748 C218.085998,23.5461202 218.159817,24.072513 218.023153,25.1083823 C220.520015,22.7341419 221.87668,20.2504436 223.429862,17.9309321 C224.965088,15.6392826 226.382603,13.2680274 228.150258,10.4599358 C228.472466,12.830196 227.188622,14.0660747 226.524255,15.4601698 C225.769111,17.0423333 224.739642,18.4951376 223.818905,19.9976955 C222.946051,21.4236328 222.069207,22.8475801 221.175404,24.2605815 C220.292574,25.6586568 219.384805,27.0408111 218.444118,28.4975956 C219.291036,29.1772294 219.896547,29.1593181 220.46914,28.2707194 C223.839854,23.0356486 227.747248,18.1349218 230.372794,12.4321674 C230.679041,11.7684547 230.732909,10.79627 232.138454,10.7236297 C231.208739,14.334744 229.006154,17.1607468 227.354215,20.2295471 C225.711253,23.2794411 223.8618,26.2198771 221.859721,29.6220264 C223.368014,29.3444014 223.862797,28.76726 224.348603,27.9970747 C226.99809,23.7988683 229.734364,19.656386 232.378863,15.4561895 C233.225781,14.1108529 233.818324,12.6073 234.650279,11.2510176 C235.212896,10.3335617 235.87427,9.23400781 237.349643,10.2857983 C234.814874,14.9526833 232.309034,19.5936965 230.022655,24.3561083 C234.445782,20.4484628 236.961597,15.3895197 239.374665,9.76836117 C242.666573,9.23599796 246.106118,8.6110931 249.598532,11.3873424 C253.496949,14.4849998 256.90158,18.0065575 260.35908,21.5211498 C261.675843,22.8595209 263.071413,24.1202764 264.867996,25.8337894 C262.155664,26.3452561 260.051835,26.6786051 257.978931,27.1472837 C253.360285,28.1911136 248.77356,29.3722634 244.143941,30.3613644 C240.935828,31.0459736 237.675841,31.4887804 234.443787,32.0679119 C232.719027,32.3763841 231.016212,32.8241662 229.283472,33.0669636 C226.577125,33.4460859 223.854817,33.7028143 221.139492,34.0132766 C219.52546,34.1973648 218.376285,33.5406176 217.542335,32.1644339 C216.129807,29.8359667 214.72127,27.5015291 213.206992,25.2387367 C211.290703,22.3759162 209.262688,19.587726 207.299514,16.7557528 C206.446611,15.5258445 205.634607,14.2680742 204.599152,12.7167578 C208.292074,12.3545518 211.458291,12.0450846 214.625505,11.7346223 Z M208.367888,23.1072937 C210.738061,26.81692 213.080304,30.5484379 215.285882,34.3565762 C216.271459,36.0581484 217.462531,36.8870429 219.471592,36.9765993 C222.061226,37.0930227 224.548113,36.7646491 227.060936,36.2223352 C229.549817,35.6849966 232.087579,35.3755294 234.598407,34.9376979 C237.274827,34.4710094 239.963218,34.0530794 242.612705,33.4630021 C245.344989,32.8550134 248.011434,31.9504935 250.7507,31.3803176 C256.150426,30.257877 261.580079,29.2767366 266.953869,28.2458426 C268.096061,26.8995109 268.481114,25.5372581 267.195275,24.1312222 C264.986704,21.7151888 262.797087,19.2782588 260.5137,16.9338705 C257.672684,14.015326 254.909477,11.0579737 251.520807,8.65885653 C249.306251,7.08962888 247.153543,5.96121788 244.513034,6.00102073 C242.268551,6.03584823 240.021076,6.31247809 237.790559,6.60303895 C232.21327,7.33043617 226.649946,8.14042431 221.005821,8.20908424 C219.17133,8.23097581 217.339833,8.53347753 215.509332,8.72552631 C213.670852,8.91857017 211.826386,9.35839174 209.999876,9.29172196 C206.910471,9.17728874 204.138285,10.240025 201.299264,11.1246435 C201.240409,11.1425548 201.210483,11.2510176 201,11.5724257 C201.443909,12.3963448 201.8948,13.3973867 202.490336,14.3048918 C204.425579,17.2542835 206.468557,20.1350153 208.367888,23.1072937 Z" id="Fill-234" fill="#000000"></path>
        <path d="M232.320652,183.364253 C231.49431,181.000064 231.477115,178.792337 231.613659,176.43526 C232.906273,176.203616 233.598094,176.52873 233.868148,177.62091 C234.389037,179.729072 234.112915,181.608637 232.320652,183.364253 Z M225.825216,185.364721 C225.350853,185.338305 224.88357,185.179812 224.336384,185.066022 C224.104765,183.517666 223.840781,182.011982 223.662768,180.496138 C223.484756,178.980293 223.391704,177.455305 223.260217,175.915077 C223.633437,175.714929 223.701203,175.64889 223.773015,175.644826 C228.152528,175.396927 228.156574,175.396927 228.739161,179.791046 C228.845361,180.595704 228.946505,181.404425 228.981905,182.214162 C229.104289,184.96544 228.546988,185.521182 225.825216,185.364721 Z M223.151994,166.143368 C223.116593,165.252352 222.995221,164.364384 222.903181,163.393106 C223.982382,162.261302 225.253755,162.611816 226.471523,163.091359 C226.859914,163.243757 227.338323,163.732444 227.381815,164.113437 C227.70244,166.923641 228.389204,169.72267 227.944173,172.518651 C227.668051,172.651745 227.528473,172.771631 227.380803,172.782806 C223.671871,173.075409 223.271343,172.730991 223.150982,169.088698 C223.118616,168.108276 223.190428,167.12379 223.151994,166.143368 Z M220.333124,165.559178 C220.396845,167.230468 220.460565,168.902773 220.528331,170.662453 C218.571204,169.901483 218.408363,168.129611 220.333124,165.559178 Z M232.590705,173.15872 C231.538813,173.087601 230.774168,172.499348 230.723596,171.268994 C230.642681,169.261415 230.517263,167.254851 230.393868,164.931302 C232.127468,165.407797 232.681734,166.500993 233.171269,167.628733 C233.398842,168.150947 233.405922,168.808287 233.730592,169.237031 C234.029977,169.630216 234.656055,170.052864 235.073778,169.993937 C235.462169,169.94009 236.081167,169.237031 236.044756,168.875342 C235.943612,167.85936 235.825274,166.647294 235.22347,165.9229 C234.148315,164.627523 232.817267,163.466256 231.392155,162.572193 C230.420166,161.961588 229.988283,161.38959 229.967043,160.277091 C229.95794,159.820915 229.496725,159.000002 229.239821,159.000002 C228.71084,158.998986 228.13938,159.379979 227.664005,159.716269 C227.3717,159.923529 227.225042,160.339066 227.023767,160.644876 C226.323854,160.608301 225.726096,160.682467 225.191047,160.532102 C222.223496,159.698997 220.177363,160.852136 218.130219,163.057832 C214.924981,166.513185 215.335624,171.46711 219.370238,173.90445 C219.901241,174.226516 220.616326,174.676596 220.722527,175.178491 C220.939985,176.198536 220.784224,177.29478 220.810521,178.359529 C220.834796,179.338935 220.897505,180.318341 220.943019,181.297747 C220.757927,181.33229 220.572834,181.366834 220.387742,181.401377 C219.885058,180.148672 219.339895,178.910191 218.891829,177.637166 C218.557044,176.686207 218.030087,176.324518 217.015617,176.702463 C216.950885,177.192166 216.724324,177.71438 216.855811,178.119757 C217.46166,179.981035 218.002778,181.89616 218.888795,183.624345 C219.615005,185.039607 220.741744,186.26488 221.806785,187.471866 C222.119318,187.825428 223.003313,188.131238 223.321915,187.942266 C225.133395,186.866341 227.168402,187.228031 229.053717,187.070554 C232.696906,186.765759 234.801702,184.646422 236.314809,181.725475 C237.245329,179.92922 237.149243,177.856618 236.497879,175.988228 C235.898098,174.267155 234.52558,173.290797 232.590705,173.15872 Z" id="Fill-235" fill="#000000"></path>
        <path d="M153.257948,22.200595 C153.283628,21.9054831 153.409061,21.6803462 153.580915,21.5170712 C153.559186,20.869042 154.191291,20.2250693 154.845125,20.4704888 C156.375018,21.0444865 157.923676,21.5525657 159.477273,22.0484754 C158.291088,23.3729295 157.187866,24.7562031 156.090571,26.0674735 C155.000189,27.3696167 153.759682,28.7244946 152.766091,30.3045095 C152.849055,29.3339869 152.857944,28.3198567 153.043625,27.356433 C153.005106,25.6283551 153.111774,23.8343587 153.257948,22.200595 Z M165.524744,23.9388141 C163.943493,25.7926442 162.214092,27.8117774 161.420009,30.4677845 C161.571122,30.6888649 161.722235,30.9089311 161.874335,31.1289974 C163.65707,29.0267054 165.535608,27.0400243 167.260071,24.864715 C167.400319,24.9711987 167.537605,25.082753 167.664026,25.2044487 C168.475886,25.9843148 169.026015,26.9812048 169.545527,27.995335 C168.697123,28.992225 167.8823,30.0012846 167.069452,30.9718072 C165.816105,32.4686634 164.365226,34.0375228 163.318301,35.9380028 C162.506441,35.7503887 161.691617,35.5739301 160.874818,35.4136975 C159.316284,35.1074302 157.774539,34.8914205 156.204152,34.6936651 C155.56217,34.6125346 154.977473,34.5101075 154.43722,34.2636739 C154.322651,34.2464336 154.208082,34.2312217 154.093513,34.2129673 C153.452518,34.1115543 153.109799,33.4817795 153.001155,32.8895274 C152.975476,32.8296937 152.954735,32.7658035 152.933007,32.7029275 C154.84315,30.5245758 156.803665,28.4060577 158.516275,25.9853289 C159.367642,24.7835846 160.332591,23.7420729 161.328157,22.6366709 C161.658037,22.7411264 161.988904,22.8445676 162.318784,22.9510513 C163.299535,23.2644176 164.457078,23.5270773 165.524744,23.9388141 Z M174.564839,36.6123994 C174.911509,37.1184504 174.819657,37.7685079 174.499653,38.2634034 C173.722361,38.1650328 172.926303,38.1488067 172.154937,38.0291393 C171.072457,37.8618079 170.001828,37.6812927 168.927249,37.4835373 C168.370206,37.302008 167.812175,37.1265635 167.250194,36.9622744 C167.054637,36.9348928 166.856116,36.9085255 166.648706,36.8801298 C166.658583,36.85072 166.671423,36.8253668 166.682287,36.7969711 C166.130182,36.6407951 165.576103,36.4927321 165.021035,36.3507538 C166.569693,34.6003651 168.113413,32.8428774 169.496144,30.8896626 C169.794418,30.4687986 170.109484,30.0702454 170.43245,29.6787912 C170.470969,29.7467379 170.507512,29.8156987 170.547019,29.8816172 C171.509004,31.4950984 172.481854,33.0781556 173.275937,34.7747955 C173.709521,35.3822595 174.141131,35.9917517 174.564839,36.6123994 Z M176.589552,41.3544723 C177.786601,42.7418024 178.847353,44.2518423 180.032551,45.8095463 C177.158447,46.282131 166.250678,43.7610033 152.442137,39.5036847 C152.507323,38.3110675 152.568558,37.1965384 152.645596,35.7919681 C155.174018,36.3974038 157.539475,36.9409776 159.892092,37.5332297 C163.664971,38.4824555 167.41711,39.5188966 171.203816,40.4011899 C172.406792,40.682104 173.698657,40.5309986 174.935213,40.6892029 C175.513985,40.7642485 176.235968,40.9447637 176.589552,41.3544723 Z M166.295122,44.9607194 C169.216635,45.6381583 172.072961,46.5965114 175.006325,47.2191873 C176.525353,47.5416808 178.074012,47.6826449 179.591065,48.011223 C180.901696,48.2961936 182.152079,48.8965587 183.498266,48.9797174 C183.541724,48.9827598 183.580242,48.9929011 183.620737,49 C183.793578,48.1440741 183.939752,47.2800352 184,46.4251234 C183.979259,46.3957136 183.959506,46.3652897 183.937777,46.3379082 C181.611827,43.329998 179.242419,40.3575823 176.929308,37.3395308 C173.963351,33.4685958 172.011726,29.023663 170.286276,24.4803597 C169.993927,23.7126631 169.737134,23.150835 168.985521,22.9368535 C167.575136,22.5342438 166.161788,22.138733 164.749427,21.7442364 C163.979049,21.6073288 163.211633,21.4501386 162.442242,21.2675952 C158.926156,20.432966 155.161178,20.1256845 151.711265,19 C151.626326,19.2920695 151.562128,19.6804814 151.499905,20.1865324 C150.697921,26.7601244 149.885073,33.3327023 149.063336,39.9042661 C149.013953,40.3058617 148.991237,40.6384964 149.003089,40.9204246 C154.718704,42.5339058 160.519259,43.6200392 166.295122,44.9607194 Z" id="Fill-236" fill="#000000"></path>
        <path d="M318.387153,57.1815075 C316.393595,57.1815075 316.393595,54.0310263 318.387153,54.0310263 C318.438142,54.0310263 318.482132,54.0422308 318.531121,54.0463051 C318.534121,54.0422308 318.53712,54.039175 318.541119,54.0351007 C318.542119,54.039175 318.543119,54.0432494 318.544118,54.0473237 C320.373713,54.2143715 320.324724,57.1815075 318.387153,57.1815075 Z M318.397151,52.0020065 C317.22941,51.9235755 315.209857,54.1614051 315.020899,55.7432665 C314.827941,57.3607783 315.993683,58.8336512 317.586331,58.9854202 C319.298951,59.1483937 320.798619,57.9271112 320.980579,56.2220011 C321.180534,54.3478061 319.80284,52.0977534 318.397151,52.0020065 Z" id="Fill-237" fill="#000000"></path>
        <path d="M44.0368555,77.5793278 C43.1664897,77.6326802 42.2862109,77.5414961 41.5238974,77.5201552 C39.5036179,77.2989853 37.8183995,76.5879437 36.822138,74.953421 C36.2868333,74.077472 36.1074071,72.9687127 35.9012157,71.9385268 C35.8179461,71.5214083 36.113355,71.0392968 36.2005898,70.5794964 C37.2018078,65.2811207 42.1315674,65.1113631 45.4226998,66.705144 C45.7756044,66.8768417 46.0868742,67.2590387 46.4377961,67.2861999 C49.1698326,67.4976693 49.6020415,69.6550453 49.5951024,71.4961872 C49.584198,74.5925649 47.9148405,77.3455474 44.0368555,77.5793278 Z M48.9814846,65.8864276 C47.315101,65.0133888 45.4554129,64.4905355 44.555308,64.1481103 C38.9950785,63.5214624 35.0367978,64.8339308 33.7203448,69.0313075 C32.2532134,73.7078856 32.9550574,75.4617236 36.4920335,78.2544778 C37.9095995,79.3739076 39.5977919,79.9084014 41.3642973,79.988915 C42.7709591,80.0529378 44.1994295,79.8259477 45.6090652,79.6591003 C50.8233292,79.0411828 52.7286174,74.2093979 51.7551559,69.8335332 C51.3824252,68.1563286 50.5011551,66.682833 48.9814846,65.8864276 Z" id="Fill-238" fill="#000000"></path>
        <path d="M242.053562,26.6882343 C242.28055,26.7924872 242.507538,26.8957471 242.735539,27 C243.828932,25.0966407 245.143232,23.2786695 245.954917,21.2670859 C246.755454,19.2842959 248.513597,17.7363892 249,15 C246.107931,16.871587 244.990218,19.4163495 243.704291,21.703955 C242.874367,23.1793811 241.739427,24.7928181 242.053562,26.6882343" id="Fill-239" fill="#000000"></path>
        <path d="M177.62,36.3268859 C177.455,35.8845906 177.292,35.4410058 177.126,35 C177.084,35.073501 177.042,35.1495809 177,35.2256609 C177.212,35.8149581 177.427,36.4042553 177.628,37 C177.633,36.7756286 177.631,36.5525467 177.62,36.3268859" id="Fill-240" fill="#000000"></path>
        <path d="M242.889336,14.5414013 C243.066398,14.1453891 242.969819,13.6244808 243,13.1614511 C242.814889,13.1066187 242.630785,13.0528016 242.44668,13 C240.34004,16.6808825 237.370221,19.8093788 236,24 C236.529175,23.4526909 237.072435,22.9185821 237.583501,22.3550263 C239.717304,20.0033232 241.579477,17.4576756 242.889336,14.5414013" id="Fill-241" fill="#000000"></path>
        <path d="M180.700203,51.1277831 C179.469403,50.7909686 178.21536,50.5605165 177.031045,50.0586185 C176.221781,49.7162643 175.556198,50.9704553 176.371801,51.3161334 C176.614792,51.419172 177.941732,51.8512697 179.204226,52.2468052 C178.924259,52.9381613 178.76473,53.9707639 179.375376,54.4914969 C179.565543,54.6532565 179.777895,54.7706984 179.99553,54.8438226 C180.014547,54.8526862 180.031451,54.8637656 180.051524,54.8715212 C180.903048,55.2183072 181.795774,54.817232 182.44234,54.2156192 C183.10898,53.5940634 183.209345,52.5935912 182.572287,51.9199621 C182.107436,51.4269276 181.302397,51.2928666 180.700203,51.1277831" id="Fill-242" fill="#000000"></path>
        <path d="M136.189348,46.0004846 C135.285947,45.9847906 134.376366,46.3551697 133.467815,46.4043443 C132.177095,46.4723518 130.892556,46.6146444 129.612138,46.7956489 C128.770543,46.9149235 128.806597,48.2698416 129.659522,48.1484744 C130.885345,47.9758401 132.156493,47.960146 133.395707,47.8293624 C133.42352,48.1913714 133.630571,48.5000207 133.927241,48.7322924 C134.214639,49.4050432 134.733812,49.8894657 135.645453,49.9899075 C136.816681,50.1196448 137.626342,48.9739805 137.925072,47.9685162 C138.291789,46.7381041 137.248294,46.0182712 136.189348,46.0004846" id="Fill-243" fill="#000000"></path>
    </g>
</svg>