<?xml version="1.0" encoding="UTF-8"?>
<svg width="144px" height="158px" viewBox="0 0 144 158" version="1.1" xmlns="http://www.w3.org/2000/svg" xmlns:xlink="http://www.w3.org/1999/xlink">
    <!-- Generator: Sketch 50.2 (55047) - http://www.bohemiancoding.com/sketch -->
    <title>Artboard</title>
    <desc>Created with Sketch.</desc>
    <defs></defs>
    <g id="Artboard" stroke="none" stroke-width="1" fill="none" fill-rule="evenodd">
        <g id="Helmet" transform="translate(21.000000, 22.000000)" fill="#333333">
            <path d="M5.11,72.874 C5.87,72.597 6.64,72.585 7.42,72.56 C8.36,72.529 8.73,73.277 9.35,73.68 L9.25,73.888 C7.87,73.55 6.49,73.212 5.11,72.874 Z M9.43,70.221 C9.17,70.025 8.89,70.035 8.71,70.338 C8.44,70.779 8.04,70.812 7.58,70.851 C6.16,70.972 4.7,70.952 3.34,71.455 C3.25,71.307 3.16,71.155 3.08,71 C4.56,70.488 6.04,69.979 7.48,69.385 C8.79,68.844 9.95,67.991 10.68,66.755 C11.13,65.992 11.41,65.107 11.64,64.241 C11.92,63.162 12.17,62.046 12,60.92 C11.78,59.541 11.37,58.212 10.12,57.4 C9.1,56.741 8.06,56.107 6.8,55.981 C6.09,55.91 5.39,55.734 4.69,55.585 C4.52,55.548 4.36,55.427 4.21,55.349 C4.46,54.494 5.5,53.88 6.4,53.973 C7.97,54.134 9.53,54.318 11.11,54.401 C13.36,54.521 15.57,54.849 17.76,55.398 C20.24,56.021 22.74,56.56 25.22,57.209 C26.51,57.549 27.75,58.095 29.04,58.457 C30.29,58.811 31.57,59.171 32.86,59.308 C34.95,59.529 36.97,60.045 39.03,60.409 C39.3,60.459 39.58,60.515 39.85,60.601 C40.87,60.931 41.15,62.053 40.38,62.818 C39.85,63.342 39.28,63.788 38.86,64.442 C38.39,65.161 38.16,65.885 38.11,66.709 C38.06,67.451 38.05,68.211 37.87,68.926 C37.55,70.244 36.94,71.423 35.84,72.3 C35.47,72.598 35.08,72.698 34.62,72.618 C32.1,72.173 29.58,71.722 27.06,71.282 C24.97,70.917 22.9,70.464 20.76,70.445 C19.04,70.431 17.33,70.139 15.62,70.118 C14.07,70.099 12.51,70.264 10.96,70.383 C10.43,70.423 9.92,70.589 9.43,70.221 Z M9.56,72.504 C10.38,72.202 10.53,72.306 12.28,74.233 C10.82,74.373 10.22,73.436 9.56,72.504 Z M12.06,72.398 C12.9,72.788 13.42,73.449 13.96,74.187 C13.11,74.127 12.46,73.496 12.06,72.398 Z M15.29,74.275 C14.63,73.636 14.06,72.909 13.45,72.219 L13.54,72.031 C13.73,72.031 13.98,71.952 14.1,72.044 C14.95,72.71 15.79,73.407 16.62,74.105 C16.7,74.172 16.72,74.308 16.79,74.462 C16.2,74.747 15.67,74.648 15.29,74.275 Z M17.69,74.077 C17.17,73.587 16.65,73.093 16.14,72.585 C16.02,72.462 15.96,72.282 15.84,72.083 C16.34,71.954 16.69,72.075 17,72.38 C17.44,72.817 17.88,73.264 18.33,73.69 C18.82,74.149 19.28,74.688 20.24,74.564 C19.53,73.728 18.89,72.982 18.19,72.161 C19.06,72.216 20.06,73.195 21.03,74.806 C19.95,75.124 18.46,74.803 17.69,74.077 Z M20.31,72.317 C21.29,72.309 22,72.671 22.41,73.308 C22.92,74.08 23.76,74.237 24.42,74.731 C24.43,73.65 23.3,73.373 22.9,72.577 C23.22,72.335 23.49,72.44 23.69,72.629 C24.56,73.462 25.41,74.318 26.4,75.298 C25.19,75.298 24.17,75.304 23.16,75.292 C23.01,75.29 22.83,75.24 22.72,75.147 C21.8,74.365 21.01,73.469 20.31,72.317 Z M25.35,72.484 C26.32,73.411 27.25,74.151 27.82,75.236 C26.59,74.555 25.54,73.406 25.35,72.484 Z M28.86,74.935 C28.49,74.452 28.13,73.967 27.66,73.332 C29.31,73.337 29.83,74.584 30.86,75.364 C29.92,75.714 29.33,75.554 28.86,74.935 Z M30.85,73.872 C32.22,73.926 32.76,75.039 33.67,75.67 C32.07,76.175 31.38,75.258 30.85,73.872 Z M33.81,82.686 C34.69,83.349 35.54,83.993 36.38,84.623 C36.27,85.252 36.22,85.777 35.66,86.148 C34.73,85.478 33.97,84.629 33.31,83.699 C33.04,83.314 33.36,83.015 33.81,82.686 Z M34.99,86.697 C35.42,87.138 35.41,87.222 34.96,87.939 C34.14,87.673 33.63,86.98 32.99,86.468 L32.87,86.32 C32.1,85.452 32.1,85.452 32.74,84.408 C33.53,85.205 34.27,85.943 34.99,86.697 Z M36.64,73.763 L36.79,73.626 C37.34,74.044 37.97,74.408 38.45,74.911 C38.76,75.238 38.85,75.769 39.04,76.209 C38.95,76.259 38.86,76.31 38.77,76.36 C38.05,75.496 37.34,74.632 36.64,73.763 Z M34.1,74.647 L34.27,74.491 C35.28,74.059 35.98,74.522 36.62,75.253 C37.31,76.047 38.04,76.818 38.77,77.579 C39.18,78.008 39.27,78.499 39.14,79.043 C39,79.642 38.89,80.258 38.36,80.843 C37.93,80.383 37.53,79.967 37.1,79.518 C37.3,79.362 37.42,79.26 37.59,79.124 C36.42,77.614 35.26,76.128 34.1,74.647 Z M36.79,83.969 C35.92,83.175 35.12,82.445 34.32,81.705 C34.01,81.417 34.15,81.153 34.45,80.856 C35.27,81.614 36.1,82.362 36.91,83.13 C37.15,83.353 37.12,83.38 36.79,83.969 Z M35.41,78.75 C35.38,78.934 35.59,79.184 35.74,79.355 C36.18,79.837 36.63,80.315 37.12,80.751 C37.43,81.035 37.82,81.243 38.28,81.556 C38.14,81.864 37.97,82.236 37.72,82.794 C37.14,82.237 36.72,81.829 36.3,81.424 C35.78,80.934 35.25,80.458 34.75,79.951 C34.62,79.814 34.5,79.589 34.5,79.4 C34.47,78.569 34.49,77.737 34.49,76.905 L34.67,76.839 C34.89,77.043 35.11,77.236 35.31,77.455 C35.51,77.685 35.69,77.942 35.88,78.185 C35.71,78.378 35.44,78.547 35.41,78.75 Z M50.28,68.827 C50.88,69.3 50.64,69.781 50.36,70.249 C49.86,71.066 49.21,71.73 48.25,71.973 C47.62,72.132 46.98,72.274 46.33,72.357 C45.04,72.524 44.14,71.767 43.34,70.914 C42.62,70.141 42.06,69.296 41.92,68.151 C41.74,66.64 42.4,65.532 43.38,64.587 C43.86,64.126 44.52,63.692 45.31,64.184 C45.49,64.296 45.79,64.227 46.04,64.225 C47.2,64.213 48.36,64.289 49.38,64.917 C50.36,65.531 50.95,66.483 51.2,67.613 C51.29,67.982 51.18,68.36 50.73,68.523 C50.6,68.573 50.49,68.688 50.28,68.827 Z M35.95,89.373 C36.42,88.337 36.73,87.231 37.18,86.184 C37.47,85.501 37.89,84.868 38.25,84.213 C38.63,83.507 39.07,82.824 39.4,82.089 C39.78,81.21 40.08,80.291 40.39,79.381 C40.7,78.465 40.57,77.541 40.43,76.606 C40.15,74.802 39.52,73.115 38.85,71.437 C38.71,71.102 38.73,70.818 38.82,70.457 C39.06,69.462 39.29,68.447 39.35,67.43 C39.43,66.209 39.72,65.145 40.75,64.413 C42.11,63.454 42.05,62.113 41.77,60.719 C41.69,60.287 41.46,59.901 41,59.729 C40.5,59.547 40.03,59.29 39.52,59.171 C38.43,58.916 37.33,58.712 36.23,58.518 C35.03,58.305 33.81,58.209 32.63,57.913 C30.97,57.495 29.35,56.937 27.71,56.447 C26.81,56.179 25.92,55.889 25,55.679 C23.15,55.251 21.29,54.873 19.43,54.468 C18.96,54.365 18.49,54.236 17.85,54.077 C18.82,52.542 19.67,51.132 20.59,49.774 C21.31,48.72 21.95,47.611 22.93,46.751 C23.73,46.051 24.47,45.298 25.26,44.591 C25.54,44.345 25.88,44.176 26.18,43.962 C27,43.387 27.82,42.82 28.62,42.228 C30.24,41.03 32.01,40.123 33.95,39.588 C35.3,39.218 36.64,38.771 38.01,38.582 C39.52,38.377 41.06,38.387 42.58,38.382 C44.17,38.376 45.75,38.486 47.34,38.496 C47.77,38.498 48.21,38.364 48.62,38.216 C49.1,38.039 49.11,37.626 48.69,37.303 C48.14,36.87 47.56,36.68 46.83,36.69 C45.81,36.705 44.78,36.55 43.71,36.464 C43.67,36.271 43.6,36.095 43.61,35.922 C43.69,33.871 43.33,31.892 42.65,29.964 C42.56,29.7 42.48,29.429 42.39,29.164 C42.14,28.454 41.68,28.135 40.92,28.135 C40.52,28.136 40.11,28.122 39.71,28.175 C39.26,28.234 38.98,28.073 38.81,27.683 C38.74,27.541 38.68,27.396 38.64,27.248 C38.33,26.275 38.5,25.929 39.48,25.669 C39.79,25.586 39.98,25.48 40.21,25.225 C40.52,24.889 41.04,24.666 41.5,24.558 C44.59,23.837 47.73,23.648 50.89,23.643 C51.61,23.642 52.32,23.584 53.04,23.55 C56.25,23.399 59.4,23.929 62.53,24.505 C64.8,24.922 67.01,25.595 69.17,26.442 C70.85,27.099 72.35,28.012 73.83,28.998 C75.16,29.88 76.5,30.737 77.82,31.611 C78.71,32.192 79.37,32.971 79.79,33.939 C79.93,34.259 80.1,34.499 80.41,34.707 C80.82,34.972 81.16,35.363 81.46,35.757 C82.58,37.261 83.46,38.862 84.1,40.666 C84.75,42.546 85.11,44.455 85.4,46.395 C85.51,47.102 85.53,47.824 85.55,48.541 C85.56,48.995 85.44,49.371 84.89,49.526 C84.39,49.664 83.94,49.908 83.56,49.339 C83.51,49.267 83.42,49.227 83.19,49.06 C81.94,49.807 80.69,50.55 79.37,51.341 C79.25,51.059 79.14,50.815 79.05,50.561 C78.09,47.728 76.7,45.114 74.68,42.914 C72.91,40.975 70.86,39.307 68.34,38.39 C67.37,38.034 66.37,37.614 65.24,37.923 C64.78,38.05 64.47,38.224 64.2,38.679 C64.94,38.816 65.64,38.926 66.32,39.075 C66.71,39.161 67.11,39.265 67.47,39.437 C69.78,40.529 71.93,41.868 73.65,43.756 C74.98,45.206 76.16,46.788 76.9,48.644 C77.35,49.767 77.85,50.876 78.2,52.028 C78.62,53.426 78.91,54.866 79.27,56.283 C79.7,57.944 80.05,59.622 80.06,61.339 C80.08,63.113 80,64.887 79.96,66.661 C79.95,67.311 79.9,67.962 79.92,68.611 C79.97,70.3 79.59,71.93 79.3,73.575 C78.95,75.626 78.52,77.669 78.25,79.733 C77.82,83.062 78.34,86.234 79.97,89.219 C80.88,90.875 81.37,92.674 81.2,94.6 C81.18,94.775 81.14,94.947 81.07,95.369 C80.75,94.946 80.52,94.711 80.36,94.437 C79.59,93.102 78.57,92 77.46,90.931 C76.32,89.844 75.05,88.956 73.89,87.918 C73.03,87.15 72.23,86.307 71.5,85.421 C70.46,84.175 70.07,82.631 69.97,81.069 C69.89,79.745 70.01,78.397 70.16,77.073 C70.46,74.378 70.96,71.701 70.96,68.98 C70.96,66.5 70.59,64.049 69.68,61.75 C69.25,60.679 68.41,59.758 67.69,58.824 C67.31,58.338 66.79,57.966 66.32,57.555 C65.98,57.252 65.55,57.056 65.11,57.206 C64.87,57.291 64.63,57.578 64.53,57.831 C64.48,57.964 64.68,58.317 64.85,58.403 C66.39,59.18 67.38,60.493 68.26,61.903 C68.94,62.983 69.12,64.226 69.37,65.445 C69.8,67.603 69.8,69.772 69.53,71.949 C69.19,74.639 68.86,77.33 68.53,80.021 C68.5,80.237 68.46,80.46 68.49,80.672 C68.71,82.407 68.95,84.172 69.85,85.69 C70.43,86.665 71.28,87.491 72.07,88.321 C72.63,88.902 73.3,89.371 73.91,89.902 C75.37,91.173 76.88,92.392 78.26,93.75 C78.94,94.424 79.53,95.188 80.33,95.736 C80.59,95.91 80.84,96.088 81.07,96.253 C81.27,98.37 80.13,100.089 79.63,101.964 C79.01,102.006 78.73,101.64 78.61,101.288 C78.37,100.542 77.85,100.015 77.39,99.435 C76.88,98.801 76.47,98.064 75.87,97.542 C74.22,96.115 72.75,94.486 70.9,93.288 C69.7,92.511 68.6,91.581 67.48,90.694 C66.8,90.156 66.12,89.6 65.49,89.001 C64.59,88.141 64.23,86.968 63.87,85.833 C63.39,84.282 63.13,82.67 63.15,81.042 C63.16,79.421 63.32,77.801 63.37,76.18 C63.42,74.151 63.47,72.119 63.43,70.091 C63.38,67.915 62.91,65.817 61.92,63.861 C61.77,63.56 61.58,63.253 61.34,63.028 C60.86,62.584 60.35,62.163 59.81,61.79 C57.63,60.271 55.65,60.492 53.81,62.439 C53.4,62.869 52.94,63.266 52.62,63.753 C52.3,64.234 52.13,64.81 51.89,65.336 C51.79,65.317 51.7,65.328 51.67,65.292 C51.04,64.53 50.34,63.861 49.53,63.263 C49.08,62.929 48.67,62.675 48.15,62.643 C46.63,62.551 45.11,62.504 43.61,62.991 C42.83,63.244 42.38,63.824 41.87,64.354 C40.14,66.158 40,68.693 40.97,70.593 C41.7,72.02 42.89,73.109 44.43,73.74 C45.73,74.272 47.02,74.042 48.29,73.687 C48.91,73.513 49.49,73.194 50.14,72.919 C50.2,72.995 50.31,73.074 50.34,73.177 C50.98,75.362 51.61,77.55 52.25,79.735 C52.64,81.049 53.07,82.35 53.41,83.675 C53.66,84.669 53.83,85.689 53.98,86.705 C54.32,88.971 54.25,91.249 54.09,93.522 C54.01,94.578 53.75,95.621 53.7,96.676 C53.59,99.004 52.95,101.215 52.27,103.41 C51.8,104.926 51.19,106.402 50.3,107.742 C49.65,108.728 49.05,109.75 48.37,110.716 C47.84,111.467 47.07,111.743 46.14,111.595 C45.68,111.521 45.41,111.33 45.37,110.828 C45.31,110.145 45.15,109.467 45.14,108.785 C45.13,107.768 44.87,106.817 44.55,105.873 C43.82,103.719 43.17,101.532 42.31,99.429 C41.62,97.736 40.73,96.135 39.24,94.918 C38.19,94.056 37.25,93.036 36.37,91.991 C35.75,91.26 35.49,90.376 35.95,89.373 Z M60.6,88.779 C60.14,88.154 59.67,87.501 59.18,86.873 C57.75,85.064 56.38,83.198 54.69,81.612 C53.91,80.882 53.57,80.048 53.59,78.965 C55.72,81.231 57.81,83.402 60.26,85.193 C60.57,84.82 60.31,84.597 60.13,84.419 C59.25,83.533 58.33,82.684 57.46,81.789 C56.83,81.147 56.27,80.448 55.66,79.784 C55.01,79.069 54.4,78.307 53.68,77.671 C52.58,76.71 52.36,75.396 51.89,73.993 C52.76,74.294 53.2,74.896 53.69,75.407 C54.4,76.146 55.11,76.892 55.79,77.667 C56.48,78.465 57.12,79.316 57.81,80.116 C58.38,80.774 58.99,81.405 59.6,82.024 C59.83,82.249 60.12,82.406 60.45,82.645 C60.64,82.041 60.29,81.804 60.07,81.544 C59.39,80.736 58.67,79.954 57.98,79.151 C57.37,78.443 56.79,77.708 56.18,77.007 C54.8,75.441 53.41,73.888 52.03,72.331 C51.9,72.191 51.78,72.048 51.65,71.915 C51.29,71.559 51.27,71.217 51.75,70.818 C52.05,71.035 52.4,71.232 52.67,71.508 C53.41,72.265 54.09,73.084 54.84,73.825 C56.72,75.669 58.37,77.754 60.69,79.287 C60.68,79.072 60.73,78.869 60.65,78.783 C59.96,78.026 59.24,77.291 58.53,76.546 C58.19,76.188 57.86,75.824 57.53,75.461 C55.91,73.697 54.28,71.932 52.66,70.166 C52.26,69.729 52.26,69.216 52.36,68.659 C52.87,68.543 53.14,68.903 53.4,69.162 C55.02,70.752 56.62,72.371 58.23,73.97 C58.79,74.517 59.36,75.043 59.94,75.556 C60.05,75.65 60.25,75.641 60.41,75.679 L60.53,75.522 C60.37,75.285 60.23,75.023 60.03,74.814 C58.82,73.517 57.6,72.222 56.36,70.946 C55.32,69.877 54.26,68.828 53.2,67.787 C52.73,67.327 52.83,66.852 53.14,66.141 C53.78,66.852 54.34,67.468 54.9,68.082 C55.11,68.311 55.31,68.546 55.54,68.761 C56.38,69.58 57.33,70.313 58.05,71.228 C58.77,72.142 59.62,72.894 60.44,73.699 C60.68,73.936 60.89,74.105 61.34,73.875 C58.74,70.851 56.02,68.026 53.56,64.956 C53.76,64.646 53.9,64.415 54.11,64.095 C54.62,64.461 55.1,64.786 55.55,65.142 C56.09,65.565 56.61,66.014 57.13,66.452 C57.28,66.571 57.43,66.678 57.56,66.812 C58.44,67.735 59.32,68.661 60.19,69.591 C60.5,69.924 60.8,70.271 61.15,70.671 C61.45,70.239 61.23,70.005 61.01,69.735 C59.21,67.46 57.22,65.36 54.99,63.496 L54.94,63.367 C55.16,62.893 55.62,62.699 56.08,62.526 C56.42,62.399 56.69,62.546 56.88,62.841 C57.03,63.076 57.19,63.305 57.33,63.547 C58.08,64.846 59.4,65.586 60.35,66.687 C60.59,66.97 60.85,67.238 61.13,67.493 C61.25,67.605 61.41,67.667 61.63,67.682 C60.5,65.848 58.96,64.321 57.63,62.359 C58.03,62.457 58.21,62.47 58.36,62.541 C60.12,63.379 61.36,64.624 61.68,66.649 C61.84,67.631 62.14,68.59 62.3,69.572 C62.4,70.18 62.39,70.811 62.37,71.432 C62.33,73.36 62.28,75.289 62.21,77.217 C62.17,78.432 62.08,79.645 62.05,80.86 C62.04,81.54 62.06,82.229 62.15,82.901 C62.33,84.224 62.5,85.554 62.81,86.852 C63.23,88.675 64.3,90.107 65.78,91.249 C67.11,92.279 68.42,93.332 69.75,94.359 C70.56,94.984 71.39,95.594 72.22,96.184 C73.85,97.328 75.17,98.766 76.35,100.349 C77.07,101.325 77.81,102.288 78.55,103.259 C79.06,103.936 79.06,104.106 78.6,104.823 C78.34,105.216 78.1,105.615 77.84,106.005 C77.33,106.786 76.61,107.2 75.67,107.25 C74.51,107.311 73.35,107.34 72.3,106.713 C72.12,106.604 71.89,106.546 71.68,106.507 C70.27,106.242 69.13,105.509 68.02,104.612 C66.83,103.66 65.68,102.662 64.48,101.728 C63.07,100.621 61.44,99.778 59.91,98.827 C59.69,98.696 59.47,98.549 59.23,98.501 C58.03,98.255 57.47,97.318 56.87,96.409 C56.54,95.918 56.2,95.403 55.77,95.015 C55.1,94.419 55.04,93.785 55.44,92.921 C56.17,93.623 57,94.146 57.57,94.981 C57.9,95.468 58.31,95.905 58.71,96.34 C58.8,96.437 59,96.43 59.29,96.507 C59.18,96.204 59.15,96.028 59.06,95.886 C58.19,94.478 57.12,93.228 55.97,92.044 C55.36,91.413 55.35,91.426 55.46,90.431 C56.01,90.552 56.76,91.234 57.3,91.834 C58.28,92.911 59.33,93.918 60.36,94.946 C60.43,95.019 60.57,95.026 60.74,94.998 C59.19,92.749 57.63,90.529 55.37,88.819 C55.34,88.453 55.31,88.024 55.28,87.554 C55.78,87.489 56,87.803 56.25,88.059 C56.44,88.259 56.58,88.509 56.77,88.706 C57.97,89.919 59.17,91.132 60.39,92.326 C60.73,92.661 61.13,92.931 61.51,93.231 L61.68,93.084 C61.57,92.894 61.48,92.681 61.34,92.516 C60.46,91.501 59.58,90.482 58.68,89.493 C57.81,88.554 56.88,87.678 56.04,86.72 C55.47,86.07 54.94,85.373 54.87,84.434 C54.84,83.979 54.69,83.533 54.74,82.975 C55,83.25 55.26,83.524 55.52,83.801 C56.58,84.941 57.65,86.074 58.7,87.227 C59.15,87.73 59.56,88.277 59.99,88.806 C60.17,89.03 60.35,89.168 60.6,88.779 Z M55.13,95.605 C55.81,96.308 56.33,96.848 56.97,97.512 C56.15,97.551 55.54,97.579 54.89,97.61 C54.71,97.003 54.88,96.43 55.13,95.605 Z M4.28,56.874 C4.46,56.888 4.67,56.878 4.87,56.924 C5.6,57.095 6.33,57.268 7.05,57.471 C7.93,57.72 8.71,58.152 9.45,58.709 C10.36,59.399 10.68,60.371 10.7,61.406 C10.74,62.885 10.36,64.312 9.76,65.664 C9.38,66.501 8.61,66.972 7.91,67.478 C6.34,68.607 4.45,69.017 2.69,69.71 C2.64,69.729 2.57,69.69 2.42,69.659 C2.42,69.011 2.37,68.392 2.43,67.783 C2.49,67.101 2.64,66.428 2.75,65.751 C3.07,63.91 3.48,62.082 3.53,60.201 C3.56,59.073 3.79,57.979 4.28,56.874 Z M35.73,105.71 L35.98,105.634 C36.75,106.402 37.52,107.17 38.33,107.967 C38.12,108.499 37.52,108.59 37.01,108.73 C36.53,108.861 36.23,108.447 36.13,108.067 C35.94,107.296 35.86,106.498 35.73,105.71 Z M3.52,73.998 C5.48,74.946 7.57,75.485 9.7,75.795 C11.55,76.064 13.43,76.152 15.3,76.332 C16.91,76.487 18.52,76.67 20.13,76.824 C21.59,76.963 23.05,77.118 24.51,77.199 C26.29,77.297 28.06,77.181 29.84,77.375 C30.93,77.494 32.07,77.85 33.27,77.218 C33.4,77.693 33.62,78.084 33.56,78.428 C33.39,79.5 33.2,80.591 32.83,81.603 C32.46,82.615 31.87,83.552 31.35,84.505 C30.68,85.729 30.02,86.966 29.27,88.143 C28.33,89.634 28.06,91.332 27.65,92.987 C27.51,93.529 27.62,94.048 28.04,94.459 C29.33,95.724 30.61,96.996 31.92,98.25 C33.55,99.824 34.4,101.711 34.36,104.006 C34.34,105.661 34.54,107.304 34.94,108.911 C35.02,109.215 35.23,109.537 35.48,109.736 C36.44,110.52 37.22,110.595 38.47,109.782 C39.51,109.104 40.33,108.166 40.87,107.068 C41.26,106.246 41.41,105.292 41.62,104.387 C41.69,104.088 41.57,103.822 41.17,103.941 C40.79,105.267 40,106.471 38.85,107.413 C37.77,106.284 36.64,105.183 35.78,103.859 C35.66,103.679 35.69,103.405 35.63,103.058 C35.93,103.171 36.12,103.199 36.25,103.302 C36.74,103.684 37.22,104.087 37.7,104.491 C38.04,104.782 38.4,104.953 38.93,104.82 C38.82,104.618 38.77,104.424 38.65,104.308 C37.74,103.454 36.84,102.602 35.72,102.004 C35.52,101.892 35.35,101.616 35.27,101.38 C35.16,101.085 35.17,100.752 35.1,100.213 C36.62,101.579 37.97,102.8 39.36,104.055 C39.45,103.995 39.57,103.906 39.74,103.777 C39.11,103.098 38.5,102.438 37.88,101.799 C37.27,101.175 36.6,100.604 36.03,99.95 C35.48,99.329 34.79,98.956 34.12,98.511 C33.46,98.076 32.99,97.366 32.43,96.788 C31.39,95.719 30.32,94.676 29.3,93.584 C28.97,93.226 28.76,92.752 29.14,92.243 C29.26,92.303 29.36,92.329 29.43,92.386 C31.59,94.171 33.67,96.035 35.56,98.103 C36.51,99.133 37.71,99.895 38.54,101.042 C38.66,101.215 38.81,101.368 38.95,101.53 C39.16,101.778 39.39,101.973 39.79,101.77 C39.76,101.65 39.77,101.506 39.7,101.433 C38.18,99.819 36.68,98.183 35.12,96.613 C33.47,94.958 31.75,93.372 30.07,91.746 C29.36,91.049 29.32,90.74 29.77,89.838 C29.96,89.448 30.12,89.037 30.34,88.66 C30.76,87.912 31.22,87.18 31.67,86.431 C32.72,87.284 33.69,88.059 34.66,88.848 C34.56,89.337 34.45,89.827 34.33,90.413 C33.21,89.619 32.62,88.389 31.33,88.035 C30.98,88.39 30.95,88.66 31.37,88.965 C31.9,89.345 32.41,89.749 32.89,90.194 C33.47,90.746 34.11,91.286 34.55,91.945 C35.45,93.294 36.41,94.567 37.7,95.592 C38.95,96.59 39.96,97.806 40.65,99.287 C41.1,100.251 41.45,101.224 41.74,102.256 C42.18,103.871 42.89,105.413 43.44,107.001 C43.64,107.584 43.77,108.202 43.86,108.815 C43.99,109.741 44.03,110.678 44.15,111.607 C44.18,111.876 44.27,112.167 44.43,112.387 C45.01,113.221 47.49,113.425 48.23,112.723 L48.3,112.656 C50.65,110.369 52.18,107.561 53.22,104.506 C53.92,102.454 54.34,100.309 54.89,98.178 C55.14,98.214 55.46,98.21 55.75,98.314 C57.45,98.935 59.12,99.615 60.62,100.666 C61.28,101.13 62,101.512 62.69,101.946 C63.13,102.23 63.58,102.517 64,102.844 C64.71,103.401 65.38,104.003 66.09,104.562 C66.62,104.984 67.19,105.368 67.74,105.77 C68.26,106.151 68.74,106.638 69.32,106.894 C70.37,107.359 71.49,107.667 72.57,108.077 C73.98,108.616 75.4,108.395 76.81,108.089 C77.22,108 77.62,107.759 77.96,107.502 C78.53,107.078 79.04,106.587 79.57,106.119 L79.72,105.891 C79.92,105.366 80.12,104.845 80.29,104.311 C80.7,102.972 81.08,101.624 81.5,100.285 C82.03,98.579 82.37,96.849 82.25,95.05 C82.22,94.708 82.15,94.335 82.25,94.025 C82.6,92.914 82.09,91.934 81.78,90.954 C81.41,89.769 80.84,88.649 80.37,87.492 C80.12,86.856 79.83,86.218 79.7,85.553 C79.21,82.926 79.21,80.29 79.72,77.662 C79.84,77.05 80.01,76.447 80.12,75.835 C80.33,74.699 80.46,73.544 80.73,72.424 C81.09,70.955 81.04,69.457 81.17,67.973 C81.26,67.014 81.27,66.045 81.27,65.081 C81.25,63.405 81.21,61.728 81.15,60.053 C81.13,59.69 80.94,59.333 80.93,58.971 C80.91,57.457 80.57,56.008 80.11,54.578 C79.92,53.993 79.77,53.396 79.6,52.814 C80.7,52.111 81.71,51.465 82.72,50.817 C83.69,51.47 84.63,51.147 85.56,50.84 C85.67,51.211 85.75,51.504 85.78,51.605 C86.56,52.166 87.26,52.552 87.81,53.086 C88.97,54.209 90.17,55.321 91.04,56.691 C91.76,57.816 92.47,58.98 92.95,60.216 C93.68,62.062 94.19,63.993 94.84,65.871 C95.02,66.388 95.25,66.964 95.96,67.127 C96,66.959 96.08,66.83 96.05,66.733 C95.19,63.817 94.32,60.904 93.45,58.001 C94.16,58.27 94.21,59.535 95.3,59.465 C95.3,59.306 95.32,59.238 95.29,59.187 C95.22,59.015 95.16,58.833 95.05,58.683 C94.02,57.232 93.29,55.604 92.39,54.078 C91.76,53.006 91.02,51.994 90.27,50.999 C89.75,50.315 89.52,50.314 88.68,50.775 C88.8,51.057 88.87,51.405 89.06,51.643 C89.72,52.433 90.42,53.182 91.1,53.952 C91.29,54.166 91.43,54.41 91.45,54.767 C90.53,53.844 89.71,52.95 88.81,52.146 C87.96,51.39 87.14,50.552 85.87,50.457 C85.94,50.33 85.97,50.231 86.03,50.173 C86.66,49.602 86.99,48.962 86.58,48.112 C86.53,48.007 86.55,47.866 86.54,47.742 C86.37,46.222 86.25,44.695 86.01,43.185 C85.6,40.509 84.82,37.955 83.21,35.722 C83.01,35.444 82.76,35.197 82.59,34.905 C81.69,33.395 80.48,32.133 79.32,30.838 C79.07,30.562 78.79,30.296 78.48,30.093 C76.57,28.848 74.66,27.625 72.75,26.39 C70.09,24.669 67.13,23.701 64.06,23.055 C61.93,22.606 59.77,22.244 57.61,21.994 C55.91,21.797 54.18,21.763 52.47,21.782 C50.63,21.802 48.79,22.071 46.96,22.042 C45.08,22.012 43.33,22.658 41.5,22.802 C41.26,22.821 41.03,22.96 40.8,23.039 C40.51,23.138 40.21,23.232 39.84,23.353 C39.66,22.87 39.5,22.437 39.33,22.008 C38.75,20.558 38.23,19.081 37.57,17.667 C36.15,14.617 34.16,11.924 32.12,9.271 C31.53,8.495 30.67,7.916 29.92,7.265 C29.68,7.058 29.3,7.056 29.17,7.309 C29.05,7.53 29.1,7.905 29.21,8.159 C29.29,8.363 29.58,8.48 29.76,8.651 C30.16,9.036 30.61,9.394 30.95,9.829 C31.67,10.73 32.35,11.66 33.01,12.603 C33.88,13.853 34.86,15.056 35.54,16.406 C36.65,18.603 37.57,20.899 38.54,23.163 C38.73,23.592 38.67,23.979 38.18,24.274 C37.77,24.524 37.43,24.909 37.09,25.212 C37.17,25.461 37.31,25.664 37.26,25.802 C36.89,26.886 37.31,27.803 37.79,28.732 C38.08,29.283 38.5,29.483 39.09,29.452 C39.52,29.428 39.96,29.413 40.4,29.403 C41.11,29.387 41.13,29.441 41.43,30.094 C42.11,31.57 42.27,33.163 42.52,34.733 C42.78,36.307 42.57,36.564 40.98,36.609 C38.27,36.687 35.68,37.436 33.08,38.063 C32.83,38.122 32.58,38.194 32.38,38.326 C31.12,39.133 29.68,39.61 28.54,40.621 C27.12,41.886 25.3,42.625 23.95,43.996 C23.62,44.328 23.28,44.663 22.91,44.935 C21.62,45.869 20.73,47.142 19.89,48.457 C19.06,49.772 18.32,51.146 17.47,52.449 C17.18,52.893 16.97,53.276 17.2,53.837 C16.67,53.758 16.21,53.693 15.75,53.619 C14.83,53.472 13.92,53.299 12.99,53.176 C11.79,53.016 10.58,52.829 9.36,52.775 C8.12,52.72 6.89,52.454 5.63,52.622 C4.03,52.835 3.12,53.957 3.18,55.56 C3.21,56.386 3.02,57.222 2.91,58.049 C2.85,58.45 2.73,58.841 2.66,59.24 C2.33,61.142 2.08,63.061 1.67,64.943 C1.29,66.676 1.07,68.421 0.94,70.181 L0.91,70.191 L0.87,70.222 C0.9,70.682 0.95,71.138 1.02,71.59 C1.06,71.709 1.11,71.829 1.16,71.948 L1.33,72.187 L1.27,72.224 C1.51,72.715 1.87,73.143 2.27,73.554 C2.7,73.617 3.11,73.802 3.52,73.998 Z" id="Fill-2328"></path>
            <path d="M77.52,20.29 C78.14,19.729 78.72,19.336 79.12,18.81 C80.34,17.207 82.06,16.373 83.82,15.575 C84.06,15.463 84.38,15.509 84.69,15.564 C81.67,17.751 78.85,20.077 77.08,23.444 C76.67,23.371 76.4,23.278 76.49,22.792 C76.52,22.595 76.54,22.303 76.43,22.184 C75.77,21.485 75.94,20.692 76.27,19.994 C76.89,18.654 77.58,17.338 78.35,16.078 C78.85,15.265 79.52,14.554 80.15,13.826 C80.5,13.422 80.92,13.09 81.5,13.073 C81.79,13.064 82.07,13.092 82.17,13.505 C80.42,14.24 79.57,15.792 78.75,17.364 C78.35,18.132 77.99,18.921 77.62,19.707 C77.56,19.835 77.57,19.994 77.52,20.29" id="Fill-2329"></path>
            <path d="M58.25,2.166 C58.29,2.115 58.41,1.929 58.58,1.795 C59.06,1.4 59.5,1.528 59.78,2.079 C60.68,3.87 61.11,5.785 61.14,7.766 C61.17,10.136 61.07,12.508 61.02,14.878 C61.01,15.232 61.1,15.681 60.57,15.778 C60.21,15.844 59.99,15.576 59.94,14.919 C59.84,13.459 59.81,11.994 59.7,10.534 C59.62,9.39 59.54,8.239 59.33,7.113 C59.04,5.491 58.63,3.89 58.25,2.166" id="Fill-2330"></path>
            <path d="M52.87,2.526 C52.98,2.381 53.1,2.081 53.22,2.081 C53.46,2.081 53.81,2.177 53.91,2.353 C54.14,2.751 54.31,3.21 54.39,3.664 C54.89,6.68 55.38,9.698 55.83,12.721 C55.94,13.396 55.91,14.092 55.91,14.779 C55.91,15.023 55.89,15.304 55.77,15.503 C55.66,15.682 55.4,15.886 55.22,15.87 C55.05,15.854 54.85,15.592 54.76,15.395 C54.68,15.209 54.74,14.965 54.71,14.749 C54.49,12.955 54.26,11.162 54.04,9.368 C53.87,7.976 53.71,6.584 53.53,5.193 C53.49,4.949 53.4,4.714 53.34,4.473 C53.19,3.849 53.04,3.225 52.87,2.526" id="Fill-2331"></path>
            <path d="M93.81,29.326 C93.54,28.794 93.64,28.48 94.06,28.146 C94.67,27.673 95.17,27.068 95.72,26.526 C95.78,26.469 95.88,26.456 96.14,26.348 C95.9,26.975 95.48,27.299 95.19,27.701 C94.91,28.096 94.62,28.486 94.27,28.958 C94.99,28.976 95.49,28.635 96.03,28.439 C96.38,28.312 96.73,28.161 97.09,28.094 C97.42,28.033 97.73,28.168 97.81,28.531 C97.88,28.839 97.71,29.041 97.4,29.172 C95.87,29.843 94.36,30.579 92.81,31.198 C91.49,31.721 90.31,32.447 89.13,33.196 C88.69,33.478 88.27,33.692 87.76,33.361 C87.36,33.105 87.3,32.806 87.63,32.46 L87.78,32.345 C89.13,31.521 90.44,30.606 91.96,30.091 C92.55,29.892 93.11,29.618 93.81,29.326" id="Fill-2332"></path>
            <path d="M95.63,23.155 C95.59,23.623 95.32,23.867 94.87,23.963 C94.45,24.055 94.02,24.157 93.6,24.247 C92.58,24.462 91.64,24.852 90.73,25.351 C89.89,25.811 89,26.175 88.14,26.604 C87.56,26.895 86.99,27.228 86.42,27.539 C86.29,27.613 86.14,27.731 86,27.733 C85.67,27.738 85.22,27.824 85.13,27.411 C85.08,27.195 85.31,26.85 85.51,26.662 C86.03,26.174 86.55,25.67 87.15,25.302 C87.96,24.804 88.82,24.347 89.71,24.012 C91.31,23.413 92.9,22.726 94.67,22.777 C95.05,22.788 95.42,22.723 95.63,23.155" id="Fill-2333"></path>
            <path d="M47.49,14.148 C46.89,14.211 46.61,14.008 46.5,13.536 C46.09,11.746 45.72,9.944 45.25,8.171 C45.02,7.309 44.63,6.476 44.23,5.675 C43.69,4.594 43.05,3.559 42.46,2.501 C42.39,2.366 42.29,2.215 42.29,2.072 C42.29,1.907 42.36,1.62 42.45,1.603 C42.62,1.569 42.87,1.628 42.99,1.748 C45,3.782 46.27,6.184 46.68,9.042 C46.86,10.334 47.23,11.599 47.48,12.884 C47.55,13.27 47.49,13.682 47.49,14.148" id="Fill-2334"></path>
            <path d="M90.55,44.962 C90.98,44.576 91.44,44.518 91.89,44.738 C92.66,45.117 93.42,45.544 94.18,45.956 C95.69,46.77 96.85,47.988 97.87,49.308 C98.65,50.311 99.23,51.463 99.88,52.564 C100.27,53.236 100.62,53.935 100.97,54.63 C101.06,54.805 101.07,55.014 101.16,55.325 C100.9,55.253 100.7,55.259 100.64,55.172 C100.23,54.563 99.58,54.119 99.41,53.348 L99.34,53.178 C98.04,52.16 97.66,50.457 96.44,49.359 C94.93,48.005 93.45,46.631 91.51,45.902 C91.09,45.746 90.57,45.641 90.55,44.962" id="Fill-2335"></path>
            <path d="M82.5,8.117 C81.53,8.996 80.54,9.76 79.71,10.669 C78.9,11.563 78.15,12.549 77.55,13.593 C76.58,15.265 75.81,17.038 75.24,18.895 C75.05,19.496 74.89,20.078 75,20.728 C75.09,21.294 74.88,21.634 74.57,21.61 C74.09,21.575 73.9,21.204 73.93,20.823 C74.02,19.999 74.14,19.173 74.34,18.37 C74.53,17.621 74.77,16.872 75.1,16.177 C75.65,15.011 76.32,13.902 76.89,12.745 C77.71,11.084 79.15,9.962 80.4,8.679 C80.77,8.296 81.34,8.084 81.85,7.86 C82.14,7.73 82.48,7.754 82.5,8.117" id="Fill-2336"></path>
            <path d="M53.11,12.714 C53.13,12.837 53.15,12.961 53.16,13.085 C53.2,13.443 53.09,13.718 52.69,13.749 C52.31,13.777 52.01,13.666 51.95,13.221 C51.84,12.419 51.72,11.619 51.62,10.815 C51.5,9.766 51.4,8.726 51.05,7.705 C50.46,5.932 49.97,4.123 49.44,2.326 C49.35,1.987 49.1,1.56 49.58,1.347 C50.05,1.143 50.29,1.553 50.43,1.884 C50.9,3.007 51.37,4.132 51.74,5.291 C52.15,6.628 52.52,7.989 52.78,9.363 C52.99,10.461 53.02,11.594 53.13,12.712 L53.11,12.714" id="Fill-2337"></path>
            <path d="M102.1,49.682 C101.91,49.621 101.68,49.611 101.54,49.492 C100.53,48.618 99.56,47.702 98.54,46.841 C97.73,46.161 96.9,45.509 96.04,44.9 C94.73,43.968 93.38,43.083 92.05,42.177 L91.83,42.011 C91.74,41.805 91.57,41.521 91.65,41.384 C91.74,41.216 92.04,41.101 92.26,41.084 C92.46,41.069 92.68,41.195 92.86,41.303 C95.41,42.802 97.81,44.52 99.98,46.531 C100.63,47.14 101.21,47.839 101.78,48.53 C102.01,48.799 102.12,49.158 102.29,49.476 L102.1,49.682" id="Fill-2338"></path>
            <path d="M57.82,14.813 C57.7,14.55 57.56,14.373 57.54,14.181 C57.4,12.978 57.23,11.774 57.16,10.565 C57.06,8.691 56.92,6.83 56.32,5.032 C56.24,4.768 56.18,4.487 56.16,4.21 C56.13,3.866 56.25,3.61 56.64,3.527 C57,3.449 57.26,3.548 57.4,3.889 C57.51,4.178 57.65,4.466 57.72,4.768 C58.15,6.716 58.65,8.657 58.69,10.668 C58.71,11.664 58.7,12.662 58.67,13.658 C58.65,14.166 58.24,14.445 57.82,14.813" id="Fill-2339"></path>
            <path d="M70.87,5.145 C70.82,5.635 70.9,6.067 70.74,6.389 C69.91,8.098 69.68,9.955 69.32,11.782 C69.15,12.664 68.94,13.542 68.82,14.431 C68.71,15.168 68.71,15.918 68.64,16.662 C68.62,16.937 68.6,17.245 68.23,17.301 C67.85,17.359 67.58,17.261 67.43,16.853 C67.29,16.476 67.15,16.146 67.26,15.707 C67.67,13.952 68.05,12.187 68.41,10.419 C68.55,9.724 68.58,9.008 68.69,8.307 C68.88,7.131 69.45,6.15 70.31,5.332 C70.4,5.242 70.58,5.238 70.87,5.145" id="Fill-2340"></path>
            <path d="M99.81,31.038 C99.71,31.688 99.44,32.037 98.91,32.146 C98.51,32.227 98.11,32.297 97.71,32.319 C96.13,32.403 94.66,32.925 93.18,33.423 C92.6,33.619 92.09,34.006 91.52,34.247 C90.92,34.499 90.3,34.72 89.67,34.866 C89.46,34.914 89.05,34.735 88.99,34.565 C88.92,34.376 89.12,34.069 89.24,33.831 C89.28,33.732 89.42,33.661 89.53,33.61 C91.41,32.732 93.27,31.782 95.28,31.207 C95.72,31.08 96.2,31.03 96.66,31.014 C97.63,30.981 98.59,30.994 99.55,30.992 L99.81,31.038" id="Fill-2341"></path>
            <path d="M101.58,41.517 C100.99,41.616 100.49,41.606 100.02,41.307 C98.3,40.213 96.41,39.663 94.39,39.506 C93.74,39.455 93.1,39.287 92.46,39.167 C92.34,39.144 92.21,39.106 92.1,39.051 C91.62,38.807 91.37,38.388 91.49,38.029 C91.67,37.492 92.11,37.567 92.5,37.641 C94.42,38.004 96.34,38.382 98.26,38.787 C98.58,38.855 98.88,39.06 99.16,39.242 C99.68,39.575 100.2,39.913 100.69,40.296 C101.05,40.589 101.57,40.794 101.58,41.517" id="Fill-2342"></path>
            <path d="M66.92,2.179 C67.05,2.897 67.07,3.525 66.93,4.181 C66.49,6.186 66.09,8.197 66.01,10.263 C65.98,11.288 65.79,12.307 65.66,13.327 C65.62,13.665 65.51,13.935 65.09,13.912 C64.64,13.886 64.41,13.673 64.38,13.208 L64.39,13.022 C64.91,11.172 64.61,9.23 65.01,7.366 C65.2,6.487 65.37,5.602 65.55,4.72 C65.64,4.265 65.75,3.813 65.83,3.356 C65.95,2.764 66.29,2.36 66.92,2.179" id="Fill-2343"></path>
            <path d="M49.84,13.793 C49.05,13.764 49.08,13.179 48.99,12.714 C48.79,11.646 48.68,10.555 48.41,9.505 C47.8,7.18 47,4.919 46.02,2.727 C45.89,2.444 45.78,2.15 45.69,1.853 C45.58,1.475 45.7,1.18 46.1,0.991 C46.65,1.251 46.86,1.813 47.05,2.302 C47.74,4.004 48.44,5.71 48.97,7.465 C49.44,9.072 49.71,10.744 50.05,12.39 C50.15,12.851 50.14,13.317 49.84,13.793" id="Fill-2344"></path>
            <path d="M86.12,53.534 C86.81,52.907 86.84,52.956 87.34,53.508 C88.21,54.465 88.75,55.621 89.42,56.702 C90.32,58.165 90.47,59.805 90.5,61.458 C90.52,62.319 90.4,63.183 90.34,64.041 C89.57,64.135 89.54,64.139 89.43,63.513 C89.36,63.089 89.37,62.65 89.35,62.217 C89.32,61.631 89.28,61.045 89.29,60.459 C89.29,59.385 88.83,58.47 88.34,57.571 C87.78,56.562 87.19,55.575 86.62,54.571 C86.44,54.248 86.3,53.903 86.12,53.534" id="Fill-2345"></path>
            <path d="M96.53,35.27 C96.68,35.27 96.84,35.25 97,35.274 C98.01,35.433 99.03,35.601 100.04,35.767 L100.13,35.778 C100.61,35.888 100.8,36.12 100.76,36.543 C100.71,37.02 100.37,37.072 100.01,37.035 C99.2,36.952 98.4,36.826 97.6,36.738 C97.17,36.691 96.72,36.622 96.3,36.674 C94.73,36.865 93.16,37.111 91.6,37.317 C91.26,37.361 90.9,37.377 90.58,37.306 C90.38,37.264 90.09,37.027 90.09,36.878 C90.09,36.648 90.28,36.394 90.44,36.199 C90.52,36.105 90.73,36.113 90.88,36.089 C92.76,35.797 94.64,35.508 96.52,35.219 L96.53,35.27" id="Fill-2346"></path>
            <path d="M91.03,17.348 C90.84,17.498 90.66,17.662 90.46,17.795 C89.41,18.499 88.32,19.156 87.3,19.901 C85.22,21.421 83.16,22.981 81.66,25.118 C80.98,24.899 80.79,24.636 81.08,24.159 C81.65,23.246 82.1,22.263 83.08,21.636 C83.94,21.089 84.62,20.268 85.48,19.726 C86.62,19.001 87.89,18.46 89.06,17.777 C89.67,17.426 90.26,17.166 91.03,17.348" id="Fill-2347"></path>
            <path d="M38.4,15.506 C38.24,15.312 38.01,15.143 37.91,14.92 C36.97,13.009 35.54,11.495 34.1,9.971 C33.36,9.189 32.79,8.247 32.15,7.371 C32.08,7.274 32.02,7.134 32.03,7.02 C32.05,6.796 32.04,6.471 32.18,6.379 C32.33,6.275 32.66,6.318 32.86,6.411 C33.07,6.511 33.27,6.715 33.39,6.924 C34.15,8.318 35.3,9.397 36.44,10.445 C37.74,11.634 38.4,13.075 38.66,14.76 C38.69,14.965 38.66,15.179 38.66,15.389 L38.4,15.506" id="Fill-2348"></path>
            <path d="M62.39,1.382 C62.67,1.284 62.92,1.196 63.29,1.064 C63.38,1.538 63.51,1.923 63.51,2.309 C63.53,4.772 63.56,7.236 63.51,9.698 C63.48,11.317 63.29,12.933 63.2,14.553 C63.17,14.984 63.27,15.422 63.29,15.857 C63.31,16.09 63.3,16.325 63.3,16.594 C62.69,16.631 62.48,16.336 62.48,15.872 C62.47,14.783 62.45,13.693 62.48,12.605 C62.52,11.363 62.65,10.122 62.67,8.88 C62.7,7.139 62.69,5.396 62.65,3.656 C62.63,2.917 62.48,2.181 62.39,1.382" id="Fill-2349"></path>
            <path d="M40.24,14.168 C40.15,14.105 40.03,14.069 40.01,14 C39.43,12.275 38.2,10.968 37.19,9.525 C36.33,8.31 35.51,7.062 34.69,5.821 C34.6,5.676 34.51,5.471 34.54,5.309 C34.56,5.117 34.67,4.861 34.82,4.78 C34.96,4.704 35.28,4.744 35.39,4.86 C35.86,5.388 36.31,5.948 36.73,6.52 C37.56,7.644 38.35,8.805 39.2,9.908 C39.94,10.864 40.51,11.876 40.59,13.103 C40.61,13.487 40.71,13.921 40.24,14.168" id="Fill-2350"></path>
            <path d="M42.55,13.759 C42,13.904 41.84,13.52 41.69,13.19 C41.14,11.967 40.63,10.728 40.08,9.507 C39.39,7.977 38.67,6.462 37.98,4.931 C37.79,4.512 37.64,4.066 37.54,3.619 C37.5,3.479 37.63,3.166 37.71,3.157 C37.89,3.136 38.18,3.196 38.26,3.326 C38.81,4.19 39.39,5.051 39.83,5.97 C40.65,7.645 41.41,9.347 42.13,11.064 C42.48,11.912 42.76,12.81 42.55,13.759" id="Fill-2351"></path>
            <path d="M92.94,50.045 C92.99,49.669 92.99,49.475 93.05,49.302 C93.2,48.845 93.58,48.764 93.89,49.129 C94.07,49.339 94.22,49.581 94.35,49.83 C95.28,51.699 96.1,53.611 96.66,55.627 C96.88,56.404 97.04,57.194 97.21,57.982 C97.27,58.253 97.34,58.627 96.98,58.676 C96.72,58.711 96.33,58.586 96.18,58.392 C95.94,58.084 95.79,57.67 95.73,57.282 C95.42,55.096 94.65,53.089 93.49,51.214 C93.24,50.805 93.08,50.342 92.94,50.045" id="Fill-2352"></path>
            <path d="M87.42,16.081 C86.41,16.518 85.57,16.957 84.87,17.789 C83.94,18.907 82.77,19.815 81.75,20.866 C81.08,21.559 80.49,22.334 79.9,23.095 C79.71,23.334 79.62,23.648 79.48,23.924 C79.32,24.246 79.14,24.564 78.99,24.85 C78.44,24.816 78.36,24.509 78.48,24.187 C78.77,23.373 78.96,22.456 79.48,21.797 C80.48,20.505 81.62,19.297 82.81,18.175 C83.79,17.255 84.83,16.345 86.18,15.955 C86.57,15.842 86.98,15.551 87.42,16.081" id="Fill-2353"></path>
            <path d="M44.76,14.03 C44.15,14.063 44.06,13.699 43.97,13.325 C43.71,12.237 43.53,11.124 43.17,10.068 C42.53,8.149 41.9,6.212 40.76,4.503 C40.61,4.271 40.45,4.021 40.38,3.757 C40.34,3.581 40.4,3.285 40.52,3.19 C40.66,3.087 40.97,3.081 41.12,3.168 C41.36,3.299 41.57,3.522 41.72,3.75 C42.98,5.647 43.77,7.725 44.1,9.983 C44.26,11.063 44.49,12.132 44.68,13.208 C44.73,13.469 44.73,13.737 44.76,14.03" id="Fill-2354"></path>
            <path d="M92.14,21.545 C91.83,21.726 91.54,21.946 91.22,22.079 C90.38,22.42 89.56,22.776 88.8,23.296 C88.19,23.713 87.48,23.976 86.82,24.318 C85.96,24.765 85.17,25.319 84.53,26.055 C84.32,26.3 84.07,26.513 83.72,26.322 C83.31,26.099 83.42,25.689 83.54,25.41 C83.71,25.018 83.95,24.605 84.28,24.348 C85.68,23.245 87.21,22.316 88.94,21.827 C89.94,21.543 90.99,21.425 92.02,21.232 C92.06,21.337 92.1,21.441 92.14,21.545" id="Fill-2355"></path>
            <path d="M76.78,7.906 C76.69,8.194 76.68,8.38 76.59,8.517 C76.11,9.246 75.62,9.962 75.13,10.685 C74.99,10.893 74.84,11.096 74.74,11.321 C74,12.917 73.23,14.5 72.57,16.127 C72.25,16.897 72.16,17.754 71.96,18.573 C71.89,18.875 71.88,19.241 71.45,19.239 C71.01,19.237 70.9,18.874 70.84,18.53 C70.7,17.755 70.97,17.037 71.26,16.355 C71.57,15.648 72,14.995 72.34,14.303 C72.74,13.506 73.03,12.653 73.49,11.895 C74.06,10.939 74.73,10.031 75.42,9.149 C75.76,8.72 76.23,8.398 76.78,7.906" id="Fill-2356"></path>
            <path d="M94.38,25.268 C94.72,26.068 94.69,26.142 94.03,26.41 C93.02,26.821 92.06,27.292 91.19,27.985 C90.21,28.753 89.11,29.354 88.05,30.008 C87.87,30.116 87.62,30.203 87.44,30.157 C87.23,30.106 86.99,29.925 86.91,29.738 C86.85,29.6 86.99,29.355 87.08,29.172 L87.31,29.018 C88.19,28.392 89.13,27.835 89.93,27.12 C91.12,26.056 92.53,25.593 94.03,25.272 C94.15,25.247 94.27,25.268 94.38,25.268" id="Fill-2357"></path>
            <path d="M73.52,7.041 C73.11,7.943 72.73,8.86 72.29,9.743 C71.4,11.506 70.79,13.364 70.32,15.272 C70.2,15.751 70.23,16.263 70.14,16.749 C70.07,17.105 69.91,17.443 69.79,17.785 C68.91,17.503 68.82,17.362 68.93,16.588 C69.08,15.64 69.31,14.728 69.75,13.857 C70.06,13.261 70.16,12.565 70.39,11.928 C71.02,10.198 71.99,8.641 72.93,7.076 C73.01,6.949 73.25,6.922 73.42,6.848 L73.52,7.041" id="Fill-2358"></path>
            <path d="M97.68,51.74 C97.95,52.627 98.12,53.521 98.48,54.335 C99.33,56.287 99.32,58.388 99.64,60.431 C99.67,60.622 99.52,60.98 99.38,61.029 C99.02,61.154 98.8,60.887 98.74,60.543 C98.58,59.717 98.43,58.891 98.3,58.061 C98.04,56.423 97.58,54.85 96.87,53.349 C96.77,53.128 96.68,52.883 96.65,52.642 C96.57,51.9 96.7,51.779 97.68,51.74" id="Fill-2359"></path>
            <path d="M101.66,44.996 C101.4,44.89 101.11,44.827 100.88,44.67 C99.52,43.733 98.12,42.881 96.57,42.281 C96.45,42.237 96.3,42.205 96.24,42.116 C96.13,41.923 95.97,41.669 96.02,41.491 C96.07,41.31 96.33,41.167 96.52,41.055 C96.61,41.004 96.78,41.036 96.89,41.085 C98.54,41.844 100.32,42.41 101.46,43.98 C101.63,44.213 101.74,44.49 101.88,44.747 L101.66,44.996" id="Fill-2360"></path>
            <path d="M37.68,96.775 C37.37,97.147 37.12,97.033 36.86,96.79 C35.38,95.414 33.9,94.036 32.42,92.67 C31.75,92.062 31.07,91.482 30.37,90.874 C30.49,90.629 30.59,90.445 30.74,90.125 C33.2,92.28 35.63,94.315 37.68,96.775" id="Fill-2361"></path>
            <path d="M45.71,28.096 C45.89,27.224 46.17,27.05 47.02,27.14 C47.54,27.195 48.07,27.168 48.59,27.128 C50.18,27.004 51.76,26.85 53.35,26.72 C55.74,26.524 58.04,27.178 60.39,27.448 C63.04,27.752 65.46,28.726 67.85,29.788 C69.38,30.47 70.84,31.319 72.09,32.497 C73.23,33.566 74.49,34.502 75.63,35.559 C77.38,37.171 78.94,38.942 80.12,41.039 C80.69,42.072 81.38,43.046 82.03,44.04 C82.5,44.764 82.42,45.594 82.49,46.393 C82.5,46.518 82.36,46.657 82.24,46.869 C82.04,46.708 81.84,46.609 81.74,46.447 C80.81,44.935 79.95,43.373 78.95,41.902 C77.54,39.81 76.04,37.774 73.97,36.235 C73.08,35.567 72.25,34.801 71.42,34.04 C69.16,31.951 66.4,30.843 63.53,29.911 C61.31,29.19 59.01,28.981 56.73,28.619 C56.14,28.525 55.56,28.349 54.97,28.328 C53.73,28.283 52.48,28.286 51.23,28.327 C50.33,28.357 49.43,28.485 48.53,28.555 C48.28,28.574 48.02,28.574 47.78,28.529 C47.09,28.4 46.4,28.243 45.71,28.096" id="Fill-2362"></path>
            <path d="M69.23,48.811 C68.79,49.038 68.6,48.774 68.39,48.537 C67.92,48.001 67.41,47.492 66.94,46.944 C66.07,45.908 64.99,45.209 63.7,44.822 C61.54,44.174 59.39,43.525 57.11,43.49 C56.01,43.473 54.94,43.625 53.88,43.945 C52.32,44.417 50.78,44.99 49.42,45.842 C47.84,46.826 46.39,48.024 44.92,49.183 C44.29,49.683 43.77,50.326 43.19,50.892 C42.18,51.878 41.32,52.983 40.62,54.207 C40.47,54.463 40.23,54.665 40.03,54.887 C39.56,54.712 39.35,54.428 39.56,54.066 C40.22,52.903 40.84,51.698 41.65,50.639 C42.48,49.54 43.45,48.518 44.49,47.597 C45.5,46.687 46.65,45.915 47.78,45.139 C49.49,43.965 51.37,43.126 53.32,42.431 C55.89,41.513 58.48,41.72 61.06,42.38 C62.33,42.705 63.59,43.081 64.82,43.527 C65.78,43.875 66.64,44.349 67.28,45.28 C67.74,45.955 68.42,46.494 68.84,47.24 C69.14,47.76 69.17,48.282 69.23,48.811" id="Fill-2363"></path>
            <path d="M47.35,103.75 C47.88,103.621 48.15,103.382 48.3,102.961 C48.43,102.61 48.58,102.264 48.75,101.933 C48.94,101.568 49.24,101.379 49.65,101.488 C50.4,102.423 49.73,103.159 49.32,103.872 C48.88,104.615 48.2,105.127 47.36,105.383 C46.69,105.586 46.26,105.345 46.12,104.665 C45.71,102.682 45.28,100.702 44.95,98.708 C44.69,97.185 44.04,95.921 42.81,94.996 C41.66,94.124 40.72,93.049 39.72,92.022 C38.52,90.792 38.72,89.619 39.57,88.218 C40.03,87.447 40.53,86.693 40.96,85.902 C41.79,84.357 42.33,82.689 42.71,80.992 C42.95,79.91 42.92,78.764 42.96,77.644 C42.99,76.835 42.95,76.022 42.93,75.211 C42.93,74.895 43.02,74.651 43.39,74.638 C43.78,74.624 43.82,74.898 43.88,75.193 C44.23,77.117 44.29,79.062 43.86,80.958 C43.5,82.496 42.94,83.994 42.37,85.47 C41.9,86.688 41.29,87.847 40.55,88.941 C39.92,89.861 40.11,90.197 40.74,91.123 C41.67,92.503 43.06,93.382 44.26,94.441 C45.27,95.322 45.63,96.392 45.91,97.58 C46.37,99.606 46.85,101.631 47.35,103.75" id="Fill-2364"></path>
            <path d="M63.05,55.077 C62.48,55.077 62.01,55.109 61.56,55.07 C60.78,55.004 60.01,54.843 59.24,54.81 C56.14,54.682 53.29,55.361 50.99,57.583 C50.51,58.053 50.14,58.651 49.73,59.196 C49.62,59.344 49.56,59.535 49.44,59.675 C49.23,59.922 48.96,60.132 48.63,59.908 C48.34,59.71 48.45,59.42 48.57,59.151 C49.42,57.25 50.71,55.8 52.55,54.755 C53.77,54.066 54.99,53.53 56.36,53.364 C58.06,53.159 59.76,52.992 61.46,53.424 C62.05,53.574 62.41,54.002 62.82,54.358 C62.97,54.484 62.96,54.79 63.05,55.077" id="Fill-2365"></path>
            <path d="M48.64,76.524 C48.62,77.982 49.39,79.107 49.95,80.302 C50.57,81.604 50.86,82.995 51.07,84.406 C51.19,85.205 51.28,86.011 51.33,86.817 C51.37,87.463 51.36,88.116 51.33,88.763 C51.23,90.507 51.16,92.254 50.65,93.944 C50.58,94.182 50.5,94.422 50.4,94.647 C50.29,94.896 50.1,95.036 49.8,94.941 C49.49,94.845 49.44,94.607 49.48,94.349 C49.56,93.826 49.64,93.299 49.77,92.788 C50.17,91.229 50.11,89.637 50.1,88.053 C50.09,86.905 49.94,85.757 49.9,84.608 C49.83,82.893 49.27,81.326 48.41,79.879 C47.85,78.927 47.84,77.935 47.88,76.91 C47.9,76.492 48.17,76.411 48.64,76.524" id="Fill-2366"></path>
            <path d="M34.55,50.035 C34.38,50.471 34.13,50.556 33.77,50.505 C31.56,50.188 29.34,49.884 27.13,49.578 C26.88,49.544 26.63,49.511 26.39,49.509 C25.32,49.499 24.38,49.083 23.46,48.622 C23.29,48.535 23.13,48.254 23.12,48.057 C23.11,47.708 23.42,47.595 23.71,47.624 C24.27,47.676 24.83,47.768 25.38,47.849 C27.07,48.094 28.76,48.338 30.45,48.59 C31.12,48.692 31.8,48.789 32.47,48.933 C33.24,49.1 33.89,49.524 34.55,50.035" id="Fill-2367"></path>
            <path d="M36.9,47.708 C36.46,47.739 36.24,47.813 36.05,47.758 C35.3,47.539 34.58,47.248 33.83,47.043 C32.3,46.622 30.75,46.25 29.22,45.835 C28.65,45.681 28.09,45.485 27.54,45.26 C27.28,45.151 27.08,44.909 27.21,44.578 C27.35,44.234 27.57,43.978 27.99,44.072 C29.45,44.395 30.92,44.666 32.36,45.068 C33.36,45.349 34.26,45.916 35.29,46.194 C35.71,46.311 36.1,46.648 36.46,46.938 C36.63,47.071 36.69,47.33 36.9,47.708" id="Fill-2368"></path>
            <path d="M39.45,45.038 C39.08,45.038 38.67,45.116 38.3,45.025 C36.45,44.574 34.62,44.085 32.79,43.589 C32.53,43.517 32.25,43.38 32.06,43.191 C31.91,43.041 31.79,42.74 31.84,42.551 C31.88,42.363 32.14,42.125 32.33,42.096 C32.69,42.043 33.09,42.064 33.44,42.165 C34.19,42.382 34.91,42.678 35.64,42.927 C36.14,43.096 36.64,43.273 37.16,43.389 C38,43.579 38.73,43.97 39.38,44.524 L39.5,44.759 C39.52,44.81 39.48,44.876 39.45,45.038" id="Fill-2369"></path>
            <path d="M43.32,42.383 C43.37,42.917 43.19,43.118 42.75,43.141 C41.38,43.212 40.1,42.841 38.84,42.371 C38.38,42.198 37.95,41.934 37.48,41.767 C37.1,41.629 36.89,41.422 36.97,41.009 C37.05,40.6 37.34,40.404 37.82,40.511 C38.24,40.607 38.64,40.782 39.06,40.918 C40.18,41.287 41.31,41.65 42.43,42.025 C42.72,42.123 43,42.256 43.32,42.383" id="Fill-2370"></path>
            <path d="M47.84,41.482 C47.5,41.589 47.4,41.66 47.33,41.638 C46.11,41.268 44.83,41.121 43.69,40.491 C43.53,40.4 43.31,40.348 43.21,40.211 C43.1,40.059 43.01,39.802 43.07,39.643 C43.12,39.482 43.35,39.345 43.53,39.273 C43.66,39.222 43.85,39.262 43.99,39.318 C44.94,39.7 45.9,40.057 46.82,40.507 C47.18,40.681 47.43,41.076 47.84,41.482" id="Fill-2371"></path>
            <path d="M78.33,72.248 C77.18,72.424 75.26,71.525 74.76,70.6 C74.99,70.208 75.29,70.043 75.75,70.283 C76.4,70.629 77.08,70.952 77.73,71.31 C78.11,71.517 78.09,71.54 78.33,72.248" id="Fill-2372"></path>
            <path d="M74.31,78.125 C74.83,77.487 74.83,77.485 75.33,77.856 C75.82,78.226 76.33,78.582 76.8,78.977 C77.05,79.185 77.24,79.462 77.48,79.729 C76.49,80.185 75.41,79.62 74.31,78.125" id="Fill-2373"></path>
            <path d="M77.8,76.232 C77.34,76.232 76.99,76.29 76.68,76.219 C76.1,76.091 75.53,75.913 74.98,75.699 C74.83,75.64 74.66,75.382 74.67,75.218 C74.67,75.05 74.86,74.874 74.99,74.727 C75.04,74.671 75.17,74.676 75.26,74.665 C75.98,74.578 77.3,75.335 77.8,76.232" id="Fill-2374"></path>
            <path d="M53.03,40.656 C52.63,40.688 52.41,40.766 52.24,40.707 C51.68,40.515 51.14,40.281 50.6,40.047 C50.29,39.912 49.94,39.78 50.07,39.316 C50.17,38.963 50.65,38.722 51.06,38.883 C51.86,39.19 52.48,39.712 53.03,40.656" id="Fill-2375"></path>
            <path d="M75.09,66.664 C75.47,66.207 75.84,66.087 76.32,66.422 C76.75,66.72 77.22,66.965 77.64,67.273 C77.87,67.446 78.05,67.701 78.33,68.01 C78.02,68.096 77.81,68.222 77.63,68.187 C76.87,68.036 75.52,67.221 75.09,66.664" id="Fill-2376"></path>
            <path d="M75.7,63.204 C75.82,62.826 76.12,62.666 76.48,62.699 C77.26,62.77 77.97,63.022 78.58,63.559 C77.75,64.268 76.45,64.092 75.7,63.204" id="Fill-2377"></path>
            <path d="M57.85,40.844 C57.25,40.526 56.76,40.29 56.29,40.005 C56,39.825 55.85,39.491 56.1,39.216 C56.25,39.051 56.59,38.95 56.82,38.993 C57.41,39.104 57.9,39.935 57.85,40.844" id="Fill-2378"></path>
            <path d="M78.89,61.886 C78.31,61.832 77.76,61.821 77.23,61.708 C77.06,61.672 76.86,61.384 76.82,61.185 C76.77,60.854 77.06,60.629 77.34,60.656 C77.69,60.69 78.03,60.871 78.37,61.006 C78.67,61.123 78.94,61.271 78.89,61.886" id="Fill-2379"></path>
            <path d="M76.7,57.487 C77.12,57.658 77.48,57.762 77.79,57.947 C77.93,58.033 77.99,58.275 78.08,58.446 C77.87,58.526 77.65,58.696 77.46,58.665 C77.13,58.614 76.8,58.472 76.52,58.297 C76.38,58.207 76.23,57.947 76.26,57.798 C76.29,57.666 76.55,57.582 76.7,57.487" id="Fill-2380"></path>
            <path d="M76.21,52.203 C75.58,52.622 75.03,52.306 74.51,52.232 C74.31,51.838 74.48,51.633 74.76,51.511 C75.12,51.352 75.78,51.66 76.21,52.203" id="Fill-2381"></path>
            <path d="M78.14,104.59 C77.98,104.724 77.84,104.832 77.75,104.914 C75.79,103.118 73.85,101.38 71.96,99.595 C71.15,98.83 70.44,97.962 69.67,97.151 C69.31,96.768 68.91,96.415 68.54,96.035 C67.74,95.204 66.95,94.366 66.16,93.53 L66.04,93.386 C65.2,92.006 63.92,91.056 62.77,89.981 C62.58,89.802 62.58,89.801 62.54,89.228 C63.22,89.334 63.74,89.742 64.18,90.21 C65.7,91.813 67.19,93.451 68.72,95.051 C70.43,96.855 72.17,98.646 73.92,100.416 C75.17,101.678 76.47,102.895 77.74,104.135 C77.87,104.262 77.98,104.41 78.14,104.59" id="Fill-2382"></path>
            <path d="M73.04,102.436 C72.78,102.314 72.47,102.245 72.27,102.062 C71.64,101.507 71.06,100.909 70.46,100.327 C70.05,99.938 69.64,99.556 69.25,99.157 C68.45,98.338 67.6,97.557 66.87,96.675 C65.54,95.059 63.91,93.74 62.5,92.203 C62.2,91.871 62.04,91.611 62.61,91.287 C63.13,91.79 63.69,92.284 64.19,92.82 C65.35,94.035 66.46,95.291 67.63,96.492 C69.24,98.144 70.88,99.76 72.5,101.392 C72.75,101.642 73,101.897 73.24,102.15 C73.17,102.245 73.11,102.341 73.04,102.436" id="Fill-2383"></path>
            <path d="M68.53,102.255 C67.31,101.983 67.12,100.655 66.2,100.074 C66.16,100.287 66.13,100.425 66.11,100.529 C64.32,99.189 62.52,97.845 60.7,96.483 C61.03,96.098 61.36,96.283 61.63,96.464 C62.28,96.898 62.89,97.372 63.52,97.836 C63.85,98.084 64.17,98.344 64.62,98.477 C64.54,98.368 64.47,98.242 64.38,98.152 C63.67,97.502 62.95,96.858 62.24,96.213 C62.13,96.109 61.96,96.027 61.9,95.897 C61.84,95.756 61.82,95.513 61.9,95.42 C61.99,95.32 62.22,95.309 62.38,95.327 C62.49,95.339 62.58,95.469 62.67,95.557 C64.09,96.992 65.54,98.407 66.93,99.877 C67.51,100.499 67.98,101.238 68.49,101.929 C68.53,101.989 68.51,102.095 68.53,102.255" id="Fill-2384"></path>
            <path d="M14.76,67.252 C15.43,67.331 16.04,67.425 16.66,67.471 C18.34,67.596 20.03,67.669 21.71,67.82 C25,68.117 28.3,68.44 31.59,68.78 C32.58,68.883 33.56,69.076 34.62,69.24 C34.73,69.634 34.85,70.073 34.96,70.486 C34.6,70.891 34.19,70.841 33.79,70.777 C32.77,70.617 31.76,70.415 30.73,70.295 C29.34,70.132 27.94,70.045 26.54,69.898 C25.33,69.772 24.12,69.628 22.92,69.455 C22.18,69.349 21.46,69.249 20.7,69.296 C19.77,69.353 18.83,69.165 17.9,69.118 C17.19,69.081 16.44,68.958 15.77,69.124 C14.74,69.379 14.03,68.851 13.27,68.397 C12.98,68.22 12.95,67.621 13.15,67.182 C14.11,65.047 14.44,62.845 13.84,60.548 C13.32,58.518 14.08,58.235 15.58,57.866 C16.11,57.735 16.7,57.727 17.25,57.806 C20.4,58.262 23.55,58.732 26.69,59.256 C28.04,59.482 29.37,59.857 30.71,60.149 C31.9,60.408 33.09,60.657 34.28,60.888 C34.96,61.02 35.52,61.337 35.88,61.926 C36,62.127 36.03,62.513 35.91,62.683 C35.8,62.852 35.42,62.967 35.2,62.917 C33.4,62.516 31.63,62.031 29.83,61.65 C27.88,61.238 25.91,60.888 23.95,60.552 C22.07,60.232 20.19,59.948 18.3,59.68 C17.47,59.562 16.63,59.471 15.79,59.462 C15.17,59.455 15.03,59.665 15.1,60.294 C15.16,60.908 15.31,61.515 15.33,62.129 C15.4,63.785 15.3,65.428 14.76,67.019 C14.73,67.124 14.76,67.252 14.76,67.252" id="Fill-2385"></path>
        </g>
    </g>
</svg>