<?xml version="1.0" encoding="UTF-8"?>
<svg width="248px" height="141px" viewBox="0 0 248 141" version="1.1" xmlns="http://www.w3.org/2000/svg" xmlns:xlink="http://www.w3.org/1999/xlink">
    <!-- Generator: Sketch 51.2 (57519) - http://www.bohemiancoding.com/sketch -->
    <title>Artboard</title>
    <desc>Created with Sketch.</desc>
    <defs></defs>
    <g id="Artboard" stroke="none" stroke-width="1" fill="none" fill-rule="evenodd">
        <path d="M29.250637,64.4688776 C29.4075036,64.1332075 29.6482989,63.8799827 30,63.7376664 C29.6972573,62.9298989 29.1856922,62.7758047 28.5112654,63.323477 C27.9077784,63.8132413 27.3742319,64.3883953 26.7487636,64.8487148 C21.2684218,68.8797007 16.2426937,73.4240066 11.2829095,78.0429058 C10.908228,78.3913353 10.5944947,78.8349695 10,78.839877 C10,79.2265847 10,79.6132923 10,80 C10.5775091,79.9784072 10.9182195,79.588755 11.312884,79.2422885 C12.1891392,78.4737806 12.923515,77.5492156 13.9456462,76.9436353 C18.8584703,72.562257 23.8012689,68.2152309 29.250637,64.4688776" id="Fill-12" fill="#000000"></path>
        <path d="M204.755117,57.4107471 C203.274127,56.8424475 201.813151,56.3062212 200.612349,55.231764 C199.631694,54.3587676 199.601674,54.291614 199.70174,52.4684446 C201.763118,52.8322767 203.474261,53.8465963 205.365524,54.373802 C208.617697,55.2838832 211.389549,54.3026392 213.991287,52.4273507 C214.191421,52.2840229 214.311501,52.0384613 214.461602,51.8540396 C214.031314,51.1905222 213.430913,51.0922976 212.880545,51.3569027 C209.728439,52.8583363 206.64638,52.3381467 203.574328,51.1103388 C202.663719,50.7465068 201.783131,50.3225372 200.772456,50.2844501 C200.212081,50.263402 199.76178,49.9095929 199.741767,49.2841626 C199.721754,48.6286635 199.801807,47.9410911 200.252108,47.4409474 C200.572322,47.0901451 200.982596,47.4339313 201.342837,47.5652316 C204.935237,48.8982801 208.597684,49.1628852 212.340184,48.3329874 C214.321508,47.8949857 215.482283,47.1663193 216.532985,45.6187803 C215.952598,45.0454692 215.262136,45.123648 214.571675,45.2900285 C211.889883,45.9395138 209.178072,46.1590158 206.416226,46.0948691 C204.795143,46.056782 203.344174,45.4985053 201.863184,45.027428 C200.432228,44.5743919 199.781794,43.5249921 199.911881,42.0155401 C199.961914,41.4332084 200.011948,40.851879 200.061981,40.3056298 C200.612349,40.0941462 201.072656,40.2936023 201.462917,40.4900515 C204.554983,42.0456089 207.897216,42.0907121 211.239449,42.1839252 C213.761134,42.2540857 215.64239,41.126507 216.993293,39.043744 C217.21344,38.7139899 217.503634,38.3511602 217.173413,37.9953465 C216.863206,37.6716061 216.422912,37.8740691 216.062671,37.9813144 C215.872544,38.0344358 215.692424,38.1466926 215.55233,38.2769905 C214.381548,39.3785096 212.870539,39.6671697 211.379542,39.7293118 C207.837176,39.8786533 204.334836,39.5488992 201.012616,38.1406788 C200.592335,37.9642754 200.352175,37.7718353 200.422222,37.2877282 C200.552309,36.3175094 200.672389,35.3452861 200.812482,34.2618083 C202.353512,34.8250965 203.744441,35.5407331 205.205417,36.0769593 C206.886541,36.6943713 208.557657,36.7675386 210.228774,36.4177387 C212.600358,35.9246109 214.981949,35.4114374 216.953266,33.8448548 C217.053333,33.7646714 217.18342,33.7205706 217.293493,33.6594308 C218.914577,32.7954549 219.504971,33.0410165 219.484958,34.8230919 C219.444931,40.6524229 219.775152,46.4907745 219.194764,52.3090802 C219.074684,53.4547001 218.374216,54.4650106 218.384222,55.6837978 C218.394229,56.1598865 217.763808,56.5116911 217.283487,56.7261816 C213.200759,58.5513555 209.047985,59.0695405 204.755117,57.4107471 Z M194.858505,29.3295288 C192.707067,28.7181306 190.625677,27.669733 189.194721,25.6962199 C188.68438,24.9835902 188.404192,24.2759719 188.184045,23.1744529 C189.725075,23.8329588 191.015937,24.3972493 192.316806,24.9374847 C195.318812,26.1853384 198.410878,26.7305853 201.693071,26.3437006 C203.124027,26.1753155 204.144709,25.1810417 205.485605,24.9094206 C205.765792,24.8542945 206.075999,24.5516023 206.025966,24.1717336 C205.975932,23.7978786 205.655718,23.6575577 205.315491,23.6154614 C204.935237,23.5673514 204.514956,23.4831589 204.144709,23.5633422 C198.921219,24.687914 194.17805,23.2265721 189.584981,20.9072681 C189.224741,20.7278578 188.874507,20.5725026 188.604326,20.2658012 C188.224072,19.8197812 187.673704,19.3336695 188.083979,18.7302896 C188.514266,18.0838112 188.994587,18.7182621 189.434881,18.9137091 C193.93789,20.9393415 198.621018,21.3372514 203.454247,20.5073536 C204.034635,20.4071244 204.62503,20.3499937 205.205417,20.333957 C205.975932,20.3119066 206.386206,19.8749072 206.656387,19.2164013 C206.946581,18.5067785 206.806487,18.1118754 205.965926,18.0146531 C204.194742,17.8091832 202.433566,17.952511 200.682396,18.1339258 C196.679721,18.5468702 192.877181,17.8362451 189.254761,16.1092958 C188.214065,15.609152 188.144019,15.1380747 188.644353,13.2307128 C190.64569,14.35328 192.586987,15.3615858 194.718411,15.7444614 C198.000604,16.3338092 201.312817,16.7086664 204.605016,15.7143927 C205.445578,15.461815 206.516293,15.1581205 206.40622,14.2590645 C206.256119,13.0793667 204.965257,13.2718068 204.134702,13.3680268 C202.513619,13.5544531 200.922556,13.8210628 199.271453,13.6276205 C197.780457,13.4522193 196.189394,13.6586915 194.788458,13.2337197 C192.63702,12.5832321 190.46557,11.8114671 188.874507,10.0293918 C188.424206,9.51922507 188.314132,9.02609735 188.604326,8.39866248 C189.094654,8.15009404 189.474908,8.55201318 189.825142,8.72140055 C195.198732,11.2992959 200.832496,11.2852638 206.546313,10.5205149 C208.937911,10.1987791 209.268132,10.3461161 208.927904,12.7726653 C208.387543,16.6134487 208.60769,20.4863054 208.18741,24.324082 C208.137376,24.7791226 208.047316,25.230154 207.967263,25.6811855 C207.546982,28.091698 206.126032,29.470852 203.734435,29.9760072 C200.702409,30.6164719 197.730423,30.1403831 194.858505,29.3295288 Z M197.660377,38.9395056 C197.630356,39.6401078 196.959909,39.8736419 196.409541,40.0289972 C192.146693,41.2307454 187.863831,41.963421 183.43087,40.9250463 C181.059285,40.3687742 178.877828,39.3795119 176.796437,38.1657361 C175.885829,37.6365259 175.325455,36.8747839 175.655675,35.7091181 C175.775755,35.2891577 175.765749,34.8301079 175.825789,34.1585722 C180.498911,36.8467197 185.342147,37.8089201 190.475576,37.853021 C192.446893,37.8700599 194.198063,37.5543379 195.949233,36.7454882 C196.469581,36.5029335 197.069982,36.4347776 197.720417,36.2633857 C198.120684,37.1834898 197.700403,38.0695161 197.660377,38.9395056 Z M196.889862,44.9061506 C193.127348,46.9327853 189.164701,48.0172654 184.861826,47.3958442 C182.190041,47.0129686 179.658349,46.2552358 177.266751,44.9903432 C176.055943,44.3518831 175.315448,43.5570654 175.635662,42.0826937 C175.735729,41.6446921 175.695702,41.1776239 175.745735,40.4008475 C176.926524,40.9771655 177.847139,41.4291993 178.767754,41.8802307 C184.351485,44.6074676 190.035282,44.8921185 195.83916,42.6499911 C196.349501,42.4515372 196.879855,41.8651963 197.380189,42.5998764 C197.760443,43.1571509 197.47025,44.5944378 196.889862,44.9061506 Z M196.609675,51.5533519 C195.619013,52.9545563 194.438224,53.8876903 192.707067,54.195394 C191.366171,54.4329372 190.065302,54.9260649 188.734413,55.2067067 C187.033277,55.564525 185.352153,55.0152689 183.711057,54.7516661 C181.029265,54.3226851 178.397507,53.5819912 176.025922,52.1086218 C175.305441,51.6626018 174.835127,51.2115703 175.085294,50.4267756 C175.435528,49.3112245 174.725053,48.0553525 175.605642,46.9337876 C176.256076,47.2535188 176.966551,47.4650024 177.506912,47.8939834 C179.348142,49.3663505 181.599646,49.5367402 183.76109,49.9687281 C187.253424,50.6663234 190.64569,49.9907785 194.017943,49.1127706 C194.578317,48.9674383 195.118678,48.6847919 195.609006,48.3630561 C196.299467,47.9020018 196.689728,48.1285198 196.949902,48.8100784 C197.310143,49.7782926 197.270116,50.627234 196.609675,51.5533519 Z M192.27678,60.4807678 C188.574306,61.7316284 184.811792,61.9080318 181.099312,60.8706595 C179.047942,60.299353 177.166685,59.146717 175.465548,57.7916181 C174.404839,56.9406721 174.655007,55.8662149 174.985227,54.528155 C178.487567,56.3072235 182.029934,57.3957127 185.872501,57.7405012 C189.865169,58.0983195 193.077315,56.0646688 196.639695,54.8188197 C196.309474,58.1434226 195.128685,59.520572 192.27678,60.4807678 Z M178.317453,27.0523211 C180.19871,25.8626004 182.340141,25.5659219 184.461558,25.182044 C185.132006,25.0627712 185.412193,25.3724795 185.722401,25.8375431 C186.422869,26.8658948 187.08331,27.9082786 188.013932,28.7702498 C190.195389,30.7948799 192.817141,31.8913875 195.669046,32.5128086 C196.16938,32.6230607 196.729755,32.5599163 197.089995,33.200381 C195.789126,34.2547923 194.168043,34.7028168 192.617007,34.8170781 C187.713731,35.1748964 182.950549,34.4131544 178.457547,32.291302 C177.416852,31.797172 176.206043,31.3180764 176.176023,29.8707665 C176.146003,28.4014063 177.256745,27.7238568 178.317453,27.0523211 Z M190.055296,3.4242867 C191.296125,2.79584954 192.63702,2.81890226 193.887856,2.87001916 C197.850504,3.0303859 201.813151,3.40925232 205.545645,4.95979822 C206.73644,5.45392824 207.697082,6.14651209 208.297483,7.60284254 C203.434234,8.66928136 198.721085,8.93990023 194.02795,7.67801445 C192.536954,7.2770976 191.055964,6.6667017 189.795122,5.70249668 C188.474239,4.68517018 188.594319,4.16999204 190.055296,3.4242867 Z M210.438914,26.9961927 C210.589014,26.2134026 211.149389,26.0289809 211.68975,26.0029213 C214.081347,25.8916668 216.402898,26.1141757 218.214109,27.9734276 C219.304837,29.0849695 219.354871,29.2563615 218.084022,30.2416146 C216.322845,31.6007227 214.431581,32.7713999 212.290151,33.4429357 C211.539649,33.6764697 210.779141,33.85588 210.018633,34.0463155 C208.087343,34.5334295 206.3762,33.9320542 204.615023,33.0360051 C205.135371,32.4636963 205.675732,32.3774991 206.146046,32.267247 C207.116694,32.0397267 207.857189,31.4614041 208.357523,30.7187057 C209.138045,29.5380056 210.14872,28.4404957 210.438914,26.9961927 Z M152.319084,60.1299656 C151.851772,60.2191696 151.228355,60.1901031 151.019215,59.8663628 C150.263711,58.700697 148.789726,57.8858336 149.06591,56.1809347 C149.241027,55.1034706 149.392128,54.0079653 150.38179,52.9204784 C150.633958,53.9708805 151.07025,54.4690197 152.017883,54.6905263 C153.014549,54.923058 153.73503,55.8371485 154.372456,56.6770693 C154.518553,56.8685071 154.625625,57.1471443 154.620622,57.3826829 C154.599607,58.2737206 153.165649,59.9685966 152.319084,60.1299656 Z M146.19199,57.6583132 C145.948828,58.1835143 145.514538,58.2175922 145.05423,58.2286175 C143.498191,58.2626954 141.95616,58.4821974 140.38411,58.3488925 C137.182971,58.0762691 133.995842,58.6165045 130.795704,58.6565962 C127.591563,58.6976902 124.407436,58.4992363 121.219306,58.2205991 C120.199625,58.1313951 119.75833,57.4007242 119.317035,56.7081403 C118.908762,56.0686779 117.893084,55.5003783 118.190282,54.7917578 C118.578542,53.8656399 119.702292,54.3888363 120.502827,54.3437332 C121.675611,54.2775819 122.855399,54.3266942 124.031185,54.3266942 C127.63159,54.0400387 131.202976,54.899003 134.802381,54.672485 C137.801385,54.4850564 140.808394,54.4189051 143.807397,54.2284696 C146.754366,54.041041 147.429817,54.9831956 146.19199,57.6583132 Z M127.327387,73.519586 C127.209308,76.2398068 126.08956,78.6272667 124.213306,80.6178188 C123.220643,81.6702255 122.730316,81.8195671 121.019172,81.7854891 C121.73465,80.3451953 123.082551,79.404043 123.821044,78.0188753 C125.598232,74.6832472 125.847398,70.6981337 123.375747,67.4918012 C122.934452,66.9194924 122.400095,66.4363876 121.744657,66.0966106 C121.407432,65.9222118 121.119239,65.9522805 120.849059,66.1988444 C120.579879,66.4454082 120.546857,66.743089 120.634916,67.0938912 C120.772007,67.6321221 121.159266,68.0089839 121.488486,68.4028848 C123.43979,70.7342162 123.08155,73.2168938 122.027846,75.7577043 C120.668938,79.0362018 118.345386,81.1109465 114.755988,81.6191086 C114.240644,81.692276 113.734305,81.8386106 113.225966,81.9568811 C112.57353,82.1102318 111.81102,82.2535595 112.047178,83.1666477 C112.240307,83.9133553 112.759654,84.4445701 113.656253,84.2180521 C115.053186,83.864243 116.526171,83.9163622 117.892083,83.4021863 C118.135246,83.3109777 118.386413,83.2217737 118.641584,83.1826843 C118.93478,83.1375812 119.134913,83.3089731 119.240984,83.5775874 C119.390084,83.9564539 119.061865,84.0286189 118.847722,84.1078 C117.85706,84.4686251 116.84038,84.7161913 115.77667,84.7071706 C114.963126,84.7001546 114.333706,84.982801 114.239643,85.8738387 C114.165593,86.5774477 114.893079,87.1647909 115.862727,87.2048826 C117.586879,87.2750431 119.247989,87.0074311 120.718972,86.0672811 C122.016839,88.070863 121.799694,90.6878477 120.120572,92.1993042 C118.448455,93.7027424 116.52517,94.7310941 114.213625,95.0357909 C110.80735,95.4858201 107.446104,95.6221318 104.095866,94.6579268 C103.375384,94.4504523 102.673916,94.2038885 101.983454,93.931265 C101.978451,93.90721 101.973448,93.883155 101.967444,93.8591 C101.935422,93.8540885 101.904402,93.8510816 101.87238,93.8470725 C101.818344,93.8390541 101.765309,93.8300335 101.711273,93.8220152 C100.859704,93.4762244 100.024145,93.0903419 99.1935905,92.682409 C97.4944553,91.8495043 96.7319459,90.1556306 96.3086631,88.6572039 C95.9274084,87.3051118 96.3356812,85.5701442 97.1822468,84.0536762 C98.9684401,85.1381563 100.740624,86.0392169 102.654903,86.7057411 C104.025819,87.1828322 105.367715,86.7448305 106.697604,87.0435136 C107.165917,87.147752 107.369053,86.7217778 107.477125,86.3248701 C107.596204,85.8858662 107.394069,85.4789356 107.049839,85.3195711 C106.224288,84.9366955 105.421752,84.5177374 104.510143,84.2942263 C101.143894,83.4673353 98.3820484,81.7453974 96.5248075,78.700434 C96.1075287,78.017873 96.0064612,77.6009195 96.405728,76.8010904 C97.2192715,75.1723657 98.1408872,73.5807258 98.7072656,71.8277169 C98.9304147,71.1361354 99.3496948,70.5578128 100.411404,70.472618 C99.5298152,73.2970772 98.1548966,75.8318739 97.7456232,78.7194775 C98.4961246,79.0492316 98.6792469,78.4588816 98.8553646,78.0198776 C99.5628372,76.2578481 100.229282,74.4787796 100.911738,72.7067271 C101.261972,71.7976482 101.623214,70.8925784 101.963441,69.9794903 C102.287658,69.1054915 102.849033,68.5883088 103.998801,68.5973294 C103.300334,71.484933 102.164575,74.1420094 101.070845,76.9444182 C102.118545,76.9544411 102.304669,76.3540681 102.481787,75.9401215 C103.422416,73.746104 104.511143,71.6092172 104.978455,69.2287735 C105.347702,67.3554895 105.637896,67.0838683 107.586198,66.0956083 C107.936432,66.6919721 107.659246,67.2071503 107.412081,67.7423742 C106.863715,68.9290881 106.310345,70.1097882 105.930091,71.3736786 C105.740965,72.0021158 105.634894,72.5894589 105.761979,73.2178961 C107.031827,70.7723033 108.273657,68.3116762 109.331364,65.7648519 C109.682598,64.9199196 110.057849,64.156173 110.786336,63.517713 C111.931101,62.5134163 112.537506,61.102189 113.102883,59.7140144 C113.626233,58.4310805 113.175932,57.1681924 112.861722,55.9163295 C111.419759,54.219449 110.731299,54.0260066 106.400405,54.1232289 C106.768651,52.9886343 107.279993,51.9221954 107.366051,50.7244564 C107.421087,49.9627144 107.943436,49.6229373 108.729962,49.6299534 C111.001479,49.6510015 113.272997,49.6379717 115.798684,49.6379717 C114.997149,51.3508889 114.552852,52.8242584 115.204287,54.3798157 C115.848718,55.2818786 116.074869,56.3773839 116.643249,57.3405866 C118.046186,59.7190258 119.940452,61.514131 122.166939,63.0967503 C125.712308,65.617515 127.518515,69.1395695 127.327387,73.519586 Z M128.303039,80.4253787 C129.21765,80.4594566 130.133261,80.4333971 131.219987,80.4333971 C130.696638,82.7326552 128.445134,83.5575416 126.859074,82.2976604 C126.530855,82.0380667 126.556872,81.7293608 126.742996,81.4376938 C127.104238,80.8713987 127.525519,80.3973145 128.303039,80.4253787 Z M129.42779,73.8272897 C129.523854,72.9332451 130.003175,72.5303237 130.826725,72.538342 C131.589234,72.5463604 132.440803,72.2927805 133.090237,72.8089609 C133.610585,73.2219053 134.244008,72.8580732 134.817391,73.2188984 C134.370092,74.3304403 133.982833,75.4189296 133.496508,76.4613134 C133.057215,77.4014634 132.430796,78.0529533 131.202976,77.7131762 C130.469486,77.5097109 129.650939,77.7853413 128.877422,77.475633 C129.066549,76.2518343 129.297703,75.0450746 129.42779,73.8272897 Z M129.93613,68.5371919 C132.791037,67.974906 135.663957,68.2304905 138.529871,68.3617908 C141.524872,68.4981025 144.537885,68.6835265 147.496862,69.0112761 C149.923483,69.2808926 152.486196,68.8398841 154.815752,69.9333848 C154.929828,69.9875086 155.09694,70.0546622 155.190002,70.0105613 C156.927163,69.182668 158.647312,70.1919762 160.400483,70.0857332 C161.776402,70.002543 163.211361,70.537767 164.653324,70.5748518 C169.131316,70.6901154 173.274084,72.2777461 177.476892,73.5636869 C180.208717,74.3975939 182.880502,75.3948746 185.402187,76.7189025 C186.773103,77.434539 187.913865,78.5250329 189.534948,78.8277251 C190.255429,78.9610299 190.775777,79.7358017 191.306131,80.3351724 C192.27678,81.4407006 192.997261,82.8308798 194.538291,83.3159892 C196.369514,85.7645888 198.741099,87.8613839 199.421553,91.03865 C199.881861,93.1484749 200.071988,95.2582998 200.081994,97.3741384 C200.432228,100.848083 200.001941,104.37114 199.011279,107.728818 C199.061313,107.73383 199.111346,107.740846 199.171386,107.751871 C198.661045,109.085922 198.280791,110.454051 197.640363,111.684865 C197.340163,112.267197 197.029955,112.84552 196.709741,113.420835 C196.659708,113.521064 196.609675,113.620291 196.559641,113.719518 C196.539628,113.751592 196.519614,113.776649 196.499601,113.804713 C195.368846,115.842373 194.138023,117.818893 192.647027,119.644067 C191.686385,120.832785 190.58565,121.812025 189.314801,122.626888 C188.934547,123.217238 188.524273,123.77752 187.713731,123.748453 C187.543618,123.889776 187.373504,124.030097 187.20339,124.171421 C186.142682,125.462373 184.631672,126.183021 183.240743,126.980845 C178.577627,129.661977 173.734392,131.920141 168.400828,133.042708 C166.558597,133.430595 164.767401,134.118168 162.902154,134.480997 C158.39014,135.878192 153.73503,136.526675 149.083922,137.251333 C143.60226,138.106288 138.113593,138.398957 132.603912,138.385927 C131.587233,138.665567 130.492501,138.580372 129.452807,138.497182 C128.126921,138.389937 126.864077,138.507205 125.543195,138.500189 C125.541193,138.500189 125.539192,138.500189 125.538191,138.500189 C125.240993,138.498184 124.943794,138.49217 124.647596,138.484152 C124.589558,138.482147 124.530518,138.481145 124.472479,138.479141 C124.182286,138.47012 123.892092,138.460097 123.601898,138.450074 C122.699295,138.418001 121.796692,138.385927 120.890086,138.412989 C119.238983,138.462102 117.591883,138.535269 115.942781,138.424014 C115.895749,138.421008 115.852721,138.410985 115.809692,138.401964 C110.207949,138.532262 104.125886,138.680601 102.5008,138.637503 C102.451767,138.635498 102.403735,138.633494 102.355703,138.632491 C102.3507,138.631489 102.345696,138.631489 102.341694,138.631489 C100.289323,138.561328 98.195924,138.471122 96.1025254,138.366884 C96.3867153,137.294431 96.6218724,136.208949 96.9090642,135.136496 C96.946089,135.001187 96.9841144,134.865877 97.0221398,134.730568 C98.5871854,134.689474 100.104199,134.75763 101.67725,134.940047 C105.214613,135.350987 108.737967,135.577505 112.296345,135.551445 C113.799349,135.541422 115.324368,135.50534 116.823369,135.538415 C117.700955,135.557459 118.562531,135.654681 119.394087,135.497321 C120.965136,135.600558 122.538187,135.665707 124.118243,135.565477 C126.121581,135.438186 128.126921,135.319916 130.133261,135.268799 C132.102577,135.219687 134.027863,134.922006 135.963156,134.576215 C138.145615,134.186323 140.374103,134.062039 142.559564,133.687182 C145.887787,133.116878 149.287058,132.991591 152.530225,131.84998 C153.984196,131.338811 155.631297,131.409974 157.14831,131.038124 C159.459855,130.471829 161.724368,129.711089 164.076939,129.300149 L164.076939,129.301152 C165.93418,128.706792 167.79042,128.13749 169.491557,127.119162 C170.031918,126.795421 170.772413,126.827495 171.3528,126.550862 C174.444866,125.07649 177.536932,123.599112 180.248744,121.446188 C181.73974,121.259762 182.420195,119.970814 183.40085,119.088797 C185.031939,117.684586 186.562962,116.19518 187.913865,114.49429 C189.825142,112.079768 191.516272,109.547979 192.787121,106.739556 C193.017274,105.977814 193.247428,105.218077 193.467575,104.455332 C193.437555,104.361117 193.427549,104.257881 193.437555,104.137606 C193.577649,102.518904 193.727749,100.868129 193.807803,99.2123422 C193.607669,99.1101084 193.447562,98.9808127 193.577649,98.7562993 C193.657702,98.6310128 193.747763,98.6390311 193.827816,98.7021755 C194.017943,94.0986478 193.677716,89.4620445 191.586318,85.2995253 C191.546292,85.2313694 191.526278,85.1642159 191.506265,85.0980646 C191.236084,84.7101775 190.945891,84.3262996 190.655697,83.9494378 C188.724406,81.4256663 185.922534,79.8871478 183.110656,78.4558747 C180.238737,77.0035534 177.316785,75.7055851 174.344799,74.4878002 C172.473549,73.7190421 170.482219,73.3281482 168.520908,72.9993964 C164.464198,72.3198424 160.407488,71.5691256 156.292739,71.2684379 C152.579258,70.9968168 148.848765,70.8825555 145.151295,70.4686088 C140.635278,69.961449 136.116259,70.3393131 131.605245,70.1248226 C131.017852,70.0977607 130.427458,70.0296049 129.852074,69.9163459 C129.447803,69.8381671 129.108577,69.563539 129.095568,69.1205259 C129.078557,68.5612469 129.567884,68.6093569 129.93613,68.5371919 Z M67.003084,136.062614 C62.3509759,135.336955 57.6958658,134.688472 53.1838513,133.292279 C51.3186051,132.929449 49.5284091,132.240874 47.6841769,131.852987 C42.3556169,130.73042 37.5093791,128.472256 32.8442623,125.791125 C31.4563351,124.9933 29.9483275,124.272652 28.8806142,122.982702 C28.7115012,122.841379 28.5413876,122.700056 28.3722746,122.558733 C27.5577304,122.587799 27.1554616,122.027518 26.7742069,121.437168 C25.5013565,120.623306 24.4006211,119.644067 23.434976,118.455349 C21.9519852,116.629172 20.7171602,114.652652 19.5844034,112.614992 C19.5663913,112.586928 19.546378,112.561871 19.5293666,112.5308 C19.4773318,112.431573 19.4262977,112.331344 19.3752636,112.231115 C19.0600531,111.655799 18.7508465,111.077476 18.4476439,110.495145 C17.8062154,109.26433 17.4259613,107.897203 16.9156203,106.56215 C16.9726585,106.551125 17.0266946,106.544109 17.0777287,106.539098 C16.0830641,103.181419 15.6587807,99.6583622 16.0010093,96.1844177 C16.011016,94.0695813 16.207147,91.9587541 16.6604499,89.8489292 C17.3449072,86.6716632 19.7174923,84.5748681 21.5437124,82.1272707 C23.087744,81.6411591 23.8132287,80.2509799 24.7838772,79.1454517 C25.3102288,78.546081 25.8275745,77.7723115 26.5470551,77.6380043 C28.1691389,77.3353121 29.312903,76.2458206 30.6808169,75.5291817 C33.210507,74.2051538 35.876288,73.2078732 38.6051112,72.3739661 C42.8139231,71.0880253 46.9536889,69.5003946 51.433682,69.385131 C52.8746447,69.3480462 54.3106041,68.8128222 55.6865233,68.8960125 C57.438694,69.0022554 59.1598439,67.9929473 60.8970045,68.8208406 C60.989066,68.8649414 61.1561776,68.7977878 61.2702538,68.7446664 C63.5998102,67.6501634 66.1625224,68.0911719 68.5901443,67.8225576 C71.5481205,67.4948081 74.5611335,67.3083818 77.5561345,67.17207 C79.755604,67.0718408 81.9590761,66.9014512 84.1545429,67.0798592 C84.2806271,67.2151686 84.4517415,67.3234161 84.6738899,67.3825514 C85.5484742,67.6170877 86.3960405,67.5820075 87.2556147,67.4687485 C87.0824991,67.5689777 86.9103841,67.6702092 86.7332658,67.765427 C86.4100498,67.9388235 86.0908366,68.0931765 85.7696219,68.2284859 C84.2876318,68.0089839 82.7756216,68.2134515 81.4687485,68.9120491 C81.3636783,68.9381087 81.2596088,68.9711844 81.1565399,69.0072669 C77.7502642,69.0172898 74.3419871,68.8970148 70.9357114,69.2788881 C67.2382411,69.693837 63.5077487,69.8080983 59.7932671,70.0787172 C55.6795186,70.3794048 51.6218077,71.1301216 47.563096,71.810678 C45.600785,72.1394298 43.6124566,72.5303237 41.7372037,73.2990818 C38.7702215,74.5158644 35.843266,75.8138327 32.9803533,77.2671563 C30.1604693,78.6984294 27.3615993,80.2369478 25.4263064,82.7597171 C25.1361125,83.1365789 24.853924,83.5204568 24.5797408,83.9083438 C24.5627294,83.9744951 24.5387134,84.042651 24.5046906,84.1108068 C22.4062887,88.2723237 22.0700641,92.9089271 22.2571891,97.5124548 C22.3422459,97.4493104 22.4283034,97.4422943 22.5053549,97.5675808 C22.6414458,97.791092 22.4793375,97.9203876 22.2812051,98.0226214 C22.3622593,99.6794103 22.5043542,101.329183 22.6524531,102.948887 C22.6634605,103.06816 22.6494511,103.172398 22.6224331,103.265612 C22.8345748,104.029358 23.0727339,104.788093 23.2948824,105.549835 L23.2948824,105.550838 C24.5697341,108.358258 26.2608639,110.890048 28.1751429,113.304569 C29.5240441,115.005459 31.052065,116.494865 32.682154,117.900079 C33.6638099,118.781094 34.3432638,120.070041 35.8412646,120.25747 C38.5480731,122.409391 41.6431409,123.88677 44.7362074,125.361141 C45.3165951,125.637774 46.0580905,125.605701 46.5974509,125.929441 C48.2935841,126.948772 50.1528262,127.518074 52.0090664,128.111431 C54.3616382,128.521368 56.6261511,129.28311 58.9386961,129.848403 C60.454709,130.220253 62.1018094,130.149091 63.5557808,130.66026 C65.9954107,131.518222 68.5210981,131.802873 71.0397809,132.133629 C71.114831,132.173721 71.1988872,132.207799 71.2909487,132.232856 C73.6795445,132.879334 76.1081671,133.314329 78.5678104,133.570916 C79.3793526,133.656111 80.1918954,133.705223 81.0044383,133.741306 C81.0774871,133.758345 81.1535379,133.770372 81.2355927,133.775384 C82.789631,133.854565 84.2766245,134.240447 85.8426707,134.135206 C87.6508788,134.013929 89.4350708,134.401816 91.2222649,134.62633 C92.4510859,134.781685 93.6799068,134.819772 94.9127305,134.800728 C94.5825099,135.95136 94.2532899,137.101991 93.9250706,138.253625 C81.5287886,137.581087 69.6368436,136.472552 67.003084,136.062614 Z M95.0087947,76.082447 C94.1972525,73.6047808 94.3853782,73.186825 96.5918523,72.538342 C96.5758416,73.9686129 96.061498,75.0801548 95.0087947,76.082447 Z M137.219996,86.2587188 C141.173638,87.0124425 145.026211,87.9375581 148.693662,89.6404525 C148.980854,89.7737573 149.116945,89.9832364 149.141961,90.2067475 C149.333089,90.2879332 149.525217,90.3691188 149.716345,90.4493022 C149.85844,90.5044283 149.999534,90.5625612 150.138627,90.6277102 C151.024219,91.0366454 150.376786,92.5871913 149.472182,92.2113317 C149.389126,92.1762515 149.306071,92.1411713 149.224016,92.1060911 C148.248364,91.6660848 147.196662,91.5578373 146.148962,91.4064912 C145.045224,91.248129 143.956497,90.9644803 142.877776,90.6828363 C142.174306,90.4994168 141.470836,90.3210088 140.766365,90.1456077 C140.137946,90.0223258 139.494516,89.9561745 138.883107,89.7777665 C138.745015,89.7376748 138.628937,89.6805441 138.533874,89.6123883 C137.778369,89.4389917 137.020863,89.2726112 136.257353,89.1202628 C135.982169,89.0651368 135.707986,89.0080061 135.432802,88.9528801 C135.030533,89.0090084 134.507184,88.9208067 133.720658,88.7584354 C132.319722,88.4677707 130.920788,88.1710922 129.355742,87.8433427 C129.379758,87.8082625 129.401773,87.7751868 129.424788,87.7411089 C128.643266,87.5857536 127.87075,87.4344075 127.079221,87.3802837 C126.788026,87.5296253 126.459807,87.5095794 126.105571,87.3371852 C125.58122,87.2960912 125.083888,87.1798253 124.635588,86.8610964 C124.453467,86.7307984 124.335388,86.5734386 124.274347,86.4070581 C124.074213,86.3368976 123.868076,86.2777624 123.653933,86.2326593 C123.205633,86.1394461 122.87241,85.679394 122.870409,85.2193419 C122.867407,84.6720904 123.465807,84.5989231 123.842058,84.4145013 C124.108236,84.2832011 124.494494,84.25213 124.781686,84.3353203 C125.792361,84.6299942 126.841062,84.8214319 127.813712,85.2103213 C128.947469,85.2874978 130.082227,85.4408485 131.205978,85.5400754 C133.21432,85.7174811 135.237672,85.8798524 137.219996,86.2587188 Z M140.480174,80.8613758 C140.990515,80.8904423 141.503858,81.0147265 141.990183,81.5489482 C141.322737,82.3828552 140.646285,83.2317966 139.965831,84.0777312 C139.682641,84.4295357 139.293381,84.4335449 138.894115,84.3864372 C138.374768,84.3252973 137.852419,84.2781896 137.338075,84.1909902 C135.808053,83.9323988 134.282033,83.6557662 132.718989,83.3801359 C132.739002,82.5321967 133.182299,81.942849 133.472492,81.3053912 C133.685635,80.8373208 134.12693,80.6208257 134.604249,80.6889815 C136.558554,80.9676188 138.523867,80.7481168 140.480174,80.8613758 Z M147.684988,73.4243683 C147.378783,74.370532 146.836421,75.1914093 146.201997,75.9501444 C145.870776,76.3480544 145.374444,76.6216801 145.229347,77.1609133 C144.905131,78.3626615 144.033548,78.6002048 142.951826,78.5039847 C140.737346,78.3165561 138.525869,78.0980564 136.309388,77.9567332 C135.332735,77.8945911 135.29471,77.523743 135.56389,76.6978543 C136.754685,73.0434973 136.9268,72.8550663 140.822403,72.9462749 C142.3144,72.9813552 143.817404,72.7588463 145.307399,73.1256852 C145.900796,73.2710176 146.406133,72.7698715 146.964506,72.6425804 C147.506869,72.5182962 147.886122,72.8019449 147.684988,73.4243683 Z M160.736708,76.4342515 C159.148647,77.3854267 157.807751,78.6292712 156.44484,79.8440493 C155.578261,80.6158142 154.744704,80.9275271 153.607945,80.4764956 C151.716681,79.7277834 149.698333,79.50327 147.703,79.1925594 C146.716341,79.0382064 146.485186,78.6934179 147.047562,77.928669 C148.046229,76.5715655 149.181988,75.3166958 150.289728,74.0437848 C150.437827,73.8733951 150.755039,73.7691568 150.991197,73.7731659 C154.687666,73.8383149 158.363122,74.1339911 162.088611,74.7042953 C161.945515,75.6594797 161.291078,76.1034951 160.736708,76.4342515 Z M175.275421,83.1345743 C173.754405,83.8321696 172.113308,84.3353203 170.732386,85.3837178 C170.162005,85.8217195 169.351463,86.0071435 168.681015,85.5851785 C165.497889,83.5805943 161.829438,82.8709715 158.189006,81.6942805 C158.459186,81.026754 158.580267,80.4033283 159.235705,80.0685627 C161.182005,79.0762935 162.623969,77.451578 164.173004,75.9842223 C164.79642,75.3938723 165.332778,75.2896339 166.08328,75.4279502 C170.392159,76.2227679 174.58496,77.3673855 178.457547,79.5052746 C179.298109,79.9723427 180.318791,80.0495192 181.469559,80.9074812 C178.867821,81.0127219 177.146671,82.282626 175.275421,83.1345743 Z M130.787699,131.425009 C130.286364,130.023804 129.522854,128.717818 128.88943,127.362719 C128.53019,126.593961 128.479156,126.13892 128.785361,125.812173 C128.707309,125.339091 128.982493,124.767784 129.603908,124.718672 C132.303712,124.504182 134.895443,123.778522 137.521197,123.159105 C139.991848,122.576774 142.533546,122.358274 144.972175,121.648651 C146.150963,121.304865 147.307736,120.898937 148.472514,120.513054 C149.312075,120.234417 150.255705,119.918695 151.1453,120.150225 C152.346102,120.463942 153.395803,121.177574 154.360448,121.987426 C156.673993,123.108991 159.090608,124.022079 161.231038,125.473398 C161.686342,125.782104 162.504889,125.869303 162.369799,126.632048 C162.268731,127.199345 161.568263,127.231418 161.104954,127.426865 C159.569928,128.073344 148.704669,130.385632 147.336755,130.385632 C147.156635,130.425723 147.000531,130.398661 146.858436,130.334515 C146.129949,130.518937 145.400462,130.692333 144.665971,130.840672 C143.43715,131.532254 142.114266,131.546286 140.956492,131.571343 C138.129604,131.631481 135.440807,132.545571 132.623925,132.600697 C131.579228,132.621745 131.143937,132.421287 130.787699,131.425009 Z M99.983118,125.393215 C100.709603,125.485425 101.436089,125.577636 102.160573,125.673856 C104.560176,125.990581 106.877724,125.781102 109.28133,125.648799 C111.712955,125.514492 114.140577,125.419274 116.573202,125.306015 C116.94445,125.288976 117.312696,125.251891 117.678941,125.206788 C118.373405,125.221823 119.067869,125.226834 119.761332,125.200775 C120.977144,125.154669 122.217973,124.933163 123.433786,125.01936 C124.010171,125.059451 124.487489,125.291983 124.881753,125.637774 C125.558205,125.60971 125.980487,125.9555 126.347732,126.495736 C126.937126,127.360714 127.514512,128.226694 127.861744,129.240012 C128.176954,130.159114 128.653273,131.021085 129.005508,131.929162 C129.061545,132.071487 129.101572,132.204792 129.123587,132.328074 C128.785361,132.364156 128.446134,132.402243 128.10991,132.39623 C127.03319,132.380193 126.025517,132.690904 124.959805,132.715961 C123.826048,132.74202 122.693291,132.583658 121.558533,132.593681 C120.203627,132.604706 118.914766,132.586665 117.565865,132.459374 C115.131239,132.230851 112.647579,132.669855 110.198943,132.617736 C107.598206,132.56261 105.002471,132.339099 102.403735,132.233858 C100.890724,132.172719 99.3767129,132.109574 97.8627014,132.060462 C98.362035,130.498891 99.1175397,128.125463 99.983118,125.393215 Z M56.8503008,78.8798443 C57.5067394,79.2136075 57.6268196,79.8380355 57.8980008,80.5055621 C54.256568,81.682253 50.5881171,82.3908736 47.4009877,84.3954578 C46.7305398,84.8174228 45.927003,84.6319987 45.3526192,84.1949994 C43.9756993,83.1466018 42.3356035,82.6434512 40.8075827,81.9458559 C38.9403351,81.0929053 37.2141819,79.8240034 34.6194483,79.7177605 C35.7712178,78.8597984 36.7858957,78.7836242 37.63046,78.3165561 C41.4990446,76.178667 45.6918458,75.0330471 50.002726,74.2392318 C50.7532274,74.1009154 51.2905864,74.2041515 51.9140029,74.7945016 C53.4620371,76.2618573 54.9040005,77.8865728 56.8503008,78.8798443 Z M69.0384438,76.7389483 C69.6008195,77.5036972 69.3696651,77.8484857 68.3840066,78.0028387 C66.3886735,78.3145515 64.3693243,78.5380627 62.4780608,79.2877772 C61.3413013,79.7378063 60.5077444,79.4260935 59.6421661,78.6543285 C58.2792555,77.4395505 56.9383597,76.195706 55.349298,75.245533 C54.7959283,74.9137744 54.1404904,74.4707612 53.9973948,73.5155768 C57.7228838,72.9442703 61.3983394,72.6485942 65.094809,72.5834452 C65.3309668,72.579436 65.6491794,72.6846767 65.7962777,72.8540641 C66.9040178,74.126975 68.0407772,75.3828471 69.0384438,76.7389483 Z M77.6061679,75.9611696 C77.648196,76.2127449 77.6822187,76.4332492 77.7072354,76.6296985 C77.7482628,76.7239139 77.7922923,76.8171271 77.8363217,76.9103403 C76.2692747,77.0356268 74.7022278,77.1819614 73.1351808,77.314264 C72.0534581,77.410484 71.1808752,77.1739431 70.8576592,75.9711925 C70.7115616,75.4319594 70.2162307,75.1593359 69.8840087,74.7604237 C69.2505855,74.0016885 68.7072225,73.1808113 68.4020186,72.2346475 C68.2008842,71.6122241 68.5801376,71.3295777 69.1214993,71.4528597 C69.6798723,71.5811531 70.1852099,72.0822991 70.7796071,71.9359645 C72.2686019,71.5691256 73.7726067,71.7916344 75.2636028,71.7565542 C76.5494619,71.7264854 77.4270482,71.72849 78.0724795,71.8738224 C77.7932929,73.2369396 77.5591365,74.5940432 77.6061679,75.9611696 Z M91.9697643,80.8683918 C91.8326727,80.8944514 91.6955811,80.9235179 91.5574888,80.954589 C91.3813712,80.9626073 91.2052535,80.9716279 91.0291358,80.9846577 C89.7602881,81.0738617 88.5004464,81.3364623 87.2666221,81.6592003 C87.2516121,81.6612049 87.236602,81.6632095 87.2225927,81.6652141 C87.1515452,81.6541889 87.0814984,81.6371499 87.0114516,81.6201109 C87.0845004,81.5569665 87.1565486,81.4948244 87.227596,81.4306777 C87.6688909,81.0357746 88.0531476,80.6007798 88.3783649,80.1327094 C88.4984451,80.0425031 88.6155233,79.9502923 88.7275982,79.8520676 C89.9474131,78.7806173 90.3506826,77.3152663 90.3396752,75.8008029 C90.7159266,75.4048975 91.1912442,75.0731388 91.7356078,74.703293 C91.8206647,75.1232534 91.9377429,75.523168 92.0618258,75.911055 C92.1678967,75.9802132 92.2589575,76.0754309 92.3219996,76.2017197 C93.0384783,77.6510341 93.6388794,79.1133783 94.0201341,80.6108028 C93.3546896,80.6238326 92.6812396,80.735087 91.9697643,80.8683918 Z M79.574483,79.6415863 C80.0477992,80.2630074 80.6542043,80.766158 81.4127111,81.0648411 C81.8029718,81.2181918 82.2172486,81.3284439 82.6435334,81.4046181 C82.8556751,81.4837992 83.0698182,81.5589711 83.2869633,81.627127 C83.3319934,81.8035304 83.3630141,81.9889544 83.3680174,82.1914174 C81.8049732,82.4660455 80.2779529,82.7426781 78.7489314,83.0012695 C78.2335871,83.0894712 77.7112381,83.1365789 77.1918911,83.1967164 C76.7936251,83.2438242 76.4033643,83.239815 76.1201751,82.8880105 C75.4397205,82.0420759 74.7632686,81.1941368 74.0958226,80.3592274 C74.5821476,79.8250057 75.0954905,79.7017238 75.6058315,79.671655 C76.926714,79.5954808 78.2515991,79.6706528 79.574483,79.6415863 Z M88.1392051,75.7136035 C88.127197,75.7386608 88.115189,75.7647204 88.1011797,75.7877731 C88.115189,75.9491421 88.1231944,76.113518 88.1261964,76.2768916 C88.0531476,77.0757185 87.7459423,77.8103986 87.1095171,78.3135492 C85.425392,79.6476 83.0508055,79.0803027 81.7939658,77.458594 C80.4840907,75.7687295 80.3630098,73.3251413 82.1492031,71.9740516 C83.5691518,70.9005967 85.4263926,70.9557228 86.7032457,72.0662624 C86.7452738,72.2115948 86.8203239,72.3549226 86.9344001,72.490232 C87.5978434,73.2730222 88.0951757,74.5208758 88.1392051,75.7136035 Z M90.3006491,86.1374415 C89.002782,86.3809985 87.7169229,86.6866976 86.4180552,86.9232385 C85.1482068,87.1537657 83.8413336,87.2259307 82.5884966,87.5426551 C80.1698807,88.153051 77.8883564,89.2515631 75.4056978,89.6123883 C74.1258427,89.7988146 72.8399836,89.8980415 71.5561259,90.0443762 C70.9076926,90.1185458 70.2562574,90.1987292 69.6178309,90.3360432 C69.2015528,90.4262495 68.8002847,90.5836093 68.3750005,90.486387 C68.2839397,90.4653389 68.2018849,90.4232426 68.1268347,90.3701211 C67.7535854,90.3981853 67.3823373,90.4292564 67.0291013,90.5435177 C66.6218292,90.6748179 66.1475123,90.7219257 65.7132222,90.5094397 C66.1705277,89.8469246 66.6278333,89.3648221 67.0731308,89.0631322 C67.1231642,88.7744721 67.3032845,88.5078624 67.6505165,88.3855827 C69.9450495,87.5777353 72.1034916,86.3679687 74.5221074,85.9460037 C76.932718,85.5260433 79.4524014,85.5340616 81.8049732,84.8324572 C83.0498048,84.4616091 84.2856305,83.9694836 85.5714896,83.7569977 C86.7272617,83.5655599 87.8840346,83.4222322 89.0498135,83.3129823 C89.9744312,83.2257829 90.8480148,83.0644139 91.7586232,82.907054 C92.4811059,82.7817675 93.2556234,82.632426 93.9721021,82.858944 C94.1882465,82.9270998 94.3763721,83.0794482 94.4924497,83.2718883 C94.4994544,83.2839158 94.5064591,83.2959433 94.5124631,83.3089731 C94.5264724,83.3330282 94.5384805,83.3580855 94.5494878,83.3841451 C94.5544911,83.3961726 94.5594945,83.4082001 94.5644978,83.4202276 C94.5785072,83.4583147 94.5905152,83.4964018 94.5985206,83.5354912 C94.5995212,83.5395003 94.5995212,83.5435095 94.6005219,83.5475187 C94.6075266,83.5846035 94.6115293,83.6216883 94.6125299,83.6597754 C94.6165326,83.7469748 94.6065259,83.8361788 94.5765059,83.9253828 C94.5384805,84.0406464 94.4954517,84.1478916 94.4504216,84.2491231 C94.4434169,84.5047076 94.4244042,84.7622967 94.4003882,85.0208881 C94.3623628,85.0208881 94.3243374,85.0228927 94.2843106,85.0279041 C94.1892471,85.037927 94.1001876,85.0519591 94.0121288,85.0669935 C93.9650974,85.0740096 93.9180659,85.0840325 93.8710345,85.0910485 C92.9964502,85.9179395 91.6545537,85.8828593 90.3006491,86.1374415 Z M58.5244193,109.375584 C60.1625137,109.026787 61.7916021,108.910521 62.9043456,110.520202 C63.8759947,111.928422 65.3519808,112.585926 66.7739309,113.358693 C67.2592551,113.622296 68.068796,113.736557 68.0697966,114.389049 C68.0697966,115.146782 67.220229,115.282092 66.6758653,115.609841 C66.0474455,115.987705 65.4140223,115.853398 64.7826004,115.611846 C63.6188229,115.16783 62.3930039,114.840081 61.3062779,114.254742 C59.249904,113.146207 57.1725161,112.039677 55.1671763,110.262613 C56.5130755,109.90279 57.5087408,109.592079 58.5244193,109.375584 Z M52.158166,100.352951 C53.2569001,100.740838 54.6288167,100.448168 55.8636417,100.323884 C56.5951304,100.250717 56.9613751,100.40507 57.1474994,101.123713 C57.5437642,102.651206 58.2132114,104.062434 58.9887295,105.437579 C59.6611788,106.633313 59.58813,106.761606 58.2582415,107.221659 C56.8993336,107.692736 55.4543682,107.826041 54.072445,108.175841 C52.8336173,108.488556 51.8389527,108.224953 50.9833811,107.462209 C49.468369,106.112121 47.8903146,104.807137 46.6935151,103.14233 C45.9760357,102.145049 45.1634929,101.184853 44.864293,99.4609106 C47.4029891,100.565437 49.8146003,99.524055 52.158166,100.352951 Z M57.9140115,92.4578956 C58.374319,92.6302898 58.8366279,93.0041448 58.2992689,93.6656576 C57.5307555,94.6108191 57.3536371,95.8055513 57.0704479,96.947162 C56.7922621,97.7640301 56.3629753,98.0877704 55.3663094,98.0917796 C52.0210744,98.1058117 48.6958528,97.7489957 45.3586232,97.7339613 C44.3249326,97.7289499 43.4403416,97.5124548 42.6147901,96.9381414 C42.58477,96.5452429 42.5377386,96.1523444 42.5277319,95.7594458 C42.4726951,93.396041 42.9019819,91.1649388 44.7602234,89.5322049 C46.0821066,88.369546 47.4950506,87.4133594 49.4593629,88.3915965 C52.2572322,89.7847825 54.972046,91.3573789 57.9140115,92.4578956 Z M64.0671224,82.087179 C66.3836701,81.1720863 68.5351075,80.759142 70.7115616,80.4394108 C71.1468524,80.3752641 71.4980871,80.5486606 71.7422502,80.8673895 C72.3746727,81.6942805 72.9900839,82.5352036 73.575475,83.3951703 C73.8456555,83.7920779 73.7165693,84.1539054 73.2542604,84.3182813 C71.9714033,84.7773311 70.6805409,85.2133282 69.3956825,85.6673665 C68.9193642,85.8347493 68.4680627,85.751559 68.1028187,85.4548806 C66.8059523,84.4004693 65.5331019,83.3159892 64.0671224,82.087179 Z M65.3719942,85.9129281 C65.8162911,86.2787647 65.9783994,86.7879291 65.233902,87.1297107 C63.7829326,87.7972372 62.613151,88.8576623 61.4904009,89.9571768 C60.7338955,90.6998752 60.0214195,90.8341824 59.0367616,90.349073 C56.5741163,89.1322904 54.0614376,88.0177415 51.5727749,86.8520758 C51.2905864,86.7197732 50.9403524,86.6255578 50.9013263,86.2196295 C50.9553624,86.1073727 50.9803791,85.9359808 51.0664366,85.8938845 C54.1484958,84.4034761 57.4617093,83.637725 60.7549095,82.8068248 C61.028092,82.7376666 61.2712545,82.7547056 61.4924023,82.9230907 C62.79127,83.912353 64.1101512,84.8775603 65.3719942,85.9129281 Z M73.0781427,110.218512 C73.0181026,110.196462 72.9590632,110.174411 72.9000237,110.152361 C72.5197697,110.596376 72.1154996,111.018341 71.6301753,111.368141 C71.2088939,111.672838 70.7625957,111.826189 70.3052902,111.870289 C70.040113,112.099814 69.7289051,112.165966 69.2715996,112.002592 C69.0544545,111.924413 68.8413121,111.842225 68.6321724,111.753021 C68.3169618,111.66081 68.0367746,111.521492 67.7816041,111.3501 C66.6688607,110.765763 65.6551834,109.98598 64.6965429,108.934576 C64.7765964,108.912525 64.8566499,108.891477 64.9367034,108.870429 C64.8316332,108.761179 64.729565,108.653934 64.6355022,108.552702 C64.0120857,107.880164 63.4036792,107.162523 62.8342988,106.405793 C62.7782613,106.396772 62.7212232,106.385747 62.6651858,106.370712 C61.7976062,106.152213 61.9437038,105.192017 61.4743902,104.664811 C61.1291596,104.277927 60.8719878,103.805847 60.6158166,103.348802 C60.1725204,102.558996 59.8062757,101.742127 59.8663159,100.818014 C59.784261,100.550402 59.7122129,100.279783 59.6471694,100.008162 C59.564114,99.6603668 59.4920658,99.3105668 59.4410317,98.95776 C59.2549074,97.6858513 58.8716513,96.1413191 59.7742544,95.0718734 C59.9223533,94.8964723 60.1174837,94.7601606 60.3346287,94.6479039 C60.451707,94.5216151 60.5938019,94.3983331 60.7639155,94.2790604 C60.7659169,94.2760535 60.7669176,94.2740489 60.7679182,94.2720443 C60.7689189,94.2730466 60.7699196,94.2740489 60.7699196,94.2750512 C60.8279583,94.2339572 60.8869978,94.1938656 60.9520412,94.1537739 C61.8036102,93.6315797 62.794272,93.4231029 63.7859346,93.2647408 C64.2632535,93.1885666 64.7405724,93.1224153 65.2028812,93.039225 C67.039108,92.7084686 68.8643275,92.3205816 70.6865449,91.9166579 C70.9176993,91.8645387 71.1188337,91.9016235 71.283944,91.9918298 C71.6271733,91.8946074 71.9674006,91.8144241 72.2876146,91.7472705 C74.3079644,91.3233009 76.3803489,91.306262 78.4267161,91.110815 C81.8439992,90.7850701 85.1982402,89.9150805 88.5324678,89.1232697 C88.8426751,89.3397648 89.2559512,89.415939 89.6802346,89.2074623 C90.225599,88.9398503 90.8209968,88.7614423 91.4133926,88.5960641 C91.5674955,88.6110984 91.7185965,88.6461787 91.8686968,88.702307 C91.8506847,89.8068329 92.3550217,90.8692626 93.0945157,91.7623049 C93.1855766,92.4538864 92.7923138,93.0231884 92.160892,93.526339 C91.7556212,93.8490771 91.3283357,94.1457555 90.8490155,94.5005669 C90.8480148,94.4995646 90.8470142,94.4985624 90.8460135,94.4965578 C90.5057862,94.7571537 90.1585542,95.0047199 89.8013155,95.2392562 C89.7482801,95.5569828 89.4650909,95.8596751 88.8957105,96.453032 C85.9997757,99.4769473 82.614514,101.924545 79.4193793,104.600665 C79.1441955,104.831192 78.8499989,105.028643 78.5467964,105.210058 C77.630184,105.879589 76.6925575,106.521056 75.7889538,107.207626 C75.5027626,107.425124 75.2195734,107.645628 74.9423882,107.875153 C74.3209731,108.389329 73.8266428,109.019771 73.3233065,109.641192 C73.2452544,109.835636 73.1652009,110.030081 73.0781427,110.218512 Z M98.5211413,123.022794 C97.2012595,122.857416 95.8823783,122.688028 94.5725032,122.481556 C92.2749682,122.120731 90.0214626,121.529379 87.7269296,121.152517 C85.3703552,120.765632 82.9757554,120.775655 80.6271863,120.320614 C78.3466626,119.879606 76.3022968,118.801139 74.1408527,118.00131 C72.509763,117.39793 70.8116285,117.047128 69.1214993,116.658239 C69.3166296,116.534957 69.4897453,116.420696 69.6148289,116.267345 C70.3102935,115.413392 71.0828096,115.232979 71.98141,115.50861 C73.9447217,115.743146 75.8339839,116.49687 77.7072354,117.085215 C78.4497315,117.318749 79.1972309,117.557295 79.9497337,117.785817 C80.3369924,117.703629 80.7362591,117.733698 81.0824905,117.915113 C81.8560072,118.320039 82.6575428,118.39922 83.5091117,118.491431 C85.4624167,118.701912 87.405715,118.999593 89.3820354,119.29126 C90.0244646,119.363425 90.6618905,119.458643 91.2893097,119.590946 C91.3153271,119.52279 91.3413444,119.454634 91.3673618,119.386478 C93.1575579,119.651083 94.9517566,119.902658 96.7389506,120.181296 C97.5965235,120.3146 98.4611012,120.391777 99.3286808,120.434876 C99.0585003,121.301858 98.7873191,122.168841 98.5211413,123.022794 Z M119.220971,120.816749 C119.620238,120.777659 120.019504,120.737568 120.41777,120.701485 C120.43178,120.721531 120.445789,120.741577 120.458798,120.762625 C120.915103,120.7516 121.371408,120.704492 121.825711,120.600254 C122.220975,120.583215 122.616239,120.576199 123.012504,120.586222 C123.444793,120.85684 123.811038,121.431154 123.82905,121.938314 C122.141922,121.764917 120.315702,122.047564 118.681611,122.209935 C116.183942,122.458503 113.714292,122.934592 111.21162,123.150085 C108.851043,123.354552 106.479458,123.098968 104.11788,123.043842 C102.986124,123.017782 101.85737,123.028808 100.728616,123.037828 C100.992793,122.202919 101.262973,121.346961 101.536156,120.483988 C102.957105,120.481983 104.380056,120.433873 105.788997,120.424853 C108.797007,120.405809 111.773996,120.724538 114.774,120.875884 C116.272001,120.952058 117.725972,120.963083 119.220971,120.816749 Z M144.104596,116.69833 C145.004197,116.4227 145.775712,116.60211 146.472178,117.457066 C146.671311,117.702627 146.994527,117.846957 147.337756,118.092519 C146.546227,119.058728 145.714671,119.108843 144.987185,119.313311 C144.586918,119.425567 144.182648,119.518781 143.778378,119.615001 C141.947154,120.744584 139.821734,121.286824 137.622265,121.469241 C134.113921,121.759906 130.762682,123.150085 127.206306,122.669987 C126.98716,122.64092 126.833057,122.549712 126.730988,122.42643 C126.088559,122.168841 125.592228,121.624596 125.263008,120.69046 C127.740663,120.338655 130.151273,119.94275 132.576894,119.681152 C133.428463,119.588941 134.230999,119.508758 135.003515,119.103832 C135.349747,118.922417 135.750014,118.89335 136.137273,118.975538 C136.888775,118.746013 137.636274,118.507468 138.379771,118.273934 C140.253022,117.686591 142.142285,116.931865 144.104596,116.69833 Z M170.732386,98.9236821 C167.391154,98.9387164 164.064931,99.2955324 160.720697,99.2815003 C159.72303,99.2774912 159.294744,98.9537508 159.015558,98.1368827 C158.732369,96.9942697 158.55525,95.8005398 157.787737,94.8553783 C157.249378,94.1938656 157.712687,93.8200106 158.171994,93.6476163 C161.11496,92.5460973 163.828774,90.9745033 166.626643,89.5813172 C168.590955,88.6030801 170.001898,89.5592668 171.32278,90.7209234 C173.184024,92.3546595 173.614311,94.5857618 173.554271,96.9481643 C173.544264,97.3420651 173.504238,97.7349636 173.474218,98.1278621 C172.643663,98.7021755 171.763074,98.9186706 170.732386,98.9236821 Z M160.91983,111.452334 C158.91449,113.229397 156.836102,114.334926 154.779728,115.444463 C153.693002,116.029802 152.467183,116.357551 151.304406,116.801567 C150.671983,117.043119 150.03856,117.176424 149.411141,116.79856 C148.865777,116.47081 148.01721,116.335501 148.01721,115.57877 C148.01721,114.925276 148.826751,114.812017 149.312075,114.548414 C150.734025,113.775647 152.210011,113.118143 153.182661,111.709923 C154.294404,110.100241 155.924493,110.215505 157.561586,110.564303 C158.577265,110.780798 159.57293,111.092511 160.91983,111.452334 Z M157.827764,108.411379 C156.497876,107.951327 156.424827,107.823034 157.098277,106.627299 C157.872794,105.251152 158.543242,103.840927 158.938506,102.313434 C159.125631,101.593788 159.490875,101.439435 160.223365,101.513605 C161.457189,101.637889 162.829106,101.930558 163.92884,101.541669 C166.272406,100.712773 168.681015,101.755157 171.222713,100.650631 C170.922513,102.374574 170.111971,103.333767 169.39149,104.331048 C168.200694,105.996858 166.617637,107.30084 165.103625,108.651929 C164.248054,109.414674 163.253389,109.678276 162.013561,109.364559 C160.631638,109.015761 159.186672,108.881454 157.827764,108.411379 Z M147.983187,86.6446013 C147.617943,86.9412798 147.166642,87.02447 146.690323,86.8560849 C145.405465,86.4030489 144.114602,85.9670518 142.831745,85.508002 C142.370437,85.3426239 142.24035,84.9807964 142.510531,84.5838887 C143.096923,83.7239221 143.712334,82.882999 144.344756,82.0571103 C144.587919,81.7383814 144.940154,81.5649849 145.374444,81.6291316 C147.550898,81.9488627 149.702336,82.3618071 152.019884,83.2768998 C150.552904,84.5047076 149.281054,85.59019 147.983187,86.6446013 Z M150.715012,87.1026488 C151.975855,86.0672811 153.295736,85.1020737 154.594604,84.1128114 C154.814751,83.9444263 155.057914,83.9273874 155.332097,83.9965455 C158.624296,84.8274457 161.93751,85.5931969 165.019569,87.0836053 C165.106627,87.1257015 165.130643,87.2970935 165.184679,87.4083479 C165.145653,87.8142762 164.795419,87.909494 164.513231,88.0417965 C162.025569,89.2074623 159.511889,90.3220111 157.049244,91.5377914 C156.065587,92.0239031 155.353111,91.8885937 154.595605,91.1468975 C153.473855,90.0463808 152.304074,88.986958 150.852104,88.3194314 C150.107606,87.9776498 150.269715,87.4674831 150.715012,87.1026488 Z M125.23699,95.6902877 C124.75767,95.3354763 124.330385,95.0387978 123.925114,94.7150575 C123.071543,94.0345011 122.649261,93.234672 123.279683,92.1702378 C123.345727,92.0589833 123.388755,91.9326945 123.447795,91.8164286 C123.767008,91.1920007 123.465807,90.1867017 124.18829,89.9010484 C125.047864,89.5602691 125.976484,89.9772226 126.831055,90.300963 C127.251336,90.4603274 127.6466,90.681834 128.034859,90.867258 C127.905773,92.9800898 126.423783,94.2179206 125.23699,95.6902877 Z M126.842063,94.977658 C127.580556,93.6215568 128.979491,92.8578102 129.776023,91.556835 C129.986163,91.2140511 130.453475,91.0336385 130.822722,91.2210671 C131.414117,91.5217548 132.149609,91.2491313 132.745006,91.800392 C131.944472,94.0284874 130.137264,95.8556659 129.654942,98.3303251 C130.335396,98.3684122 130.463482,98.0787498 130.571554,97.757014 C131.242002,95.7654596 132.75101,94.3422048 134.056883,92.8147116 C135.108585,91.5848992 136.438474,92.2454097 137.801385,92.7565787 C136.485505,95.0548345 134.774362,97.0313545 133.870758,99.4538946 C134.498178,99.825745 134.678298,99.3446447 134.889439,99.0740259 C136.169294,97.4362806 137.42013,95.7764848 138.689978,94.1317234 C139.643615,92.8958973 139.717665,92.8908858 142.313399,93.6576393 C142.027208,94.5346449 141.540883,95.2883685 140.993517,96.0080143 C139.836744,97.5284914 139.044215,99.2373995 138.357756,101.005443 C138.223667,101.348227 137.822399,101.725089 138.358757,101.977666 C138.755022,102.16309 138.856089,101.70404 139.014195,101.434424 C140.236011,99.3416379 141.52087,97.2899459 142.978844,95.3495084 C143.409131,94.775195 143.831413,94.1718151 143.650292,93.4421465 C144.02154,93.2366766 144.330747,93.2376789 144.611935,93.3208691 C144.80006,93.1364474 145.071242,93.032209 145.400462,93.1053763 C147.221678,93.5093 149.047898,93.8981894 150.884125,94.2289458 C151.346434,94.312136 151.823753,94.377285 152.300071,94.4544615 C153.291734,94.6128237 154.283396,94.8202981 155.134965,95.3434946 C155.199008,95.3835863 155.258047,95.423678 155.316086,95.4637697 C155.317087,95.4637697 155.317087,95.4627674 155.318088,95.4617651 C155.320089,95.4637697 155.32109,95.4657742 155.32209,95.4677788 C155.493205,95.5880539 155.634299,95.7113358 155.752378,95.8376246 C155.969523,95.9498813 156.164653,96.0851908 156.312752,96.2605919 C157.215355,97.3310399 156.832099,98.8745697 156.645975,100.147481 C156.59394,100.500288 156.521892,100.850088 156.438836,101.196881 C156.374794,101.469504 156.302745,101.740123 156.220691,102.007735 C156.27973,102.931848 155.913485,103.748716 155.47119,104.538523 C155.215019,104.995568 154.956846,105.467647 154.612616,105.854532 C154.143303,106.380735 154.2884,107.340931 153.421821,107.560433 C153.364783,107.574465 153.308745,107.586493 153.252708,107.594511 C152.682327,108.351242 152.07392,109.069885 151.450504,109.742423 C151.357441,109.843655 151.255373,109.949898 151.149302,110.059147 C151.229356,110.080196 151.31041,110.102246 151.389463,110.124296 C150.431823,111.175701 149.418146,111.954482 148.304402,112.53982 C148.049231,112.711212 147.770045,112.850531 147.454834,112.942742 C147.245694,113.030944 147.032552,113.114134 146.815407,113.192313 C146.358101,113.355686 146.046893,113.289535 145.780716,113.06001 C145.324411,113.015909 144.878113,112.861556 144.45583,112.557862 C143.971507,112.20706 143.566236,111.786097 143.186983,111.342081 C143.126943,111.364132 143.067903,111.386182 143.008864,111.40723 C142.920805,111.219802 142.841752,111.025357 142.762699,110.82991 C142.259363,110.208489 141.766033,109.57905 141.143618,109.063871 C140.867433,108.835349 140.583243,108.614845 140.297052,108.397347 C139.393448,107.710777 138.455822,107.06931 137.539209,106.399779 C137.237007,106.217362 136.942811,106.01991 136.666626,105.789383 C133.472492,103.114265 130.087231,100.666668 127.190295,97.6427527 C126.01451,96.4149449 126.049533,96.4349907 126.842063,94.977658 Z M26.4670017,106.418823 L26.4680023,106.418823 C26.1908171,105.783369 25.8045591,105.203042 25.4843451,104.588637 C25.3082275,104.532509 25.1511225,104.402211 25.047053,104.175693 C24.3806077,102.724374 24.011361,101.236972 23.8342427,99.7215066 C23.4269706,98.1829882 23.1167634,96.6304377 23.2208329,94.9886832 C23.2428476,94.6368787 23.4329746,94.4003377 23.6781384,94.2720443 C23.809226,92.3025403 24.2935496,90.3751326 25.0510557,88.5289105 C25.4903492,87.4574602 25.9386487,86.2958037 26.7031594,85.4739241 C27.9770105,84.1047931 29.4980267,82.9621801 30.9349867,81.7494066 C31.9086372,80.9275271 32.9283185,80.5997775 34.092096,81.4747786 C34.605439,81.860661 35.2138455,82.1392982 35.8092432,82.395885 C38.0137161,83.3410465 40.2362009,84.2421071 42.4366711,85.1942846 C43.0260648,85.4488668 43.5884406,85.7936553 43.9186612,86.4090627 C40.5103841,89.1132468 39.1584809,92.6603586 39.4957062,97.0213316 C38.4430029,97.0213316 37.4063103,97.0624256 36.3736203,97.0133133 C33.4336561,96.8719901 30.4966939,96.6855638 27.5577304,96.5332154 C26.3789428,96.4720755 25.7885484,97.0213316 25.9216373,98.0757429 C26.0467209,99.0670098 26.8542604,98.8725652 27.4496582,98.7743405 C29.4770127,98.439575 31.4773491,98.5217629 33.4716815,98.9778058 C35.1297893,98.6640884 36.7058423,99.3446447 38.3259246,99.3767181 C39.5007095,99.3987685 40.4933727,99.7205043 41.3729604,100.46621 C43.0871056,103.738693 45.7538873,106.301554 48.2465527,109.324467 C45.9950484,109.62716 44.0747655,109.858689 42.1624879,110.149354 C39.4496754,110.561296 36.9229873,111.654797 34.2922297,112.370433 C34.1761522,112.528795 34.0330566,112.673125 33.9490004,112.847524 C33.7548707,113.254455 33.4096401,113.716511 33.7168453,114.128453 C34.0150445,114.530373 34.5604089,114.364994 35.0117104,114.321896 C35.1387953,114.308866 35.2598762,114.244719 35.3869611,114.214651 C38.4319955,113.487989 41.4720266,112.73627 44.5270677,112.051704 C45.6087904,111.80915 46.7865772,111.897351 47.8162652,111.537528 C49.2472212,111.037385 50.4920529,111.313015 51.8069314,111.836211 C53.2228774,112.398497 54.606802,112.960783 55.4843883,114.313878 C55.5864565,114.470235 55.7675775,114.624588 55.9426945,114.675705 C57.994065,115.281089 59.5140805,117.050135 61.7275594,117.312736 C62.0037439,117.345811 62.3799953,117.477111 62.426026,118.009329 C60.8009403,119.018637 59.0147469,119.787395 57.2235502,120.545128 C55.3633074,121.333932 53.4890552,122.059591 52.0560978,123.613144 C50.6971899,125.086513 50.5931204,125.009337 48.7328776,124.198482 C44.4700295,122.340233 40.2321982,120.437882 36.3586103,117.823905 C34.9086415,116.211217 33.1464642,114.946324 31.5584032,113.487989 C31.5584032,113.493 31.5574026,113.499014 31.5564019,113.505028 L31.5503979,113.480973 C31.5533999,113.482977 31.5554012,113.484982 31.5584032,113.487989 C31.5674093,113.366711 31.5784166,113.245434 31.5934266,113.125159 C29.5470595,111.148639 27.9209731,108.849381 26.4670017,106.418823 Z M94.8226703,131.992306 C92.1718993,131.967249 89.519127,132.083515 86.87436,131.866017 C85.5955056,131.760776 84.3146499,131.71868 83.0347948,131.675582 C82.7606116,131.590387 82.4864284,131.505192 82.2152473,131.419997 C82.1261878,131.392935 82.0491363,131.354848 81.9810908,131.309745 C79.6925618,131.059172 77.458069,130.431737 75.1295133,130.381622 C73.9717397,130.356565 72.6488559,130.342533 71.4200349,129.651954 C70.6865449,129.502612 69.9570575,129.330218 69.2275701,129.144794 C69.0864759,129.208941 68.9293709,129.236003 68.7492506,129.195911 C67.3813367,129.195911 56.5170782,126.883623 54.981052,126.237145 C54.5177425,126.041698 53.8172745,126.009624 53.7172076,125.442327 C53.5811167,124.679583 54.4006642,124.593386 54.8559684,124.28468 C56.9963985,122.832358 59.413013,121.91927 61.725558,120.798708 C62.6912032,119.987853 63.7399038,119.274221 64.9417067,118.961506 C65.786271,118.741002 66.679868,119.01563 67.4864069,119.28224 C67.5934784,119.362423 67.7225646,119.428574 67.8756669,119.469668 C68.080804,119.525797 68.2869417,119.573907 68.4930794,119.618007 C69.3626604,119.910677 70.2322414,120.202344 71.1138304,120.458931 C72.4126981,120.836795 73.741586,121.07534 75.0734758,121.303863 C77.1858871,122.009476 79.5084388,122.394357 81.6788889,122.727118 C81.7219177,122.734134 81.7649464,122.740147 81.8089758,122.746161 C83.3490047,123.09997 84.897039,123.402662 86.482098,123.528951 C86.6922383,123.54599 86.8613513,123.622164 86.9914382,123.733419 C87.3806983,123.79055 87.770959,123.842669 88.1612198,123.898797 C88.2532813,123.925859 88.3453428,123.952921 88.4364036,123.981987 C90.741944,124.714663 93.054489,124.911112 95.4570942,125.078495 C96.254627,125.133621 97.0491578,125.170706 97.8436887,125.193758 C96.9931204,127.924002 96.2326123,130.370597 95.7312774,132.008343 C95.4280748,132.003331 95.1258729,131.995313 94.8226703,131.992306 Z M189.615001,107.607541 C188.164032,110.039102 186.542949,112.33836 184.491578,114.313878 C184.511592,114.435155 184.521598,114.55543 184.531605,114.676707 C184.531605,114.674703 184.531605,114.672698 184.531605,114.669691 L184.531605,114.693746 C184.531605,114.688735 184.531605,114.682721 184.531605,114.676707 C182.940542,116.136045 181.179366,117.400937 179.728396,119.012623 C175.855809,121.626601 171.612974,123.529954 167.353128,125.388203 C165.492885,126.199057 165.388816,126.276234 164.029908,124.801862 C162.597951,123.249312 160.722698,122.52265 158.862456,121.734848 C157.072259,120.976113 155.285065,120.208357 153.65998,119.199049 C153.707011,118.66583 154.082262,118.535532 154.358446,118.502456 C156.571925,118.238853 158.092941,116.469808 160.144312,115.865426 C160.318428,115.813307 160.50055,115.659956 160.601617,115.503598 C161.479204,114.150504 162.863128,113.588218 164.280075,113.02493 C165.594954,112.502736 166.838785,112.227105 168.270741,112.727249 C169.30143,113.087072 170.472212,112.99887 171.562941,113.240423 C174.61498,113.924988 177.657012,114.676707 180.699045,115.403369 C180.829132,115.433438 180.949212,115.498587 181.079299,115.510614 C181.5296,115.554715 182.069961,115.719091 182.370161,115.318174 C182.680368,114.90523 182.330134,114.444176 182.140007,114.037245 C182.049947,113.862846 181.909854,113.717514 181.789773,113.559152 C179.168022,112.844517 176.63633,111.751017 173.924519,111.339075 C172.013242,111.047408 170.091958,110.81688 167.840454,110.514188 C170.332118,107.491275 173.003903,104.928414 174.715047,101.65593 C175.595635,100.910225 176.586297,100.588489 177.757079,100.565437 C179.378162,100.534365 180.959218,99.8538091 182.610322,100.167527 C184.611659,99.7104814 186.612996,99.6282934 188.634346,99.9640613 C189.234747,100.062286 190.035282,100.255728 190.165369,99.2654637 C190.295456,98.2110524 189.705062,97.6617963 188.524273,97.7229361 C185.592314,97.8742822 182.650348,98.0617108 179.708383,98.203034 C178.677694,98.2521463 177.647006,98.2100501 176.586297,98.2100501 C176.926524,93.8490771 175.575622,90.3019653 172.163342,87.5977811 C172.493563,86.983376 173.063944,86.6385876 173.654338,86.3830031 C175.845802,85.4318278 178.077293,84.5307672 180.278764,83.5846035 C180.869158,83.329019 181.479566,83.0503818 181.989907,82.6644993 C183.160689,81.7894983 184.181371,82.1172478 185.15202,82.9381251 C186.592982,84.1519008 188.113999,85.2935115 189.384848,86.6636449 C190.145356,87.4855244 190.595657,88.647181 191.035951,89.7186312 C191.796459,91.5648533 192.27678,93.4922611 192.406867,95.4617651 C192.657034,95.5900585 192.847161,95.8265994 192.867174,96.1774017 C192.967241,97.8191561 192.657034,99.3727089 192.256766,100.911227 C192.076646,102.426693 191.706399,103.914095 191.035951,105.364411 C190.935884,105.591932 190.775777,105.721227 190.605663,105.777356 C190.285449,106.391761 189.895189,106.972088 189.615001,107.607541 Z M109.9838,104.62071 C110.564187,105.001581 110.7333,104.325034 110.915422,103.957193 C112.100214,101.566726 113.765326,99.5841926 115.880739,97.9715045 C116.394082,97.5796083 116.886411,97.118554 117.851056,97.4553241 C115.860726,100.249715 113.931437,102.957908 111.768992,105.994853 C113.428101,105.463638 114.032504,104.404215 114.75899,103.463063 C116.475136,101.240981 118.214298,99.0369411 119.948457,96.8288915 C120.109565,96.6234216 120.279678,96.4169495 120.47681,96.2485644 C120.672941,96.0811816 120.935116,95.9057805 121.178279,96.0932091 C121.475477,96.322734 121.495491,96.6504835 121.25533,96.954178 C120.477811,97.9364243 119.945455,99.0690144 119.290017,100.126433 C117.567866,102.903784 115.804688,105.655076 114.066527,108.422404 C113.96646,108.580767 113.939442,108.786237 113.850383,109.051844 C114.646915,109.316449 114.858056,108.760177 115.173267,108.269054 C117.327706,104.919394 119.446121,101.544676 121.959801,98.4425818 C122.485152,97.7940988 122.940456,97.4192416 123.692959,98.1869974 C124.262339,98.7683268 124.421445,99.2153491 123.706968,99.784651 C122.070875,101.09164 121.188285,102.938864 120.34172,104.773059 C119.570204,106.440873 118.733645,108.055566 117.626906,109.523924 C118.448455,109.620144 118.782678,108.98469 119.128909,108.451471 C120.37174,106.534086 121.601561,104.606678 122.788354,102.653211 C123.426781,101.600804 124.393427,100.762888 124.741659,99.5751719 C125.077884,99.4919817 125.309038,99.6212774 125.509172,99.7766327 C127.55654,101.36727 127.637594,101.427408 126.170614,103.52721 C124.559538,105.831479 123.693959,108.450469 122.490155,111.012327 C123.277681,111.060437 123.348729,110.543255 123.552865,110.1694 C124.521512,108.393338 125.487157,106.616274 126.455805,104.841215 C126.932123,103.968218 127.583558,103.256591 128.423119,102.627151 C128.450137,102.653211 128.478156,102.678268 128.505174,102.704328 C128.764347,102.575032 129.084561,102.555989 129.317717,102.732392 C131.464151,104.352096 133.893774,105.532796 136.031202,107.168537 C137.157955,108.030508 138.207656,108.985693 139.320399,109.863701 C139.535543,110.033088 139.751688,110.199468 139.967832,110.365849 C140.688313,110.924126 141.397787,111.491423 141.972171,112.209064 C142.208329,112.50474 142.337415,112.910669 142.107261,113.259466 C140.63828,115.489566 137.412124,116.283382 134.972495,116.790541 C134.819392,116.821612 134.66629,116.851681 134.513188,116.882752 C133.681632,117.32777 132.708982,117.325765 131.805379,117.455061 C131.429127,117.508183 131.050875,117.556293 130.672622,117.602398 C128.886428,117.90509 127.09223,118.163682 125.298031,118.362135 C124.825715,118.414255 124.349397,118.46036 123.872078,118.503459 C123.78502,118.475394 123.690957,118.455349 123.588889,118.44733 C121.41944,118.281952 119.258996,118.610704 117.088546,118.71394 C116.922435,118.706924 116.757325,118.702915 116.591214,118.693894 C116.593215,118.706924 116.595217,118.719954 116.596217,118.732983 C116.086877,118.748018 115.576536,118.74902 115.065194,118.723963 C112.19928,118.585647 109.348375,118.269925 106.477457,118.253888 C105.066514,118.24587 103.641562,118.299993 102.217611,118.318035 C104.496133,111.075472 106.742634,103.840927 106.963782,102.789523 C107.025823,102.492844 107.195937,102.314436 107.404076,102.228239 C107.644236,101.286085 107.881395,100.342928 108.106545,99.3967639 C108.361716,98.3273182 108.924092,98.0216192 109.917755,98.1128277 C110.828364,98.196018 111.743976,98.2140592 112.64858,98.2601647 C113.011823,99.0509732 112.48347,99.5811857 112.107218,100.052263 C111.281667,101.086628 110.836369,102.334482 110.082866,103.400921 C109.801678,103.797829 109.528495,104.322027 109.9838,104.62071 Z M102.707938,97.2508565 C103.082189,97.376143 103.455438,97.5044364 103.828687,97.6347344 C102.774983,98.528779 101.720279,99.4208189 100.703599,100.353953 C98.6662382,102.22423 96.7289439,104.203757 94.6155319,105.993851 C94.3803748,106.547116 93.9100606,106.87687 93.4527551,107.218652 L93.4527551,107.219654 L93.4617611,107.221659 C93.4007203,107.726814 92.9544221,107.862123 92.6181975,108.102673 L92.6181975,108.103676 C92.5661627,108.18887 92.514128,108.274065 92.4630939,108.35926 L92.4620932,108.360262 C92.4480838,108.579764 92.151886,108.821317 92.3350083,108.982686 C92.6412129,109.250298 92.7602924,108.794255 92.9844422,108.704049 C93.0264703,108.688012 93.0644957,108.659948 93.1035217,108.636895 C93.2045893,108.355251 93.392715,108.159804 93.6729022,108.053561 C94.7446182,107.025209 95.6172011,105.780362 96.9570963,105.045682 C98.7412884,103.123286 100.756635,101.451463 102.704936,99.7064722 C103.405404,99.0800396 104.165913,98.5448156 104.935427,98.0206169 C105.16558,98.1018025 105.396735,98.1819859 105.626889,98.261167 C105.162578,100.957333 104.593198,103.478097 103.917747,105.977814 C103.795665,106.428845 103.641562,106.84179 103.400401,107.231681 C103.35437,107.521344 101.76731,112.620004 99.9951261,118.300996 C99.1975932,118.274936 98.4030624,118.221815 97.6135349,118.122588 C96.1185361,117.934157 94.6445513,117.6034 93.1515538,117.395926 C91.6365417,117.184442 90.1165261,117.020066 88.607518,116.765484 C88.3863702,116.728399 88.1882378,116.752454 88.0171235,116.819608 C87.1475425,116.695324 86.2799629,116.559012 85.4133839,116.412677 C85.0351312,116.366572 84.6578792,116.319464 84.2806271,116.26534 C83.3770234,116.137047 82.4043736,116.138049 81.5738187,115.694034 C81.4207164,115.662963 81.2666135,115.632894 81.1145119,115.600821 C78.6748819,115.093661 75.4487265,114.299845 73.9787444,112.069745 C73.7485907,111.720948 73.8776769,111.31502 74.1138347,111.020346 C74.6882184,110.302704 75.3976924,109.734405 76.1181738,109.17713 C76.3343182,109.009748 76.5514633,108.843367 76.7656063,108.67398 C77.8793504,107.795972 78.9290517,106.84179 80.0558045,105.978816 C82.1922319,104.343076 84.6218551,103.162375 86.7682892,101.542671 C86.9233928,101.425403 87.1165218,101.396337 87.3046475,101.426405 C88.8376717,99.873855 90.5748323,98.4826735 92.2749682,97.1235654 C92.3129936,97.0824714 92.351019,97.0403752 92.3930471,96.9982789 C92.5751688,96.8128549 92.7392784,96.6945844 92.89138,96.6304377 C93.0975177,96.4650595 93.3036555,96.2996813 93.5067912,96.1343031 C93.8099937,95.8887415 94.1101943,95.7113358 94.4153982,95.5870516 C94.467433,95.4467307 94.5614958,95.3224465 94.6855787,95.221215 C94.7165995,95.1049491 94.7886476,94.9967015 94.9087278,94.9044907 C95.0868468,94.7671766 95.2739718,94.8243073 95.4390821,94.9305503 C95.723272,94.8794334 96.0164679,94.8694104 96.3126658,94.8864494 C96.4137333,94.9405732 96.5168022,94.9936947 96.619871,95.0458139 C95.4200694,96.0661472 94.2132632,97.07746 93.054489,98.1408919 C91.0171278,100.011169 89.0788328,101.990696 86.9664215,103.78079 C86.7312644,104.334055 86.2609502,104.663809 85.8036447,105.005591 L85.802644,105.006593 L85.8126507,105.008598 C85.7506092,105.513753 85.3053117,105.649062 84.9690871,105.889612 C84.9170523,105.975809 84.8650176,106.061004 84.8129828,106.146199 L84.8129828,106.147201 C84.7979728,106.366703 84.5017749,106.608256 84.6858979,106.768622 C84.9921025,107.037237 85.1101814,106.581194 85.3353318,106.490988 C85.3773599,106.473949 85.4143846,106.446887 85.4544114,106.423834 C85.5554789,106.14219 85.7436046,105.945741 86.0237918,105.839498 C87.0955078,104.812148 87.9680908,103.567301 89.3079859,102.832621 C91.0911773,100.910225 93.1065238,99.2384018 95.0558261,97.4934112 C95.871371,96.7637425 96.7689706,96.1573558 97.6655697,95.5499668 C97.8346827,95.6251387 98.0007936,95.698306 98.1629019,95.7664619 C98.5161379,95.9158034 98.8753779,95.9568974 99.2386206,95.9979914 C100.000129,96.3507982 100.795661,96.6424652 101.615208,96.8970474 C101.724281,96.9311253 101.833354,96.9672078 101.943428,97.0022881 C102.23062,97.1806961 102.509806,97.369127 102.776985,97.5735946 C102.753969,97.4663493 102.730954,97.3581018 102.707938,97.2508565 Z M98.3320149,63.3423118 C99.0454916,62.7880443 99.7499623,62.2187424 100.506468,61.7115826 C100.679583,61.596319 100.857702,61.4910783 101.037823,61.3928537 C101.116875,60.9969483 101.481119,60.8085174 101.785322,60.6060544 C103.201268,59.6669066 104.604205,58.7047062 106.070185,57.849751 C106.906744,57.3616348 107.835364,57.0409013 108.869055,57.1621786 C110.456115,57.348605 111.04751,58.2997802 110.337036,59.7460877 C109.808683,60.8205449 108.940102,61.6093488 107.959447,62.3059418 C105.461778,64.0810011 102.88906,65.7007052 100.146227,67.0979004 C97.0111324,68.6945518 94.0251375,70.5848747 90.9710971,72.3418928 C90.6989152,72.4992526 90.4307361,72.7147454 89.9284004,72.5533764 C89.9364058,71.169211 88.7646229,70.277171 88.1852358,69.0944663 C88.6265307,68.4840704 89.2309345,68.1392819 89.8113222,67.9368189 C92.2489508,67.0868752 94.1572257,65.3619305 96.3306778,64.0810011 C96.9971231,63.6881026 97.6275443,63.4144769 98.3320149,63.3423118 Z M88.6055166,57.9650146 C85.3223231,57.890845 82.0661476,58.4200553 78.7859561,58.271716 C78.1315189,58.2416473 77.467075,58.2636977 76.8246458,58.1574547 C75.16954,57.8848313 73.9116996,55.9103158 74.305963,54.3106576 C74.4440553,53.7533831 74.819306,53.5940187 75.3196403,53.5870027 C78.2435938,53.5479133 81.1285212,53.1449918 84.1015075,53.4196199 C87.390705,53.7223121 90.7609567,53.8435894 94.0831763,53.3284113 C94.3413487,53.2883196 94.6105286,53.2362004 94.8656991,53.2642646 C97.6215403,53.5739729 100.335353,53.2482279 103.042162,52.7701346 C103.289327,52.7260337 103.556505,52.7941896 104.26698,52.8392927 C102.844029,54.3216828 101.825349,55.6396969 101.089857,57.1631809 C100.768643,57.8266983 100.1052,57.9349459 99.4037309,57.9349459 C95.8043262,57.938955 92.2029201,58.045198 88.6055166,57.9650146 Z M103.841696,45.4253379 C102.32068,45.0204119 101.128884,44.1053192 100.028148,43.1100431 C98.3870517,41.6266508 99.0144709,39.9377886 99.8620371,38.2459195 C102.015476,38.645834 103.976786,39.5228396 106.127223,39.8014769 C108.529828,40.1131897 110.918424,40.5451776 113.341043,40.4489576 C114.455787,40.4048567 115.08821,40.6935168 115.365395,41.7800015 C115.487477,42.2600994 115.531506,42.927626 116.272001,42.8394243 C116.981475,42.7552317 117.157592,42.1348129 117.281675,41.5494743 C117.382743,41.0693764 117.009493,40.5451776 117.509828,39.918745 C117.986146,40.9501036 118.260329,41.953398 118.309362,42.9546879 C118.350389,43.7825811 118.812698,43.9870487 119.403093,44.0471863 C120.089551,44.1163444 119.900425,43.4017101 120.100559,43.047901 C120.604896,42.1538565 120.231646,41.2618165 119.990485,40.3797994 C119.887416,40.000933 119.722306,39.6300849 119.681278,39.246207 C119.655261,38.9916248 119.844387,38.7460633 120.141586,38.6949464 C120.449792,38.6428272 120.677944,38.8262466 120.694956,39.1008747 C120.735983,39.7553714 120.823041,40.3928292 121.032181,41.0172572 C121.140253,41.3419998 121.252328,41.6577219 121.634583,41.7008204 C122.103897,41.7539419 122.376079,41.4442336 122.492156,41.0503328 C122.619241,40.6203495 122.658267,40.1653089 122.743324,39.6771926 C123.462805,40.5401661 123.557868,41.7419144 122.855399,42.7702661 C121.543523,44.6916601 119.65326,45.9355046 117.425772,46.3694971 C112.839708,47.2635417 108.316686,46.6150587 103.841696,45.4253379 Z M106.009144,34.5735212 C110.330031,34.4913332 114.596882,35.039587 118.771671,36.2032481 C118.945787,36.2513582 119.095887,36.3886722 119.490151,36.6242108 C115.571533,38.1877865 105.979124,37.7648193 102.23062,35.9246109 C103.297332,34.8551652 104.70127,34.5985785 106.009144,34.5735212 Z M124.575548,45.3732187 C127.51151,43.260387 130.693636,41.3640503 134.468158,40.9671426 C135.245677,40.8859569 135.996178,40.9911976 136.376433,41.6557173 C136.797714,42.3903974 136.285372,43.0519102 135.764023,43.5670883 C134.406116,44.9101598 132.70498,45.7971883 131.166952,46.8957005 C129.046535,48.4101639 126.772016,49.7101367 124.53352,51.0522059 C123.266674,51.8129456 121.845725,52.0314453 120.777011,51.9552711 C119.920438,51.9552711 119.461131,51.9763192 119.003826,51.9512619 C117.667933,51.8770923 117.430775,51.4290677 118.024171,50.2072736 C118.298355,49.6419809 118.753659,49.3162359 119.28001,49.0195575 C121.155263,47.9621393 122.834385,46.6250816 124.575548,45.3732187 Z M137.617262,36.0549089 C140.221001,36.4468051 141.998188,38.2148484 142.06023,40.4750172 C142.119269,42.6048879 141.131609,43.7946087 138.70799,44.410016 C138.473834,43.9058631 138.597917,43.5410287 138.726002,43.1631646 C139.619599,40.5321478 138.239677,39.0247005 135.714991,38.6107538 C135.019526,38.4964925 134.290039,38.5927126 133.555548,38.5927126 C134.113921,37.0431689 136.097246,35.825384 137.617262,36.0549089 Z M72.3546594,59.7751542 C71.5311091,60.3985799 70.6745369,60.7203157 69.6638616,60.3614951 C67.374332,59.5496385 66.845979,58.8500386 67.2032177,56.4315077 C67.4964136,54.4519808 68.3800039,52.7160108 70.2252367,51.6585926 C70.9317087,51.2536666 71.6531907,51.0231394 72.4337122,51.471164 C71.5961526,53.5429018 71.5451185,55.6016098 72.3626647,57.6923912 C72.6208372,58.3508971 73.3032931,59.057513 72.3546594,59.7751542 Z M214.501628,61.8268462 C214.581682,61.7316284 214.671742,61.6404198 214.751795,61.5391883 C215.962604,59.9455439 217.763808,59.2720036 219.494964,58.491218 C220.075352,58.2296197 220.495633,57.81868 220.62572,57.2142978 C220.845867,56.2320516 221.396235,56.0596573 222.386896,55.8792447 C227.110052,55.0112598 231.903254,55.1515807 236.65643,54.8278403 C238.477647,54.7035561 240.318877,54.6514369 242,53.8225413 C241.869913,53.3895511 241.599733,53.2712806 241.229485,53.320393 C238.877914,53.6381196 236.546356,53.4266359 234.184779,53.3173861 C231.512994,53.1931019 228.821195,53.0457649 226.14941,53.4296428 C224.968621,53.5990302 223.787832,53.5418995 222.607043,53.5318766 C221.746469,53.5238583 221.496301,53.1429872 221.616382,52.2820183 C222.396903,46.5418914 222.056676,40.7636773 221.946602,35.0105205 C221.896569,32.9067094 222.216783,30.7457676 221.636395,28.6299289 C221.426255,27.8401227 221.256141,27.0994288 220.605706,26.5952759 C217.823848,24.4623983 216.94326,23.2716752 212.510298,23.1433818 C211.009295,23.099281 210.919235,23.0481641 211.039315,21.6178932 C211.229442,19.3416878 210.909228,17.0474412 211.329509,14.7852679 C211.559663,12.9811421 211.439582,11.1329154 212.009964,9.36587438 C212.210097,8.76048994 211.89989,8.21323844 211.599689,7.70206946 C211.229442,7.08265293 210.759128,6.51034413 210.488947,5.85183821 C209.408225,3.22783744 207.176734,2.21151324 204.695076,1.41870017 C201.733098,0.474540994 198.661045,0.269071109 195.609006,0.0385439221 C192.707067,-0.17995576 189.915202,0.546706026 187.273437,1.80758951 C187.073303,2.09624964 186.87317,2.38390748 186.673036,2.67156532 L186.673036,2.67256761 C186.162695,3.69490557 186.032608,4.75132146 186.102655,5.90896886 C186.192715,7.18989819 186.292782,8.51292379 185.802454,9.76578893 L185.802454,9.76679123 C185.932541,12.908977 185.742414,16.0401376 185.45222,19.1642821 C185.382173,19.8919462 185.39218,20.6075828 185.442214,21.3242216 C185.51226,22.3044633 185.111993,22.8707584 184.111324,22.8126254 C181.149345,22.6402312 178.687701,24.0825296 176.156009,25.2842778 C175.195368,25.7433276 174.424853,26.4309 173.994565,27.4742861 C173.254071,29.292444 172.603636,31.1306477 172.853803,33.1342297 C173.284091,36.4708601 173.143997,39.8104975 172.943863,43.1481302 C172.77375,45.8924061 172.533589,48.633675 172.293429,51.3739417 C172.173349,52.8282675 172.143329,52.9134624 170.812439,52.7581071 C166.376476,52.2339083 161.926503,52.346165 157.473528,52.4213369 C156.116621,52.4433873 154.865785,52.4293553 153.811081,51.1253732 C152.847437,49.9326456 150.161642,49.8644897 148.880787,50.9038667 C147.833087,51.7538104 146.800397,51.8981404 145.615605,51.656588 C144.220673,51.3719371 142.86877,51.7087072 141.511864,51.8831061 C137.25602,52.4293553 133.00518,51.9141771 128.371084,51.917184 C129.317717,51.1524351 129.997171,50.5199888 130.757679,50.0068152 C132.16662,49.05564 133.629597,48.187655 135.054549,47.2605348 C135.726999,46.8225331 136.319394,46.7393429 137.19598,46.8485927 C139.783709,47.1733354 142.108262,46.4657172 143.63128,44.094294 C143.859432,42.4906266 144.178645,40.9180303 144.022541,39.2562299 C143.874442,37.681629 143.224007,36.4387868 142.051224,35.5677949 C139.062227,33.3497225 135.737005,33.2705414 132.620923,35.5657904 C131.855412,36.1290785 131.402109,36.9188847 131.262016,37.8740691 C131.107913,38.9254735 130.577558,39.6210643 129.554875,40.0530522 C128.486161,40.5040836 127.4975,41.1475552 126.347732,41.7759923 C126.132589,40.6624458 126.037525,39.6431147 125.664276,38.6829188 C124.657603,36.092996 122.52818,34.8321125 120.134581,33.8548777 C118.429442,33.159287 116.621234,32.8906727 114.823033,32.5899851 C113.985473,32.4496642 113.146913,32.3354029 112.405417,31.8743485 C110.835368,31.862321 109.255313,31.9535296 107.696271,31.8112041 C105.367715,31.5997204 103.252302,32.3574533 101.27298,33.3066239 C98.5421553,34.6156174 96.8250081,36.8507289 96.5578296,40.0119582 C96.5308115,40.323671 96.3536932,40.6223541 96.2466217,40.9280532 C96.1395501,42.0135356 96.4457547,43.0398827 96.6959218,44.0742482 C97.510466,45.0154005 98.198926,46.0958714 99.4477604,46.5539189 C99.7639716,46.6962443 100.049162,46.8716455 100.141224,47.240489 C101.178917,47.4579863 101.864375,48.503377 103.011141,48.4622831 C103.466445,48.5133999 103.928754,48.5294366 104.374052,48.6256567 C104.743298,48.70584 105.215614,48.7920372 105.197602,49.3032061 C105.174586,49.9166089 105.062512,50.5320163 104.185926,50.3816725 L104.047834,50.4548398 L103.89273,50.4317871 L103.891729,50.4317871 C103.250301,50.8697887 102.495797,50.8327039 101.802333,50.7825893 C101.678251,50.7735687 101.555168,50.7685572 101.431085,50.7615412 C100.702599,50.8126581 99.9841187,50.8086489 99.3056654,50.7084197 C96.0244732,50.7294678 92.7552891,51.1514328 89.4720956,51.114348 C86.8573487,51.0842792 84.2436024,51.3198179 81.6458669,50.7835916 C80.6842244,50.5861401 79.6615411,50.5751148 78.71691,50.8517475 C77.3109707,51.2636895 76.1882206,50.8276925 75.0774785,50.0118267 C72.3806767,48.0282906 68.4980828,48.5464756 66.6428433,51.2767193 C66.3596541,51.6936728 66.0814682,52.0113994 65.7812677,52.2379175 C65.7472449,52.3181008 65.7132222,52.3982842 65.6791995,52.4794699 C64.8226272,52.548628 63.9660549,52.6498595 63.1184886,52.7099971 C57.8799888,53.0828497 46.4593586,52.7591094 41.2328668,52.5376028 C36.5807587,52.3401513 31.9336539,52.4804722 27.2845479,52.4012911 C21.523699,52.3030665 15.7608488,52.3682154 10,52.363204 L10,54.7316203 C11.0196813,54.5030977 12.0323578,54.3918432 13.0670491,54.7035561 C13.4322931,54.8138082 13.8485712,54.8298449 14.2338286,54.7947647 C18.3505791,54.4158982 22.4533201,54.7396386 26.5570618,55.0062483 C26.8832798,55.0272964 27.2185037,55.0343125 27.5397183,54.9852002 C32.2908926,54.2615453 37.0770903,54.7145813 41.8242619,54.8208243 C47.4550238,54.9471131 58.7405637,55.1606013 64.8396386,54.8799595 C64.8356359,54.9741749 64.8316332,55.0683904 64.8276305,55.1626059 C63.8349673,58.0271567 65.1088184,61.2585465 67.896681,62.5765607 C69.9470508,63.5457771 72.1605297,63.0155646 73.9026936,61.7737247 C74.478078,61.6875276 75.0244431,61.538186 75.4557312,61.1553104 C75.6688736,60.9668795 75.8920227,60.8195426 76.1241778,60.7052813 C76.1762126,60.3835455 76.3803489,60.0898739 76.7305829,60.014702 C78.2926265,59.6789342 79.8546701,59.7420786 81.4387285,59.8202573 C83.1078436,59.9034476 84.7539434,59.7931955 86.4120512,59.6007554 C88.124195,59.4023015 89.7933102,59.2469462 91.5204641,59.3461732 C92.6111928,59.4083153 93.7079256,59.503533 94.8016563,59.4804803 C95.7993228,59.3151021 96.8150014,59.2569692 97.7816472,59.6197989 C98.4721085,59.8793926 98.6612349,60.7844624 97.9887856,61.2034205 C96.0474886,62.4121848 94.0401475,63.6630453 91.9687636,64.7284818 C91.7756346,64.5380463 91.5134594,64.4107552 91.2042528,64.4117575 C90.228601,64.4137621 89.2779659,64.1962647 88.293308,64.2183152 C87.2646208,64.2423702 86.2489422,64.3556292 85.2402683,64.5631036 C85.2022429,64.5701197 85.1662188,64.5801426 85.1311954,64.5911678 C83.2739546,64.4117575 81.4147124,64.2523931 79.5174448,64.3917117 C74.4370506,64.7655667 69.3416464,64.959009 64.2832668,65.5854416 C60.1294917,66.1006198 55.9847226,66.5466397 51.7909207,66.694979 C44.9573551,66.9365314 38.5931032,69.206723 32.3329207,71.7605634 C30.5897561,72.4721908 28.8906209,73.2960749 27.1714723,74.0678398 C25.593418,75.8559289 23.4699994,76.9434159 21.6307706,78.3957372 C20.9703293,79.211603 20.3118894,80.028471 19.3352369,80.4975437 C19.2211607,80.6138096 19.1060838,80.7300755 18.9920076,80.8463414 C18.5176907,81.3845723 18.0443745,81.9228031 17.5680562,82.4590294 C16.0460394,84.1719467 14.7331622,85.9610381 14.0406996,88.2362412 C12.9389635,91.8565203 13.4302918,95.5309232 13.3002049,99.1872849 C13.2611788,100.279783 13.4763225,101.256016 14.1687852,102.120994 C14.2738554,102.252294 14.2488387,102.501865 14.2528413,102.697312 C14.3118808,105.95877 15.0944036,109.041821 16.5323643,111.9625 C18.3735944,114.497297 19.6304341,117.414969 21.6768013,119.813454 C22.1331062,120.088082 22.4012853,120.500024 22.5443809,121.002173 L22.5453816,121.003175 L26.0167008,124.126317 C26.9553279,124.586369 27.8249089,125.136628 28.6764778,125.758049 C31.4223123,127.760629 34.42732,129.34425 37.3993056,130.980993 C39.8239255,132.317049 42.5217279,132.80316 45.0854407,133.700212 C48.5257392,134.902962 52.1071319,135.604567 55.5884578,136.692054 C58.5964675,137.631201 61.8556449,137.797582 65.0077509,138.273671 C70.7105609,139.135642 76.434385,139.499474 82.1682158,139.470407 C82.3543402,139.469405 93.0745024,140.684183 103.526485,140.939768 C111.00248,141.122185 118.359395,140.849561 122.279014,140.662133 C122.965473,140.672156 123.652932,140.653112 124.342393,140.579945 C124.550532,140.557894 124.758671,140.540855 124.96681,140.52081 C125.092894,140.513794 125.165943,140.509784 125.180953,140.509784 C125.181953,140.506777 125.180953,140.503771 125.181953,140.499761 C125.254002,140.493748 125.32605,140.488736 125.398098,140.482722 C128.240997,140.610014 131.086899,140.645094 133.91779,140.660128 C139.652621,140.689195 145.375445,140.325363 151.078255,139.463391 C154.230361,138.9863 157.490539,138.820922 160.497548,137.880772 C163.978874,136.794287 167.561267,136.091681 171.002566,134.88893 C173.564278,133.992881 176.266083,133.506769 178.687701,132.170714 C181.659686,130.533971 184.661692,128.950349 187.413531,126.94777 C188.264099,126.326349 189.13468,125.77609 190.065302,125.316038 C191.226078,124.274657 192.386853,123.233275 193.537622,122.191894 C193.687722,121.688743 193.957903,121.277803 194.408204,121.003175 C196.459574,118.60469 197.71041,115.686015 199.55164,113.152221 C200.992603,110.230539 201.773124,107.148491 201.833164,103.88603 C201.833164,103.690583 201.813151,103.441013 201.913218,103.310715 C202.613686,102.444734 202.823826,101.469504 202.7838,100.377006 C202.653713,96.720644 203.14404,93.0462411 202.043305,89.4259619 C201.352843,87.1497565 200.041968,85.3616674 198.520951,83.6487502 C198.040631,83.1125239 197.570316,82.5732907 197.089995,82.0360622 C196.979922,81.9197963 196.869848,81.8035304 196.749768,81.6872645 C195.77912,81.2181918 195.118678,80.4013237 194.458237,79.5854579 C192.617007,78.1331366 190.49559,77.0456497 188.914533,75.2565583 C187.193384,74.4847933 185.492247,73.6619115 183.751084,72.9502841 C177.496905,70.3964438 171.132653,68.1262521 164.295085,67.8836974 C160.102284,67.7353582 155.956514,67.2903405 151.802739,66.7751624 C146.74536,66.1477275 141.648955,65.9552874 136.568561,65.5814324 C134.118924,65.4010199 131.73233,65.7187465 129.329725,65.9352416 C128.387095,66.0204364 127.837728,65.7808886 127.404438,65.0011053 C126.569881,63.5036809 125.62625,62.0934559 124.018176,61.311668 C124.424447,60.7413638 124.911773,60.7654188 125.355069,60.8055105 C129.717984,61.1994113 134.084902,61.0400468 138.451819,60.9468337 C140.998521,60.8927099 143.544221,60.8375838 146.088921,60.7543936 C146.907468,60.7273317 147.545895,60.9328016 148.235356,61.459005 C150.86211,63.4645915 152.375121,63.1959772 154.310414,61.936096 C154.745705,61.6524473 155.138968,61.2956313 155.674326,61.1713471 C156.185667,61.0520744 156.455848,60.6080589 156.508883,60.1650458 C156.715021,58.4451126 157.374461,56.6740624 155.985533,55.1245188 C156.446842,54.6464254 156.928163,54.8168151 157.346443,54.8138082 C161.522233,54.7797303 165.698022,54.7677028 169.871811,54.7516661 C170.262072,54.7496615 170.662339,54.7697074 171.0526,54.7737165 C171.803101,54.7807326 172.103302,55.1926746 172.073282,55.9073089 C172.063275,56.0386092 172.083288,56.1799324 172.033255,56.2992051 C171.3528,58.1945395 172.343462,59.2469462 173.754405,60.3604928 C176.686364,62.6747853 179.968557,63.8494717 183.64101,64.2543977 C186.092648,64.5260188 188.504259,64.5340372 190.905864,63.9336642 C192.556967,63.5207198 194.128017,62.934379 195.588993,62.0042519 C196.789795,61.2405053 197.720417,60.3434538 198.290798,58.9973755 C198.901206,57.5741207 198.971252,57.6122078 200.212081,58.4370942 C200.532295,58.6555939 200.882529,58.8470317 201.222757,59.0414764 C202.333499,59.6779319 202.393539,59.7791634 201.402877,60.6912492 C198.701072,63.1749291 196.279454,65.9562897 193.377515,68.225479 C192.506934,68.9120491 191.966572,69.9604467 190.995924,70.5528013 C190.82581,71.176227 190.715737,71.7615656 191.676379,71.7234785 C192.827147,69.5695528 194.908538,68.3106739 196.619681,66.719034 C198.390865,65.0782818 200.332162,63.6259605 202.223425,62.1255292 C202.833833,61.6434267 203.514288,61.2485236 204.184735,60.8526182 C205.04531,60.3414492 205.815825,60.8285632 206.606353,61.1001844 C206.55632,61.9561418 206.055986,62.4101802 205.505618,62.9043102 C203.214087,64.959009 200.982596,67.07585 198.701072,69.1425763 C197.290129,70.4164896 195.83916,71.639286 194.408204,72.8851351 C194.41821,73.0274606 194.428217,73.1647746 194.458237,73.2710176 C194.518277,73.3481941 194.578317,73.4143453 194.638358,73.4694714 C194.728418,73.4764875 194.858505,73.4243683 195.048632,73.2880565 C197.280122,71.6693548 199.37152,69.8812656 201.412884,68.0450665 C203.26412,66.3822638 205.205417,64.8086652 206.856521,62.9303698 C208.067329,61.548209 209.558326,60.9368108 211.389549,61.0630996 C211.89989,61.0991821 212.430244,61.0530766 212.950592,61.0450583 C213.230779,61.1422806 213.59102,61.0570858 213.731113,61.4379568 C210.518967,64.5109845 207.176734,67.4647393 204.144709,70.7121658 C202.753779,72.2015719 201.252777,73.5165791 199.741767,74.8446162 C199.4916,75.067125 199.201406,75.3116843 199.43156,75.6544682 C199.771787,76.1506028 200.081994,75.7647204 200.402208,75.5512321 C201.382864,74.8917239 201.983265,73.780182 203.073993,73.2569855 L203.073993,73.2629992 C203.574328,72.4431243 204.394876,71.9580149 205.075331,71.3255686 C207.977269,68.5221575 210.879208,65.7197488 213.781147,62.9143331 C214.101361,62.6076317 214.551662,62.3841206 214.501628,61.8268462 Z" id="Fill-13" fill="#000000"></path>
        <path d="M11.2055169,73.7080455 C13.569869,71.1767192 16.2402666,68.9767339 18.8236512,66.6802319 C20.2958704,65.3707879 21.97212,64.3638295 23.5713581,63.2394589 C23.8353974,63.0543855 24.0984366,62.8016509 23.9634165,62.4315041 C23.7943913,61.9678257 23.3763291,61.9827509 22.9762695,62.0126015 C22.5572071,62.043447 22.2561623,62.3021518 21.9581179,62.5578715 C20.02483,64.2115917 18.0485358,65.8185461 16.1702561,67.5319675 C13.4698541,69.9946375 10.9024718,72.6005902 8.10205483,74.9567933 C7.79000837,75.6851466 7.1669156,76.1179796 6.56082536,76.5687228 C6.56082536,76.5687228 6.56082536,76.5687228 6.56082536,76.5697178 L6.57282714,76.5727029 C6.49181508,77.237375 5.89972692,77.4154833 5.45466066,77.7328941 C5.38565038,77.8453312 5.31764025,77.9577682 5.24862998,78.0702053 L5.24862998,78.0712003 C5.228627,78.3607506 4.83556848,78.6781614 5.07960481,78.8901003 C5.48466512,79.2433317 5.64268865,78.6423408 5.93973288,78.5249286 C5.99574122,78.5020432 6.04574866,78.4652275 6.09875656,78.435377 C6.23177636,78.0652302 6.48181359,77.8065255 6.85286884,77.6672229 C8.2730803,76.3139982 9.42925244,74.6752032 11.2045168,73.7090405 L11.2055169,73.7080455" id="Fill-14" fill="#000000"></path>
        <path d="M4.57237752,71.9536905 C6.31374326,70.017498 8.28181879,68.3355631 10.1853993,66.5789653 C11.2700884,65.5770689 12.5052659,64.8072331 13.6837659,63.9475999 C13.8782282,63.8063456 14.0726905,63.6136344 13.9730164,63.3301169 C13.8479351,62.9759722 13.5401179,62.9870708 13.2459815,63.0092679 C12.9371871,63.0334829 12.7153633,63.2312389 12.4945167,63.426977 C11.0707401,64.6912028 9.61471602,65.920115 8.23100453,67.2307529 C6.24143065,69.1134706 4.34859932,71.1061649 2.28573564,72.9081659 C2.05609426,73.4651113 1.59681149,73.7960499 1.15023228,74.1411139 L1.14925508,74.1411139 L1.15902706,74.1441408 C1.09844082,74.6516472 0.663587984,74.7878567 0.335249662,75.0310158 C0.284435399,75.1167774 0.233621135,75.2035479 0.182806871,75.2893094 C0.16814891,75.5112804 -0.121101516,75.7534306 0.0587028028,75.915873 C0.357725202,76.186274 0.473034494,75.7261887 0.692903905,75.6363913 C0.733946195,75.619239 0.770102498,75.5909882 0.809190394,75.5687911 C0.90788733,75.2852735 1.09160044,75.0875176 1.36521571,74.9805679 C2.4117941,73.9463848 3.26391022,72.6922486 4.57237752,71.9536905" id="Fill-15" fill="#000000"></path>
        <path d="M74.5723775,100.952812 C76.3137433,99.0176901 78.2818188,97.3348004 80.1853993,95.5792679 C81.2700884,94.5774037 82.5052659,93.8075926 83.6837659,92.947987 C83.8782282,92.8057284 84.0726905,92.6130234 83.9730164,92.329515 C83.8479351,91.9763906 83.5401179,91.9864799 83.2450043,92.0096852 C82.9371871,92.0338994 82.7153633,92.2316491 82.4945167,92.4263719 C81.0707401,93.691566 79.614716,94.9204388 78.2300273,96.2300256 C76.2404535,98.1136918 74.3485993,100.106322 72.2857356,101.907256 C72.0560943,102.465193 71.5958343,102.796121 71.1502323,103.140165 L71.1492551,103.141174 L71.1590271,103.143191 C71.0984408,103.651691 70.663588,103.787896 70.3352497,104.031047 C70.2844354,104.116806 70.2336211,104.202565 70.1828069,104.288323 L70.1828069,104.289332 C70.1681489,104.510287 69.8788985,104.753439 70.0587028,104.915876 C70.3577252,105.186268 70.4730345,104.726197 70.6929039,104.636403 C70.7339462,104.619251 70.7701025,104.591001 70.8091904,104.567796 C70.9078873,104.285297 71.0916004,104.087547 71.3652157,103.980601 C72.4108169,102.946451 73.2639102,101.692355 74.5714003,100.953821 L74.5723775,100.952812" id="Fill-16" fill="#000000"></path>
        <path d="M78.1501114,100.140181 L78.1501114,100.14119 L78.1589062,100.143208 C78.099297,100.651703 77.6634657,100.787907 77.3351264,101.030047 L77.3351264,101.031056 C77.284312,101.116814 77.2334976,101.202572 77.1836603,101.28833 L77.1826831,101.289339 C77.1690023,101.510292 76.8787739,101.753441 77.0585787,101.915876 C77.357602,102.186266 77.4729116,101.7262 77.6927817,101.636406 C77.7338241,101.619255 77.7709577,101.591005 77.8090685,101.5678 C77.9077657,101.285303 78.0914794,101.087555 78.3650954,100.98061 C79.4116769,99.9454604 80.2637955,98.6923847 81.5722666,97.9538571 L81.5722666,97.9528481 C83.3146146,96.0177442 85.2817187,94.3348696 87.1853047,92.5783441 C88.2709742,91.5774978 89.5061552,90.8076937 90.6836815,89.9480959 C90.8791216,89.8058385 91.0726072,89.6131353 90.9729328,89.3296294 C90.8478512,88.9754993 90.5400331,88.9865974 90.2458958,89.0098025 C89.9371005,89.0340166 89.7152761,89.2317644 89.495406,89.4264855 C88.0706481,90.6916682 86.6146198,91.9205298 85.2309042,93.2301049 C83.2413246,95.113754 81.3494649,97.1063663 79.285618,98.9072842 C79.055976,99.4642067 78.5966919,99.7961406 78.1501114,100.140181" id="Fill-17" fill="#000000"></path>
        <path d="M98.2458958,98.0092678 C97.9371005,98.0334826 97.7152761,98.2312368 97.495406,98.4269731 C96.0706481,99.6911876 94.6146198,100.921098 93.2309042,102.230715 C91.2413246,104.113416 89.3494649,106.106092 87.285618,107.908077 C87.055976,108.465018 86.5966919,108.795953 86.1501114,109.141014 L86.1589062,109.144041 C86.099297,109.652552 85.6634657,109.78876 85.3351264,110.030908 C85.284312,110.117678 85.2334976,110.203439 85.1836603,110.289199 L85.1826831,110.289199 C85.1690023,110.511168 84.8787739,110.753316 85.0585787,110.915757 C85.357602,111.186156 85.4729116,110.727084 85.6927817,110.636278 C85.7338241,110.619126 85.7709577,110.590875 85.8090685,110.568678 C85.9077657,110.285163 86.0914794,110.087409 86.3650954,109.980461 C87.4116769,108.946287 88.2637955,107.692162 89.5722666,106.95361 C91.3146146,105.017435 93.2817187,103.335515 95.1853047,101.578933 C96.2709742,100.578055 97.5061552,99.8072169 98.6836815,98.9486003 C98.8791216,98.8063384 99.0726072,98.6136289 98.9729328,98.3301139 C98.8478512,97.9759725 98.5410103,97.9870709 98.2458958,98.0092678" id="Fill-18" fill="#000000"></path>
        <path d="M224.074306,90.6456365 C223.794729,91.6194826 223.22559,92.0654121 222.217116,91.9344328 C222.157207,91.9254343 222.087313,91.9324331 221.967494,91.9324331 C221.328461,92.0634124 220.769307,91.9154358 220.319987,91.3075319 C219.53118,90.2466996 219.55115,89.712784 220.549639,88.8119263 C220.789277,88.5999599 221.068854,88.4169888 221.358416,88.2740114 C221.937539,87.9800578 222.486708,87.0901985 223.205621,87.8160837 C223.944503,88.560966 224.403808,89.4858198 224.074306,90.6456365 Z M237.713669,88.7959289 C236.345739,90.7866142 234.628337,92.4543507 232.870996,94.4350376 C232.841041,94.4650329 232.811087,94.4930284 232.791117,94.5230237 C232.781132,94.477031 232.781132,94.4360374 232.771147,94.3940441 C232.721223,93.9331169 232.661313,93.7441468 232.711238,93.5961702 C233.629848,90.8086108 232.571449,88.5839624 230.624395,86.7162576 C227.87855,84.0786744 223.385349,82.7358867 219.621044,85.6194309 C218.093356,86.8002443 217.024972,88.3469998 216.096377,90.0047378 C215.966574,91.5754896 215.956589,93.1452415 216.136317,94.7129937 L216.136317,94.7139935 L216.136317,94.7129937 L216.136317,94.7139935 C216.136317,94.7129937 216.126332,94.7119938 216.126332,94.710994 C216.915139,96.4497192 217.71393,98.184445 219.271573,99.4052521 C220.280047,99.6002212 221.088823,100.252118 222.027403,100.602063 C222.027403,100.598064 222.017418,100.596064 222.017418,100.592064 C222.83618,100.631058 223.67491,100.55407 224.423777,100.982003 C224.903052,100.988002 225.392312,100.994001 225.871587,101 C226.191103,100.663053 226.630439,100.594064 227.049804,100.489081 L227.059789,100.489081 C227.459185,100.273115 227.868565,100.057149 228.267961,99.8411832 C229.765695,99.3142664 230.913957,98.3384207 231.882492,97.102616 C232.032265,96.9026476 232.271903,96.7716683 232.451631,96.5866975 C234.438624,94.5260232 236.445588,92.4853458 238.392641,90.3856776 C239.351191,89.3508412 239.211403,89.0998808 237.713669,88.7959289 Z" id="Fill-19" fill="#000000"></path>
        <path d="M242.881197,89.0021445 C241.770334,88.9447391 241.478002,90.054577 240.766661,90.5611546 C240.747172,90.5802897 240.737427,90.5984178 240.727683,90.6165458 C239.675287,92.1604492 238.359792,93.466674 237.093019,94.8151976 C235.991901,95.9955334 234.842061,97.1335705 233.721454,98.2897356 C233.62401,98.38239 233.526566,98.4659803 233.438866,98.5566204 C233.107557,98.8869533 232.785991,99.2213147 233.185512,99.7218495 C233.614266,100.26569 233.974809,99.89608 234.296374,99.5929392 C237.278163,96.8284154 239.957875,93.7587367 242.57912,90.636688 C242.99813,90.1361531 243.115063,89.6114475 242.881197,89.0021445" id="Fill-20" fill="#000000"></path>
        <path d="M247.781622,92.1776817 C247.435247,91.8698188 247.037935,92.0119094 246.69156,92.2280054 C246.426685,92.4006849 246.12106,92.5763246 245.937685,92.8230095 C244.827248,94.2764773 243.299124,95.2997266 241.974749,96.5321647 C241.781187,97.1883467 241.281999,97.5800824 240.721687,97.9491231 C239.978,98.4355858 239.4075,99.0779535 239,99.9245763 C239.85575,100.191983 240.242875,99.6907189 240.670749,99.3206915 C242.962936,97.3491853 245.244936,95.3757055 247.537122,93.4032126 C247.557497,93.382491 247.577872,93.3627562 247.608435,93.3430214 C247.771435,92.9680603 248.290997,92.6227014 247.781622,92.1776817" id="Fill-21" fill="#000000"></path>
        <path d="M219.858038,60.2326861 C219.427807,59.7547283 219.105134,60.1050328 218.762905,60.4622642 C217.110427,62.1613402 215.330835,63.7357315 213.805471,65.5436591 C212.397443,67.2269021 210.774299,68.6726505 209.297824,70.2767286 C208.49603,71.1485317 207.410675,71.7927358 207,73 C207.254227,72.9990104 207.498677,72.9990104 207.752904,72.9980209 C207.792016,72.7714114 207.91913,72.6487059 208.144023,72.6180295 C208.339583,72.2914744 208.564476,72.0054914 208.936039,71.8867441 C209.952949,70.8981728 210.920968,69.8581444 211.996546,68.9319154 C214.724601,66.5599381 217.139761,63.8772387 219.594033,61.2192783 C219.84826,60.9342848 220.200267,60.6176253 219.858038,60.2326861" id="Fill-22" fill="#000000"></path>
        <path d="M105.228823,73.2369846 C105.006823,73.4808812 104.831823,73.8254962 105.273823,73.9815111 C105.552823,74.0802546 105.704823,73.7632878 105.738823,73.5095168 C105.760823,73.3456025 105.705823,73.1718138 105.675823,73 C105.518823,73.0730702 105.334823,73.1204672 105.228823,73.2369846" id="Fill-23" fill="#000000"></path>
        <path d="M106,73 C106.002,73.015 106.006,73.03 106.009,73.045 C106.019,73.041 106.03,73.037 106.039,73.032 L106,73" id="Fill-24" fill="#000000"></path>
    </g>
</svg>