<?xml version="1.0" encoding="UTF-8"?>
<svg width="124px" height="97px" viewBox="0 0 124 97" version="1.1" xmlns="http://www.w3.org/2000/svg" xmlns:xlink="http://www.w3.org/1999/xlink">
    <!-- Generator: Sketch 50.2 (55047) - http://www.bohemiancoding.com/sketch -->
    <title>Artboard</title>
    <desc>Created with Sketch.</desc>
    <defs></defs>
    <g id="Artboard" stroke="none" stroke-width="1" fill="none" fill-rule="evenodd">
        <path d="M25.0790785,93.38 C25.0530785,93.813 24.4900785,93.433 24.3830785,93.381 C23.8930785,92.582 23.0480785,92.987 22.4690785,92.513 C21.7370785,92.673 21.0150785,93.24 20.2090785,93.733 C20.1140785,93.79 20.2360785,93.897 20.0360785,93.906 C19.8050785,93.92 19.7640785,94.241 19.5140785,94.254 C19.1500785,94.275 18.3890785,94.864 17.7750785,94.777 C17.2150785,94.699 17.1610785,94.253 16.5580785,94.084 C16.6280785,93.665 16.2400785,93.707 16.3830785,93.215 C15.7330785,93.245 15.1830785,93.364 14.6440785,93.737 L14.4710785,94.086 C14.1420785,94.235 13.9040785,94.217 13.6020785,94.435 L13.4280785,94.782 L13.0800785,94.783 C12.9540785,94.88 12.8510785,95.021 12.7330785,95.131 C12.6020785,95.252 12.5080785,95.352 12.3850785,95.479 C12.2000785,95.67 12.0740785,96.104 11.6890785,96.001 C11.8250785,95.794 11.5180785,95.698 11.5160785,95.654 C11.5040785,95.439 11.6580785,95.572 11.6890785,95.48 L11.8630785,94.957 L12.2100785,94.957 C12.3300785,94.812 12.4810785,94.451 12.7310785,94.262 C12.8800785,94.149 13.2780785,94.113 13.6010785,93.913 C13.8460785,93.761 14.0730785,93.507 14.2960785,93.39 C14.6630785,93.198 15.0770785,93.043 15.5130785,92.868 L15.8610785,92.868 L15.8610785,92.693 C16.0920785,92.672 16.5380785,93.08 16.7300785,92.867 C16.8320785,93.519 17.0820785,94.023 17.6020785,94.257 C17.8480785,94.241 18.0940785,94.228 18.1230785,94.43 C19.4000785,93.62 20.7920785,92.925 21.9470785,91.991 C22.0630785,91.991 22.1790785,91.991 22.2940785,91.991 C22.6460785,92.056 22.8580785,92.237 23.1650785,92.339 C23.4930785,92.447 24.1560785,92.517 24.3820785,92.686 C24.5600785,92.818 24.6690785,93.265 25.0790785,93.38" id="Fill-84" fill="#000000"></path>
        <path d="M65.4260785,93.517 C64.6930785,93.236 64.0580785,93.818 63.3400785,94.04 C63.2360785,94.072 62.5840785,94.074 62.4700785,94.214 C62.2900785,94.436 62.1160785,94.309 61.7750785,94.39 C61.6290785,94.425 61.6010785,94.535 61.4270785,94.563 C61.1610785,94.607 60.7200785,94.521 60.3840785,94.565 C60.0950785,94.602 59.9960785,94.772 59.6880785,94.738 C59.6940785,94.739 59.6340785,94.57 59.5150785,94.566 C59.0320785,94.54 58.8690785,94.38 58.4710785,94.219 C58.2560785,94.131 58.1070785,94.174 57.9490785,94.045 C57.3970785,93.6 57.3250785,92.928 56.9020785,92.133 C56.5260785,92.336 56.1000785,92.317 55.6860785,92.482 L55.3380785,92.483 C55.2090785,92.639 54.5250785,92.842 54.1220785,93.005 L53.7730785,93.005 L53.7730785,93.179 L53.4260785,93.179 L53.4260785,93.354 L53.0780785,93.354 L53.0780785,93.527 L52.7300785,93.528 L52.7310785,93.701 L52.3830785,93.702 L52.3830785,93.877 L52.0350785,93.877 L52.0350785,94.05 L51.6880785,94.051 C51.5740785,94.19 51.7620785,94.385 51.5140785,94.399 C51.3140785,94.409 51.2030785,94.406 51.1660785,94.573 C50.9140785,94.495 51.1840785,94.42 51.1660785,94.225 C51.1380785,94.023 51.2050785,93.915 51.3390785,93.878 C51.5040785,93.664 51.8260785,93.664 52.0350785,93.528 L52.2090785,93.181 C52.3020785,93.139 52.4690785,93.232 52.5560785,93.18 C52.8130785,93.031 53.0790785,92.879 53.4250785,92.657 C53.6220785,92.531 54.0960785,92.465 54.6420785,92.309 C55.1960785,92.15 55.7110785,91.914 56.5550785,91.785 C56.5740785,91.782 56.5840785,91.611 56.7290785,91.611 C56.8840785,91.611 57.1220785,91.9 57.4240785,91.785 C57.7060785,93.173 57.9620785,93.466 58.9920785,93.87 C59.0960785,93.911 59.2340785,93.976 59.3390785,94.045 C59.9230785,94.415 62.3840785,93.783 63.3390785,93.519 C63.5910785,93.449 63.7090785,93.251 64.0350785,93.169 C64.9470785,92.941 66.3270785,92.839 66.4700785,94.036 C66.8140785,94.06 67.0430785,94.218 67.3400785,94.384 C67.5130785,94.481 67.5550785,94.64 67.6880785,94.732 L68.0360785,94.731 C68.1100785,94.821 68.2900785,95.215 68.3840785,95.252 C68.5250785,95.309 68.7760785,95.178 68.9060785,95.251 C69.0040785,95.308 68.9960785,95.536 69.0810785,95.6 L69.4280785,95.6 C69.5440785,95.741 69.5610785,95.719 69.7760785,95.774 C69.9790785,95.823 70.1460785,95.906 70.4720785,95.946 L70.8200785,95.946 C70.9500785,96.104 71.0050785,95.982 71.3420785,95.945 C71.8120785,95.896 72.2310785,95.772 72.9060785,95.77 L72.7330785,96.118 C72.6560785,96.14 72.4080785,95.929 72.2110785,95.944 C71.9960785,95.961 72.1430785,96.265 72.0380785,96.293 C71.2060785,96.508 70.4170785,96.536 69.7770785,96.295 L69.4280785,96.295 L69.4280785,96.121 C69.2150785,96.043 68.7230785,96.036 68.5590785,95.947 C68.4560785,95.894 68.1800785,95.54 68.0370785,95.427 C67.9080785,95.324 67.5730785,94.917 67.3400785,94.904 C67.0690785,94.893 66.8900785,94.468 66.2970785,94.559 C66.2350785,93.983 65.7750785,93.805 65.4260785,93.517" id="Fill-85" fill="#000000"></path>
        <path d="M26.4600785,83.466 C25.8430785,83.535 25.5960785,84.148 25.2440785,84.512 C24.8860785,84.88 24.3230785,85.143 24.2020785,85.73 C25.8960785,85.219 26.7150785,83.836 27.5020785,82.422 C27.5990785,82.422 27.7000785,82.28 27.5020785,82.248 C27.1000785,82.598 26.6290785,82.881 26.4600785,83.466 Z M84.7090785,70.368 C84.6710785,70.534 84.5610785,70.531 84.3600785,70.542 C84.1650785,70.552 84.2780785,70.665 84.1880785,70.716 C83.9280785,70.86 82.9810785,71.206 82.9700785,71.413 C82.9600785,71.615 82.5810785,71.669 82.4490785,71.761 C81.9560785,72.104 81.4800785,72.502 81.2320785,72.806 L80.8850785,72.806 C80.7210785,72.91 80.5770785,73.399 80.1890785,73.154 C80.2030785,73.677 79.3800785,74.187 79.1470785,74.198 C78.9490785,74.209 79.0630785,74.27 78.9730785,74.373 C78.7570785,74.624 78.5680785,74.88 78.2780785,74.897 C77.8970785,74.916 77.6550785,75.578 77.4090785,75.591 C77.1610785,75.605 77.3490785,75.801 77.2360785,75.94 L76.8880785,75.94 C76.7250785,76.071 76.5350785,76.32 76.3660785,76.463 C76.1910785,76.61 75.8710785,76.713 75.8460785,76.985 C75.5360785,77.081 75.1230785,77.075 74.9760785,77.333 C75.4590785,77.704 74.8230785,78.473 74.8030785,78.55 C74.6880785,79.014 74.6890785,79.186 74.6300785,79.42 C74.4970785,79.945 74.3320785,80.619 74.2840785,80.813 C74.2230785,81.056 74.1790785,81.161 74.1100785,81.333 L74.1110785,81.508 C74.1010785,81.682 73.9580785,81.62 73.9370785,81.683 C73.7780785,82.152 73.8540785,82.191 73.7630785,82.552 C73.6860785,82.865 73.5160785,83.022 73.4160785,83.248 C73.3830785,83.323 73.2900785,83.264 73.2430785,83.422 C73.1960785,83.575 73.3050785,83.797 73.2430785,83.943 C73.2080785,84.027 72.9400785,84.188 72.8950785,84.291 C72.8540785,84.389 72.9220785,84.537 72.8960785,84.64 C72.8590785,84.787 72.7500785,84.752 72.7220785,84.813 C72.5560785,85.198 72.3660785,85.576 72.3760785,86.03 C72.1100785,86.346 71.7490785,86.566 71.8550785,87.249 C72.4360785,87.485 72.8880785,87.711 73.4210785,87.596 C73.7500785,87.524 74.3710785,86.697 74.4630785,86.551 C74.6870785,86.2 74.8240785,85.972 74.8100785,85.507 C75.0280785,85.488 75.0510785,85.289 75.1570785,85.159 C75.2510785,85.044 75.4110785,84.932 75.5050785,84.811 C75.7280785,84.522 75.7450785,84.352 75.8520785,84.114 L76.2000785,83.942 L76.1990785,83.592 L76.5470785,83.592 C76.6870785,83.441 76.7610785,83.222 76.8940785,83.07 C77.1710785,82.759 77.5050785,82.213 77.7630785,82.2 C77.9370785,82.191 78.1580785,81.949 78.2840785,81.853 L78.6320785,81.504 C78.8250785,81.493 78.7190785,81.373 78.8060785,81.33 C79.3420785,81.066 80.0270785,80.964 80.7180785,80.98 C80.8090785,81.236 80.9760785,81.418 81.0670785,81.675 C81.0010785,82.536 80.4060785,82.869 80.3740785,83.763 C79.9580785,83.958 79.5770785,84.541 79.3310785,84.982 C79.1930785,85.23 78.8740785,85.41 78.8100785,85.678 C78.7260785,86.031 78.7590785,86.291 78.9840785,86.721 C80.1710785,86.64 81.0780785,85.948 81.9400785,85.501 C82.8770785,85.014 83.7300785,84.566 84.7220785,84.107 C84.6100785,83.522 84.2210785,83.215 84.3720785,82.367 C84.5890785,82.164 84.8820785,81.878 84.8930785,81.672 C84.9030785,81.475 85.0160785,81.589 85.0670785,81.497 C85.1680785,81.317 85.1380785,81.186 85.2410785,80.976 C85.3030785,80.846 85.5760785,80.852 85.5870785,80.627 C85.5960785,80.471 85.7510785,80.494 85.7610785,80.453 C85.8780785,79.992 85.6600785,79.948 85.5860785,79.409 C84.0210785,78.806 83.1690785,80.334 81.2390785,79.937 C81.0840785,79.536 80.6420785,79.323 80.5430785,79.241 C80.5160785,79.218 80.3660785,78.221 80.3690785,78.371 L80.7160785,78.198 C80.7780785,77.998 80.4380785,77.941 80.5410785,77.676 C81.1380785,77.232 81.3400785,76.522 81.7570785,75.936 C81.9320785,75.691 82.2720785,75.474 82.4520785,75.239 C82.5680785,75.088 82.5090785,74.885 82.6260785,74.718 C82.7270785,74.573 83.0390785,74.516 83.1470785,74.369 C83.3250785,74.13 83.4790785,73.774 83.6670785,73.499 C83.8550785,73.23 84.1790785,73.011 84.1890785,72.803 C84.2000785,72.602 84.2990785,72.727 84.3630785,72.629 C84.7890785,71.973 85.3280785,71.282 85.2300785,70.367 C85.0560785,70.367 84.8820785,70.367 84.7090785,70.368 Z M61.8760785,16.998 C64.6790785,17.018 65.0630785,14.322 65.8730785,12.82 C66.2880785,12.047 66.9590785,11.217 67.6090785,10.385 C67.7050785,10.26 67.9470785,10.034 67.9560785,9.862 L68.3040785,9.514 C68.4870785,9.301 68.7100785,9.026 68.9990785,8.644 C69.1170785,8.486 69.2050785,8.258 69.3450785,8.121 L69.6930785,8.12 C69.8070785,7.984 69.6190785,7.786 69.8670785,7.773 C70.2510785,7.752 70.7040785,7.026 71.0840785,6.73 L71.4320785,6.729 C71.6930785,6.408 71.9470785,6.316 72.6480785,6.032 C72.8820785,5.939 73.0260785,5.764 73.3430785,5.684 C73.7380785,5.584 73.6800785,5.605 74.2130785,5.508 C74.2510785,5.503 74.2140785,5.301 74.3870785,5.334 C74.4280785,5.343 74.3850785,5.545 74.5610785,5.508 C74.9050785,5.435 75.2640785,5.193 75.6040785,5.159 C76.6320785,5.062 77.8320785,5.118 78.7340785,5.331 C78.8800785,5.365 78.9070785,5.48 79.0830785,5.504 C79.0230785,5.494 79.1750785,5.23 79.2560785,5.33 C79.4580785,5.583 80.5180785,5.518 81.1690785,5.675 C81.2090785,5.685 81.1890785,5.842 81.3440785,5.85 L81.5180785,5.85 C81.7260785,5.933 81.9380785,6.052 82.3880785,6.197 C82.8610785,6.35 83.3190785,6.41 83.7790785,6.543 C84.6340785,6.791 85.5060785,7.123 86.3890785,7.41 C88.0520785,7.951 89.8670785,8.453 91.6070785,8.97 C92.0570785,9.104 92.5580785,9.184 92.9990785,9.318 C93.2550785,9.395 93.6990785,9.526 94.0420785,9.664 C94.1610785,9.711 94.6010785,9.946 94.9130785,10.011 C95.0420785,10.038 95.5210785,9.923 95.6080785,10.01 C95.8900785,10.291 96.4920785,10.219 97.1730785,10.357 C97.2010785,10.36 97.2030785,10.524 97.3480785,10.53 C98.9590785,10.613 100.979079,11.495 102.740079,11.568 C103.312079,11.592 103.886079,11.43 104.479079,11.394 C105.812079,11.311 107.001079,11.513 108.131079,11.217 C108.464079,11.128 108.644079,10.935 109.000079,10.867 C110.338079,10.612 111.701079,10.636 113.000079,10.341 C113.034079,10.334 113.022079,10.176 113.174079,10.167 C113.396079,10.155 113.649079,10.206 113.869079,10.166 C113.890079,10.164 113.901079,10.002 114.042079,9.992 C114.521079,9.967 114.810079,9.776 115.260079,9.645 C115.590079,9.548 115.846079,9.559 116.128079,9.47 C116.997079,9.193 117.807079,8.948 118.563079,8.424 L118.736079,8.076 L119.084079,8.075 C119.292079,7.922 119.377079,7.726 119.605079,7.553 C120.030079,7.231 120.676079,6.822 121.170079,6.333 C121.453079,6.053 121.613079,5.369 122.212079,5.463 C122.035079,6.075 122.032079,6.566 121.692079,7.029 C121.432079,7.384 120.824079,7.626 120.475079,7.901 C120.302079,8.036 120.152079,8.281 119.954079,8.422 C119.728079,8.584 119.506079,8.596 119.259079,8.771 C119.162079,8.839 119.288079,8.934 119.085079,8.944 L118.563079,9.119 L118.564079,9.467 L118.390079,9.467 C118.182079,9.633 117.584079,9.729 117.172079,9.99 C116.901079,10.164 116.186079,10.33 115.608079,10.515 C115.552079,10.531 115.604079,10.678 115.435079,10.688 C114.843079,10.719 114.259079,10.855 113.522079,11.036 C113.548079,11.03 113.444079,11.331 113.348079,11.21 C113.174079,10.992 113.298079,11.182 113.174079,11.21 C112.228079,11.436 111.248079,11.583 110.218079,11.736 C109.597079,11.828 109.085079,11.815 108.306079,12.086 C107.914079,12.222 107.620079,12.174 106.914079,12.261 C106.610079,12.298 106.542079,12.429 106.219079,12.436 C105.874079,12.441 105.521079,12.251 105.175079,12.263 C105.208079,12.262 105.102079,12.431 105.002079,12.437 C104.626079,12.456 104.549079,12.263 104.306079,12.263 C104.150079,12.263 104.152079,12.437 104.132079,12.437 C102.847079,12.479 101.981079,12.311 100.827079,12.092 L100.480079,12.092 C100.333079,11.914 100.216079,12.091 99.7830785,11.919 L99.4370785,11.919 C99.2970785,11.75 99.1990785,11.78 98.9140785,11.746 L98.5660785,11.746 C98.4280785,11.576 98.3300785,11.608 98.0440785,11.574 L97.6970785,11.574 C97.4870785,11.318 96.8560785,11.345 96.3050785,11.227 C95.2190785,10.992 94.0630785,10.682 93.0000785,10.36 C92.9460785,10.344 92.9930785,10.195 92.8260785,10.187 L92.3040785,10.188 C92.0610785,9.891 91.2490785,9.843 90.5640785,9.667 C90.5210785,9.656 90.5480785,9.502 90.3900785,9.493 C89.9120785,9.469 89.6230785,9.276 89.1720785,9.147 C88.9060785,9.068 88.5770785,9.053 88.3020785,8.975 C87.7860785,8.823 87.2630785,8.616 86.7370785,8.453 C86.4740785,8.372 86.1350785,8.381 85.8680785,8.281 C85.7970785,8.254 85.8730785,8.116 85.6930785,8.107 C85.3120785,8.086 84.8870785,7.932 84.3020785,7.76 C84.2500785,7.744 84.2920785,7.595 84.1280785,7.587 C83.6520785,7.562 83.3560785,7.382 82.9100785,7.24 C82.5330785,7.118 82.0890785,7.052 81.6920785,6.893 L81.3450785,6.893 L81.3450785,6.72 C81.0450785,6.601 80.8000785,6.626 80.4750785,6.545 C80.4360785,6.536 80.4560785,6.381 80.3010785,6.373 L79.9530785,6.546 C79.7790785,6.33 79.2730785,6.606 79.0830785,6.374 L79.0830785,6.199 C78.5290785,6.116 77.8640785,6.063 77.3430785,6.027 C76.7590785,5.989 76.0420785,5.969 75.4310785,6.029 C75.0310785,6.068 74.9160785,6.226 74.3870785,6.378 L74.2130785,6.204 L74.0390785,6.378 C73.8230785,6.483 73.6650785,6.472 73.3440785,6.554 L72.8220785,6.727 C72.7220785,6.851 72.3250785,7.036 71.9540785,7.25 C71.6890785,7.402 71.4650785,7.61 71.2580785,7.772 L70.9110785,7.772 L70.9110785,8.12 C70.8230785,8.221 70.6670785,8.208 70.5630785,8.295 C70.1540785,8.635 69.7430785,9.188 69.1720785,9.339 C69.3200785,9.753 68.8190785,9.815 68.6520785,10.036 C68.5330785,10.193 68.6060785,10.421 68.4790785,10.558 L68.1310785,10.732 C68.0300785,10.865 68.0700785,11.104 67.9580785,11.253 L67.6090785,11.428 C67.4920785,11.594 67.5660785,11.81 67.4360785,11.95 L67.0890785,12.124 C66.9780785,12.293 67.0040785,12.485 66.9160785,12.646 C66.8640785,12.738 66.7510785,12.623 66.7410785,12.819 L66.7420785,12.995 C66.6780785,13.107 66.4490785,13.242 66.3940785,13.342 L66.3940785,13.689 C66.2520785,13.808 66.2740785,13.822 66.2210785,14.038 L66.0470785,14.56 L65.8740785,14.56 C65.7880785,14.777 65.8020785,15.25 65.7000785,15.43 L65.3530785,15.604 C65.2260785,15.885 65.2520785,15.995 65.0060785,16.301 C64.8910785,16.443 64.5850785,16.503 64.4840785,16.648 C64.3720785,16.81 64.4520785,17.049 64.3110785,17.17 C63.7410785,17.66 62.8600785,18.057 62.2250785,18.041 C62.2590785,18.042 62.1490785,17.873 62.0500785,17.868 C61.3610785,17.832 61.0690785,17.724 60.6590785,16.999 C60.3020785,16.372 60.2550785,15.604 60.1350785,14.566 C60.0840785,14.132 59.9680785,13.688 59.9590785,13.348 C59.9590785,13.32 60.1960785,13.165 60.1330785,12.999 C60.1050785,12.928 59.9440785,13.019 59.9590785,12.826 C59.9710785,12.674 60.1220785,12.549 60.1320785,12.305 C60.1510785,11.874 60.1060785,11.343 60.1310785,10.912 C60.1490785,10.603 60.2960785,10.545 60.3040785,10.217 C60.3030785,10.259 60.1300785,10.144 60.1300785,10.043 C60.1300785,9.88 60.3020785,9.9 60.3040785,9.869 C60.3360785,9.373 60.4380785,8.671 60.3020785,8.131 C60.2660785,7.986 60.0680785,7.85 60.1280785,7.609 C60.2010785,7.318 60.3310785,7.426 60.1270785,6.914 C60.1070785,6.862 59.9890785,6.879 59.9530785,6.739 C59.9270785,6.637 59.9930785,6.49 59.9530785,6.392 C59.8190785,6.066 59.7280785,6.186 59.6040785,5.695 C59.5620785,5.525 59.3860785,5.305 59.2560785,5.002 C59.1000785,4.638 58.7150785,4.325 58.5600785,3.784 C58.4110785,3.672 57.9760785,3.749 57.8630785,3.61 L57.8630785,3.437 L57.5160785,3.438 L57.3410785,3.09 C57.1460785,3.012 56.6240785,2.99 56.2980785,2.916 C55.7120785,2.784 55.3930785,2.598 54.7320785,2.57 C54.2710785,2.551 54.1720785,2.559 53.6880785,2.398 C53.6270785,2.378 53.6860785,2.233 53.5140785,2.225 C53.3740785,2.217 52.7020785,2.234 52.2970785,2.226 C52.3410785,2.227 52.2110785,1.941 52.1230785,2.052 C52.0350785,2.162 51.9770785,2.23 51.7750785,2.226 C51.6310785,2.223 51.6050785,2.041 51.4270785,2.053 C51.4500785,2.051 51.3610785,2.22 51.2530785,2.227 C51.0030785,2.239 50.9090785,2.006 50.7310785,2.054 C50.6800785,2.067 50.7300785,2.232 50.5570785,2.227 C49.5660785,2.198 48.5940785,1.928 47.6010785,1.881 C47.4470785,1.875 45.5200785,1.663 45.3400785,1.884 C45.1610785,2.103 45.2930785,1.909 45.1660785,1.884 C45.0140785,1.854 44.9860785,2.056 44.9920785,2.057 C44.7700785,2.018 44.2520785,1.864 43.6010785,1.885 C43.1000785,1.902 42.5670785,2.001 42.0360785,2.061 C40.9240785,2.186 39.6820785,2.287 38.3840785,2.412 C35.7710785,2.663 31.1510785,2.915 28.2970785,2.422 C28.1350785,2.393 27.9320785,2.47 27.7760785,2.422 C27.4680785,2.33 26.4650785,2.337 25.6880785,2.25 C24.9170785,2.164 24.4620785,1.989 23.4270785,1.904 C23.3180785,1.895 23.1860785,1.932 23.0800785,1.904 C22.9750785,1.879 22.9040785,1.731 22.9050785,1.731 C21.6640785,1.551 20.4610785,1.389 19.2520785,1.213 C19.0910785,1.189 18.8860785,1.26 18.7310785,1.213 C18.5620785,1.162 17.6980785,0.921 17.1660785,0.866 C17.2210785,0.873 17.0750785,1.145 16.9920785,1.041 C16.7830785,0.781 16.3920785,0.926 15.7740785,0.868 C15.6490785,0.858 15.5820785,0.653 15.4260785,0.695 C15.3730785,0.709 15.4340785,0.893 15.2520785,0.868 C15.1030785,0.849 14.9770785,0.633 14.7310785,0.695 C14.3820785,0.985 14.9220785,1.346 15.0790785,1.738 L15.0800785,2.086 C15.3970785,2.346 15.2950785,3.037 15.4290785,3.651 C15.4600785,3.797 15.5800785,3.824 15.6030785,3.998 C15.7400785,5.04 15.6600785,6.247 15.7810785,7.303 C15.8370785,7.801 15.8870785,8.384 15.9560785,8.867 C15.9510785,8.834 16.2470785,8.948 16.1300785,9.041 C15.9040785,9.223 16.1170785,9.093 16.1300785,9.215 C16.1780785,9.677 16.2250785,10.067 16.3050785,10.432 C16.3390785,10.588 16.2490785,10.806 16.3060785,10.954 L16.6530785,11.127 C16.7300785,11.289 16.5260785,11.893 16.6540785,11.996 C16.8200785,12.133 16.9070785,12.126 17.0020785,12.345 C17.1110785,12.596 17.0570785,12.786 17.1770785,13.04 C17.2440785,13.184 17.4260785,13.25 17.5250785,13.389 C17.6360785,13.542 17.5890785,13.719 17.6990785,13.909 C17.8710785,14.206 18.0620785,14.518 18.2220785,14.779 C18.2920785,14.894 18.5050785,15.022 18.5700785,15.126 C18.6600785,15.271 18.6390785,15.475 18.7450785,15.648 C18.8150785,15.765 19.0270785,15.892 19.0930785,15.996 C19.1610785,16.104 19.1710785,16.401 19.2670785,16.517 C19.6650785,16.997 20.4480785,17.434 21.0080785,17.906 C21.1130785,17.995 21.1710785,17.884 21.1810785,18.08 C21.1920785,18.285 21.6580785,18.392 21.8770785,18.603 C22.1330785,18.845 22.3450785,19.159 22.5750785,19.47 C22.7230785,19.582 23.1570785,19.506 23.2700785,19.644 C23.4100785,19.814 23.4230785,19.867 23.6190785,19.99 L24.1400785,20.164 L24.1410785,20.338 L24.4880785,20.338 C24.5810785,20.452 25.3420785,21.014 25.7060785,21.033 C25.9190785,21.043 26.1370785,21.274 26.4020785,21.379 C26.6930785,21.496 27.2910785,21.596 27.6200785,21.727 L27.7940785,21.9 C28.0550785,21.95 28.0500785,21.731 28.1420785,21.727 C28.2710785,21.718 28.3270785,21.892 28.4890785,21.899 C30.3710785,21.989 32.5480785,22.275 34.5770785,22.415 C35.5540785,22.483 36.5110785,22.487 37.5340785,22.586 C38.5090785,22.682 39.5710785,22.937 40.4900785,22.932 C41.1040785,22.928 41.7220785,22.808 42.4030785,22.756 C42.5680785,22.744 42.7640785,22.79 42.9250785,22.755 C43.0660785,22.725 43.0980785,22.578 43.2730785,22.582 C43.4460785,22.583 43.6430785,22.785 43.9680785,22.755 C44.5490785,22.701 45.1350785,22.448 45.7070785,22.405 C46.7730785,22.324 47.7870785,22.361 48.8380785,22.402 C50.2870785,22.459 51.6110785,22.542 53.0120785,22.745 C52.9780785,22.741 53.0930785,23.036 53.1860785,22.92 C53.3660785,22.694 53.2360785,22.906 53.3600785,22.92 C53.5800785,22.945 53.8410785,22.865 54.0550785,22.919 C54.0970785,22.93 54.0720785,23.085 54.2300785,23.093 C54.3970785,23.102 54.7920785,23.343 55.1000785,23.44 C55.4810785,23.559 55.9000785,23.436 56.1440785,23.787 C56.9920785,23.757 56.3580785,24.399 56.6660785,24.655 C57.7920785,25.1 58.2220785,25.476 58.7540785,26.393 C58.9250785,26.687 58.9840785,26.613 59.1030785,27.088 C59.1460785,27.264 59.3300785,27.472 59.4510785,27.783 L59.4520785,28.132 C59.6710785,28.312 59.5560785,28.465 59.6260785,29.174 C59.6700785,29.619 59.9280785,29.805 59.8010785,30.391 C59.7710785,30.532 59.6240785,30.565 59.6280785,30.739 C59.6270785,30.705 59.7970785,30.816 59.8020785,30.913 C59.8150785,31.165 59.8630785,31.54 59.8020785,31.783 C59.7770785,31.884 59.6280785,31.963 59.6290785,31.956 C59.6020785,32.164 59.7880785,32.057 59.8030785,32.131 C59.7680785,31.954 59.7070785,33.042 59.6300785,33.349 C59.5800785,33.551 59.4950785,33.677 59.4580785,34.218 C59.4490785,34.326 59.4840785,34.46 59.4580785,34.566 C59.4150785,34.735 59.2120785,35.273 59.1110785,35.783 C58.9970785,36.356 58.9670785,36.985 58.7640785,37.524 L58.7650785,37.871 C58.3840785,38.183 58.4450785,39.457 58.2450785,40.133 C58.2300785,40.185 58.0800785,40.142 58.0720785,40.306 C58.0510785,40.71 57.8800785,40.785 57.7250785,41.177 L57.7250785,41.525 L57.5520785,41.525 C57.4500785,41.793 57.4700785,42.12 57.3780785,42.394 C57.3080785,42.604 57.1050785,42.866 57.0300785,43.09 C56.9440785,43.351 56.9480785,43.715 56.8580785,43.959 C56.7750785,44.184 56.5960785,44.387 56.5100785,44.656 C56.3600785,45.128 56.3390785,45.719 56.1650785,46.221 C56.1420785,46.285 56.0000785,46.221 55.9900785,46.395 C55.9870785,46.461 55.9320785,47.171 55.8170785,47.265 L55.6440785,47.265 L55.6440785,47.612 C55.4050785,47.808 55.1720785,48.531 54.9500785,49.004 C54.7850785,49.354 54.5920785,49.64 54.4290785,50.048 L54.4300785,50.397 L54.2550785,50.397 C54.0350785,50.791 53.7920785,51.239 53.5610785,51.614 C53.4670785,51.767 53.2240785,51.943 53.2130785,52.137 C53.2020785,52.36 52.9600785,52.358 52.8660785,52.485 L52.8660785,52.833 C52.7030785,52.968 52.6070785,52.96 52.5190785,53.181 L52.5190785,53.528 L52.3450785,53.528 L52.3450785,53.878 L52.1720785,53.878 L52.1720785,54.225 L51.9990785,54.225 L51.9990785,54.572 C51.8290785,54.712 51.7630785,54.713 51.6500785,54.921 L51.6510785,55.27 C51.2520785,55.596 51.1520785,56.081 50.7830785,56.66 L50.6090785,57.184 C50.4420785,57.32 50.3940785,57.351 50.2620785,57.53 C50.1140785,57.734 49.8940785,57.831 49.7410785,58.054 L49.7410785,58.401 C49.4730785,58.62 49.3310785,58.871 49.0460785,59.271 C48.9760785,59.368 48.8840785,59.242 48.8730785,59.445 C48.8560785,59.759 48.4210785,60.166 48.1780785,60.488 C48.0250785,60.692 47.7840785,60.822 47.6570785,61.012 C47.5440785,61.178 47.5260785,61.469 47.3100785,61.533 C46.8630785,62.016 46.5410785,62.5 46.0940785,63.101 C46.0200785,63.197 45.9300785,63.07 45.9190785,63.275 C45.9090785,63.476 45.4380785,63.875 45.2250785,64.145 C45.0910785,64.313 45.0150785,64.497 44.8770785,64.666 C44.6070785,64.998 44.2800785,65.227 44.0090785,65.536 C43.8550785,65.713 43.6180785,65.892 43.4880785,66.059 L43.4880785,66.405 C43.2100785,66.635 42.6290785,67.056 42.2710785,67.451 C42.1210785,67.618 41.8770785,67.812 41.7500785,67.974 L41.7510785,68.322 C41.3910785,68.615 40.7180785,69.16 40.3610785,69.713 C40.2980785,69.811 40.1970785,69.687 40.1870785,69.888 L39.8380785,70.235 C39.6220785,70.443 39.1480785,70.94 38.7960785,71.281 C38.0150785,72.04 37.2760785,72.854 36.3640785,73.543 C35.7070785,74.041 34.8160785,74.912 34.1050785,75.633 C33.9470785,75.792 33.9360785,76.007 33.7580785,76.155 C33.6020785,76.284 33.2930785,76.274 33.2360785,76.504 C32.6240785,77.108 31.9370785,77.637 31.3250785,78.243 C30.7140785,78.851 30.1430785,79.497 29.5880785,80.159 C30.4220785,80.135 31.0450785,80.322 31.5010785,80.679 C31.2050785,81.07 31.8050785,81.211 31.8500785,81.373 C32.0710785,82.183 31.6500785,83.49 32.0260785,84.33 C32.1450785,84.593 32.4100785,84.793 32.7230785,85.026 C32.9690785,85.208 33.3480785,85.499 33.5930785,85.546 C34.8310785,85.786 35.9300785,85.205 36.8960785,84.5 C38.0390785,83.665 39.0430785,82.238 40.1970785,80.843 C40.4470785,80.542 40.8310785,80.28 41.0660785,79.974 C41.1510785,79.861 41.1590785,79.753 41.2390785,79.625 C41.5310785,79.168 41.9800785,78.407 42.4560785,77.885 C42.5920785,77.735 42.8330785,77.681 42.9770785,77.537 C43.1050785,77.408 43.1820785,77.118 43.3240785,77.016 C43.5240785,76.869 43.7870785,76.954 44.0190785,76.841 C44.1050785,76.799 44.0010785,76.677 44.1930785,76.667 C44.4240785,76.654 44.4650785,76.332 44.7140785,76.318 C44.8670785,76.311 45.3620785,75.991 45.9320785,76.144 C46.8770785,76.883 47.1530785,78.464 46.6300785,79.274 C46.5680785,79.369 46.4670785,79.245 46.4570785,79.447 C46.4460785,79.644 46.2280785,79.901 46.1090785,80.143 C45.5780785,81.229 45.0210785,82.797 44.7220785,84.145 C44.6260785,84.575 44.5570785,84.927 44.5490785,85.362 L44.5490785,85.709 C44.2510785,85.955 44.7160785,85.978 44.7240785,86.579 C45.3720785,86.739 45.6240785,86.694 46.2900785,86.404 C46.3690785,86.368 46.2760785,86.24 46.4630785,86.231 C46.6110785,86.222 46.8480785,85.966 46.9840785,85.881 C47.2580785,85.712 47.5230785,85.292 47.8530785,85.012 C47.9940785,84.892 48.2480785,84.964 48.3750785,84.836 C48.4850785,84.727 48.4360785,84.421 48.5480785,84.315 C48.6700785,84.198 48.9470785,84.255 49.0700785,84.141 C49.4670785,83.769 49.7850785,82.943 51.1560785,83.269 C51.6630785,83.389 51.5280785,83.57 51.8520785,83.964 C52.0590785,84.215 52.2020785,84.147 52.3750785,84.658 C52.5860785,85.29 52.5510785,86.175 52.5500785,87.093 C53.1270785,87.377 53.5490785,87.162 54.1160785,86.918 C54.5460785,86.733 54.7990785,86.485 55.3330785,86.047 C55.8250785,85.644 56.2620785,85.357 56.7230785,84.828 L56.7220785,84.482 L57.0700785,84.481 L57.0690785,84.133 L57.2430785,84.133 C57.4640785,83.891 57.7130785,83.696 57.9380785,83.437 C58.1090785,83.238 58.2410785,82.929 58.4590785,82.74 C58.6510785,82.574 58.9020785,82.562 59.1550785,82.391 C59.3490785,82.262 59.4880785,81.999 59.6760785,81.869 C60.0290785,81.625 60.5190785,81.388 60.8930785,81.173 C60.9850785,81.118 60.8690785,81.009 61.0660785,80.998 C61.3930785,80.982 61.7410785,80.624 62.1090785,80.476 C62.6290785,80.269 63.0920785,80.056 63.6740785,80.125 C63.7650785,79.703 64.0990785,79.296 64.1950785,78.908 C64.2210785,78.806 64.1540785,78.656 64.1950785,78.561 C64.2350785,78.466 64.5150785,78.287 64.5420785,78.214 C64.5790785,78.11 64.5150785,77.971 64.5420785,77.864 C64.5800785,77.712 64.6600785,77.568 64.7150785,77.344 C64.7510785,77.2 64.8760785,77.216 64.8890785,77.169 C65.0420785,76.644 64.9910785,76.146 65.2350785,75.777 C65.3470785,75.609 65.3470785,75.503 65.4090785,75.256 C65.4470785,75.102 65.5270785,74.958 65.5820785,74.734 C65.6210785,74.581 65.7000785,74.436 65.7550785,74.212 C65.7980785,74.044 65.9670785,73.354 66.1030785,72.821 C66.2000785,72.438 66.3770785,72.099 66.4490785,71.776 C66.6210785,71.009 66.6170785,70.13 66.7940785,69.341 C66.9010785,68.871 66.9880785,68.565 67.1410785,67.949 C67.1850785,67.776 67.4240785,67.575 67.4890785,67.253 C67.4630785,67.382 67.3170785,67.091 67.3140785,67.08 C67.2540785,66.842 67.4430785,66.736 67.4880785,66.558 C67.6670785,65.842 67.7220785,64.635 67.8330785,63.776 C67.9640785,62.762 67.8330785,61.35 68.0030785,59.948 C68.0410785,59.644 68.1700785,59.577 68.1760785,59.253 L68.0020785,59.079 C67.9910785,58.865 67.8930785,58.396 68.0010785,58.036 L68.1750785,57.861 C68.1840785,57.723 67.9790785,57.689 68.0010785,57.514 C68.0240785,57.323 68.3580785,56.335 68.1730785,55.601 L67.9990785,55.427 C67.9790785,55.144 68.1870785,55.126 68.1720785,54.904 C68.1630785,54.76 67.9970785,54.735 67.9990785,54.558 C68.0020785,54.194 68.1480785,53.856 68.1710785,53.514 C68.2300785,52.632 68.0930785,51.802 67.9950785,50.905 C67.9630785,50.62 68.0360785,50.319 67.9940785,50.036 C67.9550785,49.773 67.8410785,49.728 67.8190785,49.514 C67.8060785,49.381 68.0370785,49.334 67.9930785,49.166 C67.9820785,49.125 67.8310785,49.146 67.8190785,48.992 C67.7740785,48.428 67.7420785,47.685 67.6440785,47.08 C67.6120785,46.889 67.4920785,46.705 67.4680785,46.385 C67.4120785,45.611 67.1340785,44.819 66.9450785,43.95 C66.9210785,43.84 66.9720785,43.711 66.9440785,43.602 C66.9110785,43.472 66.7790785,43.461 66.7710785,43.428 C66.6010785,42.739 66.6590785,42.289 66.4210785,41.689 C66.4000785,41.639 66.2820785,41.654 66.2470785,41.516 C66.2200785,41.412 66.2870785,41.267 66.2460785,41.167 C66.2030785,41.064 65.9350785,40.906 65.8980785,40.82 C65.8570785,40.724 65.9230785,40.575 65.8980785,40.472 C65.8580785,40.316 65.7480785,40.363 65.7240785,40.298 C65.5090785,39.7 65.2000785,39.057 65.3740785,38.387 C65.8760785,38.523 65.8090785,39.227 66.0710785,39.603 C66.2230785,39.918 66.2970785,39.815 66.4200785,40.297 C66.4830785,40.553 66.6390785,40.53 66.7680785,40.993 C66.7830785,41.048 66.9780785,40.984 66.9420785,41.167 C66.9360785,41.2 66.7030785,41.174 66.7680785,41.341 C66.8100785,41.448 67.0800785,41.604 67.1160785,41.689 C67.1580785,41.785 67.0910785,41.935 67.1170785,42.036 C67.1560785,42.19 67.2350785,42.334 67.2920785,42.559 C67.3300785,42.711 67.4100785,42.857 67.4650785,43.08 C67.5190785,43.29 67.6980785,44.014 67.8150785,44.645 C67.9380785,45.309 68.0380785,45.808 68.1640785,46.557 C68.1830785,46.668 68.1380785,46.797 68.1650785,46.905 C68.2130785,47.098 68.2710785,47.253 68.3390785,47.774 C68.3940785,48.182 68.4910785,48.868 68.5160785,49.688 C68.5180785,49.772 68.3880785,50.627 68.5160785,50.731 C68.7450785,50.917 68.6350785,51.473 68.6910785,52.122 C68.6910785,52.12 68.8660785,52.167 68.8660785,52.295 C68.8660785,52.427 68.6920785,52.483 68.6910785,52.471 C68.7030785,52.615 68.8670785,52.639 68.8660785,52.818 C68.8640785,53.155 68.7510785,53.347 68.6930785,53.688 C68.6650785,53.85 68.7410785,54.053 68.6930785,54.209 C68.5750785,54.602 68.6540785,54.498 68.6950785,55.252 C68.7560785,56.4 68.6170785,58.11 68.5250785,59.253 C68.4350785,60.364 68.5810785,61.484 68.5270785,62.558 C68.4740785,63.65 68.3250785,64.813 68.1820785,65.861 C68.1170785,66.346 67.9180785,66.766 67.8360785,67.253 C67.8470785,67.192 68.1090785,67.348 68.0100785,67.427 C67.8730785,67.536 67.8770785,67.562 67.8360785,67.775 C67.7420785,68.273 67.5930785,68.743 67.4900785,69.34 C67.4680785,69.467 67.5740785,69.953 67.4910785,70.036 L67.3170785,70.036 C67.2220785,70.524 67.2600785,71.125 67.1450785,71.603 C67.1350785,71.641 66.9790785,71.62 66.9710785,71.776 L66.9710785,71.949 C66.8910785,72.151 66.8870785,72.351 66.7980785,72.646 C66.7640785,72.757 66.6280785,72.801 66.6250785,72.82 C66.5020785,73.324 66.5860785,73.931 66.4520785,74.386 C66.4360785,74.438 66.2870785,74.395 66.2780785,74.559 C66.2540785,75.01 65.9270785,75.283 65.7570785,75.777 C65.7120785,75.907 65.7280785,76.877 65.5850785,76.995 L65.4110785,76.995 L65.4110785,77.343 C65.1960785,77.519 65.1700785,78.127 64.8910785,78.561 C64.8290785,78.656 64.7270785,78.533 64.7160785,78.735 C64.7090785,78.878 64.6470785,79.432 64.5430785,79.777 C64.5270785,79.831 64.3780785,79.785 64.3700785,79.952 L64.3700785,80.474 C64.0970785,80.697 64.2150785,82.179 64.1990785,82.735 C63.8270785,82.841 64.0150785,83.192 63.8520785,83.43 C63.7380785,83.596 63.4740785,83.768 63.3300785,83.953 C63.0400785,84.325 62.7380785,84.612 62.4610785,84.998 L62.1140785,85.171 L62.1140785,85.519 L61.9400785,85.52 L61.9400785,85.867 L61.7670785,85.867 L61.7670785,86.215 C61.5760785,86.372 61.3000785,87.193 61.4210785,87.954 C64.6870785,88.888 64.0910785,84.488 67.3310785,84.819 C67.7890785,85.582 67.3260785,86.097 67.1590785,86.733 C67.1280785,86.847 66.8580785,86.881 66.8120785,87.08 C66.7730785,87.245 66.8360785,87.437 66.8120785,87.602 C66.7900785,87.756 66.6460785,87.735 66.6380785,87.776 C66.6140785,87.899 66.9460785,88.193 66.8130785,88.472 C68.1200785,88.56 68.4640785,87.688 69.0720785,87.078 C69.0190785,86.677 69.5750785,86.884 69.5940785,86.557 C70.2270785,86.502 70.7260785,86.582 71.1590785,86.728 C71.2590785,86.477 71.2090785,86.281 71.3320785,86.032 C71.4040785,85.888 71.6360785,85.779 71.6800785,85.684 C71.8610785,85.28 71.8460785,84.871 72.0260785,84.467 C72.0620785,84.386 72.1900785,84.481 72.2000785,84.292 C72.2230785,83.848 72.8480785,82.928 73.0680785,82.379 C73.6370785,80.947 74.0140785,79.33 74.2800785,77.508 C73.7940785,77.285 74.8280785,77.149 74.6280785,76.638 C74.7020785,75.317 75.1200785,74.334 75.3200785,73.159 C75.3580785,72.934 75.2920785,72.691 75.3190785,72.464 C75.3150785,72.499 75.6090785,72.382 75.4930785,72.29 C75.3390785,72.167 75.4490785,72.098 75.4930785,71.769 C75.5560785,71.284 75.4590785,70.554 75.4910785,69.855 C75.5220785,69.181 75.6670785,68.491 75.6630785,67.768 C75.6560785,66.863 75.4680785,66.004 75.4860785,64.811 C75.4880785,64.623 75.6460785,64.701 75.6600785,64.638 C75.6710785,64.579 75.5010785,64.16 75.4850785,63.942 C75.4340785,63.254 75.2670785,62.565 75.1360785,61.857 C74.9860785,61.045 74.8960785,60.172 74.6110785,59.42 L74.6110785,59.073 L74.4380785,59.073 C74.2210785,58.504 74.1400785,57.982 73.9140785,57.334 L73.9130785,56.987 L73.7400785,56.987 L73.7390785,56.64 C73.5620785,56.493 73.1700785,55.146 73.0420785,54.727 C72.9410785,54.4 72.9570785,54.009 72.8670785,53.684 C72.8540785,53.636 72.7020785,53.671 72.6930785,53.51 C72.6640785,52.971 72.3480785,51.886 72.1680785,51.076 C72.0800785,50.674 72.0510785,50.356 71.9940785,50.032 C71.9900785,50.014 71.8270785,49.997 71.8200785,49.859 C71.7830785,49.169 71.5560785,48.459 71.2960785,47.772 L71.2950785,47.425 C71.1610785,47.315 71.0730785,46.806 70.9470785,46.381 L70.9470785,46.033 L70.7730785,46.033 L70.7720785,45.686 C70.5410785,45.496 70.4450785,44.707 70.2500785,44.295 C70.2090785,44.211 70.0850785,44.312 70.0760785,44.121 C70.0590785,43.818 69.5210785,42.712 69.3780785,42.382 L69.0290785,42.035 C68.9050785,41.62 69.0210785,41.488 68.8550785,40.992 C68.8340785,40.931 68.6900785,40.989 68.6810785,40.818 L68.5070785,40.471 L68.3320785,39.949 C68.2520785,39.884 67.8860785,39.211 67.8100785,38.906 C67.7010785,38.473 67.5200785,37.988 67.2870785,37.515 C67.2290785,37.399 66.9940785,37.267 66.9380785,37.168 L66.9380785,36.819 L66.7640785,36.819 L66.7640785,36.473 L66.5900785,36.473 L66.5890785,36.125 C66.3100785,35.896 66.1060785,34.652 65.8920785,34.039 C65.7860785,33.735 65.6320785,33.243 65.5430785,32.821 C65.5150785,32.692 65.6290785,32.213 65.5420785,32.126 L65.3680785,32.126 C65.2710785,31.661 65.2150785,31.076 65.1930785,30.735 C65.1550785,30.142 65.2100785,29.309 65.3650785,28.3 C65.3940785,28.111 65.5150785,27.923 65.5390785,27.604 C65.5740785,27.091 65.5540785,26.954 65.7110785,26.387 C65.8770785,25.78 66.2050785,25.543 67.1010785,25.167 C67.1770785,25.135 67.0900785,25.003 67.2750785,24.994 C67.6330785,24.975 67.8420785,25.011 68.1440785,24.818 C68.3880785,24.664 68.8250785,24.711 69.5350785,24.644 C69.8740785,24.61 70.1540785,24.465 70.4040785,24.469 C70.7880785,24.475 70.8380785,24.588 71.1000785,24.643 C71.2630785,24.676 71.4630785,24.593 71.6220785,24.642 L71.7960785,24.815 C72.3120785,24.883 72.9190785,24.712 73.3610785,24.814 C73.3960785,24.821 73.3840785,24.98 73.5360785,24.986 C73.9080785,25.008 74.2490785,25.158 74.7530785,25.333 C74.8170785,25.357 74.7520785,25.498 74.9270785,25.509 C75.6290785,25.544 76.7920785,26.053 77.5370785,26.376 L77.8850785,26.375 C78.0230785,26.545 78.0260785,26.609 78.2320785,26.722 C78.4590785,26.847 78.7380785,26.752 78.7540785,27.069 C79.5500785,26.943 80.1860785,27.381 80.8420785,27.589 C80.9480785,27.622 81.0830785,27.563 81.1900785,27.589 C81.3960785,27.64 82.0010785,27.957 82.4080785,28.11 L82.7560785,28.11 C82.8720785,28.251 82.8890785,28.229 83.1040785,28.282 C83.2570785,28.321 83.4020785,28.401 83.6260785,28.457 C83.7720785,28.492 83.7480785,28.613 83.7990785,28.629 C84.0760785,28.715 84.5440785,28.709 84.8430785,28.802 C84.9350785,28.831 85.1260785,29.13 85.1920785,29.151 C85.5980785,29.273 86.1950785,29.193 86.7560785,29.323 C86.7550785,29.322 86.8340785,29.472 86.9310785,29.496 C87.7160785,29.692 89.0000785,29.73 90.0620785,30.016 C90.6240785,30.167 91.2620785,30.412 92.1490785,30.535 C92.3720785,30.566 92.6260785,30.484 92.8450785,30.534 C93.5080785,30.69 94.9180785,31.147 96.1490785,31.053 L96.4980785,31.052 C96.6840785,30.823 96.5470785,31.051 96.6710785,31.052 C98.2150785,31.063 99.8530785,30.794 101.367079,30.699 C103.937079,30.541 106.730079,29.486 108.495079,28.434 C109.211079,28.004 109.864079,27.446 110.580079,26.866 C110.758079,26.722 110.899079,26.506 111.102079,26.344 C111.251079,26.225 111.489079,26.295 111.623079,26.169 L111.796079,25.82 L112.145079,25.82 C112.259079,25.682 112.070079,25.486 112.318079,25.473 C112.545079,25.46 112.379079,25.237 112.492079,25.125 L112.839079,25.124 L112.839079,24.776 C113.003079,24.642 113.663079,24.22 113.882079,23.906 L113.881079,23.558 C114.214079,23.286 114.705079,22.637 115.098079,22.165 C115.252079,21.98 115.485079,21.816 115.620079,21.644 C115.723079,21.509 115.678079,21.274 115.792079,21.121 L116.140079,20.947 C116.274079,20.755 116.366079,20.437 116.487079,20.251 C116.556079,20.146 116.781079,20 116.834079,19.903 L116.834079,19.556 L117.009079,19.556 C117.124079,19.364 117.228079,19.058 117.355079,18.86 C117.438079,18.73 117.603079,18.675 117.703079,18.511 C117.774079,18.396 117.799079,18.287 117.876079,18.163 C117.975079,18.007 118.137079,17.939 118.224079,17.817 L118.224079,17.468 C118.446079,17.285 118.593079,16.957 118.745079,16.598 L118.745079,16.249 L118.918079,16.249 L118.917079,15.901 C119.306079,15.583 119.725079,14.033 119.959079,13.293 C120.212079,12.488 120.482079,11.533 120.826079,10.682 C121.226079,9.688 121.689079,8.659 122.214079,7.551 C122.341079,7.283 122.366079,7.011 122.561079,6.681 C122.655079,6.521 122.667079,6.063 123.082079,6.158 C123.660079,6.038 123.363079,6.518 123.257079,6.68 C122.965079,7.469 122.782079,8.201 122.389079,8.942 C122.341079,9.031 122.226079,8.92 122.215079,9.115 L122.216079,9.289 C122.152079,9.449 122.149079,9.76 122.043079,9.985 L121.695079,10.159 C121.511079,10.566 121.552079,11.138 121.349079,11.725 C121.327079,11.789 121.184079,11.724 121.175079,11.899 L121.175079,12.073 C121.114079,12.226 120.991079,12.675 120.828079,13.116 C120.739079,13.358 120.564079,13.57 120.481079,13.813 C120.339079,14.227 120.360079,14.676 120.134079,15.03 C120.035079,15.188 119.942079,15.674 119.788079,16.074 C119.759079,16.147 119.623079,16.068 119.614079,16.248 L119.614079,16.422 L119.441079,16.945 L119.267079,16.945 L119.267079,17.292 L119.093079,17.292 C118.982079,17.534 119.048079,17.748 118.919079,17.989 C118.872079,18.078 118.756079,17.967 118.746079,18.162 C118.734079,18.389 118.478079,18.379 118.398079,18.511 L118.398079,18.859 L118.225079,18.86 L118.226079,19.207 L118.051079,19.207 C117.820079,19.573 117.597079,20.065 117.356079,20.425 C117.225079,20.621 116.969079,20.756 116.836079,20.946 L116.836079,21.294 L116.488079,21.469 L116.488079,21.816 C116.285079,21.984 115.868079,22.204 115.620079,22.514 C115.452079,22.723 115.413079,23.012 115.273079,23.209 C115.136079,23.399 114.896079,23.545 114.752079,23.732 C114.654079,23.857 114.414079,24.08 114.404079,24.253 L114.056079,24.602 C113.829079,24.889 113.384079,25.414 113.014079,25.82 C112.874079,25.974 112.635079,26.171 112.493079,26.343 C112.411079,26.441 112.330079,26.313 112.319079,26.516 C112.305079,26.792 111.921079,26.919 111.797079,27.038 C111.707079,27.125 111.351079,27.227 111.103079,27.387 C110.866079,27.54 110.744079,27.864 110.233079,27.909 C110.038079,28.176 109.940079,28.416 109.713079,28.606 L109.365079,28.954 C109.232079,29.006 108.962079,28.876 108.843079,28.954 C108.712079,29.04 108.660079,29.201 108.496079,29.303 C108.376079,29.375 108.281079,29.401 108.148079,29.477 L107.800079,29.825 C107.653079,29.869 107.417079,29.758 107.279079,29.825 C107.162079,29.882 107.030079,30.117 106.931079,30.173 L106.583079,30.174 C106.454079,30.331 106.270079,30.443 106.063079,30.522 L105.714079,30.522 C105.585079,30.681 105.401079,30.792 105.193079,30.87 L104.845079,30.87 C104.667079,31.09 104.798079,30.897 104.671079,30.871 L104.150079,31.046 L104.150079,31.22 C103.875079,31.297 103.424079,31.325 103.106079,31.394 C102.723079,31.478 102.444079,31.509 102.063079,31.57 C102.029079,31.574 102.059079,31.777 101.889079,31.742 C101.848079,31.735 101.888079,31.546 101.715079,31.57 C101.569079,31.59 101.544079,31.732 101.368079,31.743 C100.964079,31.774 100.555079,31.716 100.150079,31.745 C98.1930785,31.888 96.2150785,32.007 94.4120785,31.75 C94.1880785,31.718 93.9340785,31.802 93.7160785,31.75 C93.5690785,31.716 93.5430785,31.601 93.3680785,31.577 C92.6340785,31.482 91.7750785,31.547 91.1070785,31.405 C91.0780785,31.401 91.0810785,31.238 90.9330785,31.232 C90.3660785,31.202 89.6640785,30.83 88.8450785,30.712 C88.7220785,30.694 88.2300785,30.793 88.1490785,30.712 L88.1490785,30.539 C87.5540785,30.424 86.9150785,30.469 86.4100785,30.365 C86.1670785,30.318 86.0370785,30.101 85.7140785,30.02 C85.7840785,30.037 85.6150785,30.286 85.5400785,30.193 C85.3250785,29.925 84.3170785,29.675 83.8010785,29.499 C83.5520785,29.414 83.2030785,29.409 82.9310785,29.327 C82.8760785,29.311 82.9230785,29.161 82.7570785,29.151 L82.5830785,29.151 C82.4010785,29.08 81.5520785,28.862 81.1910785,28.633 C80.9990785,28.51 80.3640785,28.361 79.9730785,28.111 L79.7990785,27.938 C79.2830785,27.789 78.7290785,27.941 78.2330785,27.766 C78.1680785,27.742 78.2360785,27.601 78.0590785,27.593 C77.9790785,27.587 77.8070785,27.462 77.7110785,27.418 C77.5630785,27.35 77.3820785,27.336 77.1890785,27.244 C77.0870785,27.196 76.9260785,26.933 76.8420785,26.898 C76.7450785,26.858 76.5970785,26.923 76.4940785,26.898 C76.3410785,26.86 76.1950785,26.78 75.9720785,26.725 C75.8190785,26.687 75.6730785,26.607 75.4500785,26.551 C75.3040785,26.514 75.3280785,26.393 75.2760785,26.377 C75.0640785,26.311 74.7920785,26.442 74.5810785,26.378 C74.4900785,26.35 74.2960785,26.049 74.2320785,26.029 C73.6650785,25.864 73.1800785,25.797 72.3190785,25.685 C72.0470785,25.649 72.0190785,25.547 71.7960785,25.51 C71.0150785,25.387 70.2610785,25.266 69.5360785,25.339 C69.2580785,25.367 69.2380785,25.474 69.0150785,25.513 C68.7970785,25.551 68.5280785,25.45 68.3190785,25.514 C67.7420785,25.689 67.3500785,26.225 66.7540785,26.386 C66.8630785,26.621 66.6160785,26.652 66.5810785,26.734 C66.3400785,27.296 66.3330785,28.008 66.2350785,28.82 C66.1450785,29.57 65.7950785,30.545 66.0630785,31.429 C66.1120785,31.592 66.1790785,31.718 66.2380785,31.951 C66.2880785,32.153 66.3740785,32.279 66.4120785,32.82 C66.4200785,32.93 66.3860785,33.063 66.4130785,33.169 C66.4450785,33.296 66.5800785,33.313 66.5870785,33.342 C66.6970785,33.805 66.7090785,34.568 66.9360785,34.906 C67.0840785,35.128 66.9350785,35.287 67.1110785,35.776 C67.1730785,35.947 67.4170785,36.019 67.4590785,36.124 C67.5160785,36.267 67.3870785,36.51 67.4590785,36.645 C67.5290785,36.773 67.7280785,36.883 67.8080785,36.993 C67.9610785,37.201 67.9010785,37.363 67.9820785,37.689 L68.1570785,38.21 L68.3310785,38.21 C68.5580785,38.689 68.7030785,39.373 69.0280785,39.948 C69.1250785,40.12 69.2840785,40.162 69.3760785,40.296 L69.3760785,40.644 C69.5190785,40.759 69.4970785,40.776 69.5500785,40.991 L69.7260785,41.513 C69.8090785,41.58 70.1610785,42.21 70.2480785,42.556 C70.3340785,42.899 70.3220785,43 70.4220785,43.251 C70.4430785,43.304 70.5620785,43.285 70.5970785,43.426 C70.6830785,43.769 70.8560785,43.942 70.9450785,44.294 C71.0580785,44.744 71.2890785,45.173 71.4680785,45.685 C71.8760785,46.846 72.2100785,48.075 72.5150785,49.336 C72.6350785,49.833 72.6850785,50.428 72.8640785,50.901 L72.8640785,51.249 C73.0850785,51.429 72.9590785,51.602 73.0390785,51.943 C73.0950785,52.181 73.1500785,52.282 73.2140785,52.814 L73.2140785,53.162 C73.5440785,53.432 73.6910785,54.367 73.9120785,55.074 C74.0070785,55.379 74.1640785,55.64 74.2600785,55.943 C74.4340785,56.491 74.6120785,57.07 74.7840785,57.683 C74.8650785,57.971 74.8580785,58.407 74.9590785,58.726 C74.9870785,58.817 75.2870785,59.008 75.3070785,59.072 C75.3540785,59.23 75.2510785,59.441 75.3070785,59.594 C75.3950785,59.832 75.5910785,60.044 75.6560785,60.289 C75.7980785,60.834 75.8810785,61.693 76.0050785,62.376 C76.1270785,63.045 76.3220785,63.682 76.3550785,64.289 C76.3710785,64.577 76.2030785,64.913 76.1820785,65.158 C76.1710785,65.288 76.3560785,65.34 76.3560785,65.507 C76.3560785,65.647 76.1840785,65.68 76.1830785,65.855 C76.1790785,66.363 76.3610785,66.91 76.3580785,67.42 C76.3570785,67.566 76.4010785,67.801 76.3590785,67.942 L76.1850785,68.115 C76.1750785,68.393 76.3760785,68.422 76.3590785,68.637 C76.3580785,68.653 76.1530785,68.653 76.1860785,68.811 C76.1930785,68.853 76.3820785,68.813 76.3590785,68.985 L76.1860785,69.159 C76.0500785,69.703 76.3950785,70.647 76.3610785,71.245 C76.3630785,71.222 76.1930785,71.312 76.1880785,71.419 C76.1790785,71.591 76.2090785,71.771 76.1880785,71.941 C76.1730785,72.063 75.9740785,72.137 76.0150785,72.289 C76.0290785,72.342 76.2160785,72.281 76.1880785,72.463 C76.1870785,72.473 76.0220785,72.505 76.0150785,72.637 C75.9760785,73.403 75.8830785,73.864 75.6690785,74.724 C75.6200785,74.92 75.2600785,75.56 75.4970785,76.115 C75.7080785,76.352 76.0250785,76.055 76.1920785,75.941 C76.3550785,75.831 76.6080785,75.496 76.7130785,75.419 C77.1200785,75.119 77.5500785,74.847 77.9300785,74.549 C78.0980785,74.416 78.6430785,73.694 78.9720785,73.678 C79.1080785,73.67 79.4090785,73.372 79.6680785,73.155 C79.8310785,73.018 80.0310785,72.754 80.1890785,72.633 C80.3230785,72.529 80.5600785,72.572 80.7100785,72.459 L80.8840785,72.11 C81.0750785,71.977 81.4030785,71.893 81.5800785,71.762 C81.8200785,71.583 81.8980785,71.39 82.1010785,71.239 C82.2320785,71.144 82.4440785,70.901 82.6230785,70.891 C83.0510785,70.869 82.9680785,70.608 83.3160785,70.368 L83.6650785,70.368 L83.6650785,70.195 L84.0130785,70.194 C84.2390785,69.917 85.0640785,69.739 85.7510785,69.672 C85.8250785,69.969 85.9120785,70.279 85.9260785,70.541 C85.9330785,70.674 85.7090785,70.723 85.7520785,70.889 C85.7660785,70.939 85.9700785,70.88 85.9270785,71.063 C85.9160785,71.103 85.7600785,71.081 85.7530785,71.236 C85.7460785,71.391 85.5550785,71.698 85.4060785,71.932 C85.2780785,72.134 85.3600785,72.359 85.2320785,72.628 C85.2070785,72.681 84.6890785,73.097 84.5370785,73.324 C84.4600785,73.439 84.4430785,73.548 84.3640785,73.672 C84.2430785,73.863 84.1410785,73.999 84.0170785,74.194 C83.8990785,74.378 83.5100785,74.61 83.4950785,74.891 L83.1470785,75.238 C83.0100785,75.412 82.9230785,75.568 82.8010785,75.761 C82.6790785,75.951 82.5780785,76.088 82.4530785,76.283 C82.1140785,76.817 81.1050785,77.807 81.2380785,78.893 C82.5500785,79.949 83.9360785,78.205 85.5850785,78.366 C86.4540785,79.214 86.5490785,80.36 85.9360785,81.322 C85.8150785,81.514 85.7130785,81.65 85.5880785,81.845 C85.4380785,82.081 85.0910785,82.772 85.2430785,83.41 C85.7400785,83.769 86.3390785,83.36 86.8070785,83.061 C86.9780785,82.952 87.0800785,82.949 87.3290785,82.887 C87.5080785,82.843 87.4110785,82.757 87.5020785,82.713 C87.9130785,82.518 88.2810785,82.375 88.7200785,82.191 C88.8260785,82.144 88.9580785,82.085 89.0670785,82.016 C89.2370785,81.906 89.3410785,81.903 89.5890785,81.842 C89.8910785,81.765 90.5560785,81.449 91.1540785,81.318 C91.8350785,81.168 92.4770785,81.235 93.4150785,81.142 C93.5820785,81.126 93.5360785,80.979 93.5880785,80.968 C93.7290785,80.94 94.6590785,81.405 94.8070785,81.662 C94.8530785,81.745 94.7830785,81.917 94.8070785,82.01 C94.8320785,82.113 94.9810785,82.188 94.9800785,82.184 C95.0590785,82.739 94.9480785,83.084 94.6340785,83.575 C94.5720785,83.672 94.4700785,83.549 94.4600785,83.75 C94.4480785,83.983 94.2180785,83.803 94.1120785,83.924 C94.0220785,84.026 94.0390785,84.352 93.9390785,84.445 C93.8000785,84.575 93.5800785,84.498 93.4180785,84.62 L93.2440785,84.968 C93.0710785,85.078 92.8850785,85.052 92.7220785,85.144 C92.6300785,85.193 92.7460785,85.307 92.5480785,85.317 C92.2420785,85.333 92.0040785,85.676 91.6790785,85.84 C91.4750785,85.943 91.3390785,85.922 91.1580785,86.015 C90.9410785,86.125 90.3700785,86.395 89.9410785,86.537 C89.1180785,86.813 88.0390785,86.852 87.1590785,87.235 C86.4710785,87.533 85.9500785,88.009 85.4210785,88.453 C85.1040785,88.722 84.8130785,88.84 84.5520785,89.151 C84.3110785,89.439 84.1900785,89.675 84.0320785,90.02 C83.9800785,90.369 84.2200785,90.403 84.3790785,90.541 C84.5330785,90.673 84.7040785,90.812 84.9010785,90.89 C85.8940785,91.278 87.3210785,91.095 88.7290785,91.233 C88.8960785,91.251 88.8500785,91.397 88.9020785,91.406 C89.0700785,91.441 89.0600785,91.232 89.0760785,91.233 C89.2430785,91.249 89.4710785,91.379 89.7720785,91.406 C90.7570785,91.492 91.7340785,91.586 92.7280785,91.752 C92.8400785,91.77 92.9670785,91.723 93.0770785,91.751 C93.1740785,91.776 93.2600785,91.926 93.2510785,91.925 C94.1500785,92.033 94.9910785,91.872 95.8590785,92.096 C95.9020785,92.108 95.8760785,92.262 96.0330785,92.27 L96.5560785,92.269 C96.6930785,92.439 96.7920785,92.408 97.0780785,92.443 L97.4250785,92.443 C97.5640785,92.611 97.6620785,92.583 97.9470785,92.615 L98.2950785,92.614 L98.2950785,92.789 C98.9220785,92.897 99.7180785,92.859 100.382079,92.962 C100.587079,92.993 101.638079,93.276 102.121079,93.308 C102.520079,93.334 102.952079,93.318 103.338079,93.307 C103.672079,93.298 104.123079,93.462 104.381079,93.132 C104.957079,93.671 103.899079,93.41 103.687079,93.48 C103.354079,93.59 103.260079,93.769 102.644079,93.829 C102.160079,93.877 101.474079,93.953 100.904079,93.83 C100.758079,93.8 100.731079,93.681 100.557079,93.656 C100.168079,93.607 99.7560785,93.761 99.3390785,93.657 C99.2990785,93.648 99.3210785,93.493 99.1650785,93.484 C99.0380785,93.478 98.8580785,93.342 98.6430785,93.311 C98.2920785,93.261 98.3020785,93.318 98.1210785,93.138 C98.1550785,93.17 97.7030785,93.307 97.6000785,93.313 C97.1540785,93.339 96.4570785,93.115 95.8600785,92.965 C95.1490785,92.787 94.5460785,92.698 93.4250785,92.621 C92.6900785,92.569 91.9780785,92.489 90.9900785,92.276 C90.7390785,92.221 90.1520785,92.111 89.4240785,92.102 C89.4250785,92.102 89.3960785,91.899 89.2500785,91.928 C89.2390785,91.931 89.2010785,92.086 89.0770785,92.102 C88.6170785,92.164 88.0370785,91.995 87.5120785,91.93 C87.3770785,91.913 86.7170785,92.023 86.6420785,91.931 C86.4080785,91.646 85.6490785,92.068 85.0770785,91.933 C85.0770785,91.933 85.0010785,91.783 84.9020785,91.758 C84.3770785,91.628 84.0780785,91.434 83.6840785,91.064 C83.5720785,90.958 83.2340785,90.842 83.1630785,90.717 C83.0600785,90.537 83.2810785,90.173 82.9890785,90.195 C83.2070785,89.261 83.9400785,88.434 84.7250785,87.933 C85.0580785,87.721 85.7580785,86.971 86.2890785,86.713 C86.9700785,86.385 87.9390785,86.235 88.7240785,86.016 C89.5690785,85.779 90.4260785,85.668 91.1580785,85.318 C91.2420785,85.278 91.1400785,85.153 91.3310785,85.146 L91.6780785,84.97 C91.8200785,84.878 91.9150785,84.693 92.0260785,84.621 L92.3750785,84.621 L92.5470785,84.274 C92.7320785,84.16 92.9160785,84.228 93.0690785,84.099 C93.2220785,83.971 93.2730785,83.715 93.4170785,83.577 L93.7640785,83.576 L93.7640785,83.229 C93.9830785,82.959 94.5030785,82.847 94.2850785,82.359 C94.0440785,82.122 93.9800785,81.931 93.4150785,81.837 C93.2160785,81.805 92.9180785,81.813 92.7200785,81.838 C92.1460785,81.914 90.7800785,82.099 89.9380785,82.363 C89.8420785,82.392 89.6860785,82.476 89.5890785,82.536 C89.3990785,82.658 89.1100785,82.693 88.7210785,82.887 C88.5150785,82.987 88.4070785,83.12 88.1990785,83.235 C87.9330785,83.377 87.6990785,83.435 87.3300785,83.582 C87.1890785,83.64 87.2290785,83.719 87.1560785,83.756 C86.9890785,83.842 86.7230785,84.092 86.4610785,84.106 C86.2610785,84.116 85.9420785,84.38 85.9390785,84.801 C85.0830785,84.55 84.3520785,85.195 83.6790785,85.499 C83.4640785,85.597 83.3460785,85.587 83.1580785,85.674 C83.0890785,85.705 83.1370785,85.81 82.9840785,85.848 C82.6460785,85.933 82.6480785,86.016 82.2880785,86.195 C82.0820785,86.3 81.9480785,86.274 81.7670785,86.37 C81.6860785,86.413 81.7580785,86.503 81.5930785,86.544 C81.2600785,86.628 81.2500785,86.697 80.8980785,86.894 C80.5990785,87.06 80.6800785,87.121 80.2030785,87.241 C79.6770785,87.374 78.7860785,87.635 77.9410785,86.721 C77.9970785,86.364 77.8630785,85.915 77.9400785,85.679 L78.2880785,85.504 C78.4340785,85.18 78.4090785,84.927 78.6350785,84.634 C78.7110785,84.536 78.7990785,84.663 78.8090785,84.461 C78.8210785,84.218 79.0700785,84.418 79.1570785,84.286 L79.1560785,83.94 L79.5030785,83.764 C79.6190785,83.569 79.5510785,83.326 79.6770785,83.068 C79.8490785,82.716 80.3100785,82.379 80.1980785,81.851 C80.1220785,81.618 80.0430785,81.842 79.8490785,81.851 C79.9000785,81.848 79.7610785,81.57 79.6760785,81.677 L79.6760785,81.852 C78.8490785,82.2 77.7910785,82.938 77.0690785,83.767 C76.9710785,83.879 77.0040785,84.177 76.8960785,84.287 L76.5480785,84.288 L76.5480785,84.462 C76.2020785,84.888 75.7960785,85.403 75.5060785,85.855 C75.3500785,86.098 75.3090785,86.478 75.1590785,86.724 C75.0830785,86.848 74.9080785,86.915 74.8110785,87.071 C74.5220785,87.545 73.9190785,88.368 73.2470785,88.465 C72.0160785,88.645 71.3670785,87.652 70.1160785,87.25 C69.3790785,87.384 69.1880785,88.062 68.7260785,88.47 C68.5550785,88.779 68.1990785,88.819 67.8570785,88.993 L67.5090785,89.34 C67.2300785,89.425 66.9540785,89.26 66.8130785,89.167 C66.7130785,89.101 66.3910785,89.085 66.2920785,88.994 C65.9220785,88.653 65.7440785,87.734 65.9410785,87.255 C66.0970785,86.658 66.6930785,86.498 66.6360785,85.69 C65.9210785,85.575 65.6160785,86.178 65.2460785,86.559 C64.2420785,87.595 63.5890785,89.577 61.0740785,88.824 C60.4220785,87.952 60.5440785,87.284 60.7240785,86.565 C60.7500785,86.462 60.6830785,86.314 60.7240785,86.217 C60.7730785,86.101 61.0220785,85.963 61.0710785,85.868 C61.2190785,85.581 61.3130785,85.16 61.4180785,84.999 C61.4810785,84.902 61.5820785,85.026 61.5920785,84.824 C61.6080785,84.498 62.3290785,84.1 62.6350785,83.779 L62.6340785,83.432 L62.9820785,83.431 L62.9820785,83.083 C63.3890785,82.75 63.7660785,82.041 63.3270785,80.996 C62.8970785,81.032 62.4340785,81.128 62.1100785,81.345 L61.5880785,81.52 C61.5030785,81.624 61.1090785,82.031 60.8940785,82.042 L60.7200785,82.042 C60.5230785,82.165 60.3850785,82.438 60.1990785,82.565 C60.0280785,82.682 59.8180785,82.607 59.6770785,82.738 L59.5030785,83.087 C59.3470785,83.206 59.1180785,83.133 58.9820785,83.262 C58.4590785,83.75 57.6800785,84.635 57.0700785,85.351 C56.9500785,85.492 56.8470785,85.57 56.7230785,85.698 C56.6300785,85.794 56.5600785,85.671 56.5500785,85.873 C56.5390785,86.069 56.1970785,86.291 55.8540785,86.569 L55.5060785,86.569 C55.3920785,86.709 55.4750785,86.985 55.3330785,87.091 C55.2000785,87.191 54.9600785,87.152 54.8120785,87.265 L54.6380785,87.613 C54.4570785,87.722 54.2850785,87.7 54.1170785,87.787 C53.9310785,87.884 53.2300785,88.233 52.7260785,88.138 C52.7030785,88.133 52.6930785,87.971 52.5520785,87.963 C52.4070785,87.955 52.2720785,87.717 52.0290785,87.789 C51.4270785,86.818 51.8390785,86.12 51.6790785,85.008 L51.6790785,84.659 C51.4790785,84.496 51.3860785,84.353 50.8090785,84.138 C49.8950785,83.799 49.4930785,84.69 48.7230785,85.359 C48.5610785,85.498 48.3680785,85.568 48.2010785,85.707 L48.0280785,86.054 L47.6800785,86.055 C47.3610785,86.302 47.1920785,86.967 46.6370785,86.752 C46.3250785,87.282 45.7150785,87.509 45.0730785,87.448 C44.3610785,87.381 44.0980785,86.794 43.6810785,86.58 C43.7530785,85.932 43.5810785,85.468 43.6780785,84.84 C43.6810785,84.828 43.8460785,84.801 43.8530785,84.667 C43.8740785,84.265 43.8860785,84.149 44.0250785,83.797 C44.1060785,83.596 44.1110785,83.397 44.1990785,83.102 C44.2800785,82.832 44.5490785,82.087 44.7200785,81.536 C44.7900785,81.306 44.9030785,80.911 45.0660785,80.666 L45.2400785,80.492 C45.4040785,80.228 45.3660785,79.86 45.5870785,79.447 L45.9340785,79.099 C46.1140785,78.396 46.3050785,77.66 45.7590785,77.013 C44.9430785,76.65 44.1170785,77.397 43.4990785,77.885 C43.1710785,78.144 42.8950785,78.45 42.6290785,78.755 L42.2820785,78.93 C42.1740785,79.168 42.1520785,79.331 41.9350785,79.624 C41.8050785,79.802 41.7210785,79.969 41.5870785,80.148 C41.3860785,80.418 41.1720785,80.674 40.8930785,81.019 C40.6980785,81.257 40.4820785,81.546 40.1980785,81.887 L39.8510785,82.062 L39.8510785,82.409 C39.7400785,82.555 39.4310785,82.613 39.3300785,82.759 C39.2120785,82.928 39.2820785,83.134 39.1560785,83.28 C38.9370785,83.533 38.5620785,83.7 38.2870785,83.977 C38.0150785,84.249 37.8340785,84.656 37.5920785,84.847 L37.2440785,84.848 L37.0700785,85.195 C36.9200785,85.299 36.7330785,85.26 36.5490785,85.369 C36.4410785,85.433 36.2980785,85.666 36.2020785,85.718 C36.0200785,85.815 35.8490785,85.831 35.6800785,85.893 C34.8460785,86.195 34.0270785,86.428 33.2460785,86.242 C33.2080785,86.233 33.2260785,86.076 33.0720785,86.068 L32.5500785,85.895 L32.3760785,85.547 L32.0280785,85.547 C31.9320785,85.447 31.9170785,85.141 31.8540785,85.026 C31.8020785,84.934 31.6890785,85.05 31.6790785,84.852 C31.6670785,84.637 31.3850785,84.138 31.3310785,83.809 C31.2300785,83.201 31.4020785,82.415 31.3280785,81.548 C30.9740785,81.322 30.2810785,81.438 30.2840785,80.854 C30.1360785,80.965 29.7020785,80.891 29.5890785,81.028 L29.5890785,81.201 C29.3680785,81.33 29.0520785,81.399 28.8930785,81.551 C28.7500785,81.69 28.6660785,82.068 28.5460785,82.247 C28.4030785,82.46 28.1490785,82.594 28.0250785,82.769 C27.9290785,82.904 27.6870785,83.11 27.6770785,83.291 C27.6650785,83.541 27.3470785,83.667 27.3310785,83.987 C27.3230785,84.117 26.9890785,84.444 26.8100785,84.683 C26.6010785,84.96 26.4280785,85.108 26.1150785,85.379 C26.0110785,85.469 25.9510785,85.356 25.9400785,85.554 L25.5930785,85.901 C25.0030785,86.468 23.6690785,86.848 22.6370785,86.252 C22.3340785,86.077 22.2630785,85.838 21.9410785,85.556 L21.5920785,85.557 L21.5920785,85.209 C20.9030785,84.427 20.7570785,83.219 19.5040785,83.994 C18.6040785,84.552 19.3200785,86.139 18.8120785,87.3 C18.7420785,87.46 18.5850785,87.694 18.4650785,87.821 C18.2770785,88.022 18.1780785,88.068 17.7700785,88.17 C17.6250785,88.206 17.4890785,88.403 17.2480785,88.344 C16.9820785,88.277 16.6670785,88.127 16.0300785,87.823 C15.8060785,87.992 15.5360785,88.096 15.3350785,88.345 C15.1880785,88.529 15.2750785,89.139 14.8140785,89.042 C14.5270785,88.648 14.8360785,87.975 15.1600785,87.652 C15.2750785,87.534 15.4500785,87.477 15.5080785,87.303 C16.5140785,87.164 16.7630785,87.786 17.7690785,87.649 C18.1710785,87.162 18.3720785,86.924 18.4630785,86.256 L18.4630785,85.908 C18.2350785,85.722 18.5000785,85.834 18.4620785,85.561 C18.4610785,85.555 18.2950785,85.515 18.2880785,85.386 C18.2610785,84.864 18.4070785,84.976 18.4610785,84.517 C18.5490785,83.779 18.7160785,83.403 19.5040785,83.125 C19.7350785,83.043 19.9370785,82.93 20.2000785,82.95 C21.1010785,83.017 21.2850785,83.756 21.7660785,84.34 C21.9860785,84.609 22.0590785,84.98 22.2880785,85.208 C22.5280785,85.448 22.7890785,85.541 23.1590785,85.731 C24.0310785,85.86 22.8610785,85.025 23.6790785,85.208 C24.2580785,84.571 24.8040785,83.895 25.4170785,83.293 L25.7650785,83.293 L25.7650785,83.118 C25.9960785,82.827 26.4300785,82.467 26.8070785,82.074 C26.9500785,81.926 27.0100785,81.699 27.1550785,81.553 L27.5020785,81.553 C27.6220785,81.405 27.5500785,81.162 27.6760785,81.031 C27.9440785,80.746 28.2400785,80.568 28.5440785,80.159 C28.6650785,79.997 28.7510785,79.782 28.8920785,79.637 L29.2390785,79.637 L29.2390785,79.463 C29.3400785,79.336 29.3730785,79.126 29.5870785,79.114 C29.6460785,79.111 30.0900785,78.61 30.2820785,78.418 C30.4270785,78.275 30.5590785,78.115 30.6290785,77.897 C31.3070785,77.728 31.5790785,77.092 32.0190785,76.678 C32.4700785,76.255 32.9810785,75.903 33.4090785,75.459 C32.8660785,74.553 33.2800785,72.69 32.3630785,72.156 C31.6410785,72.18 31.7600785,72.957 31.4950785,73.374 L31.3200785,73.549 C31.2450785,73.677 31.2480785,73.923 31.1470785,74.07 L30.8000785,74.244 C30.7080785,74.45 30.7090785,74.711 30.4530785,74.941 C29.5640785,75.737 28.3270785,75.517 27.3220785,74.596 C27.0900785,74.384 26.8280785,74.054 26.6250785,73.728 C26.5300785,73.573 26.5540785,73.397 26.4510785,73.205 L26.1030785,72.858 C25.8980785,72.196 26.1270785,71.171 25.9270785,70.249 C25.8760785,70.022 25.6870785,69.929 25.7510785,69.38 C25.8080785,68.904 25.8680785,68.849 25.7500785,67.988 C25.7300785,67.843 25.5940785,67.816 25.5760785,67.641 C25.5550785,67.432 25.7530785,67.326 25.7490785,67.293 C25.7340785,67.092 25.6090785,66.942 25.5750785,66.423 C25.5260785,65.669 25.5970785,65.125 25.3990785,64.336 C25.3560785,64.168 25.1840785,63.375 25.0500785,62.945 C25.0320785,62.89 24.8850785,62.941 24.8760785,62.772 C24.8580785,62.43 24.8410785,62.286 24.7010785,62.076 C24.5900785,61.909 24.5100785,61.156 24.0040785,61.034 C23.3270785,60.991 23.1960785,61.56 22.9620785,61.904 C22.8960785,62.001 22.7980785,61.876 22.7890785,62.078 C22.7840785,62.165 22.6590785,62.325 22.6140785,62.426 C22.4040785,62.918 22.1930785,63.75 22.0950785,64.514 C22.0780785,64.647 22.3130785,64.693 22.2690785,64.861 C22.2630785,64.886 22.1180785,64.908 22.0960785,65.036 C22.0410785,65.345 21.9330785,65.529 21.9220785,65.731 C21.9060785,66.036 22.0850785,66.106 22.0970785,66.427 C22.1040785,66.624 21.9370785,66.53 21.9230785,66.601 C21.8990785,66.721 22.1560785,66.889 22.0980785,67.122 C21.9970785,67.526 22.0660785,67.206 22.0980785,67.818 C22.1450785,68.707 22.1610785,69.576 22.2740785,70.427 C22.4870785,72.026 23.0330785,73.603 23.1480785,75.295 C23.2030785,76.092 23.2080785,77.117 22.9770785,77.73 L22.9780785,78.079 L22.8030785,78.079 C22.6960785,78.412 22.7480785,78.857 22.6300785,79.122 C22.5940785,79.203 22.4660785,79.109 22.4570785,79.296 L22.2830785,79.645 C22.2090785,79.757 22.0000785,79.888 21.9360785,79.992 C21.8240785,80.173 21.8650785,80.35 21.7620785,80.514 C21.6800785,80.648 21.5170785,80.748 21.4150785,80.862 C21.2920785,80.998 21.2090785,81.274 21.0670785,81.384 C20.9170785,81.502 20.7280785,81.444 20.5460785,81.559 C20.4400785,81.626 20.2940785,81.855 20.1980785,81.906 C19.9000785,82.068 19.4090785,82.183 18.6330785,82.082 C18.6300785,82.081 18.5860785,81.914 18.4590785,81.908 C18.2450785,81.898 17.9700785,81.963 17.7640785,81.909 C17.7200785,81.899 17.7480785,81.743 17.5890785,81.735 C17.3210785,81.722 17.2740785,81.637 17.0670785,81.561 C16.6970785,81.427 16.3900785,81.266 16.0240785,81.041 C15.7760785,80.889 15.5060785,80.611 15.1530785,80.347 C15.0020785,80.234 14.9790785,80.1 14.8050785,79.999 L14.4570785,79.999 C14.3390785,79.856 14.2540785,79.493 13.9350785,79.478 C13.6110785,79.46 13.0870785,78.632 12.7160785,78.262 C11.8350785,77.382 11.5870785,77.385 11.1490785,76.351 C10.8250785,75.583 10.5490785,75 9.93007853,74.265 C9.61907853,73.895 9.21507853,73.579 8.88607853,73.222 C8.79007853,73.118 8.54607853,72.858 8.53807853,72.7 C8.53307853,72.612 7.55607853,71.773 7.31907853,71.657 C6.85107853,71.431 6.03507853,71.398 5.58107853,71.833 C5.43807853,71.971 4.93907853,72.346 4.71107853,72.703 C4.59507853,72.888 4.69307853,73.419 4.53807853,73.573 C4.42807853,73.684 4.31907853,73.898 4.36507853,74.443 C4.37507853,74.553 4.33907853,74.684 4.36607853,74.791 C4.39307853,74.899 4.53907853,74.96 4.54007853,74.965 C4.62207853,75.467 4.59707853,76.017 4.71507853,76.356 C4.77607853,76.531 5.02107853,76.596 5.06307853,76.703 C5.11907853,76.844 4.99007853,77.094 5.06307853,77.225 C5.12907853,77.342 5.32007853,77.424 5.41207853,77.572 C5.48307853,77.69 5.50807853,77.796 5.58607853,77.92 C5.65307853,78.028 5.88007853,78.17 5.93407853,78.269 L5.93507853,78.616 C6.07707853,78.733 6.43907853,78.817 6.45707853,79.136 C6.47507853,79.471 6.96407853,79.572 7.32707853,79.832 C7.46607853,79.932 7.50207853,80.073 7.67507853,80.179 C8.05407853,80.411 8.83007853,81.105 9.24107853,81.569 C9.36307853,81.707 9.29607853,81.935 9.41607853,82.091 L9.76307853,82.09 L9.76407853,82.438 C9.86607853,82.578 10.0040785,82.611 10.1120785,82.784 C10.2510785,83.01 10.4390785,83.144 10.6340785,83.481 C10.7290785,83.644 10.7140785,83.789 10.8090785,84.002 C11.0210785,84.482 11.3010785,85.081 11.1590785,86.088 C11.0890785,86.577 10.7350785,87.199 10.2910785,87.829 C10.0970785,88.104 9.84207853,88.251 9.59607853,88.525 L9.59607853,88.873 L9.24907853,88.873 C9.03307853,89.064 8.73807853,89.615 8.37907853,89.918 C8.24207853,90.035 8.01607853,89.974 7.85807853,90.092 C7.71407853,90.2 7.59107853,90.61 7.33707853,90.789 L6.98907853,90.789 C6.88307853,90.918 6.77407853,91.218 6.64207853,91.311 L6.29407853,91.312 L6.29407853,91.485 C6.06207853,91.612 5.84207853,91.534 5.59907853,91.66 L5.25107853,92.007 C4.89907853,92.129 4.41207853,92.026 4.03407853,92.184 C3.95907853,92.215 4.04407853,92.347 3.86007853,92.357 C3.77907853,92.361 3.60807853,92.487 3.51207853,92.531 C3.37107853,92.597 3.17107853,92.613 2.99107853,92.706 C2.87807853,92.764 2.74207853,93.001 2.64407853,93.054 C2.17007853,93.309 1.07807853,93.387 0.0350785271,93.403 C-0.131921473,92.852 0.330078527,93.155 0.730078527,93.055 C0.873078527,93.02 1.63007853,92.869 2.12207853,92.706 C2.23807853,92.667 2.64307853,92.627 2.81707853,92.531 C2.95607853,92.456 2.97507853,92.273 3.16507853,92.184 C3.40907853,92.069 3.61507853,92.135 3.86007853,92.009 C3.96507853,91.955 4.11807853,91.704 4.20807853,91.661 C4.59807853,91.476 5.06307853,91.487 5.42507853,91.312 C5.53907853,91.256 5.61307853,91.048 5.77207853,90.964 L5.94607853,90.79 C6.04207853,90.77 6.19207853,90.918 6.12007853,90.963 C6.26107853,90.877 6.32907853,90.721 6.46707853,90.615 C6.83607853,90.332 7.50507853,89.827 8.03207853,89.396 C8.25007853,89.218 8.36007853,89.054 8.55307853,88.873 C8.75407853,88.686 9.04207853,88.586 9.24807853,88.352 C9.40807853,88.17 9.43107853,87.872 9.59507853,87.655 L9.94307853,87.481 L9.94207853,87.134 L10.1160785,87.133 L10.1160785,86.786 C10.4930785,86.476 10.3900785,86.395 10.4620785,85.568 C10.4750785,85.429 10.4080785,85.173 10.4620785,85.046 C10.4940785,84.972 10.6580785,85.067 10.6360785,84.871 C10.6090785,84.641 10.3010785,84.602 10.2880785,84.35 C10.2930785,84.443 10.1990785,83.62 10.1130785,83.482 C10.0170785,83.326 9.72107853,83.265 9.59107853,83.134 C9.44107853,82.985 9.37807853,82.778 9.24207853,82.613 C8.75007853,82.012 8.12807853,81.451 7.50107853,80.875 C7.21407853,80.61 6.94907853,80.296 6.63107853,80.006 C6.35107853,79.752 5.97907853,79.576 5.76107853,79.313 C5.64107853,79.166 5.71007853,78.922 5.58707853,78.79 L5.23907853,78.617 C5.09807853,78.401 5.18607853,78.158 5.06407853,77.92 C5.00607853,77.809 4.76807853,77.67 4.71607853,77.573 C4.60907853,77.373 4.64407853,77.228 4.54207853,77.052 C4.47907853,76.943 4.21807853,76.767 4.19307853,76.704 C4.16207853,76.622 4.37607853,76.486 4.36707853,76.357 C4.36907853,76.379 4.19907853,76.291 4.19307853,76.183 C4.18907853,76.116 4.13307853,75.407 4.01907853,75.314 C3.79507853,75.13 3.93507853,74.869 3.84407853,74.27 C3.84207853,74.26 3.67607853,74.23 3.66907853,74.097 C3.64107853,73.574 3.78807853,73.686 3.84307853,73.227 C3.88807853,72.838 3.85607853,72.692 4.01607853,72.358 C4.05507853,72.273 4.17907853,72.373 4.18907853,72.183 C4.19707853,72.038 4.71507853,71.531 5.05807853,71.312 C6.54207853,70.364 7.84807853,70.848 9.23207853,72.352 C9.54707853,72.693 9.78607853,73.182 10.1040785,73.568 C10.2480785,73.743 10.4890785,73.943 10.6260785,74.09 C10.9880785,74.477 11.1060785,74.629 11.3220785,75.133 C11.3820785,75.272 11.4090785,75.475 11.4970785,75.654 C11.5540785,75.769 11.7920785,75.903 11.8450785,76.002 C11.9530785,76.2 11.9040785,76.353 12.0190785,76.524 C12.4840785,77.206 13.8740785,78.537 14.9790785,79.303 C15.1170785,79.399 15.3180785,79.641 15.5010785,79.65 C15.7610785,79.664 15.9670785,80.184 16.1970785,80.346 L16.5440785,80.345 L16.5450785,80.518 L16.8920785,80.518 C17.1540785,80.838 18.7780785,81.316 19.5020785,81.211 C20.1230785,81.123 20.6490785,80.709 21.0660785,80.166 C21.1510785,80.056 21.3400785,79.925 21.4140785,79.818 C21.5560785,79.61 21.4720785,79.36 21.5870785,79.122 C21.6280785,79.038 21.7510785,79.141 21.7600785,78.948 C21.7720785,78.715 22.4000785,77.797 22.4550785,77.558 C22.4880785,77.413 22.3510785,76.772 22.4550785,76.688 C22.6650785,76.514 22.5370785,75.842 22.4530785,75.122 C22.3410785,74.165 22.1860785,73.325 21.9290785,72.34 C21.6830785,71.397 21.5230785,70.365 21.4030785,68.862 C21.3740785,68.499 21.4400785,68.098 21.4020785,67.646 C21.3870785,67.473 21.2390785,67.526 21.2280785,67.472 C21.1970785,67.32 21.4000785,67.289 21.4020785,67.297 C21.3760785,67.152 21.2270785,67.125 21.2280785,66.949 C21.2280785,66.6 21.3770785,66.164 21.4000785,65.732 C21.4210785,65.338 21.3520785,64.741 21.4000785,64.341 C21.4550785,63.863 21.6380785,63.391 21.7460785,62.949 C21.7780785,62.817 21.6550785,62.344 21.7450785,62.254 C21.9000785,62.098 21.9900785,61.947 22.0920785,61.732 C22.1980785,61.507 22.1270785,61.243 22.2650785,61.035 C22.4040785,60.826 23.3010785,60.14 23.8300785,60.164 C24.4800785,60.193 24.9370785,60.669 25.2220785,61.381 L25.2220785,61.729 C25.4230785,61.892 25.2240785,62.25 25.3970785,62.423 C25.7910785,62.817 25.8910785,63.969 26.0950785,64.858 C26.3280785,65.873 26.3350785,67.79 26.4470785,69.205 C26.5410785,70.393 26.5450785,71.565 26.7980785,72.335 C26.9680785,72.856 27.3220785,73.357 27.6690785,73.726 C28.0900785,74.173 28.4280785,74.586 29.0610785,74.594 C29.9000785,74.604 30.1620785,74.151 30.6250785,73.549 C30.7050785,73.445 30.9100785,73.301 30.9730785,73.201 C31.1520785,72.909 31.0840785,72.399 31.3190785,71.984 C31.3720785,71.891 31.4820785,72.007 31.4930785,71.809 C31.5040785,71.577 31.7670785,71.331 32.1880785,71.287 C33.9680785,71.103 33.4270785,73.929 33.9310785,74.763 C34.3140785,74.946 34.3070785,74.366 34.4520785,74.241 L34.8000785,74.241 C34.9740785,74.027 35.1730785,73.652 35.4950785,73.37 C36.1650785,72.78 37.1660785,72.044 37.9280785,71.282 C38.6980785,70.509 39.4390785,69.728 40.1860785,68.844 L40.5330785,68.67 L40.5330785,68.322 C40.9530785,67.84 41.4690785,67.526 41.9230785,66.93 C41.9980785,66.831 42.0860785,66.959 42.0970785,66.757 C42.1220785,66.278 43.4630785,65.49 43.8340785,65.015 L43.8340785,64.668 C43.9430785,64.579 44.6840785,64.168 44.7030785,63.797 L44.8760785,63.448 C45.0220785,63.256 45.2750785,63.101 45.3970785,62.926 L45.3970785,62.578 L45.7440785,62.404 C46.0090785,62.054 46.1760785,61.693 46.4400785,61.36 C46.5890785,61.173 46.7990785,61.052 46.9610785,60.838 C47.0910785,60.665 47.1710785,60.488 47.3080785,60.317 C47.5520785,60.009 47.9550785,59.743 48.1770785,59.445 L48.1760785,59.098 C48.3200785,58.982 48.6810785,58.896 48.6980785,58.575 L48.8710785,58.228 C49.0110785,58.025 49.2690785,57.88 49.3930785,57.705 L49.3930785,57.359 C49.6610785,57.138 49.8520785,56.967 50.0870785,56.487 L50.0860785,56.141 L50.4350785,55.966 L50.4340785,55.618 L50.7820785,55.443 C50.9130785,55.174 50.8440785,54.964 50.9560785,54.748 C51.0010785,54.658 51.1190785,54.768 51.1280785,54.573 C51.1410785,54.322 51.4590785,54.197 51.4760785,53.878 C51.4920785,53.573 51.9070785,52.782 52.1700785,52.312 C52.2210785,52.22 52.3340785,52.336 52.3440785,52.138 C52.3560785,51.911 52.6170785,51.92 52.6910785,51.79 C52.8160785,51.567 52.7280785,51.315 52.8650785,51.094 L53.2120785,50.919 L53.2110785,50.572 L53.5600785,50.397 C53.6710785,50.148 53.6130785,49.955 53.7320785,49.702 C53.7720785,49.617 53.8960785,49.718 53.9070785,49.527 C53.9170785,49.327 54.1390785,49.081 54.2540785,48.831 C54.4660785,48.374 54.5680785,47.948 54.7740785,47.44 C54.8050785,47.365 54.9380785,47.448 54.9480785,47.265 C54.9520785,47.18 55.0720785,46.904 55.1210785,46.744 C55.2050785,46.472 55.1910785,46.323 55.2940785,46.048 C55.3210785,45.978 55.4590785,46.053 55.4690785,45.874 L55.4680785,45.7 C55.5490785,45.495 55.6610785,45.27 55.8150785,44.829 C55.9010785,44.586 55.8760785,44.232 55.9880785,43.96 C56.0780785,43.741 56.2540785,43.672 56.3350785,43.439 C56.4970785,42.973 56.5420785,42.481 56.6820785,42.046 C56.7670785,41.784 56.7770785,41.436 56.8550785,41.177 C56.8720785,41.123 57.0210785,41.169 57.0290785,41.003 L57.0290785,40.828 C57.1100785,40.625 57.3770785,40.043 57.5490785,39.611 L57.7230785,39.438 C57.8940785,38.833 57.8560785,37.766 58.0680785,37.003 C58.0820785,36.952 58.2340785,36.99 58.2420785,36.828 C58.2830785,36.032 58.5740785,35.011 58.7620785,34.044 C58.8760785,33.458 58.9150785,32.943 58.9330785,31.957 C58.9430785,31.427 59.0520785,31.735 58.9330785,31.262 C58.9070785,31.161 58.9330785,31.019 58.9330785,30.914 C58.9320785,30.724 59.0930785,30.807 59.1060785,30.74 C59.1180785,30.682 58.9460785,30.318 58.9320785,29.87 C58.9070785,29.101 58.8700785,28.651 58.7560785,28.133 C58.7210785,27.97 58.8040785,27.769 58.7550785,27.61 C58.6640785,27.308 58.4320785,26.912 58.2320785,26.568 C57.7850785,25.79 57.6850785,25.615 56.8400785,25.352 C56.7830785,25.333 56.8350785,25.186 56.6670785,25.177 C56.4350785,25.164 56.2020785,25.187 55.9710785,25.178 C55.8560785,24.538 55.3280785,24.312 54.9260785,23.962 C54.5110785,24.066 54.3340785,23.877 54.0570785,23.789 L53.7090785,23.789 L53.7080785,23.614 L53.3600785,23.615 C53.1980785,23.417 52.9620785,23.505 52.3170785,23.442 C51.7490785,23.387 50.7780785,23.149 50.0550785,23.097 C48.1320785,22.959 46.0950785,23.131 44.3170785,23.276 C44.2010785,23.285 43.6960785,23.201 43.6210785,23.276 C43.4420785,23.455 43.4750785,23.255 43.1000785,23.277 C42.5760785,23.31 42.0790785,23.401 41.5340785,23.452 C41.2510785,23.48 40.9430785,23.401 40.6650785,23.453 C40.4950785,23.484 40.4060785,23.633 40.1430785,23.626 C39.0900785,23.609 37.9480785,23.193 36.8380785,23.11 C35.6130785,23.017 34.4930785,23.123 33.3590785,22.938 C33.1920785,22.91 33.0040785,22.976 32.8380785,22.939 C32.6920785,22.908 32.6670785,22.785 32.4900785,22.766 C31.9280785,22.705 31.4020785,22.869 30.7510785,22.767 C30.7840785,22.773 30.6700785,22.476 30.5770785,22.593 C30.4490785,22.754 30.3910785,22.628 30.0550785,22.594 C29.6520785,22.552 29.1560785,22.482 28.6640785,22.421 C27.9850785,22.338 27.2840785,22.385 26.7510785,22.249 C26.4070785,22.162 26.3340785,22.055 26.0550785,21.901 L25.7070785,21.902 C25.4880785,21.634 25.3440785,21.598 24.8370785,21.381 C24.7300785,21.335 24.5980785,21.276 24.4890785,21.207 L23.9670785,21.035 C23.7640785,20.786 23.5000785,20.565 23.0970785,20.339 L22.7490785,20.34 L22.5750785,19.992 C22.3620785,19.875 22.0770785,19.962 21.8790785,19.82 C21.6170785,19.63 21.4940785,19.243 21.1820785,18.949 C20.9070785,18.691 20.5690785,18.482 20.3120785,18.256 C20.0240785,18 19.7000785,17.77 19.4420785,17.56 L19.2680785,17.212 C19.0680785,17.123 18.7930785,17.124 18.5720785,16.865 C18.4690785,16.744 18.4700785,16.474 18.3970785,16.343 C18.3460785,16.252 18.2340785,16.367 18.2230785,16.17 C18.2150785,16.022 17.9590785,15.785 17.8750785,15.649 C17.1810785,14.524 16.2450785,13.021 15.7840785,11.477 C15.6610785,11.064 15.5820785,10.604 15.4350785,10.086 L15.4350785,9.737 C15.1930785,9.541 15.3640785,9.148 15.2590785,8.521 C15.2320785,8.36 15.1110785,8.245 15.0850785,7.999 C15.0320785,7.495 14.9980785,7.299 14.9100785,6.608 C14.7580785,5.407 14.8370785,4.096 14.5580785,2.783 C14.4030785,2.049 13.9560785,1.224 13.5130785,0.523 C13.3430785,0.518 13.3770785,0.31 13.3380785,0.173 C13.4800785,0.142 13.5120785,0 13.6870785,0 C14.2180785,0.342 14.9070785,0.099 15.6000785,0.172 C16.2380785,0.241 16.6490785,0.632 17.5130785,0.519 C17.5250785,0.518 17.5470785,0.346 17.6870785,0.346 C17.8340785,0.346 17.8510785,0.388 17.8610785,0.518 C17.8000785,0.633 18.2940785,0.78 18.3830785,0.692 C18.6450785,0.429 18.5950785,0.678 18.9050785,0.692 C18.8880785,0.691 18.9450785,0.491 19.0780785,0.518 C19.0950785,0.521 19.1210785,0.677 19.2520785,0.691 C19.4810785,0.715 19.7190785,0.663 19.9480785,0.69 C20.1800785,0.717 20.2190785,1.024 20.4700785,1.038 C20.3690785,1.031 20.6160785,0.87 20.6440785,0.863 C20.9980785,0.775 21.0810785,0.988 21.5130785,1.037 C21.4780785,1.032 21.5680785,0.839 21.6870785,0.862 C21.6990785,0.864 21.7360785,1.021 21.8610785,1.037 C22.6990785,1.144 23.5360785,1.277 24.4700785,1.381 C25.3300785,1.479 26.3030785,1.453 27.2530785,1.553 C27.8990785,1.62 28.4940785,1.845 29.1660785,1.9 C30.0060785,1.966 30.9800785,1.779 31.9490785,1.896 C32.2530785,1.933 32.3220785,2.068 32.6450785,2.068 C33.5310785,2.07 34.3260785,1.737 35.4270785,1.893 L35.7750785,1.892 C35.9200785,2.07 36.0250785,1.919 36.6450785,1.892 C39.1030785,1.783 41.7340785,1.269 44.6440785,1.188 C44.6330785,1.189 44.6800785,1.39 44.8180785,1.363 C44.8590785,1.354 44.8190785,1.165 44.9920785,1.188 C45.1340785,1.207 45.1640785,1.374 45.3400785,1.362 C45.3210785,1.363 45.4020785,1.193 45.5140785,1.188 C45.7440785,1.175 45.9780785,1.193 46.2090785,1.187 C46.3510785,1.185 46.3810785,1.371 46.5570785,1.361 C46.5350785,1.362 46.6230785,1.193 46.7310785,1.186 C46.8790785,1.179 47.5920785,1.158 47.9480785,1.186 C48.4810785,1.228 49.0720785,1.469 49.6880785,1.532 C50.6790785,1.634 51.8020785,1.461 52.8180785,1.528 C53.0700785,1.545 53.3770785,1.668 53.6880785,1.702 C54.0580785,1.742 54.4120785,1.646 54.7310785,1.701 C54.7490785,1.704 54.7670785,1.867 54.9050785,1.875 C55.1870785,1.891 55.2000785,2.013 55.4270785,2.047 C55.9040785,2.125 56.2520785,2.065 56.6450785,2.221 L56.9920785,2.22 C57.2250785,2.505 58.1300785,2.676 58.5580785,2.915 C58.6500785,2.966 58.5350785,3.078 58.7320785,3.088 C58.8240785,3.094 59.3000785,3.426 59.4290785,3.61 L59.4290785,3.957 L59.6030785,3.957 L59.6030785,4.306 L59.7770785,4.306 L59.7770785,4.653 C59.9350785,4.782 60.0470785,4.966 60.1260785,5.174 L60.1260785,5.522 C60.2900785,5.656 60.3860785,5.649 60.4740785,5.87 L60.4750785,6.218 C60.6660785,6.374 60.5630785,6.455 60.6480785,6.739 C60.6770785,6.831 60.8240785,6.919 60.8230785,6.913 C61.2130785,9.197 60.5840785,12.128 60.8300785,14.565 C60.8450785,14.711 61.0040785,14.734 61.0040785,14.911 C61.0040785,15.052 60.7990785,15.088 60.8310785,15.261 C60.8350785,15.28 60.9980785,15.294 61.0040785,15.434 L61.0050785,15.609 C61.0980785,15.84 61.3430785,16.733 61.8760785,16.998 Z" id="Fill-86" fill="#000000"></path>
    </g>
</svg>