<?xml version="1.0" encoding="UTF-8"?>
<svg width="325px" height="137px" viewBox="0 0 325 137" version="1.1" xmlns="http://www.w3.org/2000/svg" xmlns:xlink="http://www.w3.org/1999/xlink">
    <!-- Generator: Sketch 50.2 (55047) - http://www.bohemiancoding.com/sketch -->
    <title>Artboard</title>
    <desc>Created with Sketch.</desc>
    <defs></defs>
    <g id="Artboard" stroke="none" stroke-width="1" fill="none" fill-rule="evenodd">
        <path d="M21.7144677,22.809 C22.0704677,22.877 22.2094677,23.161 22.3494677,23.443 C25.1994677,23.815 26.1944677,20.809 25.2004677,18.375 C23.1334677,17.749 21.8774677,20.492 21.7144677,22.809" id="Fill-69" fill="#000000"></path>
        <path d="M198.813468,44.987 C193.591468,46.079 192.669468,40.806 194.061468,35.482 C196.681468,35.815 200.161468,35.904 201.981468,36.116 C201.950468,39.119 202.337468,44.25 198.813468,44.987 Z M201.348468,33.898 C199.767468,35.105 197.950468,34.205 196.279468,34.216 C196.970468,31.494 199.944468,32.545 201.348468,33.898 Z M202.615468,35.8 C202.896468,35.236 203.500468,34.994 203.249468,33.898 C202.774468,32.155 200.883468,31.828 200.081468,30.413 C200.835468,30.006 200.346468,28.356 201.348468,28.196 C202.973468,28.049 203.295468,29.206 204.516468,29.463 C204.314468,27.342 202.775468,26.557 200.397468,26.612 C199.083468,30.894 194.905468,32.313 192.477468,35.482 C193.062468,38.057 191.260468,41.103 192.161468,44.036 C197.628468,50.705 206.243468,43.319 202.615468,35.8 Z" id="Fill-70" fill="#000000"></path>
        <path d="M224.159468,35.166 C224.159468,35.588 224.159468,36.011 224.159468,36.432 C227.340468,40.854 231.030468,44.768 234.296468,49.105 C231.922468,43.876 227.780468,40.415 225.109468,35.482 C224.704468,35.465 224.670468,35.076 224.159468,35.166" id="Fill-71" fill="#000000"></path>
        <path d="M222.891468,68.114 C220.863468,68.241 219.233468,67.971 218.139468,67.164 C217.995468,65.022 221.963468,65.991 223.208468,66.214 C223.215468,66.96 222.663468,67.146 222.891468,68.114 Z M217.188468,69.382 C219.629468,69.306 221.801468,70.686 224.159468,69.698 C224.955468,68.122 224.815468,66.304 224.159468,64.629 C220.318468,62.775 213.504468,64.693 217.188468,69.382 Z" id="Fill-72" fill="#000000"></path>
        <path d="M320.153468,103.28 C319.786468,108.111 317.746468,112.356 316.668468,116.587 C312.507468,124.463 307.468468,131.102 297.659468,131.16 C289.387468,131.208 282.022468,126.578 277.066468,122.923 C273.289468,120.137 270.686468,118.165 269.146468,114.685 C267.647468,111.301 266.935468,104.372 267.561468,97.894 C267.962468,93.749 270.455468,90.265 271.046468,86.806 C273.067468,85.553 273.286468,82.498 276.116468,82.054 C276.069468,81.361 275.317468,81.374 274.532468,81.421 C276.540468,79.377 279.219468,78.536 282.452468,77.302 C283.260468,76.993 284.178468,76.255 284.986468,76.034 C286.660468,75.578 288.749468,75.343 290.372468,75.084 C291.264468,74.942 292.464468,75.022 293.541468,75.084 C296.188468,75.235 299.583468,75.563 301.778468,76.034 C303.907468,76.492 307.357468,77.584 309.380468,78.886 C310.149468,79.38 310.744468,80.419 311.598468,81.103 C312.431468,81.77 313.699468,82.221 314.133468,82.687 C314.650468,83.243 314.864468,84.487 315.400468,85.221 C316.624468,86.895 317.707468,88.013 318.885468,90.291 C319.823468,94.444 320.504468,98.641 320.153468,103.28 Z M290.689468,73.817 C287.137468,74.032 284.983468,75.151 282.452468,76.034 C281.082468,76.513 279.445468,76.751 278.334468,77.302 C277.234468,77.846 276.428468,78.851 275.482468,79.519 C274.384468,80.295 273.083468,80.685 272.314468,81.737 C270.766468,85.778 267.609468,90.315 266.295468,95.677 C264.853468,101.558 266.490468,106.506 266.611468,112.468 C268.979468,118.903 272.129468,121.169 278.016468,125.457 C281.263468,127.822 285.021468,130.417 288.471468,131.476 C298.688468,134.614 307.637468,131.343 311.916468,126.091 C312.383468,125.516 313.164468,125.279 313.500468,124.823 C316.920468,120.18 321.004468,109.722 321.420468,103.597 C321.866468,97.039 320.101468,89.792 317.301468,85.221 C312.952468,78.122 302.841468,73.079 290.689468,73.817 Z" id="Fill-73" fill="#000000"></path>
        <path d="M291.639468,85.855 C292.570468,86.682 291.811468,87.227 291.957468,88.707 C291.917468,91.095 292.506468,89.024 292.273468,87.757 C293.299468,84.708 292.254468,81.262 292.589468,77.935 C292.185468,77.918 292.151468,77.529 291.639468,77.618 C291.026468,79.988 291.729468,83.437 292.273468,84.905 C292.197468,85.357 291.752468,85.439 291.639468,85.855" id="Fill-74" fill="#000000"></path>
        <path d="M300.827468,77.935 C300.757468,77.688 300.561468,77.567 300.193468,77.618 C299.174468,80.298 298.080468,84.584 298.293468,87.439 C299.476468,84.61 299.962468,81.083 300.827468,77.935" id="Fill-75" fill="#000000"></path>
        <path d="M282.452468,78.886 C282.241468,78.886 282.030468,78.886 281.818468,78.886 C283.518468,82.571 285.537468,85.939 286.887468,89.974 C286.407468,86.527 285.345468,80.971 282.452468,78.886" id="Fill-76" fill="#000000"></path>
        <path d="M306.846468,84.589 C303.947468,87.286 301.671468,90.607 298.926468,93.459 C301.262468,93.344 302.266468,91.01 303.362468,89.657 C304.613468,88.112 306.335468,86.685 306.846468,84.589" id="Fill-77" fill="#000000"></path>
        <path d="M309.698468,88.073 C309.045468,87.15 307.377468,86.415 305.896468,86.806 C306.862468,88.374 309.454468,88.318 309.064468,91.241 C308.245468,92.535 306.149468,92.55 305.579468,94.093 C307.643468,94.476 308.360468,92.148 309.698468,92.825 C312.331468,101.739 310.358468,113.756 305.262468,120.071 C303.620468,118.863 303.820468,115.81 302.094468,114.685 C302.068468,117.197 303.201468,118.183 303.995468,119.437 C304.504468,120.241 304.664468,121.306 305.579468,121.655 C307.631468,117.318 312.814468,110.318 312.232468,102.013 C312.006468,98.785 310.783468,89.605 309.698468,88.073" id="Fill-78" fill="#000000"></path>
        <path d="M176.320468,131.476 C175.490468,131.596 174.804468,131.148 173.785468,131.16 C171.458468,131.185 167.070468,132.233 163.963468,131.476 C157.225468,129.835 150.870468,123.98 149.708468,116.269 C148.660468,109.319 151.585468,104.833 153.826468,100.429 C154.437468,100.233 152.987468,103.075 152.876468,104.23 C154.180468,103.74 153.886468,101.651 155.093468,101.062 C157.316468,103.17 160.161468,104.654 163.331468,105.815 C163.337468,104.444 161.139468,103.786 159.845468,102.964 C158.425468,102.06 157.109468,100.774 155.410468,100.746 C156.920468,97.503 161.345468,97.177 163.963468,95.043 C164.935468,97.768 164.784468,101.615 165.865468,104.23 C166.346468,101.739 165.631468,97.708 164.915468,95.36 C167.038468,94.027 171.183468,93.287 174.419468,94.093 C173.393468,96.892 170.912468,99.846 171.251468,102.964 C173.358468,101.245 173.355468,96.937 175.369468,94.726 C177.695468,94.69 179.234468,95.86 181.072468,97.261 C184.483468,99.86 187.208468,103.64 186.774468,109.933 C186.399468,115.388 184.767468,121.287 182.339468,125.457 C180.429468,125.763 179.741468,127.997 177.904468,128.626 C176.743468,129.022 175.496468,128.503 174.102468,128.626 C172.280468,128.785 171.010468,129.369 169.350468,129.259 C168.543468,129.205 167.528468,129.088 166.815468,128.942 C159.293468,127.411 153.153468,122.1 152.242468,114.052 C151.850468,110.595 152.681468,108.415 153.509468,105.498 C152.615468,104.951 151.205468,108.067 150.974468,109.3 C148.763468,121.165 158.185468,129.247 167.765468,130.526 C171.817468,131.067 177.475468,130.552 180.122468,128.626 C180.565468,128.303 180.878468,127.447 181.388468,127.041 C182.070468,126.502 182.918468,126.495 183.290468,126.091 C186.822468,122.258 186.569468,115.496 188.042468,110.25 C187.307468,106.532 187.543468,102.865 185.507468,99.796 C183.263468,96.411 179.224468,93.892 174.736468,92.825 C168.477468,91.338 161.402468,95.098 156.360468,97.261 C160.502468,92.459 168.672468,90.173 176.003468,91.558 C177.445468,91.831 178.537468,93.236 180.122468,92.509 C193.341468,97.581 193.011468,129.076 176.320468,131.476 Z M174.102468,89.341 C173.909468,89.358 173.727468,89.388 173.785468,89.657 C171.000468,90.24 167.765468,89.442 165.231468,89.974 C158.821468,91.32 152.769468,97.15 150.341468,102.33 C144.749468,114.258 149.116468,126.886 158.895468,131.476 C159.779468,131.891 160.738468,132.162 161.754468,132.345 C161.805468,132.367 161.857468,132.385 161.909468,132.406 C161.942468,132.535 162.021468,132.653 162.191468,132.711 C162.920468,132.961 163.676468,133.102 164.445468,133.184 C166.635468,133.632 168.900468,133.625 171.320468,133.695 C173.378468,133.755 175.501468,133.392 177.535468,133.149 C178.350468,133.052 179.372468,132.841 180.189468,132.408 C180.272468,132.415 180.354468,132.419 180.438468,132.427 C185.065468,130.504 188.519468,125.578 189.626468,120.388 C191.306468,112.506 191.247468,102.781 187.408468,96.944 C184.361468,92.309 179.949468,90.86 174.102468,89.341 Z" id="Fill-79" fill="#000000"></path>
        <path d="M291.639468,104.548 C290.391468,100.766 292.328468,98.043 295.441468,98.528 C296.162468,100.16 298.009468,100.557 297.975468,102.33 C297.926468,104.936 293.826468,107.306 291.639468,104.548 Z M293.541468,96.944 C293.294468,97.013 293.172468,97.21 293.223468,97.578 C292.205468,97.826 291.124468,98.013 290.372468,98.528 C287.897468,103.215 290.821468,108.081 295.125468,107.399 C296.829468,107.129 299.302468,104.8 299.243468,102.33 C299.177468,99.594 296.023468,96.933 293.541468,96.944 Z" id="Fill-80" fill="#000000"></path>
        <path d="M178.538468,100.112 C177.211468,101.743 175.023468,102.512 174.419468,104.864 C176.920468,104.623 178.503468,100.856 178.538468,100.112" id="Fill-81" fill="#000000"></path>
        <path d="M172.835468,111.834 C172.507468,114.351 170.040468,114.889 168.083468,114.052 C166.407468,113.335 166.233468,111.552 165.547468,109.617 C166.605468,104.58 173.453468,107.074 172.835468,111.834 Z M174.102468,112.468 C174.487468,109.169 172.442468,108.714 171.251468,105.815 C167.880468,104.39 164.192468,106.468 163.963468,109.617 C163.475468,116.361 173.362468,118.807 174.102468,112.468 Z" id="Fill-82" fill="#000000"></path>
        <path d="M288.155468,108.349 C286.629468,109.549 286.166468,111.446 285.303468,113.101 C284.194468,115.229 281.836468,117.338 282.452468,119.755 C284.069468,115.669 286.453468,112.35 288.788468,108.983 C288.753468,108.596 288.694468,108.233 288.155468,108.349" id="Fill-83" fill="#000000"></path>
        <path d="M292.589468,109.933 C290.953468,111.095 291.504468,113.656 291.005468,115.953 C290.230468,119.529 287.339468,123.27 288.788468,126.091 C290.051468,120.701 292.000468,115.997 293.223468,110.567 C293.187468,110.18 293.129468,109.817 292.589468,109.933" id="Fill-84" fill="#000000"></path>
        <path d="M181.706468,118.805 C179.938468,118.671 179.720468,116.987 177.904468,116.903 C178.036468,118.469 180.278468,119.587 181.706468,118.805" id="Fill-85" fill="#000000"></path>
        <path d="M165.547468,120.388 C166.587468,120.16 166.785468,119.091 166.815468,117.853 C166.746468,117.606 166.549468,117.485 166.181468,117.537 C165.080468,120.025 163.636468,122.173 163.013468,125.14 C164.872468,124.57 165.178468,122.448 165.547468,120.388" id="Fill-86" fill="#000000"></path>
        <path d="M174.102468,117.537 C173.805468,120.3 175.228468,123.986 177.270468,125.457 C176.552468,122.901 175.389468,120.791 175.052468,117.853 C174.647468,117.837 174.614468,117.447 174.102468,117.537" id="Fill-87" fill="#000000"></path>
        <path d="M169.667468,127.041 C170.039468,124.052 170.171468,121.811 170.300468,118.487 C169.983468,118.487 169.667468,118.487 169.350468,118.487 C169.005468,120.577 168.456468,125.466 169.667468,127.041" id="Fill-88" fill="#000000"></path>
        <path d="M241.900468,48.789 C241.721468,52.621 241.670468,56.955 240.316468,59.877 C231.985468,60.883 225.467468,60.276 217.188468,58.927 C216.947468,57.207 217.580468,56.36 217.505468,54.808 C218.615468,55.493 218.762468,57.141 220.040468,57.659 C219.304468,55.649 217.545468,54.663 217.505468,51.957 C219.604468,53.237 219.714468,56.507 222.257468,57.343 C221.045468,54.224 218.586468,52.354 217.822468,48.789 C220.684468,51.418 221.817468,55.776 225.109468,57.976 C222.997468,54.279 220.455468,51.013 218.456468,47.205 C218.133468,47.41 218.129468,47.932 217.505468,47.838 C217.842468,46.517 217.587468,46.44 217.505468,44.987 C219.999468,45.661 219.908468,48.921 221.941468,50.055 C223.321468,53.788 225.337468,56.16 227.643468,58.293 C225.628468,55.123 223.451468,51.712 221.307468,48.155 C220.077468,46.113 217.848468,43.251 217.822468,39.918 C222.352468,44.47 225.179468,50.724 229.227468,55.759 C227.437468,51.592 224.026468,46.955 220.990468,42.452 C219.262468,39.89 217.828468,38.527 218.139468,34.532 C222.759468,33.94 227.038468,34.496 231.129468,34.848 C232.383468,36.128 233.394468,37.652 234.296468,39.284 C235.058468,37.983 232.739468,37.049 233.029468,35.166 C235.826468,35.642 239.008468,35.733 241.583468,36.432 C241.551468,40.198 242.111468,44.255 241.900468,48.789 Z M217.505468,32.314 C217.187468,32.313 217.129468,32.571 216.872468,32.631 C215.807468,41.678 215.676468,53.801 215.604468,61.144 C223.304468,61.498 234.124468,63.554 241.900468,61.144 C243.627468,53.813 243.598468,44.095 243.167468,37.066 C243.313468,35.945 244.501468,35.866 244.434468,34.532 C236.268468,33.884 226.738468,31.793 217.505468,32.314 Z" id="Fill-89" fill="#000000"></path>
        <path d="M226.693468,46.571 C228.446468,49.471 230.153468,52.032 232.079468,53.857 C227.778468,47.703 224.457468,40.57 219.406468,35.166 C220.863468,39.296 224.439468,42.842 226.693468,46.571" id="Fill-90" fill="#000000"></path>
        <path d="M277.382468,112.785 C276.117468,113.524 274.285468,113.7 273.898468,115.319 C277.683468,114.652 281.067468,110.884 284.036468,108.349 C281.587468,109.596 279.464468,111.171 277.382468,112.785" id="Fill-91" fill="#000000"></path>
        <path d="M298.926468,125.14 C298.868468,125.41 299.049468,125.439 299.243468,125.457 C299.131468,125.351 299.028468,125.226 298.927468,125.094 C298.926468,125.11 298.927468,125.124 298.926468,125.14" id="Fill-92" fill="#000000"></path>
        <path d="M298.293468,121.339 C297.742468,118.442 298.124468,114.154 295.758468,113.419 C296.932468,116.763 297.217468,122.835 298.927468,125.094 C299.024468,123.325 298.521468,122.54 298.293468,121.339" id="Fill-93" fill="#000000"></path>
        <path d="M318.885468,119.755 C316.445468,124.624 313.402468,128.495 309.441468,131.101 C309.405468,131.108 309.371468,131.107 309.333468,131.123 C308.916468,131.298 308.555468,131.553 308.160468,131.771 C308.025468,131.846 307.657468,131.908 307.499468,131.957 C307.320468,132.012 306.988468,132.383 306.894468,132.431 C306.149468,132.821 305.373468,133.047 304.583468,133.29 C304.542468,133.303 304.516468,133.325 304.484468,133.344 C303.287468,133.581 302.061468,133.725 300.878468,133.918 C298.289468,134.338 295.781468,134.443 293.159468,134.399 C290.874468,134.361 288.798468,133.763 286.595468,133.248 C285.289468,132.943 284.260468,132.248 283.003468,131.873 C282.815468,131.817 282.641468,131.78 282.470468,131.745 C280.182468,130.73 278.295468,128.966 276.432468,127.358 C274.374468,125.581 271.800468,123.966 270.096468,121.972 C267.676468,119.141 265.754468,113.782 265.027468,108.983 C263.858468,101.276 264.261468,96.457 266.928468,89.974 C268.307468,86.622 269.934468,83.077 271.997468,80.787 C277.928468,74.203 288.638468,70.959 300.510468,72.866 C302.432468,74.745 304.949468,74.472 307.164468,75.401 C308.499468,75.961 309.745468,77.326 311.282468,78.252 C312.903468,79.229 314.906468,79.793 316.034468,80.787 C319.233468,83.603 322.204468,91.095 323.004468,95.677 C324.767468,105.769 322.230468,113.082 318.885468,119.755 Z M272.932468,128.322 C272.937468,128.317 272.943468,128.313 272.948468,128.308 C272.927468,128.311 272.912468,128.314 272.892468,128.317 C271.925468,128.22 270.947468,127.936 270.096468,127.654 C270.028468,127.632 269.963468,127.628 269.903468,127.631 C267.447468,125.819 264.206468,125.367 261.859468,123.556 C260.296468,122.351 258.663468,120.183 257.423468,118.487 C256.077468,116.643 255.473468,114.18 254.255468,112.151 C255.238468,112.182 255.769468,111.763 256.473468,111.517 C257.552468,114.874 259.484468,117.378 261.225468,120.071 C263.103468,120.712 264.581468,121.794 266.295468,122.606 C268.052468,123.438 269.717468,124.481 271.680468,125.14 C272.260468,126.442 273.145468,127.441 274.148468,128.32 C273.753468,128.366 273.343468,128.361 272.932468,128.322 Z M255.523468,110.25 C255.944468,107.418 261.354468,106.657 261.859468,102.646 C262.383468,102.967 262.203468,103.992 262.493468,104.548 C260.560468,106.839 257.910468,108.413 255.523468,110.25 Z M262.175468,106.448 C262.545468,106.397 262.740468,106.518 262.809468,106.765 C263.536468,112.692 265.163468,117.719 267.561468,121.972 C262.542468,120.128 259.518468,116.287 257.741468,111.201 C258.901468,109.299 261.404468,108.739 262.175468,106.448 Z M248.553468,110.25 C245.616468,110.318 242.139468,110.336 238.415468,110.567 C225.364468,111.378 212.129468,110.834 202.615468,106.448 C203.342468,99.864 203.298468,93.592 203.882468,87.123 C204.470468,80.605 204.523468,74.805 204.833468,69.382 C205.266468,61.805 206.140468,53.816 206.734468,45.304 C207.131468,39.599 208.147468,34.91 208.001468,27.879 L208.001468,26.929 C212.515468,26.638 215.233468,28.145 219.406468,28.196 C218.229468,28.937 215.616468,28.405 214.337468,28.196 C213.302468,30.172 213.301468,32.606 213.070468,35.166 C212.178468,45.011 212.317468,56.794 211.802468,68.114 C211.401468,76.958 210.846468,83.237 210.218468,91.558 C209.776468,97.43 209.600468,101.875 213.386468,104.548 C217.758468,107.634 231.045468,108.987 236.831468,104.864 C248.315468,96.68 246.476468,69.605 246.018468,50.689 C245.917468,46.469 247.969468,37.655 246.336468,31.364 C242.192468,30.068 233.788468,30.72 228.277468,29.78 C229.616468,28.528 231.532468,29.739 233.029468,29.78 C235.366468,29.845 238.045468,29.367 240.632468,29.463 C242.916468,29.548 245.136468,30.166 247.286468,30.096 C249.478468,30.026 251.748468,29.094 253.939468,29.146 C256.551468,29.209 259.213468,29.591 261.859468,29.78 C266.043468,30.079 270.152468,30.79 273.898468,31.047 C273.765468,37.18 272.948468,42.765 273.264468,50.055 C273.488468,51.44 271.616468,50.731 271.364468,51.639 C271.336468,52.723 273.292468,51.823 273.264468,52.907 C273.718468,61.077 272.386468,69.128 273.264468,76.668 C275.119468,75.263 274.198468,72.687 274.214468,70.332 C274.254468,65.068 275.412468,58.669 274.848468,52.591 C278.721468,52.414 285.311468,52.882 289.739468,52.273 C288.414468,55.07 285.731468,56.305 284.036468,58.927 C281.701468,62.537 281.217468,67.669 278.650468,70.966 C277.764468,72.103 276.155468,72.546 275.482468,73.817 C276.045468,75.321 276.896468,73.625 278.016468,73.817 C269.840468,79.158 264.286468,87.121 262.493468,98.845 C261.289468,100.492 260.213468,102.268 259.641468,104.548 C256.604468,106.323 253.890468,110.127 248.553468,110.25 Z M243.800468,112.785 C236.380468,114.079 227.893468,114.252 218.456468,113.101 C212.997468,112.436 207.294468,111.979 204.516468,109.617 C204.458468,109.347 204.639468,109.318 204.833468,109.3 C212.667468,111.175 221.167468,113.003 229.227468,112.468 C234.597468,112.112 241.354468,111.623 247.286468,111.517 C246.956468,112.923 244.855468,112.6 243.800468,112.785 Z M234.296468,123.556 C231.953468,124.441 229.544468,123.678 227.327468,123.556 C224.520468,123.403 221.474468,124.138 219.406468,122.289 C218.748468,120.762 219.645468,117.695 219.406468,116.587 C221.105468,117.442 219.592468,119.714 220.040468,121.972 C223.644468,121.133 229.887468,124.617 233.346468,122.923 C235.011468,122.107 235.733468,118.813 234.296468,116.269 C233.623468,117.602 234.286468,120.272 233.346468,121.339 C229.806468,121.922 225.497468,120.85 221.307468,120.388 C221.450468,118.345 221.218468,116.675 220.673468,115.319 C226.800468,115.871 229.966468,116.045 235.880468,115.636 C236.074468,118.997 235.502468,121.594 234.296468,123.556 Z M194.378468,52.591 L195.011468,52.591 L195.011468,51.323 L194.378468,51.323 L194.378468,52.591 Z M202.298468,100.112 C201.239468,101.059 202.076468,103.903 201.348468,105.181 C199.385468,104.714 198.926468,102.332 197.863468,100.429 C196.908468,98.721 194.769468,97.05 194.378468,95.36 C194.212468,94.64 194.658468,93.341 194.695468,92.192 C194.805468,88.767 194.090468,83.593 194.378468,80.153 C195.039468,72.255 195.410468,60.267 196.279468,50.373 C194.054468,50.125 191.118468,50.183 188.042468,49.422 C188.563468,39.584 190.919468,29.926 191.843468,21.543 C194.588468,18.793 200.346468,16.315 203.565468,19.009 C205.623468,20.729 206.860468,27.005 207.050468,30.096 C207.219468,32.842 206.711468,36.115 206.417468,38.968 C204.560468,57.022 203.301468,72.06 202.298468,92.192 C202.149468,95.192 201.210468,97.743 202.298468,100.112 Z M186.141468,88.707 C188.333468,89.868 191.126468,94.021 193.427468,97.261 C194.416468,98.651 195.981468,99.521 196.279468,101.062 C192.979468,96.864 189.630468,92.715 186.141468,88.707 Z M176.636468,80.47 C177.240468,76.593 174.941468,75.618 174.419468,72.866 C179.650468,74.017 185.475468,73.059 189.309468,75.718 C194.215468,79.119 192.611468,86.215 193.427468,93.776 C188.477468,88.694 184.223468,82.916 176.636468,80.47 Z M173.785468,66.846 C177.326468,63.899 182.705468,66.725 187.091468,65.58 C189.426468,64.97 190.516468,63.386 192.794468,62.728 C193.170468,61.732 193.863468,61.052 194.061468,59.877 C194.733468,65.618 193.011468,71.71 193.427468,78.252 C191.668468,75.28 188.777468,73.12 184.557468,72.232 C181.017468,71.488 176.922468,72.625 174.102468,70.966 C173.478468,70.11 173.914468,68.197 173.785468,66.846 Z M171.884468,70.332 C167.418468,70.542 162.178468,69.126 165.865468,64.946 C166.045468,64.741 165.931468,64.105 166.181468,63.996 C167.812468,63.282 170.733468,65.023 173.151468,64.312 C171.960468,65.982 172.345468,68.634 171.884468,70.332 Z M176.320468,62.728 C180.234468,61.09 183.467468,56.527 184.240468,51.323 C185.004468,50.79 187.337468,50.806 187.408468,51.957 C188.810468,50.829 190.837468,51.572 192.477468,51.957 C194.506468,58.897 191.657468,62.575 186.774468,63.679 C184.072468,64.29 181.018468,63.305 178.220468,63.362 C176.945468,63.388 175.523468,64.275 174.419468,63.679 C173.457468,62.237 175.787468,62.951 176.320468,62.728 Z M224.475468,29.463 C224.327468,28.787 224.927468,28.859 225.425468,28.829 C225.288468,29.22 225.020468,29.48 224.475468,29.463 Z M220.990468,28.829 C221.482468,28.358 223.994468,28.555 224.159468,29.463 C223.374468,28.981 221.702468,29.385 220.990468,28.829 Z M244.752468,72.55 C244.603468,78.21 244.615468,85.469 243.167468,91.241 C241.781468,96.768 238.450468,102.619 234.613468,104.23 C232.213468,105.239 227.477468,105.627 224.159468,105.498 C218.640468,105.284 213.849468,102.922 211.802468,99.478 C211.590468,87.912 213.501468,76.763 214.020468,64.946 C214.403468,56.234 213.988468,47.671 214.337468,38.334 C214.434468,35.739 214.445468,32.823 215.604468,30.413 C222.955468,30.984 230.388468,32.049 238.098468,32.314 C238.711468,32.336 239.407468,31.962 239.999468,31.998 C241.262468,32.075 243.318468,33.509 245.068468,32.314 C244.645468,42.501 245.126468,58.184 244.752468,72.55 Z M203.882468,16.791 C212.906468,17.308 219.811468,17.283 227.960468,18.057 C232.145468,18.455 236.401468,19.217 240.632468,19.641 C244.299468,20.01 248.029468,19.735 251.721468,19.959 C255.568468,20.191 259.502468,20.786 263.127468,20.909 C268.158468,21.079 274.515468,20.372 277.066468,24.394 C277.931468,25.759 277.560468,27.683 278.334468,28.829 C272.879468,29.334 267.319468,28.189 261.225468,27.879 C252.208468,27.42 242.130468,28.307 232.395468,27.879 C223.501468,27.488 215.777468,25.572 208.001468,25.027 C206.858468,24.367 207.167468,22.628 206.734468,21.543 C206.301468,20.459 205.395468,19.689 205.150468,18.691 C204.974468,17.599 203.385468,17.922 203.565468,16.473 C203.835468,16.415 203.864468,16.597 203.882468,16.791 Z M287.204468,58.61 C287.629468,58.818 287.794468,59.287 287.837468,59.877 C286.950468,59.927 286.804468,58.981 287.204468,58.61 Z M288.471468,63.045 C290.004468,65.596 290.159468,70.592 285.937468,70.332 C287.446468,68.567 288.036468,65.883 288.471468,63.045 Z M285.303468,71.599 C283.254468,72.084 281.295468,72.659 279.284468,73.183 C281.471468,69.139 283.990468,65.429 285.937468,61.144 C288.020468,63.796 286.332468,69.1 284.036468,70.332 C283.987468,71.225 284.931468,71.126 285.303468,71.599 Z M301.778468,54.808 C305.447468,57.359 305.089468,63.872 301.778468,67.798 C300.769468,68.267 299.311468,68.288 298.609468,69.064 C298.246468,70.378 299.276468,70.299 299.243468,71.282 C295.476468,71.182 292.983468,70.616 289.421468,70.966 C288.004468,70.843 290.251468,69.678 290.372468,69.064 C291.601468,64.254 289.127468,61.516 288.471468,57.659 C290.067468,55.281 297.577468,51.888 301.778468,54.808 Z M306.212468,59.56 C307.416468,63.261 305.858468,69.218 302.094468,70.014 C303.698468,66.761 306.428468,64.634 306.212468,59.56 Z M168.083468,83.321 C168.686468,81.429 170.002468,81.502 172.201468,81.737 C171.196468,82.633 169.158468,82.496 168.083468,83.321 Z M154.143468,83.321 C149.967468,83.29 146.054468,81.973 142.104468,81.103 C138.082468,80.218 133.987468,79.48 129.749468,78.569 C126.147468,77.795 122.640468,76.289 118.976468,75.401 C111.251468,73.527 103.006468,72.253 94.8994677,70.332 C91.0424677,69.418 87.3244677,67.907 83.4944677,67.164 C78.3504677,66.166 73.2174677,66.136 68.2874677,64.312 C68.3194677,61.414 68.5274677,60.182 68.6034677,57.025 C75.0704677,57.642 80.8434677,57.165 85.0784677,54.491 C88.5454677,52.302 89.8064677,48.52 92.6814677,46.254 C98.0674677,42.008 107.924468,40.427 115.808468,43.403 C117.478468,45.596 120.185468,46.102 121.511468,48.789 C122.641468,51.078 122.334468,54.891 122.462468,58.61 C122.525468,60.464 122.933468,62.064 122.778468,63.679 C122.379468,67.835 119.754468,71.426 120.244468,74.45 C125.974468,73.43 134.790468,76.044 140.520468,76.034 C141.583468,76.801 140.535468,78.617 141.787468,80.153 C143.168468,78.453 142.881468,74.709 142.738468,71.599 C142.533468,67.176 140.983468,63.953 139.253468,61.461 C149.786468,60.098 146.403468,74.619 149.074468,81.103 C150.712468,75.323 148.295468,66.819 146.540468,62.095 C150.848468,63.207 150.147468,70.901 150.341468,75.084 C151.423468,78.014 151.704468,81.747 154.143468,83.321 Z M156.360468,81.421 C155.074468,81.1 154.153468,82.382 154.143468,80.787 C154.563468,80.404 156.321468,80.47 156.360468,81.421 Z M67.0194677,47.521 C76.1284677,46.644 82.9124677,47.625 91.0974677,44.987 C92.7174677,45.251 90.1464677,45.911 90.1474677,46.571 C87.8774677,50.638 84.0434677,53.139 79.6924677,55.125 C75.6984677,54.962 71.9654677,56.517 68.6034677,55.125 C68.6114677,52.055 67.7304677,49.873 67.0194677,47.521 Z M67.9694677,69.382 C83.9114677,73.52 105.511468,75.797 120.878468,80.47 C119.038468,86.627 126.089468,86.384 128.797468,89.024 C129.766468,92.43 128.827468,96.739 129.431468,101.38 C129.735468,103.711 130.642468,106.409 131.015468,108.983 C131.325468,111.114 131.004468,113.121 131.649468,114.685 C132.791468,117.458 137.108468,117.789 135.451468,121.022 C133.896468,121.123 130.773468,118.87 129.431468,117.537 C126.705468,114.828 127.700468,109.01 126.263468,104.864 C125.318468,102.137 122.887468,100.659 122.145468,97.894 C120.635468,97.272 119.524468,95.697 118.026468,95.36 C113.636468,94.371 108.239468,96.184 104.403468,93.776 C100.607468,91.392 100.959468,86.344 98.7014677,82.054 C97.6654677,80.086 95.3154677,77.747 92.9984677,76.985 C92.0324677,76.667 90.6634677,76.909 89.5134677,76.668 C88.5714677,76.471 87.7544677,75.798 86.9784677,75.718 C85.0094677,75.513 82.6984677,76.325 80.6424677,76.351 C78.2354677,76.383 75.8724677,76.23 73.0394677,76.985 C70.9274677,77.547 67.7684677,78.624 65.4354677,79.519 C61.1314677,81.172 58.1234677,82.348 54.3464677,84.589 C50.5214677,86.857 46.6854677,89.62 40.7244677,89.974 C39.1194677,90.418 39.8544677,88.52 38.5054677,88.707 C37.0964677,88.856 35.9164677,88.966 34.7054677,89.657 C34.3844677,89.84 34.2524677,90.513 34.0714677,90.608 C32.7464677,91.296 30.8034677,91.324 29.6354677,92.192 C27.7224677,93.612 26.9714677,97.336 25.5174677,99.796 C23.9574677,102.432 22.6304677,104.637 20.7654677,106.448 C20.4174677,108.106 19.5754677,109.272 18.5464677,110.25 C17.6994677,113.416 16.6634677,116.391 15.6954677,119.437 C15.9844677,120.733 16.4224677,121.879 16.9624677,122.923 C15.2264677,123.614 14.5264677,125.344 12.5274677,125.774 C11.8414677,119.401 14.5424677,115.845 16.3304677,110.567 C17.7144677,106.478 17.9024677,102.192 19.4984677,99.162 C20.9824677,96.343 24.1604677,94.976 26.1504677,92.509 C27.2454677,91.152 28.4594677,87.866 29.6354677,84.905 C31.5214677,80.16 33.3614677,75.756 32.8034677,69.698 C32.5894677,67.367 32.3254677,65.522 30.9024677,62.411 C30.3924677,62.276 29.8394677,63.593 30.5864677,63.679 C29.7644677,63.751 27.6944677,62.353 27.7344677,60.511 C40.7384677,62.355 50.1584677,65.844 63.8514677,66.846 C63.9624677,70.654 63.2894677,73.677 63.5354677,77.618 C64.1974677,77.484 64.3744677,77.836 64.8014677,77.935 C67.7894677,77.015 66.5034677,71.821 67.9694677,69.382 Z M94.8994677,92.825 C94.5444677,93.169 94.3514677,94.084 93.9484677,94.41 C92.4094677,95.653 89.9704677,96.091 88.5624677,97.578 C87.2494677,98.966 86.4984677,102.161 85.3944677,104.864 C83.6284677,109.195 81.5514677,112.813 83.4944677,116.903 C82.4744677,119.053 80.2814677,120.027 78.1084677,121.022 C78.0114677,119.587 77.1954677,119.266 77.1574677,118.171 C77.0674677,115.507 80.2184677,113.374 80.6424677,111.201 C81.0284677,109.221 79.9384677,106.963 80.3264677,105.181 C80.9234677,102.429 83.0624677,100.429 84.4444677,98.212 C85.8854677,95.899 86.5124677,93.37 88.2464677,91.241 C85.7224677,86.689 83.2754677,82.061 80.0084677,78.252 L80.0084677,76.985 C89.0564677,76.527 98.6604677,78.64 99.0174677,88.707 C98.2914677,90.546 96.3804677,91.394 94.8994677,92.825 Z M26.4674677,74.767 C24.9414677,73.836 22.9204677,73.076 22.0324677,71.599 C19.7614677,70.852 18.5154677,69.327 15.3794677,70.332 C10.2334677,71.98 7.62546772,83.325 5.87546772,88.707 C6.37046772,90.323 8.69246772,90.113 9.04346772,91.875 C8.89346772,92.686 8.37646772,93.6 7.77546772,94.726 C5.09546772,93.604 2.54946772,92.348 1.43946772,89.657 C2.61946772,86.1 3.29446772,82.593 4.29046772,79.203 C5.19846772,76.115 6.12946772,72.26 8.09246772,70.014 C10.3704677,67.411 15.2304677,66.867 19.1814677,65.896 C21.9624677,65.213 24.6164677,64.411 26.4674677,62.411 C31.8964677,64.446 32.3794677,70.401 31.2194677,76.985 C29.5584677,77.216 28.0054677,75.706 26.4674677,74.767 Z M30.5864677,58.293 C34.4204677,58.677 38.4414677,59.555 42.6254677,60.511 C48.0354677,61.745 53.6244677,62.362 58.7824677,63.362 C60.4654677,63.688 62.1104677,64.845 63.8514677,63.996 C58.2354677,61.057 49.7774677,60.963 42.9414677,59.243 C47.6054677,52.924 54.2294677,48.565 57.5144677,40.868 L58.4654677,40.868 C59.0234677,43.901 61.3564677,45.159 63.2174677,46.888 C64.6764677,52.687 64.2624677,59.058 64.1684677,65.896 C61.3024677,65.721 58.4314677,64.864 55.2974677,64.312 C48.6134677,63.136 42.4334677,62.114 35.9724677,60.827 C34.3424677,60.503 32.8554677,59.862 31.2194677,59.56 C29.8734677,59.311 27.6114677,59.891 26.7844677,58.293 C27.8124677,57.056 29.3984677,58.175 30.5864677,58.293 Z M34.7054677,34.216 C34.3574677,32.11 33.0124677,30.624 30.9024677,29.463 C29.6174677,29.621 28.9864677,30.784 29.6354677,31.998 C27.1654677,32.906 26.7654677,35.886 24.5664677,37.066 C22.3574677,34.254 25.9884677,31.315 27.1014677,28.196 C28.0094677,25.649 28.4274677,22.8 29.0024677,19.959 C30.0544677,18.177 31.5384677,13.746 30.2694677,11.721 C28.0844677,19.569 26.4254677,27.943 22.6664677,34.216 C20.7754677,32.831 18.7694677,31.564 15.6954677,31.364 C17.8894677,26.693 17.8944677,19.834 20.7654677,15.84 L20.7654677,13.939 C22.7744677,11.495 27.0564677,9.694 30.5864677,9.82 C32.6194677,8.263 32.0314677,4.085 34.0714677,2.534 C34.4394677,2.482 34.6344677,2.603 34.7054677,2.85 C34.5134677,4.561 35.3084677,7.256 33.7544677,7.603 C35.2614677,7.981 33.8024677,9.809 35.0214677,10.771 C36.3494677,11.148 35.5874677,9.435 36.2894677,9.187 C47.3744677,12.569 45.2664677,29.144 52.7624677,36.116 C53.3274677,36.397 53.5684677,37.001 54.6644677,36.75 C50.4974677,45.255 44.3454677,51.776 37.8734677,57.976 C34.2154677,57.093 31.2994677,56.895 27.7344677,56.392 C27.8144677,49.179 35.9274677,41.637 34.7054677,34.216 Z M17.2804677,44.036 C18.8384677,41.794 20.4844677,39.638 22.0324677,37.384 C22.9774677,37.388 23.1094677,38.207 23.9334677,38.334 C22.4294677,40.949 20.8184677,43.456 17.2804677,44.036 Z M13.7954677,40.234 C13.8754677,41.355 14.8974677,42.867 14.7464677,44.67 C10.4474677,43.991 14.5614677,36.024 14.7464677,33.264 C17.0054677,34.067 19.2284677,34.907 21.0824677,36.116 C19.8144677,38.756 17.9504677,40.799 16.3304677,43.086 C15.2604677,42.36 15.9294677,39.895 13.7954677,40.234 Z M23.6164677,6.018 C24.8134677,6.933 25.7384677,8.121 27.4184677,8.554 C26.8374677,9.452 25.0394677,9.131 23.9334677,9.504 C23.7774677,8.392 23.4614677,7.441 23.6164677,6.018 Z M46.1094677,11.405 C44.6974677,14.693 48.4924677,14.729 49.9124677,16.157 C49.9944677,17.085 49.1954677,17.131 49.2784677,18.057 C50.0044677,19.865 51.2964677,21.108 52.4464677,22.493 L52.4464677,24.394 C54.4354677,26.523 53.5874677,31.489 55.6144677,33.582 C54.7454677,34.042 53.4714677,34.097 54.3464677,35.482 C49.3794677,32.259 48.9304677,23.786 46.1094677,17.424 C45.9174677,16.988 45.4124677,16.924 45.1604677,16.473 C44.7294677,15.708 44.9174677,14.587 44.5254677,13.939 C43.1314677,11.633 40.8264677,10.997 39.7734677,8.554 C42.0994677,9.29 43.6034677,10.849 46.1094677,11.405 Z M56.2484677,38.334 C57.4484677,40.247 55.6244677,41.617 54.6644677,43.086 C53.7274677,44.518 53.0454677,46.335 52.1294677,47.521 C51.1734677,48.761 49.5254677,49.689 48.3284677,51.007 C47.1344677,52.318 46.2974677,53.993 45.1604677,55.125 C43.7574677,56.519 41.9634677,58.245 40.0904677,58.293 C45.6684677,51.937 51.6184677,45.953 55.6144677,38.016 C55.9834677,37.966 56.1784677,38.087 56.2484677,38.334 Z M61.0004677,38.334 C60.7324677,39.016 59.3674677,38.601 59.0994677,39.284 C58.6724677,37.598 56.5834677,37.577 56.5654677,35.482 C57.9874677,36.488 60.0924677,36.812 61.0004677,38.334 Z M132.599468,38.334 C134.367468,37.843 137.122468,37.482 138.936468,38.334 C139.329468,38.518 139.728468,39.32 140.520468,39.918 C141.082468,40.342 142.032468,40.506 142.420468,40.868 C143.106468,41.508 143.302468,42.538 144.004468,43.086 C144.689468,43.62 145.425468,43.56 145.906468,44.036 C146.486468,44.611 146.394468,45.323 146.856468,45.937 C147.753468,47.131 149.215468,47.296 149.708468,48.471 C145.936468,48.875 143.530468,49.439 139.886468,49.422 C138.671468,48.419 137.714468,47.158 136.401468,46.254 C135.329468,46.343 134.582468,46.758 133.233468,46.571 C131.919468,42.948 128.915468,39.593 123.729468,40.868 C121.973468,41.753 121.947468,44.366 119.294468,44.353 C121.264468,39.677 126.504468,34.195 132.599468,38.334 Z M141.153468,74.45 C139.249468,75.668 136.658468,74.426 134.183468,74.134 C130.133468,73.655 125.613468,73.611 121.511468,72.55 C121.460468,72.181 121.581468,71.986 121.828468,71.916 C121.712468,71.377 122.075468,71.318 122.462468,71.282 C130.005468,71.025 134.518468,73.799 141.153468,74.45 Z M184.874468,33.582 C183.669468,32.568 180.669468,33.35 180.122468,31.68 C182.291468,30.569 184.621468,31.13 184.874468,33.582 Z M177.587468,38.968 C177.754468,36.812 177.783468,34.516 179.170468,33.582 C181.045468,34.346 183.165468,34.868 185.190468,35.482 C186.075468,40.079 180.056468,43.652 177.587468,38.968 Z M315.084468,77.935 C313.952468,77.164 311.973468,76.345 310.965468,75.718 C310.663468,75.53 310.574468,75.249 310.332468,75.084 C307.949468,73.468 305.376468,73.711 303.045468,71.916 C310.949468,67.612 309.587468,55.376 303.045468,52.273 C299.855468,50.762 294.722468,49.004 291.957468,51.007 C286.424468,50.178 281.369468,51.393 274.532468,50.373 C274.486468,43.566 274.503468,37.422 275.798468,30.73 C277.982468,31.013 278.304468,29.434 279.600468,28.829 C279.837468,22.96 275.645468,19.058 269.779468,18.691 C268.030468,18.582 266.192468,19.325 264.393468,19.325 C261.499468,19.325 258.233468,18.903 255.206468,18.691 C248.888468,18.249 242.672468,17.834 237.464468,17.107 C230.395468,16.121 223.778468,15.969 217.188468,15.84 C213.397468,15.765 208.520468,14.618 203.565468,14.889 C199.414468,15.118 193.731468,16.949 191.843468,19.009 C190.245468,20.753 190.205468,25.151 189.309468,26.612 C186.471468,24.702 182.570468,26.106 182.022468,29.146 C180.121468,29.779 178.744468,30.936 176.954468,31.68 C176.879468,34.619 174.896468,36.55 175.686468,39.601 C176.259468,41.816 179.067468,43.027 180.754468,43.086 C186.515468,43.286 185.595468,37.038 187.408468,32.948 C186.333468,31.464 184.099468,29.889 184.557468,27.879 C185.914468,27.182 188.592468,27.549 188.992468,28.829 C187.817468,35.561 186.588468,43.553 187.091468,49.422 C185.069468,49.687 184.146468,49.172 182.339468,49.739 C182.232468,59.072 176.397468,62.612 165.865468,61.461 C164.486468,63.778 162.080468,65.068 162.697468,69.382 C163.497468,72.635 167.207468,71.068 169.983468,71.916 C173.317468,72.933 174.778468,76.766 174.736468,80.153 C169.579468,79.791 163.905468,78.874 157.945468,77.935 C156.171468,77.656 153.894468,77.767 152.559468,76.351 C158.660468,77.045 165.430468,78.203 172.518468,78.569 C171.070468,76.725 168.546468,77.537 166.499468,77.302 C161.567468,76.736 156.351468,75.761 151.925468,74.45 C151.212468,70.391 151.912468,65.097 150.341468,62.411 C148.896468,59.941 141.560468,59.85 140.520468,59.877 C138.758468,59.923 137.071468,59.221 136.718468,60.511 C136.411468,63.013 139.609468,64.513 140.520468,67.164 C141.140468,68.969 140.614468,71.204 140.837468,73.183 C134.258468,72.169 128.208468,70.746 122.462468,69.698 C124.645468,62.782 125.145468,49.981 120.878468,44.987 C122.890468,44.243 122.678468,42.691 124.362468,42.136 C129.280468,40.513 130.456468,46.422 133.549468,48.471 C134.570468,48.542 134.890468,47.911 136.085468,48.155 C137.801468,51.254 144.170468,52.138 147.490468,50.055 C148.813468,50.51 151.944468,50.551 152.876468,50.373 C152.785468,46.028 147.777468,46.6 147.172468,42.769 C146.338468,42.125 145.305468,41.68 144.322468,41.185 C143.590468,38.959 140.997468,38.596 139.886468,36.75 C137.661468,36.569 134.499468,35.318 132.599468,36.75 C130.657468,35.537 128.374468,34.826 126.263468,35.166 C122.066468,35.842 120.913468,41.407 117.710468,42.769 C116.015468,41.979 114.417468,40.96 112.640468,40.552 C105.438468,38.895 98.7644677,41.722 92.9984677,43.086 C85.4844677,44.863 74.9324677,45.836 66.3854677,45.62 C64.8194677,44.332 64.2334677,40.385 61.0004677,41.819 C62.6844677,42.881 64.6784677,43.632 64.4854677,46.571 C68.1334677,49.752 67.2514677,57.431 67.0194677,63.679 C67.1034677,64.713 65.7904677,64.35 65.7524677,65.263 C66.8004677,65.564 66.6704677,66.46 66.7034677,67.48 C66.7664677,69.458 65.4794677,74.315 64.8014677,75.718 C64.9904677,66.541 67.0224677,52.64 63.2174677,44.353 C61.3884677,43.529 59.7254677,43.139 59.4164677,40.234 C61.4184677,39.338 65.4004677,40.368 65.7524677,38.65 C62.0534677,36.304 57.5574677,35.929 55.9304677,31.364 C55.5924677,30.416 55.7034677,28.642 55.2974677,27.245 C54.7004677,25.188 53.1694677,23.778 54.0304677,21.859 C52.5944677,20.761 51.5404677,19.281 50.5454677,17.741 C50.5624677,16.703 51.4464677,16.53 51.1794677,15.206 C49.9924677,14.386 48.6524677,13.721 47.3774677,12.989 C47.2164677,11.543 47.9274677,11.193 47.3774677,10.138 C43.9734677,8.789 40.7074677,7.303 36.2894677,6.97 C36.1844677,4.328 36.2264677,1.54 35.0214677,0 C31.9184677,1.077 31.0044677,5.461 30.9024677,8.554 C29.8824677,8.038 29.1864677,8.402 28.0514677,8.554 C28.0214677,7.184 26.5824677,7.181 25.8344677,6.336 C25.0984677,5.505 24.9614677,3.449 23.2984677,3.484 C21.5844677,5.044 22.3104677,8.226 22.6664677,10.454 C21.6024677,10.87 21.0214677,11.766 20.1304677,12.355 C18.0174677,16.305 16.8454677,23.581 15.0624677,28.196 C14.4254677,29.843 13.3024677,31.422 12.8444677,32.948 C12.4554677,34.246 12.6524677,35.977 12.2114677,37.7 C11.6044677,40.069 10.4314677,42.029 10.9434677,44.036 C11.1874677,44.988 12.2544677,45.611 12.8444677,46.571 C24.6024677,47.135 25.0544677,36.393 31.8534677,31.998 C36.2814677,36.917 29.7404677,44.629 28.0514677,49.105 C27.9024677,50.541 27.8154677,52.037 26.7844677,52.591 C24.9744677,51.655 21.7274677,52.155 19.4984677,51.639 C19.2124677,52.833 18.7574677,53.856 18.5464677,55.125 C20.3124677,56.573 23.1974677,55.742 25.5174677,56.075 C25.3754677,53.682 20.8294677,55.694 20.4484677,53.541 C22.2894677,53.45 24.8924677,52.743 26.4674677,54.491 C26.2604677,56.607 25.2894677,57.96 24.8834677,59.877 C25.1834677,60.528 26.5154677,60.145 26.4674677,61.144 C21.6834677,65.548 11.5364677,64.589 6.82546772,69.064 C5.35646772,71.317 4.01246772,75.127 2.70646772,79.203 C1.54546772,82.825 -1.41853228,89.737 0.80546772,92.509 C2.23146772,94.284 5.52546772,95.444 7.45946772,96.944 C9.33146772,95.475 10.4814677,93.303 10.3104677,90.608 C9.43846772,89.162 8.15046772,89.62 7.77546772,88.073 C7.32746772,86.221 9.30046772,82.124 9.99346772,80.47 C11.0044677,78.054 12.2854677,75.179 13.4784677,73.817 C17.2054677,69.562 21.7514677,73.946 24.8834677,75.718 C25.8614677,76.27 26.7764677,76.916 27.7344677,77.302 C28.6414677,77.667 29.6714677,77.579 30.5864677,78.252 C29.1564677,85.712 24.9574677,91.811 20.1304677,95.994 C17.2444677,98.496 16.7244677,104.273 15.3794677,108.983 C13.5464677,115.396 10.3464677,119.846 10.9434677,126.724 C15.0114677,127.607 19.5994677,123.748 16.9624677,119.755 C18.9644677,108.662 26.4994677,103.1 30.2694677,93.776 C32.9264677,92.948 34.6294677,91.167 37.2394677,90.291 C41.0394677,92.412 46.1834677,90.351 48.9614677,89.024 C52.6074677,87.28 55.3704677,85.137 58.7824677,83.638 C65.1214677,80.854 71.4684677,78.608 78.7414677,77.302 C80.5184677,81.8 82.5334677,83.795 84.7604677,87.757 C87.3794677,92.414 85.1614677,93.811 82.5444677,98.212 C81.3484677,100.221 79.1894677,102.578 78.7414677,104.864 C78.3334677,106.95 79.4334677,109.385 79.0584677,111.201 C78.7854677,112.522 77.2174677,113.262 76.5244677,114.685 C75.8534677,116.061 75.2514677,118.668 75.8904677,120.388 C77.6854677,125.217 83.0434677,120.192 84.4444677,118.171 C83.6654677,114.033 84.4624677,111.247 85.3944677,108.666 C86.4714677,105.683 87.5884677,101.115 89.5134677,99.162 C90.2224677,98.442 91.4444677,98.195 92.3644677,97.578 C93.1254677,97.067 94.0904677,96.072 94.8994677,95.36 C96.8574677,93.637 97.8114677,92.549 99.0174677,90.608 C100.827468,91.967 102.158468,93.804 103.769468,95.36 C109.913468,97.69 117.410468,95.002 121.194468,99.162 C121.865468,101.554 123.678468,102.858 124.679468,105.181 C126.286468,108.91 125.524468,115.379 127.847468,117.853 C129.904468,120.045 132.428468,122.093 135.134468,123.239 C136.092468,122.397 137.528468,121.534 137.669468,120.388 C138.050468,117.282 134.172468,116.401 133.233468,114.369 C132.615468,113.031 132.731468,110.282 132.283468,107.716 C131.940468,105.756 131.219468,104.013 131.015468,102.33 C130.185468,95.472 132.383468,88.826 127.531468,86.173 C126.567468,85.645 125.032468,85.86 124.045468,85.221 C122.004468,83.902 121.978468,82.225 121.511468,80.153 C128.708468,82.274 135.152468,83.596 142.420468,85.221 C142.873468,86.987 143.772468,88.306 144.638468,89.657 C141.125468,93.386 137.928468,98.062 137.669468,104.23 C137.534468,107.435 137.536468,110.519 138.619468,112.785 C139.034468,113.651 140.081468,114.061 140.837468,115.003 C141.726468,116.11 142.086468,117.332 142.738468,117.853 C143.715468,118.637 145.842468,119.598 146.540468,118.805 C146.703468,119.376 147.902468,121.589 148.124468,120.071 C147.614468,116.984 144.563468,114.593 143.371468,111.517 C142.795468,110.032 142.336468,107.722 142.104468,106.132 C141.264468,100.356 145.294468,97.482 146.856468,92.192 C143.498468,94.472 143.716468,99.043 141.153468,100.746 C139.732468,104.858 142.000468,110.478 143.054468,114.369 C144.398468,115.142 146.127468,117.203 145.906468,118.487 C143.273468,116.871 139.962468,112.15 139.253468,109.933 C138.565468,107.788 139.308468,108.318 139.253468,106.448 C139.156468,103.225 139.949468,98.528 141.153468,96.628 C142.386468,94.681 144.269468,91.321 146.540468,91.241 C147.402468,92.857 149.775468,94.485 151.925468,93.776 C152.565468,94.509 152.978468,95.469 154.143468,95.677 C154.137468,94.309 152.564468,94.51 152.559468,93.142 C148.205468,92.321 145.938468,89.414 144.322468,85.855 C148.361468,86.146 151.105468,87.731 155.093468,88.073 C155.570468,90.025 156.672468,91.351 158.261468,92.192 C158.119468,90.433 156.368468,90.284 156.360468,88.39 C158.272468,88.438 161.174468,90.677 162.697468,89.024 C160.140468,87.742 156.684468,87.169 153.826468,86.489 C152.659468,86.212 151.787468,85.813 150.658468,85.539 C147.921468,84.874 144.666468,85.323 142.738468,83.321 C141.826468,84.136 140.689468,83.741 139.886468,83.638 C136.334468,83.18 132.834468,81.751 129.115468,80.787 C122.316468,79.024 114.841468,77.724 107.254468,76.034 C103.425468,75.181 99.4864677,73.712 96.1664677,73.183 C95.4714677,73.072 94.6324677,73.549 93.9484677,73.5 C91.6114677,73.333 88.5334677,72.077 85.7124677,71.599 C83.0174677,71.142 80.0374677,71.224 77.7914677,70.648 C76.7924677,70.392 75.9464677,69.593 74.9404677,69.382 C72.6294677,68.895 70.0594677,69.691 67.9694677,68.114 C67.7834677,66.977 68.3374677,66.581 68.6034677,65.896 C74.5514677,67.85 80.6824677,67.792 86.3444677,69.064 C88.8444677,69.626 91.2734677,70.628 93.6314677,71.282 C96.3564677,72.038 99.0614677,72.341 101.869468,72.866 C108.295468,74.069 114.769468,75.923 121.194468,77.618 C121.803468,77.779 122.371468,78.066 123.095468,78.252 C123.781468,78.428 124.733468,78.088 125.313468,78.252 C126.141468,78.487 126.729468,79.264 127.531468,79.519 C129.647468,80.193 131.873468,79.82 133.549468,80.153 C135.106468,80.462 136.893468,81.353 138.619468,81.737 C140.441468,82.142 142.384468,82.229 144.004468,82.687 C144.660468,82.873 144.925468,83.487 145.588468,83.638 C150.601468,84.777 157.691468,85.665 161.429468,86.173 C162.830468,86.362 164.082468,86.343 165.547468,86.489 C166.575468,86.593 169.104468,88.259 169.667468,86.173 C168.792468,84.821 166.926468,85.415 165.547468,85.221 C164.280468,85.045 162.943468,84.724 161.747468,84.589 C159.454468,84.328 155.707468,84.854 154.776468,82.054 C156.337468,82.63 158.282468,82.152 160.162468,82.371 C161.870468,82.569 163.747468,83.823 164.597468,82.687 C163.119468,80.93 158.965468,80.376 156.044468,79.836 C154.780468,79.602 152.712468,80.525 152.876468,78.569 C158.139468,78.506 162.797468,80.143 167.765468,80.47 C167.379468,81.773 166.884468,82.968 166.499468,84.271 C170.575468,83.404 175.099468,82.883 179.170468,85.539 C182.466468,87.688 185.007468,90.768 187.408468,93.459 C189.635468,95.955 191.491468,98.411 193.427468,101.062 C194.692468,102.793 195.832468,104.887 197.229468,106.448 C202.078468,111.867 208.305468,114.066 216.555468,114.685 C218.573468,116.008 217.681468,120.222 217.505468,122.923 C220.142468,126.749 230.524468,125.345 234.930468,125.14 C237.248468,122.832 236.837468,118.136 237.148468,115.319 C242.939468,114.881 248.152468,113.862 253.305468,112.785 C254.985468,119.229 259.297468,124.513 264.711468,126.724 C266.485468,127.449 268.980468,129.424 271.108468,129.218 C271.406468,129.309 271.708468,129.391 272.026468,129.45 C273.293468,129.685 274.439468,129.523 275.676468,129.534 C276.843468,130.401 278.048468,131.228 279.076468,132.234 C279.103468,132.324 279.151468,132.411 279.246468,132.482 C283.887468,135.967 290.724468,136.289 296.317468,136.121 C300.771468,135.987 306.756468,135.523 310.416468,132.427 L310.648468,132.427 C316.185468,129.218 320.163468,121.013 322.687468,114.369 C327.490468,101.73 323.353468,83.574 315.084468,77.935 Z" id="Fill-94" fill="#000000"></path>
    </g>
</svg>