<svg xmlns="http://www.w3.org/2000/svg" xmlns:xlink="http://www.w3.org/1999/xlink" width="350" height="445" viewBox="0 0 350 445">
  <defs>
    <polygon id="cookies-high-security-a" points=".695 .881 350.042 .881 350.042 433.94 .695 433.94"/>
  </defs>
  <g fill="none" fill-rule="evenodd">
    <g transform="translate(0 10.316)">
      <mask id="cookies-high-security-b" fill="#fff">
        <use xlink:href="#cookies-high-security-a"/>
      </mask>
      <path fill="#000" d="M182.378 320.81C181.189 320.748 180.235 320.698 179.007 320.634 178.431 329.556 177.875 338.167 177.312 346.886 179.87 348.133 180.343 347.957 180.598 345.331 180.851 342.716 181.045 340.095 181.231 337.474 181.611 332.117 181.97 326.758 182.378 320.81zM196.819 350.142C195.912 349.714 195.246 349.261 194.513 349.08 192.73 348.642 190.926 348.263 189.112 347.986 186.994 347.663 185.325 347.787 183.736 349.977 181.448 353.132 178.569 353.183 175.57 350.618 174.041 349.308 172.947 347.489 171.406 345.592 167.102 346.663 162.967 348.371 160.348 353.002 161.216 353.402 161.657 353.696 162.14 353.815 169.07 355.527 176.109 356.472 183.237 356.008 186.354 355.805 189.464 355.027 192.5 354.221 194.356 353.729 196.231 352.87 196.819 350.142zM246.354 300.632C243.542 299.966 240.892 299.804 238.299 301.096 237.273 301.607 235.749 302.324 234.976 301.927 231.331 300.056 227.47 301.301 223.754 300.808 222.855 300.688 221.623 301.054 220.946 301.652 218.695 303.641 216.515 305.738 214.508 307.973 207.44 315.841 198.294 319.301 188.123 320.697 187.385 320.798 186.68 321.147 185.709 321.462 185.709 324.233 185.709 326.908 185.709 329.59 201.894 329.395 212.83 331.222 227.551 336.695 229.213 337.313 230.512 337.197 231.99 336.327 235.556 334.227 239.189 332.241 243.264 329.944 241.38 334.625 237.009 336.39 233.802 339.515 239.269 342.956 244.402 346.186 249.788 349.576 251.724 333.112 253.631 316.888 255.574 300.353 252.89 300.353 250.706 300.353 248.343 300.353 245.733 304.693 241.413 307.276 237.104 309.765 235.619 310.622 233.642 310.712 231.864 310.914 231.434 310.963 230.897 310.068 230.024 309.242 236.385 307.432 241.388 304.171 246.354 300.632zM142.179 240.85C137.819 252.019 134.306 263.239 135.515 275.396 136.154 281.818 138.107 287.698 142.416 292.681 144.477 295.065 146.649 297.443 148.224 300.142 152.607 307.656 160.309 309.941 167.703 311.555 174.52 313.044 181.813 312.489 188.898 312.531 191.193 312.545 193.639 311.934 195.761 311.017 199.73 309.302 203.48 307.089 207.38 305.203 212.014 302.962 214.912 299.192 217.026 294.678 217.582 293.49 217.754 291.855 218.664 291.149 221.025 289.319 221.312 286.709 221.824 284.209 222.797 279.456 223.861 274.687 224.335 269.871 225.808 254.927 221.135 242.185 210.049 231.906 205.572 227.754 200.082 225.443 194.312 224.147 189.344 223.032 184.098 223.201 179.085 222.231 169.594 220.396 161.766 225.043 153.441 227.798 155.017 235.572 150.622 240.73 142.179 240.85zM101.877 347.822C106.392 345.06 110.185 342.768 113.949 340.43 118.567 337.561 123.473 335.331 128.782 334.172 141.419 331.411 154.207 330.091 167.155 330.56 167.811 330.584 168.478 330.566 169.12 330.679 170.717 330.96 171.282 332.191 171.209 333.562 171.124 335.163 169.918 335.227 168.6 335.042 167.57 334.897 166.494 334.826 165.468 334.957 156.614 336.09 147.796 337.613 138.911 338.366 126.15 339.446 115.817 345.825 105.57 352.583 104.919 353.012 104.33 353.572 103.814 354.161 101.364 356.955 101.192 361.701 103.424 364.254 110.482 372.327 119.502 377.619 129.591 380.379 140.208 383.284 151.182 384.925 162.043 386.88 172.72 388.802 183.544 387.988 194.303 387.977 199.273 387.972 204.237 386.958 209.212 386.495 215.966 385.866 222.392 384.182 228.422 381.009 230.276 380.033 232.215 379.154 234.207 378.519 240.113 376.636 244.054 372.612 246.728 367.231 249.456 361.741 248.834 357.898 244.257 353.825 240.42 350.411 236.372 346.908 230.791 350.82 230.584 350.965 230.305 351.03 230.05 351.078 228.55 351.355 227.003 351.874 225.807 350.571 225.823 350.212 225.784 349.999 225.841 349.969 227.938 348.865 230.043 347.778 232.162 346.682 225.916 340.665 203.449 335.41 185.606 335.833 185.522 337.918 184.647 339.982 185.314 342.17 191.911 341.142 197.78 342.912 203.389 345.68 206.569 347.249 207.367 349.545 206.345 352.907 205.047 357.178 202.34 360.083 197.827 360.659 191.574 361.458 185.29 362.338 179.004 362.468 172.579 362.6 166.116 361.975 159.896 360.042 157.032 359.152 154.359 357.721 153.88 354.472 153.353 350.896 155.098 348.066 158.036 346.109 159.441 345.174 161.052 344.497 162.644 343.902 165.806 342.722 169.021 341.68 172.386 340.522 172.386 333.363 172.386 326.323 172.386 319.167 169.885 318.602 167.589 318.073 165.29 317.564 157.524 315.843 150.664 312.429 145.207 306.548 143.809 305.041 142.29 304.636 140.329 304.657 132.831 304.736 125.33 304.735 117.832 304.644 114.442 304.603 111.056 304.279 107.608 304.08 107.5 304.917 107.423 305.515 107.344 306.134 104.611 304.08 104.611 304.08 101.532 304.498 99.998 318.607 103.099 332.733 101.877 347.822zM105.363 243.792C104.208 247.229 104.802 249.506 107.53 251.552 111.38 254.438 114.924 257.731 119.168 261.334 113.087 259.908 109.582 255.703 104.995 252.711 104.104 257.339 103.604 261.437 107.296 264.98 109.37 266.969 110.913 269.5 112.902 271.591 114.866 273.656 117.09 275.474 119.667 277.825 112.594 275.274 109.191 269.414 104.274 264.329 104.117 267.379 104.108 269.719 103.84 272.029 103.64 273.75 104.139 275.082 105.209 276.362 106.811 278.279 108.275 280.311 109.894 282.212 111.539 284.144 113.302 285.976 115.013 287.851 110.068 286.207 107.13 282.167 103.09 277.953 103.09 280.635 102.597 282.495 103.183 283.908 104.895 288.035 107.083 291.952 110.474 295.03 110.933 295.447 111.327 295.935 111.752 296.39 111.543 296.58 111.335 296.77 111.126 296.961 109.591 295.591 107.937 294.329 106.555 292.819 105.205 291.345 104.133 289.617 102.535 287.453 102.27 289.867 101.934 291.551 101.935 293.235 101.937 295.926 103.684 298.217 105.77 298.294 116.013 298.67 126.257 298.988 136.502 299.288 137.172 299.307 137.852 299 138.716 298.802 137.165 296.384 135.771 294.318 134.489 292.185 132.035 288.102 129.906 283.829 129.471 279.026 128.077 263.628 130.25 248.88 137.881 235.193 141.606 228.512 146.949 223.695 154.097 220.891 155.56 220.318 156.995 219.63 158.354 218.842 163.73 215.725 169.503 214.224 175.705 214.549 179.244 214.735 182.808 214.888 186.3 215.436 195.353 216.854 204.073 219.564 211.497 225.01 223.197 233.592 229.074 245.64 230.557 259.908 231.299 267.054 230.275 274.085 228.553 281.011 227.291 286.089 225.865 291.127 224.405 296.582 227.482 296.232 230.438 295.848 233.405 295.57 235.889 295.338 238.577 295.748 240.82 294.916 242.998 294.107 244.725 292.08 247.067 290.265 246.622 292.046 246.288 293.384 245.9 294.94 249.497 295.068 252.823 295.258 256.249 294.735 256.349 293.17 256.475 292.003 256.491 290.833 256.662 278.482 256.687 266.128 257.014 253.781 257.288 243.403 257.755 233.025 258.422 222.665 259.013 213.476 257.896 204.501 255.011 195.865 252.686 188.91 249.551 182.217 246.607 175.481 245.516 172.984 244.377 170.258 242.499 168.409 238.869 164.837 235.013 161.397 230.261 159.223 228.711 158.514 227.241 157.627 225.761 156.775 218.108 152.369 210.406 148.123 201.179 148.238 200.534 148.246 199.882 148.039 199.24 147.9 187.98 145.467 176.718 147.333 165.457 147.88 157.786 150.56 150.011 152.985 142.5 156.056 139.857 157.137 137.796 159.731 135.592 161.767 134.263 162.995 133.301 164.627 131.949 165.823 125.5 171.53 119.813 177.867 115.613 185.421 113.91 188.485 112.491 191.707 110.938 194.869 116.106 198.791 120.804 202.466 123.438 208.109 119.292 204.459 115.145 200.81 110.394 196.627 109.296 200.65 108.415 203.875 107.574 206.958 110.654 209.112 113.39 210.919 116.007 212.884 118.644 214.864 121.196 216.969 122.828 219.977 117.574 216.856 112.66 213.287 106.802 209.65 106.519 213.867 105.643 217.366 106.317 220.535 106.704 222.355 109.602 223.642 111.371 225.168 112.666 226.284 114.045 227.317 115.241 228.531 117.656 230.982 119.972 233.529 122.328 236.037 122.106 236.27 121.884 236.502 121.661 236.734 116.583 232.558 111.504 228.382 106.294 224.097 104.738 228.263 105.613 230.95 108.904 233.309 112.307 235.748 115.291 238.777 118.427 241.583 119.003 242.099 119.428 242.783 119.923 243.389 119.736 243.558 119.549 243.726 119.361 243.895 114.729 240.343 110.096 236.791 105.349 233.152 104.359 237.266 105.158 240.136 108.412 242.723 112.246 245.772 115.515 249.53 119.029 252.981 118.854 253.195 118.68 253.41 118.505 253.624 115.94 252.703 113.873 250.923 111.777 249.226 109.667 247.517 107.629 245.718 105.363 243.792zM305.239 297.842C290.601 298.557 275.824 299.278 260.851 300.01 260.207 305.597 259.608 310.794 259.008 315.992 257.953 325.129 256.709 334.249 255.904 343.407 255.294 350.345 255.104 357.329 255.003 364.297 254.954 367.699 253.952 370.385 251.419 372.652 249.562 374.314 247.936 376.233 246.187 378.018 243.478 380.78 240.382 382.9 236.664 384.153 234.433 384.904 232.266 385.905 230.17 386.987 224.127 390.109 217.738 391.922 210.963 392.486 203.104 393.139 195.262 394.298 187.395 394.484 171.836 394.85 156.415 393.343 141.251 389.623 137.935 388.809 134.533 388.34 131.224 387.503 119.497 384.536 109.109 378.86 100.718 370.27 95.953 365.393 92.726 359.205 93.282 351.779 94.353 337.488 95.318 323.188 96.3 308.89 96.398 307.47 96.313 306.037 96.313 304.135 82.049 303.855 67.914 303.463 53.189 304.764 44.933 325.283 36.584 346.033 28.235 366.784 29.322 355.949 31.943 345.491 35.795 335.396 39.67 325.238 43.993 315.251 48.368 304.585 46.129 304.585 44.559 304.371 43.069 304.626 39.154 305.296 35.694 303.439 32.015 302.841 30.58 302.607 30.22 300.835 31.511 300.248 33.499 299.344 35.684 298.623 37.844 298.405 41.884 297.998 45.966 298.008 50.161 297.839 50.591 296.898 51.076 296.122 51.315 295.277 57.629 272.955 67.026 251.809 75.761 230.395 79.473 221.294 82.209 211.776 85.073 202.352 88.481 191.138 92.406 180.121 97.406 169.538 103.378 156.898 107.973 143.774 112.07 130.45 114.735 121.785 117.363 113.109 119.918 104.411 122.82 94.533 127.488 85.382 131.384 75.91 135.579 65.712 139.302 55.32 143.232 45.013 143.877 43.322 144.53 41.635 145.255 39.751 147.02 40.927 146.378 42.26 146.033 43.39 144.382 48.787 142.678 54.168 140.94 59.537 135.474 76.421 126.821 92.091 122.052 109.247 119.659 117.855 117.172 126.441 114.512 134.969 110.598 147.521 106.118 159.852 100.541 171.798 95.308 183.006 91.315 194.705 88.112 206.665 83.337 224.492 76.421 241.539 69.046 258.404 63.762 270.485 60.449 283.225 56.253 295.669 56.092 296.144 56.129 296.686 56.014 297.758 69.394 297.758 82.608 297.758 96.193 297.758 96.276 297.272 96.465 296.422 96.56 295.561 98.129 281.406 98.151 267.217 97.498 253.011 97.444 251.839 97.566 250.653 97.666 249.479 98.013 245.418 98.405 241.361 98.746 237.299 100.115 221.019 102.32 204.903 107.979 189.447 109.198 186.118 110.245 182.727 111.432 179.385 112.833 175.442 115.41 172.316 118.428 169.501 123.62 164.658 128.82 159.822 133.966 154.93 137.896 151.193 142.797 149.306 147.743 147.49 151.318 146.177 154.881 144.817 158.512 143.675 160.882 142.93 163.34 142.219 165.798 142.045 174.58 141.423 183.375 140.796 192.173 140.662 196.595 140.594 201.042 141.514 205.46 142.122 207.667 142.426 209.813 143.192 212.022 143.471 218.535 144.295 224.41 146.871 230.148 149.843 231.305 150.443 232.377 151.235 233.409 152.041 237.023 154.865 240.612 157.722 244.189 160.594 245.518 161.661 247.116 162.584 248.028 163.949 253.686 172.42 260.146 180.397 262.197 190.886 264.281 201.542 265.301 212.221 264.799 223.038 264.335 233.024 263.125 243.007 263.243 252.979 263.367 263.528 262.828 273.995 261.991 284.482 261.741 287.611 261.952 290.777 261.952 294.343 275.458 294.697 289.207 292.503 303.293 292.338 303.242 291.474 303.29 290.974 303.173 290.517 300.347 279.442 297.547 268.36 294.64 257.307 293.538 253.116 292.32 248.945 290.912 244.848 286.897 233.169 282.903 221.478 278.624 209.895 274.921 199.872 272.334 189.582 270.009 179.177 267.375 167.389 265.457 155.381 261.22 144.027 257.367 133.701 254.278 123.133 249.901 112.948 243.264 97.5 238.15 81.442 235.119 64.803 234.512 61.469 233.28 58.247 232.299 54.984 230.863 50.208 229.337 45.459 227.979 40.661 227.619 39.386 227.733 37.976 227.63 36.628 227.951 36.558 228.272 36.488 228.593 36.418 229.37 38.378 230.214 40.314 230.912 42.301 233.299 49.108 236.295 55.785 237.856 62.779 241.217 77.847 245.975 92.418 251.647 106.728 252.565 109.046 253.601 111.325 254.71 113.559 257.52 119.225 259.812 125.056 261.553 131.163 263.206 136.962 265.882 142.477 267.415 148.299 270.591 160.361 273.114 172.594 276.277 184.66 278.473 193.032 281.125 201.296 283.86 209.513 290.121 228.329 297.549 246.766 301.854 266.209 303.444 273.388 305.368 280.494 307.179 287.624 307.532 289.013 308.07 290.355 308.674 292.174 310.463 292.174 312.257 292.135 314.05 292.181 320.879 292.355 327.713 292.455 334.533 292.813 336.399 292.911 338.223 293.814 340.066 294.348 340.084 294.664 340.101 294.98 340.119 295.297 338.584 295.845 337.079 296.744 335.509 296.878 330.54 297.302 325.547 297.478 320.561 297.674 317.45 297.797 314.334 297.784 310.719 297.84 311.286 299.601 311.639 300.811 312.062 301.996 316.742 315.109 321.466 328.207 326.102 341.336 327.812 346.178 329.133 351.114 329.262 356.322 329.3 357.855 329.847 359.418 330.374 360.891 334.092 371.28 331.427 379.109 324.446 385.16 316.405 392.129 308.111 398.81 299.829 405.495 294.964 409.421 289.18 411.701 283.456 414.059 271.033 419.178 258.318 423.065 245.107 425.871 232.23 428.606 219.28 430.751 206.323 432.909 200.119 433.942 193.826 434.325 187.46 433.692 176.606 432.612 165.698 432.079 154.84 431.038 148.97 430.476 143.095 429.624 137.329 428.399 126.807 426.164 116.331 423.688 105.899 421.063 95.679 418.491 85.86 414.719 76.242 410.413 72.051 408.537 67.751 406.901 63.556 405.034 58.823 402.927 54.94 399.557 50.906 396.386 45.642 392.248 40.316 388.162 34.774 384.412 30.784 381.713 28.754 377.519 25.794 374.046 24.948 373.054 25.142 371.827 26.542 370.881 28.793 373.402 30.824 376.183 33.357 378.387 36.608 381.215 40.24 383.608 43.747 386.135 47.904 389.13 52.269 391.862 56.239 395.084 60.906 398.871 66.028 401.587 71.664 403.591 76.113 405.172 80.382 407.256 84.753 409.062 93.511 412.681 102.399 415.889 111.801 417.45 113.091 417.664 114.337 418.135 115.615 418.433 119.188 419.267 122.772 420.05 126.341 420.896 129.28 421.593 132.227 422.271 135.13 423.097 144.953 425.892 155.094 426.282 165.172 427.127 173.421 427.819 181.67 428.604 189.936 428.983 194.507 429.193 199.166 429.021 203.693 428.377 213.842 426.934 223.964 425.249 234.039 423.354 241.782 421.898 249.507 420.234 257.115 418.194 269.334 414.916 281.003 410.102 292.333 404.486 293.853 403.733 295.295 402.751 296.619 401.683 304.696 395.162 312.758 388.62 320.768 382.016 326.997 376.88 328.433 370.423 325.792 362.903 325.36 361.673 325.096 360.373 324.858 359.087 324.197 355.518 325.191 351.633 322.796 348.397 324.003 344.545 321.717 341.387 320.533 338.105 315.898 325.254 311.029 312.487 306.234 299.694 306.055 299.217 305.752 298.787 305.239 297.842L305.239 297.842zM38.647 145.089C37.018 145.123 35.505 146.738 35.503 148.447 35.501 150.319 37.157 151.974 38.975 151.917 40.67 151.864 42.155 150.307 42.144 148.596 42.131 146.781 40.408 145.052 38.647 145.089zM83.182 121.279C83.421 116.921 82.068 114.338 79.55 113.165 76.802 111.885 74.195 112.257 71.835 114.146 68.299 116.976 67.295 123.165 69.718 127.027 72.418 131.33 78.049 131.597 80.753 127.304 82.105 125.157 82.696 122.53 83.182 121.279zM21.408 83.767C21.935 84.241 22.102 84.46 22.322 84.58 30.053 88.765 37.796 92.927 45.518 97.13 46.901 97.882 48.184 98.817 49.537 99.628 54.04 102.325 58.546 105.019 63.068 107.684 64.879 108.751 66.698 108.778 68.719 107.991 72.141 106.658 75.677 105.617 79.142 104.389 79.807 104.153 80.365 103.617 81.562 102.835 78.867 101.182 76.698 99.772 74.453 98.497 71.942 97.07 69.303 95.862 66.821 94.388 58.015 89.157 49.27 83.823 40.446 78.622 39.543 78.09 38.123 77.756 37.189 78.068 31.973 79.811 26.833 81.78 21.408 83.767zM14.407 112.776C14.863 102.437 15.325 92.742 15.684 83.043 15.745 81.383 16.234 80.33 17.844 79.76 24.028 77.573 30.219 75.399 36.353 73.078 38.3 72.342 39.909 72.669 41.575 73.658 47.213 77.006 52.841 80.373 58.516 83.656 64.763 87.271 71.142 90.665 77.304 94.416 81.326 96.866 85.135 99.689 88.88 102.554 89.788 103.249 90.432 104.733 90.554 105.92 90.835 108.653 90.881 111.436 90.731 114.182 90.503 118.375 89.96 122.551 89.679 126.742 89.452 130.128 88.205 132.503 84.986 134.233 79.481 137.191 73.558 138.862 67.678 140.692 66.6 141.028 65.157 140.569 63.996 140.157 62.779 139.724 61.6 139.032 60.573 138.236 56.088 134.759 51.28 131.873 45.631 129.778 45.4 130.566 45.062 131.353 44.951 132.17 44.634 134.509 44.422 136.862 44.145 139.207 43.914 141.166 43.751 143.007 44.905 144.889 46.23 147.052 45.764 149.476 44.85 151.735 43.044 156.2 39.164 157.329 35.409 154.274 33.943 153.081 32.577 152.668 30.779 152.779 28.557 152.916 26.319 152.795 24.089 152.791 21.994 152.788 19.9 152.791 17.51 152.791 17.076 154.16 16.668 155.64 16.142 157.076 14.023 162.863 7.302 164.273 3.305 159.562 1.953 157.969.938 155.644.785 153.579.526 150.074.863 146.481 1.332 142.977 2.009 137.906 5.418 133.703 12.925 134.585 15.328 134.867 16.579 136.498 17.273 138.619 17.675 139.847 17.9 141.133 18.295 142.764 22.544 143.303 26.805 144.017 31.096 144.337 34.893 144.621 35.682 143.645 35.716 139.818 35.757 135.352 35.71 130.88 35.937 126.422 36.056 124.079 35.2 122.805 33.091 121.909 29.473 120.371 25.922 118.667 22.389 116.939 19.597 115.573 16.873 114.068 14.407 112.776L14.407 112.776zM308.594 76.8C308.582 78.511 310.067 80.068 311.763 80.121 313.581 80.178 315.236 78.523 315.234 76.651 315.232 74.942 313.72 73.326 312.09 73.292 310.329 73.255 308.606 74.984 308.594 76.8zM269.984 55.507C272.688 59.8 278.319 59.533 281.019 55.231 283.442 51.369 282.439 45.18 278.903 42.35 276.542 40.461 273.936 40.089 271.188 41.368 268.669 42.541 267.316 45.124 267.556 49.482 268.041 50.733 268.632 53.36 269.984 55.507zM313.548 6.272C312.614 5.96 311.194 6.293 310.291 6.826 301.467 12.027 292.722 17.361 283.916 22.592 281.434 24.066 278.795 25.273 276.284 26.7 274.039 27.976 271.871 29.386 269.175 31.038 270.372 31.821 270.931 32.357 271.596 32.592 275.061 33.821 278.596 34.861 282.019 36.195 284.039 36.982 285.858 36.955 287.669 35.887 292.192 33.222 296.697 30.529 301.2 27.831 302.553 27.021 303.836 26.086 305.219 25.333 312.941 21.131 320.684 16.968 328.415 12.783 328.635 12.664 328.802 12.445 329.329 11.97 323.904 9.984 318.764 8.014 313.548 6.272zM328.349 45.142C324.815 46.87 321.264 48.574 317.646 50.112 315.538 51.008 314.681 52.283 314.8 54.626 315.027 59.083 314.98 63.555 315.021 68.022 315.055 71.849 315.845 72.824 319.642 72.541 323.932 72.22 328.193 71.507 332.442 70.968 332.837 69.336 333.063 68.051 333.464 66.823 334.158 64.702 335.41 63.07 337.812 62.788 345.319 61.907 348.728 66.109 349.406 71.18 349.874 74.685 350.212 78.277 349.952 81.782 349.8 83.848 348.785 86.172 347.433 87.766 343.436 92.476 336.714 91.066 334.596 85.28 334.07 83.843 333.661 82.363 333.227 80.994 330.838 80.994 328.743 80.991 326.649 80.995 324.418 80.999 322.18 81.12 319.958 80.983 318.16 80.872 316.794 81.285 315.328 82.478 311.573 85.533 307.693 84.403 305.887 79.939 304.973 77.679 304.507 75.255 305.832 73.093 306.986 71.21 306.823 69.37 306.592 67.411 306.315 65.066 306.103 62.713 305.786 60.374 305.676 59.556 305.337 58.77 305.106 57.982 299.457 60.076 294.649 62.963 290.164 66.439 289.137 67.236 287.959 67.928 286.741 68.36 285.58 68.772 284.137 69.231 283.059 68.896 277.18 67.066 271.256 65.395 265.751 62.436 262.532 60.706 261.285 58.332 261.058 54.946 260.777 50.754 260.235 46.579 260.006 42.386 259.856 39.639 259.902 36.856 260.183 34.123 260.305 32.936 260.95 31.453 261.857 30.758 265.602 27.893 269.411 25.069 273.434 22.62 279.596 18.868 285.974 15.474 292.221 11.86 297.897 8.576 303.524 5.209 309.162 1.862 310.828.872 312.437.545 314.384 1.282 320.519 3.602 326.709 5.777 332.893 7.964 334.504 8.534 334.992 9.587 335.053 11.246 335.412 20.945 335.874 30.641 336.33 40.979 333.864 42.271 331.141 43.777 328.349 45.142L328.349 45.142z" mask="url(#cookies-high-security-b)"/>
    </g>
    <path fill="#000" d="M218.036 35.1584537C211.455 32.1134537 205.159 30.0434537 198.374 29.7094537 195.884 29.5864537 193.392 29.2024537 190.909 29.2644537 185.277 29.4024537 179.61 29.4234537 174.032 30.1034537 169.513 30.6544537 165.073 31.9864537 160.658 33.1894537 158.344 33.8194537 156.081 34.8034537 154.059 37.4204537 156.26 37.9234537 157.842 38.4644537 159.462 38.6254537 168.985 39.5724537 178.505 40.6334537 188.052 41.2424537 193.653 41.5994537 199.335 41.5334537 204.921 41.0164537 209.603 40.5834537 214.065 38.9264537 218.036 35.1584537zM147.043 25.5414537C147.043 21.2014537 147.137 16.8584537 147.011 12.5224537 146.925 9.58345373 148.87 7.71345373 150.248 5.52945373 150.424 5.24945373 150.897 5.11445373 151.261 5.00245373 165.636.581453735 180.356-.945546265 195.279.566453735 200.575 1.10245373 205.75 2.89745373 210.959 4.20345373 213.248 4.77745373 215.472 5.60845373 217.746 6.25145373 225.706 8.49945373 226.927 9.69545373 227.226 17.8784537 227.422 23.2484537 226.904 28.6454537 226.641 34.0274537 226.604 34.7804537 226.417 35.7444537 225.924 36.2194537 223.511 38.5424537 221.248 41.1974537 218.423 42.8794537 211.233 47.1584537 203.13 48.2824537 194.898 48.4834537 184.497 48.7384537 174.127 48.2904537 163.867 46.4634537 160.907 45.9364537 158.051 44.8484537 155.117 44.1464537 153.51 43.7614537 151.839 43.4664537 150.196 43.4574537 148.348 43.4474537 147.509 42.5654537 147.341 40.9164537 147.168 39.2184537 147.09 37.5064537 147.071 35.7994537 147.031 32.3804537 147.059 28.9604537 147.059 25.5414537 147.054 25.5414537 147.049 25.5414537 147.043 25.5414537L147.043 25.5414537zM233.382 299.756454C238.064 297.072454 242.424 294.572454 247.392 291.723454 247.004 292.970454 246.955 293.718454 246.582 294.230454 244.297 297.371454 241.206 299.496454 237.651 300.963454 236.123 301.593454 234.653 301.689454 233.382 299.756454M247.593 281.657454C246.013 285.966454 242.982 288.832454 238.786 290.353454 237.098 290.966454 235.206 290.979454 233.625 288.700454 239.17 287.678454 242.984 284.052454 247.593 281.657454M247.41 253.842454C246.971 254.965454 246.768 256.275454 246.05 257.175454 244.065 259.665454 241.597 261.596454 238.279 261.910454 237.657 261.969454 236.678 261.474454 236.404 260.952454 236.202 260.567454 236.706 259.445454 237.2 259.131454 238.837 258.088454 240.643 257.315454 242.326 256.338454 243.862 255.446454 245.321 254.422454 246.814 253.456454 247.013 253.585454 247.211 253.713454 247.41 253.842454M247.69 271.963454C247.471 274.351454 246.095 275.691454 244.391 276.636454 242.692 277.579454 240.872 278.339454 239.034 278.975454 238.478 279.167454 237.685 278.676454 237.001 278.499454 237.239 277.831454 237.281 276.894454 237.754 276.551454 238.791 275.799454 240.032 275.314454 241.217 274.780454 243.224 273.877454 245.252 273.021454 247.69 271.963454M116.616 198.710454C122.624 201.593454 124.753 206.770454 127.857 211.463454 125.453 210.294454 117.849 201.877454 116.616 198.710454M122.312 193.117454C125.371 194.227454 127.379 196.396454 131.634 202.916454 128.361 202.589454 123.429 197.570454 122.312 193.117454M237.299 268.499454C240.402 265.764454 244.653 265.847454 248.234 263.657454 246.378 267.651454 241.825 269.762454 237.299 268.499454M246.387 242.215454C244.64 246.153454 241.478 247.203454 238.479 248.406454 238.057 248.575454 237.083 248.233454 236.889 247.857454 236.692 247.478454 236.976 246.554454 237.356 246.238454 238.035 245.672454 238.929 245.346454 239.761 244.987454 241.755 244.128454 243.764 243.309454 246.387 242.215454M139.044 193.581454C136.385 191.043454 133.727 188.505454 131.044 185.943454 132.125 184.230454 133.246 184.918454 134.013 185.780454 136.043 188.064454 137.921 190.483454 139.859 192.848454 139.587 193.092454 139.316 193.337454 139.044 193.581454M135.532 198.661454C131.755 197.056454 129.299 194.119454 126.833 190.778454 129.756 190.384454 130.175 190.771454 135.532 198.661454M234.884 234.559454C237.017 232.258454 239.15 229.957454 241.324 227.612454 241.618 231.819454 239.272 234.779454 234.884 234.559454M243.106 219.867454C242.908 222.802454 241.27 223.977454 239.133 224.456454 238.461 224.607454 237.607 223.941454 236.836 223.649454 237.257 222.986454 237.526 222.025454 238.127 221.721454 239.589 220.982454 241.205 220.548454 243.106 219.867454M151.647 182.066454C148.66 181.056454 145.805 179.992454 143.62 177.445454 146.487 176.724454 148.156 177.674454 151.647 182.066454M145.405 187.145454C141.016 185.649454 138.651 184.024454 137.19 181.724454 139.633 181.380454 141.329 182.457454 145.405 187.145454M155.275 176.827454C153.737 175.746454 151.777 175.017454 152.408 172.087454 153.603 173.446454 154.798 174.806454 155.993 176.166454 155.754 176.386454 155.514 176.607454 155.275 176.827454M169.639 164.960454C168.797 166.097454 167.346 166.288454 166.096 165.358454 165.367 164.815454 165.178 163.546454 164.454 161.967454 166.684 163.255454 168.154 164.103454 169.639 164.960454M239.616 203.619454C240.526 208.373454 239.973 209.312454 236.908 208.602454 237.724 207.100454 238.53 205.617454 239.616 203.619454M159.133 171.928454C158.729 171.307454 158.325 170.686454 157.92 170.066454 158.094 169.943454 158.267 169.820454 158.441 169.698454 158.919 170.286454 159.396 170.874454 159.874 171.462454 159.627 171.617454 159.38 171.773454 159.133 171.928454M239.935 370.112454C239.616 373.669454 237.85 375.236454 235.879 376.569454 229.964 380.568454 223.804 383.851454 216.521 384.865454 207.297 386.149454 198.187 388.349454 188.942 389.363454 173.432 391.063454 157.981 390.368454 142.853 386.051454 141.67 385.714454 140.551 385.151454 139.391 384.689454 140.017 382.561454 141.227 383.016454 142.357 383.200454 146.755 383.914454 151.14 384.734454 155.557 385.301454 167.488 386.832454 179.451 386.544454 191.314 384.898454 200.793 383.583454 210.192 381.629454 219.572 379.697454 222.217 379.152454 224.73 377.809454 227.2 376.616454 231.306 374.634454 235.328 372.477454 239.935 370.112454"/>
    <path fill="#000" d="M236.763 364.774454C230.184 370.295454 226.47 372.316454 224.039 371.818454 225.448 368.804454 230.301 366.039454 236.763 364.774454M157.362 271.105454C157.377 266.654454 160.31 262.339454 164.186 261.065454 167.498 259.976454 172.823 261.570454 174.847 264.256454 176.779 266.819454 176.707 270.618454 174.666 273.844454 172.459 277.332454 168.774 278.971454 164.952 278.069454 163.558 277.740454 162.178 277.295454 160.851 276.756454 158.349 275.738454 157.485 273.632454 157.362 271.105454M192.13 289.254454C190.207 291.355454 188.786 292.907454 187.144 294.701454 191.189 294.395454 191.589 293.975454 192.13 289.254454zM187.553 299.963454C186.554 299.777454 185.785 299.642454 185.018 299.490454 177.453 297.992454 176.64 291.926454 179.671 286.673454 181.993 282.648454 188.413 280.923454 192.412 283.075454 195.413 284.691454 197.433 287.008454 197.104 290.572454 196.762 294.289454 195.114 297.385454 191.539 298.990454 190.256 299.566454 188.767 299.680454 187.553 299.963454L187.553 299.963454zM201.203 267.954454C201.099 270.757454 198.779 274.110454 196.056 274.689454 193.934 275.139454 191.645 275.249454 189.491 274.993454 186.748 274.668454 185.388 272.710454 185.725 269.980454 185.898 268.582454 186.313 267.134454 186.964 265.889454 188.986 262.025454 194.939 260.600454 198.5 263.004454 200.177 264.136454 201.271 266.138454 201.203 267.954454M182.977 309.042454C182.082 310.748454 181.526 311.807454 180.776 313.235454 183.813 311.787454 183.813 311.787454 182.977 309.042454zM180.399 303.873454C181.957 304.492454 184.561 305.375454 187.005 306.582454 187.801 306.976454 188.457 308.143454 188.7 309.080454 189.649 312.751454 186.37 316.777454 181.836 317.703454 177.861 318.516454 174.27 316.199454 173.544 312.352454 172.82 308.511454 175.929 303.903454 180.399 303.873454L180.399 303.873454zM197.833 255.530454C193.672 255.197454 189.937 251.820454 190.133 248.568454 190.322 245.436454 193.635 242.942454 197.18 243.264454 201.393 243.647454 204.048 246.380454 203.745 250.022454 203.466 253.365454 200.88 255.774454 197.833 255.530454M212.079 279.228454C212.211 279.229454 212.342 279.233454 212.473 279.229454 214.662 279.155454 216.961 279.257454 217.57 281.827454 218.115 284.126454 216.656 286.014454 214.818 287.058454 212.695 288.263454 210.315 289.294454 207.929 289.688454 204.468 290.259454 202.758 287.816454 203.924 284.542454 205.146 281.109454 208.334 279.031454 212.079 279.228454M155.604 285.978454C155.45 286.510454 155.22 287.675454 154.776 288.754454 153.778 291.182454 152.43 292.157454 150.433 292.082454 147.942 291.989454 145.586 290.111454 144.949 287.712454 144.449 285.826454 145.323 282.258454 146.835 281.677454 148.714 280.956454 150.81 280.490454 152.813 280.489454 154.822 280.488454 155.782 282.479454 155.604 285.978454M169.053 291.189454C171.359 291.369454 172.945 292.419454 173.798 294.350454 174.819 296.664454 173.762 298.686454 172.482 300.523454 171.412 302.059454 169.816 302.536454 167.988 302.044454 166.038 301.519454 164.151 300.652454 163.449 298.697454 162.963 297.344454 163.016 295.703454 163.186 294.231454 163.402 292.352454 164.775 291.793454 166.589 291.832454 167.454 291.851454 168.328 291.391454 169.053 291.189454M177.633 245.402454C180.82 245.379454 182.787 246.977454 182.745 249.343454 182.686 252.730454 179.41 256.152454 176.506 255.499454 174.795 255.113454 173.045 254.211454 171.69 253.087454 169.307 251.108454 170.293 247.107454 173.289 246.198454 174.77 245.749454 176.35 245.628454 177.633 245.402454M151.076 304.093454C151.464 303.352454 151.825 301.526454 152.9 300.873454 154.607 299.835454 156.448 300.864454 157.753 302.284454 158.435 303.026454 159.028 303.967454 159.329 304.922454 160.156 307.546454 159.115 309.803454 157.012 310.327454 154.386 310.981454 152.081 309.538454 151.444 306.809454 151.297 306.180454 151.265 305.523454 151.076 304.093454M202.879 304.704454C202.323 305.012454 201.432 305.897454 200.518 305.921454 199.202 305.956454 198.426 304.817454 198.51 303.483454 198.581 302.370454 199.135 301.476454 200.499 301.518454 201.984 301.563454 203.055 302.641454 202.879 304.704454M156.42 258.281454C154.911 259.341454 154.119 260.268454 153.17 260.474454 151.865 260.759454 150.929 259.884454 150.811 258.477454 150.7 257.158454 151.999 256.012454 153.455 256.353454 154.294 256.549454 154.998 257.324454 156.42 258.281454M209.833 261.958454C210.975 263.607454 211.871 264.401454 212.099 265.354454 212.41 266.656454 211.546 267.784454 210.177 267.558454 209.418 267.432454 208.341 266.364454 208.274 265.640454 208.192 264.746454 209.009 263.768454 209.833 261.958454M246.325 320.207454C243.238 324.881454 239.41 328.758454 234.064 330.991454 233.702 331.142454 233.327 331.310454 232.945 331.352454 231.552 331.506454 229.706 332.174454 229.156 330.413454 228.541 328.445454 230.698 328.421454 231.854 327.747454 235.351 325.705454 238.836 323.643454 242.325 321.586454 243.498 320.894454 244.668 320.195454 245.839 319.499454 246.001 319.735454 246.163 319.971454 246.325 320.207454M242.284 330.432454C242.57 335.039454 239.177 336.771454 235.881 338.295454 232.593 339.814454 229.118 340.257454 225.791 338.814454 225.742 338.376454 225.693 337.938454 225.644 337.500454 228.568 336.738454 231.62 336.284454 234.377 335.127454 237.066 333.999454 239.453 332.152454 242.284 330.432454"/>
  </g>
</svg>
