<svg xmlns="http://www.w3.org/2000/svg" width="168" height="286" viewBox="0 0 168 286">
  <g fill="none" fill-rule="evenodd">
    <path fill="#000" d="M28.089,13.918 C29.972,14.314 31.624,14.819 33.31,14.987 C37.356,15.388 41.561,15.063 45.446,16.045 C57.028,18.971 68.76,17.739 80.425,17.795 C89.82,17.84 99.217,17.046 108.616,16.707 C118.726,16.341 128.844,16.165 138.948,15.697 C141.586,15.575 144.432,15.489 147.544,13.305 C136.535,10.653 126.209,9.142 115.826,8.571 C103.254,7.88 90.641,7.827 78.045,7.74 C71.49,7.694 64.928,8.11 58.375,8.424 C52.887,8.688 47.409,9.136 41.923,9.443 C39.618,9.573 37.298,9.451 34.997,9.617 C32.249,9.816 29.788,10.676 28.089,13.918 Z M23.659,18.427 C21.871,31.544 23.194,33.798 34.56,36.052 C48.476,38.813 62.475,40.836 76.778,40.125 C87.948,39.569 99.12,39.305 110.181,37.437 C115.257,36.579 120.344,35.576 125.464,35.249 C133.174,34.758 140.616,33.433 148.339,30.02 C148.454,27.418 148.581,24.533 148.731,21.11 C118.295,25.45 88.38,23.235 58.339,25.601 C57.724,27.336 56.924,29.592 56.136,31.816 C51.943,30.414 54.966,25.11 50.882,23.679 C50.215,26.898 49.593,29.898 48.885,33.313 C44.83,30.675 45.505,26.904 44.888,23.328 C43.939,26.924 43.113,30.059 42.13,33.787 C38.615,29.644 39.977,25.358 39.305,20.818 C35.06,23.107 38.862,28.036 35.331,29.937 C31.988,27.844 33.554,23.513 31.139,19.773 C30.012,23.724 29.152,26.738 28.244,29.92 C23.872,27.077 28.056,21.728 23.659,18.427 Z M26.665,237.606 C20.83,238.534 15.723,240.3 11.91,244.773 C9.12,248.046 8.797,249.44 11.641,252.625 C16.254,257.793 21.152,262.712 26.054,267.612 C27.147,268.704 28.66,269.614 30.143,270.037 C37.294,272.079 44.402,274.831 51.712,275.639 C64.044,277.001 76.511,277.352 88.932,277.64 C103.052,277.966 116.908,275.568 130.509,271.97 C140.319,269.374 148.019,263.658 153.54,254.426 C151.667,253.126 150.005,251.973 148.379,250.844 C142.353,258.208 141.48,258.755 137.349,257.676 C139.294,254.176 144.154,252.622 143.894,247.51 C133.955,238.01 121.475,234.069 108.061,232.319 C107.752,232.54 107.412,232.696 107.191,232.954 C106.15,234.169 105.042,235.343 104.137,236.656 C97.92,245.669 89.433,252.02 79.967,257.17 C77.338,258.601 74.542,259.98 71.653,260.634 C60.803,263.09 50.475,261.163 40.625,256.215 C36.691,254.24 33.619,251.357 31.576,247.458 C29.932,244.321 28.41,241.12 26.665,237.606 Z M33.674,224.638 C37.552,227.387 37.905,228.391 36.229,231.795 C35.685,232.9 34.69,233.791 34.198,234.91 C33.736,235.96 33.208,237.315 33.496,238.308 C35.596,245.55 38.95,251.913 46.612,254.722 C52.792,256.987 59.294,257.683 65.511,255.794 C73.668,253.316 81.553,249.907 88.466,244.713 C90.733,243.009 92.925,241.163 94.933,239.162 C107.792,226.351 114.438,210.559 117.13,192.837 C118.686,182.592 117.135,173.833 108.962,166.187 C103.184,160.78 97.346,159.294 89.886,160.591 C89.026,164.081 87.387,167.529 83.97,168.238 C80.926,168.869 77.519,167.748 73.249,167.29 C72.003,168.163 69.86,169.663 67.872,171.055 C69.309,177.283 68.471,182.583 63.994,186.672 C60.397,189.958 56.216,189.539 52.061,187.068 C48.43,192.106 44.241,196.294 45.331,203.287 C46.174,208.694 43.254,212.95 38.304,215.351 C36.661,216.148 35.798,217.114 35.377,218.77 C34.895,220.66 34.295,222.519 33.674,224.638 Z M26.61,230.202 C27.932,225.035 28.841,220.103 30.487,215.431 C32.135,210.756 34.247,206.192 36.629,201.838 C45.387,185.824 57.057,172.4 72.14,161.914 C79.281,156.95 87.021,154.289 95.562,154.077 C100.184,153.962 104.978,154.471 108.767,157.508 C117.836,164.776 124.558,173.26 123.684,185.944 C122.991,196.009 120.531,205.57 116.91,214.893 C115.58,218.319 114.04,221.663 112.225,225.91 C124.914,226.348 135.387,231.347 145.776,238.16 C146.17,232.941 146.442,228.387 146.877,223.849 C147.298,219.456 145.681,214.714 148.762,210.53 C151.432,211.71 150.999,213.776 150.93,215.654 C150.663,222.942 150.615,230.251 149.984,237.509 C149.58,242.163 151.714,244.989 155.63,248.267 C156.293,241.812 157.172,236.182 157.4,230.526 C158.26,209.179 158.938,187.825 159.629,166.472 C160.147,150.457 160.645,134.44 161.028,118.421 C161.245,109.353 161.295,100.279 161.266,91.208 C161.243,84.158 158.204,78.757 152.537,74.373 C147.073,70.145 143.026,64.724 143.116,57.238 C143.166,52.976 143.243,48.713 143.199,44.452 C143.19,43.585 142.696,42.723 142.426,41.858 C142.043,41.871 141.66,41.884 141.278,41.897 C139.578,49.215 139.889,56.852 138.575,64.291 C134.192,57.74 135.446,50.332 135.602,43.112 C135.111,43.124 134.62,43.136 134.129,43.148 C133.61,48.436 133.092,53.724 132.523,59.52 C130.299,57.801 129.75,55.829 129.661,53.69 C129.544,50.845 129.563,47.994 129.466,45.148 C129.453,44.792 129.086,44.449 128.739,43.85 C127.918,45.482 127.274,46.761 126.388,48.52 C125.528,46.492 124.958,45.148 124.345,43.704 C92.999,49.026 62.069,48.254 30.986,41.631 C30.788,43.541 30.513,44.915 30.523,46.288 C30.605,57.344 26.106,66.534 17.96,73.514 C12.81,77.927 9.945,83.142 9.236,89.429 C8.043,100.02 6.865,110.68 6.802,121.318 C6.578,159.25 6.823,197.184 6.907,235.118 C6.911,236.82 7.086,238.522 7.205,240.668 C10.446,238.201 13.003,235.703 16.033,234.099 C19.287,232.376 22.987,231.493 26.61,230.202 Z M26.021,39.917 C24.236,38.833 22.758,38.136 21.524,37.138 C19.416,35.433 17.495,33.405 17.612,30.477 C17.859,24.273 18.29,18.076 18.701,11.88 C19.012,7.198 21.942,5.012 26.243,4.263 C27.644,4.019 29.065,3.842 30.485,3.764 C46.45,2.885 62.303,0.384 78.361,0.767 C90.805,1.064 103.294,0.405 115.699,1.188 C126.486,1.869 137.209,3.81 147.904,5.541 C151.528,6.127 154.002,8.953 154.104,12.686 C154.318,20.504 154.225,28.341 153.94,36.158 C153.831,39.145 152.859,39.712 147.963,42.06 C147.963,45.553 148.26,49.292 147.901,52.966 C147.174,60.395 150.586,65.81 156.197,69.804 C163.846,75.248 167.386,82.52 167.213,91.677 C166.917,107.337 166.466,122.993 166.044,138.651 C165.664,152.706 165.203,166.758 164.835,180.814 C164.402,197.364 164.273,213.927 163.521,230.461 C163.191,237.708 161.874,244.94 160.58,252.102 C159.534,257.892 156.453,262.659 151.559,266.117 C151.123,266.425 150.606,266.681 150.292,267.088 C142.837,276.75 131.912,279.598 120.797,281.475 C110.299,283.248 99.802,285.573 89.025,285.047 C76.593,284.441 64.117,284.264 51.748,283.02 C43.297,282.171 34.911,280.117 27.156,276.258 C26.678,276.02 26.128,275.881 25.718,275.56 C12.226,264.993 -0.094,254.276 0.254,234.49 C0.92,196.571 0.226,158.631 0.559,120.704 C0.658,109.372 0.803,97.919 3.664,86.768 C5.424,79.905 8.145,73.939 14.096,69.333 C17.921,66.372 20.545,61.828 23.566,57.886 C24.284,56.95 24.686,55.607 24.809,54.408 C25.298,49.661 25.62,44.896 26.021,39.917 L26.021,39.917 Z"/>
    <path fill="#000" d="M15.776 114.34C13.513 112.709 13.437 110.324 13.51 108.08 13.832 98.179 15.219 88.799 22.848 81.202 28.94 75.136 33.33 67.79 34.53 58.957 34.623 58.277 34.944 57.625 35.201 56.976 35.244 56.868 35.503 56.846 36.044 56.636 37.866 57.816 37.436 59.716 37.295 61.571 36.717 69.168 33.44 75.827 28.418 81.098 20.997 88.887 18.495 98.014 18.328 108.273 18.292 110.501 18.28 112.909 15.776 114.34M150.514 181.665C151.427 187.121 150.352 191.908 149.291 197.64 147.113 192.78 147.691 186.862 150.514 181.665M17.041 139.294C15.072 135.223 14.824 131.873 16.119 126.839 18.953 128.467 19.023 129.419 17.041 139.294M146.078 77.49C141.028 76.308 140.347 75.443 140.937 70.713 142.697 73.033 144.414 75.296 146.078 77.49M60.488 219.012C60.151 222.407 58.112 225.755 54.254 227.898 52.256 229.007 50.16 229.2 48.268 227.667 46.577 226.297 46.237 224.4 46.653 222.351 47.441 218.465 49.658 215.481 52.999 213.537 56.937 211.247 60.623 213.558 60.488 219.012M64.743 251.117C69.861 247.667 74.859 244.02 80.135 240.83 84.158 238.398 87.594 235.496 90.557 231.865 94.072 227.558 97.836 223.456 101.492 219.265 101.784 219.482 102.076 219.699 102.367 219.917 101.889 220.993 101.531 222.144 100.913 223.133 95.419 231.935 89.367 240.164 79.645 244.894 76.146 246.596 72.915 248.845 69.51 250.751 68.198 251.485 66.742 251.961 65.351 252.555 65.148 252.075 64.946 251.596 64.743 251.117M63.668 232.425C66.498 232.472 68.197 234.75 67.197 237.524 65.828 241.317 63.225 244.309 59.724 246.165 58.438 246.847 56.028 246.738 54.858 245.932 53.72 245.149 52.906 242.968 53.015 241.479 53.303 237.557 59.743 232.359 63.668 232.425M71.772 194.374C74.951 194.427 76.664 196.369 76.303 199.509 75.93 202.744 72.084 207.3 69.064 208.084 66.776 208.678 64.592 207.662 63.797 205.634 62.276 201.758 67.556 194.304 71.772 194.374M74.387 217.843C74.16 221.72 70.114 225.598 66.266 225.626 62.402 225.654 60.143 222.524 62.125 219.249 63.514 216.953 65.626 214.68 67.969 213.476 71.363 211.733 74.598 214.248 74.387 217.843M78.814 218.185C79.688 214.452 81.352 210.895 85.014 208.944 86.138 208.345 88.304 208.598 89.389 209.341 90.44 210.062 91.414 212.038 91.201 213.248 90.532 217.052 88.385 220.17 84.829 221.901 81.72 223.414 78.736 221.542 78.814 218.185M78.72 182.692C78.74 179.673 81.693 175.198 84.634 174.521 86.172 174.167 88.205 174.419 89.557 175.195 91.233 176.159 91.129 178.127 90.5 179.977 89.47 183.009 87.564 185.264 84.656 186.495 81.561 187.806 78.698 185.879 78.72 182.692M39.606 234.971C39.928 232.088 42.275 230.633 45.92 231.059 48.483 231.358 49.954 233.241 49.664 235.851 49.332 238.849 46.732 240.969 43.791 240.64 40.992 240.327 39.268 237.992 39.606 234.971M101.157 193.099C104.689 192.993 106.768 194.917 105.834 196.996 104.737 199.439 102.841 201.618 100.911 203.527 100.397 204.036 97.415 203.197 97.397 202.874 97.276 200.706 97.223 198.343 97.999 196.379 98.605 194.846 100.441 193.8 101.157 193.099M99.877 187.059C99.725 189.936 96.239 192.726 93.165 192.431 90.944 192.218 89.592 190.649 89.839 188.57 90.152 185.938 93.381 183.394 96.336 183.453 98.63 183.499 99.992 184.886 99.877 187.059M104.865 170.051C104.997 172.41 102.414 175.086 99.783 175.316 97.519 175.514 95.804 174.247 95.592 172.222 95.323 169.643 98.119 166.675 100.87 166.618 103.005 166.574 104.755 168.078 104.865 170.051M52.705 200.375C52.707 197.827 55.007 195.34 57.311 195.228 59.407 195.126 60.688 196.181 60.936 198.211 61.226 200.573 58.381 203.149 55.724 203.054 53.891 202.988 52.756 202.132 52.705 200.375M77.613 170.687C78.067 171.34 79.317 172.387 79.529 173.613 79.886 175.672 77.381 177.626 74.936 177.569 73.085 177.526 71.95 176.662 72.01 174.69 72.077 172.491 74.349 170.548 77.613 170.687M84.889 197.688C85.357 198.269 86.498 199.125 86.835 200.227 87.378 202.002 85.529 204.015 83.543 204.119 81.956 204.202 80.807 203.551 80.674 201.81 80.54 200.047 82.405 197.843 84.889 197.688M114.815 248.916C112.081 250.91 110.028 252.407 107.179 254.484 111.786 256.785 114.188 253.712 117.665 252.488 116.562 251.105 115.775 250.119 114.815 248.916zM112.641 243.66C114.224 244.19 116.759 244.86 119.142 245.887 121.722 246.998 122.543 249.283 122.529 251.999 122.514 254.865 121.064 256.65 118.549 257.706 117.242 258.254 115.896 258.708 114.569 259.209 108.523 261.492 106.619 260.731 103.746 254.88 102.733 252.817 103.554 250.566 105.791 248.931 107.833 247.44 109.804 245.85 112.641 243.66L112.641 243.66zM129.745 250.526C130.891 251.954 131.98 252.725 132.162 253.67 132.46 255.22 131.494 256.582 129.804 256.236 128.937 256.058 127.791 254.771 127.714 253.902 127.639 253.041 128.75 252.076 129.745 250.526M97.608 259.456C96.218 260.484 95.268 261.621 94.786 261.449 93.866 261.121 93.213 260.046 92.45 259.28 93.134 258.637 93.857 257.441 94.495 257.484 95.396 257.545 96.234 258.524 97.608 259.456"/>
  </g>
</svg>
