<svg xmlns="http://www.w3.org/2000/svg" width="326" height="238" viewBox="0 0 326 238">
  <g fill="none" fill-rule="evenodd">
    <path fill="#000" d="M317.223,179.441638 C316.924,190.478638 316.839,201.522638 316.432,212.556638 C316.328,215.396638 315.599,218.274638 314.704,221.003638 C314.317,222.183638 312.932,223.260638 311.724,223.961638 C310.584,224.623638 309.102,224.847638 307.735,225.061638 C302.782,225.835638 297.769,226.320638 292.865,227.298638 C288.047,228.259638 193.079,230.841638 160.579,231.363638 C160.535,230.891638 160.495,230.417638 160.44,229.947638 C156.714,229.954638 152.957,230.396638 149.273,230.542638 C147.199,230.624638 145.081,230.776638 142.955,230.890638 C141.411,230.779638 139.868,230.677638 138.326,230.612638 C138.332,230.753638 138.341,230.893638 138.347,231.033638 C137.102,231.031638 135.862,230.988638 134.635,230.880638 C132.391,230.994638 130.146,231.106638 127.902,231.215638 C117.923,231.699638 107.947,232.351638 97.962,232.541638 C87.058,232.748638 76.163,232.785638 65.248,231.746638 C58.895,231.141638 52.38,231.934638 45.962,232.418638 C40.556,232.826638 35.245,232.937638 29.889,231.803638 C25.272,230.824638 20.552,230.339638 15.89,229.565638 C14.603,229.352638 13.208,229.128638 12.135,228.466638 C10.997,227.764638 9.693,226.688638 9.329,225.507638 C8.486,222.778638 7.8,219.901638 7.702,217.060638 C7.319,206.027638 7.239,194.983638 6.958,183.945638 C6.419,162.787638 5.719,141.632638 5.28,120.472638 C4.942,104.167638 4.897,87.8566378 4.738,71.5486378 C4.728,70.5186378 4.85,69.4876378 4.903,68.5946378 C13.909,68.5946378 22.435,68.5876378 30.961,68.5956378 C60.951,68.6256378 90.953,69.1876378 120.926,68.5096378 C141.205,68.0516378 161.42,69.2596378 181.668,69.1416378 C207.052,68.9926378 232.437,69.0176378 257.819,68.7636378 C272.54,68.6166378 287.258,68.1116378 301.975,67.6806378 C307.726,67.5126378 313.509,67.4516378 319.368,65.4726378 C319.368,68.6396378 319.325,71.5096378 319.375,74.3776378 C319.466,79.4846378 319.7,84.5936378 319.764,89.7006378 C319.636,89.6906378 319.508,89.6826378 319.381,89.6726378 C319.301,98.4386378 319.198,107.203638 319.005,115.967638 C318.539,137.128638 317.795,158.282638 317.223,179.441638 Z M4.74,51.9156378 C4.81,40.0836378 4.899,28.2516378 4.975,16.4196378 C4.978,15.8946378 4.825,15.3526378 4.913,14.8476378 C5.526,11.3226378 4.738,9.71263784 9.849,9.18763784 C15.986,8.55763784 22.138,7.91663784 28.298,7.69563784 C37.754,7.35763784 47.221,7.31963784 56.684,7.25063784 C71.152,7.14463784 85.585,7.40863784 100.009,9.05263784 C107.813,9.94263784 115.772,9.58763784 123.661,9.58363784 C142.339,9.57463784 161.019,9.62363784 179.692,9.27963784 C189.147,9.10463784 198.585,8.08863784 208.035,7.52263784 C222.336,6.66563784 236.635,5.75863784 250.946,5.12363784 C254.706,4.95763784 258.505,5.72663784 262.289,6.03963784 C263.465,6.13663784 264.651,6.23863784 265.826,6.18563784 C277.369,5.66563784 288.911,5.11363784 300.453,4.57063784 C303.21,4.44063784 305.967,4.19063784 308.723,4.20363784 C315.896,4.23963784 319.923,8.21663784 320.103,15.4516378 C320.297,23.2076378 320.443,30.9656378 320.49,38.7226378 C320.528,44.8846378 320.421,51.0486378 320.298,57.2096378 C320.264,58.8706378 319.939,60.5266378 319.773,61.9626378 C316.64,61.7796378 314.193,61.4856378 311.751,61.5236378 C306.231,61.6106378 300.713,61.8476378 295.195,62.0486378 C285.869,62.3896378 276.547,62.8376378 267.219,63.0826378 C254.334,63.4216378 241.445,63.7586378 228.557,63.8346378 C208.169,63.9536378 187.779,63.9296378 167.391,63.8176378 C156.087,63.7556378 144.782,63.1236378 133.482,63.2166378 C102.445,63.4726378 71.411,63.9886378 40.375,64.3736378 C29.861,64.5046378 19.346,64.5556378 8.832,64.6406378 C7.662,64.6506378 6.491,64.6416378 4.736,64.6416378 C4.736,60.2366378 4.715,56.0756378 4.74,51.9156378 Z M324.514,66.0806378 C326.056,52.9496378 325.729,39.8366378 325.325,26.7016378 C325.188,22.2366378 324.885,17.7646378 324.388,13.3266378 C323.448,4.94463784 317.887,-0.00336215852 309.549,0.105637841 C306.01,0.151637841 302.472,0.832637841 298.94,0.783637841 C293.564,0.708637841 288.184,-0.127362159 282.823,0.0166378415 C258.255,0.673637841 233.647,0.0366378415 209.139,2.71963784 C198.825,3.84963784 188.419,4.52563784 178.046,4.64763784 C153.718,4.93363784 129.384,4.76563784 105.052,4.76363784 C103.213,4.76363784 101.351,4.78063784 99.539,4.51663784 C86.077,2.55063784 72.512,2.87963784 58.98,2.76263784 C48.201,2.66963784 37.408,2.82963784 26.642,3.32863784 C20.499,3.61363784 14.37,4.63663784 8.286,5.64363784 C4.263,6.30963784 2.843,8.15463784 2.242,12.3176378 C1.961,14.2676378 1.649,16.2316378 1.611,18.1946378 C1.217,38.5726378 0.863,58.9516378 0.528,79.3306378 C0.459,83.5386378 0.518,87.7486378 0.518,91.9576378 C0.345,91.9626378 0.173,91.9666378 0,91.9706378 C0.697,118.652638 1.371,145.334638 2.101,172.014638 C2.407,183.188638 2.652,194.368638 3.267,205.526638 C3.634,212.197638 4.613,218.837638 5.416,225.478638 C5.897,229.452638 8.341,231.801638 12.102,232.886638 C12.986,233.141638 13.862,233.449638 14.763,233.611638 C19.41,234.449638 24.105,235.070638 28.707,236.104638 C34.571,237.422638 40.429,237.272638 46.359,236.918638 C52.914,236.527638 59.491,236.217638 66.052,236.322638 C74.718,236.460638 83.379,237.394638 92.038,237.333638 C103.47,237.251638 114.898,236.561638 126.326,236.085638 C130.884,235.896638 135.443,235.697638 140,235.474638 C143.185,235.586638 146.37,235.744638 149.548,235.922638 C155.848,236.276638 287.891,232.917638 294.12,231.599638 C299.009,230.565638 303.995,229.944638 308.932,229.106638 C309.889,228.944638 310.82,228.636638 311.758,228.381638 C315.753,227.296638 318.349,224.947638 318.86,220.974638 C319.714,214.332638 320.753,207.692638 321.143,201.022638 C321.796,189.864638 322.057,178.683638 322.382,167.510638 C322.986,146.719638 323.555,125.927638 324.127,105.136638 C324.223,105.156638 324.319,105.177638 324.415,105.198638 C324.404,103.446638 324.4,101.694638 324.416,99.9426378 C324.464,94.5636378 324.71,89.1856378 324.703,83.8066378 C324.695,77.8926378 323.831,71.9006378 324.514,66.0806378 L324.514,66.0806378 Z"/>
    <path fill="#000" d="M293.134 151.196638C290.276 151.025638 287.349 150.850638 284.063 150.654638 284.362 146.990638 284.74 143.549638 284.894 140.099638 285.016 137.373638 284.733 134.627638 284.898 131.906638 284.962 130.846638 285.761 129.831638 286.333 128.553638 285.181 128.082638 284.842 126.719638 284.9 125.027638 285.006 121.895638 284.93 118.757638 284.93 115.380638 288.548 114.179638 292.188 114.667638 295.738 114.444638 296.549 118.415638 294.743 143.923638 293.134 151.196638zM291.096 173.692638C290.945 178.644638 291.062 183.606638 291.062 188.980638 288.139 189.293638 285.249 189.603638 282.246 189.925638 282.246 186.646638 282.246 183.805638 282.246 180.851638 283.561 180.288638 284.688 179.805638 286.635 178.970638 284.778 178.650638 283.738 178.471638 282.586 178.272638 282.586 176.074638 282.586 174.000638 282.586 171.875638 283.673 171.263638 284.691 170.699638 285.701 170.120638 287.373 169.160638 288.349 167.778638 288.908 165.871638 289.587 163.550638 290.681 161.350638 292.035 159.216638 293.167 164.207638 291.242 168.891638 291.096 173.692638zM268.705 167.538638C253.066 168.003638 237.424 168.320638 221.784 168.764638 213.247 169.007638 204.714 169.411638 196.178 169.712638 180.154 170.276638 164.132 170.968638 148.102 171.330638 129.571 171.748638 111.032 171.873638 92.497 172.111638 88.815 172.159638 85.132 172.106638 81.45 172.166638 70.416 172.345638 59.382 172.563638 48.347 172.745638 47.036 172.767638 45.721 172.686638 44.411 172.601638 42.534 172.479638 41.546 171.590638 40.754 169.705638 39.624 167.013638 37.765 164.627638 35.816 161.457638 41.901 161.305638 47.793 161.041638 53.687 161.034638 66.964 161.017638 80.241 161.115638 93.518 161.189638 106.8 161.262638 120.088 161.632638 133.364 161.379638 147.944 161.101638 162.514 160.270638 177.087 159.662638 189.829 159.130638 202.574 158.649638 215.31 158.005638 227.258 157.401638 239.193 156.565638 251.14 155.929638 255.732 155.685638 260.338 155.693638 264.938 155.620638 272.408 155.502638 279.878 155.412638 286.9 155.316638 285.823 157.970638 284.489 161.050638 283.332 164.196638 282.738 165.811638 281.567 166.462638 280.075 166.612638 276.291 166.990638 272.501 167.425638 268.705 167.538638zM45.548 184.315638C45.548 182.354638 45.548 180.311638 45.548 178.143638 46.665 178.030638 47.564 177.869638 48.464 177.859638 59.499 177.736638 70.535 177.632638 81.57 177.529638 92.09 177.430638 102.611 177.342638 113.131 177.245638 125.489 177.130638 137.848 177.070638 150.204 176.876638 163.354 176.668638 176.565 177.042638 189.634 175.874638 206.826 174.338638 224.051 174.576638 241.243 173.624638 253.436 172.949638 265.667 172.950638 278.271 172.639638 278.271 174.705638 278.271 176.516638 278.271 178.759638 275.033 179.130638 271.832 179.673638 268.612 179.826638 263.887 180.049638 259.15 180.008638 254.418 180.055638 222.994 180.365638 191.569 180.602638 160.146 181.023638 152.536 181.125638 144.938 181.978638 137.327 182.223638 125.37 182.609638 113.403 182.685638 101.446 183.058638 92.252 183.345638 83.07 184.058638 73.875 184.267638 64.449 184.482638 55.013 184.315638 45.548 184.315638zM262.53 190.973638C249.912 191.270638 237.291 191.482638 224.672 191.723638 200.75 192.180638 176.829 192.663638 152.907 193.063638 147.651 193.151638 142.389 192.836638 137.132 192.884638 107.947 193.149638 78.763 193.469638 49.579 193.768638 48.142 193.782638 46.705 193.770638 44.933 193.770638 44.933 191.601638 44.933 189.579638 44.933 187.210638 45.787 187.131638 46.778 186.977638 47.773 186.956638 61.173 186.673638 74.576 186.479638 87.974 186.123638 103.344 185.714638 118.742 185.636638 134.07 184.577638 161.913 182.654638 189.785 183.692638 217.636 183.026638 227.486 182.790638 237.341 182.726638 247.195 182.665638 250.607 182.644638 254.027 183.046638 257.434 182.938638 262.412 182.780638 267.383 182.364638 272.353 182.002638 274.18 181.869638 275.995 181.578638 278.18 181.315638 278.63 184.488638 279.014 187.191638 279.456 190.301638 273.789 190.531638 268.162 190.840638 262.53 190.973638zM41.068 193.732638C38.312 193.732638 35.588 193.732638 32.482 193.732638 32.281 184.603638 32.08 175.501638 31.868 165.863638 34.587 166.851638 35.375 168.648638 35.998 170.419638 37.683 175.202638 37.629 175.221638 41.068 177.831638 41.068 182.840638 41.068 188.059638 41.068 193.732638zM32.358 117.825638C34.992 118.001638 37.672 118.180638 40.349 118.358638 40.349 131.010638 40.349 143.399638 40.349 156.536638 37.902 156.911638 35.384 157.298638 32.358 157.762638 32.358 144.215638 32.358 131.185638 32.358 117.825638zM279.965 138.822638C277.681 138.822638 275.463 138.781638 273.246 138.828638 260.629 139.098638 248.012 139.393638 235.395 139.672638 230.794 139.774638 226.193 139.885638 221.591 139.947638 203.055 140.195638 184.519 140.393638 165.983 140.678638 157.991 140.801638 150.001 141.090638 142.01 141.304638 141.829 141.011638 141.649 140.718638 141.468 140.425638 144.964 137.908638 143.83 134.602638 143.121 131.215638 145.706 131.215638 148.049 131.215638 150.388 131.215638 152.553 133.273638 150.55 135.681638 150.834 137.854638 154.525 138.371638 155.237 137.340638 155.398 131.240638 157.693 131.240638 159.998 131.240638 162.345 131.240638 163.543 133.928638 163.739 136.560638 162.455 139.255638 166.762 139.373638 167.178 138.508638 166.569 131.010638 168.079 130.858638 169.598 130.597638 171.122 130.568638 180.719 130.386638 190.318 130.288638 199.914 130.098638 206.09 129.976638 212.263 129.736638 218.438 129.565638 219.74 129.528638 221.042 129.559638 222.157 129.559638 224.282 131.976638 222.852 134.629638 223.329 136.967638 226.905 137.059638 226.989 136.910638 227.333 129.760638 228.325 129.760638 229.335 129.738638 230.343 129.766638 231.256 129.792638 232.167 129.873638 233.319 129.945638 233.595 130.947638 233.89 131.927638 234.13 132.921638 234.336 133.771638 234.478 134.636638 234.651 135.506638 237.728 134.730638 237.728 134.730638 238.023 130.073638 240.014 130.073638 242.036 130.073638 244.351 130.073638 244.614 131.597638 244.893 133.209638 245.214 135.062638 247.951 134.356638 247.913 132.008638 248.754 130.053638 259.257 130.053638 269.84 130.053638 280.652 130.053638 281.086 133.174638 280.813 135.945638 279.965 138.822638zM255.281 142.804638C254.435 142.543638 253.616 142.193638 252.82 141.262638 261.733 140.977638 270.647 140.691638 280.001 140.392638 280.096 141.698638 280.218 142.463638 280.194 143.224638 280.123 145.448638 279.995 147.670638 279.863 150.458638 276.679 150.507638 273.593 150.602638 270.508 150.560638 269.937 150.552638 269.268 150.102638 268.821 149.672638 265.005 145.992638 260.187 144.320638 255.281 142.804638zM220.9 148.635638C222.534 148.125638 224.008 147.989638 225.765 148.920638 228.976 150.621638 229.588 150.256638 232.113 147.610638 232.695 147.000638 233.587 146.407638 234.384 146.334638 236.864 146.107638 239.372 146.025638 241.858 146.131638 242.566 146.161638 243.309 146.950638 243.912 147.521638 245.393 148.922638 247.23 149.672638 248.927 148.591638 252.902 146.059638 255.732 148.855638 258.663 150.380638 254.689 150.570638 250.714 150.740638 246.741 150.959638 245.274 151.040638 244.07 150.911638 242.804 149.807638 240.563 147.853638 237.68 148.059638 235.909 150.450638 234.761 152.000638 233.535 152.226638 231.927 152.283638 229.302 152.377638 226.679 152.559638 224.075 152.703638 221.503 149.571638 220.983 149.602638 219.023 153.047638 217.264 153.047638 215.468 153.047638 213.149 153.047638 215.663 150.773638 218.164 149.489638 220.9 148.635638zM68.208 130.333638C69.537 130.255638 70.751 130.185638 71.966 130.110638 73.139 130.039638 74.311 129.962638 75.527 129.885638 77.009 131.124638 77.475 132.799638 77.101 134.488638 76.785 135.919638 75.886 137.221638 75.173 138.731638 79.767 138.919638 81.03 136.675638 80.418 129.873638 82.316 129.873638 84.198 129.873638 86.074 129.873638 88.472 132.548638 87.331 135.515638 86.676 138.376638 90.772 139.531638 92.115 136.906638 90.823 130.077638 98.796 128.915638 106.696 130.556638 114.595 130.490638 122.465 130.424638 130.339 130.750638 137.884 130.898638 141.719 134.348638 139.765 137.527638 138.148 140.736638 106.762 141.493638 75.652 142.244638 44.347 143.000638 44.347 138.669638 44.347 134.288638 44.347 129.724638 51.183 129.952638 57.697 130.169638 64.212 130.386638 67 133.154638 67.822 136.358638 66.034 140.142638 70.128 139.258638 70.685 136.689638 68.208 130.333638zM79.012 156.129638C75.562 156.352638 72.198 157.125638 69.122 154.425638 68.366 153.762638 65.691 153.855638 65.248 154.511638 63.068 157.741638 60.283 156.069638 57.171 156.277638 60.281 152.632638 64.238 151.973638 67.922 150.899638 68.645 150.689638 69.759 151.585638 70.612 152.103638 72.059 152.982638 73.72 153.706638 74.85 152.141638 76.394 150.004638 78.387 150.235638 80.47 150.341638 82.033 150.420638 83.594 150.558638 85.223 150.675638 86.558 153.694638 88.407 155.361638 91.989 154.255638 93.087 153.915638 94.593 154.896638 96.398 155.410638 93.798 156.515638 86.592 156.934638 82.627 156.432638 82.51 155.233638 82.522 153.999638 82.201 152.858638 82.104 152.516638 81.048 152.201638 80.484 152.275638 77.992 152.602638 78.853 154.437638 79.012 156.129638zM177.348 154.049638C172.812 155.671638 168.17 155.565638 163.554 155.518638 162.741 155.509638 161.904 154.829638 161.133 154.366638 158.546 152.812638 156.187 153.176638 153.844 154.963638 152.978 155.624638 151.907 156.206638 150.854 156.390638 149.052 156.706638 147.191 156.764638 145.354 156.781638 140.388 156.829638 135.422 156.798638 129.509 156.798638 133.402 153.881638 136.837 152.337638 140.764 151.972638 141.338 151.919638 141.994 152.235638 142.544 152.515638 147.782 155.183638 149.429 154.834638 152.856 150.160638 156.224 150.403638 159.799 149.254638 163.091 151.494638 163.819 151.990638 165.152 151.827638 166.152 151.653638 170.234 150.945638 173.707 152.749638 177.348 154.049638zM163.495 145.389638C159.451 145.014638 155.329 145.038638 151.274 145.324638 141.241 146.033638 131.94 148.739638 124.394 155.925638 123.686 156.599638 122.272 156.753638 121.181 156.768638 115.402 156.847638 109.621 156.805638 103.555 156.805638 102.68 153.562638 100.583 152.348638 98.511 150.847638 90.717 145.202638 81.866 144.642638 72.858 145.342638 66.259 145.855638 59.882 147.517638 55.133 152.753638 54.692 153.240638 54.143 153.646638 53.783 154.183638 53.425 154.716638 53.243 155.366638 52.927 156.094638 50.144 156.094638 47.31 156.094638 44.268 156.094638 44.268 152.262638 44.268 148.655638 44.268 144.825638 104.625 143.848638 164.776 142.875638 225.737 141.888638 224.739 142.565638 224.482 142.877638 224.186 142.919638 217.625 143.857638 212.554 147.585638 207.788 151.792638 206.74 152.717638 205.813 153.329638 204.388 153.391638 199.396 153.611638 194.412 154.026638 189.419 154.171638 188.222 154.205638 186.725 153.808638 185.839 153.053638 179.375 147.549638 171.516 146.135638 163.495 145.389638zM44.62 118.168638C65.349 118.544638 85.809 118.916638 106.414 119.290638 106.691 120.228638 106.891 120.962638 107.123 121.685638 108.166 124.937638 109.225 125.371638 112.36 123.803638 113.289 123.339638 114.181 122.801638 114.988 122.353638 122.963 125.822638 122.963 125.822638 128.697 122.390638 131.114 123.118638 133.326 124.276638 135.56 124.320638 137.803 124.364638 140.068 123.298638 142.884 122.575638 146.934 124.763638 151.663 125.406638 156.561 122.835638 157.232 122.483638 158.344 122.560638 159.099 122.844638 165.787 125.362638 165.777 125.389638 172.422 121.577638 177.335 126.565638 182.441 125.568638 187.461 121.376638 190.953 123.396638 194.402 124.185638 198.112 122.447638 198.66 122.190638 199.628 122.553638 200.291 122.866638 205.097 125.131638 210.116 123.540638 215.029 123.635638 215.65 123.647638 216.557 122.306638 216.869 121.427638 217.249 120.353638 217.141 119.107638 217.285 117.459638 227.874 116.017638 238.608 116.100638 249.284 115.594638 259.876 115.092638 270.492 115.104638 281.108 114.891638 281.108 119.358638 281.108 123.248638 281.108 127.038638 277.28 128.122638 260.87 128.017638 248.59 126.917638 246.215 123.427638 249.229 121.761638 250.793 119.624638 246.496 118.950638 244.934 120.705638 244.188 126.881638 241.769 126.881638 239.322 126.881638 237.02 126.881638 234.906 124.348638 236.107 122.081638 237.453 119.853638 234.135 119.346638 233.261 120.534638 232.112 126.827638 230.733 126.827638 229.308 126.879638 227.888 126.816638 225.196 126.697638 224.346 125.590638 225.017 123.072638 225.21 122.348638 225.616 121.682638 225.957 120.914638 222.801 120.763638 222.091 121.681638 221.305 126.632638 220.956 126.727638 220.587 126.910638 220.214 126.918638 203.124 127.272638 186.033 127.618638 168.941 127.929638 167.923 127.948638 166.901 127.592638 165.876 127.552638 164.87 127.513638 163.809 127.483638 162.855 127.747638 159.666 128.631638 156.576 129.013638 153.426 127.459638 152.639 127.071638 151.17 127.064638 150.529 127.555638 147.901 129.563638 144.979 128.409638 142.203 128.603638 141.807 128.630638 141.42 127.620638 140.909 127.449638 140.154 127.197638 138.758 126.939638 138.565 127.254638 137.584 128.855638 136.18 128.530638 134.765 128.504638 120.963 128.245638 107.161 128.000638 93.36 127.753638 92.965 127.746638 92.546 127.838638 92.18 127.735638 91.119 127.438638 90.08 127.065638 89.032 126.722638 89.45 125.827638 89.885 124.939638 90.276 124.033638 90.422 123.694638 90.467 123.312638 90.558 122.949638 87.379 122.018638 86.696 122.595638 85.191 127.392638 82.917 127.392638 80.656 127.392638 78.075 127.392638 78.266 125.772638 78.41 124.553638 78.555 123.320638 75.717 123.240638 75.639 123.325638 74.402 127.843638 71.737 127.843638 69.016 127.843638 65.967 127.843638 66.153 126.114638 66.32 124.560638 66.541 122.495638 63.973 123.918638 64.023 126.266638 63.071 128.133638 56.894 129.017638 50.794 128.299638 44.183 127.687638 44.324 124.617638 44.459 121.668638 44.62 118.168638zM103.667 90.7986378C100.378 90.8366378 97.084 90.9366378 93.801 90.7896378 84.16 90.3586378 74.632 91.6296378 65.089 92.6036378 56.54 93.4756378 48.02 93.3536378 39.505 92.3286378 36.854 92.0096378 36.401 91.4506378 36.199 88.8636378 36.027 86.6456378 35.855 84.4276378 35.638 81.6296378 38.187 81.8246378 40.708 82.0286378 43.23 82.2076378 45.971 82.4026378 48.711 82.6806378 51.455 82.7386378 69.467 83.1196378 87.481 83.4496378 105.494 83.8096378 105.732 83.8136378 105.966 83.9956378 106.531 84.2336378 106.663 86.1216378 106.807 88.1676378 106.968 90.4706378 105.68 90.6036378 104.675 90.7866378 103.667 90.7986378zM115.222 77.5876378C122.304 77.9396378 129.379 78.4816378 136.464 78.6726378 148.284 78.9906378 160.11 79.3026378 171.931 79.2206378 182.17 79.1496378 192.408 78.5676378 202.642 78.1296378 207.557 77.9196378 209.194 78.6736378 210.085 83.4876378 210.939 88.0966378 211.2 92.8596378 211.251 97.5596378 211.31 102.913638 210.813 108.272638 210.637 113.631638 210.59 115.065638 210.831 116.509638 210.974 118.407638 207.394 118.257638 204.011 119.321638 201.069 116.487638 200.396 115.839638 198.209 116.139638 197.085 116.716638 194.754 117.912638 192.74 118.244638 190.489 116.620638 188.711 115.337638 186.746 115.610638 184.906 116.648638 183.879 117.227638 182.899 117.895638 181.926 118.564638 180.167 119.772638 178.584 119.618638 176.897 118.290638 172.635 114.932638 172.095 114.843638 167.7 118.030638 165.464 119.651638 163.554 119.379638 161.591 117.946638 159.273 116.253638 156.97 116.318638 154.596 117.695638 151.329 119.590638 148.198 119.778638 145.117 117.228638 143.612 115.982638 141.804 116.084638 140.367 117.232638 137.411 119.591638 134.648 120.003638 131.48 117.536638 129.707 116.156638 127.528 116.710638 126.033 118.153638 123.463 120.635638 120.999 120.431638 118.226 118.660638 115.925 117.190638 113.718 118.193638 111.324 119.686638 110.557 105.533638 113.338 91.7826378 110.389 77.5766378 112.217 77.5766378 113.723 77.5136378 115.222 77.5876378zM293.386 78.2216378C293.783 81.8806378 293.751 85.3236378 293.435 89.1416378 267.707 90.0716378 242.118 91.4356378 216.429 92.2486378 216.08 88.5486378 215.79 85.4796378 215.444 81.8126378 241.464 82.7736378 267.252 81.6736378 293.386 78.2216378zM298.628 109.861638C296.9 109.320638 295.012 109.060638 293.197 109.074638 284.912 109.135638 276.624 109.232638 268.343 109.507638 252.179 110.046638 236.019 110.714638 219.858 111.321638 218.959 111.355638 218.058 111.326638 216.993 111.326638 215.892 106.485638 216.426 101.862638 216.822 97.0696378 217.685 96.9726378 218.32 96.8596378 218.958 96.8346378 230.784 96.3606378 242.609 95.6076378 254.438 95.5086378 267.448 95.3996378 280.409 93.3016378 293.445 94.6146378 293.705 94.6406378 293.971 94.6296378 294.233 94.6156378 297.423 94.4456378 298.635 93.5836378 298.8 90.4066378 299.057 85.4226378 298.972 80.4186378 298.956 75.4236378 298.95 73.4676378 297.748 72.6156378 295.867 72.6836378 295.08 72.7126378 294.297 72.8396378 293.511 72.9196378 283.837 73.8986378 274.182 75.3486378 264.483 75.7486378 248.064 76.4266378 231.617 76.4246378 215.183 76.7596378 213.582 76.7916378 212.388 76.2406378 211.37 75.1086378 209.318 72.8266378 206.765 72.5926378 203.829 72.7576378 192.938 73.3726378 182.035 74.0676378 171.134 74.1306378 158.251 74.2066378 145.363 73.6746378 132.479 73.3746378 124.989 73.1996378 117.501 72.8266378 110.012 72.8056378 105.79 72.7936378 101.918 73.9236378 100.462 78.2366378 95.672 78.2366378 91.206 78.2426378 86.74 78.2356378 73.857 78.2146378 60.974 78.1956378 48.09 78.1536378 46.911 78.1506378 45.733 77.9126378 44.554 77.9146378 39.319 77.9216378 34.075 77.8056378 28.852 78.0796378 25.826 78.2376378 24.789 79.4286378 24.767 82.3376378 24.74 85.8756378 24.918 89.4346378 25.311 92.9516378 25.645 95.9366378 26.402 96.3166378 29.536 96.2666378 32.142 96.2246378 34.808 95.9366378 37.346 96.3596378 46.097 97.8166378 54.866 98.1926378 63.684 97.3866378 74.812 96.3676378 85.917 94.9756378 97.131 95.5156378 98.279 95.5706378 99.426 95.6556378 100.878 95.7466378 100.654 99.2566378 100.408 102.504638 100.247 105.757638 100.055 109.618638 100.665 110.253638 104.634 110.586638 105.13 110.628638 105.622 110.701638 106.333 110.786638 106.279 111.788638 106.234 112.610638 106.194 113.351638 80.154 113.351638 54.425 113.351638 28.486 113.351638 28.317 114.391638 28.066 115.258638 28.051 116.129638 27.827 128.490638 27.672 140.853638 27.418 153.213638 27.32 157.944638 26.823 162.672638 26.846 167.399638 26.886 175.679638 27.067 183.962638 27.429 192.233638 27.606 196.272638 29.419 197.870638 33.416 198.072638 39.981 198.404638 46.552 198.835638 53.12 198.841638 80.613 198.866638 108.105 198.735638 135.598 198.695638 141.517 198.687638 147.438 198.953638 153.355 198.862638 177.028 198.497638 200.7 198.056638 224.372 197.612638 240.942 197.302638 257.516 197.074638 274.079 196.532638 280.102 196.334638 286.119 195.480638 292.1 194.648638 296.379 194.052638 297.616 191.997638 297.265 187.821638 296.935 183.910638 296.646 179.966638 296.798 176.055638 296.954 172.001638 297.817 167.980638 298.098 163.925638 298.973 151.338638 299.791 138.746638 300.471 126.147638 300.667 122.504638 300.318 118.831638 300.235 115.172638 300.22 114.535638 300.052 113.751638 300.348 113.285638 301.735 111.102638 300.065 110.311638 298.628 109.861638L298.628 109.861638zM133.733 29.8896378C133.763 28.1546378 134.965 28.2676378 136.026 28.5816378 136.026 33.7456378 136.04 38.6996378 136.017 43.6526378 136.011 44.9856378 135.343 45.5656378 133.703 45.0846378 133.703 40.0646378 133.647 34.9756378 133.733 29.8896378zM154.706 27.1556378C154.154 30.9136378 153.672 34.2026378 153.164 37.6636378 151.28 37.8826378 149.476 38.0466378 147.688 38.3156378 146.379 38.5116378 144.842 38.7456378 145.035 40.5456378 145.211 42.2006378 146.711 42.3876378 148.038 42.4956378 149.347 42.6006378 150.701 42.4176378 151.963 42.6936378 152.493 42.8096378 152.837 43.7796378 153.652 44.8856378 149.08 44.8856378 145.331 44.8856378 141.374 44.8856378 141.374 42.4986378 141.374 40.3286378 141.374 37.8916378 143.567 37.6516378 145.633 37.3966378 147.705 37.2076378 149.543 37.0396378 150.666 36.1766378 150.711 34.2506378 150.754 32.3836378 149.641 31.3846378 147.305 31.3606378 145.368 31.3396378 143.43 31.5216378 141.235 31.6256378 141.139 30.4976378 141.067 29.6396378 140.966 28.4556378 145.511 28.0256378 149.891 27.6116378 154.706 27.1556378zM158.699 38.8456378C159.673 38.8456378 160.525 38.8456378 161.358 38.8456378 161.686 41.6956378 161.686 41.6956378 158.699 42.3016378 158.699 41.1726378 158.699 40.0966378 158.699 38.8456378zM162.228 32.7986378C162.233 35.5226378 160.301 34.6276378 158.872 34.8156378 158.731 32.0596378 158.731 32.0596378 162.228 32.7986378zM166.909 27.6706378C169.499 27.6706378 172.338 27.6706378 175.406 27.6706378 175.406 33.5216378 175.406 39.0896378 175.406 44.8736378 172.521 44.8736378 169.949 44.8736378 166.909 44.8736378 166.909 39.2196378 166.909 33.5706378 166.909 27.6706378zM189.212 27.7116378C189.212 33.5066378 189.212 38.7356378 189.212 44.0886378 186.587 45.4616378 183.853 44.9196378 180.963 45.2966378 180.963 43.9756378 180.963 42.9966378 180.963 41.9786378 182.307 40.6526378 185.1 41.5856378 185.75 38.4976378 184.774 38.1966378 183.76 37.7316378 182.704 37.5936378 180.707 37.3336378 180.373 36.2576378 180.962 34.4136378 181.78 34.2426378 182.753 34.2286378 183.517 33.8236378 184.222 33.4496378 184.703 32.6546378 185.283 32.0456378 184.66 31.4596378 184.11 30.7476378 183.39 30.3306378 182.867 30.0286378 181.981 30.3136378 181.506 29.9816378 180.923 29.5736378 180.6 28.7946378 179.838 27.7116378 183.38 27.7116378 186.189 27.7116378 189.212 27.7116378zM110.727 50.3226378C115.979 50.5206378 121.237 50.6736378 126.492 50.6416378 132.533 50.6056378 138.572 50.2206378 144.612 50.2086378 160.233 50.1766378 175.862 51.2516378 191.471 49.7436378 196.435 49.2646378 201.429 49.0856378 206.387 48.5536378 211.493 48.0046378 212.717 46.5386378 212.96 41.5066378 213.201 36.5236378 213.483 31.5416378 213.74 26.5586378 213.923 23.0176378 212.96 22.0736378 209.448 22.1826378 205.246 22.3136378 201.043 22.4676378 196.84 22.4656378 179.112 22.4546378 161.395 21.9296378 143.656 22.9356378 131.126 23.6476378 118.575 25.7256378 105.764 23.4866378 105.592 24.5406378 105.325 25.4096378 105.327 26.2796378 105.335 32.4556378 105.388 38.6316378 105.449 44.8076378 105.491 49.1216378 106.416 50.1606378 110.727 50.3226378L110.727 50.3226378zM235.713 21.1946378C236.628 20.4246378 238.089 19.7696378 239.212 19.8856378 242.052 20.1806378 244.977 20.5916378 247.625 21.5976378 252.434 23.4256378 254.048 26.1406378 254.168 31.2496378 254.407 35.4926378 252.571 39.1896378 250.858 42.8456378 250.313 44.0116378 248.879 45.0526378 247.616 45.5426378 239.987 48.4986378 234.516 45.5446378 230.22 39.6416378 229.851 39.1346378 229.579 38.4406378 229.549 37.8196378 229.235 31.4076378 230.551 25.5386378 235.713 21.1946378zM233.847 48.8556378C242.313 54.0796378 253.541 49.8566378 256.796 40.4676378 257.641 38.0306378 257.796 35.3546378 258.261 32.8256378 257.866 29.9676378 257.557 27.2356378 257.097 24.5276378 256.642 21.8496378 254.995 20.0176378 252.518 19.0176378 248.995 17.5936378 245.48 16.2176378 241.581 15.9696378 239.14 15.8146378 236.942 16.1086378 234.686 17.0366378 229.144 19.3176378 226.416 23.6266378 225.302 29.2746378 223.316 39.3396378 226.015 44.0236378 233.847 48.8556378L233.847 48.8556378zM64.952 31.7546378C65.789 27.9996378 67.114 24.4916378 70.592 22.1856378 72.422 20.9726378 74.234 20.1286378 76.173 20.4166378 83.049 20.8266378 88.705 25.4306378 86.749 33.3266378 85.873 36.8656378 84.475 40.0056378 82.105 42.7246378 79.818 45.3476378 76.927 46.1166378 73.563 45.4276378 65.913 43.8606378 63.088 40.1086378 64.952 31.7546378zM72.003 49.0986378C76.584 50.0326378 80.497 49.1406378 84.062 46.0256378 88.57 42.0876378 89.917 36.8636378 90.609 31.2956378 91.762 22.0086378 83.352 16.5776378 76.77 16.6766378 76.114 16.6766378 75.454 16.6366378 74.801 16.6886378 74.282 16.7296378 73.775 16.8976378 73.258 16.9846378 66.165 18.1826378 62.563 23.3436378 60.033 29.2716378 58.704 32.3846378 58.567 35.9416378 60.068 39.2756378 62.429 44.5196378 66.23 47.9226378 72.003 49.0986378L72.003 49.0986378z"/>
    <path fill="#000" d="M148.06 82.1366378C145.627 82.7196378 145.667 84.1156378 145.603 85.3976378 145.445 88.5866378 146.267 91.0226378 148.212 93.0736378 148.964 89.3916378 149.278 85.8686378 148.06 82.1366378M204.419 98.8646378C204.712 101.741638 204.691 104.757638 206.911 107.286638 208.196 104.304638 208.226 101.515638 207.243 98.7616378 207.044 98.2026378 206.167 97.7166378 205.517 97.5666378 205.245 97.5046378 204.376 98.4456378 204.419 98.8646378M162.854 93.6886378C164.479 92.1926378 164.958 90.3096378 164.741 88.3186378 164.661 87.5876378 163.825 86.9386378 163.335 86.2526378 162.583 86.8346378 161.386 87.2826378 161.165 88.0226378 160.545 90.0996378 160.784 92.1556378 162.854 93.6886378M123.341 87.5776378C120.741 90.1346378 120.744 92.4396378 123.682 96.9686378 124.452 93.3246378 124.558 90.5096378 123.341 87.5776378M154.033 96.7686378C155.265 94.8276378 155.543 92.8146378 155.054 90.7656378 154.916 90.1886378 154.052 89.4496378 153.482 89.4156378 153.002 89.3866378 152.049 90.2546378 152.029 90.7536378 151.944 92.9096378 151.821 95.1806378 154.033 96.7686378M161.006 104.830638C161.38 104.828638 161.753 104.826638 162.127 104.823638 162.48 103.516638 162.976 102.226638 163.147 100.895638 163.317 99.5726378 163.051 98.0366378 161.361 98.0416378 159.602 98.0466378 159.45 99.5496378 159.752 100.900638 160.051 102.236638 160.579 103.522638 161.006 104.830638M139.353 85.4036378C137.904 88.7206378 138.376 91.8166378 139.066 95.5966378 141.224 91.1106378 141.297 87.6356378 139.353 85.4036378M168.728 106.642638C168.948 104.294638 169.233 102.515638 169.197 100.743638 169.189 100.316638 168.155 99.7116378 167.514 99.5856378 167.218 99.5266378 166.443 100.386638 166.385 100.887638 166.161 102.825638 166.035 104.820638 168.728 106.642638M173.042 85.2406378C173.076 84.7596378 172.2 83.8596378 171.673 83.8036378 171.214 83.7556378 170.211 84.6346378 170.221 85.0876378 170.264 87.0716378 170.588 89.0496378 170.892 91.7486378 172.903 89.3476378 172.904 87.2396378 173.042 85.2406378M192.073 87.8696378C192.386 87.8636378 192.7 87.8576378 193.013 87.8516378 193.3 86.4496378 193.663 85.0586378 193.85 83.6436378 193.991 82.5766378 193.869 81.3096378 192.474 81.2896378 190.782 81.2646378 190.761 82.6716378 190.977 83.8596378 191.224 85.2176378 191.698 86.5346378 192.073 87.8696378M200.607 110.954638C201.869 109.534638 201.913 107.852638 201.457 106.213638 201.308 105.678638 200.403 105.145638 199.771 105.036638 199.438 104.979638 198.638 105.803638 198.583 106.290638 198.374 108.135638 198.412 109.993638 200.607 110.954638M179.863 107.125638C180.087 108.552638 180.68 109.920638 181.127 111.312638 181.488 111.281638 181.85 111.251638 182.212 111.220638 182.382 109.788638 182.744 108.342638 182.631 106.933638 182.584 106.346638 181.524 105.841638 180.925 105.298638 180.546 105.911638 179.778 106.585638 179.863 107.125638M129.781 83.1726378C130.063 85.8526378 130.344 88.5336378 130.626 91.2136378 132.927 86.3056378 132.815 84.6086378 129.781 83.1726378M174.906 104.349638C175.267 102.391638 175.672 101.040638 175.687 99.6846378 175.692 99.1676378 174.802 98.6416378 174.321 98.1196378 173.757 98.6816378 172.838 99.1676378 172.699 99.8196378 172.363 101.395638 172.929 102.810638 174.906 104.349638M202.17 99.3246378C202.03 96.9106378 202.072 94.6406378 200.254 92.2546378 198.718 95.7366378 199.227 97.3786378 202.17 99.3246378M193.506 104.980638C193.103 105.687638 192.375 106.388638 192.363 107.102638 192.333 108.847638 193.372 109.898638 195.459 110.298638 195.459 108.884638 195.671 107.589638 195.372 106.426638 195.217 105.824638 194.157 105.454638 193.506 104.980638M186.091 83.7326378C184.73 86.5616378 184.81 88.7656378 186.435 90.9976378 186.954 88.7866378 188.452 86.5246378 186.091 83.7326378M186.029 99.5216378C185.699 101.397638 185.688 103.284638 187.211 104.867638 188.878 103.262638 188.519 101.355638 188.488 99.5826378 188.48 99.1456378 187.715 98.3576378 187.34 98.3816378 186.862 98.4126378 186.112 99.0496378 186.029 99.5216378M179.838 90.5276378C179.838 88.4296378 179.87 86.7766378 179.817 85.1266378 179.802 84.6546378 179.539 84.1906378 179.413 83.7986378 177.9 83.4236378 177.272 84.1476378 177.21 85.3446378 177.111 87.2786378 177.314 89.1426378 179.838 90.5276378M153.733 102.088638C153.426 102.095638 153.12 102.102638 152.813 102.109638 151.401 104.951638 151.553 105.957638 154.218 108.841638 154.03 106.228638 153.881 104.158638 153.733 102.088638M163.098 108.908638C162.744 108.800638 161.774 109.447638 161.728 109.833638 161.586 111.000638 161.76 112.205638 161.811 113.395638 162.259 113.533638 162.708 113.670638 163.157 113.808638 163.651 112.623638 164.284 111.468638 164.549 110.235638 164.624 109.884638 163.693 109.088638 163.098 108.908638M205.664 87.2746378C205.848 81.5666378 205.848 81.5666378 203.379 81.6086378 203.08 83.7246378 203.302 85.6106378 205.664 87.2746378M193.235 94.1816378C193.275 95.6346378 193.566 97.0816378 193.766 98.5306378 194.13 98.5356378 194.494 98.5416378 194.857 98.5466378 195.1 97.1126378 195.41 95.6846378 195.533 94.2406378 195.561 93.9206378 194.862 93.2146378 194.607 93.2626378 194.087 93.3626378 193.227 93.8646378 193.235 94.1816378M157.676 86.2916378C157.938 85.1896378 158.38 84.0886378 158.38 82.9876378 158.381 82.4906378 157.504 81.9926378 157.025 81.4946378 156.571 82.0416378 155.73 82.5996378 155.745 83.1336378 155.775 84.1966378 156.275 85.2466378 156.581 86.3026378 156.946 86.2986378 157.311 86.2946378 157.676 86.2916378M117.776 97.7516378C119.427 93.7266378 119.427 93.7266378 117.144 92.4946378 116.171 94.2906378 116.368 95.9126378 117.776 97.7516378M117.532 82.2706378C115.26 84.1516378 115.281 84.3626378 117.532 87.5046378 117.532 85.5316378 117.532 83.9006378 117.532 82.2706378M137.862 100.169638C136.053 102.962638 137.135 105.051638 137.772 107.048638 138.913 105.031638 139.157 103.055638 137.862 100.169638M180.689 100.053638C180.989 100.030638 181.29 100.007638 181.59 99.9846378 181.817 98.9436378 182.225 97.8956378 182.188 96.8646378 182.171 96.3896378 181.281 95.9466378 180.787 95.4896378 180.373 96.0376378 179.572 96.6266378 179.626 97.1246378 179.734 98.1276378 180.307 99.0806378 180.689 100.053638M124.046 106.244638C124.2 104.173638 124.31 102.679638 124.456 100.712638 121.726 102.760638 121.707 103.058638 124.046 106.244638M130.361 95.5266378C128.463 97.4396378 129.436 99.0416378 130.492 101.151638 131.166 99.0116378 132.041 97.3766378 130.361 95.5266378M145.678 97.7996378C145.958 100.361638 146.152 102.137638 146.347 103.913638 146.671 103.860638 146.995 103.808638 147.32 103.755638 147.1 101.989638 148.362 99.9616378 145.678 97.7996378M120.346 109.899638C120.651 107.490638 120.651 107.490638 119.977 105.651638 118.504 107.868638 118.522 108.073638 120.346 109.899638M200.35 84.7816378C200.035 84.7236378 199.719 84.6646378 199.403 84.6066378 198.182 85.9136378 198.294 87.2676378 199.774 89.2976378 200.018 87.3876378 200.184 86.0846378 200.35 84.7816378M204.73 113.280638C204.96 113.898638 205.608 114.360638 206.085 114.886638 206.463 114.453638 207.183 113.982638 207.139 113.596638 207.073 113.005638 206.48 112.474638 205.888 111.581638 205.306 112.396638 204.62 112.986638 204.73 113.280638M172.089 110.966638C172.257 111.189638 172.778 111.144638 173.494 111.301638 173.414 110.230638 173.346 109.329638 173.246 107.990638 170.955 108.935638 171.331 109.961638 172.089 110.966638M143.434 111.673638C143.348 110.744638 143.279 110.000638 143.209 109.255638 142.281 110.533638 142.281 110.533638 143.434 111.673638M150.206 112.851638C150.618 111.749638 151.088 110.630638 148.921 109.950638 149.101 111.076638 149.241 111.949638 149.38 112.822638 149.655 112.831638 149.931 112.841638 150.206 112.851638M129.592 112.491638C129.594 112.465638 129.174 112.407638 128.951 112.364638 128.857 112.951638 128.763 113.537638 128.67 114.124638 128.906 114.159638 129.142 114.194638 129.378 114.229638 129.459 113.651638 129.549 113.073638 129.592 112.491638M274.856 158.237638C263.842 158.874638 252.834 159.719638 241.81 160.074638 227.1 160.549638 212.378 160.633638 197.661 160.904638 194.375 160.964638 191.082 160.986638 187.807 161.227638 179.95 161.808638 172.112 162.824638 164.247 163.094638 148.621 163.630638 132.983 163.791638 117.349 164.084638 114.591 164.135638 111.83 164.064638 109.07 164.064638 97.766 164.067638 86.462 164.066638 75.158 164.091638 73.319 164.095638 71.479 164.191638 69.642 164.296638 62.442 164.708638 55.243 165.159638 48.042 165.553638 46.36 165.644638 44.669 165.566638 42.982 165.566638 43.027 165.925638 43.072 166.285638 43.117 166.644638 45.57 166.836638 48.026 167.005638 50.476 167.224638 61.119 168.176638 71.629 165.635638 82.32 166.280638 92.136 166.873638 102.029 166.136638 111.889 166.072638 121.208 166.010638 130.53 165.961638 139.848 166.083638 158.801 166.331638 177.652 164.441638 196.552 163.598638 209.679 163.012638 222.83 162.993638 235.965 162.546638 248.176 162.132638 260.383 161.572638 272.582 160.881638 275.475 160.718638 278.558 160.499638 280.919 158.124638 278.872 157.954638 276.865 158.120638 274.856 158.237638M170.625 30.8126378C169.988 30.9346378 168.978 31.5816378 168.957 32.0456378 168.83 34.9066378 168.857 37.7826378 169.039 40.6406378 169.07 41.1276378 170.119 41.9286378 170.66 41.8986378 171.217 41.8676378 172.047 41.0776378 172.194 40.4806378 172.5 39.2326378 172.436 37.8926378 172.548 36.2316378 172.4 35.0176378 172.309 33.4456378 171.966 31.9306378 171.858 31.4516378 171.006 30.7386378 170.625 30.8126378M237.152 27.8876378C239.29 27.5866378 240.164 26.6006378 239.835 25.1746378 239.661 24.4246378 238.581 23.3616378 237.905 23.3576378 236.48 23.3496378 235.545 24.5136378 235.794 25.9626378 235.929 26.7466378 236.791 27.4056378 237.152 27.8876378M69.855 34.3466378C70.142 34.0046378 70.066 32.8566378 69.738 32.5856378 68.279 31.3766378 67.137 31.9856378 66.102 33.7796378 67.419 35.1416378 68.578 35.8666378 69.855 34.3466378"/>
  </g>
</svg>
