<svg xmlns="http://www.w3.org/2000/svg" width="290" height="155" viewBox="0 0 290 155">
  <g fill="none" fill-rule="evenodd">
    <path fill="#000" d="M122.431591,109.429343 C122.318591,109.387343 121.856591,109.215343 121.150591,108.951343 C120.125591,112.656343 121.431591,117.104343 116.901591,119.433343 C116.610591,116.717343 116.321591,114.010343 115.969591,110.721343 C115.446591,110.550343 114.312591,110.177343 113.247591,109.827343 C114.490591,108.218343 115.746591,106.592343 117.201591,104.708343 C115.330591,102.748343 113.709591,101.051343 111.693591,98.9403429 C113.020591,98.0393429 114.082591,97.1173429 115.305591,96.5263429 C119.783591,94.3623429 124.055591,91.3313429 129.479591,92.7453429 C129.479591,95.3513429 129.719591,98.0163429 129.376591,100.602343 C129.208591,101.872343 128.061591,103.083343 127.172591,104.169343 C125.769591,105.885343 124.209591,107.473343 122.431591,109.429343 Z M70.6365913,24.8803429 C70.5795913,25.3423429 70.5755913,25.8193429 70.4505913,26.2623429 C70.3255913,26.7083429 70.0795913,27.1213429 69.8875913,27.5483429 C69.6085913,27.4083429 69.3295913,27.2683429 69.0505913,27.1273429 C69.4395913,26.3513429 69.8285913,25.5743429 70.2175913,24.7983429 C70.3575913,24.8253429 70.4965913,24.8533429 70.6365913,24.8803429 Z M115.814591,135.397343 C117.747591,136.876343 118.132591,138.505343 116.834591,140.579343 C116.339591,141.368343 115.945591,142.229343 115.580591,143.089343 C114.691591,145.182343 113.206591,145.941343 110.937591,146.723343 C103.275591,149.365343 95.3065913,148.740343 87.5075913,149.546343 C82.8145913,150.031343 77.9215913,149.109343 73.1755913,148.425343 C66.0385913,147.397343 58.7865913,146.607343 51.8795913,144.663343 C40.9375913,141.583343 30.6585913,137.111343 21.4115913,129.968343 C13.5065913,123.863343 9.53559131,115.749343 5.87059131,107.111343 C5.66359131,106.622343 5.49659131,106.095343 5.42659131,105.571343 C3.90159131,94.1363429 3.86959131,82.8863429 9.54459131,72.3373429 C10.4945913,70.5723429 11.4205913,68.7853429 12.2135913,66.9463429 C14.7405913,61.0863429 18.1575913,55.9523429 23.1595913,51.8273429 C25.3965913,49.9833429 27.1695913,47.5223429 28.9365913,45.1773429 C32.0425913,41.0563429 35.7275913,37.6923429 40.2105913,35.0853429 C42.7355913,33.6173429 45.2185913,31.8843429 47.2615913,29.8173429 C51.0705913,25.9633429 55.7065913,23.7113429 60.7065913,22.1283429 C64.1175913,21.0493429 67.5255913,19.9603429 70.9355913,18.8733429 C69.9195913,20.6213429 69.2055913,21.7543429 68.6075913,22.9363429 C67.8955913,24.3443429 67.2955913,25.8073429 66.6885913,27.1523429 C65.3645913,27.3703429 64.2205913,27.5573429 63.0265913,27.7533429 C62.5395913,30.6393429 64.7105913,31.0503429 66.3455913,31.4543429 C72.0805913,32.8683429 77.1855913,31.2613429 81.5625913,27.4823429 C83.6895913,25.6463429 86.1835913,23.7843429 83.4645913,20.3253429 C82.4215913,18.9983429 80.8625913,17.6283429 79.3785913,18.3093429 C78.7995913,18.5753429 78.0655913,19.3643429 77.7495913,19.2093429 C74.7885913,17.7503429 73.7715913,20.3133429 72.2825913,21.9183429 C71.9575913,21.0273429 71.6885913,20.2923429 71.1465913,18.8053429 C81.9275913,15.3683429 92.7175913,11.9543429 103.610591,8.91534292 C110.132591,7.09634292 117.033591,6.58934292 123.786591,5.66434292 C129.481591,4.88434292 135.205591,4.29934292 140.930591,3.76434292 C142.452591,3.62234292 144.022591,3.98134292 145.778591,4.12734292 C144.898591,10.0523429 140.568591,12.4973429 137.385591,15.8063429 C137.019591,16.1873429 136.561591,16.4933429 136.111591,16.7803429 C131.073591,20.0063429 127.538591,24.1883429 126.297591,30.3023429 C125.720591,33.1493429 125.338591,34.0283429 121.635591,33.9113429 C122.731591,31.6033429 123.766591,29.4253429 124.841591,27.1613429 C121.385591,27.0243429 119.860591,29.7273429 118.535591,32.9153429 C115.997591,39.0213429 115.546591,39.3423429 109.153591,38.0033429 C108.382591,37.8423429 107.572591,37.8713429 106.232591,37.7713429 C106.989591,36.6083429 107.564591,35.7243429 108.368591,34.4903429 C108.591591,35.6543429 108.712591,36.2863429 108.963591,37.5953429 C110.439591,35.7823429 111.668591,34.3433429 112.816591,32.8433429 C113.928591,31.3903429 114.956591,29.8733429 116.619591,28.6773429 C116.299591,30.5253429 115.980591,32.3723429 115.660591,34.2203429 C115.892591,34.2983429 116.123591,34.3763429 116.355591,34.4543429 C117.670591,31.8123429 118.985591,29.1713429 120.570591,25.9853429 C119.340591,26.2503429 118.588591,26.4123429 117.608591,26.6233429 C117.562591,25.8883429 117.510591,25.0593429 117.457591,24.2113429 C117.236591,24.0593429 116.984591,23.7533429 116.825591,23.7963429 C114.511591,24.4143429 112.788591,23.1903429 111.393591,21.7343429 C109.808591,20.0783429 108.134591,20.1503429 106.265591,20.7473429 C100.830591,22.4843429 96.4465913,28.1763429 95.9815913,33.9443429 C95.7935913,36.2753429 96.6065913,38.0913429 98.3175913,39.6333429 C101.182591,42.2183429 104.669591,42.9253429 108.346591,43.0723429 C109.944591,43.1363429 111.547591,43.0833429 113.507591,43.0833429 C113.182591,43.8863429 113.033591,44.7883429 112.532591,45.4033429 C110.256591,48.1963429 108.033591,51.0603429 105.505591,53.6153429 C101.994591,57.1633429 101.863591,60.0353429 105.556591,63.4043429 C106.835591,64.5723429 108.257591,65.5833429 109.617591,66.6613429 C110.866591,67.6523429 112.119591,68.6373429 113.380591,69.6323429 C113.250591,70.1213429 113.178591,70.5013429 113.049591,70.8623429 C111.767591,74.4613429 112.010591,74.9043429 115.571591,75.8923429 C117.993591,76.5643429 120.388591,77.3343429 122.908591,78.0943429 C122.705591,78.9403429 122.577591,79.4313429 122.470591,79.9273429 C121.843591,82.8543429 122.122591,83.3643429 124.813591,84.4733429 C126.457591,85.1523429 128.607591,84.9583429 129.766591,87.6023429 C128.332591,88.0393429 127.056591,88.6613429 125.732591,88.7933429 C119.085591,89.4563429 114.175591,93.4413429 109.201591,97.2893429 C107.580591,98.5423429 107.429591,100.062343 108.472591,101.891343 C108.800591,102.466343 109.270591,102.961343 109.685591,103.484343 C110.099591,104.006343 110.526591,104.517343 110.928591,105.009343 C110.811591,105.318343 110.790591,105.644343 110.619591,105.784343 C106.043591,109.520343 106.040591,109.615343 110.304591,113.475343 C112.353591,115.330343 113.407591,117.385343 112.093591,120.222343 C111.141591,122.276343 110.486591,124.470343 109.730591,126.612343 C109.026591,128.605343 109.405591,130.183343 111.259591,131.490343 C112.886591,132.637343 114.227591,134.183343 115.814591,135.397343 Z M147.949591,19.2553429 C147.750591,21.9173429 147.328591,24.5733429 147.299591,27.2363429 C147.267591,30.1073429 146.115591,32.2223429 143.520591,33.2193429 C139.792591,34.6513429 138.079591,37.2163429 138.183591,41.1373429 C138.274591,44.5513429 136.649591,46.5423429 133.257591,47.2123429 C132.008591,47.4593429 130.835591,48.0953429 129.556591,48.5803429 C128.605591,34.4153429 128.192591,38.0413429 131.330591,28.4673429 C134.397591,26.8673429 137.434591,25.2843429 140.615591,23.6253429 C139.497591,20.3833429 137.197591,24.5203429 135.505591,23.2753429 C139.767591,19.3633429 144.011591,15.4673429 148.438591,11.4033429 C148.280591,13.9863429 148.146591,16.6233429 147.949591,19.2553429 Z M155.980591,34.3053429 C155.959591,34.5653429 156.018591,34.8603429 155.908591,35.0653429 C153.189591,40.1203429 153.924591,43.7003429 158.467591,47.1763429 C161.847591,49.7623429 165.694591,51.0743429 170.142591,51.0223429 C169.676591,53.1713429 168.001591,53.2233429 166.728591,53.2383429 C162.063591,53.2923429 157.358591,53.4393429 152.744591,52.9013429 C150.526591,52.6423429 148.477591,50.9303429 146.145591,49.7733429 C147.217591,47.2803429 149.696591,45.7493429 149.470591,42.5093429 C148.142591,43.4833429 147.146591,44.2143429 145.770591,45.2233429 C145.966591,44.0543429 146.105591,43.2213429 146.289591,42.1213429 C145.767591,42.3733429 145.368591,42.5663429 144.975591,42.7553429 C144.898591,42.2833429 144.821591,41.8163429 144.757591,41.4293429 C143.533591,41.3623429 142.322591,41.2963429 140.992591,41.2233429 C141.086591,39.4633429 141.155591,38.1633429 141.258591,36.2293429 C142.138591,36.9723429 142.585591,37.3493429 143.397591,38.0343429 C146.645591,34.2713429 150.964591,33.0013429 155.980591,34.3053429 Z M160.967591,35.6253429 C159.831591,37.4183429 159.085591,38.5943429 157.922591,40.4303429 C157.418591,37.4553429 158.480591,36.4793429 160.967591,35.6253429 Z M165.282591,44.6193429 C166.579591,45.2143429 167.702591,46.4653429 169.020591,44.7323429 C169.590591,45.1893429 170.161591,45.6473429 171.275591,46.5413429 C167.468591,47.2283429 164.797591,46.7823429 161.584591,44.2643429 C163.428591,44.4133429 164.477591,44.2503429 165.282591,44.6193429 Z M144.839591,43.0133429 C144.540591,44.2713429 144.242591,45.5293429 143.944591,46.7863429 C143.179591,45.1373429 143.656591,43.9383429 144.839591,43.0133429 Z M170.164591,63.5623429 C169.114591,62.4183429 168.157591,61.3763429 167.098591,60.2233429 C165.635591,61.1533429 164.798591,61.8573429 164.117591,63.6243429 C162.931591,66.6993429 161.061591,70.1973429 158.430591,71.8463429 C155.393591,73.7493429 151.192591,73.4433429 147.709591,71.5403429 C145.389591,70.2733429 143.246591,68.6793429 141.021591,67.2293429 C141.021591,62.1173429 141.021591,57.0983429 141.021591,52.1583429 C145.308591,53.8393429 149.488591,55.4793429 153.596591,57.0913429 C153.977591,60.0743429 154.321591,62.7733429 154.666591,65.4723429 C154.948591,65.4813429 155.230591,65.4893429 155.512591,65.4973429 C155.777591,63.1913429 156.042591,60.8853429 156.294591,58.6973429 C160.840591,57.7683429 165.319591,56.8533429 170.236591,55.8493429 C171.130591,57.7753429 172.112591,59.8893429 173.197591,62.2283429 C172.012591,62.7493429 171.088591,63.1553429 170.164591,63.5623429 Z M177.298591,63.7183429 C179.361591,65.2993429 181.520591,66.9543429 184.334591,69.1113429 C179.777591,70.2593429 178.556591,73.2263429 177.895591,76.6273429 C177.771591,77.2643429 177.560591,78.0763429 177.100591,78.4283429 C172.596591,81.8683429 168.136591,85.4643429 161.843591,84.9183429 C162.648591,84.5803429 163.467591,84.2733429 164.255591,83.8993429 C165.694591,83.2163429 167.200591,82.6263429 168.525591,81.7623429 C172.032591,79.4783429 172.445591,78.3173429 171.507591,74.3893429 C173.783591,74.0973429 173.783591,74.0973429 177.187591,67.0493429 C173.380591,70.4493429 169.611591,68.3023429 165.845591,68.3693429 C167.695591,67.6623429 169.556591,66.9843429 171.391591,66.2403429 C173.237591,65.4923429 175.058591,64.6783429 177.298591,63.7183429 Z M185.582591,77.9613429 C184.147591,77.6193429 182.993591,77.3433429 181.904591,77.0843429 C181.652591,74.2393429 183.118591,73.1053429 185.941591,72.6713429 C185.823591,74.4113429 185.714591,76.0203429 185.582591,77.9613429 Z M183.616591,84.4563429 C181.563591,86.3373429 179.421591,88.1363429 177.190591,89.8013429 C175.841591,90.8083429 174.860591,91.7453429 174.742591,93.6153429 C174.513591,97.2433429 174.390591,97.2363429 170.666591,97.9653429 C169.610591,97.0073429 168.649591,95.4223429 167.686591,95.4203429 C165.926591,95.4183429 165.648591,97.1423429 166.188591,99.2843429 C164.845591,98.6303429 163.999591,98.2193429 162.831591,97.6503429 C163.611591,96.6863429 164.345591,96.0743429 164.672591,95.2913429 C164.987591,94.5383429 165.140591,93.5083429 164.861591,92.7983429 C164.698591,92.3853429 163.312591,91.9883429 162.893591,92.2503429 C162.243591,92.6553429 161.800591,93.5853429 161.561591,94.3813429 C161.412591,94.8773429 161.799591,95.5353429 162.066591,96.5993429 C158.329591,94.5443429 157.900591,91.5223429 157.702591,87.8703429 C162.770591,89.2953429 167.321591,88.3973429 171.644591,86.0843429 L171.639591,86.0893429 C171.639591,86.0883429 171.639591,86.0883429 171.640591,86.0873429 C171.644591,86.0843429 171.533591,86.1733429 171.533591,86.1733429 C171.541591,86.1783429 171.548591,86.1833429 171.556591,86.1893429 C171.577591,86.1633429 171.599591,86.1383429 171.620591,86.1123429 C173.003591,85.1423429 174.360591,84.1313429 175.783591,83.2233429 C177.128591,82.3643429 178.465591,81.3233429 179.957591,80.9093429 C181.483591,80.4873429 183.194591,80.7303429 185.060591,80.6743429 C185.603591,81.9283429 184.823591,83.3503429 183.616591,84.4563429 Z M126.559591,52.4463429 C123.873591,52.4463429 121.261591,52.1443429 118.780591,52.5843429 C117.677591,52.7793429 116.652591,54.3513429 115.921591,55.5063429 C114.670591,57.4863429 113.670591,59.6243429 112.569591,61.6983429 C112.381591,62.2583429 112.189591,62.8283429 111.841591,63.8673429 C109.782591,62.2563429 108.038591,60.8923429 106.492591,59.6823429 C108.164591,57.8383429 109.914591,56.3273429 111.139591,54.4703429 C113.700591,50.5863429 117.268591,47.3933429 118.327591,42.4593429 C119.246591,38.1813429 120.299591,37.9273429 126.458591,38.3523429 C126.691591,40.2723429 126.948591,42.2343429 127.157591,44.2003429 C127.211591,44.7123429 127.117591,45.2403429 127.069591,46.2073429 C125.585591,45.9183429 124.296591,45.6673429 122.515591,45.3203429 C122.585591,46.6063429 122.664591,48.0663429 122.756591,49.7633429 C124.498591,49.9353429 125.928591,50.0753429 127.695591,50.2493429 C127.292591,51.0293429 126.904591,51.7793429 126.559591,52.4463429 Z M118.341591,57.9133429 C119.296591,54.8263429 119.296591,54.8263429 122.180591,56.3053429 C120.714591,56.9193429 119.528591,57.4163429 118.341591,57.9133429 Z M137.404591,69.4363429 C135.939591,69.0323429 134.733591,68.6993429 133.527591,68.3663429 C133.483591,68.0673429 133.438591,67.7683429 133.394591,67.4703429 C134.644591,66.6603429 135.895591,65.8513429 137.893591,64.5583429 C137.690591,66.5833429 137.576591,67.7233429 137.404591,69.4363429 Z M133.909591,87.1653429 C135.480591,87.4843429 136.801591,87.7523429 138.121591,88.0203429 C138.175591,88.3843429 138.230591,88.7483429 138.285591,89.1123429 C135.880591,87.9663429 135.299591,89.9263429 133.909591,90.8783429 C133.909591,89.8013429 133.909591,88.7243429 133.909591,87.1653429 Z M130.098591,106.591343 C131.482591,106.127343 132.136591,105.465343 132.384591,104.224343 C133.026591,101.005343 133.612591,97.7763429 134.265591,94.3113429 C135.941591,93.5253429 138.071591,92.7013429 140.013591,91.5593429 C141.467591,90.7033429 143.111591,89.6803429 142.829591,87.5593429 C142.636591,86.1013429 140.357591,84.7653429 138.005591,84.6183429 C137.072591,84.5603429 136.126591,84.6853429 135.196591,84.6073429 C134.427591,84.5423429 133.578591,84.4703429 132.927591,84.1083429 C130.764591,82.9053429 128.674591,81.5693429 126.273591,80.1123429 C126.273591,78.9653429 126.273591,77.5303429 126.273591,76.4523429 C123.149591,74.7683429 120.364591,73.2673429 117.471591,71.7083429 C118.472591,68.3653429 116.728591,66.4953429 113.843591,64.8873429 C115.274591,63.7123429 116.282591,62.6273429 117.509591,61.9303429 C120.063591,60.4803429 122.780591,59.3153429 125.338591,57.8703429 C126.573591,57.1723429 128.080591,56.3293429 128.630591,55.1603429 C130.441591,51.3153429 134.100591,50.4203429 137.915591,48.5113429 C138.148591,53.4223429 138.361591,57.8953429 138.564591,62.1623429 C135.848591,63.3653429 133.644591,64.3183429 131.460591,65.3173429 C129.908591,66.0263429 129.227591,67.2283429 129.794591,68.9033429 C130.759591,71.7533429 134.393591,73.8593429 137.251591,72.6903429 C140.852591,71.2183429 143.735591,72.2943429 146.438591,74.3863429 C148.216591,75.7623429 150.106591,75.8873429 152.121591,75.6503429 C153.287591,75.5143429 154.426591,75.1493429 156.670591,74.6393429 C155.463591,76.6823429 154.563591,77.8643429 154.036591,79.1943429 C153.510591,80.5213429 152.623591,82.4753429 153.174591,83.3223429 C155.216591,86.4633429 154.673591,90.0333429 155.485591,93.3473429 C156.019591,95.5243429 157.067591,97.2643429 158.838591,98.6493429 C162.916591,101.836343 167.390591,102.567343 172.378591,101.305343 C175.443591,100.530343 178.066591,98.6253429 178.199591,95.5743429 C178.306591,93.1173429 179.602591,92.1603429 181.236591,90.9193429 C183.138591,89.4743429 184.862591,87.7543429 186.465591,85.9753429 C187.226591,85.1303429 187.910591,83.8913429 187.967591,82.7963429 C188.189591,78.5263429 188.242591,74.2393429 188.136591,69.9643429 C188.109591,68.9023429 187.516591,67.5503429 186.723591,66.8663429 C183.910591,64.4433429 181.063591,61.9403429 177.190591,61.8763429 C176.049591,59.6513429 174.987591,57.6493429 173.999591,55.6113429 C173.727591,55.0503429 173.369591,54.2593429 173.564591,53.7833429 C175.736591,48.4713429 174.413591,43.8863429 170.860591,39.6933429 C170.615591,39.4043429 170.595591,38.9363429 170.415591,38.5803429 C169.096591,35.9823429 167.763591,33.3913429 166.302591,30.5403429 C160.876591,30.5403429 155.567591,30.5403429 150.128591,30.5403429 C150.520591,23.7393429 150.979591,17.3423429 151.214591,10.9363429 C151.306591,8.42534292 151.047591,5.87034292 150.628591,3.38934292 C150.492591,2.58534292 149.443591,1.49834292 148.635591,1.31434292 C142.872591,0.00234292266 137.047591,-0.532657077 131.172591,0.675342923 C130.126591,0.890342923 129.062591,1.05634292 127.997591,1.14234292 C111.198591,2.50334292 95.1945913,7.34934292 79.2485913,12.3753429 C72.4925913,14.5043429 65.8495913,17.0013429 59.1915913,19.4313429 C52.1715913,21.9933429 44.9525913,24.2303429 39.7975913,30.1883429 C39.3735913,30.6783429 38.7485913,31.0263429 38.1625913,31.3393429 C32.9835913,34.1063429 28.9245913,38.1053429 25.3095913,42.6683429 C23.3215913,45.1783429 21.2405913,47.6873429 18.8365913,49.7763429 C14.8065913,53.2783429 11.7365913,57.3723429 9.55559131,62.2123429 C8.34659131,64.8943429 7.07259131,67.5553429 5.66159131,70.1343429 C-0.783408695,81.9173429 -0.805408695,94.4693429 1.09859131,107.266343 C1.15759131,107.661343 1.22659131,108.070343 1.38259131,108.433343 C5.45059131,117.928343 9.82259131,126.934343 18.4985913,133.611343 C28.6195913,141.401343 39.8615913,146.318343 51.9565913,149.400343 C59.5675913,151.340343 67.4775913,152.117343 75.2635913,153.355343 C78.2895913,153.836343 81.3355913,154.409343 84.3825913,154.473343 C87.8385913,154.545343 91.3045913,153.915343 94.7665913,153.908343 C101.238591,153.895343 107.537591,152.918343 113.756591,151.201343 C115.837591,150.627343 117.322591,149.398343 118.306591,147.546343 C119.771591,144.785343 121.389591,142.186343 121.777591,138.860343 C122.062591,136.423343 121.728591,134.900343 119.924591,133.255343 C118.074591,131.569343 116.650591,129.416343 115.130591,127.578343 C117.629591,124.702343 120.286591,121.198343 123.414591,118.183343 C125.995591,115.696343 127.333591,113.207343 125.754591,109.556343 C127.275591,108.471343 128.546591,107.112343 130.098591,106.591343 L130.098591,106.591343 Z"/>
    <path fill="#000" d="M214.808591 42.0573429C213.226591 44.7543429 211.643591 47.4503429 210.060591 50.1463429 213.014591 49.1153429 214.263591 46.3633429 216.917591 44.3773429 216.676591 45.6903429 216.494591 46.6823429 216.145591 48.5843429 218.215591 46.1863429 219.708591 44.4563429 221.322591 42.5863429 222.272591 46.4133429 222.119591 46.9323429 219.429591 48.7353429 215.383591 51.4463429 210.820591 52.6873429 205.652591 53.7103429 208.098591 49.9603429 210.236591 46.6513429 212.412591 43.3663429 212.969591 42.5253429 213.491591 41.4673429 214.808591 42.0573429zM214.892591 41.9663429C214.537591 39.7583429 214.595591 39.7463429 217.419591 39.4653429 216.299591 40.5743429 215.589591 41.2763429 214.892591 41.9663429zM282.099591 73.4003429C281.395591 74.5243429 280.810591 75.7613429 280.395591 77.0213429 278.069591 84.0753429 274.338591 90.4273429 270.300591 96.5643429 268.273591 99.6433429 265.585591 102.319343 263.004591 104.992343 260.966591 107.102343 258.496591 108.794343 256.461591 110.906343 250.443591 117.154343 243.290591 121.797343 235.739591 125.894343 229.512591 129.272343 223.299591 132.683343 216.976591 135.872343 210.303591 139.237343 203.204591 140.719343 195.679591 140.186343 193.694591 140.045343 192.027591 139.500343 190.534591 138.304343 185.839591 134.543343 181.127591 130.800343 176.522591 126.931343 175.844591 126.361343 175.425591 125.159343 175.377591 124.225343 175.262591 121.960343 175.622591 119.667343 175.445591 117.412343 175.239591 114.798343 176.669591 113.413343 178.661591 112.395343 180.799591 111.301343 183.044591 110.417343 185.213591 109.380343 187.271591 108.395343 188.828591 106.833343 188.813591 104.471343 188.776591 98.6553429 192.713591 95.0703429 196.025591 91.1343429 197.984591 88.8053429 200.067591 86.7723429 203.122591 85.5903429 205.914591 84.5113429 208.431591 82.4933429 208.757591 78.5423429 205.840591 78.9243429 204.277591 78.1123429 202.831591 75.3683429 201.872591 77.2083429 201.058591 78.7703429 200.052591 80.7013429 197.572591 76.5593429 200.333591 72.9343429 199.945591 69.3873429 201.322591 68.6443429 202.623591 68.1823429 203.585591 67.3353429 204.159591 66.8293429 204.601591 65.5823429 204.371591 64.9233429 204.156591 64.3063429 202.963591 63.6443429 202.227591 63.6733429 200.510591 63.7413429 198.795591 64.1523429 197.120591 64.5843429 196.853591 64.6533429 196.801591 65.5503429 196.377591 66.9883429 195.596591 64.8663429 194.867591 63.4873429 194.637591 62.0303429 194.500591 61.1633429 194.864591 59.8563429 195.492591 59.2923429 197.974591 57.0633429 200.639591 55.0373429 203.276591 52.9873429 203.448591 52.8533429 203.951591 53.1433429 204.825591 53.3773429 203.207591 54.5343429 201.922591 55.4543429 200.636591 56.3743429 200.700591 56.6343429 200.764591 56.8953429 200.828591 57.1553429 202.961591 56.9273429 205.099591 56.7373429 207.226591 56.4613429 212.436591 55.7873429 217.472591 54.6193429 221.961591 51.6553429 224.531591 49.9583429 225.823591 47.7163429 225.875591 44.6513429 225.968591 39.2233429 222.759591 35.6063429 217.321591 35.7503429 212.006591 35.8903429 206.705591 36.5543429 200.784591 37.0383429 199.805591 34.2773429 198.742591 31.2773429 197.489591 27.7433429 198.126591 27.5083429 198.984591 27.0653429 199.893591 26.8813429 203.219591 26.2093429 206.354591 25.1053429 208.950591 22.8583429 211.745591 20.4393429 211.584591 18.1733429 208.297591 15.5053429 207.949591 16.0023429 207.613591 16.4813429 207.102591 17.2103429 204.067591 16.0253429 201.037591 16.1853429 198.121591 18.2503429 200.544591 15.1723429 202.888591 12.0263429 205.453591 9.07234292 206.000591 8.44234292 207.377591 8.22234292 208.330591 8.30434292 214.582591 8.84234292 220.872591 9.21634292 227.055591 10.2203429 234.564591 11.4403429 242.094591 12.8283429 249.401591 14.9003429 255.013591 16.4913429 260.510591 18.8583429 265.634591 21.6573429 268.275591 23.0993429 270.123591 26.1323429 272.092591 28.6333429 274.569591 31.7803429 277.162591 34.9263429 279.042591 38.4283429 280.977591 42.0323429 282.568591 45.9603429 283.476591 49.9363429 284.450591 54.1973429 284.677591 58.6733429 284.811591 63.0673429 284.921591 66.6893429 284.089591 70.2243429 282.099591 73.4003429zM176.596591 139.278343C176.596591 137.401343 176.596591 135.710343 176.596591 133.315343 179.801591 135.773343 182.569591 137.896343 185.762591 140.345343 182.179591 141.427343 179.334591 140.789343 176.596591 139.278343zM195.391591 73.0093429C194.718591 72.7813429 194.200591 72.6063429 193.728591 72.4463429 191.531591 75.6123429 196.751591 77.0543429 195.066591 79.9263429 190.480591 76.3863429 193.225591 71.2933429 191.890591 67.0643429 192.196591 66.9783429 192.503591 66.8923429 192.809591 66.8063429 193.799591 67.6593429 194.797591 68.5043429 195.772591 69.3743429 195.959591 69.5393429 196.059591 69.8013429 196.308591 70.1883429 196.028591 71.0503429 195.710591 72.0293429 195.391591 73.0093429zM196.575591 44.2233429C195.528591 40.0253429 194.325591 36.3663429 195.338591 32.3203429 195.572591 33.0783429 195.803591 33.8373429 196.040591 34.5943429 196.388591 35.7013429 196.532591 36.9373429 197.129591 37.8893429 198.800591 40.5533429 198.874591 40.5063429 196.575591 44.2233429zM193.112591 30.5443429C192.929591 30.5633429 192.746591 30.5823429 192.563591 30.6013429 192.532591 29.9663429 192.493591 29.3323429 192.477591 28.6973429 192.474591 28.5843429 192.541591 28.4083429 192.625591 28.3703429 192.717591 28.3283429 192.866591 28.4143429 193.225591 28.5003429 193.189591 29.1523429 193.151591 29.8483429 193.112591 30.5443429zM288.401591 53.1803429C287.559591 47.1873429 285.892591 41.3743429 282.526591 36.2693429 280.102591 32.5943429 277.402591 29.0833429 274.619591 25.6673429 272.607591 23.1963429 270.656591 20.2163429 267.972591 18.8453429 262.056591 15.8223429 255.843591 13.1663429 249.475591 11.3043429 242.578591 9.28734292 235.372591 8.32234292 228.294591 6.93634292 221.426591 5.59234292 214.496591 5.31934292 207.518591 5.73734292 205.515591 5.85634292 204.106591 6.60734292 202.729591 8.13634292 199.523591 11.6983429 196.114591 15.0883429 192.646591 18.3993429 191.115591 19.8613429 190.019591 21.2533429 190.163591 23.5323429 190.272591 25.2483429 190.019591 27.0113429 189.741591 28.7223429 189.271591 31.6153429 189.839591 34.1963429 191.177591 36.8203429 192.607591 39.6253429 194.071591 42.4393429 194.089591 45.8323429 194.100591 47.8853429 194.711591 50.0783429 197.119591 51.0873429 197.666591 51.3163429 197.906591 52.2753429 198.233591 52.8093429 197.900591 53.2523429 197.772591 53.5023429 197.574591 53.6683429 197.062591 54.0973429 196.560591 54.5643429 195.982591 54.8833429 190.183591 58.0823429 188.734591 63.2913429 189.221591 69.4053429 189.433591 72.0703429 189.530591 74.7553429 189.940591 77.3903429 190.110591 78.4803429 190.809591 79.5943429 191.544591 80.4633429 192.559591 81.6633429 193.835591 82.6423429 195.085591 83.7953429 195.364591 83.2473429 195.588591 82.8073429 195.812591 82.3673429 196.029591 86.1123429 194.967591 89.6653429 191.581591 91.6293429 187.598591 93.9393429 185.544591 97.2183429 185.171591 101.625343 184.945591 104.298343 183.452591 105.609343 181.134591 106.517343 179.030591 107.340343 176.953591 108.301343 175.006591 109.443343 172.153591 111.116343 170.651591 113.574343 170.790591 117.073343 170.902591 119.869343 170.500591 122.681343 170.455591 125.489343 170.436591 126.660343 170.324591 128.254343 170.991591 128.940343 173.967591 131.998343 174.210591 135.476343 173.377591 139.346343 172.957591 141.301343 173.760591 142.518343 175.788591 143.296343 180.321591 145.033343 184.805591 145.170343 189.547591 144.239343 193.186591 143.524343 196.980591 143.149343 200.678591 143.297343 207.008591 143.551343 212.903591 142.399343 218.463591 139.415343 225.414591 135.685343 232.420591 132.053343 239.299591 128.195343 245.959591 124.459343 252.286591 120.223343 257.867591 114.932343 260.387591 112.542343 263.061591 110.298343 265.799591 108.159343 269.009591 105.654343 271.679591 102.721343 273.805591 99.2623429 277.866591 92.6563429 282.103591 86.1473429 284.515591 78.6783429 284.882591 77.5433429 285.400591 76.4223429 286.037591 75.4153429 287.645591 72.8693429 288.319591 70.0813429 288.875591 67.1483429 289.772591 62.4163429 289.049591 57.7943429 288.401591 53.1803429L288.401591 53.1803429zM163.959591 131.633343C162.802591 130.687343 161.827591 129.890343 160.777591 129.032343 158.767591 129.546343 159.373591 131.381343 159.335591 133.078343 157.749591 131.795343 159.985591 129.625343 157.977591 128.787343 157.893591 126.446343 159.501591 125.084343 161.073591 123.169343 162.581591 125.947343 164.929591 127.939343 163.959591 131.633343zM157.789591 128.970343C157.516591 129.824343 157.230591 130.720343 156.779591 132.129343 155.947591 130.108343 156.921591 129.545343 157.789591 128.970343zM164.984591 122.374343C162.624591 119.484343 160.488591 119.272343 158.049591 122.060343 156.123591 124.261343 154.518591 126.754343 152.868591 129.184343 151.548591 131.128343 151.908591 133.122343 153.483591 134.669343 155.403591 136.555343 156.806591 139.425343 160.224591 138.967343 160.871591 138.880343 161.500591 138.567343 162.105591 138.288343 162.953591 137.895343 163.753591 137.397343 164.605591 137.013343 167.355591 135.772343 168.834591 133.807343 168.274591 130.682343 168.803591 127.262343 166.956591 124.791343 164.984591 122.374343L164.984591 122.374343zM140.352591 129.412343C141.142591 127.698343 141.810591 126.249343 142.633591 124.462343 143.722591 125.122343 144.885591 125.828343 146.122591 126.578343 143.283591 129.621343 142.930591 129.789343 140.352591 129.412343zM140.089591 120.367343C139.601591 120.441343 139.047591 120.731343 138.719591 121.097343 137.205591 122.785343 135.618591 124.441343 134.368591 126.316343 133.944591 126.951343 134.076591 128.480343 134.574591 129.106343 135.892591 130.762343 137.473591 132.240343 139.109591 133.596343 139.735591 134.114343 141.049591 134.572343 141.612591 134.263343 144.282591 132.793343 146.834591 131.096343 149.344591 129.358343 149.784591 129.053343 149.822591 128.166343 150.055591 127.521343 149.840591 126.725343 149.750591 125.900343 149.402591 125.205343 148.352591 123.111343 142.377591 120.018343 140.089591 120.367343L140.089591 120.367343zM141.605591 103.563343C144.114591 103.808343 145.765591 103.969343 148.173591 104.204343 145.411591 106.725343 145.411591 106.725343 141.605591 103.563343zM150.135591 100.935343C147.948591 100.378343 145.674591 100.163343 143.166591 99.7523429 141.825591 100.135343 140.258591 100.466343 138.783591 101.037343 137.312591 101.606343 136.168591 102.847343 136.471591 104.404343 136.696591 105.560343 137.609591 106.856343 138.597591 107.528343 140.221591 108.634343 142.121591 109.371343 143.967591 110.105343 145.719591 110.802343 147.970591 110.641343 148.676591 109.123343 149.449591 107.463343 150.820591 106.578343 151.740591 105.221343 153.026591 103.323343 152.416591 101.516343 150.135591 100.935343L150.135591 100.935343zM135.192591 141.538343C134.628591 142.254343 134.137591 142.877343 133.325591 143.908343 133.325591 142.082343 133.325591 140.856343 133.325591 139.435343 130.526591 139.533343 130.472591 141.757343 129.924591 143.294343 129.247591 145.190343 129.976591 146.615343 131.884591 146.894343 133.333591 147.106343 135.206591 146.995343 136.329591 146.218343 137.803591 145.197343 136.607591 143.565343 136.011591 142.268343 135.876591 141.973343 135.489591 141.793343 135.192591 141.538343M50.0315913 62.3893429C50.8895913 64.1043429 51.4675913 65.2613429 52.1155913 66.5553429 53.6345913 64.6473429 55.1145913 62.7883429 56.5945913 60.9303429 56.7355913 60.9843429 56.8765913 61.0383429 57.0175913 61.0923429 56.6285913 62.4793429 56.2405913 63.8653429 55.7205913 65.7173429 56.6725913 65.3353429 57.2175913 65.1173429 57.9245913 64.8343429 58.0855913 65.4313429 58.2405913 66.0103429 58.4875913 66.9293429 59.2985913 65.9793429 60.0055913 65.1503429 60.8405913 64.1703429 61.1475913 65.0433429 61.3545913 65.6333429 61.6495913 66.4733429 62.4375913 65.7233429 63.1495913 65.0453429 63.9335913 64.2983429 64.5465913 64.8613429 65.1465913 65.4113429 65.7355913 65.9513429 70.3405913 61.7903429 74.8465913 57.7193429 79.1865913 53.7973429 81.1405913 54.4843429 81.3395913 55.5403429 81.0715913 56.8523429 80.4165913 60.0433429 78.5535913 62.4473429 75.9595913 64.2353429 68.5025913 69.3753429 60.2285913 70.5253429 51.5085913 68.7603429 47.8255913 68.0153429 47.4735913 66.6843429 50.0315913 62.3893429zM48.6315913 72.2773429C51.6785913 73.1563429 54.8885913 73.4703429 58.0255913 74.0323429 63.8935913 74.1433429 69.2185913 72.4243429 74.3255913 69.9683429 78.6365913 67.8943429 82.1945913 64.8783429 84.3345913 60.4893429 87.0035913 55.0153429 85.4595913 51.3563429 80.0365913 48.7893429 73.9645913 45.9163429 67.6895913 47.9793429 61.5265913 47.5593429 61.1655913 47.5353429 60.7575913 47.7873429 60.4145913 47.9843429 57.5205913 49.6453429 54.5105913 51.1413429 51.7785913 53.0383429 47.3545913 56.1103429 45.0605913 60.5763429 44.5075913 65.8823429 44.1525913 69.2973429 45.3365913 71.3263429 48.6315913 72.2773429L48.6315913 72.2773429zM76.7525913 85.3463429C75.2905913 89.5593429 76.7485913 92.7573429 80.9725913 94.2693429 85.0995913 95.7453429 89.3795913 95.6533429 93.6445913 95.0733429 95.2915913 94.8493429 96.6605913 94.0303429 97.1585913 91.6113429 94.8495913 91.2433429 92.5895913 90.8833429 89.8605913 90.4483429 91.0205913 89.2013429 91.9635913 88.1863429 93.0505913 87.0173429 93.3155913 88.1273429 93.5085913 88.9363429 93.7875913 90.1063429 94.9705913 88.5213429 95.9185913 87.2523429 97.1695913 85.5743429 96.6785913 87.3413429 96.3175913 88.6373429 95.9575913 89.9323429 98.8115913 87.1193429 102.211591 84.7843429 102.670591 80.3093429 100.985591 79.2093429 99.3695913 78.1543429 98.2825913 77.4453429 96.5685913 78.9483429 95.2925913 80.0663429 93.6745913 81.4833429 93.9635913 79.8323429 94.1575913 78.7213429 94.3655913 77.5323429 93.6285913 77.1623429 93.0755913 76.7373429 92.4585913 76.5973429 86.9255913 75.3423429 78.6075913 79.9983429 76.7525913 85.3463429M68.8585913 111.387343C67.6995913 111.540343 66.8275913 111.654343 65.4605913 111.834343 66.5775913 110.044343 67.3975913 108.730343 68.3205913 107.252343 66.7575913 107.190343 62.2585913 105.730343 59.8335913 104.502343 59.3325913 105.192343 58.4565913 106.888343 58.1185913 106.786343 55.0595913 105.871343 54.5675913 108.774343 52.9045913 110.074343 52.6155913 109.359343 52.3525913 108.707343 52.0925913 108.064343 50.2005913 108.638343 47.6915913 107.915343 47.5395913 110.790343 46.0755913 110.606343 44.8725913 110.456343 43.6695913 110.305343 43.5075913 110.601343 43.3445913 110.898343 43.1825913 111.194343 44.0065913 112.101343 44.6895913 113.227343 45.6855913 113.866343 47.3605913 114.939343 49.1515913 115.978343 51.0405913 116.539343 55.5705913 117.886343 60.2205913 118.535343 64.7995913 116.753343 67.0575913 115.875343 68.9905913 114.519343 68.8585913 111.387343M40.1345913 81.4853429C39.2055913 81.4243429 38.3225913 81.3653429 37.1275913 81.2863429 37.8185913 80.0803429 38.3825913 79.0993429 38.9585913 78.0953429 35.7365913 76.9353429 32.2775913 79.1043429 29.3835913 76.7193429 29.1385913 76.5183429 27.9405913 77.1323429 27.4585913 77.6313429 26.5385913 78.5863429 25.7745913 79.7033429 25.0185913 80.8043429 23.4245913 83.1233429 21.7475913 85.2693429 18.5065913 85.0943429 18.3975913 85.0883429 18.2655913 85.5183429 17.9295913 86.1483429 19.1535913 86.8273429 20.3145913 87.7263429 21.6285913 88.1373429 23.2665913 88.6493429 25.0375913 88.7243429 26.7385913 89.0503429 31.4765913 89.9573429 35.4015913 88.2223429 38.9235913 85.2803429 40.0515913 84.3383429 41.0315913 83.2103429 40.1345913 81.4853429M95.6735913 109.097343C92.8825913 107.684343 89.8325913 108.533343 87.5315913 111.252343 86.4295913 112.556343 85.4005913 114.073343 86.4595913 115.545343 87.1785913 116.546343 88.8185913 116.886343 90.1735913 117.587343 92.3975913 116.718343 94.5455913 116.248343 96.2635913 115.121343 98.8885913 113.399343 98.4825913 110.519343 95.6735913 109.097343M108.318591 81.7343429C106.266591 80.1323429 105.301591 80.2103429 104.145591 82.4843429 103.189591 84.3663429 102.550591 86.4093429 101.798591 88.3913429 101.763591 88.4853429 101.992591 88.6793429 102.142591 88.8863429 102.579591 88.3323429 102.978591 87.8253429 103.295591 87.4233429 104.166591 88.2683429 104.879591 88.9603429 105.505591 89.5683429 107.428591 87.3133429 109.014591 85.4543429 110.710591 83.4663429 109.981591 82.9403429 109.128591 82.3653429 108.318591 81.7343429M56.9735913 84.2773429C55.3715913 85.9523429 53.8925913 87.4973429 52.4155913 89.0403429 55.5985913 91.7603429 59.4235913 91.1423429 62.9005913 87.2623429 62.1535913 87.1523429 61.4795913 87.0523429 60.7295913 86.9413429 61.1245913 86.2843429 61.4145913 85.8033429 61.5665913 85.5513429 59.9685913 85.1083429 58.5245913 84.7083429 56.9735913 84.2773429M72.8935913 135.991343C72.5145913 135.710343 71.7935913 135.888343 70.3915913 135.801343 73.9105913 140.036343 76.9225913 143.659343 79.9335913 147.282343 80.1495913 147.117343 80.3645913 146.952343 80.5805913 146.788343 78.5475913 142.825343 76.6375913 138.768343 72.8935913 135.991343M65.0105913 133.801343C64.6985913 136.834343 66.1825913 139.273343 71.4285913 144.350343 70.7135913 139.557343 67.5615913 134.377343 65.0105913 133.801343M94.4525913 56.0083429C96.3135913 56.1113429 98.0275913 55.0653429 98.2435913 53.7553429 98.4625913 52.4233429 97.2285913 51.3553429 95.3085913 51.2153429 93.3625913 51.0743429 92.0005913 52.0623429 91.8555913 53.9353429 91.7985913 55.5203429 93.0095913 55.9273429 94.4525913 56.0083429M80.2585913 137.856343C81.3025913 141.369343 84.8375913 145.242343 88.0585913 146.860343 85.8485913 143.170343 84.3655913 139.385343 80.2585913 137.856343M35.7245913 55.0853429C37.0765913 54.7623429 38.8335913 54.4453429 38.6755913 52.5753429 38.5985913 51.6673429 37.6075913 50.8373429 36.6075913 49.3373429 35.2285913 51.1893429 33.9515913 52.2733429 33.5595913 53.6153429 33.1965913 54.8563429 34.6205913 55.3493429 35.7245913 55.0853429M54.6615913 140.316343C53.0625913 137.471343 51.4895913 134.670343 49.5495913 131.216343 48.5735913 135.630343 50.4925913 138.633343 54.6615913 140.316343M41.1415913 138.087343C39.8485913 134.333343 38.6345913 130.811343 37.3375913 127.048343 35.5395913 130.487343 36.9875913 134.533343 41.1415913 138.087343M42.9815913 129.703343C42.6795913 133.967343 45.4405913 136.812343 48.4485913 139.559343 46.9145913 136.191343 45.3795913 132.822343 43.8455913 129.453343 43.5575913 129.536343 43.2695913 129.620343 42.9815913 129.703343M126.704591 13.9903429C126.828591 13.6593429 126.805591 12.9523429 126.660591 12.8943429 125.771591 12.5383429 124.795591 12.0313429 123.910591 12.1303429 122.860591 12.2463429 121.873591 12.9233429 120.749591 13.4053429 121.171591 14.2423429 121.274591 14.6503429 121.528591 14.9133429 122.818591 16.2553429 126.072591 15.6783429 126.704591 13.9903429M87.9435913 138.175343C87.6225913 138.525343 87.3015913 138.876343 86.9805913 139.226343 89.4945913 141.312343 92.0095913 143.398343 94.5235913 145.484343 93.3605913 141.871343 90.9555913 139.682343 87.9435913 138.175343M64.2285913 142.131343C61.7785913 139.001343 59.8295913 136.509343 57.3845913 133.386343 57.8295913 137.065343 59.8585913 139.564343 64.2285913 142.131343M34.1815913 134.756343C33.3665913 132.161343 33.6885913 130.027343 31.8705913 128.211343 30.9305913 130.910343 32.0425913 132.585343 34.1815913 134.756343M97.4515913 140.307343C99.0255913 142.649343 99.0255913 142.649343 101.648591 143.034343 100.336591 141.765343 99.6715913 140.099343 97.4515913 140.307343M149.045591 57.4693429C147.853591 59.0883429 146.812591 59.9623429 146.513591 61.0423429 146.130591 62.4283429 147.473591 63.7203429 148.825591 63.5953429 150.438591 63.4473429 151.272591 62.2923429 151.093591 60.8793429 150.970591 59.9153429 150.040591 59.0553429 149.045591 57.4693429M157.318591 62.6683429C157.439591 63.2733429 157.559591 63.8783429 157.680591 64.4833429 157.887591 64.4463429 158.095591 64.4093429 158.303591 64.3723429 158.210591 63.7613429 158.116591 63.1513429 158.023591 62.5413429 157.788591 62.5833429 157.553591 62.6263429 157.318591 62.6683429M139.101591 27.5493429C138.901591 28.0033429 138.754591 28.4813429 138.389591 29.4763429 139.478591 29.6723429 140.299591 30.0793429 140.641591 29.8293429 141.399591 29.2743429 142.045591 28.4533429 142.459591 27.6063429 142.593591 27.3323429 141.966591 26.3743429 141.501591 26.1833429 140.271591 25.6783429 139.562591 26.5013429 139.101591 27.5493429M145.124591 17.4193429C142.852591 17.4973429 143.087591 19.3403429 142.534591 21.0973429 145.449591 20.5373429 145.449591 20.5373429 145.124591 17.4193429M133.195591 31.3753429C133.054591 32.5553429 132.913591 33.7363429 132.771591 34.9163429 133.674591 33.7453429 134.786591 32.7103429 133.195591 31.3753429M131.364591 42.6963429C131.680591 42.8093429 131.996591 42.9233429 132.312591 43.0373429 132.626591 42.3633429 132.940591 41.6893429 133.254591 41.0163429 132.802591 40.8543429 132.349591 40.6913429 131.897591 40.5293429 131.719591 41.2513429 131.542591 41.9743429 131.364591 42.6963429M122.954591 95.9003429C120.860591 95.7923429 119.381591 97.3263429 119.326591 98.9983429 119.280591 100.402343 120.027591 101.249343 121.418591 101.350343 122.814591 101.451343 124.600591 99.7043429 124.347591 98.2333429 124.183591 97.2783429 123.300591 96.4473429 122.954591 95.9003429M170.751591 90.3483429C171.023591 90.6873429 172.321591 90.6153429 172.817591 90.2563429 173.465591 89.7863429 174.320591 88.4363429 174.133591 88.1913429 173.496591 87.3553429 172.450591 86.8293429 171.556591 86.1893429 171.073591 86.7743429 170.403591 87.3163429 170.267591 87.9703429 170.110591 88.7253429 170.289591 89.7743429 170.751591 90.3483429M112.534591 61.6133429C112.536591 61.6603429 112.538591 61.7073429 112.540591 61.7533429 112.538591 61.7573429 112.533591 61.7683429 112.533591 61.7683429 112.545591 61.7453429 112.557591 61.7223429 112.569591 61.6983429 112.573591 61.6863429 112.577591 61.6743429 112.581591 61.6623429 112.564591 61.6453429 112.550591 61.6303429 112.534591 61.6133429M111.204591 58.1103429C110.956591 59.9813429 110.956591 60.0033429 112.534591 61.6133429 112.483591 60.3673429 112.472591 59.1053429 111.204591 58.1103429"/>
    <path fill="#000" d="M224.324591 68.9613429C223.966591 70.4403429 223.743591 71.3603429 223.369591 72.9023429 221.755591 70.8433429 222.690591 70.1073429 224.324591 68.9613429zM230.327591 72.1393429C230.985591 72.1293429 231.951591 71.7603429 232.224591 71.2523429 232.885591 70.0233429 233.528591 70.2463429 234.513591 71.0283429 235.560591 69.5623429 236.403591 68.3813429 237.391591 66.9963429 238.015591 68.1193429 238.489591 68.9713429 238.962591 69.8223429 240.990591 68.7523429 241.057591 64.0233429 245.327591 67.2773429 239.448591 72.5463429 233.011591 74.5673429 225.493591 73.0403429 226.079591 72.5743429 229.397591 72.1543429 230.327591 72.1393429zM222.412591 76.9463429C224.751591 77.7853429 227.348591 77.9073429 229.476591 78.2903429 231.744591 77.9893429 233.638591 77.9363429 235.422591 77.4623429 239.824591 76.2933429 244.119591 74.6983429 247.558591 71.6223429 251.399591 68.1863429 250.729591 64.2563429 246.098591 62.1453429 243.012591 60.7373429 239.766591 60.1083429 236.356591 60.7793429 235.452591 60.9573429 234.518591 61.1973429 233.617591 61.1323429 228.256591 60.7503429 224.054591 63.2223429 220.361591 66.6563429 216.324591 70.4073429 217.240591 75.0903429 222.412591 76.9463429L222.412591 76.9463429zM230.040591 99.8183429C227.613591 99.1193429 229.980591 97.1513429 228.991591 95.7703429 226.461591 96.4163429 225.290591 98.7933429 223.670591 100.693343 223.271591 100.200343 222.811591 99.8263429 222.268591 99.6403429 223.575591 98.0973429 224.885591 96.5493429 225.173591 94.1533429 223.644591 94.9203429 222.649591 95.4203429 221.636591 95.9283429 221.581591 95.0373429 221.530591 94.2033429 221.451591 92.9023429 220.450591 93.3093429 219.956591 93.3503429 219.761591 93.6123429 217.896591 96.1333429 215.991591 98.6303429 214.172591 101.182343 213.688591 101.741343 213.181591 102.277343 212.659591 102.798343 212.387591 102.308343 212.146591 101.800343 211.930591 101.274343 212.912591 99.9973429 213.733591 98.6423429 214.016591 96.9933429 213.776591 96.8013429 213.537591 96.6093429 213.297591 96.4173429 212.342591 97.2063429 211.387591 97.9953429 210.427591 98.7883429 209.889591 98.4853429 209.335591 98.1743429 208.781591 97.8623429 207.899591 99.8363429 205.957591 99.1273429 204.488591 99.4543429 201.242591 100.177343 199.982591 102.919343 198.307591 105.167343 196.802591 105.313343 195.394591 105.449343 193.973591 105.586343 193.608591 108.487343 195.793591 108.877343 197.373591 109.557343 202.950591 111.956343 208.724591 112.316343 214.604591 110.798343 219.912591 109.428343 224.381591 106.551343 228.336591 102.868343 229.148591 102.113343 229.484591 100.848343 230.040591 99.8183429M267.466591 52.0023429C266.734591 52.4253429 266.130591 52.7743429 265.536591 53.1173429 265.496591 53.1383429 265.456591 53.1613429 265.416591 53.1873429 265.412591 53.1893429 265.409591 53.1913429 265.406591 53.1923429 265.264591 52.6863429 265.108591 52.1303429 264.725591 50.7603429 263.876591 52.1363429 263.136591 53.3373429 262.449591 54.4513429 262.273591 54.4733429 262.106591 54.6033429 262.052591 54.8103429 262.050591 54.8193429 262.047591 54.8353429 262.044591 54.8473429 261.571591 54.6823429 261.321591 54.3083429 260.815591 54.2223429 261.008591 53.4803429 261.209591 52.7113429 261.421591 51.8983429 260.260591 52.5773429 259.431591 53.0623429 258.602591 53.5473429L258.602591 54.7383429C258.558591 54.6393429 258.487591 54.5723429 258.401591 54.5363429 258.465591 54.2103429 258.528591 53.8843429 258.591591 53.5583429 258.569591 53.2713429 258.548591 52.9843429 258.526591 52.6983429 258.399591 52.7223429 258.189591 52.7073429 258.155591 52.7773429 257.864591 53.3743429 257.592591 53.9813429 257.311591 54.5833429 257.214591 54.2813429 256.733591 54.2403429 256.556591 54.5043429 256.527591 54.5023429 256.497591 54.4993429 256.469591 54.5023429 256.178591 54.5263429 255.886591 54.6413429 255.605591 54.8153429 255.704591 54.3383429 255.795591 53.9073429 255.885591 53.4773429 254.254591 54.9653429 253.399591 56.9993429 250.841591 57.2123429 255.125591 61.9173429 262.149591 62.5823429 266.627591 58.8853429 268.290591 57.5113429 270.069591 56.0373429 270.097591 53.3963429 269.219591 53.6083429 268.608591 53.7553429 268.003591 53.9003429 267.807591 53.2083429 267.646591 52.6383429 267.466591 52.0023429M240.410591 40.6693429C239.560591 41.3103429 238.720591 42.4733429 238.645591 43.4673429 238.588591 44.2183429 239.584591 45.4813429 240.385591 45.7783429 242.336591 46.5033429 244.445591 46.7983429 246.491591 47.2663429 246.514591 47.1633429 246.536591 47.0613429 246.559591 46.9583429 247.487591 46.9583429 248.425591 47.0513429 249.340591 46.9403429 251.971591 46.6233429 253.529591 45.2383429 253.415591 43.4303429 253.310591 41.7623429 251.840591 40.6263429 249.355591 40.3743429 247.381591 40.1743429 245.400591 39.9393429 243.421591 39.9253429 242.401591 39.9183429 241.177591 40.0923429 240.410591 40.6693429M238.625591 33.9813429C242.064591 34.0783429 245.262591 33.6893429 247.422591 30.1863429 246.866591 29.9213429 246.429591 29.7143429 245.904591 29.4643429 246.194591 28.8493429 246.511591 28.1773429 246.811591 27.5423429 245.728591 27.0913429 244.741591 26.6803429 243.633591 26.2193429 242.697591 27.6853429 241.705591 29.2383429 240.714591 30.7913429 240.483591 30.6513429 240.252591 30.5113429 240.021591 30.3713429 240.406591 29.3303429 240.792591 28.2893429 241.323591 26.8533429 239.148591 27.2203429 237.290591 26.7663429 236.242591 28.5673429 233.697591 27.6053429 233.391591 30.8863429 231.034591 30.6843429 233.031591 34.0863429 235.863591 33.9043429 238.625591 33.9813429M241.110591 82.4833429C240.332591 82.2783429 239.341591 82.8853429 238.153591 83.2143429 236.995591 81.4683429 234.644591 81.9783429 232.521591 82.2683429 231.699591 82.3803429 230.511591 83.4363429 230.413591 84.1833429 230.317591 84.9143429 231.215591 86.1593429 231.994591 86.5523429 235.132591 88.1383429 238.453591 87.9123429 241.627591 86.6523429 242.413591 86.3403429 243.374591 85.0533429 243.283591 84.3393429 243.189591 83.6093429 241.984591 82.7133429 241.110591 82.4833429M181.364591 117.041343C180.779591 117.501343 180.523591 118.382343 179.842591 119.538343 181.908591 119.412343 183.292591 119.327343 184.945591 119.225343 182.903591 121.324343 179.691591 120.343343 177.723591 122.835343 181.559591 123.806343 184.741591 122.819343 187.780591 121.610343 189.709591 120.844343 190.045591 118.903343 188.860591 117.733343 187.407591 116.299343 182.943591 115.801343 181.364591 117.041343M249.101591 100.175343C247.649591 104.964343 246.236591 109.628343 244.823591 114.292343 248.744591 111.627343 250.498591 107.666343 251.433591 103.327343 251.785591 101.698343 251.374591 100.109343 249.101591 100.175343M225.943591 24.1853429C225.783591 23.5593429 224.740591 23.0663429 223.991591 22.7223429 223.575591 22.5313429 222.963591 22.7673429 222.440591 22.8103429 222.406591 22.7063429 222.372591 22.6023429 222.339591 22.4973429 221.000591 22.9133429 219.525591 23.1023429 218.359591 23.8043429 216.963591 24.6443429 217.094591 26.1823429 218.366591 27.0323429 219.839591 28.0173429 223.876591 27.8533429 225.098591 26.5623429 225.649591 25.9803429 226.120591 24.8773429 225.943591 24.1853429M211.772591 123.165343C210.602591 127.192343 209.432591 131.219343 208.041591 136.005343 211.618591 131.836343 213.863591 128.088343 212.674591 123.276343 212.373591 123.239343 212.073591 123.202343 211.772591 123.165343M201.790591 138.525343C205.795591 134.358343 207.252591 129.837343 205.385591 126.806343 203.600591 130.596343 202.709591 134.284343 201.790591 138.525343M253.723591 109.286343C257.300591 103.530343 257.729591 101.912343 256.389591 98.8423429 254.351591 102.001343 252.987591 104.898343 253.723591 109.286343M216.919591 130.917343C221.209591 126.466343 222.341591 122.853343 220.436591 119.631343 219.268591 123.378343 218.218591 126.749343 216.919591 130.917343M195.363591 137.564343C197.995591 135.099343 199.044591 131.882343 199.623591 128.426343 196.762591 130.818343 196.589591 134.417343 195.363591 137.564343M260.983591 79.5203429C263.171591 78.8893429 264.784591 77.6503429 265.522591 75.2583429 262.980591 76.2843429 260.755591 77.1823429 258.281591 78.1813429 259.861591 79.7753429 259.880591 79.8383429 260.983591 79.5203429M228.145591 122.021343C231.706591 119.673343 232.049591 118.662343 230.462591 115.518343 229.563591 118.042343 228.854591 120.032343 228.145591 122.021343M261.300591 98.7703429C260.669591 100.558343 261.525591 101.709343 263.412591 102.401343 263.672591 101.250343 264.066591 100.270343 264.051591 99.2963429 264.041591 98.7093429 263.397591 98.1323429 263.038591 97.5503429 262.437591 97.9493429 261.492591 98.2273429 261.300591 98.7703429M233.962591 120.159343C234.242591 120.297343 234.522591 120.435343 234.802591 120.573343 235.359591 119.410343 235.916591 118.248343 236.747591 116.513343 233.756591 117.124343 234.056591 118.748343 233.962591 120.159343"/>
  </g>
</svg>
