<svg xmlns="http://www.w3.org/2000/svg" width="170" height="260" viewBox="0 0 170 260">
  <g fill="none" fill-rule="evenodd">
    <path fill="#000" d="M159.342307,43.239506 C159.085307,44.622506 158.914307,45.536506 158.728307,46.538506 C159.836307,46.529506 160.788307,46.521506 162.289307,46.508506 C161.139307,45.233506 160.384307,44.395506 159.342307,43.239506 Z M152.523307,46.129506 C152.791307,46.127506 153.059307,46.125506 153.327307,46.124506 C154.204307,44.446506 153.309307,42.660506 153.246307,40.945506 C153.095307,36.804506 153.041307,36.806506 152.440307,36.052506 C152.466307,39.201506 152.495307,42.665506 152.523307,46.129506 Z M157.311307,46.498506 C156.206307,43.897506 156.470307,41.289506 154.581307,38.559506 C154.606307,41.664506 154.625307,44.007506 154.646307,46.520506 C155.486307,46.513506 156.203307,46.507506 157.311307,46.498506 Z M146.423307,45.281506 C146.667307,45.174506 146.912307,45.066506 147.157307,44.959506 C147.565307,40.279506 146.569307,27.284506 145.516307,25.697506 C145.567307,31.864506 145.596307,37.752506 145.696307,43.640506 C145.706307,44.191506 146.170307,44.734506 146.423307,45.281506 Z M151.150307,33.746506 C150.091307,36.674506 150.708307,39.893506 149.820307,42.965506 C149.429307,41.886506 149.319307,40.818506 149.295307,39.749506 C149.235307,37.016506 149.257307,34.280506 149.148307,31.550506 C149.120307,30.843506 148.732307,30.150506 148.509307,29.451506 C148.398307,29.501506 148.287307,29.552506 148.177307,29.603506 C148.220307,34.826506 148.262307,40.049506 148.308307,45.569506 C149.517307,45.762506 150.493307,45.917506 152.008307,46.159506 C151.698307,41.680506 151.424307,37.713506 151.150307,33.746506 Z M130.159307,40.820506 C132.487307,41.218506 134.504307,41.562506 136.768307,41.948506 C136.847307,40.050506 136.923307,38.228506 137.002307,36.337506 C134.553307,35.516506 132.369307,35.776506 130.121307,36.270506 C130.134307,37.840506 130.146307,39.239506 130.159307,40.820506 Z M142.312307,30.588506 C141.942307,30.599506 141.571307,30.610506 141.200307,30.621506 C141.065307,34.176506 140.902307,37.729506 140.802307,41.284506 C140.718307,44.259506 141.108307,44.602506 144.743307,44.764506 C144.508307,37.500506 144.273307,30.261506 144.039307,23.022506 C143.763307,23.021506 143.487307,23.019506 143.210307,23.018506 C143.246307,27.315506 143.281307,31.611506 143.316307,35.908506 C143.141307,35.911506 142.966307,35.914506 142.791307,35.917506 C142.632307,34.141506 142.472307,32.364506 142.312307,30.588506 Z M80.6293073,3.92350598 C77.6433073,3.79250598 75.3383073,5.10250598 73.6553073,8.02950598 C70.9613073,12.711506 72.1853073,16.884506 74.7773073,20.998506 C76.6843073,24.023506 79.2503073,25.605506 83.0463073,25.144506 C87.1473073,24.645506 90.1003073,22.804506 91.5533073,18.907506 C94.1603073,11.915506 88.4103073,3.86350598 80.6293073,3.92350598 Z M136.726307,52.903506 C135.823307,55.010506 134.060307,54.988506 132.449307,55.111506 C130.506307,55.259506 128.470307,55.786506 126.692307,54.532506 C126.194307,54.181506 125.779307,53.547506 125.593307,52.958506 C125.302307,52.033506 125.091307,51.035506 125.100307,50.070506 C125.154307,44.473506 125.281307,38.878506 125.385307,33.281506 C125.387307,33.172506 125.385307,33.061506 125.398307,32.953506 C125.658307,30.723506 126.830307,30.135506 128.745307,31.211506 C129.470307,31.618506 130.249307,32.007506 131.051307,32.183506 C133.027307,32.617506 135.031307,32.922506 137.257307,33.321506 C137.224307,29.306506 137.189307,25.011506 137.150307,20.250506 C133.697307,20.593506 130.464307,21.025506 127.216307,21.215506 C117.028307,21.810506 106.837307,22.355506 96.6433073,22.820506 C94.5813073,22.914506 93.0133073,23.356506 91.4573073,24.958506 C86.9783073,29.572506 79.5783073,30.737506 74.9503073,27.070506 C71.6303073,24.439506 68.3023073,23.884506 64.3953073,24.072506 C61.2233073,24.224506 58.0323073,23.964506 54.8493073,23.897506 C48.7053073,23.769506 42.5583073,23.490506 36.4163073,23.562506 C27.9413073,23.662506 19.5263073,23.337506 11.1853073,21.690506 C9.19730726,21.298506 7.13830726,21.259506 4.73230726,21.020506 C6.80530726,32.977506 6.05130726,44.523506 6.46730726,56.021506 C6.49130726,56.679506 6.52830726,57.337506 6.53330726,57.996506 C6.69630726,80.613506 6.96330726,103.230506 6.97830726,125.847506 C6.98830726,141.215506 6.30130726,156.588506 6.54630726,171.949506 C6.84530726,190.618506 7.29730726,209.267506 5.81330726,227.908506 C5.30030726,234.357506 5.10430726,240.830506 4.64030726,247.284506 C4.43730726,250.114506 3.92730726,252.923506 3.53830726,255.873506 C4.18330726,255.960506 4.70630726,256.100506 5.22730726,256.092506 C20.5943073,255.869506 35.9613073,255.579506 51.3293073,255.413506 C63.7353073,255.279506 76.1423073,255.300506 88.5493073,255.238506 C110.618307,255.129506 132.688307,255.017506 154.757307,254.868506 C155.887307,254.860506 157.014307,254.492506 158.596307,254.211506 C158.251307,251.732506 157.877307,249.607506 157.676307,247.465506 C157.413307,244.646506 157.155307,241.815506 157.134307,238.987506 C157.112307,235.925506 157.667307,232.838506 157.440307,229.802506 C156.785307,221.029506 157.457307,212.275506 157.546307,203.516506 C157.652307,193.094506 158.149307,182.675506 158.438307,172.254506 C158.793307,159.418506 159.091307,146.580506 159.452307,133.744506 C159.569307,129.575506 159.647307,125.395506 160.024307,121.245506 C160.708307,113.709506 161.442307,106.170506 162.443307,98.671506 C164.480307,83.397506 164.532307,68.023506 165.070307,52.671506 C165.080307,52.385506 164.879307,52.092506 164.745307,51.713506 C159.631307,51.461506 154.555307,51.212506 149.305307,50.953506 C149.314307,52.007506 149.349307,52.874506 149.322307,53.739506 C149.282307,54.971506 149.203307,56.434506 147.671307,56.518506 C146.163307,56.600506 145.876307,55.087506 145.610307,53.936506 C145.320307,52.677506 145.241307,51.369506 145.079307,50.148506 C137.525307,48.079506 137.589307,46.872506 136.243307,44.119506 C134.238307,44.469506 132.234307,44.819506 130.277307,45.162506 C130.291307,46.938506 130.304307,48.527506 130.316307,49.989506 C132.556307,51.002506 135.279307,50.286506 136.726307,52.903506 Z M68.0313073,19.197506 C67.8803073,17.790506 67.7653073,16.923506 67.6973073,16.053506 C67.2253073,9.99450598 70.5533073,3.72650598 76.0553073,1.15650598 C80.0793073,-0.722494021 84.2103073,-0.248494021 88.0053073,2.11850598 C93.1933073,5.35250598 95.8903073,9.91850598 95.2773073,16.179506 C95.2353073,16.601506 95.2783073,17.031506 95.2803073,17.351506 C95.5993073,17.588506 95.7743073,17.832506 95.9403073,17.826506 C103.175307,17.561506 110.417307,17.391506 117.643307,16.955506 C124.212307,16.558506 130.771307,15.947506 137.319307,15.283506 C142.578307,14.750506 146.770307,17.115506 149.470307,21.004506 C153.740307,27.156506 158.378307,32.950506 163.320307,38.539506 C164.550307,39.931506 165.609307,41.477506 166.874307,42.833506 C168.560307,44.640506 169.406307,46.595506 168.875307,49.118506 C168.608307,50.388506 168.546307,51.735506 168.611307,53.036506 C169.376307,68.314506 168.359307,83.515506 167.197307,98.748506 C166.263307,110.994506 164.842307,123.191506 164.306307,135.496506 C163.537307,153.178506 164.333307,170.860506 163.536307,188.510506 C162.931307,201.898506 162.819307,215.282506 162.545307,228.670506 C162.464307,232.606506 161.839307,236.527506 161.677307,240.464506 C161.598307,242.407506 161.691307,244.470506 162.267307,246.302506 C163.229307,249.363506 162.900307,252.384506 162.697307,255.438506 C162.591307,257.045506 161.672307,258.129506 160.111307,258.451506 C158.187307,258.849506 156.228307,259.326506 154.282307,259.334506 C126.939307,259.439506 99.5963073,259.505506 72.2533073,259.506506 C52.8173073,259.506506 33.3803073,259.417506 13.9443073,259.312506 C9.78730726,259.289506 5.63130726,259.026506 1.04830726,258.859506 C0.76830726,257.734506 0.29030726,256.413506 0.14130726,255.056506 C-0.0376927398,253.426506 -0.0236927398,251.762506 0.0573072602,250.120506 C0.73730726,236.200506 1.64530726,222.288506 2.08830726,208.361506 C2.38430726,199.040506 2.02230726,189.698506 1.97330726,180.366506 C1.90230726,166.537506 1.75430726,152.708506 1.80630726,138.879506 C1.90830726,111.760506 2.17730726,84.641506 2.26930726,57.521506 C2.30930726,45.883506 2.07330726,34.244506 1.97930726,22.605506 C1.95330726,19.398506 2.45930726,18.699506 5.63530726,18.408506 C8.02630726,18.189506 10.4933073,18.075506 12.8563073,18.408506 C19.5223073,19.349506 26.2083073,19.305506 32.9053073,19.278506 C41.2413073,19.245506 49.5783073,19.285506 57.9143073,19.277506 C61.1853073,19.274506 64.4553073,19.227506 68.0313073,19.197506 L68.0313073,19.197506 Z"/>
    <path fill="#000" d="M122.003307 152.725506C128.106307 153.101506 133.597307 152.746506 139.267307 150.601506 133.925307 148.973506 128.957307 147.825506 123.519307 148.678506 123.091307 149.821506 122.643307 151.017506 122.003307 152.725506zM97.0543073 149.069506C97.0163073 149.468506 96.9793073 149.867506 96.9413073 150.266506 103.610307 151.083506 110.239307 152.222506 117.092307 152.494506 117.649307 151.156506 118.137307 149.984506 118.881307 148.195506 111.216307 148.502506 104.135307 148.786506 97.0543073 149.069506zM141.915307 155.731506C141.704307 155.543506 141.492307 155.355506 141.281307 155.167506 140.465307 155.405506 139.636307 155.606506 138.834307 155.885506 132.029307 158.256506 124.966307 158.045506 117.991307 157.485506 111.122307 156.933506 104.314307 155.629506 97.4753073 154.690506 96.6743073 154.579506 95.8423073 154.687506 94.8843073 154.695506 95.3133073 156.551506 95.7323073 158.138506 96.0423073 159.746506 97.3693073 166.612506 102.125307 170.710506 108.074307 173.044506 113.798307 175.289506 120.021307 175.716506 126.224307 174.815506 129.798307 174.296506 132.626307 172.614506 134.587307 169.577506 136.013307 167.368506 137.476307 165.168506 138.703307 162.847506 139.917307 160.551506 140.856307 158.109506 141.915307 155.731506zM125.592307 143.041506C130.692307 143.928506 135.309307 144.726506 139.924307 145.538506 140.570307 145.651506 141.216307 145.794506 141.842307 145.987506 147.148307 147.629506 148.223307 149.198506 147.148307 154.594506 146.618307 157.254506 145.865307 159.963506 144.660307 162.374506 142.855307 165.988506 140.685307 169.440506 138.451307 172.816506 135.388307 177.445506 130.787307 179.546506 125.390307 180.048506 119.421307 180.603506 113.432307 180.152506 107.849307 178.170506 99.3273073 175.144506 93.2013073 169.565506 91.6323073 160.064506 91.1003073 156.843506 90.2653073 153.671506 89.7073073 150.453506 89.6023073 149.850506 90.0193073 149.028506 90.4323073 148.488506 92.0183073 146.411506 94.4163073 145.762506 96.8043073 145.461506 102.015307 144.804506 107.251307 144.327506 112.483307 143.858506 115.194307 143.614506 117.921307 143.544506 120.498307 143.404506 122.165307 139.840506 123.663307 136.564506 125.237307 133.324506 125.663307 132.447506 126.180307 131.512506 126.910307 130.917506 127.476307 130.456506 128.631307 130.113506 129.172307 130.395506 129.700307 130.671506 130.106307 131.861506 129.986307 132.548506 129.783307 133.703506 129.123307 134.780506 128.651307 135.887506 127.629307 138.281506 126.604307 140.674506 125.592307 143.041506L125.592307 143.041506zM93.9323073 215.774506C94.0033073 224.373506 94.0733073 232.840506 94.1443073 241.474506 108.074307 242.477506 122.115307 242.102506 135.788307 240.920506 136.825307 232.586506 137.858307 224.284506 138.943307 215.569506 123.799307 217.647506 109.081307 217.727506 93.9323073 215.774506zM107.192307 246.049506C104.934307 246.068506 100.436307 246.123506 95.9383073 246.128506 94.9573073 246.129506 93.9593073 246.034506 92.9983073 245.839506 90.2043073 245.272506 89.5193073 244.440506 89.6353073 241.551506 89.9753073 233.111506 90.3523073 224.671506 90.7533073 216.233506 90.8843073 213.474506 91.7803073 212.570506 94.6963073 212.581506 98.8613073 212.596506 103.025307 212.854506 107.190307 212.932506 117.068307 213.116506 126.944307 213.223506 136.750307 211.675506 137.398307 211.572506 138.063307 211.544506 138.720307 211.550506 142.606307 211.585506 143.799307 213.049506 143.321307 216.883506 142.480307 223.623506 141.580307 230.362506 141.015307 237.127506 140.784307 239.891506 139.384307 241.819506 137.677307 243.580506 136.942307 244.337506 135.514307 244.613506 134.359307 244.743506 126.079307 245.679506 117.814307 246.934506 107.192307 246.049506L107.192307 246.049506zM19.7523073 114.330506C19.6283073 115.724506 19.4623073 116.791506 19.4513073 117.859506 19.4153073 121.365506 19.3663073 124.873506 19.4483073 128.377506 19.6073073 135.182506 20.0463073 135.564506 26.7903073 135.358506 29.5913073 135.273506 30.6263073 134.462506 30.7503073 131.690506 31.0343073 125.345506 31.1483073 118.993506 31.3603073 112.644506 31.4143073 111.015506 30.7913073 109.786506 29.7853073 108.495506 28.9023073 107.363506 28.4853073 105.817506 28.0613073 104.395506 27.7923073 103.494506 27.8873073 102.483506 27.8083073 101.358506 25.8633073 101.374506 24.0973073 101.389506 22.5423073 101.402506 21.9113073 104.770506 21.3393073 107.826506 20.7323073 111.072506 22.2933073 111.059506 23.7063073 110.994506 25.1143073 111.053506 26.1993073 111.098506 27.3433073 111.120506 28.3353073 111.491506 29.0093073 111.742506 29.8483073 112.524506 29.9373073 113.163506 30.1083073 114.379506 28.9083073 114.325506 28.0683073 114.383506 27.4193073 114.428506 26.7583073 114.284506 26.1023073 114.284506 24.0523073 114.284506 22.0013073 114.311506 19.7523073 114.330506zM14.7943073 125.715506C15.0073073 121.880506 15.0733073 118.030506 15.4913073 114.218506 15.7143073 112.181506 16.5853073 110.221506 17.0883073 108.207506 17.6693073 105.884506 18.1733073 103.542506 18.6983073 101.206506 19.1513073 99.194506 19.4593073 97.135506 20.1063073 95.189506 20.3083073 94.580506 21.3753073 93.949506 22.0983073 93.880506 24.2773073 93.672506 26.4853073 93.642506 28.6753073 93.721506 30.6273073 93.792506 31.4213073 94.588506 31.7623073 96.483506 31.9173073 97.343506 31.9073073 98.231506 32.0493073 99.094506 32.5863073 102.366506 32.5553073 105.759506 35.1083073 108.479506 35.8603073 109.279506 35.8803073 110.975506 35.8613073 112.255506 35.7663073 118.838506 35.5953073 125.422506 35.3553073 132.002506 35.2503073 134.886506 34.0833073 137.315506 31.6243073 138.995506 31.2623073 139.242506 30.9003073 139.621506 30.5063073 139.667506 26.5923073 140.128506 22.6333073 140.751506 18.8703073 139.013506 16.3603073 137.853506 15.0793073 135.768506 15.0483073 132.970506 15.0213073 130.554506 15.0063073 128.139506 14.9863073 125.723506 14.9223073 125.721506 14.8583073 125.718506 14.7943073 125.715506L14.7943073 125.715506zM52.5623073 205.490506C53.9643073 205.146506 55.4903073 204.924506 56.8973073 204.388506 58.6033073 203.738506 59.3483073 202.175506 58.9113073 200.753506 58.1693073 198.340506 55.0513073 197.232506 52.8453073 198.564506 52.1043073 199.011506 51.3323073 199.507506 50.5093073 199.696506 48.0583073 200.260506 46.5653073 198.973506 46.5453073 196.403506 46.5423073 196.015506 46.6153073 195.627506 46.6873073 194.893506 42.2023073 194.930506 38.0023073 194.964506 33.8303073 194.999506 33.1733073 198.261506 32.7503073 199.036506 31.0443073 199.532506 28.2643073 200.341506 26.2233073 199.028506 24.3323073 196.619506 22.9653073 197.723506 21.5263073 198.558506 20.5323073 199.761506 18.8003073 201.855506 19.2353073 203.328506 21.7263073 204.302506 23.1423073 204.856506 24.6483073 205.231506 26.1463073 205.510506 33.3033073 206.847506 40.5043073 206.517506 47.6123073 206.130506 49.2703073 203.068506 50.7253073 202.876506 52.5623073 205.490506zM40.1543073 211.520506C35.0503073 210.999506 29.9293073 210.608506 24.8533073 209.895506 22.8383073 209.612506 20.8223073 208.820506 18.9863073 207.901506 15.6333073 206.222506 14.5383073 202.608506 16.1703073 199.234506 17.3513073 196.794506 19.0473073 194.697506 21.6783073 193.874506 25.4223073 192.703506 29.2153073 191.464506 33.0793073 190.961506 39.2853073 190.153506 45.5353073 190.261506 51.6053073 192.264506 53.6783073 192.948506 55.7943073 193.506506 57.8993073 194.090506 60.8873073 194.920506 63.4173073 197.917506 63.6483073 200.944506 63.8883073 204.080506 62.3123073 207.349506 59.2523073 208.310506 55.4243073 209.511506 51.4013073 210.175506 47.4173073 210.763506 45.0573073 211.110506 42.6083073 210.862506 40.2003073 210.882506 40.1843073 211.095506 40.1693073 211.307506 40.1543073 211.520506L40.1543073 211.520506zM19.2523073 176.690506C24.1753073 176.998506 29.1143073 177.140506 34.0153073 177.654506 40.9563073 178.383506 47.8123073 177.479506 54.7063073 177.070506 64.2383073 176.504506 73.7833073 176.150506 83.3243073 175.726506 84.1973073 175.687506 85.1613073 175.580506 85.9303073 175.887506 86.7393073 176.210506 87.8143073 176.892506 87.9713073 177.595506 88.2653073 178.918506 87.0363073 179.420506 85.9043073 179.618506 85.0433073 179.769506 84.1573073 179.779506 83.2803073 179.823506 72.8643073 180.351506 62.4203073 180.571506 52.0393073 181.496506 44.1193073 182.201506 36.2573073 182.204506 28.3803073 181.523506 24.2353073 181.164506 20.1243073 180.398506 16.0003073 179.809506 15.0593073 179.674506 14.1263073 179.274506 14.3793073 178.207506 14.5053073 177.673506 15.3723073 177.135506 16.0083073 176.944506 17.0453073 176.634506 18.1663073 176.606506 19.2513073 176.460506 19.2523073 176.536506 19.2523073 176.613506 19.2523073 176.690506M137.007307 199.133506C140.084307 199.064506 141.525307 199.765506 141.518307 201.183506 141.511307 202.449506 140.397307 203.285506 137.682307 203.536506 130.921307 204.162506 124.154307 204.741506 117.379307 205.173506 109.617307 205.668506 101.847307 206.083506 94.0753073 206.342506 89.3773073 206.499506 84.6663073 206.345506 79.9643073 206.218506 78.5933073 206.181506 76.5893073 206.154506 76.5663073 204.395506 76.5383073 202.309506 78.6213073 202.965506 79.9173073 202.872506 88.7663073 202.237506 97.6193073 201.645506 106.471307 201.050506 108.110307 200.940506 109.754307 200.896506 111.395307 200.793506 119.371307 200.293506 127.348307 199.785506 135.324307 199.275506 135.980307 199.234506 136.634307 199.165506 137.007307 199.133506M66.6883073 115.665506C66.2033073 113.387506 65.9613073 110.854506 65.0953073 108.556506 64.1213073 105.971506 61.6203073 105.544506 59.4763073 107.259506 58.9753073 107.660506 58.5113073 108.156506 58.1613073 108.693506 55.8723073 112.200506 54.9333073 116.115506 55.2843073 120.228506 55.4263073 121.896506 56.2243073 123.568506 56.9913073 125.105506 57.9003073 126.923506 59.5553073 127.735506 61.6153073 127.525506 63.7593073 127.307506 64.9943073 125.943506 65.3983073 123.983506 65.9453073 121.326506 66.2433073 118.618506 66.6883073 115.665506zM70.7073073 117.130506C70.4233073 118.923506 70.1053073 122.201506 69.3473073 125.374506 68.5143073 128.857506 66.1883073 131.178506 62.5463073 131.651506 58.7613073 132.142506 55.6493073 130.789506 53.5583073 127.473506 51.8763073 124.806506 51.0643073 121.925506 51.3023073 118.732506 51.6963073 113.441506 53.6003073 108.925506 56.8503073 104.630506 59.5393073 101.075506 66.5713073 101.544506 68.7533073 106.049506 70.2393073 109.117506 70.4583073 112.353506 70.7073073 117.130506L70.7073073 117.130506zM69.6873073 195.174506C70.8743073 194.856506 72.0473073 194.341506 73.2513073 194.252506 81.0143073 193.682506 88.7823073 193.155506 96.5533073 192.708506 108.155307 192.039506 119.761307 191.433506 131.367307 190.834506 134.323307 190.682506 137.287307 190.568506 140.246307 190.602506 143.401307 190.638506 144.880307 191.356506 144.542307 192.513506 143.945307 194.562506 141.989307 194.233506 140.443307 194.371506 137.604307 194.625506 134.752307 194.748506 131.903307 194.875506 120.730307 195.375506 109.557307 195.866506 98.3833073 196.338506 92.7963073 196.574506 87.2083073 196.797506 81.6183073 196.958506 78.6613073 197.043506 75.6973073 197.041506 72.7403073 196.959506 71.7263073 196.931506 70.7223073 196.541506 69.7133073 196.317506 69.7053073 195.936506 69.6963073 195.555506 69.6873073 195.174506M80.3903073 242.014506C80.5893073 242.042506 80.7873073 242.070506 80.9863073 242.099506 81.1723073 241.499506 81.4153073 240.909506 81.5153073 240.295506 81.5503073 240.081506 81.2313073 239.810506 80.8873073 239.275506 80.5993073 239.971506 80.3413073 240.399506 80.2583073 240.859506 80.1913073 241.224506 80.3383073 241.628506 80.3903073 242.014506zM77.1483073 219.686506C77.2893073 221.048506 77.4533073 222.448506 77.5733073 223.852506 77.6593073 224.850506 78.1553073 225.709506 79.1273073 225.493506 79.7753073 225.349506 80.6423073 224.464506 80.7203073 223.827506 80.9013073 222.345506 80.8793073 220.761506 80.5293073 219.317506 80.2353073 218.106506 80.4853073 215.930506 78.5453073 216.142506 76.6863073 216.345506 77.3173073 218.321506 77.1483073 219.686506zM82.9063073 226.148506C82.9233073 228.230506 82.9573073 230.312506 82.9523073 232.393506 82.9483073 234.171506 83.3143073 235.730506 84.3403073 237.313506 86.4633073 240.588506 84.5293073 245.676506 80.8283073 247.183506 77.0773073 248.710506 73.5363073 246.666506 73.2313073 242.633506 73.1283073 241.267506 73.2223073 239.612506 73.9103073 238.518506 75.1203073 236.596506 75.1943073 234.617506 75.1953073 232.541506 75.1963073 228.487506 75.1373073 224.433506 75.1973073 220.380506 75.2163073 219.082506 75.3543073 217.730506 75.7623073 216.510506 76.1923073 215.220506 76.6643073 213.683506 78.5693073 213.813506 80.8533073 213.969506 82.5933073 215.230506 82.7383073 217.280506 82.9473073 220.224506 82.8343073 223.191506 82.8583073 226.148506 82.8743073 226.148506 82.8903073 226.148506 82.9063073 226.148506L82.9063073 226.148506zM75.3683073 159.733506C74.6653073 161.644506 73.2323073 161.863506 71.8053073 161.903506 58.7533073 162.275506 45.7013073 162.728506 32.6463073 162.894506 28.5063073 162.946506 24.3543073 162.219506 20.2113073 161.817506 19.5673073 161.755506 18.8373073 161.676506 18.3353073 161.331506 17.8753073 161.016506 17.4693073 160.348506 17.4223073 159.802506 17.3923073 159.448506 17.9793073 158.847506 18.4113073 158.689506 19.1113073 158.434506 19.9103073 158.381506 20.6713073 158.363506 33.0633073 158.080506 45.4553073 157.795506 57.8493073 157.562506 61.4683073 157.494506 65.0923073 157.554506 68.7133073 157.617506 71.0333073 157.658506 73.2953073 157.986506 75.3683073 159.733506M113.297307 39.574506C115.960307 39.476506 117.954307 38.316506 117.975307 36.936506 118.000307 35.302506 116.481307 34.602506 113.258307 34.837506 113.271307 36.409506 113.284307 37.989506 113.297307 39.574506zM118.334307 43.103506C119.414307 45.597506 120.393307 47.791506 121.310307 50.011506 121.643307 50.817506 122.013307 51.683506 122.020307 52.524506 122.028307 53.290506 121.679307 54.632506 121.289307 54.708506 120.493307 54.863506 119.400307 54.549506 118.739307 54.033506 118.114307 53.545506 117.831307 52.572506 117.493307 51.773506 116.641307 49.757506 115.860307 47.710506 115.006307 45.695506 114.815307 45.246506 114.439307 44.876506 113.817307 44.005506 113.501307 45.198506 113.204307 45.863506 113.170307 46.540506 113.075307 48.400506 113.139307 50.268506 113.051307 52.128506 112.935307 54.587506 112.284307 55.696506 111.032307 55.795506 109.648307 55.904506 108.942307 54.780506 108.714307 52.069506 108.668307 51.523506 108.650307 50.973506 108.663307 50.426506 108.792307 45.168506 108.880307 39.908506 109.083307 34.653506 109.204307 31.516506 109.525307 31.192506 112.699307 30.768506 114.093307 30.582506 115.542307 30.573506 116.942307 30.714506 119.611307 30.983506 121.423307 32.523506 122.122307 35.081506 122.835307 37.690506 122.480307 40.098506 119.968307 41.752506 119.430307 42.105506 118.968307 42.573506 118.334307 43.103506L118.334307 43.103506zM35.6393073 35.698506C32.2153073 38.501506 30.8823073 44.775506 33.0453073 48.257506 33.5653073 49.094506 34.6993073 50.057506 35.5313073 50.039506 36.2643073 50.024506 37.4793073 48.792506 37.5973073 47.972506 38.0423073 44.855506 38.2653073 41.688506 38.2843073 38.538506 38.2923073 37.216506 37.3253073 36.123506 35.6393073 35.698506zM43.0903073 41.416506C43.1733073 44.611506 43.0403073 47.782506 41.4683073 50.689506 38.5933073 56.006506 32.6433073 56.231506 29.3613073 51.147506 26.3493073 46.482506 27.2683073 37.485506 31.2043073 33.616506 33.0753073 31.776506 35.0243073 30.641506 37.9633073 31.635506 40.9763073 32.654506 42.4843073 34.603506 43.0193073 37.479506 43.2563073 38.751506 43.0793073 40.101506 43.0903073 41.416506L43.0903073 41.416506zM150.130307 100.483506C148.891307 101.126506 147.941307 101.847506 146.877307 102.115506 145.400307 102.485506 143.839307 102.651506 142.311307 102.668506 131.774307 102.790506 121.237307 102.882506 110.699307 102.914506 107.172307 102.925506 103.686307 102.492506 100.365307 101.179506 99.7543073 100.937506 99.0433073 100.799506 98.5743073 100.389506 98.1603073 100.027506 97.8513073 99.356506 97.8383073 98.813506 97.8323073 98.564506 98.6233073 98.232506 99.0973073 98.060506 99.3773073 97.959506 99.7503073 98.064506 100.069307 98.133506 107.353307 99.720506 114.736307 98.931506 122.070307 98.909506 129.638307 98.886506 137.204307 98.376506 144.773307 98.117506 146.619307 98.053506 148.548307 97.921506 150.130307 100.483506M51.2483073 35.696506C51.2713073 38.547506 51.2913073 40.970506 51.3123073 43.444506 54.6183073 42.577506 55.3463073 41.094506 54.7223073 36.690506 53.6833073 36.392506 52.5603073 36.071506 51.2483073 35.696506zM50.5993073 48.055506C50.3213073 49.950506 50.1273073 51.581506 49.8303073 53.194506 49.6203073 54.330506 49.0893073 55.388506 47.7463073 55.329506 46.4023073 55.270506 45.9573073 54.208506 45.8973073 53.023506 45.8483073 52.040506 45.8853073 51.051506 45.9283073 50.066506 46.1243073 45.585506 46.3963073 41.106506 46.5243073 36.623506 46.6343073 32.760506 46.5793073 32.652506 50.3693073 32.145506 52.0743073 31.917506 53.8723073 31.811506 55.5533073 32.094506 58.3963073 32.573506 59.7193073 34.280506 59.6863073 37.147506 59.6683073 38.663506 59.4003073 40.193506 59.0883073 41.683506 58.3003073 45.448506 56.1913073 47.752506 52.0883073 47.731506 51.6693073 47.729506 51.2503073 47.908506 50.5993073 48.055506L50.5993073 48.055506zM122.320307 107.420506C127.902307 107.374506 133.484307 107.302506 139.066307 107.302506 140.368307 107.301506 141.740307 107.338506 142.949307 107.745506 143.739307 108.011506 144.293307 108.976506 144.953307 109.627506 144.235307 110.179506 143.552307 110.792506 142.781307 111.255506 142.445307 111.458506 141.925307 111.361506 141.488307 111.389506 129.235307 112.166506 116.987307 112.125506 104.751307 111.074506 103.685307 110.982506 102.606307 110.678506 101.614307 110.273506 101.262307 110.129506 100.933307 109.360506 100.995307 108.934506 101.053307 108.526506 101.582307 107.962506 101.992307 107.872506 103.051307 107.641506 104.159307 107.563506 105.249307 107.549506 110.939307 107.477506 116.629307 107.444506 122.319307 107.397506 122.319307 107.405506 122.319307 107.412506 122.320307 107.420506M103.985307 38.431506C103.505307 37.877506 103.016307 37.332506 102.550307 36.769506 101.068307 34.984506 99.1623073 35.273506 98.4273073 37.488506 98.0533073 38.615506 97.8243073 39.834506 97.7873073 41.019506 97.7093073 43.539506 97.6743073 46.074506 97.8783073 48.582506 97.9653073 49.665506 98.4053073 51.071506 99.1893073 51.659506 100.255307 52.458506 101.368307 51.466506 102.364307 50.691506 103.516307 49.794506 104.840307 49.118506 105.944307 48.436506 106.511307 48.895506 106.822307 49.026506 106.826307 49.167506 106.927307 52.424506 104.285307 55.773506 101.254307 56.274506 97.6983073 56.862506 94.6693073 55.203506 94.1263073 51.633506 93.3363073 46.441506 93.0253073 41.134506 94.6183073 35.994506 95.8883073 31.894506 100.009307 30.296506 103.828307 32.235506 106.253307 33.465506 106.406307 36.299506 103.985307 38.431506M71.8093073 52.633506C73.5543073 51.672506 73.7203073 50.401506 72.7733073 49.214506 71.5623073 47.696506 70.1993073 46.250506 68.6963073 45.025506 64.5253073 41.625506 64.4523073 35.896506 68.6513073 32.601506 70.5513073 31.110506 74.6963073 31.289506 76.2213073 33.096506 76.6873073 33.647506 76.8723073 34.736506 76.6753073 35.434506 76.5513073 35.871506 75.4943073 36.174506 74.8153073 36.283506 74.1943073 36.382506 73.5173073 36.153506 72.8693073 36.043506 71.4763073 35.805506 70.5753073 36.361506 70.0123073 37.651506 69.4503073 38.941506 69.7613073 40.031506 70.6903073 40.944506 71.3093073 41.553506 72.2013073 41.908506 72.7483073 42.562506 74.2753073 44.388506 76.0173073 46.145506 77.0673073 48.235506 78.7223073 51.529506 77.0413073 55.186506 73.6403073 56.650506 71.4413073 57.597506 69.2623073 57.099506 67.6843073 55.319506 66.8743073 54.405506 66.4353073 53.257506 67.3103073 52.388506 67.8523073 51.848506 69.0343073 51.806506 69.9263073 51.815506 70.5213073 51.821506 71.1103073 52.310506 71.8093073 52.633506M64.7153073 219.479506C63.9013073 220.029506 63.3723073 220.632506 62.7483073 220.759506 61.1433073 221.083506 59.4973073 221.348506 57.8643073 221.369506 45.7983073 221.520506 33.7313073 221.626506 21.6643073 221.691506 19.9183073 221.700506 18.1633073 221.477506 16.4303073 221.238506 15.8863073 221.163506 15.3973073 220.683506 14.8993073 219.723506 16.1083073 219.465506 17.3063073 219.076506 18.5293073 218.974506 21.2603073 218.746506 24.0013073 218.587506 26.7423073 218.533506 37.7093073 218.316506 48.6783073 218.133506 59.6473073 217.986506 61.2423073 217.965506 62.9693073 217.663506 64.7153073 219.479506M31.1713073 66.838506C28.7213073 70.371506 29.1673073 72.964506 32.5103073 74.505506 34.1033073 72.864506 34.3263073 70.953506 33.7453073 68.801506 33.3673073 67.402506 32.4143073 66.966506 31.1713073 66.838506zM24.6003073 70.763506C25.4053073 68.726506 25.9013073 66.804506 26.8713073 65.162506 28.6333073 62.181506 30.1193073 61.892506 33.2813073 63.443506 33.4763073 63.538506 33.6703073 63.690506 33.8733073 63.706506 37.8713073 64.017506 38.3693073 67.134506 38.6403073 70.068506 38.9433073 73.357506 37.9283073 76.397506 35.0983073 78.406506 32.7443073 80.077506 29.0453073 79.354506 27.2623073 76.709506 26.0843073 74.962506 25.4933073 72.819506 24.6003073 70.763506L24.6003073 70.763506zM66.0423073 225.213506C65.1923073 225.600506 64.5003073 226.121506 63.7553073 226.215506 61.4753073 226.504506 59.1783073 226.742506 56.8823073 226.796506 44.1543073 227.096506 31.4243073 227.354506 18.6943073 227.569506 17.3283073 227.592506 15.9563073 227.250506 14.5873073 227.077506 14.5603073 226.832506 14.5333073 226.587506 14.5053073 226.341506 15.2563073 226.095506 15.9933073 225.686506 16.7583073 225.626506 23.3183073 225.114506 29.8783073 224.530506 36.4503073 224.231506 45.0013073 223.841506 53.5623073 223.676506 62.1203073 223.456506 63.4803073 223.421506 64.9893073 223.247506 66.0423073 225.213506M101.711307 68.055506C101.726307 69.862506 101.736307 71.102506 101.749307 72.625506 103.747307 72.009506 105.329307 71.463506 105.371307 68.863506 104.274307 68.621506 103.159307 68.375506 101.711307 68.055506zM106.070307 75.191506C106.955307 78.224506 109.000307 80.865506 107.447307 84.336506 104.033307 82.751506 104.607307 78.787506 102.215307 76.380506 101.994307 77.971506 101.931307 79.334506 101.571307 80.614506 101.406307 81.203506 100.671307 82.012506 100.176307 82.025506 99.6563073 82.038506 98.9273073 81.315506 98.6313073 80.738506 98.3013073 80.094506 98.2743073 79.254506 98.2573073 78.497506 98.1703073 74.668506 98.0763073 70.839506 98.0923073 67.010506 98.1023073 64.661506 98.3793073 64.534506 100.776307 64.743506 101.633307 64.818506 102.508307 64.697506 103.374307 64.641506 105.688307 64.492506 107.847307 64.868506 109.022307 67.112506 110.254307 69.461506 109.268307 71.578506 107.855307 73.505506 107.413307 74.107506 106.758307 74.552506 106.070307 75.191506L106.070307 75.191506zM13.5813073 237.251506C15.0943073 236.792506 15.9313073 236.385506 16.7993073 236.303506 19.8523073 236.015506 22.9113073 235.741506 25.9743073 235.639506 35.6123073 235.316506 45.2513073 235.043506 54.8923073 234.821506 57.5153073 234.761506 60.1473073 234.905506 62.7703073 235.045506 63.5673073 235.088506 64.3473073 235.433506 65.1353073 235.640506 65.1863073 235.883506 65.2363073 236.125506 65.2873073 236.368506 64.6213073 236.712506 63.9783073 237.289506 63.2843073 237.359506 59.9083073 237.700506 56.5223073 238.070506 53.1343073 238.127506 41.9603073 238.316506 30.7843073 238.403506 19.6093073 238.451506 17.8453073 238.458506 15.9443073 238.773506 13.5813073 237.251506M48.2013073 73.972506C50.4113073 70.296506 49.7693073 68.486506 46.0383073 67.870506 44.5003073 71.658506 45.0143073 73.109506 48.2013073 73.972506zM54.1453073 71.231506C54.0883073 71.712506 54.0593073 72.485506 53.8983073 73.229506 53.1473073 76.707506 50.7233073 79.175506 48.1793073 79.103506 44.5853073 79.001506 41.1963073 75.907506 40.8183073 72.335506 40.7383073 71.580506 40.7593073 70.801506 40.8423073 70.044506 41.2793073 66.017506 43.3983073 63.822506 46.6163073 64.011506 52.0073073 64.329506 54.1473073 66.300506 54.1453073 71.231506L54.1453073 71.231506zM86.1323073 45.702506C86.1453073 47.203506 86.1563073 48.592506 86.1683073 50.067506 88.0683073 51.445506 90.9943073 50.615506 92.5443073 52.844506 90.3163073 54.926506 84.8643073 55.638506 82.8723073 53.909506 82.1603073 53.291506 81.6633073 52.031506 81.6543073 51.059506 81.6053073 45.689506 81.6823073 40.317506 81.8343073 34.948506 81.9053073 32.394506 82.5493073 32.056506 85.1873073 32.503506 87.5003073 32.895506 89.7323073 33.359506 91.1673073 36.064506 89.3913073 36.078506 87.8363073 36.091506 86.0883073 36.106506 86.1053073 38.187506 86.1213073 40.099506 86.1363073 41.913506 87.9193073 42.688506 89.5673073 43.405506 91.5833073 44.282506 89.7813073 45.821506 88.0393073 45.181506 86.1323073 45.702506M63.8953073 243.239506C61.5633073 244.881506 59.3673073 244.952506 57.2253073 245.158506 46.1953073 246.214506 35.1503073 246.185506 24.0943073 245.653506 21.6923073 245.538506 19.2793073 245.659506 16.8733073 245.615506 15.8443073 245.597506 14.8183073 245.436506 13.7903073 245.340506 13.7433073 245.107506 13.6963073 244.874506 13.6503073 244.641506 14.2223073 244.329506 14.7723073 243.804506 15.3713073 243.739506 18.6313073 243.387506 21.8983073 242.989506 25.1713073 242.899506 34.0353073 242.654506 42.9023073 242.534506 51.7693073 242.414506 54.5033073 242.377506 57.2423073 242.446506 59.9743073 242.573506 61.1283073 242.626506 62.2703073 242.952506 63.8953073 243.239506M148.117307 70.293506C146.751307 70.087506 146.131307 69.994506 145.235307 69.860506 145.384307 71.097506 145.490307 71.976506 145.683307 73.570506 146.642307 72.279506 147.174307 71.562506 148.117307 70.293506zM145.447307 77.143506C145.260307 79.120506 145.149307 80.758506 144.933307 82.383506 144.820307 83.239506 144.651307 84.137506 144.260307 84.888506 144.007307 85.376506 143.280307 85.944506 142.815307 85.904506 142.342307 85.863506 141.724307 85.193506 141.538307 84.667506 141.216307 83.757506 141.064307 82.749506 141.040307 81.776506 140.925307 77.174506 140.867307 72.570506 140.814307 67.966506 140.806307 67.204506 140.803307 66.405506 141.011307 65.685506 141.495307 64.016506 143.348307 63.443506 144.223307 64.872506 145.113307 66.328506 146.194307 66.258506 147.483307 66.434506 151.156307 66.936506 152.551307 69.455506 151.070307 72.824506 150.037307 75.175506 148.304307 76.728506 145.447307 77.143506L145.447307 77.143506zM20.7453073 35.376506C20.7853073 40.273506 20.8463073 44.852506 20.8423073 49.432506 20.8413073 50.395506 20.7893073 51.439506 20.4123073 52.293506 20.1633073 52.856506 19.2683073 53.497506 18.7083073 53.458506 18.1353073 53.419506 17.3523073 52.685506 17.1383073 52.085506 16.8203073 51.193506 16.8673073 50.152506 16.8553073 49.173506 16.7953073 44.484506 16.7683073 39.795506 16.7283073 34.899506 15.3393073 34.578506 13.9423073 34.379506 12.6493073 33.900506 12.0543073 33.679506 11.1693073 32.724506 11.2813073 32.421506 11.5303073 31.750506 12.3143073 30.817506 12.8973073 30.804506 16.7153073 30.721506 20.5403073 30.790506 24.3573073 30.957506 25.5093073 31.007506 26.4673073 31.790506 26.3793073 33.109506 26.2943073 34.390506 25.3203073 34.958506 24.1423073 35.113506 23.1743073 35.241506 22.1933073 35.269506 20.7453073 35.376506M65.9313073 72.327506C66.7803073 73.842506 67.4593073 74.968506 68.0533073 76.138506 68.5583073 77.134506 69.0033073 78.266506 67.9453073 79.131506 66.7623073 80.099506 65.6263073 79.382506 64.7013073 78.589506 63.7983073 77.817506 63.0473073 76.867506 61.9723073 75.721506 61.5723073 77.076506 61.3493073 78.227506 60.8783073 79.265506 60.6483073 79.773506 59.8563073 80.468506 59.4963073 80.376506 58.8993073 80.225506 58.2953073 79.589506 57.9773073 79.003506 57.6843073 78.466506 57.6903073 77.725506 57.6953073 77.074506 57.7233073 73.459506 57.7873073 69.843506 57.8513073 66.228506 57.8593073 65.793506 57.7893073 65.224506 58.0263073 64.951506 58.5533073 64.345506 59.2593073 63.473506 59.8763073 63.485506 60.4953073 63.498506 61.4373073 64.356506 61.6283073 65.019506 62.0033073 66.321506 61.9553073 67.744506 62.1413073 69.747506 63.6713073 68.238506 64.7973073 67.102506 65.9533073 65.998506 66.8963073 65.099506 68.0123073 64.505506 69.1403073 65.533506 70.3023073 66.593506 69.6553073 67.766506 68.9023073 68.756506 67.9833073 69.963506 66.9653073 71.094506 65.9313073 72.327506M18.3273073 149.818506C19.1183073 149.650506 19.9083073 149.338506 20.6983073 149.336506 29.4613073 149.319506 38.2243073 149.346506 46.9873073 149.374506 47.6413073 149.376506 48.3033073 149.429506 48.9473073 149.543506 50.1523073 149.757506 51.0283073 150.427506 50.9633073 151.727506 50.8983073 153.004506 49.9783073 153.657506 48.7763073 153.775506 47.8023073 153.870506 46.8113073 153.819506 45.8293073 153.786506 39.2603073 153.564506 32.6933073 153.297506 26.1233073 153.112506 23.2593073 153.031506 20.5853073 152.531506 18.2983073 150.811506 18.3083073 150.480506 18.3173073 150.149506 18.3273073 149.818506M153.501307 118.511506C152.702307 120.935506 150.958307 121.042506 149.363307 121.106506 144.769307 121.289506 140.168307 121.442506 135.572307 121.411506 131.523307 121.384506 127.476307 121.094506 123.429307 120.919506 122.992307 120.900506 122.461307 121.017506 122.137307 120.812506 121.474307 120.394506 120.922307 119.800506 120.324307 119.278506 120.885307 118.694506 121.379307 118.010506 122.033307 117.562506 122.439307 117.284506 123.089307 117.293506 123.630307 117.292506 132.269307 117.266506 140.909307 117.209506 149.548307 117.305506 150.846307 117.320506 152.136307 118.075506 153.501307 118.511506M84.3263073 68.008506C84.3333073 68.946506 84.3403073 69.800506 84.3473073 70.591506 85.3343073 71.210506 86.2223073 71.766506 87.4933073 72.562506 86.2603073 73.293506 85.3933073 73.806506 84.5123073 74.328506 84.3013073 75.897506 85.3693073 76.414506 86.5283073 76.903506 87.6383073 77.371506 89.0423073 77.850506 88.7273073 79.341506 88.3953073 80.916506 86.8773073 81.020506 85.5243073 81.029506 82.5033073 81.049506 80.1843073 79.226506 79.9213073 76.123506 79.6633073 73.074506 79.7553073 69.974506 79.9573073 66.915506 80.0993073 64.768506 80.9523073 64.210506 83.0103073 64.496506 84.7393073 64.736506 86.3953073 65.255506 88.3473073 66.884506 86.7483073 67.331506 85.6903073 67.627506 84.3263073 68.008506M157.809307 71.752506C157.817307 72.690506 157.824307 73.544506 157.830307 74.335506 158.817307 74.954506 159.705307 75.510506 160.977307 76.306506 159.743307 77.037506 158.876307 77.550506 157.995307 78.072506 157.784307 79.641506 158.852307 80.158506 160.011307 80.647506 161.122307 81.115506 162.525307 81.594506 162.210307 83.085506 161.878307 84.660506 160.361307 84.764506 159.008307 84.773506 155.986307 84.793506 153.667307 82.970506 153.405307 79.867506 153.147307 76.818506 153.239307 73.718506 153.440307 70.659506 153.582307 68.512506 154.435307 67.954506 156.494307 68.240506 158.222307 68.480506 159.878307 68.999506 161.830307 70.629506 160.231307 71.075506 159.173307 71.371506 157.809307 71.752506M13.1593073 71.041506C13.3203073 67.444506 13.9383073 65.047506 15.7253073 63.088506 17.1083073 61.572506 19.3123073 60.983506 20.7413073 61.880506 21.3233073 62.246506 21.9623073 63.004506 21.9933073 63.613506 22.0203073 64.130506 21.3153073 64.886506 20.7483073 65.195506 18.2073073 66.581506 17.2263073 68.264506 18.1333073 70.961506 18.7793073 72.879506 20.0353073 74.584506 20.9013073 76.439506 21.2293073 77.140506 21.5923073 78.229506 21.2783073 78.720506 20.9173073 79.285506 19.6673073 79.812506 19.0843073 79.596506 17.8293073 79.132506 16.2903073 78.439506 15.7033073 77.377506 14.4603073 75.130506 13.7523073 72.587506 13.1593073 71.041506M121.668307 74.679506C121.712307 71.835506 122.217307 69.190506 123.939307 66.875506 124.949307 65.516506 126.308307 64.803506 127.937307 65.362506 128.642307 65.603506 129.491307 66.409506 129.614307 67.080506 129.727307 67.701506 129.097307 68.950506 128.554307 69.110506 126.762307 69.640506 126.513307 70.973506 126.448307 72.407506 126.379307 73.935506 126.491307 75.473506 126.567307 77.004506 126.642307 78.500506 127.299307 79.624506 128.476307 80.643506 129.758307 81.753506 129.336307 83.015506 127.724307 83.554506 125.749307 84.215506 123.347307 82.882506 122.680307 80.487506 122.156307 78.603506 121.992307 76.618506 121.668307 74.679506M119.509307 67.564506C117.371307 67.978506 115.810307 68.281506 114.058307 68.621506 114.070307 69.997506 114.081307 71.371506 114.093307 72.841506 115.276307 73.394506 116.509307 73.971506 117.742307 74.548506 117.750307 74.789506 117.758307 75.030506 117.765307 75.271506 116.638307 75.647506 115.511307 76.023506 114.195307 76.462506 113.931307 78.203506 113.828307 79.762506 116.090307 80.584506 116.788307 80.838506 117.188307 81.915506 118.006307 82.984506 116.512307 83.413506 115.606307 83.795506 114.666307 83.918506 112.272307 84.230506 110.893307 83.439506 110.762307 81.086506 110.512307 76.614506 110.622307 72.119506 110.681307 67.635506 110.688307 67.102506 111.189307 66.396506 111.666307 66.082506 113.262307 65.035506 117.095307 65.645506 119.509307 67.564506M132.758307 73.271506C132.742307 71.406506 132.735307 69.541506 132.709307 67.677506 132.694307 66.602506 132.951307 65.623506 134.110307 65.368506 135.479307 65.067506 136.208307 66.069506 136.461307 67.152506 137.625307 72.128506 137.677307 77.160506 136.705307 82.167506 136.574307 82.843506 135.633307 83.362506 135.067307 83.954506 134.525307 83.344506 133.603307 82.788506 133.507307 82.115506 133.094307 79.191506 132.921307 76.232506 132.661307 73.286506 132.693307 73.281506 132.725307 73.276506 132.758307 73.271506M61.2943073 168.308506C60.8783073 170.331506 59.5583073 171.028506 58.1473073 171.151506 53.4573073 171.562506 48.7433073 171.878506 44.1043073 170.695506 43.3083073 170.492506 42.5913073 169.978506 41.2973073 169.342506 42.3043073 168.595506 42.8973073 167.781506 43.5523073 167.728506 49.4213073 167.245506 55.3193073 166.431506 61.2943073 168.308506M78.4383073 104.623506C79.5963073 105.524506 80.4223073 106.168506 81.7813073 107.225506 80.2273073 107.526506 79.2643073 107.962506 78.3953073 107.820506 77.1833073 107.622506 75.7103073 107.296506 74.9533073 106.470506 73.9723073 105.401506 75.2603073 104.276506 75.8773073 103.306506 76.7543073 101.930506 77.7543073 100.632506 78.6633073 99.275506 79.3843073 98.198506 79.8233073 97.107506 78.1273073 96.112506 77.5533073 97.100506 76.9913073 98.070506 76.4033073 99.084506 74.9213073 97.326506 74.8843073 95.616506 76.2043073 94.302506 77.5443073 92.969506 79.3713073 93.067506 80.8213073 94.550506 82.3013073 96.064506 82.6053073 97.679506 81.6693073 99.609506 81.2433073 100.488506 80.6803073 101.304506 80.1473073 102.128506 79.6253073 102.934506 79.0633073 103.715506 78.4383073 104.623506M78.0963073 72.090506C78.0123073 73.332506 78.0233073 75.436506 77.6533073 77.470506 77.5163073 78.219506 76.4803073 78.804506 75.8543073 79.464506 75.2023073 78.818506 74.0463073 78.219506 73.9823073 77.520506 73.6553073 73.935506 73.5893073 70.325506 73.4863073 66.722506 73.4713073 66.199506 73.5903073 65.498506 73.9293073 65.179506 74.5163073 64.627506 75.3723073 63.924506 76.0263073 64.005506 76.6523073 64.082506 77.5403073 65.012506 77.6553073 65.680506 77.9723073 67.504506 77.9413073 69.387506 78.0963073 72.090506M23.6783073 231.535506C24.1613073 230.353506 25.3993073 230.362506 26.5243073 230.205506 35.4223073 228.966506 42.3933073 229.171506 44.9913073 230.895506 44.4383073 231.295506 43.9713073 231.925506 43.4953073 231.932506 36.9623073 232.037506 30.4293073 232.056506 23.8953073 232.083506 23.8583073 232.083506 23.8203073 231.901506 23.6783073 231.535506M96.6283073 117.845506C102.039307 115.663506 106.898307 115.878506 112.061307 117.535506 109.129307 120.809506 100.570307 121.105506 96.6283073 117.845506M41.1313073 115.026506C41.3223073 113.976506 41.3683073 112.966506 41.7243073 112.081506 41.9153073 111.605506 42.6653073 111.031506 43.1133073 111.071506 43.5763073 111.111506 44.0023073 111.821506 44.3943073 112.281506 44.5133073 112.420506 44.5123073 112.707506 44.4863073 112.917506 44.2723073 114.597506 44.9793073 115.828506 46.2493073 116.866506 46.5233073 117.090506 46.5183073 117.655506 46.6983073 118.246506 45.6633073 119.034506 44.0523073 119.326506 44.0403073 121.077506 44.0373073 121.433506 43.2493073 122.136506 43.0023073 122.064506 42.4863073 121.914506 41.8773073 121.436506 41.6863073 120.945506 41.2883073 119.925506 41.1523073 118.914506 39.7593073 118.608506 39.2363073 118.493506 38.5523073 117.522506 38.5753073 116.968506 38.5963073 116.448506 39.4153073 115.913506 39.9603073 115.480506 40.2733073 115.231506 40.7383073 115.171506 41.1313073 115.026506M32.0673073 169.187506C31.1283073 169.875506 30.7613073 170.246506 30.3173073 170.452506 26.5903073 172.181506 22.6783073 173.106506 18.5533073 173.020506 17.9033073 173.006506 17.1733073 173.028506 16.6323073 172.744506 16.1303073 172.480506 15.5443073 171.835506 15.5353073 171.347506 15.5283073 170.975506 16.3363073 170.309506 16.8333073 170.256506 18.8993073 170.036506 20.9853073 170.029506 23.0603073 169.888506 25.8343073 169.699506 28.6053073 169.459506 32.0673073 169.187506M69.8293073 184.902506C72.7733073 183.298506 81.0553073 183.118506 85.3623073 184.433506 82.0803073 186.641506 73.3953073 187.014506 69.8293073 184.902506M66.7943073 151.829506C65.3393073 153.530506 63.7433073 153.686506 62.1113073 153.384506 61.6033073 153.289506 60.7983073 152.546506 60.8463073 152.197506 60.9303073 151.580506 61.4533073 150.700506 61.9873073 150.526506 63.6393073 149.988506 65.1573073 150.519506 66.7943073 151.829506M72.9513073 168.286506C74.2593073 167.438506 74.2593073 167.438506 76.3763073 167.764506 75.0833073 169.701506 74.8383073 169.738506 72.9513073 168.286506M77.8223073 7.79750598C78.9153073 7.48450598 79.8993073 7.07550598 80.9203073 6.93450598 84.1653073 6.48350598 86.1793073 8.31950598 84.5233073 11.580506 83.6653073 13.267506 83.4073073 15.365506 81.1043073 16.374506 78.8903073 14.022506 78.4583073 11.064506 77.8223073 7.79750598"/>
    <path fill="#000" d="M104.386307 225.315506C106.884307 226.980506 109.329307 226.223506 111.607307 226.340506 113.896307 226.458506 116.201307 226.230506 118.500307 226.202506 123.667307 226.137506 123.667307 226.148506 125.281307 224.520506 118.666307 224.056506 112.376307 224.561506 106.097307 224.540506 105.644307 224.538506 105.190307 224.938506 104.386307 225.315506zM104.256307 229.285506C106.940307 231.058506 121.739307 230.812506 124.882307 228.941506 121.307307 227.467506 106.987307 227.706506 104.256307 229.285506zM127.697307 234.523506C119.384307 235.173506 111.267307 236.210506 102.696307 234.812506 102.661307 230.541506 102.627307 226.311506 102.588307 221.622506 103.239307 221.504506 104.257307 221.167506 105.275307 221.165506 110.201307 221.154506 115.128307 221.250506 120.055307 221.274506 122.762307 221.288506 125.469307 221.236506 128.427307 221.212506 128.185307 225.629506 127.949307 229.939506 127.697307 234.523506L127.697307 234.523506zM39.5173073 197.936506C42.1173073 197.975506 43.6273073 199.150506 43.6553073 200.837506 43.6843073 202.529506 42.2053073 203.969506 40.1913073 204.093506 39.4413073 204.139506 38.6603073 204.029506 37.9223073 203.860506 36.6193073 203.562506 35.7983073 202.720506 35.7263073 201.352506 35.6493073 199.904506 36.2203073 198.773506 37.6863073 198.314506 38.4073073 198.088506 39.1723073 198.004506 39.5173073 197.936506"/>
  </g>
</svg>
