<svg xmlns="http://www.w3.org/2000/svg" width="262" height="205" viewBox="0 0 262 205">
  <g fill="none" fill-rule="evenodd">
    <path fill="#000" d="M244.619,121.38 C243.936,122.61 243.195,123.808 242.535,125.05 C237.256,134.981 231.803,144.824 226.778,154.881 C222.3,163.844 218.183,172.995 214.16,182.174 C212.905,185.036 211.191,186.636 208.188,187.421 C184.785,193.532 161.203,198.397 136.824,196.597 C125.615,195.769 114.437,194.383 103.285,192.937 C94.404,191.785 85.562,190.284 76.745,188.7 C70.351,187.551 63.824,186.605 57.72,184.508 C48.816,181.449 41.738,175.512 37.24,167.158 C30.994,155.558 24.932,143.844 19.272,131.95 C15.152,123.29 11.109,114.503 9.67,104.366 C12.445,105.54 15.211,106.305 17.531,107.775 C22.784,111.104 28.679,111.817 34.583,112.762 C38.043,113.316 41.635,113.747 44.845,115.035 C57.265,120.022 70.223,121.922 83.459,122.71 C87.825,122.969 92.148,123.881 96.503,124.381 C112.616,126.233 128.816,126.823 144.961,125.714 C162.675,124.497 180.398,122.825 197.974,120.34 C211.708,118.398 225.228,114.955 238.104,109.449 C243.215,107.263 248.452,105.376 254.886,102.864 C251.08,109.73 247.853,115.557 244.619,121.38 Z M59.896,86.052 C67.616,85.547 75.329,84.742 83.055,84.593 C90.939,84.44 98.834,85.066 106.726,85.085 C113.225,85.102 119.725,84.608 126.226,84.582 C129.53,84.569 132.837,85.088 136.909,85.431 C134.744,90.411 132.838,94.797 130.904,99.247 C121.955,97.699 113.631,99.159 105.258,99.709 C93.862,100.457 82.442,100.894 71.026,101.272 C64.178,101.499 57.872,103.396 51.964,106.699 C47.406,109.248 43.087,109.131 37.94,107.817 C29.711,105.716 22.027,102.59 14.223,98.995 C28.617,90.291 43.961,87.094 59.896,86.052 Z M151.189,69.669 C155.371,60.571 159.26,51.338 163.48,42.258 C166.804,35.106 170.315,28.034 173.977,21.049 C175.931,17.323 178.19,13.715 180.686,10.331 C181.976,8.583 183.896,7.023 185.87,6.126 C188.393,4.98 190.711,6.437 190.644,9.195 C190.583,11.714 189.991,14.512 188.734,16.663 C178.371,34.411 167.785,52.029 157.306,69.709 C156.054,71.822 155.112,74.117 153.899,76.255 C151.911,79.759 149.791,83.188 147.775,86.677 C144.268,92.747 140.798,98.839 136.964,105.53 C136.499,105.473 135.697,105.376 134.551,105.237 C140.22,93.136 145.779,81.437 151.189,69.669 Z M151.906,119.26 C152.116,119.434 152.321,119.588 152.526,119.741 C151.742,119.744 150.958,119.749 150.174,119.742 C134.714,119.618 119.262,118.354 103.81,117.543 C98.898,117.286 93.966,117.09 89.092,116.475 C77.777,115.05 66.49,113.392 55.197,111.797 C54.736,111.732 54.32,111.343 53.883,111.105 C53.827,110.639 53.77,110.174 53.713,109.708 C59.189,108.706 64.629,107.199 70.148,106.807 C82.245,105.948 94.383,105.685 106.501,105.119 C112.988,104.815 119.47,104.381 125.955,104.029 C126.559,103.996 127.171,104.13 128.787,104.279 C124.947,107.122 120.253,104.324 117.111,108.117 C123.313,109.076 129.882,108.381 136.09,107.895 C140.362,107.561 144.71,107.084 148.988,107.465 C147.626,106.594 146.325,105.761 145.053,104.947 C155.06,102.901 200.07,108.263 208.333,112.815 C206.674,113.359 205.457,113.916 204.18,114.152 C190.646,116.65 177.028,118.654 163.323,119.416 C163.468,119.328 163.612,119.243 163.76,119.151 C159.458,115.853 156.206,115.405 151.906,119.26 Z M162.944,84.705 C180.927,84.54 198.701,86.526 216.503,88.526 C223.483,89.31 230.509,89.679 237.503,90.349 C242.518,90.83 246.757,93.089 251.348,96.787 C244.423,99.7 238.195,102.399 231.903,104.939 C227.671,106.648 223.378,109.274 219.058,109.386 C214.958,109.493 210.882,106.394 206.628,105.533 C198.549,103.896 190.384,102.537 182.192,101.637 C171.041,100.412 159.831,99.726 148.223,98.773 C148.505,97.799 148.642,96.635 149.16,95.677 C150.16,93.828 151.613,92.2 152.454,90.293 C154.535,85.577 157.931,84.751 162.944,84.705 Z M259.443,91.886 C255.547,87.983 250.599,86.675 245.607,86.028 C230.439,84.062 215.247,82.114 200.004,80.963 C188.282,80.078 176.466,79.385 164.695,81.007 C163.052,81.234 161.336,80.93 158.825,80.843 C160.699,77.359 162.137,74.396 163.833,71.588 C168.472,63.904 173.271,56.316 177.9,48.626 C179.801,45.467 181.332,42.086 183.203,38.906 C186.494,33.313 190.054,27.874 193.229,22.217 C194.853,19.323 196.209,16.19 197.126,13.003 C199.436,4.977 195.001,-0.217 186.724,0.495 C186.374,0.525 186.027,0.597 185.676,0.627 C177.758,1.314 172.241,5.597 168.723,12.446 C166.48,16.814 164.674,21.413 162.793,25.959 C159.501,33.919 156.767,42.148 152.945,49.841 C148.258,59.275 143.077,68.452 139.712,78.735 C131.659,79.002 123.603,79.347 115.543,79.518 C97.619,79.901 79.679,79.859 61.772,80.617 C41.888,81.458 22.734,85.783 4.815,94.797 C1.213,96.609 -0.318,98.957 0.94,102.795 C2.792,108.446 4.934,114.064 7.601,119.37 C11.224,126.579 16.063,133.218 19.258,140.589 C22.257,147.508 24.932,154.525 28.436,161.258 C32.458,168.989 37.88,175.635 43.128,182.443 C44.276,183.933 46.024,184.978 47.55,186.157 C56.107,192.766 66.516,194.558 76.633,196.434 C92.166,199.314 107.848,201.507 123.54,203.38 C148.424,206.35 173.061,204.821 197.267,197.92 C202.165,196.524 207.171,195.505 212.081,194.147 C215.227,193.277 217.437,191.489 218.999,188.269 C225.594,174.672 232.549,161.249 239.361,147.756 C242.924,140.698 246.488,133.64 250.002,126.558 C252.966,120.583 256.109,114.678 258.686,108.539 C260.161,105.025 260.719,101.116 261.588,97.362 C262.11,95.104 261.133,93.58 259.443,91.886 L259.443,91.886 Z"/>
    <path fill="#000" d="M54.976 168.196C51.536 166.249 48.534 163.892 46.878 160.167 43.746 153.122 38.881 146.906 37.023 139.235 36.623 137.584 35.449 136.114 34.594 134.581 32.721 131.224 30.875 127.849 28.918 124.54 27.623 122.349 26.155 120.26 24.764 118.124 24.276 118.33 23.787 118.535 23.299 118.741 23.254 119.542 22.931 120.459 23.208 121.128 25.354 126.297 27.578 131.436 29.861 136.547 30.645 138.3 31.948 139.856 32.527 141.659 35.298 150.294 40.022 157.935 44.595 165.639 47.478 170.495 51.977 173.622 57.116 175.761 58.421 176.305 59.978 176.243 61.834 176.522 60.909 171.895 58.045 169.933 54.976 168.196M67.109 90.924C58.416 87.429 28.961 92.579 24.251 98.254 25.052 98.422 25.704 98.75 26.287 98.653 37.383 96.817 48.478 94.974 59.553 93.02 61.912 92.604 64.193 91.747 67.109 90.924M88.006 111.966C92.021 114.029 95.321 113.321 99.788 111.526 95.739 109.621 92.539 109.446 88.006 111.966M113.129 115.473C113.228 115.555 113.323 115.622 113.42 115.699 115.047 115.629 116.674 115.561 118.3 115.5 118.986 115.727 119.638 115.676 120.321 115.431 121.858 115.383 123.396 115.343 124.935 115.328 120.657 112.065 117.413 111.633 113.129 115.473M157.813 109.935C159.302 109.907 160.817 110.207 162.32 110.198 165.616 110.179 168.903 110.014 172.194 110.171 166.993 106.263 162.952 105.663 157.813 109.935M182.615 114.134C183.664 114.173 184.695 114.174 185.715 114.091 186.437 114.02 187.152 113.911 187.865 113.752 183.588 110.488 180.343 110.056 176.059 113.897 176.073 113.908 176.085 113.916 176.098 113.927 178.255 114.205 180.446 114.056 182.615 114.134M67.739 111.957C67.777 111.988 67.814 112.013 67.851 112.044 67.931 112.008 68.025 111.989 68.134 111.993 70.152 112.065 72.208 112.287 74.248 112.314 75.973 112.159 77.719 112.136 79.409 111.713 75.199 108.544 71.977 108.157 67.739 111.957M134.159 114.858C137.224 117.399 139.553 116.699 142.639 114.78 139.562 112.421 137.235 112.1 134.159 114.858M205.082 129.4C212.056 127.598 219.049 125.852 225.957 123.821 227.675 123.316 229.89 123.052 230.949 121.295 220.507 123.691 210.194 126.058 199.268 128.565 201.414 130.127 203.269 129.869 205.082 129.4"/>
  </g>
</svg>
