<?xml version="1.0" encoding="UTF-8"?>
<svg width="300px" height="268px" viewBox="0 0 300 268" version="1.1" xmlns="http://www.w3.org/2000/svg" xmlns:xlink="http://www.w3.org/1999/xlink">
    <!-- Generator: Sketch 51.2 (57519) - http://www.bohemiancoding.com/sketch -->
    <title>Artboard</title>
    <desc>Created with Sketch.</desc>
    <defs></defs>
    <g id="Artboard" stroke="none" stroke-width="1" fill="none" fill-rule="evenodd">
        <g id="Group" fill="#000000">
            <path d="M33.414,174.713 C32.908,175.755 33.332,176.602 34.494,176.615 C35.161,176.623 35.93,176.308 36.481,175.903 C37.206,175.372 37.814,174.651 38.38,173.939 C39.571,172.441 40.64,170.836 42.617,170.227 C42.893,170.142 43.212,169.838 43.302,169.567 C44.215,166.804 46.542,165.092 48.369,163.098 C54.93,155.943 61.661,148.948 67.596,141.24 C68.356,140.253 68.636,139.432 67.796,137.773 C66.894,138.566 66.129,139.119 65.509,139.803 C60.505,145.336 55.544,150.908 50.537,156.438 C48.328,158.878 46.064,161.268 43.787,163.645 C40.629,166.942 37.43,170.2 34.265,173.489 C33.924,173.844 33.629,174.27 33.414,174.713" id="Fill-244"></path>
            <path d="M27.19,157.285 C29.452,154.65 31.557,151.865 33.962,149.368 C39.652,143.461 45.608,137.801 50.793,131.425 C54.493,126.874 58.078,122.228 61.673,117.592 C62.021,117.144 62.073,116.468 62.391,115.507 C61.492,115.762 60.944,115.761 60.643,116.033 C59.846,116.753 59.126,117.566 58.429,118.387 C52.701,125.139 47.126,132.004 40.88,138.324 C35.539,143.73 29.908,148.89 25.168,154.875 C24.516,155.699 23.954,156.595 23.218,157.645 C25.594,158.804 25.911,158.775 27.19,157.285" id="Fill-245"></path>
            <path d="M27.335,202.45 C29.597,199.815 31.702,197.03 34.107,194.533 C39.797,188.626 45.753,182.966 50.938,176.59 C54.638,172.039 58.223,167.393 61.818,162.757 C62.165,162.309 62.218,161.633 62.536,160.672 C61.637,160.927 61.089,160.926 60.787,161.198 C59.991,161.918 59.27,162.731 58.573,163.552 C52.846,170.304 47.271,177.169 41.025,183.489 C35.684,188.895 30.052,194.055 25.313,200.04 C24.661,200.864 24.099,201.76 23.363,202.81 C25.739,203.969 26.056,203.94 27.335,202.45" id="Fill-246"></path>
            <path d="M72.842,172.244 C71.943,172.499 71.394,172.498 71.093,172.771 C70.296,173.491 69.576,174.303 68.879,175.125 C63.152,181.877 57.577,188.741 51.331,195.062 C45.989,200.468 40.358,205.627 35.619,211.613 C34.966,212.437 34.404,213.332 33.669,214.382 C36.044,215.541 36.361,215.513 37.64,214.023 C39.902,211.387 42.007,208.603 44.412,206.106 C50.103,200.198 56.059,194.538 61.243,188.163 C64.944,183.612 68.529,178.966 72.124,174.33 C72.471,173.882 72.523,173.205 72.842,172.244" id="Fill-247"></path>
            <path d="M67.519,192.41 C61.792,199.162 56.217,206.026 49.971,212.347 C44.629,217.753 38.999,222.912 34.259,228.898 C33.607,229.722 33.045,230.617 32.309,231.668 C34.685,232.827 35.002,232.798 36.281,231.308 C38.543,228.672 40.647,225.888 43.052,223.391 C48.743,217.483 54.699,211.824 59.884,205.448 C63.584,200.897 67.169,196.251 70.764,191.615 C71.112,191.167 71.164,190.49 71.482,189.529 C70.583,189.784 70.035,189.783 69.733,190.056 C68.937,190.776 68.216,191.588 67.519,192.41" id="Fill-248"></path>
            <path d="M31.512,105.36 C31.777,105.208 31.943,104.877 32.142,104.619 C33.933,102.303 35.662,99.937 37.525,97.681 C39.632,95.131 41.873,92.693 44.015,90.172 C44.327,89.805 44.415,89.247 44.606,88.778 C43.779,88.688 43.213,88.822 42.865,89.173 C39.598,92.467 36.307,95.74 33.145,99.132 C28.57,104.038 24.111,109.051 19.573,113.991 C17.3,116.465 17.269,116.437 18.711,119.652 C19.862,119.743 20.814,119.451 21.431,118.357 C22.16,117.064 22.837,115.726 23.712,114.535 C26.09,111.295 27.809,107.483 31.512,105.36" id="Fill-249"></path>
            <path d="M39.012,157.947 C42.635,154.009 46.216,150.033 49.791,146.051 C50.177,145.621 50.437,145.076 50.847,144.442 C49.077,143.755 48.12,144.642 47.239,145.439 C45.341,147.156 43.479,148.92 41.686,150.747 C40.018,152.449 38.411,154.216 36.871,156.033 C35.82,157.275 35.763,158.632 36.613,159.098 C37.886,159.798 38.402,158.61 39.012,157.947" id="Fill-250"></path>
            <path d="M12.37,46.313 C12.44,46.114 12.529,45.92 12.637,45.735 C12.031,45.601 11.396,45.525 10.771,45.428 C11.304,45.723 11.837,46.018 12.37,46.313" id="Fill-251"></path>
            <path d="M122.857,97.988 C122.735,97.541 122.964,97.04 123.363,96.819 C124.081,96.421 124.848,96.117 125.627,95.861 C126.035,95.727 126.636,95.955 126.809,96.364 C127.234,97.368 127.756,98.533 127.637,99.653 C127.605,99.952 127.536,100.253 127.436,100.544 C127.44,100.622 127.444,100.696 127.448,100.776 C127.41,100.783 127.375,100.789 127.337,100.796 C127.04,101.498 126.541,102.116 125.839,102.447 C123.736,103.442 122.757,100.608 122.399,99.103 C122.277,98.591 122.51,98.2 122.857,97.988 Z M130.413,94.887 C130.378,94.862 130.348,94.84 130.31,94.812 C131.435,93.932 132.529,93.38 134.14,93.508 C134.348,95.281 134.544,96.956 134.759,98.792 C134.069,98.983 133.445,99.155 132.854,99.318 C132.54,99.552 132.182,99.744 131.781,99.878 C131.557,99.953 131.297,99.918 131.07,99.811 C131.036,99.821 131.001,99.83 130.966,99.84 C130.775,99.69 130.583,99.54 130.392,99.389 C130.427,99.302 130.458,99.211 130.487,99.117 C130.022,98.033 129.941,96.91 129.959,95.726 C129.965,95.325 130.152,95.047 130.413,94.887 Z M142.758,90.249 C142.8,90.557 142.847,90.862 142.893,91.167 C142.979,91.32 143.032,91.495 143.031,91.691 C143.03,91.802 143.026,91.912 143.022,92.023 C143.151,92.872 143.27,93.716 143.325,94.564 C143.35,94.955 143.344,95.185 143.213,95.336 C143.126,95.597 142.941,95.833 142.718,95.952 C142.694,95.964 142.669,95.975 142.645,95.988 L142.644,95.987 C142.37,96.132 142.089,96.265 141.803,96.392 C141.775,96.405 141.745,96.417 141.717,96.43 C141.446,96.548 141.172,96.662 140.896,96.772 C140.887,96.775 140.879,96.778 140.87,96.782 C140.275,97.017 139.673,97.238 139.086,97.47 C138.909,97.54 138.69,97.522 138.485,97.45 C138.375,97.485 138.26,97.521 138.138,97.557 C138.122,97.443 138.104,97.33 138.088,97.216 C138.008,97.142 137.943,97.058 137.904,96.967 C137.641,96.351 137.671,95.87 137.719,95.216 C137.73,95.072 137.732,94.927 137.733,94.782 C137.665,94.269 137.605,93.757 137.571,93.243 C137.544,92.832 137.552,92.598 137.702,92.448 C137.785,92.273 137.933,92.117 138.167,92.007 C138.38,91.907 138.593,91.808 138.807,91.709 C138.849,91.69 138.891,91.671 138.932,91.651 C139.141,91.557 139.35,91.464 139.56,91.374 C139.601,91.356 139.642,91.339 139.683,91.322 C139.891,91.235 140.101,91.151 140.312,91.073 C140.355,91.057 140.397,91.043 140.44,91.028 C140.652,90.951 140.866,90.88 141.083,90.817 C141.206,90.781 141.33,90.747 141.455,90.716 C141.778,90.562 142.203,90.414 142.758,90.249 Z M148.043,88.488 C148.356,88.254 148.714,88.063 149.115,87.929 C149.339,87.854 149.6,87.889 149.826,87.995 C149.86,87.985 149.895,87.976 149.93,87.966 C150.121,88.117 150.313,88.267 150.504,88.417 C150.469,88.504 150.439,88.596 150.409,88.689 C150.875,89.774 150.955,90.896 150.937,92.08 C150.931,92.481 150.744,92.759 150.484,92.919 C150.518,92.944 150.548,92.966 150.586,92.994 C149.461,93.874 148.367,94.426 146.756,94.298 C146.548,92.525 146.352,90.85 146.137,89.014 C146.827,88.824 147.451,88.651 148.043,88.488 Z M153.259,88.153 C153.291,87.854 153.36,87.553 153.46,87.262 C153.456,87.184 153.453,87.11 153.448,87.03 C153.486,87.023 153.522,87.017 153.559,87.011 C153.856,86.308 154.355,85.691 155.057,85.359 C157.16,84.364 158.139,87.198 158.497,88.703 C158.619,89.216 158.387,89.606 158.039,89.819 C158.161,90.265 157.932,90.766 157.533,90.987 C156.815,91.385 156.048,91.69 155.269,91.945 C154.861,92.079 154.26,91.851 154.087,91.442 C153.662,90.439 153.14,89.274 153.259,88.153 Z M119.047,104.196 C119.185,105.169 119.722,105.727 120.643,105.791 C121.006,105.816 121.374,105.821 121.742,105.814 C128.072,104.106 134.14,101.757 140.318,99.583 C140.326,99.626 140.336,99.669 140.344,99.713 C141.192,99.343 142.046,98.984 142.91,98.645 C143.044,98.593 143.179,98.542 143.313,98.489 C143.551,98.398 143.788,98.307 144.028,98.22 C149.105,96.371 154.366,93.977 159.771,93.124 C160.341,92.89 160.944,92.723 161.621,92.701 C162.639,92.67 163.127,91.809 162.946,90.702 C162.562,88.341 162.186,85.978 161.849,83.61 C161.711,82.638 161.174,82.079 160.254,82.015 C159.89,81.99 159.522,81.985 159.154,81.993 C153.251,83.585 147.577,85.737 141.828,87.783 C141.816,87.792 141.807,87.802 141.794,87.81 C141.415,88.055 141.017,88.235 140.608,88.378 L140.608,88.377 C140.044,88.574 139.457,88.701 138.864,88.809 C138.205,89.08 137.541,89.341 136.868,89.586 C131.791,91.435 126.53,93.829 121.125,94.682 C120.555,94.916 119.952,95.083 119.275,95.105 C118.257,95.137 117.769,95.997 117.95,97.105 C118.334,99.466 118.71,101.828 119.047,104.196 Z" id="Fill-252"></path>
            <path d="M136.082,169.976 C135.142,168.882 134.009,168.302 132.888,167.546 C132.887,167.546 132.886,167.547 132.885,167.548 C134.3,169.579 136.111,171.643 138.288,172.799 C138.232,172.586 138.149,172.381 138.019,172.195 C137.464,171.403 136.713,170.711 136.082,169.976" id="Fill-253"></path>
            <path d="M139.378,160.295 C139.613,161.434 139.939,162.572 140.577,163.53 C141.35,164.69 142.353,165.463 143.506,166.08 C143.21,165.152 142.488,164.185 142.087,163.528 C141.305,162.247 140.365,161.28 139.378,160.295" id="Fill-254"></path>
            <path d="M136.332,163.106 C136.567,164.246 136.893,165.384 137.532,166.341 C138.305,167.501 139.307,168.274 140.46,168.892 C140.164,167.964 139.443,166.996 139.041,166.339 C138.26,165.058 137.319,164.091 136.332,163.106" id="Fill-255"></path>
            <path d="M125.009,186.021 C124.129,184.364 123.59,182.674 124.18,180.772 C124.349,180.23 124.391,179.621 124.36,179.05 C124.237,176.791 122.011,174.595 119.912,174.91 C117.659,175.25 115.496,176.091 114.551,178.42 C113.661,180.611 114.839,182.239 116.42,183.639 C116.482,183.694 116.545,183.749 116.612,183.798 C117.651,184.547 117.703,185.499 117.373,186.665 C116.994,188.007 116.805,189.403 116.533,190.775 C116.591,190.787 116.649,190.799 116.708,190.81 C116.652,191.304 116.556,191.798 116.546,192.294 C116.515,193.955 117.568,194.98 119.223,194.701 C121.343,194.344 123.457,193.898 125.529,193.328 C127.512,192.782 127.891,191.68 126.939,189.756 C126.318,188.5 125.666,187.258 125.009,186.021" id="Fill-256"></path>
            <path d="M292.392,253.96 C290.555,258.382 286.972,261.619 282.325,261.942 C280.615,262.532 278.888,262.849 277.108,262.874 C271.215,262.955 265.319,262.831 259.427,262.915 C255.367,262.973 251.36,262.423 247.528,261.318 C244.098,260.33 241.051,258.352 239.49,254.807 C238.816,253.276 238.139,251.746 237.464,250.216 C236.763,249.086 236.157,247.897 235.561,246.674 C233.924,243.318 232.515,239.913 231.888,236.335 C230.536,234.854 229.943,232.575 230.074,230.519 C230.207,228.433 230.788,226.635 232.083,224.969 C233.396,223.281 235.059,221.758 236.156,219.916 C238.722,215.608 241.554,211.465 244.125,207.169 C244.777,206.079 245.704,204.543 246.879,203.551 C247.521,202.29 248.348,201.061 249.342,199.839 C249.549,201.306 250.022,202.695 250.772,204.02 C251.987,206.166 252.686,208.237 253.423,210.586 C254.607,214.362 255.79,218.173 256.779,222.017 C256.931,223.005 257.083,223.994 257.242,224.981 C257.451,225.756 257.661,226.53 257.865,227.306 C258.371,229.223 258.732,231.183 259.047,233.141 C259.072,233.293 259.063,233.476 259.033,233.662 C259.102,233.911 259.172,234.161 259.245,234.409 C259.32,234.665 259.351,234.923 259.35,235.178 C259.56,235.893 259.762,236.61 259.95,237.331 C260.593,239.788 261.325,242.487 261.56,245.163 C261.573,244.893 261.585,244.623 261.596,244.358 C261.719,241.445 261.653,238.526 261.364,235.624 C261.209,234.071 261.003,232.526 260.758,230.986 C260.026,227.408 259.195,223.849 258.45,220.271 C258.255,219.535 258.055,218.801 257.85,218.068 C256.258,212.378 254.441,206.759 252.58,201.151 C251.741,198.622 250.973,196.163 250.873,193.479 C250.779,190.957 251.021,188.468 251.469,185.989 C251.47,185.982 251.471,185.976 251.472,185.97 C251.095,186.32 250.78,186.581 250.707,186.897 C249.578,191.726 247.332,196.046 244.715,200.191 C242.99,202.921 241.173,205.593 239.376,208.277 C237.776,210.664 235.994,212.896 234.057,215.042 C233.248,216.601 232.401,218.137 231.366,219.557 C229.138,222.614 226.155,225.2 223.187,227.526 C221.223,229.065 218.749,230.047 216.213,230.676 C214.999,231.257 213.717,231.421 212.407,231.393 C212.133,231.582 211.822,231.732 211.467,231.819 C207.483,232.795 204.482,231.024 200.96,229.468 C197.656,228.008 194.34,226.722 191.389,224.596 C191.138,224.415 190.893,224.226 190.645,224.041 C188.892,223.334 187.269,222.382 185.7,221.336 C185.464,221.253 185.201,221.16 184.897,221.052 C184.969,221.006 185.034,220.971 185.101,220.932 C183.72,219.985 182.37,218.982 180.999,218.028 C179.131,216.73 177.279,215.411 175.475,214.028 C175.075,213.847 174.673,213.67 174.269,213.502 C171.041,212.165 167.924,210.817 165.299,208.451 C162.427,205.864 159.474,203.374 156.564,200.83 C154.219,198.78 152.052,196.249 150.575,193.484 C148.903,190.354 149.143,187.266 151.566,184.699 C152.817,180.986 154.678,177.579 157.234,174.55 C158.612,172.917 159.526,172.777 161.396,173.616 C162.446,174.087 163.527,174.607 164.399,175.338 C167.699,178.105 171.148,180.75 174.103,183.858 C176.849,186.745 180.011,189.079 182.951,191.7 C186.114,194.519 189.69,196.754 193.144,199.17 C193.681,199.546 194.207,199.945 194.678,200.406 C200.272,201.188 205.878,200.951 210.442,197.867 C210.407,197.846 210.369,197.824 210.336,197.803 C211.524,196.765 212.725,195.715 213.933,194.659 C215.79,192.44 217.404,190.007 219.015,187.588 C218.774,187.012 219.061,186.259 219.699,184.759 C222.389,178.429 224.997,172.051 228.023,165.882 C230.053,161.743 232.333,157.712 235.005,153.88 C236.365,151.93 237.964,150.528 239.788,149.49 C242.794,147.065 246.573,145.634 250.314,144.292 C250.376,144.262 250.434,144.228 250.497,144.198 L250.255,143.74 C250.271,143.702 250.281,143.662 250.296,143.624 C250.151,143.524 250.006,143.425 249.858,143.332 C249.71,143.29 249.559,143.251 249.404,143.215 C249.145,143.155 248.96,142.999 248.838,142.801 C248.807,142.789 248.777,142.773 248.745,142.761 C248.103,142.522 247.783,141.824 248.14,141.203 C248.228,141.051 248.294,140.892 248.345,140.726 C248.435,140.574 248.524,140.421 248.611,140.265 C249.112,139.363 249.478,138.366 249.815,137.394 C250.307,135.978 250.429,134.375 250.224,132.854 C251.563,132.456 253.184,132.601 254.635,132.724 C255.752,132.636 256.846,132.596 257.918,132.728 C262.457,133.286 265.464,136.339 267.86,139.922 C270.118,143.299 272.146,146.833 274.184,150.351 C275.22,152.141 276.052,154.049 276.982,155.901 C279.214,160.345 281.391,164.818 283.694,169.224 C287.716,176.92 290.379,185.13 292.439,193.495 C293.55,198.005 294.133,202.677 294.671,207.344 C295.298,212.784 296.037,218.212 296.251,223.68 C296.369,226.707 296.448,229.737 296.347,232.762 C296.458,233.074 296.523,233.422 296.527,233.81 C296.594,240.583 294.988,247.71 292.392,253.96 Z M294.763,249.876 L294.798,247.64 C295.699,248.496 295.458,249.023 294.763,249.876 Z M153.149,170.199 C154.127,170.089 155.14,170.291 156.138,170.357 C156.207,170.554 156.275,170.751 156.343,170.948 C155.482,171.698 154.621,172.449 153.67,173.278 C153.158,172.798 152.733,172.523 152.481,172.135 C151.966,171.345 152.285,170.296 153.149,170.199 Z M139.647,149.146 C139.9,149.015 140.547,149.147 140.675,149.366 C141.232,150.317 141.661,151.341 142.137,152.338 C141.947,152.462 141.757,152.586 141.567,152.71 C140.234,152.394 139.711,151.27 139.284,150.123 C139.186,149.86 139.409,149.269 139.647,149.146 Z M136.913,138.824 C137.936,138.827 138.684,139.348 138.834,140.332 C139.104,142.106 139.346,143.938 137.908,145.466 C135.912,143.557 135.667,141.862 136.913,138.824 Z M128.001,151.18 C127.854,151.223 127.708,151.267 127.561,151.31 C127.404,150.894 127.246,150.477 127.088,150.061 C127.31,150.016 127.532,149.971 127.754,149.926 C127.836,150.344 127.918,150.762 128.001,151.18 Z M131.069,144.676 C129.846,144.404 129.613,143.829 130.187,142.73 C131.352,143.012 131.534,143.612 131.069,144.676 Z M127.38,132.485 C127.569,131.027 127.745,129.672 127.962,128.003 C130.064,129.414 130.064,129.414 131.564,133.718 C130.118,133.291 128.841,132.915 127.38,132.485 Z M122.947,125.023 C124.729,124.972 125.289,125.586 125.104,126.845 C124.856,128.536 124.581,130.223 124.318,131.912 C124.154,131.907 123.989,131.903 123.824,131.898 C123.538,129.652 123.251,127.406 122.947,125.023 Z M119.456,148.484 C118.009,144.455 118.351,140.487 119.834,136.572 C120.005,136.12 120.645,135.507 121.035,135.53 C123.827,135.695 126.61,136.005 129.396,136.269 C129.523,136.566 129.649,136.863 129.775,137.16 C129.403,137.341 128.991,137.468 128.667,137.712 C126.717,139.18 125.687,141.068 126.342,143.542 C126.713,144.942 126.323,145.72 125.178,146.687 C124.006,147.676 123.363,149.294 122.327,150.885 C120.955,151.021 120.024,150.068 119.456,148.484 Z M121.835,155.039 C121.708,156.455 121.58,157.883 121.446,159.378 C119.679,159.656 118.498,159.031 117.355,158.274 C118.109,155.806 119.559,154.714 121.835,155.039 Z M119.434,125.141 C120.331,127.162 120.619,129.226 120.041,131.599 L117.725,131.562 C117.393,130.677 117.043,129.855 116.775,129.007 C115.952,126.406 116.266,125.924 119.434,125.141 Z M117.551,152.602 C116.506,153.769 115.702,154.665 114.657,155.832 C113.898,154.746 113.424,154.07 112.805,153.184 C114.445,152.676 115.668,151.749 117.551,152.602 Z M114.957,146.883 C115.172,147.737 115.343,148.417 115.579,149.352 L111.688,149.29 C111.526,148.403 111.359,147.487 111.154,146.364 C112.486,146.546 113.592,146.697 114.957,146.883 Z M113.782,129.873 C114.392,131.997 114.963,133.983 115.533,135.969 C115.411,136.04 115.289,136.11 115.166,136.18 C114.607,135.731 114.045,135.284 113.487,134.832 C111.198,132.975 111.205,132.114 113.782,129.873 Z M114.672,143.69 C113.358,143.32 112.074,142.958 110.768,142.59 L110.849,137.533 C114.468,138.311 115.332,139.675 114.672,143.69 Z M130.403,195.095 C129.474,197.55 127.174,198.281 124.785,198.579 C123.888,198.691 122.962,198.571 122.283,198.56 C118.134,198.887 114.9,197.58 112.384,194.528 C110.659,192.435 110.341,189.831 110.003,187.338 C109.374,182.693 110.873,178.552 114.335,175.445 C118.162,172.01 123.846,171.983 127.627,176.267 C132.545,181.84 132.959,188.343 130.403,195.095 Z M143.633,176.548 C143.542,176.709 143.434,176.859 143.318,177.005 C141.852,181.677 135.735,175.55 133.7,173.711 C131.405,171.638 129.15,169.633 127.243,167.18 C125.588,165.052 124.536,162.598 123.512,160.128 C123.429,159.943 123.353,159.754 123.278,159.564 L123.262,159.526 C123.229,159.441 123.192,159.359 123.16,159.273 C122.744,158.156 124.643,157.393 125.099,158.492 C125.237,158.827 125.375,159.164 125.514,159.502 C126.447,161.579 127.896,163.337 129.421,165.033 C129.653,165.049 129.881,164.973 130.096,164.747 C130.135,164.706 130.169,164.655 130.202,164.603 C128.321,161.21 125.214,157.324 127.075,153.475 C127.301,153.008 127.703,152.882 128.082,152.97 C128.6,152.759 129.239,152.934 129.442,153.654 C129.906,155.299 130.398,156.993 131.297,158.463 C131.813,159.306 132.243,160.193 132.748,161.041 C132.96,161.398 133.997,163.297 134.233,162.112 C134.612,160.216 133.491,157.801 132.893,156.025 C132.144,153.798 131.011,151.657 130.455,149.37 C130.201,148.324 129.696,146.464 130.693,145.624 C132.539,144.07 134.005,146.813 134.733,148.372 C134.891,148.597 135.043,148.825 135.186,149.056 C135.56,149.656 135.768,150.365 135.979,151.065 C136.769,152.664 137.717,154.197 139.133,155.254 C140.429,156.146 141.959,156.727 143.403,156.667 C143.789,156.652 144.107,156.587 144.377,156.473 C144.587,156.305 144.752,156.068 144.853,155.744 C145.298,154.321 145.153,152.591 144.666,151.189 C143.794,148.68 140.111,145.278 141.278,142.344 C141.795,141.044 143.221,141.231 144.204,141.85 C145.473,142.649 146.064,144.465 146.894,145.651 C148.787,148.355 150.294,151.218 151,154.351 C152.397,157.351 152.395,160.613 152.528,163.83 C152.552,164.42 152.235,165.18 151.816,165.606 C148.586,168.885 145.892,172.547 143.633,176.548 Z M149.681,175.978 C149.419,175.591 149.186,175.187 148.923,174.801 C148.695,174.464 148.759,174.022 148.979,173.696 C149.001,173.364 149.17,173.054 149.499,172.869 C149.97,172.603 150.692,172.749 150.934,173.27 C151.023,173.46 151.107,173.656 151.187,173.854 C151.258,173.967 151.306,174.091 151.332,174.223 C151.448,174.544 151.548,174.871 151.62,175.197 C151.743,175.757 151.434,176.334 150.863,176.481 C150.377,176.606 149.95,176.373 149.681,175.978 Z M148.185,179.274 C148.07,179.152 147.964,179.023 147.863,178.891 C147.65,178.638 147.434,178.388 147.204,178.148 C147,177.935 146.905,177.653 146.915,177.375 C146.846,176.953 147.088,176.478 147.447,176.275 C147.988,175.97 148.55,176.21 148.883,176.676 C149.045,176.903 149.194,177.14 149.35,177.37 C149.363,177.389 149.434,177.484 149.475,177.542 C149.55,177.63 149.625,177.718 149.699,177.807 C150.065,178.249 150.111,178.875 149.675,179.297 C149.267,179.692 148.578,179.692 148.185,179.274 Z M148.173,179.965 C148.166,179.864 148.306,179.752 148.38,179.644 C148.453,179.763 148.574,179.878 148.584,180.002 C148.592,180.108 148.472,180.224 148.404,180.344 C148.314,180.207 148.183,180.091 148.173,179.965 Z M145.696,185.889 C145.148,186.198 144.602,185.948 144.26,185.488 C143.905,185.003 143.632,184.465 143.286,183.975 C143.187,183.835 143.147,183.674 143.144,183.511 C142.983,183.053 143.219,182.497 143.636,182.261 C144.16,181.965 144.758,182.182 145.071,182.662 C145.449,183.24 145.683,183.897 146.097,184.453 C146.437,184.918 146.151,185.632 145.696,185.889 Z M145.103,181.221 C144.758,180.763 144.676,180.168 145.127,179.731 C145.501,179.369 146.271,179.295 146.617,179.755 C146.629,179.771 146.641,179.787 146.654,179.803 C146.783,179.893 146.9,180.006 146.997,180.141 C147.155,180.36 147.305,180.585 147.464,180.803 C147.474,180.816 147.485,180.831 147.501,180.851 C147.546,180.908 147.592,180.964 147.639,181.02 C147.714,181.106 147.79,181.19 147.868,181.273 C148.263,181.69 148.261,182.36 147.845,182.763 C147.434,183.16 146.752,183.154 146.355,182.739 C145.9,182.264 145.498,181.747 145.103,181.221 Z M175.838,129.689 C175.806,129.888 175.775,130.087 175.744,130.286 C173.757,130.975 171.764,131.648 169.784,132.359 C168.698,132.749 167.615,133.157 166.567,133.637 C164.521,134.572 164.003,136.545 163.429,138.455 C163.216,139.164 163.117,139.91 162.871,140.605 C162.053,142.907 159.401,144.271 156.947,141.757 C156.064,140.851 155.41,139.564 155.052,138.334 C154.198,135.4 153.497,132.412 152.901,129.413 C152.486,127.327 152.969,125.319 154.158,123.214 C154.886,123.507 155.608,123.66 156.161,124.052 C157.033,124.669 157.857,125.385 158.586,126.166 C162.25,130.099 166.691,130.589 171.594,129.225 C172.462,128.983 173.37,128.698 174.247,128.735 C174.79,128.758 175.308,129.351 175.838,129.689 Z M166.972,218.127 C166.919,218.067 166.866,218.007 166.814,217.948 C166.478,218.234 166.08,218.448 165.638,218.553 C165.182,218.662 164.724,218.724 164.265,218.751 C164.225,218.833 164.185,218.914 164.143,219 C159.99,220.268 155.573,221.59 151.175,222.971 C149.204,223.591 147.275,224.343 145.319,225.011 C143.172,225.745 141.096,226.85 138.695,226.33 C138.553,226.299 138.374,226.387 138.226,226.452 C133.501,228.538 128.347,229.034 123.436,230.434 C120.648,231.229 117.824,231.893 115.013,232.608 C113.975,232.872 112.941,233.275 111.889,233.333 C109.327,233.474 107.238,235.008 104.825,235.547 C103.728,235.792 102.624,236.004 101.522,236.229 C101.883,233.486 101.73,230.752 101.483,228.004 C101.261,225.529 101.488,222.991 101.06,220.562 C100.061,214.885 100.704,209.162 100.279,203.473 C100.033,200.177 100.231,196.85 100.191,193.538 C100.177,192.413 100.167,191.288 100.157,190.163 C100.15,190.143 100.142,190.124 100.136,190.104 C99.949,189.573 99.972,189.021 100.139,188.507 C100.109,185.614 100.067,182.721 99.943,179.831 C99.681,173.695 99.354,167.558 98.871,161.436 C98.226,153.247 97.46,145.066 96.633,136.893 C96.25,133.099 95.58,129.334 95.077,125.55 C94.152,118.586 93.202,111.624 92.382,104.647 C92.192,103.026 92.668,101.328 92.493,99.702 C92.331,98.193 91.708,96.734 91.325,95.385 C92.195,94.825 92.855,94.304 93.593,93.945 C95.217,93.159 96.82,92.228 98.541,91.763 C102.689,90.641 106.976,89.991 111.062,88.696 C114.351,87.654 117.404,85.886 120.608,84.554 C122.88,83.609 125.228,82.849 127.546,82.019 C128.012,81.852 128.503,81.757 128.971,81.596 C135.128,79.463 141.297,77.364 147.431,75.165 C149.682,74.358 151.824,73.252 154.056,72.388 C157.275,71.143 160.574,70.1 163.754,68.768 C165.728,67.94 167.661,67.23 169.792,66.811 C171.933,66.39 173.928,65.221 175.979,64.362 C177.096,63.895 178.198,63.39 179.598,62.774 C179.63,63.854 179.732,64.573 179.659,65.274 C178.945,72.2 178.029,79.109 177.524,86.049 C177.169,90.917 177.226,95.829 177.35,100.714 C177.48,105.858 177.925,110.992 178.186,116.133 C178.214,116.671 178.108,117.416 177.761,117.741 C175.63,119.74 174.728,122.215 174.908,125.344 C171.922,125.81 169.163,126.353 166.379,126.641 C164.053,126.881 162.256,125.575 160.67,124.04 C159.299,122.714 157.973,121.429 156.111,120.694 C153.055,119.488 150.791,120.276 149.94,123.438 C149.432,125.326 149.208,127.377 149.321,129.328 C149.546,133.236 150.575,137.011 151.876,140.705 C152.757,143.207 154.509,144.889 156.834,146.011 C160.322,147.694 164.462,146.075 165.841,142.786 C166.351,141.57 166.875,140.34 167.191,139.066 C167.552,137.607 168.466,136.719 169.764,136.265 C171.866,135.531 174.018,134.941 176.204,134.273 C177.136,136.041 178.149,137.722 178.9,139.513 C179.175,140.169 178.732,141.091 178.782,141.881 C179.286,149.911 179.941,157.933 180.307,165.968 C180.441,168.933 180.346,171.912 180.182,175.026 C180.26,176.955 180.322,178.885 180.357,180.816 C180.362,181.092 180.277,181.307 180.141,181.469 C180.582,182.27 180.63,182.82 180.722,184.549 C179.33,183.326 178.169,182.258 176.958,181.25 C173.331,178.233 169.768,175.128 166.006,172.289 C164.522,171.168 162.616,170.553 160.833,169.893 C158.089,168.878 156.56,167.119 156.181,164.122 C155.735,160.606 155.483,156.915 154.173,153.696 C152.137,148.695 150.318,143.387 145.766,139.843 C145.117,139.338 144.518,138.621 143.779,138.406 C141.649,137.785 140.206,136.245 138.499,135.017 C137.377,134.21 135.777,134.07 134.339,133.615 C134.503,128.818 131.403,125.844 128.141,122.965 C125.416,122.297 122.649,120.966 119.975,121.131 C116.767,121.329 113.451,122.433 111.68,125.808 C111.191,126.739 110.116,127.379 109.691,128.324 C108.816,130.267 107.894,132.271 107.531,134.345 C106.278,141.512 106.705,148.554 109.695,155.324 C111.156,158.632 113.776,160.751 116.862,162.262 C118.21,162.922 119.901,162.882 121.597,163.189 C123.213,165.646 124.936,168.267 126.68,170.919 C124.413,170.492 122.255,170.093 120.1,169.677 C116.801,169.04 114.265,170.7 111.973,172.634 C108.684,175.411 106.716,179.042 106.281,183.357 C106.092,185.237 105.959,187.217 106.34,189.04 C106.424,189.443 106.517,189.845 106.613,190.248 C108.648,195.293 111.893,200.08 117.418,201.628 C122.689,203.105 129.048,202.2 132.849,198.002 C133.201,197.614 133.582,197.359 133.97,197.211 C134.386,196.398 134.709,195.475 134.934,194.422 C135.499,191.789 135.788,189.227 135.879,186.581 C135.907,185.776 136.212,184.982 136.403,184.123 C135.203,182.423 134.051,180.649 133.798,178.059 C136.447,179.681 138.823,181.091 141.136,182.597 C141.548,182.865 141.75,183.509 141.965,184.015 C142.279,184.758 142.529,185.529 142.784,186.295 C142.937,186.755 143.308,187.385 143.136,187.669 C142.27,189.092 143.126,189.922 143.941,190.913 C144.957,192.148 145.818,193.564 146.604,194.903 C148.087,197.427 149.997,199.583 151.678,201.927 C152.105,202.522 152.679,203.046 153.276,203.479 C157.702,206.696 162.149,209.883 166.593,213.074 C167.403,213.655 168.288,214.144 169.034,214.794 C169.544,215.238 169.875,215.888 170.507,216.746 C169.098,217.296 168.053,217.705 166.972,218.127 Z M180.194,120.987 C183.018,123.205 184.535,134.281 182.507,137.025 C180.341,135.622 180.019,134.412 180.962,131.093 C178.674,129.286 178.914,126.614 178.759,124.099 C178.658,122.474 178.748,122.469 180.194,120.987 Z M185.872,118.129 C186.856,117.632 188.018,118.209 189.064,119.823 C189.462,120.437 189.882,121.131 189.974,121.831 C190.439,125.356 190.866,128.889 191.15,132.432 C191.221,133.317 190.714,134.249 190.427,135.336 C187.659,134.392 187.147,132.538 186.784,130.503 C186.263,127.581 185.651,124.674 185.019,121.774 C184.72,120.4 185.094,118.523 185.872,118.129 Z M196.416,116.653 C197.156,117.166 197.939,117.757 198.404,118.499 C199.576,120.369 201.063,122.071 201.71,124.242 C201.825,124.629 202.014,125.096 201.898,125.434 C201.098,127.783 200.246,130.114 199.358,132.431 C199.227,132.773 198.82,133.01 198.423,133.417 C196.135,132.352 194.919,130.477 194.767,128.199 C194.51,124.347 193.508,120.733 192.017,117.085 C193.668,115.825 195.014,115.681 196.416,116.653 Z M203.553,131.552 C204.157,133.42 204.525,134.782 205.039,136.086 C205.606,137.521 205.327,138.556 204.108,139.553 C200.761,142.292 197.027,144.143 192.686,144.357 C190.62,144.459 188.59,143.754 186.881,142.501 C185.1,141.195 185.157,139.974 186.941,138.007 C191.584,139.435 192.219,139.224 194.186,135.471 C195.019,135.911 195.819,136.481 196.71,136.779 C199.618,137.754 200.729,137.182 201.847,134.981 C202.362,133.966 202.861,132.944 203.553,131.552 Z M205.476,145.967 C205.155,146.834 204.051,146.984 203.546,146.188 C203.383,145.931 203.235,145.665 203.101,145.391 C202.88,144.937 202.955,144.4 203.33,144.077 C203.414,143.84 203.576,143.629 203.8,143.502 C204.311,143.214 204.941,143.412 205.236,143.903 C205.587,144.487 205.714,145.322 205.476,145.967 Z M205.872,121.51 C206.029,121.097 206.449,120.691 206.852,120.48 C209.004,119.352 211.343,118.908 213.748,118.78 C214.154,118.758 214.666,118.73 214.957,118.942 C215.725,119.503 216.651,120.068 217.044,120.864 C217.505,121.8 216.564,122.466 215.881,123.086 C213.926,124.862 211.654,125.874 209.52,126.066 C207.078,126.017 205.179,123.324 205.872,121.51 Z M221.324,94.392 C221.502,94.444 221.721,94.503 221.965,94.584 C222.086,94.625 222.215,94.668 222.351,94.714 C222.486,94.766 222.624,94.833 222.771,94.897 C223.062,95.03 223.377,95.181 223.707,95.349 C224.042,95.514 224.354,95.731 224.692,95.945 C225.026,96.163 225.376,96.385 225.693,96.658 C226.02,96.92 226.343,97.198 226.666,97.475 C226.965,97.778 227.266,98.079 227.549,98.387 C227.846,98.683 228.09,99.018 228.333,99.334 C228.569,99.656 228.81,99.955 228.994,100.273 C229.183,100.588 229.354,100.888 229.506,101.168 C229.58,101.31 229.655,101.441 229.717,101.573 C229.774,101.708 229.828,101.836 229.879,101.956 C229.978,102.197 230.054,102.413 230.118,102.588 C230.244,102.94 230.298,103.149 230.298,103.149 C230.298,103.149 230.12,103.016 229.842,102.771 C229.704,102.647 229.534,102.5 229.352,102.325 C229.172,102.148 228.968,101.951 228.735,101.747 C228.508,101.538 228.268,101.31 228.022,101.064 C227.784,100.813 227.495,100.58 227.23,100.315 C226.957,100.055 226.69,99.775 226.394,99.514 C226.102,99.25 225.818,98.97 225.532,98.692 C225.234,98.426 224.935,98.161 224.652,97.888 C224.372,97.61 224.072,97.365 223.795,97.11 C223.512,96.865 223.257,96.591 222.994,96.374 C222.735,96.148 222.493,95.927 222.27,95.716 C222.159,95.608 222.052,95.505 221.95,95.408 C221.842,95.313 221.74,95.222 221.644,95.137 C221.453,94.966 221.292,94.806 221.159,94.677 C220.893,94.416 220.751,94.25 220.751,94.25 C220.751,94.25 220.965,94.291 221.324,94.392 Z M225.822,92.82 C225.953,92.837 226.15,92.85 226.392,92.889 C226.513,92.909 226.648,92.921 226.794,92.952 C226.941,92.985 227.097,93.031 227.268,93.076 C227.439,93.122 227.62,93.178 227.813,93.235 C228,93.3 228.187,93.383 228.388,93.463 C228.587,93.547 228.799,93.63 229.006,93.736 C229.211,93.848 229.423,93.963 229.641,94.082 C229.864,94.196 230.073,94.341 230.288,94.488 C230.504,94.634 230.725,94.786 230.94,94.95 C231.358,95.293 231.799,95.645 232.189,96.058 C232.387,96.262 232.6,96.456 232.779,96.681 C232.969,96.908 233.161,97.135 233.353,97.362 C233.673,97.81 233.999,98.227 234.299,98.738 C234.617,99.224 234.858,99.714 235.102,100.188 C235.325,100.67 235.54,101.136 235.704,101.592 C235.875,102.046 236.022,102.479 236.135,102.885 C236.255,103.29 236.347,103.665 236.417,104.001 C236.492,104.335 236.54,104.631 236.576,104.876 C236.618,105.118 236.634,105.315 236.651,105.446 C236.664,105.579 236.671,105.649 236.671,105.649 C236.671,105.649 236.627,105.593 236.544,105.487 C236.467,105.38 236.344,105.227 236.208,105.024 C236.069,104.824 235.9,104.581 235.707,104.303 C235.521,104.025 235.312,103.711 235.083,103.368 C234.86,103.029 234.619,102.661 234.364,102.273 C234.118,101.881 233.835,101.488 233.567,101.069 C233.28,100.665 232.996,100.232 232.7,99.832 C232.424,99.431 232.073,98.984 231.748,98.549 L231.275,97.967 C231.116,97.763 230.945,97.572 230.777,97.38 C230.451,96.986 230.096,96.635 229.769,96.272 C229.601,96.095 229.421,95.939 229.258,95.768 C229.094,95.598 228.928,95.438 228.759,95.292 C228.592,95.14 228.43,94.991 228.273,94.848 C228.117,94.701 227.949,94.584 227.799,94.453 C227.645,94.323 227.498,94.2 227.359,94.082 C227.214,93.974 227.077,93.871 226.949,93.774 C226.82,93.673 226.696,93.582 226.584,93.488 C226.468,93.398 226.35,93.328 226.25,93.257 C226.044,93.124 225.89,93.002 225.781,92.927 C225.675,92.846 225.618,92.803 225.618,92.803 C225.618,92.803 225.689,92.809 225.822,92.82 Z M228.437,141.873 C226.804,144.693 223.326,145.2 220.531,142.927 C221.612,139.747 224.34,139.331 226.881,138.711 C227.291,138.611 227.987,138.976 228.302,139.341 C228.946,140.087 228.954,140.979 228.437,141.873 Z M206.827,141.656 C207.36,141.518 207.999,141.849 208.112,142.412 C208.227,142.988 208.424,143.442 208.688,143.958 C208.95,144.47 208.801,145.103 208.287,145.394 C207.785,145.677 207.136,145.491 206.852,144.993 C206.678,144.689 206.446,144.235 206.283,144.032 C206.013,143.698 205.914,143.268 206.066,142.895 C205.977,142.347 206.264,141.801 206.827,141.656 Z M197.947,146.833 C197.943,146.553 198.045,146.273 198.263,146.075 C198.894,145.503 199.852,145.233 200.622,145.724 C200.766,145.816 200.893,145.932 201.01,146.059 C201.026,146.054 201.04,146.049 201.057,146.044 C201.061,146.07 201.063,146.094 201.067,146.12 C201.495,146.625 201.695,147.339 201.491,147.984 C201.217,148.853 200.367,149.486 199.431,149.362 C198.9,149.292 198.476,149.05 198.192,148.585 C198.02,148.303 197.922,147.98 197.8,147.676 C197.684,147.389 197.769,147.08 197.947,146.833 Z M194.253,147.386 C194.774,147.092 195.381,147.303 195.689,147.787 C195.967,148.224 196.209,148.702 196.313,149.213 C196.427,149.776 196.134,150.349 195.556,150.498 C195.137,150.606 194.557,150.422 194.374,149.994 C194.252,149.709 194.094,149.442 193.972,149.156 C193.934,149.067 193.908,148.975 193.888,148.884 C193.876,148.863 193.865,148.842 193.852,148.821 C193.543,148.336 193.774,147.657 194.253,147.386 Z M194.587,195.235 C193.064,195.069 192.048,193.915 190.888,193.14 C189.17,191.991 187.583,190.647 185.935,189.392 C184.741,188.481 184.202,187.373 184.184,185.783 C184.104,178.727 183.965,171.669 183.679,164.618 C183.467,159.398 182.981,154.189 182.647,148.974 C182.541,147.325 182.528,145.671 182.464,143.75 C184.41,144.971 185.868,146.381 187.583,146.847 C190.173,147.552 190.883,149.183 191.087,151.472 C191.306,153.946 191.682,156.411 191.816,158.889 C192.138,164.849 192.208,170.826 192.66,176.775 C193.123,182.883 193.918,188.967 194.587,195.235 Z M213.436,188.617 C212.468,191.431 210.203,192.837 208.057,194.367 C207.267,194.929 206.57,195.621 205.792,196.2 C205.351,196.529 204.856,196.906 204.34,196.992 C202.635,197.278 200.91,197.442 198.902,197.688 C197.298,189.206 196.774,180.901 196.241,172.524 C200.164,179.833 206.84,184.142 213.436,188.617 Z M211.424,182.831 C209.055,181.042 206.755,179.142 204.574,177.128 C201.553,174.338 199.366,170.963 197.936,167.068 C196.44,162.992 195.092,158.909 195.147,154.502 C195.152,154.1 195.23,153.699 195.266,153.374 C195.505,153.22 195.649,153.044 195.774,153.057 C199.169,153.412 201.709,151.383 204.446,149.935 C205.971,149.128 207.431,148.2 209.091,147.225 C210.284,150.143 212.095,152.451 214.397,154.43 C216.61,156.332 219.173,157.432 221.939,158.094 C222.596,158.251 223.222,158.3 223.815,158.228 C224.638,158.443 225.477,158.565 226.319,158.556 C227.163,158.548 227.854,158.21 228.35,157.695 C228.362,157.689 228.374,157.682 228.386,157.676 C224.098,165.187 220.487,173.04 217.332,181.097 C215.481,185.825 215.479,185.893 211.424,182.831 Z M235.779,132.055 C235.772,132.154 235.77,132.248 235.759,132.338 C235.74,132.429 235.725,132.515 235.706,132.595 C235.67,132.756 235.626,132.894 235.593,133.006 C235.523,133.23 235.463,133.353 235.463,133.353 C235.463,133.353 235.378,133.234 235.263,133.035 C235.207,132.935 235.135,132.816 235.069,132.682 C235.036,132.616 235.001,132.545 234.965,132.47 C234.923,132.398 234.879,132.322 234.833,132.242 C234.744,132.084 234.655,131.914 234.571,131.736 C234.491,131.557 234.37,131.377 234.28,131.184 C234.229,131.09 234.186,130.991 234.141,130.893 C234.097,130.794 234.034,130.697 233.987,130.596 C233.88,130.397 233.792,130.188 233.694,129.982 C233.593,129.775 233.49,129.568 233.403,129.357 C233.317,129.146 233.215,128.941 233.134,128.734 C233.046,128.53 232.981,128.321 232.905,128.128 C232.833,127.934 232.771,127.744 232.718,127.565 C232.616,127.206 232.533,126.887 232.498,126.658 C232.457,126.43 232.449,126.288 232.449,126.288 C232.449,126.288 232.577,126.35 232.772,126.475 C232.969,126.602 233.238,126.78 233.522,127.04 C233.664,127.169 233.814,127.314 233.965,127.472 C234.119,127.628 234.261,127.809 234.407,127.996 C234.551,128.186 234.702,128.379 234.825,128.599 C234.956,128.814 235.075,129.04 235.196,129.266 C235.298,129.502 235.397,129.743 235.481,129.983 C235.577,130.218 235.629,130.47 235.678,130.711 C235.722,130.954 235.775,131.182 235.781,131.412 C235.788,131.642 235.787,131.858 235.779,132.055 Z M238.144,114.724 C238.908,117.153 238.407,118.768 236.315,119.692 C234.07,120.683 231.812,121.803 229.216,121.479 C228.638,121.442 228.06,121.416 227.484,121.363 C225.827,121.214 225.112,120.657 224.84,119.323 C224.505,117.686 224.764,116.841 226.335,116.135 C228.524,115.151 230.851,114.486 232.969,113.309 C233.377,113.082 233.934,113.116 234.424,113.046 C236.968,112.682 237.591,112.965 238.144,114.724 Z M238.598,127.404 C238.761,127.672 238.933,127.969 239.108,128.291 C239.288,128.613 239.41,128.958 239.56,129.32 C239.704,129.681 239.853,130.058 239.948,130.451 C240.058,130.841 240.157,131.242 240.251,131.642 C240.318,132.046 240.389,132.449 240.44,132.849 C240.506,133.247 240.522,133.641 240.546,134.022 C240.565,134.403 240.585,134.772 240.576,135.121 C240.57,135.47 240.557,135.8 240.538,136.105 C240.46,137.324 240.251,138.143 240.251,138.143 C240.251,138.143 240.16,137.951 240.035,137.612 C239.904,137.274 239.749,136.786 239.579,136.205 C239.496,135.914 239.412,135.599 239.332,135.266 C239.257,134.931 239.16,134.586 239.084,134.223 C239.008,133.863 238.929,133.491 238.848,133.113 C238.762,132.738 238.693,132.355 238.62,131.972 C238.541,131.593 238.452,131.217 238.384,130.841 C238.342,130.656 238.324,130.464 238.275,130.285 C238.232,130.105 238.188,129.926 238.152,129.748 C238.068,129.399 238.024,129.036 237.938,128.725 C237.858,128.409 237.789,128.103 237.73,127.814 C237.701,127.668 237.673,127.528 237.646,127.395 C237.609,127.261 237.574,127.133 237.54,127.014 C237.475,126.773 237.429,126.558 237.389,126.382 C237.311,126.029 237.283,125.818 237.283,125.818 C237.283,125.818 237.439,125.963 237.681,126.231 C237.801,126.365 237.95,126.527 238.108,126.72 C238.187,126.816 238.27,126.919 238.358,127.027 C238.439,127.142 238.513,127.272 238.598,127.404 Z M241.878,126.618 C241.993,126.854 242.139,127.138 242.287,127.47 C242.44,127.799 242.611,128.172 242.774,128.591 C242.941,129.007 243.116,129.46 243.293,129.943 C243.476,130.424 243.619,130.95 243.78,131.489 C243.935,132.03 244.107,132.586 244.207,133.174 C244.327,133.757 244.431,134.352 244.538,134.948 C244.602,135.573 244.678,136.119 244.694,136.748 C244.736,137.357 244.709,137.947 244.694,138.518 C244.676,138.804 244.65,139.085 244.622,139.359 C244.595,139.633 244.569,139.901 244.517,140.16 C244.471,140.418 244.425,140.669 244.382,140.912 C244.333,141.153 244.265,141.384 244.208,141.605 C244.145,141.826 244.093,142.037 244.028,142.235 C243.955,142.431 243.885,142.616 243.82,142.79 C243.753,142.963 243.697,143.126 243.634,143.272 C243.571,143.419 243.498,143.55 243.441,143.669 C243.202,144.144 243.049,144.402 243.049,144.402 C243.049,144.402 243.065,144.094 243.123,143.579 C243.16,143.324 243.173,143.007 243.198,142.651 C243.211,142.474 243.224,142.286 243.238,142.087 C243.243,141.888 243.248,141.679 243.254,141.461 C243.279,141.029 243.272,140.559 243.268,140.066 C243.272,139.82 243.264,139.566 243.249,139.307 C243.233,139.049 243.236,138.786 243.218,138.518 C243.174,137.982 243.147,137.427 243.085,136.878 C243.041,136.345 242.954,135.72 242.89,135.171 C242.796,134.602 242.701,134.034 242.623,133.471 C242.556,132.907 242.436,132.355 242.346,131.817 C242.246,131.28 242.184,130.754 242.086,130.259 C241.995,129.763 241.917,129.291 241.851,128.852 C241.727,127.974 241.611,127.233 241.562,126.711 C241.505,126.189 241.491,125.885 241.491,125.885 C241.491,125.885 241.643,126.148 241.878,126.618 Z M299.686,220.723 C299.096,212.038 298.048,203.438 296.503,194.866 C294.839,185.632 291.427,177.065 287.607,168.588 C285.704,164.366 283.104,160.515 281.336,156.224 C279.088,150.766 275.842,145.862 272.706,140.887 C270.739,137.767 268.535,134.953 265.674,132.62 C263.145,130.557 260.361,129.22 257.053,129.388 C255.24,129.481 253.435,129.81 251.639,130.11 C250.41,130.314 249.763,129.92 249.541,128.659 C249.225,126.867 248.913,125.062 248.411,123.317 C246.288,115.919 244.165,108.52 241.897,101.166 C240.782,97.55 237.866,95.124 235.4,92.459 C233.936,90.878 232.021,89.862 229.88,89.338 C229.545,89.256 229.267,88.942 228.969,88.712 C228.921,88.697 228.873,88.684 228.825,88.669 C226.409,88.326 223.988,87.715 221.58,87.758 C218.873,87.807 216.077,88.158 213.5,88.957 C208.716,90.443 204.907,93.537 201.766,97.4 C201.001,98.34 200.272,99.468 199.999,100.621 C199.106,104.402 198.101,108.204 199.061,112.158 C199.178,112.638 198.985,113.193 198.93,113.759 C197.225,113.255 195.747,112.819 194.285,112.387 C193.893,107.737 193.45,103.142 193.137,98.539 C192.941,95.653 192.84,92.753 192.884,89.862 C192.924,87.141 193.253,84.427 193.377,81.706 C193.509,78.803 193.449,75.889 193.653,72.993 C194.01,67.942 194.778,62.905 194.859,57.854 C194.924,53.74 194.308,49.606 193.845,45.497 C193.655,43.814 192.598,43.369 190.974,43.971 C190.118,44.288 189.292,44.698 188.418,44.949 C182.934,46.52 177.436,48.044 171.951,49.612 C167.178,50.976 162.376,52.259 157.657,53.791 C151.128,55.911 144.669,58.245 138.17,60.459 C134.73,61.631 131.278,62.775 127.814,63.876 C123.961,65.1 120.081,66.236 116.229,67.462 C114.255,68.089 112.328,68.862 110.361,69.512 C104.574,71.423 98.769,73.281 92.987,75.208 C88.978,76.543 84.999,77.973 80.995,79.325 C79.861,79.708 78.607,80.345 77.948,78.56 C77.867,78.34 77.391,78.251 77.086,78.13 C75.47,77.494 73.85,76.87 72.233,76.237 C71.152,75.814 70.109,75.206 68.989,74.983 C60.379,73.266 52.614,69.3 44.651,65.875 C42.092,64.774 39.743,63.189 37.193,62.065 C33.675,60.514 30.014,59.286 26.494,57.74 C23.552,56.447 20.709,54.925 17.851,53.45 C15.282,52.124 12.767,50.694 10.197,49.369 C9.688,49.106 9.272,49.001 8.919,49.049 C8.139,48.622 7.354,48.206 6.593,47.767 C6.044,47.451 5.462,47.172 4.911,46.847 C5.798,45.063 7.651,43.549 9.565,42.428 C9.956,42.457 10.385,42.369 10.802,42.142 C11.017,42.025 11.174,41.799 11.392,41.69 C14.129,40.325 16.77,38.677 19.637,37.679 C25.416,35.666 31.217,33.788 36.163,30.009 C36.417,29.815 36.764,29.74 37.073,29.625 C39.552,28.704 42.041,27.81 44.505,26.851 C45.101,26.619 45.609,26.164 46.166,25.828 C47.637,24.939 49.01,23.693 50.607,23.241 C56.893,21.461 63.251,19.932 69.583,18.312 C69.743,18.271 69.919,18.29 70.075,18.24 C71.25,17.866 72.43,17.505 73.592,17.093 C74.283,16.848 74.926,16.463 75.623,16.239 C77.747,15.556 79.935,15.043 82.006,14.23 C83.831,13.514 85.447,12.16 87.308,11.67 C89.8,11.013 92.129,10.117 94.474,9.068 C96.875,7.993 99.511,7.437 102.058,6.705 C103.399,6.321 104.774,5.784 106.128,5.802 C107.28,5.817 107.762,5.349 108.153,4.415 C110.718,5.491 112.985,6.455 115.264,7.391 C116.41,7.862 117.589,8.252 118.732,8.729 C124.829,11.278 130.079,15.227 135.462,18.943 C141.002,22.768 146.969,25.792 153.088,28.542 C156.487,30.07 159.923,31.516 163.303,33.085 C168.255,35.383 173.03,38.061 178.237,39.811 C179.784,40.331 181.191,41.261 182.677,41.971 C183.328,42.282 184.007,42.7 184.693,42.74 C186.062,42.821 186.7,41.733 185.935,40.595 C185.447,39.869 184.703,39.261 183.961,38.771 C181.253,36.98 178.314,35.67 175.193,34.765 C174.646,34.607 174.091,34.422 173.594,34.149 C171.722,33.116 169.928,31.926 168.004,31.004 C161.224,27.755 154.387,24.624 147.602,21.385 C141.856,18.641 136.324,15.545 131.213,11.693 C127.174,8.65 122.77,6.209 117.949,4.545 C115.474,3.69 112.874,3.086 110.847,1.153 C110.388,0.715 109.178,0.965 108.334,1.068 C107.795,1.133 107.306,1.542 106.774,1.74 C99.477,4.457 92.193,7.207 84.872,9.858 C80.825,11.324 76.749,12.725 72.629,13.968 C67.972,15.373 63.221,16.474 58.576,17.91 C54.134,19.485 49.932,21.388 45.708,23.587 C40.484,26.307 35.173,28.4 29.548,30.139 C29.485,30.158 29.422,30.178 29.358,30.197 C27.278,31.11 25.176,31.975 23.042,32.744 C18.2,34.488 13.611,36.735 9.137,39.247 C9.058,39.291 8.989,39.34 8.918,39.388 C6.148,40.649 3.187,42.122 1.57,44.492 C1.221,45.003 1.044,45.494 0.999,45.963 C0.584,46.306 0.351,46.87 0.5,47.509 C0.643,48.122 0.753,48.74 0.837,49.361 C0.804,50.075 0.819,50.795 0.865,51.517 C0.846,52.899 0.965,54.28 1.1,55.662 C1.094,56.36 1.086,57.056 1.086,57.75 C1.085,61.511 9.238,221.011 9.195,224.77 C9.182,225.838 10.127,226.322 10.963,226.166 C11.01,226.196 11.061,226.224 11.114,226.25 C14.403,227.863 79.679,256.419 83.09,257.767 C83.097,257.77 83.104,257.773 83.111,257.776 L83.111,257.775 C83.236,257.825 83.358,257.878 83.483,257.926 C85.057,258.525 86.149,255.82 84.596,255.174 C81.327,253.816 16.064,225.497 13.043,223.655 C13.005,223.632 12.968,223.613 12.93,223.594 C12.061,213.271 4.594,60.714 4.385,57.028 C4.332,56.091 4.206,55.114 4.082,54.124 C4.073,52.804 4.035,51.486 3.919,50.175 C3.934,50.058 3.954,49.94 3.973,49.822 C6.272,51.178 8.084,53.362 10.812,53.973 C10.857,54.026 10.905,54.078 10.95,54.132 C13.526,55.409 15.973,56.62 18.403,57.861 C20.531,58.948 22.564,60.231 24.733,61.221 C27.804,62.624 30.969,63.821 34.08,65.138 C36.367,66.106 38.696,67.005 40.897,68.146 C47.379,71.507 53.953,74.62 60.965,76.753 C64.374,77.789 67.73,79.008 71.078,80.229 C73.684,81.18 75.033,83.179 75.216,85.906 C75.771,94.16 76.393,102.412 76.77,110.675 C77.046,116.722 76.993,122.785 77.056,128.841 C77.098,132.828 76.879,136.83 77.142,140.802 C77.685,148.997 78.521,157.171 79.144,165.361 C79.748,173.294 80.266,181.233 80.757,189.174 C80.9,191.482 80.67,193.818 80.875,196.118 C81.199,199.745 81.782,203.349 82.174,206.972 C82.272,207.874 82.209,208.824 82.037,209.722 C82.161,210.52 82.28,211.32 82.409,212.118 C83.111,216.475 83.495,220.913 83.24,225.317 C83.587,230.863 83.969,236.407 84.32,241.953 C84.499,244.773 84.583,247.599 84.815,250.414 C84.933,251.849 85.599,252.447 86.611,252.351 C87.618,252.255 87.841,251.633 87.9,250.916 C87.33,247.076 87.205,243.204 87.059,239.324 C86.901,235.116 86.493,230.918 86.549,226.702 C86.611,222.048 86.627,217.439 86.445,212.834 C86.242,209.742 85.986,206.654 85.762,203.563 C85.69,202.919 85.614,202.276 85.53,201.632 C85.474,201.209 85.478,200.788 85.542,200.389 C85.298,196.797 85.068,193.204 84.778,189.616 C84.309,183.833 83.735,178.057 83.263,172.274 C82.79,166.48 82.379,160.681 81.958,154.883 C81.646,150.579 81.268,146.276 81.09,141.966 C80.895,137.237 80.881,132.501 80.814,127.768 C80.765,124.365 80.817,120.959 80.717,117.558 C80.586,113.081 80.339,108.607 80.165,104.131 C80.084,102.057 80.263,99.95 79.963,97.911 C79.365,93.865 79.376,89.818 79.445,85.755 C79.483,83.525 79.573,83.328 81.541,82.658 C85.672,81.252 89.811,79.869 93.952,78.491 C97.093,77.445 100.251,76.452 103.384,75.383 C109.199,73.4 114.902,71.071 120.879,69.591 C125.636,68.413 130.295,66.967 134.77,64.955 C135.297,64.718 135.852,64.524 136.413,64.381 C140.815,63.257 145.149,61.965 149.254,59.954 C150.653,59.269 152.209,58.878 153.721,58.453 C157.694,57.336 161.692,56.302 165.664,55.178 C168.189,54.464 170.672,53.602 173.198,52.891 C176.136,52.064 179.112,51.374 182.045,50.534 C183.453,50.13 184.768,49.375 186.186,49.039 C187.453,48.739 188.805,48.795 190.197,48.688 C191.659,51.944 191.267,55.459 191.11,58.907 C190.742,67.035 190.232,75.156 189.787,83.281 C189.724,84.442 189.689,85.606 189.664,86.77 C189.562,91.485 189.349,96.203 189.42,100.916 C189.461,103.646 190.018,106.365 190.247,109.097 C190.418,111.143 190.536,113.219 189.273,115.221 C186.904,114.437 184.573,114.317 181.94,116.11 C182.125,114.122 182.273,112.678 182.388,111.231 C182.452,110.422 182.653,109.561 182.464,108.806 C181.659,105.593 181.657,102.263 181.343,99.023 C180.475,90.067 181.404,81.148 182.983,72.269 C183.66,68.468 183.584,64.504 183.558,60.616 C183.54,57.96 182.405,57.49 180.056,58.571 C176.372,60.268 172.71,62.047 168.916,63.46 C164.123,65.244 159.184,66.632 154.348,68.307 C148.914,70.189 143.522,72.192 138.118,74.161 C137.876,74.249 137.634,74.338 137.392,74.426 C135.255,75.408 133.046,76.247 130.846,77.067 C126.333,78.75 121.836,80.414 117.267,81.934 C116.762,82.161 116.279,82.328 115.782,82.426 C111.153,83.935 106.447,85.374 101.977,87.295 C97.743,89.115 93.651,91.21 89.031,91.847 C88.933,91.86 88.842,91.859 88.753,91.85 C89.034,95.616 89.528,99.353 89.797,103.131 C89.981,105.718 90.046,108.31 90.116,110.901 C90.294,112.192 90.32,113.541 90.44,114.836 C90.669,117.317 90.644,119.826 90.955,122.295 C91.887,129.68 93.02,137.04 93.894,144.431 C94.38,148.543 94.502,152.697 94.798,156.831 C94.905,158.322 95.061,159.81 95.156,161.301 C95.538,167.343 95.964,173.383 96.256,179.43 C96.445,183.329 96.41,187.239 96.507,191.143 C96.548,192.768 96.481,194.388 96.409,196.01 C96.708,203.452 97.006,210.889 97.536,218.321 C97.949,224.107 98.229,229.901 98.361,235.698 C98.586,236.07 99.044,236.186 100.017,236.281 C100.443,236.323 100.874,236.311 101.304,236.312 C100.754,236.569 100.208,236.835 99.649,237.072 C98.717,237.466 98.479,238.141 98.733,239.048 C101.376,239.727 102.344,239.627 104.585,238.929 C107.979,237.872 111.3,236.485 114.952,236.477 C115.504,236.476 116.061,236.206 116.607,236.034 C118.893,235.315 121.139,234.157 123.469,233.952 C127.985,233.556 132.164,231.844 136.58,231.145 C137.48,231.003 138.399,230.897 139.265,230.628 C144.003,229.158 148.724,227.629 153.46,226.15 C155.503,225.512 157.567,224.943 159.624,224.351 C161.373,223.848 163.162,223.459 164.868,222.84 C168.339,221.58 171.767,220.2 175.386,218.802 C177.567,221.092 181.262,221.853 182.903,225.153 C181.088,225.808 179.393,226.39 177.72,227.031 C175.024,228.064 172.377,229.236 169.646,230.166 C166.21,231.336 162.699,232.283 159.242,233.397 C155.71,234.536 152.215,235.79 148.686,236.937 C143.891,238.496 139.071,239.976 134.277,241.539 C131.135,242.564 128.038,243.731 124.888,244.734 C121.838,245.705 118.739,246.525 115.675,247.456 C113.225,248.2 110.731,248.852 108.374,249.829 C104.759,251.327 100.987,252.213 97.2,253.023 C95.743,253.335 94.285,253.623 92.854,253.994 C92.185,254.501 91.332,254.756 90.532,254.697 C89.585,255.034 88.658,255.436 87.761,255.939 C86.888,256.429 86.212,257.088 86.707,258.117 C87.148,259.036 87.94,258.943 88.842,258.572 C90.135,258.04 91.486,257.606 92.848,257.287 C97.761,256.137 102.736,255.223 107.599,253.898 C113.502,252.289 119.278,250.211 125.181,248.601 C130.432,247.169 135.15,244.363 140.612,243.362 C145.183,242.526 149.512,240.428 154.001,239.068 C158.984,237.557 163.743,235.42 168.797,234.086 C171.78,233.299 174.694,232.249 177.605,231.193 C177.808,231.089 178.037,231.006 178.29,230.945 C179.128,230.641 179.966,230.338 180.806,230.042 C181.516,229.792 182.187,229.697 182.829,229.761 C184.243,229.291 185.633,228.746 187.006,228.173 C187.002,227.828 186.996,227.437 186.989,226.992 C187.224,226.996 187.497,226.92 187.683,227.015 C188.232,227.293 188.778,227.577 189.324,227.861 C189.835,227.964 190.309,228.198 190.705,228.583 C192.623,229.589 194.541,230.595 196.503,231.505 C198.958,232.643 201.334,234.019 204.16,234.236 C207.111,234.462 210.042,234.931 212.988,235.228 C215.619,235.492 218.067,234.793 220.471,233.753 C222.587,232.837 224.778,232.098 227.127,231.209 C227.38,231.93 227.624,232.519 227.795,233.129 C228.644,236.154 229.43,239.198 230.323,242.21 C231.076,244.747 231.823,247.299 232.793,249.757 C233.655,251.938 234.606,254.084 235.758,256.125 C237.625,257.964 239.603,259.696 241.861,261.044 C244.838,262.822 248.086,263.74 251.43,264.586 C254.96,265.479 258.523,266.217 262.089,266.944 C267.704,267.122 273.311,267.222 278.862,265.994 C281.027,265.515 283.317,265.435 285.379,264.697 C286.171,264.414 286.93,264.093 287.656,263.726 C287.968,263.323 288.306,262.943 288.69,262.611 C289.289,262.093 289.93,261.835 290.573,261.8 C291.736,260.795 292.743,259.56 293.561,258.016 C295.012,255.276 296.312,252.575 296.982,249.575 C297.56,246.987 298.041,244.378 298.566,241.779 C299.975,234.815 300.167,227.806 299.686,220.723 Z" id="Fill-257"></path>
        </g>
    </g>
</svg>