<?xml version="1.0" encoding="UTF-8"?>
<svg width="78px" height="118px" viewBox="0 0 78 118" version="1.1" xmlns="http://www.w3.org/2000/svg" xmlns:xlink="http://www.w3.org/1999/xlink">
    <!-- Generator: Sketch 50.2 (55047) - http://www.bohemiancoding.com/sketch -->
    <title>Sailor</title>
    <desc>Created with Sketch.</desc>
    <defs></defs>
    <g id="Sailor" stroke="none" stroke-width="1" fill="none" fill-rule="evenodd">
        <g id="Group" fill="#000000">
            <path d="M67.854,35.552 C67.564,36.542 66.622,35.843 66.115,35.899 C64.652,36.064 63.454,36.427 62.463,37.117 C62.06,37.397 61.774,37.809 61.42,38.161 C61.066,38.51 60.664,38.708 60.375,39.03 C60.243,39.179 60.19,39.536 60.028,39.726 C59.906,39.868 59.618,39.927 59.506,40.073 C59.119,40.582 59.023,41.103 58.463,41.465 C58.366,41.527 58.49,41.628 58.289,41.638 C58.034,41.652 58.02,42.155 57.767,42.334 C57.415,42.584 56.815,42.968 56.376,42.682 C56.249,42.207 56.722,42.332 56.724,41.986 C56.725,41.807 56.942,41.864 57.071,41.812 C57.378,41.69 58.114,40.995 58.463,40.595 C58.609,40.428 58.647,40.145 58.811,39.899 C58.949,39.692 59.182,39.575 59.332,39.378 C59.43,39.251 59.671,39.03 59.681,38.856 C59.703,38.428 60.828,37.713 61.246,37.291 C61.572,36.961 61.794,36.49 62.115,36.248 L62.463,36.248 L62.637,35.899 C62.868,35.773 63.094,35.854 63.332,35.726 L63.506,35.378 C63.799,35.246 63.978,35.347 64.202,35.204 C64.956,34.723 66.65,34.892 67.854,35.552" id="Fill-94"></path>
            <path d="M48.376,43.552 C48.177,43.789 47.974,43.631 47.68,43.552 C47.43,43.484 46.974,43.338 46.637,43.204 C46.519,43.157 46.511,43.05 46.463,43.03 C45.92,42.807 45.791,42.79 45.246,42.334 C45.14,42.246 45.083,42.357 45.072,42.16 C45.063,41.979 44.091,41.41 43.854,41.117 C43.749,40.986 43.756,40.731 43.68,40.595 C43.63,40.503 43.517,40.618 43.506,40.421 C43.479,39.881 42.763,39.512 42.289,39.03 C42.173,38.913 42.232,38.628 42.115,38.508 L41.768,38.508 C41.753,38.491 41.379,37.909 41.246,37.813 C41.043,37.667 40.781,37.756 40.55,37.639 C40.434,37.579 40.303,37.348 40.202,37.291 C39.905,37.122 39.542,37.072 39.333,36.77 C38.583,36.813 37.821,36.71 37.072,36.77 C36.433,36.819 35.893,37.167 35.506,36.943 C35.681,36.711 35.793,36.418 36.028,36.248 C36.177,36.136 36.611,36.211 36.724,36.074 C36.89,35.87 37.024,35.969 37.594,35.899 C37.947,35.856 38.099,35.591 38.637,35.726 L38.811,35.899 C38.959,35.903 39.081,35.677 39.333,35.726 L39.506,35.899 C39.826,35.979 39.971,35.888 40.376,36.074 C40.525,36.141 40.591,36.507 40.724,36.596 C40.928,36.732 41.213,36.628 41.42,36.77 C41.569,36.872 41.623,37.19 41.768,37.291 C41.935,37.409 42.145,37.337 42.289,37.465 C42.553,37.695 42.726,38.032 42.985,38.334 C43.074,38.438 42.961,38.498 43.159,38.508 C43.146,38.507 43.844,39.166 43.854,39.378 C43.867,39.615 44.103,39.425 44.202,39.551 C44.317,39.699 44.274,39.93 44.376,40.073 C44.571,40.346 44.935,40.582 44.898,40.943 C45.53,41.354 46.132,41.796 46.637,42.334 C47.406,42.55 48.343,42.599 48.376,43.552" id="Fill-95"></path>
            <path d="M48.551,46.682 C47.29,46.627 46.692,45.581 45.767,44.769 L45.42,44.769 C45.247,44.559 44.793,44.513 44.376,44.247 C43.825,43.896 41.907,43.701 40.898,43.552 C39.774,43.386 38.65,43.558 37.246,43.725 C37.241,43.43 37.275,43.175 37.419,43.03 C37.612,42.838 37.821,42.977 38.116,42.856 C39.049,42.473 39.583,42.556 40.724,42.682 C41.847,42.806 43.251,42.634 44.202,42.856 C44.238,42.865 44.224,43.022 44.376,43.03 L44.55,43.03 C44.723,43.099 44.829,43.143 45.072,43.204 C45.241,43.247 45.167,43.345 45.246,43.378 C46.069,43.717 46.299,43.781 46.985,44.421 C47.213,44.634 47.509,44.939 47.68,45.117 C48.03,45.479 49.047,45.883 48.551,46.682" id="Fill-96"></path>
            <path d="M64.898,48.247 C65.036,48.849 64.704,48.981 64.55,49.29 C64.434,49.29 64.318,49.29 64.202,49.29 C64.048,48.981 63.717,48.849 63.854,48.247 C64.364,48.091 64.389,48.091 64.898,48.247" id="Fill-97"></path>
            <path d="M45.767,48.595 C46.208,49.02 45.401,48.966 45.593,49.639 C44.974,49.678 44.685,49.388 44.724,48.769 C44.93,48.569 45.339,48.573 45.767,48.595" id="Fill-98"></path>
            <path d="M37.594,62.856 C37.086,63.588 36.487,63.788 35.854,64.421 C35.681,64.595 35.435,64.799 35.333,64.942 C35.193,65.138 35.142,65.705 34.985,65.986 C34.914,66.114 34.717,66.224 34.637,66.334 C34.483,66.544 34.544,66.706 34.463,67.029 C34.438,67.13 34.289,67.21 34.289,67.203 C34.238,67.588 34.326,68.104 34.289,68.595 C34.289,68.61 34.084,68.612 34.115,68.769 C34.124,68.81 34.308,68.772 34.289,68.943 C34.273,69.096 34.133,69.221 34.115,69.464 C34.083,69.919 34.096,70.312 34.115,70.682 C34.149,71.329 34.345,71.945 34.463,72.595 C34.502,72.812 34.399,73.08 34.463,73.291 L34.811,73.639 C34.86,73.976 34.856,74.345 34.637,74.682 C33.926,74.708 33.933,73.98 33.768,73.465 C33.198,71.693 33.233,67.791 33.941,65.986 C33.982,65.882 34.048,65.744 34.115,65.639 C34.242,65.441 34.311,65.275 34.463,65.117 C34.605,64.969 34.671,64.74 34.811,64.595 C34.784,64.624 35.341,63.734 35.506,63.726 C35.745,63.713 35.554,63.476 35.68,63.377 C35.787,63.296 36.079,63.436 36.202,63.377 L36.376,63.03 C36.563,62.931 37.04,62.995 37.072,62.682 C37.353,62.633 37.371,62.846 37.594,62.856" id="Fill-99"></path>
            <path d="M65.768,64.942 C65.969,64.915 66.076,64.981 66.115,65.117 C66.601,64.944 66.503,65.443 66.636,65.639 L66.985,65.813 C67.052,65.954 66.917,66.191 66.985,66.334 C67.024,66.417 67.149,66.317 67.159,66.508 L67.159,67.029 C67.322,67.164 67.418,67.157 67.506,67.377 L67.506,67.725 C67.728,67.906 67.6,68.079 67.68,68.42 C67.758,68.75 67.766,68.598 67.68,68.943 C67.616,69.199 67.84,69.356 67.854,69.638 C67.868,69.917 67.661,69.945 67.68,70.161 C67.679,70.149 67.848,70.216 67.854,70.333 C67.867,70.58 67.723,70.828 67.68,71.204 C67.622,71.724 67.548,71.843 67.506,72.421 C67.471,72.915 67.513,73.096 67.333,73.639 C67.312,73.699 67.167,73.64 67.159,73.812 C67.156,73.861 67.042,74.718 66.985,74.855 C66.953,74.934 66.708,75.087 66.636,75.203 C66.567,75.316 66.26,75.58 66.289,75.726 C66.294,75.75 66.54,75.738 66.463,75.899 C66.424,75.98 66.208,76.035 66.115,76.073 C66.074,76.844 65.928,77.51 65.246,77.638 C65.171,77.307 64.871,77.201 64.898,76.769 C65.365,76.813 65.085,76.355 65.246,76.073 C65.302,75.974 65.53,75.984 65.593,75.899 L65.593,75.552 L65.768,75.552 L65.768,75.203 L65.941,75.203 L65.941,74.855 C66.114,74.713 66.131,74.608 66.289,74.16 C66.608,73.257 66.947,72.082 66.985,71.029 C67.001,70.566 66.853,70.161 66.811,69.638 C66.771,69.147 66.892,68.651 66.811,68.246 C66.715,67.769 66.474,67.303 66.289,66.856 C66.121,66.45 65.931,66.047 65.768,65.639 C65.768,65.407 65.768,65.174 65.768,64.942" id="Fill-100"></path>
            <path d="M38.984,49.117 C38.83,49.556 39.407,49.618 39.681,49.813 C39.791,49.891 39.903,50.086 40.028,50.161 C40.115,50.211 40.284,50.119 40.376,50.161 L40.55,50.507 C41.133,50.705 41.902,50.546 42.637,50.682 C42.355,49.63 42.646,48.92 42.811,47.899 C41.037,47.807 40.111,48.563 38.984,49.117 Z M46.637,48.42 C46.519,48.322 46.421,48.181 46.289,48.073 C45.816,47.686 45.366,47.763 44.55,47.726 C44.501,47.723 44.568,47.513 44.376,47.552 C44.346,47.557 44.365,47.834 44.202,47.726 C43.682,48.19 43.416,48.909 43.506,49.986 C43.846,50.09 44.033,50.094 44.376,50.161 C45.342,50.347 45.719,50.296 46.115,49.813 L46.463,49.813 C46.566,49.743 46.688,49.557 46.811,49.464 C46.99,49.331 47.156,49.248 47.333,49.117 C47.392,48.475 46.873,48.617 46.637,48.42 Z M48.203,48.42 C48.337,48.795 48.016,49.003 47.854,49.29 C47.79,49.403 47.775,49.687 47.68,49.813 C47.522,50.023 46.986,50.248 46.637,50.507 L46.463,50.856 L46.115,50.856 C45.986,51.014 45.801,51.125 45.593,51.204 L45.246,51.204 L45.246,51.378 C44.806,51.48 44.213,51.474 43.68,51.551 C42.983,51.653 42.497,51.884 41.768,51.725 C41.622,51.694 41.596,51.575 41.42,51.551 C40.98,51.495 40.707,51.46 40.376,51.378 C40.285,51.355 40.107,51.425 40.028,51.378 L39.854,51.03 C39.767,50.985 39.604,51.054 39.506,51.03 C39.217,50.957 38.954,50.566 38.637,50.334 C38.527,50.254 38.409,50.242 38.289,50.161 C38.194,50.095 37.858,50.075 37.767,49.986 C37.681,49.902 37.821,49.583 37.594,49.639 C37.775,48.899 38.5,48.481 39.159,48.073 C39.253,48.014 39.133,47.911 39.333,47.899 C39.501,47.89 40.242,47.574 40.55,47.377 C40.721,47.269 40.824,47.266 41.072,47.203 C41.313,47.143 41.517,47.106 42.289,47.03 C42.646,46.995 42.742,46.885 42.985,46.856 C42.928,46.863 43.077,47.132 43.159,47.03 C43.411,46.715 44.936,46.584 45.767,46.682 C45.766,46.682 45.818,46.85 45.942,46.856 C46.173,46.868 46.406,46.847 46.637,46.856 C47.039,47.497 47.871,47.71 48.203,48.42 Z" id="Fill-101"></path>
            <path d="M65.593,47.899 C65.243,47.443 63.825,47.843 63.332,47.377 C62.89,47.805 62.711,48.496 62.811,49.464 C63.171,49.327 63.107,49.708 63.506,49.813 C63.469,49.803 63.702,49.624 63.854,49.639 C63.834,49.636 63.937,49.79 64.028,49.813 C64.473,49.923 65.19,49.473 65.419,49.29 C65.801,48.987 66.027,48.676 66.115,48.247 C65.774,48.289 65.725,48.071 65.593,47.899 Z M61.593,47.203 C61.233,47.625 60.606,47.372 60.203,47.552 L59.854,47.899 C59.425,48.228 59.023,48.547 58.811,48.943 C60.016,49.13 60.439,50.097 61.941,49.986 C62.337,49.57 61.56,49.346 61.767,48.595 C61.75,48.056 61.98,47.764 62.115,47.377 C61.893,47.369 61.875,47.155 61.593,47.203 Z M66.985,47.203 C66.966,47.434 67.009,47.67 66.985,47.899 C66.967,48.065 66.821,48.022 66.811,48.073 C66.783,48.212 66.979,48.271 66.985,48.247 C66.935,48.443 66.685,48.476 66.636,48.595 C66.582,48.734 66.712,48.989 66.636,49.117 C66.54,49.282 66.134,49.286 66.115,49.639 C66.107,49.782 65.467,50.179 65.246,50.334 C65.105,50.431 65.014,50.601 64.898,50.682 L64.55,50.682 C64.386,50.883 64.027,50.682 63.854,50.856 L63.854,51.03 C63.105,51.144 61.778,50.936 61.071,50.856 C60.857,50.832 60.582,50.917 60.375,50.856 C60.324,50.841 60.368,50.69 60.203,50.682 L59.681,50.507 L59.506,50.161 C59.085,49.971 58.304,49.943 57.941,49.464 C57.881,49.087 57.736,48.48 58.115,48.073 L58.463,47.899 C58.587,47.734 58.761,47.393 58.984,47.203 C59.127,47.085 59.375,47.152 59.506,47.03 C59.726,46.826 59.648,46.777 60.028,46.682 C60.23,46.631 60.398,46.547 60.724,46.508 L61.071,46.508 C61.236,46.308 61.594,46.507 61.767,46.334 C62.008,46.093 61.915,46.261 62.463,46.334 C62.975,46.402 63.774,46.381 64.376,46.508 L64.724,46.508 L64.724,46.682 L65.071,46.682 L65.071,46.856 C65.324,46.941 65.753,46.719 65.768,47.03 C66.114,47.45 66.595,46.741 66.985,47.203 Z" id="Fill-102"></path>
            <path d="M31.159,82.508 L30.985,82.682 C30.69,82.771 30.491,82.775 30.289,82.856 L30.115,82.856 C29.932,82.865 30.017,83 29.941,83.03 C29.475,83.218 28.774,83.092 28.897,83.725 C30.088,83.362 32.572,83.989 33.419,82.856 C32.658,82.991 31.92,82.457 31.159,82.508 Z M34.985,82.508 C34.841,83 35.23,82.959 35.159,83.377 C34.609,83.35 34.109,83.371 33.941,83.725 C33.198,84.048 32.472,84.32 31.681,84.421 C30.647,84.552 29.595,84.364 28.376,84.421 C28.15,83.893 27.276,84.013 27.507,83.03 C27.722,82.808 28.145,82.579 28.203,82.508 L28.725,82.334 C29.248,82.203 29.333,82.269 29.768,82.16 C29.897,82.127 29.902,82 29.941,81.986 C30.21,81.891 30.626,81.918 30.811,81.639 C29.869,81.526 28.56,81.722 28.203,81.813 C28.098,81.838 27.955,81.774 27.854,81.813 C27.778,81.842 27.599,82.111 27.507,82.16 C27.302,82.27 27.139,82.198 26.985,82.334 C26.847,82.456 26.928,82.703 26.811,82.856 L26.464,82.856 C25.983,83.335 27.048,84.459 27.159,84.595 L27.507,84.595 C27.771,84.792 27.878,85.099 28.203,85.117 C28.374,85.126 28.316,85.271 28.376,85.291 C28.956,85.48 29.166,85.148 29.42,85.465 C29.504,85.569 29.646,85.294 29.594,85.291 C29.964,85.317 30.297,85.482 30.637,85.465 C30.897,85.45 30.824,85.263 30.985,85.465 C31.08,85.583 31.188,85.284 31.159,85.291 C31.733,85.175 32.278,85.17 32.724,85.117 C32.962,85.087 33.692,84.754 33.768,84.769 C33.817,84.778 33.756,85.033 33.941,84.943 C34.067,84.882 34.175,84.519 34.289,84.421 C34.459,84.273 34.661,84.237 34.811,84.073 C35.177,83.674 35.618,83.266 35.506,82.856 C35.393,82.495 34.697,82.143 34.463,81.986 C34.254,81.847 34.109,81.83 33.768,81.813 C33.633,81.805 33.607,81.64 33.593,81.639 C33.049,81.551 32.126,81.571 32.029,81.813 C33.321,81.737 34.015,82.26 34.985,82.508 Z M46.463,68.943 C46.23,68.949 45.701,69.052 45.42,69.116 C45.145,69.179 44.56,69.455 44.376,69.464 C44.204,69.474 44.263,69.618 44.202,69.638 C43.706,69.803 43.573,69.687 43.159,69.812 L42.811,70.161 C42.356,70.37 41.849,70.524 41.593,70.682 C41.457,70.766 41.221,71.022 41.072,71.029 C40.729,71.048 40.669,71.536 40.376,71.551 C40.156,71.563 39.788,71.812 39.681,71.899 C39.535,72.018 39.468,72.286 39.333,72.421 C38.886,72.868 38.602,73.133 38.289,73.639 C38.116,73.919 37.913,74.246 37.767,74.508 C37.424,75.127 37.168,75.913 36.724,76.421 C36.725,76.324 36.583,76.223 36.55,76.421 C36.958,76.685 36.401,78.06 36.376,78.16 C36.318,78.393 36.252,78.519 36.202,78.681 C36.124,78.941 36.069,79.214 36.028,79.377 C35.805,80.272 36.046,80.9 35.506,81.464 C36.17,81.669 36.345,82.125 36.376,82.682 C36.387,82.875 36.235,82.778 36.202,82.856 C36.139,83.003 36.26,83.227 36.202,83.377 C36.117,83.599 36.017,83.592 35.854,83.725 L35.854,84.073 L35.506,84.248 L35.333,84.595 C35.139,84.832 35.019,84.958 34.811,85.117 C34.675,85.221 34.45,85.424 34.289,85.465 C34.191,85.489 34.032,85.42 33.941,85.465 C33.85,85.509 33.7,85.755 33.593,85.813 C33.1,86.078 32.52,86.047 31.854,86.16 C30.689,86.356 28.253,86.469 27.681,86.16 C27.583,86.108 27.443,85.874 27.333,85.813 C27.15,85.709 26.959,85.727 26.811,85.638 L26.637,85.465 C26.514,85.385 26.39,85.387 26.29,85.291 C26.176,87.906 26.224,90.807 26.985,92.595 C27.13,92.655 27.122,92.66 26.985,92.768 C26.864,92.865 27.166,92.967 27.159,92.942 C27.215,93.148 27.217,93.567 27.333,93.813 C27.4,93.954 27.719,94.132 27.854,94.334 L27.854,94.508 C27.873,94.851 28.36,94.91 28.376,95.203 C28.39,95.456 28.636,95.747 28.725,95.898 C28.792,96.019 28.995,95.893 29.071,96.073 C29.144,96.245 28.777,96.362 29.071,96.42 C29.075,96.193 29.554,96.199 29.594,96.42 C30.133,96.378 30.86,96.794 30.985,96.769 C31.058,96.753 30.955,96.577 31.159,96.595 C31.414,96.616 31.475,96.775 31.854,96.769 C32.02,96.766 31.981,96.608 32.029,96.595 C32.196,96.55 32.243,96.787 32.376,96.769 L32.55,96.595 C33.126,96.42 33.313,96.542 33.768,96.42 C33.91,96.383 33.884,96.271 33.941,96.247 C34.085,96.185 34.325,96.318 34.463,96.247 C34.601,96.177 34.758,95.759 34.985,95.551 C35.123,95.425 35.351,95.497 35.506,95.377 L35.506,95.029 L35.854,95.029 L35.854,94.682 L36.202,94.508 C36.402,94.144 36.402,93.792 36.55,93.638 C36.714,93.467 36.891,93.063 36.897,92.942 C36.907,92.771 37.052,92.83 37.072,92.768 C37.193,92.405 37.18,91.793 37.246,91.377 C37.285,91.125 37.387,91.047 37.419,90.682 C37.488,89.916 37.464,89.623 37.594,89.116 C37.834,88.176 38.052,87.329 38.116,86.508 C38.166,85.855 37.886,85.822 38.116,85.638 C38.217,85.557 37.949,85.406 37.941,85.465 C37.97,85.237 38.106,85.226 38.116,84.943 C38.136,84.327 38.093,83.886 38.289,83.725 C38.409,83.627 38.123,83.235 38.116,83.204 C37.999,82.735 38.219,82.649 38.289,82.334 C38.313,82.224 38.262,82.095 38.289,81.986 L38.463,81.813 C38.493,81.604 38.271,81.565 38.289,81.291 L38.463,81.117 C38.565,80.71 38.429,80.391 38.463,80.073 C38.477,79.942 38.634,79.917 38.637,79.899 C38.66,79.782 38.468,79.688 38.463,79.725 C38.488,79.516 38.589,79.458 38.637,79.203 C38.668,79.04 38.628,78.848 38.637,78.681 C38.644,78.544 38.808,78.525 38.811,78.508 C38.841,78.333 38.645,78.376 38.637,78.334 C38.603,78.162 38.804,78.199 38.811,78.16 C38.932,77.484 38.952,77.06 39.159,76.421 C39.26,76.108 39.361,75.702 39.506,75.377 C39.545,75.291 39.801,75.132 39.854,75.029 C40.033,74.68 39.924,74.348 40.202,74.334 C40.404,74.324 40.281,74.253 40.376,74.16 C40.502,74.036 40.585,73.933 40.724,73.812 C41.069,73.513 41.4,73.087 41.593,72.942 C41.751,72.824 41.978,72.885 42.115,72.769 C42.389,72.538 42.555,72.26 42.811,72.073 C43.736,71.399 44.838,70.769 46.463,70.507 C46.62,70.202 46.852,69.969 47.159,69.812 C47.408,69.541 48.065,69.675 48.028,69.116 C47.477,69.388 47.12,68.927 46.463,68.943 Z M59.332,67.377 C59.655,67.443 59.854,67.682 60.028,67.725 C60.727,67.9 61.445,67.949 61.941,68.073 C62.071,68.105 62.076,68.232 62.115,68.246 C62.351,68.331 62.622,68.28 62.811,68.42 C63.386,68.851 63.489,69.708 63.159,70.333 C63.087,70.467 62.783,70.639 62.637,70.855 C62.47,71.103 62.462,71.338 62.289,71.551 C62.124,71.754 61.809,71.914 61.593,72.073 C61.3,72.29 61.007,72.479 60.724,72.595 C59.842,72.958 58.954,72.652 57.767,72.595 C56.568,72.537 55.125,72.72 54.637,72.421 C54.637,72.325 54.496,72.224 54.462,72.421 C54.559,72.409 54.662,72.576 54.462,72.595 C53.91,72.648 53.276,72.64 52.55,72.769 C51.916,72.881 51.38,73.161 50.812,73.116 C50.584,73.402 50.361,73.271 50.115,73.465 C49.956,73.589 49.999,74.158 49.594,73.986 C49.594,73.697 49.594,73.406 49.594,73.116 C49.542,72.659 50.269,72.979 50.115,72.421 C50.843,72.604 51.665,72.069 52.55,71.899 C52.963,71.821 53.484,71.795 53.941,71.725 C54.845,71.588 56.905,71.357 58.289,71.551 C58.792,71.622 59.073,71.894 59.506,71.899 C59.685,71.902 59.709,71.745 59.854,71.725 C60.223,71.676 60.206,71.934 60.375,71.725 L60.898,71.551 C61.417,71.422 61.35,71.311 61.593,71.029 C61.811,70.778 62.098,70.649 62.115,70.333 C62.126,70.134 62.226,70.256 62.289,70.161 C62.532,69.786 62.559,69.313 62.289,68.943 C62.094,68.272 61.615,69.612 61.42,68.943 C60.799,68.725 60.033,68.814 59.854,68.595 L59.506,68.595 C59.218,68.479 58.829,68.258 58.637,68.246 C58.487,68.239 58.496,68.08 58.463,68.073 C58.054,67.982 57.544,68.116 57.071,68.073 C57.093,68.075 56.988,67.921 56.897,67.899 C56.792,67.873 56.659,67.908 56.55,67.899 C55.457,67.807 54.801,68.119 53.941,68.246 C53.442,68.322 52.826,68.314 52.376,68.42 C52.036,68.502 51.656,68.658 51.333,68.769 C50.957,68.897 50.593,68.99 50.29,69.116 C49.958,69.254 49.73,69.485 49.42,69.638 C49.235,69.729 49.042,69.745 48.897,69.812 C48.796,69.859 48.679,70.12 48.376,69.986 C48.116,70.248 48.065,70.718 47.68,70.855 C46.202,71.414 44.809,71.702 43.68,72.421 C43.558,72.499 43.493,72.676 43.333,72.769 C43.185,72.854 42.959,72.833 42.811,72.942 L42.811,73.291 L42.463,73.291 C42.236,73.488 42.22,73.881 42.115,73.986 L41.768,73.986 C41.644,74.149 41.73,74.371 41.593,74.508 C41.461,74.64 41.227,74.563 41.072,74.682 L41.072,75.029 L40.724,75.029 C40.626,75.166 40.62,75.431 40.55,75.552 C40.284,76.012 40.208,76.169 40.028,76.769 C39.979,76.931 39.859,77.203 39.854,77.291 C39.847,77.442 39.688,77.429 39.681,77.464 C39.591,77.851 39.573,78.34 39.506,78.855 C39.447,79.316 39.396,79.908 39.333,80.42 C39.096,82.363 39.018,84.958 38.811,86.682 C38.665,87.896 38.512,88.825 38.463,89.986 C39.366,91.191 40.793,91.804 42.115,92.421 C42.3,92.507 42.429,92.495 42.637,92.595 C42.854,92.699 42.946,92.851 43.159,92.942 C43.352,93.026 43.535,93.059 43.68,93.116 C44.31,93.366 45.376,93.714 45.767,93.813 C46.01,93.873 46.117,93.917 46.289,93.985 L46.463,93.985 C46.614,93.994 46.602,94.151 46.637,94.16 C47.132,94.273 47.82,94.237 48.376,94.334 C48.936,94.431 49.437,94.631 49.941,94.682 C51.856,94.873 53.626,94.572 54.984,94.334 C55.76,94.198 56.869,93.962 57.245,93.813 L57.42,93.813 C57.615,93.801 57.504,93.686 57.594,93.638 C58.298,93.264 59.391,92.89 59.854,92.595 C60.646,92.089 61.645,91.795 62.289,91.377 C62.553,91.206 62.556,90.869 62.811,90.855 C63.012,90.845 62.888,90.744 62.984,90.682 C63.542,90.32 64.144,89.982 64.55,89.638 C64.89,89.35 65.264,88.612 65.593,88.595 C65.795,88.584 65.67,88.483 65.768,88.421 C66.445,87.981 66.624,87.567 66.985,87.029 C67.126,86.818 67.362,86.725 67.506,86.508 L67.506,86.334 C67.517,86.133 67.618,86.257 67.68,86.16 C67.864,85.877 67.897,85.643 68.028,85.465 C68.109,85.354 68.299,85.242 68.376,85.117 C68.994,84.114 69.378,83.063 69.768,81.986 C69.847,81.764 70.044,81.5 70.115,81.291 C70.221,80.977 70.204,80.694 70.289,80.42 C70.6,79.429 70.885,78.236 70.984,77.291 C71.059,76.584 71.768,74.856 71.333,74.508 C71.232,74.428 71.497,74.273 71.506,74.334 C71.466,74.078 71.354,74.012 71.333,73.639 C71.253,72.303 71.343,70.581 71.159,69.812 C70.961,68.994 70.935,68.318 70.811,67.551 C70.653,66.579 70.415,65.706 70.289,64.769 C70.07,63.147 70.091,61.51 69.941,59.899 C69.911,59.573 69.775,59.331 69.768,59.03 C69.743,58.142 69.9,57.345 69.941,56.421 C70.001,55.069 70.03,53.472 70.115,52.595 C70.18,51.924 70.03,51.168 70.115,50.507 C70.144,50.281 70.274,50.269 70.289,49.986 C70.298,49.827 70.451,49.856 70.463,49.813 C70.517,49.606 70.452,49.331 70.463,49.117 C70.471,48.969 70.63,48.972 70.637,48.943 C70.764,48.344 70.57,48.097 70.811,47.899 L70.811,47.377 C70.817,47.242 70.983,47.219 70.984,47.203 C71.178,46.03 70.976,44.744 71.159,43.552 C71.24,43.024 71.503,42.458 71.681,41.986 C71.732,41.849 71.85,41.534 71.854,41.465 C71.864,41.272 71.985,41.377 72.028,41.291 C72.096,41.151 71.957,40.907 72.028,40.769 C72.08,40.667 72.563,40.78 72.375,40.421 C72.166,40.385 72.269,40.228 72.375,40.073 C71.308,39.104 71.36,37.054 70.984,35.552 C70.949,35.409 70.833,35.434 70.811,35.378 C70.664,35.021 70.501,34.663 70.463,34.509 C70.404,34.276 70.338,34.149 70.289,33.987 C70.241,33.827 70.328,33.627 70.289,33.465 C69.998,33.358 69.778,32.975 69.768,32.769 C69.747,32.384 69.088,32.058 69.072,31.726 C69.047,31.262 68.438,31.315 68.376,30.856 C68.076,29.976 67.442,29.153 66.811,28.421 C66.726,28.323 66.716,28.171 66.636,28.073 L66.289,28.073 C66.166,27.968 66.077,27.837 65.941,27.726 L65.941,27.378 C65.478,26.891 64.809,26.36 64.376,26.161 C64.28,26.117 64.109,25.991 64.028,25.987 C63.841,25.977 63.934,25.848 63.854,25.813 C62.589,25.257 60.063,25.315 58.115,25.465 C57.107,25.542 55.837,25.897 55.159,25.987 C54.26,26.105 53.836,26.194 53.246,26.334 C51.702,26.702 50.121,27.15 48.724,27.726 C48.064,27.997 47.486,28.316 46.811,28.595 C46.417,28.758 45.784,29.069 45.593,29.117 C45.35,29.177 45.245,29.222 45.072,29.291 L44.898,29.291 C44.715,29.301 44.798,29.435 44.724,29.464 C44.371,29.606 44.031,29.666 43.68,29.813 C43.263,29.988 43.197,30.025 42.985,30.161 C42.58,30.418 41.975,30.471 41.593,30.682 C41.499,30.735 41.372,30.948 41.246,31.03 L40.898,31.204 C40.696,31.214 40.821,31.313 40.724,31.378 C40.445,31.563 40.104,31.708 39.854,31.899 C39.587,32.104 39.419,32.401 39.159,32.595 C38.895,32.792 38.586,32.911 38.289,33.117 C38.02,33.304 37.801,33.628 37.594,33.639 C37.391,33.65 37.518,33.741 37.419,33.813 C36.836,34.237 36.256,34.598 35.68,35.03 C35.536,35.138 35.458,35.282 35.333,35.378 C35.191,35.486 34.958,35.435 34.811,35.552 C34.559,35.752 34.413,36.096 34.289,36.248 L33.941,36.248 C33.711,36.438 33.5,36.717 33.246,36.943 C32.965,37.193 32.885,37.262 32.724,37.465 L32.724,37.639 L32.376,37.639 C32.153,37.867 32.076,38.256 31.854,38.508 C31.494,38.918 30.887,39.265 30.637,39.551 L30.637,39.899 L30.289,39.899 C30.186,40.027 30.197,40.302 30.115,40.421 L29.768,40.595 L29.768,40.943 C29.426,41.346 28.971,41.684 28.725,41.986 C28.323,42.479 28.008,42.764 27.681,43.204 C27.479,43.475 27.37,43.796 27.159,44.073 C26.983,44.304 26.652,44.524 26.464,44.769 C26.239,45.059 26.223,45.228 26.116,45.465 L25.768,45.639 C24.912,46.743 24.183,47.972 23.333,49.117 C23.14,49.375 22.811,49.555 22.637,49.813 C22.535,49.964 22.541,50.203 22.463,50.334 L22.29,50.507 C22.091,50.819 21.932,51.003 21.768,51.204 C21.527,51.498 21.494,51.603 21.42,51.899 C21.364,52.123 21.083,52.208 21.072,52.422 C21.062,52.621 20.958,52.5 20.898,52.595 C20.539,53.171 20.217,53.864 19.854,54.16 L19.854,54.508 C19.793,54.61 19.577,54.742 19.507,54.856 C19.283,55.217 19.113,55.468 18.985,55.726 C18.862,55.973 18.933,56.181 18.812,56.421 C18.763,56.515 18.522,56.661 18.463,56.769 C18.227,57.208 18.296,57.479 18.116,57.813 C18.063,57.91 17.823,58.044 17.768,58.16 C17.613,58.484 17.552,58.896 17.42,59.204 C17.263,59.569 17.048,59.916 16.898,60.247 C16.289,61.594 15.688,62.982 15.159,64.421 C14.951,64.989 14.785,65.562 14.637,65.986 C14.557,66.219 14.564,66.37 14.464,66.682 C14.36,67.001 14.16,67.198 14.116,67.377 C14.06,67.602 13.98,67.745 13.942,67.899 C13.886,68.121 13.773,68.492 13.768,68.595 C13.759,68.762 13.611,68.713 13.594,68.769 C13.482,69.131 13.513,69.625 13.42,69.986 C13.37,70.182 13.325,70.281 13.246,70.507 C12.976,71.288 12.778,72.549 12.55,73.116 L12.55,73.291 C12.542,73.439 12.384,73.433 12.376,73.465 C12.268,73.96 12.285,74.559 12.203,75.029 C12.128,75.456 12.108,75.883 12.029,76.247 C11.994,76.406 11.873,76.46 11.855,76.595 C11.684,77.856 11.826,79.502 11.507,80.42 C11.241,81.188 11.07,82.447 10.985,83.03 C10.887,83.705 10.865,84.054 10.812,84.421 C10.77,84.705 10.85,85.005 10.812,85.291 C10.764,85.636 10.498,86.37 10.463,86.508 C10.359,86.924 10.544,87.231 10.463,87.551 C10.688,88.093 11.439,87.113 11.507,87.899 C11.334,89.523 11.034,91.021 11.159,92.942 C11.873,92.924 12.579,92.914 12.899,93.291 C12.844,94.104 13.011,95.359 13.246,95.551 C13.329,95.618 13.218,96.132 13.246,96.247 C13.273,96.354 13.417,96.409 13.42,96.42 C13.529,96.826 13.424,97.218 13.768,97.463 C14.051,97.199 14.469,96.881 14.637,96.769 C14.899,96.594 15.128,96.551 15.507,96.595 C16.603,97.238 16.433,99.147 17.42,99.899 C17.415,100.483 17.66,100.819 17.941,101.116 C18.195,100.298 18.635,100.211 19.159,100.247 C19.549,100.273 19.86,100.63 20.029,100.769 L20.029,101.116 C20.084,101.216 20.314,101.35 20.376,101.464 C20.446,101.592 20.333,101.845 20.376,101.986 L20.725,102.333 C20.904,102.745 21.02,103.153 21.072,103.377 C21.754,103.247 21.669,102.352 22.463,102.333 C22.989,102.656 23.331,103.222 23.681,103.725 L23.681,103.899 C23.691,104.101 23.791,103.976 23.855,104.073 C24.073,104.402 24.122,104.447 24.203,104.769 C24.29,105.118 24.775,104.902 24.724,105.291 C25.212,105.332 25.412,104.752 25.42,104.594 C25.431,104.392 25.522,104.518 25.594,104.42 C25.887,104.016 26.05,103.333 26.464,103.377 L26.811,103.899 C26.939,104.087 26.989,104.108 27.159,104.248 L27.159,104.594 L27.333,104.594 L27.333,104.942 C27.421,105.163 27.517,105.156 27.681,105.291 L27.681,105.638 L27.854,105.638 L27.854,105.986 L28.203,106.16 L28.203,106.508 C28.319,106.674 28.609,106.885 28.725,107.029 C28.871,107.214 29.086,107.376 29.246,107.551 C29.385,107.703 29.413,108.28 29.768,108.073 C30.142,107.751 30.227,107.14 30.637,106.855 C31.07,107.196 31.656,107.605 31.681,108.073 C31.691,108.274 31.792,108.15 31.854,108.247 C32.293,108.926 32.429,109.517 32.898,109.986 C33.47,110.558 34.021,110.983 34.637,111.377 C34.91,111.127 34.773,110.471 35.333,110.507 C35.532,110.817 35.94,110.843 36.202,111.03 C36.305,111.102 36.436,111.283 36.55,111.377 C36.709,111.507 36.88,111.608 37.072,111.725 C37.233,111.825 37.291,111.992 37.419,112.073 C37.637,112.211 37.891,112.129 38.116,112.247 C38.438,112.416 38.729,112.789 39.159,112.768 C39.198,112.46 38.983,111.898 39.506,112.073 C40.091,112.155 40.271,112.769 40.55,112.942 C40.728,113.053 40.924,113.012 41.072,113.117 C41.18,113.192 41.294,113.368 41.42,113.464 C41.744,113.711 42.004,113.864 42.289,113.985 C42.48,114.067 42.554,114.154 42.811,114.16 C43.079,113.615 42.735,112.461 43.333,112.247 C43.821,112.331 44.169,112.784 44.376,112.942 C44.522,113.055 44.585,113.181 44.724,113.291 C45.212,113.675 45.682,114.052 46.289,114.334 C46.49,113.954 46.324,113.208 46.811,113.117 C47.513,113.69 48.157,114.32 48.897,114.855 C49.599,115.362 50.364,116.044 51.507,116.073 C52.007,115.346 51.894,114.127 52.55,113.638 C53.645,113.992 54.322,114.765 55.159,115.377 C55.144,114.882 55.492,114.783 55.506,114.507 C55.517,114.318 55.644,114.415 55.68,114.334 C55.862,113.933 55.798,113.367 56.202,113.117 C56.969,113.222 57.131,114.077 57.594,114.507 C58.074,114.956 58.557,115.389 59.332,115.551 C59.566,115.046 59.716,114.594 59.854,113.985 C60.011,113.297 59.82,112.328 60.375,112.073 C61.137,112.047 61.246,112.533 61.593,112.768 C62.008,113.05 62.32,113.432 62.984,113.464 C63.537,112.683 63.266,111.079 64.028,110.507 C65.024,110.661 65.434,111.134 66.463,110.855 C66.798,110.26 67.063,109.361 67.159,108.769 C67.197,108.537 66.973,108.055 67.333,107.899 C68.178,107.932 68.996,107.938 69.419,107.551 C69.562,107.136 69.483,106.729 69.419,106.16 C69.354,105.572 69.05,104.91 69.246,104.42 C69.676,104.156 70.594,104.377 70.984,104.073 C71.393,103.603 71.408,102.437 71.333,101.812 C71.289,101.446 70.767,100.862 71.159,100.769 C71.687,100.367 72.015,101.328 72.898,101.116 C73.339,100.2 72.874,99.185 72.724,98.333 C73.173,97.756 74.16,98.751 74.289,97.986 C74.009,97.723 74.55,97.325 74.289,97.116 C74.179,97.028 74.463,96.897 74.462,96.942 C74.465,96.659 74.353,96.288 74.289,95.898 C74.233,95.555 74.098,95.108 74.115,94.682 C74.546,94.707 74.958,94.714 74.984,94.334 C74.742,94.311 74.847,94.051 74.811,93.813 C74.695,93.063 74.605,92.582 74.462,91.898 C74.299,91.109 73.86,90.272 74.115,89.638 C74.347,90.065 74.64,89.325 74.811,89.812 C75.142,89.887 75.248,90.187 75.68,90.16 C75.775,88.383 75.535,86.943 75.159,85.638 C75.206,85.28 75.928,85.597 75.854,85.117 C75.558,85.094 75.746,84.683 75.68,84.421 C75.654,84.317 75.508,84.254 75.506,84.248 C75.429,83.946 75.443,83.538 75.333,83.204 C75.14,82.622 74.671,82.112 74.636,81.464 C75.134,81.499 75.586,81.486 75.506,80.942 C75.245,80.288 75.455,78.557 75.159,77.464 C75.277,77.119 76.194,77.573 76.028,76.942 C76.15,76.426 75.873,76.227 75.854,76.073 C75.833,75.897 76.032,75.866 76.028,75.726 C76.012,75.083 75.843,75.004 76.028,74.855 C76.142,74.765 75.851,74.644 75.854,74.682 C75.84,74.514 76.02,74.548 76.028,74.508 C76.058,74.356 75.854,74.342 75.854,74.334 C75.828,73.762 75.727,73.479 75.68,73.291 C75.434,72.303 75.701,72.123 75.68,71.378 C75.792,70.686 75.22,70.678 75.333,69.986 C75.438,69.686 76.157,70 76.202,69.638 C76.072,69.628 76.028,69.612 76.028,69.464 L76.202,69.29 C76.177,68.988 75.892,68.744 75.854,68.595 C75.798,68.371 75.718,68.227 75.68,68.073 C75.625,67.85 75.544,67.704 75.506,67.551 C75.303,66.737 75.146,66.081 74.984,65.465 C75.189,65.265 75.6,65.267 76.028,65.291 C75.858,64.746 75.782,64.23 75.68,63.726 C75.655,63.601 75.46,63.728 75.68,63.552 C75.795,63.46 75.503,63.34 75.506,63.377 C75.47,63 75.582,62.691 75.506,62.334 C75.417,61.915 75.179,61.857 75.159,61.464 C75.149,61.307 74.996,61.333 74.984,61.291 C74.846,60.749 75.11,60.262 74.811,59.725 C74.93,59.381 75.846,59.834 75.68,59.204 C74.79,56.991 74.739,54.143 74.984,51.204 C74.789,50.9 74.652,50.788 74.636,50.507 C74.627,50.317 74.503,50.418 74.462,50.334 C74.286,49.96 74.26,49.607 74.115,49.29 C73.98,48.999 73.836,48.888 73.767,48.595 C73.557,47.698 73.773,46.597 73.593,45.639 C73.593,45.64 73.448,45.562 73.419,45.465 C73.215,44.787 73.456,44.909 73.072,44.595 L73.072,44.247 C72.827,43.247 73.002,42.18 72.375,41.465 C72.334,42.289 71.965,43.101 71.854,43.899 C71.797,44.307 71.889,44.88 71.854,45.291 C71.789,46.072 71.557,46.81 71.506,47.377 C71.443,48.088 71.42,48.375 71.333,48.769 C71.308,48.879 71.36,49.008 71.333,49.117 C71.309,49.208 71.157,49.299 71.159,49.29 C70.99,50.075 71.064,50.825 70.984,51.551 C70.958,51.793 70.825,52.166 70.811,52.422 C70.769,53.167 70.831,53.965 70.811,54.683 C70.796,55.239 70.655,55.5 70.637,55.726 C70.636,55.738 70.817,55.887 70.811,56.073 C70.804,56.295 70.648,56.316 70.637,56.595 C70.626,56.857 70.781,56.948 70.811,57.117 C70.81,57.111 70.606,57.138 70.637,57.291 C70.65,57.36 70.817,57.268 70.811,57.465 C70.805,57.671 70.671,57.729 70.637,57.987 C70.532,58.776 70.76,59.149 70.811,59.725 C70.897,60.703 70.926,61.533 70.984,62.16 C71.085,63.248 71.096,63.794 71.159,64.769 C71.173,64.993 71.318,65.012 71.333,65.291 C71.342,65.486 71.086,65.562 71.333,65.639 C71.707,66.513 71.538,67.414 71.681,68.246 C71.81,69.012 72.146,69.761 72.202,70.507 C72.215,70.676 72.208,70.861 72.202,71.029 C72.168,71.801 72.122,71.473 72.202,72.073 C72.356,73.242 71.946,74.046 72.375,75.203 C71.896,75.752 71.98,76.499 71.854,76.942 C71.827,77.038 71.681,77.114 71.681,77.116 C71.637,77.283 71.879,77.334 71.854,77.464 C71.851,77.479 71.71,77.521 71.681,77.638 C71.551,78.155 71.575,78.316 71.506,78.681 C71.424,79.12 71.447,79.635 71.333,80.073 L70.984,80.42 C70.943,80.517 71.01,80.666 70.984,80.769 C70.899,81.109 70.711,81.625 70.637,81.813 L70.637,81.986 C70.627,82.163 70.487,82.093 70.463,82.16 C70.189,82.918 69.948,83.729 69.594,84.421 C69.544,84.516 69.303,84.658 69.246,84.769 C69.123,85.009 69.207,85.241 69.072,85.465 C69.016,85.556 68.808,85.701 68.724,85.813 C68.591,85.991 68.496,86.151 68.376,86.334 C68.176,86.638 68.137,86.79 68.028,87.029 L67.68,87.203 C67.421,87.587 67.376,87.988 67.159,88.247 C67.046,88.382 66.526,88.866 66.463,88.943 L66.115,88.943 C65.941,89.121 66.117,89.446 65.768,89.464 C65.566,89.475 65.69,89.574 65.593,89.638 C65.063,89.99 64.588,90.618 64.202,90.855 C64.036,90.958 63.988,91.114 63.854,91.204 C63.684,91.318 63.533,91.27 63.332,91.377 C63.239,91.428 63.085,91.655 62.984,91.725 C62.871,91.804 62.747,91.831 62.637,91.898 C62.46,92.008 62.431,92.141 62.289,92.247 C61.006,93.212 59.444,93.703 57.941,94.334 C57.478,94.528 57.127,94.798 56.897,94.856 C56.675,94.911 56.529,94.991 56.376,95.029 C56.161,95.083 56.145,95.061 56.028,95.203 L55.68,95.203 C55.163,95.277 55.001,95.33 54.811,95.377 C54.702,95.404 54.571,95.348 54.462,95.377 C53.847,95.547 52.904,95.687 52.202,95.725 C51.591,95.758 50.935,95.77 50.29,95.725 C50.088,95.711 49.843,95.589 49.594,95.551 C48.733,95.42 47.91,95.34 47.159,95.203 C46.756,95.129 46.288,95.118 45.942,95.029 L45.942,94.856 L45.593,94.856 C45.211,94.703 44.895,94.594 44.55,94.508 C44.191,94.418 43.894,94.295 43.506,94.16 C43.155,94.038 42.709,93.727 42.637,93.638 L42.289,93.638 C41.292,93.239 39.753,92.559 39.159,92.073 C39.024,91.963 38.933,91.824 38.811,91.725 C38.655,91.599 38.346,91.115 37.941,91.377 C38.062,91.733 37.845,92.084 37.767,92.421 C37.68,92.804 37.7,93.172 37.594,93.464 L37.246,93.813 C37.147,93.995 37.151,94.187 37.072,94.334 C36.86,94.728 36.782,94.84 36.55,95.029 L36.55,95.377 C36.324,95.665 35.876,95.94 35.506,96.247 C35.111,96.573 34.697,96.932 34.289,97.116 C33.053,97.675 31.601,97.661 29.768,97.638 C29.646,97.387 29.308,97.412 29.071,97.29 L29.071,97.116 L28.725,97.116 L28.725,96.942 L28.376,96.942 C28.038,96.685 27.688,96.102 27.333,95.551 C27.177,95.309 27.139,94.942 26.985,94.682 L26.637,94.508 C26.561,94.406 26.498,94.071 26.464,93.985 C26.246,93.46 26.1,92.76 25.941,92.073 C25.821,91.552 25.636,90.85 25.594,90.682 C25.539,90.463 25.648,90.205 25.594,89.986 L25.42,89.812 C25.394,89.563 25.598,89.436 25.594,89.29 L25.42,89.116 C25.291,88.6 25.599,88.471 25.594,88.247 L25.42,88.073 C25.226,87.297 25.481,86.192 25.42,85.638 C25.354,85.047 25.337,84.975 25.42,84.595 C25.533,84.073 25.247,83.028 25.246,83.03 C25.266,82.959 25.722,82.635 25.941,82.334 C26.057,82.176 26.009,81.951 26.116,81.813 C26.218,81.681 26.498,81.563 26.637,81.464 C27.232,81.043 27.682,80.979 28.376,80.942 C28.503,80.936 28.548,80.769 28.55,80.769 C28.824,80.734 28.713,80.996 28.897,80.769 L29.246,80.769 C31.108,80.657 33.459,80.816 34.811,80.942 C34.791,79.948 35.087,79.063 35.333,78.16 C35.517,77.483 35.721,76.554 36.028,76.247 C36.202,76.074 36.001,75.715 36.202,75.552 L36.202,75.203 C36.298,75.066 36.455,75.038 36.55,74.855 C36.687,74.595 36.77,74.204 36.897,73.986 L37.072,73.986 L37.072,73.639 C37.157,73.517 37.321,73.441 37.419,73.291 C37.916,72.537 38.04,72.39 38.637,71.899 C38.891,71.69 39.355,71.211 39.506,71.204 C39.708,71.192 39.584,71.094 39.681,71.029 C40.131,70.731 40.483,70.41 40.898,70.161 C41.076,70.053 41.211,70.09 41.42,69.986 C41.593,69.899 41.642,69.703 41.768,69.638 C42.058,69.49 42.491,69.441 42.811,69.29 C42.9,69.248 43.055,68.998 43.159,68.943 C43.319,68.856 43.556,68.819 43.68,68.769 C44.071,68.612 44.403,68.493 44.724,68.42 C44.999,68.359 45.32,68.49 45.593,68.42 L45.767,68.246 C45.944,68.227 45.973,68.42 46.115,68.42 L46.289,68.246 C46.389,68.223 46.534,68.246 46.637,68.246 C47.114,68.252 47.704,68.364 48.203,68.42 C48.76,68.484 49.232,68.66 49.768,68.595 C49.962,68.571 50.237,68.331 50.463,68.246 C50.957,68.065 51.202,68.06 51.333,67.899 L51.681,67.899 C52.404,67.61 53.8,67.537 54.462,67.377 C55.252,67.188 55.791,67.048 56.55,67.029 C56.356,66.026 56.237,64.71 56.202,63.552 C56.189,63.127 56.036,62.764 56.202,62.508 C55.624,62.221 55.219,62.677 54.462,62.682 C53.965,62.404 53.9,62.682 53.593,62.682 C53.259,62.682 52.925,62.488 52.724,62.682 C52.468,62.89 52.604,63.336 52.55,63.552 L52.376,63.726 C52.286,64.506 52.801,65.526 52.202,65.813 C51.893,65.73 51.764,65.381 51.681,65.117 C51.608,64.888 51.881,64.711 51.854,64.595 C51.807,64.393 51.378,64.489 51.681,64.247 C51.782,64.166 51.514,64.016 51.507,64.074 C51.534,63.854 51.715,63.831 51.681,63.552 C51.658,63.122 51.654,62.713 51.854,62.508 C51.461,62.322 51.089,62.113 50.812,61.813 C50.239,61.747 50.46,60.887 49.768,60.942 C49.577,61.255 49.551,61.623 49.246,61.639 C49.042,61.649 49.17,61.739 49.072,61.813 C48.736,62.061 48.505,62.079 48.203,62.16 C47.723,61.825 46.945,61.742 46.463,61.117 C46.224,60.805 46.019,60.07 45.942,59.552 C45.871,59.08 45.402,58.154 46.289,58.16 C46.578,58.187 46.408,58.589 46.463,58.855 C46.528,59.166 46.759,59.644 46.811,59.725 C47.061,60.117 47.141,60.45 47.333,60.77 C47.864,60.839 48.057,61.162 48.551,61.117 C49.114,61.065 49.609,60.429 49.768,59.899 C49.813,59.655 50.149,59.701 50.29,59.552 C50.577,59.852 50.757,60.06 50.985,60.247 L50.985,60.595 C51.409,61.083 51.856,61.428 52.55,61.464 C52.683,61.471 52.714,61.637 52.724,61.639 C53.596,61.771 55.068,61.57 55.506,61.464 C56.209,61.296 57.538,61.224 57.767,60.942 L58.289,60.77 C58.512,60.713 58.657,60.634 58.811,60.595 C59.251,60.485 59.228,60.391 59.681,60.421 C59.618,60.229 59.813,60.149 59.854,60.074 C59.936,59.926 59.919,59.699 60.028,59.552 C60.229,59.281 60.593,59.233 60.724,58.855 C60.709,58.899 60.525,58.806 60.55,58.682 C60.56,58.631 60.706,58.673 60.724,58.508 C60.789,57.9 60.562,57.514 60.55,57.291 C60.54,57.093 60.431,57.21 60.375,57.117 C60.255,56.908 60.181,56.647 60.028,56.421 C59.711,55.951 59.38,55.51 58.984,55.204 C58.192,53.858 56.974,52.32 56.55,50.507 C56.491,50.255 56.386,49.753 56.376,49.464 C56.366,49.201 56.52,49.111 56.55,48.943 C56.691,48.146 56.607,47.663 56.724,47.03 C56.807,46.578 57.039,45.771 57.071,45.639 C57.129,45.407 57.197,45.279 57.245,45.117 C57.331,44.833 57.227,44.752 57.42,44.595 L57.42,44.247 C57.664,43.922 58.058,43.771 58.289,43.552 C58.746,43.117 59.238,42.532 59.681,42.508 C59.881,42.497 59.758,42.396 59.854,42.334 C60.242,42.083 60.888,42.083 61.593,41.986 C62.041,41.925 62.629,41.807 62.984,41.812 C63.203,41.816 63.231,41.972 63.506,41.986 C63.67,41.995 63.642,41.82 63.681,41.812 C63.86,41.776 63.805,41.975 63.854,41.986 C64.141,42.056 64.889,41.878 64.724,42.508 C64.363,42.791 64.006,42.641 63.681,42.682 C63.45,42.711 63.303,42.841 63.159,42.856 C62.988,42.874 63.026,42.69 62.984,42.682 C62.815,42.648 62.844,42.851 62.811,42.856 C62.094,42.968 61.359,43.101 60.375,43.204 C60.319,43.436 60.009,43.418 59.854,43.552 C59.709,43.678 59.657,43.95 59.506,44.073 L59.159,44.073 L58.984,44.421 C58.6,44.742 58.419,44.911 58.289,45.291 C58.144,45.717 57.988,45.972 57.941,46.16 C57.914,46.269 57.97,46.399 57.941,46.508 C57.676,47.52 57.351,49.052 57.42,49.986 C57.431,50.141 57.582,50.119 57.594,50.161 C57.636,50.322 57.385,50.388 57.42,50.507 L57.767,50.856 C57.809,50.952 57.742,51.101 57.767,51.204 C57.91,51.777 58.414,52.476 58.637,52.769 C58.975,53.211 59.249,53.624 59.506,53.986 C59.587,54.101 59.63,53.958 59.681,54.16 C59.793,54.613 59.838,54.599 60.028,54.856 C60.108,54.963 60.283,55.097 60.375,55.204 C60.64,55.506 60.738,55.817 60.898,56.073 C60.963,56.178 61.182,56.3 61.246,56.421 C61.334,56.589 61.362,56.811 61.42,56.943 C61.659,57.501 61.508,58.214 61.42,58.508 C61.333,58.791 61.438,58.873 61.246,59.03 L61.246,59.377 L61.071,59.377 L61.071,59.725 L60.898,59.725 L60.898,60.074 L60.724,60.074 L60.724,60.421 C60.655,60.521 60.358,60.791 60.203,60.942 C59.616,61.511 59.091,61.558 58.289,61.813 C57.843,61.953 57.396,62.253 56.897,62.16 C56.646,62.818 57.376,62.494 57.245,63.03 C56.913,63.173 57.081,63.654 57.071,63.899 C57.025,65.267 57.533,66.313 57.245,67.203 C58.04,67.183 58.638,67.236 59.332,67.377 Z M52.897,8.944 C52.662,8.757 52.458,8.435 52.202,8.248 C51.961,8.071 51.608,7.915 51.333,7.726 C51.172,7.615 51.118,7.48 50.985,7.378 C50.83,7.259 50.64,7.32 50.463,7.204 C50.337,7.123 50.277,6.95 50.115,6.857 C49.735,6.636 49.508,6.487 49.246,6.335 C49.067,6.23 48.93,6.265 48.724,6.161 C48.629,6.113 48.49,5.861 48.376,5.813 C48.279,5.771 48.13,5.838 48.028,5.813 C47.717,5.735 47.555,5.567 47.333,5.465 C47.026,5.324 46.827,5.208 46.463,5.118 C46.309,5.079 46.357,4.975 46.289,4.943 C46.111,4.861 45.964,4.873 45.767,4.77 C45.671,4.72 45.53,4.481 45.42,4.421 C45.246,4.327 45.038,4.316 44.898,4.248 C44.805,4.203 44.905,4.119 44.724,4.074 C44.622,4.048 44.472,4.115 44.376,4.074 C44.292,4.037 44.134,3.769 44.028,3.726 C43.93,3.686 43.785,3.751 43.68,3.726 C43.362,3.647 43.102,3.487 42.811,3.378 C42.497,3.261 42.292,3.074 42.115,3.03 C42.009,3.004 41.871,3.066 41.768,3.03 C41.451,2.919 41.25,2.728 41.072,2.682 C40.48,2.534 40.149,2.522 39.681,2.334 C39.6,2.302 39.436,2.025 39.333,1.987 C39.199,1.938 38.954,1.995 38.811,1.987 C38.65,1.979 38.684,1.826 38.637,1.813 C37.987,1.637 37.633,1.668 37.072,1.639 C36.939,1.632 36.908,1.467 36.897,1.465 C36.249,1.368 35.578,1.331 34.985,1.291 C33.961,1.223 32.259,1.307 31.681,1.465 C31.069,1.632 30.538,1.788 29.941,1.987 C29.731,2.057 29.691,2.146 29.42,2.161 C29.241,2.17 29.314,2.309 29.246,2.334 C29.093,2.392 28.88,2.288 28.725,2.334 L28.376,2.682 C28.117,2.795 27.763,2.727 27.507,2.856 L27.333,3.204 C27.219,3.29 26.911,3.33 26.811,3.378 C26.708,3.428 26.331,3.549 26.29,3.552 C26.095,3.562 26.203,3.682 26.116,3.726 C25.86,3.856 25.497,3.936 25.246,4.074 L25.246,4.248 L24.898,4.248 L24.898,4.421 L24.55,4.421 L24.376,4.77 C24.245,4.868 23.973,4.873 23.855,4.943 C23.353,5.243 22.941,5.521 22.463,5.813 C22.261,5.938 21.96,6.045 21.768,6.161 L21.768,6.335 L21.42,6.335 C21.323,6.388 21.178,6.613 21.072,6.683 C20.838,6.834 20.572,6.893 20.376,7.03 L20.203,7.378 C20.057,7.488 19.812,7.458 19.681,7.552 C19.423,7.736 19.136,8.065 18.985,8.074 C18.587,8.095 18.241,8.79 18.116,8.944 L17.768,8.944 C17.513,9.145 17.453,9.457 17.246,9.639 C17.111,9.758 16.87,9.694 16.724,9.813 L16.724,10.161 C16.514,10.356 16.238,10.492 16.029,10.682 C15.657,11.02 14.829,11.571 14.811,11.9 C14.787,12.357 13.949,12.725 13.768,12.943 C13.622,13.119 13.544,13.461 13.42,13.639 L13.072,13.813 C12.958,13.966 13.005,14.199 12.899,14.334 C12.66,14.637 12.167,14.846 12.029,15.03 C11.917,15.179 11.953,15.419 11.855,15.552 C11.528,15.996 11.032,16.322 10.985,16.943 C10.571,17.168 10.269,17.564 10.115,17.813 C10.014,17.978 9.856,18.028 9.768,18.16 C9.627,18.371 9.714,18.637 9.594,18.856 L9.246,19.03 L9.246,19.377 C9.069,19.705 8.738,19.986 8.725,20.248 C8.714,20.442 8.597,20.333 8.55,20.421 C8.372,20.762 8.221,21.231 8.028,21.639 C7.913,21.886 7.691,22.134 7.681,22.334 C7.667,22.606 7.078,23.58 6.985,23.726 C6.916,23.834 6.857,23.967 6.811,24.074 C6.42,25.002 6.179,26.384 5.768,27.03 C5.54,27.387 5.569,27.835 5.419,28.248 C5.273,28.654 5.042,29.08 4.897,29.464 C4.795,29.74 4.826,29.895 4.724,30.161 C4.625,30.418 4.453,30.629 4.376,30.856 C4.202,31.375 4.028,32.075 3.854,32.248 C3.682,32.42 3.881,32.779 3.681,32.943 L3.681,33.291 C3.299,34.246 3.069,35.48 2.811,36.596 C2.709,37.04 2.563,37.502 2.464,37.987 C2.352,38.531 2.364,39.179 2.29,39.726 C2.008,41.8 1.773,43.882 1.594,45.986 C1.396,48.326 1.416,50.69 1.42,53.117 C1.42,53.285 1.581,53.242 1.594,53.291 C1.635,53.449 1.427,53.511 1.42,53.639 C1.372,54.474 1.39,55.5 1.42,56.073 C1.425,56.175 1.595,56.277 1.594,56.247 C1.616,56.857 1.395,56.988 1.42,57.465 C1.425,57.563 1.595,57.672 1.594,57.639 C1.61,58.291 1.559,58.9 1.594,59.552 C1.686,61.279 1.857,63.178 1.942,64.595 C1.984,65.313 1.755,65.959 2.116,66.334 C2.505,63.9 2.882,61.47 3.507,59.204 C3.654,58.671 3.883,58.175 4.029,57.639 C4.203,56.995 4.296,55.934 4.55,55.726 L4.55,55.378 L4.724,55.378 L4.724,55.029 C4.792,54.746 4.831,54.408 4.897,54.16 C5.021,53.714 5.129,53.386 5.246,53.291 L5.246,52.943 L5.419,52.769 C5.435,52.696 5.279,52.503 5.246,52.595 C5.409,52.143 5.742,51.664 5.941,51.204 C6.074,50.901 6.013,50.606 6.116,50.334 L6.463,50.161 C6.589,49.897 6.434,49.805 6.637,49.639 L6.637,49.29 L6.811,49.29 L6.811,48.943 C6.891,48.813 7.147,48.821 7.159,48.595 C7.169,48.4 7.287,48.51 7.333,48.42 C7.471,48.156 7.403,47.787 7.507,47.552 L7.854,47.377 C7.902,47.299 7.832,47.12 7.854,47.03 C7.933,46.717 8.189,46.582 8.203,46.334 C8.223,45.949 8.527,46.092 8.55,45.639 C8.56,45.447 8.683,45.55 8.725,45.465 C8.792,45.324 8.657,45.085 8.725,44.943 L9.072,44.769 C9.22,44.482 9.273,44.158 9.42,43.899 C9.536,43.695 9.597,43.691 9.768,43.552 L9.768,43.204 C9.894,43.02 10.161,42.872 10.29,42.682 L10.29,42.508 C10.3,42.307 10.401,42.431 10.463,42.334 C10.721,41.936 10.778,41.411 11.333,41.465 C11.354,41.354 11.306,41.226 11.333,41.117 C11.373,40.961 11.473,41.014 11.507,40.943 C11.671,40.6 11.702,40.412 11.855,40.073 L12.203,39.899 L12.376,39.551 C12.39,39.302 12.712,39.261 12.724,39.03 C12.738,38.78 13.06,38.739 13.072,38.508 C13.083,38.309 13.189,38.429 13.246,38.334 C13.381,38.11 13.289,37.859 13.42,37.639 L13.768,37.639 C13.851,37.565 13.707,37.213 13.768,37.117 L14.116,36.943 L14.116,36.596 L14.464,36.421 L14.464,36.074 L14.811,35.899 L14.811,35.552 C14.928,35.406 15.219,35.356 15.333,35.204 L15.333,34.856 L15.681,34.682 C15.873,34.452 16.143,34.081 16.203,33.987 C16.281,33.863 16.306,33.753 16.376,33.639 C16.943,32.72 17.87,32.106 18.638,31.378 C20.618,29.499 22.332,27.51 24.203,25.639 C25.565,24.276 27.314,22.878 28.725,21.813 C29.164,21.481 29.431,21.197 29.768,20.943 C30.054,20.727 30.427,20.259 30.637,20.248 C31.02,20.227 31.13,19.705 31.333,19.551 L31.681,19.551 L31.854,19.204 C32.146,19.002 32.598,18.763 32.724,18.682 C33.048,18.477 33.079,18.364 33.246,18.16 L33.593,18.16 L33.768,17.813 L34.115,17.813 C34.292,17.689 34.431,17.427 34.637,17.291 C35.238,16.896 35.986,16.586 36.376,16.248 C36.637,16.022 36.997,15.565 37.246,15.552 C37.565,15.535 37.65,15.174 37.767,15.03 L38.289,14.856 C38.484,14.732 38.497,14.679 38.637,14.509 L38.984,14.509 L38.984,14.334 L39.506,14.161 C39.701,14.037 39.715,13.983 39.854,13.813 L40.202,13.813 L40.202,13.639 C40.266,13.562 40.784,13.471 40.898,13.466 C41.284,13.444 41.141,13.141 41.593,13.117 C41.779,13.108 41.69,12.976 41.768,12.943 C42.03,12.832 42.198,12.852 42.463,12.77 C42.975,12.611 43.135,12.489 43.333,12.248 L43.68,12.248 C44.176,12.003 44.644,11.891 45.072,11.726 C45.292,11.641 45.557,11.448 45.767,11.378 C46.355,11.183 47.121,11.067 47.333,10.856 C47.422,10.767 47.896,10.888 48.028,10.856 C48.251,10.804 48.271,10.697 48.551,10.682 C48.713,10.673 48.675,10.522 48.724,10.509 C49.256,10.358 49.759,10.301 50.29,10.161 C51.353,9.879 52.432,9.529 53.593,9.639 C53.645,8.998 53.143,9.136 52.897,8.944 Z M75.854,82.682 C76.021,82.797 75.825,83.386 76.028,83.551 C76.197,83.69 76.167,83.788 76.202,84.073 L76.202,84.421 L76.376,84.421 C76.449,84.76 76.508,85.171 76.55,85.465 C76.592,85.759 76.36,86.141 76.724,86.334 C76.681,86.64 76.424,86.731 76.028,86.682 C76.364,87.228 76.44,88.604 76.376,89.812 C76.353,90.258 76.636,91.077 76.028,91.03 C76.134,91.178 76.239,91.349 76.028,91.377 C75.825,91.404 75.718,91.34 75.68,91.204 C75.35,91.128 75.243,90.829 74.811,90.855 C75.141,92.263 75.53,93.615 75.68,95.203 C75.573,95.357 75.47,95.514 75.68,95.551 C75.53,96.057 75.419,95.747 74.984,95.725 C75.133,97.15 74.773,98.064 74.636,99.203 C74.328,99.528 74.194,99.062 73.593,99.203 C73.729,100.249 73.605,100.767 73.419,101.812 C73.017,102.291 72.843,101.919 72.028,101.986 C72.178,103.122 71.807,103.736 71.681,104.594 C71.136,104.804 70.817,105.239 69.941,105.116 C70.206,105.899 70.206,107.464 69.941,108.247 C69.496,108.413 69.312,108.65 68.897,108.769 C68.93,108.759 68.671,108.548 68.551,108.595 C68.515,108.607 68.491,108.731 68.376,108.769 C68.135,108.845 68.046,108.836 67.854,108.943 C67.516,109.319 67.683,109.854 67.506,110.334 C67.482,110.401 67.342,110.329 67.333,110.507 C67.324,110.67 67.032,111.175 66.811,111.377 C66.792,111.706 66.236,111.498 66.289,111.899 C65.393,111.925 64.772,111.676 64.202,111.377 C64.053,111.837 64.278,112.241 64.028,112.768 L63.681,112.942 C63.582,113.165 63.642,113.584 63.506,113.812 C63.334,114.101 63.023,113.948 62.984,114.334 C61.87,114.289 61.585,113.414 60.724,113.117 C60.247,112.956 60.776,113.802 60.55,113.985 L60.375,113.985 C60.148,114.755 60.118,115.846 59.332,116.246 C58.605,116.441 58.379,115.995 57.941,115.725 C57.499,115.453 56.973,114.732 56.376,114.334 C56.114,114.438 56.206,114.938 56.028,115.203 L55.854,115.377 C55.694,115.69 55.718,116.329 55.159,116.246 C54.762,116.294 54.505,116.205 54.462,115.898 C53.848,115.88 54.833,115.324 54.289,115.377 C53.909,115.12 53.353,115.038 53.072,114.682 C52.381,115.208 52.517,116.561 51.854,117.116 C51.312,117.091 50.754,116.981 50.29,116.768 C50.188,116.722 50.197,116.482 50.115,116.42 L49.768,116.42 L49.768,116.246 C49.547,116.134 49.278,116.213 49.072,116.073 C48.86,115.929 48.53,115.466 48.203,115.203 C47.854,114.922 47.605,114.68 47.159,114.507 C46.687,114.384 47.283,115.328 46.811,115.203 C46.647,115.095 46.667,115.371 46.637,115.377 C46.422,115.42 46.548,115.233 46.463,115.203 C46.343,115.161 46.102,115.111 45.942,115.029 C45.825,114.971 45.693,114.737 45.593,114.682 L45.246,114.682 C45.104,114.507 44.887,114.485 44.724,114.334 L44.55,113.985 C44.438,113.89 44.137,113.918 44.028,113.812 C43.941,113.728 44.082,113.408 43.854,113.464 C43.181,113.544 43.784,114.901 43.159,115.029 C42.849,115.273 42.557,114.987 42.289,114.855 C42.189,114.806 41.882,114.768 41.768,114.682 L41.593,114.334 C41.422,114.223 41.233,114.249 41.072,114.16 C40.98,114.109 41.095,113.996 40.898,113.985 C40.602,113.971 40.477,113.486 40.202,113.291 C39.704,113.138 39.776,113.458 39.506,113.638 C39.419,113.697 39.296,113.637 39.333,113.812 C38.121,113.111 36.721,112.598 35.68,111.725 C35.314,111.603 35.444,111.937 35.333,112.073 C35.223,112.206 35.038,112.232 34.985,112.421 C34.522,112.57 34.676,112.093 34.289,112.073 C33.997,112.058 33.938,111.569 33.593,111.551 C33.352,111.539 33.196,111.153 32.898,110.855 C32.689,110.646 32.346,110.502 32.202,110.334 L32.202,109.986 C32.059,109.868 31.697,109.784 31.681,109.464 C31.668,109.233 31.346,109.192 31.333,108.943 C31.319,108.682 30.964,108.4 30.811,108.073 C30.281,108.181 30.472,109.008 29.941,109.116 C29.494,109.015 29.027,108.566 28.725,108.247 C28.571,108.085 28.36,107.927 28.203,107.725 L28.203,107.377 L27.854,107.203 L27.854,106.855 C27.591,106.64 27.575,106.534 27.333,106.16 C27.271,106.063 27.169,106.187 27.159,105.986 C27.15,105.824 26.951,105.365 26.811,105.116 C26.76,105.024 26.647,105.14 26.637,104.942 C26.63,104.8 26.442,104.77 26.464,104.594 C25.813,104.989 25.854,106.072 25.072,106.333 C24.709,106.315 24.41,106.019 24.203,105.812 L23.855,105.464 C23.684,105.241 23.526,104.928 23.333,104.594 C23.255,104.459 23.261,104.231 23.159,104.073 C23.022,103.858 22.598,103.719 22.637,103.377 C21.813,103.422 22.098,104.577 21.072,104.42 C21.029,104.231 20.726,104.303 20.725,104.073 C20.91,103.713 20.429,103.827 20.376,103.725 C20.306,103.587 20.445,103.343 20.376,103.204 C20.334,103.117 20.213,103.222 20.203,103.029 C20.189,102.779 19.872,102.653 19.854,102.333 C19.831,101.883 19.523,101.617 19.333,101.116 C19.027,101.319 18.738,101.257 18.463,101.464 L18.463,101.812 C18.318,101.957 17.897,101.826 17.941,102.16 C17.088,101.761 16.919,100.735 16.55,99.899 C16.515,99.82 16.387,99.912 16.376,99.725 C16.363,99.457 16.277,99.409 16.203,99.203 C16.019,98.696 15.754,97.915 15.333,97.463 C15.086,97.449 14.84,97.436 14.811,97.638 C14.644,97.734 14.434,98.068 14.289,98.16 C14.047,98.315 13.726,98.244 13.594,98.507 C13.199,98.322 12.962,97.98 12.899,97.463 C13.203,97.171 12.798,97.047 12.724,96.769 C12.672,96.573 12.541,96.397 12.55,96.247 C12.559,96.111 12.757,96.067 12.724,95.898 C12.646,95.493 12.153,94.992 12.376,93.985 C11.983,93.869 11.737,93.819 11.333,93.813 C11.137,93.809 10.765,94.211 10.463,93.813 C10.339,93.415 10.427,92.947 10.463,92.595 C10.501,92.232 10.615,91.893 10.638,91.551 C10.633,91.603 10.358,91.462 10.463,91.377 C10.854,91.065 10.534,89.866 10.638,88.943 C10.855,88.9 10.813,88.597 10.638,88.595 C9.911,88.357 10.21,88.994 10.115,89.29 C10.123,89.269 9.82,89.367 9.941,89.464 C10.114,89.602 10.001,89.575 9.941,89.812 C9.813,90.328 9.942,91.201 9.42,91.551 C8.897,91.727 9.112,91.163 9.072,90.855 C9.339,89.896 9.251,88.878 9.42,87.899 C9.423,87.882 9.587,87.863 9.594,87.726 C9.617,87.289 9.644,87.065 9.768,86.508 C9.859,86.093 10.053,85.675 10.115,85.291 C10.222,84.643 10.205,84.033 10.29,83.377 C10.456,82.084 10.806,80.653 10.985,79.203 C11.244,77.114 11.33,75.19 11.855,73.116 C11.892,72.969 11.968,72.81 12.029,72.595 L12.029,72.248 L12.203,72.248 L12.203,71.899 C12.438,71.706 12.158,71.685 12.376,71.029 C12.397,70.969 12.542,71.028 12.55,70.855 C12.592,70.061 12.968,68.943 13.246,68.073 C13.344,67.769 13.497,67.508 13.594,67.203 C13.681,66.928 13.679,66.61 13.768,66.334 C14.22,64.937 14.803,63.711 15.333,62.334 L15.333,61.987 L15.507,61.987 L15.507,61.639 C15.622,61.545 15.857,61.177 16.029,60.77 L16.029,60.421 L16.203,60.421 L16.203,60.074 C16.36,59.944 16.472,59.76 16.55,59.552 L16.55,59.204 L16.724,59.204 L16.724,58.855 L16.898,58.855 L16.898,58.508 L17.072,58.508 L17.072,58.16 L17.246,58.16 L17.246,57.813 C17.449,57.646 17.295,57.554 17.42,57.291 L17.768,57.117 C17.812,57.027 17.743,56.867 17.768,56.769 C17.817,56.57 18.016,56.438 18.116,56.247 L18.116,55.899 C18.444,55.631 18.4,55.573 18.638,55.029 C18.672,54.951 18.801,55.042 18.812,54.856 L18.985,54.334 L19.333,54.16 C19.442,53.976 19.413,53.808 19.507,53.639 C19.558,53.546 19.67,53.661 19.681,53.465 L19.681,53.291 C19.791,53.113 20.084,52.962 20.203,52.769 L20.203,52.422 C20.515,52.166 20.598,51.846 20.898,51.378 C20.977,51.253 21.165,51.141 21.246,51.03 C21.392,50.83 21.542,50.322 21.768,49.986 C21.858,49.853 22.013,49.806 22.115,49.639 C22.183,49.529 22.21,49.403 22.29,49.29 C22.424,49.1 22.676,48.956 22.812,48.769 C23.125,48.336 23.38,47.796 23.681,47.377 C23.767,47.258 23.947,47.141 24.029,47.03 C24.106,46.923 24.12,46.792 24.203,46.682 C24.344,46.493 24.585,46.348 24.724,46.16 C24.842,46 24.77,45.777 24.898,45.639 L25.246,45.465 L25.246,45.117 C25.497,44.912 25.706,44.804 25.941,44.421 C26.093,44.175 26.369,43.898 26.637,43.552 C27.582,42.33 28.507,41.112 29.594,39.899 C29.727,39.752 29.825,39.741 29.941,39.551 C30.153,39.209 30.668,38.812 30.985,38.334 C31.049,38.237 31.148,38.362 31.159,38.161 C31.164,38.063 31.497,37.664 31.681,37.465 C32.479,36.6 33.606,35.718 34.637,34.856 C34.818,34.705 34.991,34.46 35.159,34.334 C35.292,34.235 35.531,34.272 35.68,34.16 C35.854,34.03 35.851,33.779 36.202,33.639 L36.55,33.639 C36.78,33.358 37.298,32.883 37.767,32.595 C37.787,32.457 38.343,32.068 38.289,32.421 C38.65,32.001 38.825,31.702 39.333,31.378 L39.506,31.204 C39.63,31.131 39.889,31.129 40.028,31.03 C40.176,30.925 40.231,30.609 40.376,30.508 C40.54,30.395 40.743,30.434 40.898,30.334 C41.238,30.117 41.662,29.928 42.115,29.639 L42.289,29.464 C42.563,29.303 42.883,29.295 43.333,29.117 C43.385,29.097 43.368,28.978 43.506,28.943 C44.229,28.762 45.06,28.412 45.942,28.073 C46.191,27.978 46.393,28.025 46.637,27.9 C46.742,27.846 46.895,27.595 46.985,27.552 C47.229,27.437 47.432,27.501 47.68,27.378 C47.824,27.307 47.934,27.071 48.028,27.03 C48.296,26.91 48.515,26.94 48.724,26.856 C49.003,26.746 49.327,26.683 49.768,26.509 C49.819,26.488 49.803,26.369 49.941,26.334 C50.438,26.21 50.554,26.138 51.159,25.987 C51.725,25.845 52.944,25.534 53.767,25.291 C53.874,25.259 54.008,25.318 54.115,25.291 C54.289,25.248 54.488,25.009 54.811,24.943 C55.539,24.793 56.328,24.856 57.071,24.769 C57.223,24.751 57.355,24.62 57.594,24.596 C57.766,24.578 57.944,24.617 58.115,24.596 C58.453,24.553 58.845,24.44 59.159,24.422 C59.464,24.403 59.699,24.571 60.028,24.596 C59.975,24.592 60.118,24.316 60.203,24.422 C60.212,24.435 60.452,24.715 60.55,24.596 L60.55,24.422 C61.927,24.386 62.904,24.358 64.028,24.769 C64.095,24.793 64.025,24.934 64.202,24.943 L64.376,24.943 C64.495,24.991 64.501,25.097 64.55,25.117 C64.783,25.212 65.027,25.157 65.246,25.291 L65.419,25.639 C65.682,25.757 65.848,25.719 66.115,25.987 C66.32,26.191 66.359,26.559 66.636,26.856 C66.926,27.167 67.847,27.787 68.202,28.248 L68.202,28.595 L68.551,28.77 C68.674,28.997 68.59,29.237 68.724,29.464 L69.072,29.639 C69.225,29.98 69.21,30.18 69.419,30.508 C69.48,30.604 69.583,30.482 69.594,30.682 C69.605,30.913 69.928,30.954 69.941,31.204 C69.953,31.435 70.276,31.476 70.289,31.726 L70.463,32.074 C70.526,32.169 70.768,32.333 70.811,32.421 C71.002,32.814 71,33.39 71.159,33.813 C71.185,33.882 71.323,33.808 71.333,33.987 C71.353,34.366 71.535,34.455 71.681,34.856 C71.778,35.127 71.761,35.267 71.854,35.552 C71.874,35.611 72.019,35.555 72.028,35.726 C72.049,36.127 72.062,36.244 72.202,36.596 C72.236,36.681 72.347,37.134 72.549,37.291 C72.676,37.823 72.25,37.803 72.375,38.334 C72.814,39.346 73.21,40.398 73.419,41.638 C73.948,41.313 73.776,40.659 73.941,40.073 L73.941,39.726 C74.198,39.516 74.438,38.579 74.462,37.987 C74.48,37.586 74.497,37.466 74.636,37.117 C74.706,36.943 74.75,36.839 74.811,36.596 C74.846,36.456 74.973,36.464 74.984,36.421 C75.118,35.944 75.064,35.505 75.159,35.03 C75.195,34.848 75.282,34.635 75.333,34.334 C75.351,34.224 75.306,34.096 75.333,33.987 C75.375,33.814 75.428,33.481 75.506,32.943 C75.631,32.091 75.917,30.371 75.854,29.117 C75.838,28.779 75.689,28.41 75.68,28.073 C75.646,26.811 75.828,25.605 75.68,24.422 C75.649,24.177 75.572,23.826 75.506,23.552 C75.371,22.982 75.243,22.484 75.159,21.813 L75.159,21.465 C74.925,21.273 75.209,21.391 75.159,21.117 C75.154,21.096 74.992,21.084 74.984,20.943 C74.974,20.73 75.039,20.453 74.984,20.248 C74.973,20.204 74.819,20.232 74.811,20.073 C74.795,19.787 74.662,19.111 74.462,18.682 C74.424,18.6 74.299,18.698 74.289,18.508 L74.115,18.16 C73.72,17.506 72.732,16.663 71.854,15.726 C71.48,15.327 71.055,14.93 70.637,14.509 C70.241,14.11 69.905,13.549 69.594,13.292 L69.246,13.292 L69.072,12.943 C68.82,12.781 68.337,12.749 68.028,12.595 C67.914,12.539 67.778,12.3 67.68,12.248 C67.342,12.065 67.11,12.086 66.636,11.9 C66.585,11.879 66.602,11.761 66.463,11.726 C66.358,11.7 66.215,11.765 66.115,11.726 L65.768,11.378 C65.31,11.24 64.792,11.161 64.202,11.03 C63.585,10.894 63.153,10.788 62.463,10.682 C62.352,10.665 62.223,10.709 62.115,10.682 C62.017,10.658 61.932,10.507 61.941,10.509 C61.541,10.459 61.149,10.573 60.724,10.509 C59.877,10.38 59.282,10.056 58.115,10.161 C57.774,10.191 57.554,10.338 57.245,10.334 C56.877,10.331 56.533,10.139 56.202,10.161 C55.897,10.18 55.824,10.295 55.506,10.334 C54.908,10.407 54.581,10.354 53.941,10.509 C53.869,10.525 53.228,10.873 53.072,10.682 C52.886,10.455 53.022,10.678 52.897,10.682 C51.589,10.729 50.3,11.045 49.072,11.378 C48.705,11.477 48.23,11.705 47.854,11.726 C47.49,11.747 47.302,11.985 46.985,12.074 C46.85,12.112 46.382,11.98 46.289,12.074 L46.289,12.248 C45.781,12.398 45.204,12.436 44.724,12.595 C44.066,12.814 43.522,13.191 42.811,13.466 C42.555,13.563 42.371,13.52 42.115,13.639 C41.859,13.758 41.583,13.946 41.246,14.161 L40.724,14.334 L40.724,14.509 L40.376,14.509 L40.376,14.683 C40.135,14.793 39.918,14.727 39.681,14.856 C39.59,14.906 39.703,15.02 39.506,15.03 C39.275,15.042 39.234,15.365 38.984,15.378 C38.829,15.386 38.226,15.702 37.941,15.899 L37.767,16.248 L37.419,16.248 L37.246,16.596 L36.897,16.596 C36.758,16.708 36.694,17.02 36.55,17.117 L36.202,17.117 L36.202,17.291 L35.854,17.291 C35.757,17.409 35.622,17.628 35.333,17.813 C35.218,17.887 35.109,17.908 34.985,17.986 C34.794,18.108 34.659,18.21 34.463,18.334 C34.365,18.397 34.354,18.464 34.289,18.508 C33.921,18.76 33.435,18.921 33.072,19.204 C32.78,19.431 32.518,19.825 32.202,20.073 C31.975,20.254 31.718,20.24 31.507,20.421 C31.36,20.547 31.306,20.822 31.159,20.943 L30.811,20.943 L30.811,21.117 C30.689,21.27 30.389,21.419 30.115,21.639 C29.758,21.925 29.421,22.233 29.071,22.508 C28.943,22.61 28.593,23.019 28.376,23.03 C28.174,23.041 27.776,23.512 27.507,23.726 C27.107,24.043 26.597,24.489 26.116,24.943 C25.955,25.094 25.753,25.333 25.594,25.465 C25.28,25.724 25.093,25.965 24.724,26.334 C24.426,26.632 24.088,26.859 23.681,27.204 L23.507,27.552 L23.159,27.552 L23.159,27.9 L22.985,27.9 C22.872,27.99 22.743,28.373 22.637,28.421 L22.29,28.421 L22.29,28.77 C21.469,29.44 20.558,30.496 19.681,31.378 L19.333,31.378 L19.333,31.552 C19.228,31.684 19.042,32.014 18.812,32.248 C18.203,32.862 17.405,33.395 16.898,33.987 C16.765,34.142 16.834,34.303 16.724,34.509 C16.655,34.637 16.458,34.746 16.376,34.856 C16.29,34.974 16.11,35.093 16.029,35.204 C15.95,35.311 15.938,35.44 15.854,35.552 C15.768,35.669 15.588,35.789 15.507,35.899 C15.428,36.007 15.416,36.134 15.333,36.248 C15.135,36.52 14.969,36.704 14.811,36.943 C14.722,37.078 14.476,37.399 14.464,37.639 C14.448,37.932 13.96,37.991 13.942,38.334 L13.942,38.508 C13.876,38.619 13.648,38.758 13.594,38.856 L13.594,39.204 C13.49,39.29 13.083,39.684 13.072,39.899 L12.724,40.421 C12.607,40.517 12.476,40.651 12.203,40.595 C12.164,40.757 12.25,40.958 12.203,41.117 C12.146,41.302 12.094,41.186 12.029,41.291 C11.868,41.551 11.728,41.779 11.507,42.16 C11.412,42.325 11.243,42.381 11.159,42.508 C10.783,43.075 10.539,43.823 9.941,44.247 C10.077,44.549 9.814,44.667 9.768,44.769 L9.768,45.117 L9.594,45.117 L9.594,45.465 L9.42,45.465 L9.42,45.813 C9.306,45.906 9.093,46.329 8.898,46.682 C8.848,46.773 8.734,46.66 8.725,46.856 C8.723,46.89 8.599,47.286 8.55,47.377 C8.49,47.492 8.258,47.626 8.203,47.726 L8.203,48.073 L8.028,48.073 L8.028,48.42 L7.854,48.42 L7.854,48.769 C7.75,48.854 7.506,49.28 7.333,49.639 L7.333,49.986 C7.168,50.122 7.078,50.114 6.985,50.334 C6.87,50.606 6.746,50.892 6.637,51.204 C6.483,51.646 6.479,52.028 6.29,52.595 C6.27,52.656 6.125,52.597 6.116,52.769 C6.103,53.012 5.875,53.299 5.768,53.639 C5.675,53.937 5.692,54.34 5.594,54.683 C5.58,54.732 5.429,54.692 5.419,54.856 L5.419,55.378 L5.246,55.378 C5.154,55.708 5.181,56.089 5.072,56.421 L4.897,57.117 C4.642,57.327 4.867,57.504 4.724,58.16 C4.718,58.191 4.558,58.186 4.55,58.334 C4.536,58.607 4.444,58.643 4.376,58.855 C4.25,59.251 4.074,59.696 4.029,60.074 C3.974,60.53 3.764,60.851 3.681,61.291 C3.487,62.321 3.502,63.446 3.333,64.595 C3.268,65.037 3.086,65.508 2.985,65.986 C2.927,66.261 3.057,66.584 2.985,66.856 C2.925,67.084 2.678,67.129 2.637,67.377 C2.587,67.68 2.676,68.035 2.637,68.42 C2.581,68.99 2.342,69.959 2.29,70.682 C2.225,71.571 2.491,72.539 2.29,73.465 C2.259,73.608 2.118,73.636 2.116,73.812 C2.111,74.171 2.306,74.373 2.29,74.682 L2.116,74.855 C2.087,74.97 2.199,75.484 2.116,75.552 C1.896,75.73 2.152,75.772 2.116,76.421 C2.086,76.937 1.958,77.467 1.942,77.986 C1.903,79.251 2.003,80.515 2.116,81.813 C2.272,83.632 2.23,85.262 2.464,87.203 L2.464,87.551 C2.767,87.799 2.656,88.401 2.811,89.116 C2.843,89.263 2.967,89.288 2.985,89.464 C3.031,89.918 2.926,90.415 2.985,90.855 C3.048,91.324 3.243,91.8 3.333,92.247 C3.512,93.137 3.568,93.863 3.854,94.682 C3.868,94.721 3.996,94.727 4.029,94.856 C4.141,95.306 4.202,95.61 4.376,96.073 L4.376,96.42 C4.519,96.537 4.497,96.553 4.55,96.769 L4.724,97.29 C4.867,97.407 4.844,97.422 4.897,97.638 C4.937,97.791 5.095,98.059 5.246,98.333 C5.308,98.447 5.539,98.583 5.594,98.681 L5.594,99.029 C5.698,99.115 6.104,99.509 6.116,99.725 C6.124,99.874 6.38,100.11 6.463,100.247 C6.53,100.355 6.558,100.483 6.637,100.595 C6.812,100.839 7.156,101.055 7.333,101.29 C7.434,101.424 7.395,101.662 7.507,101.812 C7.577,101.905 7.785,101.9 7.854,101.986 L7.854,102.333 L8.203,102.333 L8.203,102.682 C8.307,102.766 8.888,103.004 8.898,103.204 C8.917,103.555 9.245,103.375 9.42,103.551 C9.53,103.661 9.497,103.954 9.594,104.073 C9.711,104.219 9.829,104.238 9.941,104.42 C10.222,104.875 10.826,105.497 11.333,105.986 C11.008,106.637 10.65,105.94 10.463,105.812 C10.376,105.753 9.69,105.681 9.768,105.291 C9.764,105.311 10.056,105.223 9.941,105.116 L9.594,105.291 C9.447,105.113 9.509,104.826 9.246,104.594 C9.083,104.451 8.901,104.379 8.725,104.248 C8.558,104.122 8.515,104.042 8.376,103.899 C8.126,103.641 7.792,103.369 7.507,103.029 C7.367,102.862 7.293,102.686 7.159,102.508 C6.97,102.255 6.734,102 6.463,101.638 C6.265,101.373 6.052,101.147 5.768,100.769 C5.688,100.66 5.471,100.508 5.419,100.42 L5.419,100.073 L5.246,100.073 L5.246,99.725 C5.22,99.704 4.754,99.276 4.897,98.855 C4.449,98.864 4.315,98.25 4.203,97.986 C4.04,97.605 3.978,97.115 3.854,96.769 C3.832,96.703 3.69,96.771 3.681,96.595 L3.681,96.42 C3.605,96.231 3.532,95.676 3.333,95.377 C3.221,95.209 3.221,95.103 3.159,94.856 C3.118,94.692 3.064,94.42 2.985,94.16 L2.811,93.985 C2.801,93.847 3.007,93.813 2.985,93.638 C2.958,93.417 2.55,92.589 2.464,92.073 C2.402,91.708 2.493,91.411 2.464,91.03 C2.453,90.893 2.313,90.847 2.29,90.682 C2.298,90.741 2.564,90.588 2.464,90.507 C2.24,90.329 2.228,89.397 2.116,88.769 C2.112,88.75 1.949,88.733 1.942,88.595 C1.906,87.912 1.691,87.143 1.594,86.334 C1.601,86.391 1.871,86.242 1.769,86.16 C1.54,85.978 1.51,84.951 1.594,84.248 L1.594,83.899 C1.769,83.756 1.646,83.794 1.594,83.551 C1.559,83.385 1.631,83.195 1.594,83.03 C1.587,82.997 1.428,83.005 1.42,82.856 C1.403,82.529 1.484,81.992 1.42,81.464 C1.219,79.817 1.146,76.883 1.246,74.682 C1.261,74.36 1.395,74.129 1.42,73.812 C1.461,73.299 1.362,72.817 1.42,72.248 C1.475,71.706 1.544,70.902 1.594,69.986 C1.606,69.762 1.555,69.512 1.594,69.29 C1.624,69.121 1.772,69.032 1.769,68.769 C1.763,68.502 1.62,68.198 1.594,67.899 C1.479,66.617 1.423,65.026 1.246,63.552 L1.246,63.204 C1.042,63.038 1.125,62.755 1.072,62.16 C1.007,61.442 0.971,60.334 0.898,59.204 C0.878,58.892 0.739,58.643 0.725,58.334 C0.642,56.545 0.725,54.733 0.725,52.943 C0.725,51.101 0.609,49.441 0.725,47.726 C0.775,46.972 0.999,46.227 1.072,45.465 C1.123,44.942 1.04,44.452 1.072,43.899 C1.153,42.516 1.386,40.983 1.594,39.551 C1.745,38.514 1.892,37.524 2.116,36.421 C2.121,36.395 2.282,36.393 2.29,36.248 C2.315,35.757 2.284,35.568 2.464,35.03 C2.484,34.969 2.628,35.028 2.637,34.856 C2.652,34.584 2.912,33.761 2.985,33.465 C3.095,33.026 3.385,32.215 3.507,31.726 C3.592,31.385 3.591,31.278 3.681,31.03 C3.867,30.512 4.146,29.948 4.376,29.291 C4.574,28.725 4.519,28.516 4.724,27.9 C4.745,27.838 4.889,27.898 4.897,27.726 C4.91,27.508 5.143,27.012 5.246,26.683 C5.353,26.342 5.302,25.989 5.419,25.639 C5.441,25.577 5.585,25.637 5.594,25.465 C5.608,25.196 5.694,25.15 5.768,24.943 C5.989,24.328 6.194,23.797 6.463,23.204 C6.563,22.987 6.535,22.867 6.637,22.682 C6.688,22.591 6.801,22.705 6.811,22.508 C6.825,22.258 7.143,22.133 7.159,21.813 C7.18,21.412 7.358,21.505 7.507,21.291 L7.507,20.943 C7.854,20.66 7.945,20.143 8.203,19.551 C8.237,19.473 8.366,19.564 8.376,19.377 L8.55,18.856 L8.898,18.682 C9.008,18.503 8.98,18.327 9.072,18.16 C9.123,18.069 9.236,18.184 9.246,17.986 C9.254,17.838 9.51,17.602 9.594,17.465 C9.728,17.247 9.956,17.117 10.115,16.77 L10.115,16.421 C10.166,16.38 10.667,16.102 10.812,15.899 C10.905,15.769 10.876,15.524 10.985,15.378 L11.333,15.204 C11.444,15.031 11.417,14.845 11.507,14.683 C11.558,14.591 11.67,14.706 11.681,14.509 C11.695,14.24 12.142,14.092 12.376,13.813 C12.496,13.671 12.429,13.422 12.55,13.292 L12.899,13.117 C13.27,12.679 13.579,12.165 13.942,11.726 C14.051,11.593 14.154,11.49 14.289,11.378 C14.387,11.297 14.261,11.215 14.464,11.204 C14.684,11.192 14.778,10.712 14.985,10.509 C15.409,10.092 15.905,9.866 16.376,9.465 C16.578,9.293 16.692,8.933 16.898,8.77 L17.246,8.77 C17.451,8.519 17.558,8.31 17.941,8.074 C18.211,7.907 18.48,7.472 18.812,7.204 C18.948,7.094 19.178,7.146 19.333,7.03 L19.507,6.683 C19.688,6.556 20.006,6.463 20.203,6.335 C20.352,6.236 20.429,6.071 20.551,5.986 L20.898,5.986 L20.898,5.813 C21.167,5.644 21.498,5.629 21.768,5.465 C21.893,5.389 22.004,5.199 22.115,5.118 C22.294,4.987 22.528,4.953 22.812,4.77 C22.908,4.707 22.784,4.606 22.985,4.596 C23.134,4.587 23.37,4.332 23.507,4.248 C23.622,4.178 23.731,4.152 23.855,4.074 C23.962,4.005 24.105,3.779 24.203,3.726 L24.55,3.726 L24.55,3.552 C25.185,3.207 25.883,3.011 26.637,2.682 C26.716,2.648 26.625,2.519 26.811,2.509 C27.126,2.492 27.343,2.14 27.681,1.987 C27.94,1.869 28.246,1.745 28.55,1.639 C28.737,1.573 29.477,1.268 29.594,1.291 C29.619,1.296 29.606,1.542 29.768,1.465 L29.941,1.117 C30.272,1.009 30.657,1.039 30.985,0.943 C31.086,0.914 31.741,0.908 31.854,0.769 C32.198,0.35 33.702,0.364 34.811,0.421 C34.787,0.42 34.879,0.589 34.985,0.595 C35.123,0.603 35.265,0.403 35.506,0.421 C35.689,0.435 36.186,0.827 36.55,0.769 C36.563,0.767 36.59,0.603 36.724,0.595 C36.825,0.59 37.049,0.746 37.246,0.769 C37.715,0.826 38.019,0.807 38.637,0.943 C38.669,0.951 38.662,1.11 38.811,1.117 C39.279,1.142 39.592,1.299 40.028,1.465 L40.376,1.465 L40.376,1.639 L40.724,1.639 L40.724,1.813 C41.117,1.968 41.583,2.018 41.942,2.161 C42.166,2.25 42.902,2.51 43.333,2.682 L43.68,2.682 C43.875,2.92 44.597,3.156 45.072,3.378 C45.638,3.643 46.24,3.878 46.811,4.248 C46.908,4.31 46.784,4.411 46.985,4.421 C47.047,4.425 47.377,4.543 47.507,4.596 C47.639,4.648 47.617,4.74 47.68,4.77 C48.199,5.012 48.742,5.049 49.246,5.291 C49.331,5.332 49.229,5.455 49.42,5.465 L49.941,5.64 L50.115,5.986 C50.206,6.028 50.378,5.935 50.463,5.986 C50.669,6.115 50.784,6.374 50.985,6.508 C51.216,6.664 51.484,6.719 51.681,6.857 C51.881,6.997 52.008,7.233 52.202,7.378 C52.315,7.461 52.424,7.472 52.55,7.552 C53.194,7.962 54.278,8.669 54.984,9.291 C56.099,9.251 57.243,9.343 58.463,9.291 L58.811,9.291 C58.973,9.093 58.897,9.276 59.159,9.291 C59.919,9.335 60.513,9.369 61.246,9.465 C61.387,9.484 61.423,9.615 61.593,9.639 C61.534,9.63 61.687,9.364 61.767,9.465 C61.94,9.682 62.447,9.407 62.637,9.639 C62.964,10.039 64.69,10.123 65.419,10.334 L66.115,10.509 L66.115,10.682 C66.429,10.787 66.798,10.721 67.159,10.856 C67.228,10.883 67.154,11.021 67.333,11.03 C67.583,11.043 67.708,11.361 68.028,11.378 C68.279,11.391 68.403,11.709 68.724,11.726 L69.246,11.9 L69.419,12.248 C69.655,12.354 69.829,12.369 70.115,12.595 C70.349,12.781 70.607,13.11 70.811,13.292 C71.453,13.86 72.092,14.37 72.724,15.03 L72.724,15.378 L73.072,15.378 C73.186,15.512 73.143,15.765 73.246,15.899 C73.466,16.188 73.922,16.527 74.289,16.943 C74.509,17.193 74.816,17.401 74.984,17.639 C75.098,17.799 75.063,18.007 75.159,18.16 L75.506,18.508 C75.605,18.753 75.449,19.119 75.506,19.377 C75.513,19.411 75.673,19.401 75.68,19.551 L75.68,19.726 L75.854,19.9 C75.878,20.026 75.66,20.082 75.68,20.248 C75.695,20.369 75.804,20.573 75.854,20.769 C75.977,21.26 76.256,22.817 76.376,23.726 C76.395,23.863 76.57,23.903 76.55,24.074 L76.376,24.248 C76.396,24.429 76.536,24.625 76.55,24.943 C76.599,26.123 76.355,27.607 76.55,28.943 C76.628,29.481 76.699,30.161 76.55,31.204 L76.55,31.552 L76.376,31.552 C76.294,32.275 76.299,32.958 76.202,33.639 C76.039,34.78 75.928,35.888 75.506,36.943 L75.506,37.291 C75.241,37.508 75.489,37.884 75.333,38.508 C75.322,38.549 75.167,38.525 75.159,38.683 C75.145,38.955 75.052,38.991 74.984,39.204 C74.814,39.738 74.784,40.254 74.636,40.943 C74.63,40.973 74.47,40.969 74.462,41.117 C74.437,41.607 74.468,41.797 74.289,42.334 C74.269,42.395 74.125,42.335 74.115,42.508 C74.1,42.793 73.806,42.92 73.767,43.378 C73.74,43.693 73.83,44.352 73.941,44.943 C73.945,44.965 74.108,44.975 74.115,45.117 C74.124,45.287 74.091,45.47 74.115,45.639 C74.138,45.792 74.28,45.771 74.289,45.813 C74.32,45.968 74.115,45.989 74.115,45.986 C74.192,46.451 74.388,46.934 74.462,47.377 C74.555,47.919 74.522,48.326 74.636,48.769 C74.754,49.22 74.982,49.682 75.159,50.161 C75.313,50.583 75.615,51.091 75.68,51.551 C75.859,52.823 75.451,54.147 75.506,55.378 C75.523,55.757 75.625,55.812 75.68,56.073 C75.714,56.236 75.632,56.437 75.68,56.595 C75.729,56.759 75.911,57.632 76.028,58.16 C76.035,58.192 76.194,58.184 76.202,58.334 C76.225,58.766 76.301,58.914 76.376,59.377 C76.397,59.513 76.57,59.557 76.55,59.725 C76.547,59.748 76.104,60.308 76.55,60.421 C76.579,60.798 75.933,60.5 75.68,60.595 C75.787,61.383 75.962,62.375 76.202,63.377 C76.44,64.378 76.933,65.308 76.724,66.16 C76.899,66.684 76.335,66.468 76.028,66.508 C76.183,67.105 76.347,67.781 76.55,68.595 C76.583,68.726 76.715,68.735 76.724,68.769 C76.866,69.344 77.043,69.941 77.071,70.507 C77.079,70.657 76.774,70.823 77.071,70.855 C77.124,71.566 76.708,70.948 76.376,71.029 C76.233,71.346 76.502,71.658 76.55,71.899 C76.603,72.167 76.437,72.568 76.724,72.595 C76.542,72.763 76.415,72.785 76.376,73.116 C76.335,73.458 76.495,73.893 76.55,74.334 C76.578,74.557 76.499,74.813 76.55,75.029 C76.592,75.208 76.805,75.403 76.724,75.726 L76.55,75.899 C76.547,76.029 76.718,76.191 76.724,76.421 C76.733,76.797 76.717,77.24 76.724,77.638 C76.853,78.231 76.083,77.925 76.028,78.334 C75.941,80.226 76.289,80.617 76.202,82.508 C75.721,82.486 75.605,82.176 75.854,82.682 Z" id="Fill-103"></path>
            <path d="M19.159,56.595 C19.361,56.567 19.468,56.633 19.507,56.769 C19.319,57.77 19.756,58.841 19.507,59.899 C19.473,60.045 19.352,60.07 19.333,60.247 C19.334,60.242 19.529,60.457 19.507,60.595 C19.505,60.607 19.34,60.635 19.333,60.77 C19.326,60.893 19.495,61.19 19.507,61.464 C19.549,62.442 19.417,64.043 19.507,65.291 C19.567,66.135 19.727,67.106 19.854,67.899 C19.955,68.519 20.099,68.965 20.203,69.638 C20.22,69.749 20.175,69.877 20.203,69.986 C20.324,70.473 20.705,71.7 20.898,72.421 C21.039,72.947 20.98,73.413 21.246,73.812 C21.358,73.98 21.358,74.086 21.42,74.334 C21.459,74.496 21.567,74.438 21.594,74.508 C21.793,75.042 21.864,75.609 22.115,76.247 C22.136,76.298 22.254,76.282 22.29,76.421 C22.315,76.524 22.249,76.671 22.29,76.769 C22.333,76.874 22.601,77.032 22.637,77.116 C22.679,77.212 22.611,77.362 22.637,77.464 C22.672,77.604 22.826,77.903 22.985,78.16 C23.054,78.271 23.275,78.408 23.333,78.508 C23.442,78.697 23.408,78.858 23.507,79.03 C23.603,79.195 23.769,79.25 23.855,79.377 C23.971,79.55 23.911,79.745 24.029,79.899 C24.176,80.092 24.485,80.302 24.724,80.595 C24.988,80.918 25.111,81.387 25.246,82.16 C24.801,82.625 24.593,81.839 24.376,81.639 C24.046,81.331 23.728,81.052 23.507,80.769 C23.247,80.436 23.039,80.082 22.812,79.725 C22.75,79.629 22.648,79.752 22.637,79.552 C22.629,79.398 22.439,79.09 22.29,78.855 C21.738,77.99 21.225,76.066 20.725,74.855 C20.653,74.682 20.657,74.404 20.551,74.16 L20.203,73.812 C20.102,73.472 20.088,72.93 20.029,72.595 C19.988,72.366 19.646,71.879 20.029,71.725 C20.086,71.516 19.738,71.64 19.681,71.551 C19.538,71.33 19.598,70.749 19.507,70.333 C19.42,69.938 19.502,69.5 19.333,68.943 C19.283,68.777 19.216,68.301 19.159,67.725 C19.109,67.232 19.084,67.136 18.985,66.508 C18.99,66.54 18.694,66.428 18.812,66.334 C19.094,66.108 18.843,66.169 18.812,65.639 C18.772,64.99 18.731,64.306 18.812,63.552 C18.829,63.385 18.975,63.428 18.985,63.377 C19.022,63.192 18.812,63.242 18.812,63.204 C18.808,61.017 18.966,59.095 18.985,57.117 C18.936,56.836 19.15,56.817 19.159,56.595" id="Fill-104"></path>
        </g>
    </g>
</svg>