<?xml version="1.0" encoding="UTF-8"?>
<svg width="134px" height="106px" viewBox="0 0 134 106" version="1.1" xmlns="http://www.w3.org/2000/svg" xmlns:xlink="http://www.w3.org/1999/xlink">
    <!-- Generator: Sketch 50.2 (55047) - http://www.bohemiancoding.com/sketch -->
    <title>Artboard</title>
    <desc>Created with Sketch.</desc>
    <defs></defs>
    <g id="Artboard" stroke="none" stroke-width="1" fill="none" fill-rule="evenodd">
        <path d="M11.1495162,92.7025908 C11.1195162,92.9035908 10.8745162,92.8905908 10.6285162,92.8755908 C10.3595162,93.2455908 10.1275162,93.6505908 9.93151621,94.0925908 C9.45651621,94.0185908 9.36351621,94.5065908 9.06251621,94.7895908 C8.79051621,95.0445908 8.45951621,95.2235908 8.19351621,95.4845908 C6.86051621,96.7845908 5.57451621,98.2835908 4.36651621,99.4835908 C4.09351621,99.7545908 3.72651621,99.9145908 3.49751621,100.180591 C3.30851621,100.398591 3.19051621,100.754591 2.97551621,101.049591 C2.63151621,101.520591 2.15651621,101.952591 1.93151621,102.266591 L1.93151621,102.614591 L1.58451621,102.614591 C1.53751621,102.694591 1.60651621,102.870591 1.58451621,102.962591 C1.52151621,103.215591 0.916516215,103.502591 1.40951621,103.657591 C1.94551621,102.990591 2.94551621,102.271591 3.49751621,101.919591 C3.62051621,101.840591 3.73051621,101.816591 3.84451621,101.744591 C4.15151621,101.555591 4.46951621,101.236591 4.71451621,101.223591 C4.91651621,101.212591 4.79051621,101.122591 4.88751621,101.049591 C5.38551621,100.678591 5.90351621,100.591591 6.45351621,100.353591 C6.74351621,100.228591 7.01951621,100.091591 7.14951621,100.005591 C7.77551621,99.5875908 8.78551621,99.3655908 9.58351621,99.1365908 C11.0575162,98.7125908 12.6945162,98.3095908 14.2795162,97.9195908 C14.0525162,97.2375908 13.4875162,96.8805908 13.0625162,96.3545908 C12.9885162,96.2625908 12.9415162,96.1015908 12.8885162,96.0055908 C12.6405162,95.5525908 12.4715162,95.0345908 12.3665162,94.6145908 C12.3345162,94.4845908 12.2065162,94.4805908 12.1925162,94.4405908 C12.0205162,93.9565908 12.3205162,93.0095908 11.4975162,92.8755908 C11.4585162,92.7395908 11.3515162,92.6735908 11.1495162,92.7025908 Z M112.539516,79.6585908 C112.154516,79.7625908 111.744516,79.9005908 111.322516,80.0055908 C110.502516,80.2115908 109.556516,80.4215908 108.714516,80.3535908 C108.203516,80.3135908 108.010516,80.1495908 107.844516,80.3535908 C107.527516,80.7405908 105.502516,80.1555908 105.583516,80.1795908 C105.010516,80.0065908 104.518516,79.9175908 104.018516,79.8325908 C102.865516,79.6365908 101.338516,79.6405908 100.538516,79.8325908 C100.047516,79.9505908 99.7915162,79.9325908 99.4955162,80.0055908 C99.3665162,80.0385908 99.3615162,80.1655908 99.3225162,80.1795908 C98.8795162,80.3365908 98.5195162,80.3325908 98.1045162,80.3535908 C97.9945162,80.3595908 97.9125162,80.5295908 97.9295162,80.5275908 C97.6275162,80.5485908 97.3815162,80.3435908 97.2355162,80.3535908 L97.0605162,80.5275908 C96.1825162,80.7935908 95.1275162,80.3985908 94.6265162,80.3535908 C94.2765162,80.3225908 93.9305162,80.4025908 93.5835162,80.3535908 C93.2665162,80.3095908 93.1405162,80.0825908 92.7135162,80.0055908 C92.7195162,80.0075908 92.6925162,80.2105908 92.5405162,80.1795908 C92.3925162,80.1505908 92.5675162,79.9795908 92.3655162,80.1795908 C92.2585162,80.2865908 92.0365162,79.8685908 91.8445162,80.0055908 C91.2675162,80.4535908 90.4495162,80.8025908 90.1045162,81.2235908 L89.7575162,81.2235908 L89.5825162,81.5705908 C89.4545162,81.6855908 89.1075162,81.5505908 89.2355162,81.9195908 C90.1285162,82.0005908 90.3035162,81.3645908 90.9745162,81.2235908 C91.6425162,81.0985908 92.3195162,80.9245908 93.0615162,80.8765908 C93.3315162,80.8575908 93.4695162,80.9085908 93.5835162,81.0495908 C93.6715162,81.1605908 93.8015162,80.8745908 93.7575162,80.8765908 C94.0795162,80.8695908 94.4925162,80.8795908 94.8005162,80.8765908 C95.8665162,80.8625908 96.8545162,80.9605908 97.2355162,81.0495908 C97.5765162,81.1295908 97.7505162,81.0025908 97.9295162,81.2235908 L98.2785162,81.2235908 C98.6715162,81.3715908 98.9435162,81.5765908 99.1475162,81.7455908 C99.2845162,81.8565908 99.3735162,81.9905908 99.4955162,82.0935908 C99.7775162,82.3255908 99.9575162,82.3355908 100.191516,82.4405908 L100.365516,82.7885908 C100.654516,83.0485908 100.970516,83.2195908 101.235516,83.4835908 C101.513516,83.7635908 101.660516,84.1305908 101.931516,84.3545908 L102.279516,84.3545908 L102.452516,84.7015908 C102.734516,84.8695908 103.282516,84.8925908 103.669516,85.0495908 L103.843516,85.2235908 C103.949516,85.2915908 104.087516,85.3565908 104.191516,85.3975908 C104.991516,85.7105908 106.140516,85.8885908 106.800516,86.0925908 C107.077516,86.1785908 107.218516,86.2335908 107.496516,86.2665908 C109.004516,86.4465908 110.863516,86.1945908 111.322516,86.0925908 C111.690516,86.0105908 111.979516,85.8475908 112.365516,85.9195908 C112.477516,85.3985908 111.793516,85.3005908 111.670516,85.0495908 C111.479516,84.6615908 111.392516,84.1325908 111.496516,83.6585908 C111.729516,82.6005908 112.682516,82.8205908 113.235516,82.2665908 C112.781516,81.9665908 112.290516,81.7035908 112.191516,81.0495908 C112.479516,80.8385908 112.366516,80.6315908 112.539516,80.3535908 C112.671516,80.1415908 113.061516,80.0035908 113.061516,79.6585908 C113.051516,79.5525908 113.034516,79.4535908 112.888516,79.4835908 C112.865516,79.6815908 112.719516,79.6085908 112.539516,79.6585908 Z M29.4105162,95.4845908 C29.4425162,95.3085908 29.5885162,94.8125908 29.5845162,94.7895908 C29.5695162,94.7165908 29.3665162,94.8235908 29.4105162,94.6145908 C29.4145162,94.5945908 29.5535162,94.5615908 29.5845162,94.4405908 C29.6395162,94.2165908 29.7195162,94.0725908 29.7575162,93.9195908 C29.7845162,93.8125908 29.7465162,93.6805908 29.7575162,93.5715908 C29.9425162,91.7625908 29.8365162,88.5685908 29.5845162,86.6145908 C29.5455162,86.3195908 29.6275162,85.8825908 29.5845162,85.5715908 C29.4815162,84.8275908 29.2685162,84.1145908 29.2365162,83.4835908 C29.2275162,83.3345908 29.0695162,83.3425908 29.0625162,83.3115908 C28.9435162,82.7765908 28.9955162,82.1435908 28.7145162,81.9195908 C28.6205162,81.8445908 28.8705162,81.6755908 28.8875162,81.7455908 C28.8035162,81.4085908 28.6205162,81.3205908 28.5405162,81.0495908 C28.3445162,80.3895908 28.1865162,79.5745908 28.0195162,79.3105908 C27.8065162,78.9785908 27.3325162,78.1005908 27.3225162,77.9185908 C27.3125162,77.7295908 27.1875162,77.8285908 27.1495162,77.7445908 C27.0385162,77.5085908 27.0955162,77.0955908 26.9755162,76.8755908 C26.9025162,76.7455908 26.6385162,76.7525908 26.6275162,76.5275908 C26.6105162,76.2085908 26.2495162,76.1235908 26.1045162,76.0065908 L26.1045162,75.6585908 C25.9845162,75.5205908 25.6065162,75.2975908 25.4105162,75.1365908 C24.9375162,74.7475908 24.6745162,74.4565908 24.3665162,74.2675908 C24.0105162,74.0485908 23.7905162,73.8815908 23.4965162,73.7455908 C23.4075162,73.7035908 23.5005162,73.6155908 23.3235162,73.5715908 C23.1045162,73.5165908 22.8475162,73.6135908 22.6265162,73.5715908 C22.1135162,74.1505908 21.4795162,74.4815908 20.8875162,74.9625908 C20.6725162,75.1395908 20.4125162,75.3005908 20.1925162,75.4845908 C19.9405162,75.6955908 19.7815162,75.9715908 19.4965162,76.1805908 C19.3885162,76.2585908 19.2555162,76.2885908 19.1485162,76.3535908 C18.9825162,76.4565908 18.9345162,76.6115908 18.8015162,76.7015908 C18.6305162,76.8165908 18.4795162,76.7685908 18.2785162,76.8755908 C18.1865162,76.9255908 18.0305162,77.1525908 17.9305162,77.2235908 C17.7125162,77.3805908 17.4725162,77.5625908 17.2355162,77.7445908 C16.9285162,77.9825908 16.2055162,78.3735908 16.1915162,78.6145908 C16.1735162,78.9865908 15.4315162,79.3955908 15.3235162,79.4835908 L15.3235162,79.8325908 C15.1485162,80.0555908 14.9705162,80.1435908 14.8015162,80.3535908 C14.5075162,80.7215908 14.1845162,81.0635908 13.9325162,81.3975908 C13.6355162,81.7905908 13.5065162,82.0455908 13.2365162,82.2665908 L13.0625162,82.7885908 C12.8275162,83.1555908 12.7025162,83.4895908 12.5405162,83.8325908 C12.4385162,84.0495908 12.2805162,84.1415908 12.1925162,84.3545908 C12.0895162,84.6035908 12.1205162,84.9675908 12.0185162,85.2235908 L11.8445162,85.2235908 C11.7405162,85.3285908 11.9035162,85.7755908 11.8445162,85.9195908 C11.8105162,86.0025908 11.5575162,85.9425908 11.4975162,86.0925908 C11.4365162,86.2435908 11.5515162,86.4615908 11.4975162,86.6145908 L11.3235162,86.6145908 C11.1495162,86.7875908 11.3495162,87.1465908 11.1495162,87.3095908 L11.1495162,87.6585908 L10.9755162,87.6585908 L10.9755162,88.0065908 C10.7595162,89.1775908 10.8845162,90.5045908 10.6285162,91.8315908 C10.9355162,92.0275908 11.2325162,91.8075908 11.4975162,91.8315908 C12.9005162,91.9635908 12.7935162,92.8305908 13.2365162,94.0925908 C13.4645162,94.7445908 13.8835162,95.9005908 14.1055162,96.1795908 L14.1055162,96.3545908 L14.4535162,96.3545908 C14.6195162,96.5045908 14.6485162,96.8205908 14.9745162,96.8765908 C15.1055162,97.4405908 15.6045162,97.6385908 16.0195162,97.9195908 C16.0425162,97.5405908 16.4285162,97.9415908 16.5405162,97.9195908 C16.6115162,97.9045908 16.5145162,97.7345908 16.7145162,97.7445908 C17.4665162,97.7825908 18.2085162,97.8945908 18.9745162,97.9195908 C19.7525162,97.9445908 20.2075162,98.1465908 20.7145162,98.0925908 C21.3215162,98.0285908 21.0135162,97.9935908 21.4085162,98.0925908 C21.9605162,98.2305908 22.6205162,98.0555908 22.9745162,98.0925908 C23.5825162,98.1565908 23.2745162,98.1915908 23.6705162,98.0925908 C23.7765162,98.0665908 23.9095162,98.1015908 24.0185162,98.0925908 C24.6085162,98.0505908 24.8175162,97.9925908 25.0615162,97.9195908 C25.6985162,97.7265908 26.2565162,97.6675908 26.8015162,97.5705908 C27.6105162,97.4285908 28.3295162,97.5205908 29.0625162,97.2235908 C29.1785162,96.6705908 29.2965162,96.1035908 29.4105162,95.4845908 Z M16.5405162,11.8325908 C16.3355162,12.4785908 16.1895162,13.0755908 16.0195162,13.7455908 C15.8655162,14.3435908 15.6115162,15.0205908 15.4975162,15.6595908 C15.3805162,16.3055908 15.4595162,17.2175908 15.3235162,17.9195908 C15.2175162,18.4615908 14.9465162,18.6235908 15.1495162,18.7895908 L15.1495162,19.3115908 L14.9745162,19.4845908 C14.9805162,19.8075908 15.1105162,19.8775908 15.1495162,20.1805908 C15.1985162,20.5635908 15.1665162,20.8685908 15.1495162,21.2245908 C15.1255162,21.7035908 14.8325162,21.9895908 14.8015162,22.4415908 L14.9745162,22.6155908 C15.2085162,23.3855908 15.0415162,24.2325908 15.1495162,24.7025908 C15.3095162,25.4045908 15.3885162,25.8335908 15.4975162,26.4415908 L15.6705162,26.4415908 C15.7905162,26.5385908 15.5105162,26.7785908 15.4975162,26.7895908 C15.3785162,26.8845908 15.6765162,26.9915908 15.6705162,26.9625908 C15.7985162,27.5555908 15.8805162,28.1275908 16.0195162,28.7025908 C16.1545162,29.2695908 16.3455162,29.7175908 16.3665162,30.0935908 C16.3745162,30.2635908 16.5225162,30.2085908 16.5405162,30.2675908 C16.8715162,31.2975908 17.2135162,32.2615908 17.5845162,33.2235908 C17.7995162,33.7825908 18.0355162,34.5895908 18.2785162,34.7895908 L18.2785162,35.1365908 L18.4525162,35.1365908 L18.4525162,35.4845908 C18.5565162,35.6995908 18.6335162,35.6945908 18.8015162,35.8325908 L18.9745162,36.3545908 C19.1785162,36.6745908 19.3055162,36.8715908 19.3225162,37.2235908 C19.3395162,37.5445908 19.6565162,37.6695908 19.6715162,37.9195908 C19.6815162,38.1175908 19.7905162,37.9995908 19.8445162,38.0935908 C19.9855162,38.3345908 20.0575162,38.5925908 20.1925162,38.7895908 C20.3495162,39.0165908 20.5435162,39.1205908 20.7145162,39.3105908 C20.8765162,39.4915908 21.0865162,39.6585908 21.2355162,39.8325908 C21.4085162,40.0345908 21.4335162,40.3415908 21.5835162,40.5275908 C21.7655162,40.7555908 21.9395162,40.8455908 22.1055162,41.0495908 C22.2435162,41.2185908 22.3115162,41.4095908 22.4525162,41.5715908 C22.9785162,42.1695908 23.5435162,42.6055908 24.0185162,43.1365908 C24.3685162,43.5275908 24.5585162,43.9735908 24.8875162,44.3545908 C25.1895162,44.7035908 25.6025162,45.0635908 25.9325162,45.3985908 C26.2395162,45.7095908 26.9595162,46.1325908 26.9755162,46.4415908 C26.9885162,46.6885908 27.1835162,46.5015908 27.3225162,46.6155908 L27.3225162,46.9625908 C27.6985162,47.4115908 28.1765162,47.5405908 28.5405162,47.8335908 C28.7125162,47.9695908 28.9105162,48.2115908 29.0625162,48.3545908 C29.2735162,48.5555908 29.3595162,49.0385908 29.5845162,49.0505908 C29.7845162,49.0605908 29.6615162,49.1615908 29.7575162,49.2235908 C30.3095162,49.5805908 30.5665162,50.0125908 30.9755162,50.4405908 C31.6975162,51.1985908 32.4145162,51.8645908 33.0625162,52.5275908 C33.4095162,52.8845908 33.7705162,53.2015908 34.1065162,53.5715908 C34.1955162,53.6705908 34.1695162,53.6585908 34.2805162,53.7455908 L34.4535162,53.7455908 L34.4535162,54.0925908 C34.6225162,54.2785908 34.8035162,54.4155908 34.9745162,54.6155908 C35.3235162,55.0205908 35.7805162,55.3555908 36.0175162,55.6585908 C36.1675162,55.8485908 36.2095162,56.1345908 36.3665162,56.3535908 C36.5045162,56.5455908 36.7605162,56.6735908 36.8875162,56.8755908 L36.8875162,57.0495908 C36.8985162,57.2515908 37.0005162,57.1275908 37.0615162,57.2245908 C37.3025162,57.5955908 37.4175162,57.9385908 37.5835162,58.2675908 C38.0245162,59.1395908 38.4545162,60.0615908 38.8015162,61.0495908 C38.9335162,61.4295908 39.0425162,61.8325908 39.1485162,61.9195908 L39.1485162,62.4405908 C39.1565162,62.5995908 39.3115162,62.5715908 39.3225162,62.6145908 C39.4685162,63.1695908 39.5925162,63.8005908 39.6705162,64.3545908 C39.7675162,65.0375908 39.8885162,65.5405908 39.6705162,66.2665908 C41.5545162,66.0335908 43.3145162,65.4865908 44.7145162,65.0495908 C45.2815162,64.8725908 45.8895162,64.7215908 46.4525162,64.5285908 C47.0195162,64.3335908 47.8425162,64.0485908 48.0185162,63.8325908 L48.3665162,63.8325908 C48.4925162,63.7375908 48.4905162,63.4965908 48.7145162,63.4845908 C49.0335162,63.4675908 49.1585162,63.1495908 49.4105162,63.1365908 C49.7955162,63.1165908 49.6525162,62.8125908 50.1055162,62.7895908 C50.3075162,62.7785908 50.4655162,62.5325908 50.6275162,62.4405908 C50.9885162,62.2365908 51.2015162,62.0675908 51.3235162,61.9195908 L51.6715162,61.9195908 C51.7665162,61.8655908 51.9155162,61.6425908 52.0185162,61.5715908 C52.4485162,61.2765908 52.8395162,61.0275908 53.2355162,60.7025908 C53.6185162,60.3885908 53.8975162,60.0205908 54.2795162,59.6585908 C55.0185162,58.9575908 55.8455162,58.3155908 56.5405162,57.5705908 C56.6855162,57.4155908 56.9225162,57.2245908 57.0615162,57.0495908 C57.2525162,56.8115908 57.2395162,56.5445908 57.4095162,56.3535908 C57.7395162,55.9845908 58.6085162,55.4875908 58.6275162,55.1375908 C58.6385162,54.9365908 58.7395162,55.0585908 58.8015162,54.9625908 C59.2965162,54.1985908 60.2055162,53.6295908 60.3655162,52.7015908 C60.1455162,52.5005908 59.8535162,51.9945908 59.8445162,51.8325908 C59.8335162,51.6315908 59.7325162,51.7545908 59.6705162,51.6585908 C59.4175162,51.2635908 59.2655162,50.9625908 58.9735162,50.6145908 C58.7175162,50.3075908 58.3495162,50.0235908 58.1045162,49.7455908 C56.9395162,48.4205908 55.4135162,47.0065908 54.2795162,45.9195908 L53.9325162,45.5715908 C53.9195162,45.3575908 53.5405162,45.3315908 53.4095162,45.2245908 C53.1095162,44.9755908 52.8325162,44.6035908 52.5405162,44.3545908 C52.3755162,44.2135908 52.1835162,44.1425908 52.0185162,44.0065908 C51.7375162,43.7745908 51.3975162,43.3235908 51.1485162,43.3105908 C50.7025162,43.2875908 50.4685162,42.4505908 50.2795162,42.4415908 C50.0775162,42.4305908 50.2015162,42.3575908 50.1055162,42.2675908 C49.7585162,41.9395908 49.5425162,41.8835908 49.2365162,41.7455908 L49.0615162,41.3975908 C48.8945162,41.2585908 48.7075162,41.1845908 48.5395162,41.0495908 C47.9435162,40.5715908 47.1565162,39.9195908 46.8015162,39.4845908 L46.4525162,39.4845908 L46.2795162,39.1365908 L45.9315162,39.1365908 C45.6965162,38.9765908 45.6155162,38.8295908 45.4095162,38.6155908 C45.9895162,37.8795908 46.5085162,36.6895908 46.1055162,35.4845908 C45.4755162,34.9545908 44.6035162,34.6685908 43.4965162,34.6155908 C43.2155162,34.8185908 43.2975162,35.3295908 43.1495162,35.6585908 C43.1055162,35.7545908 42.8735162,35.8615908 42.8005162,36.0065908 C42.6775162,36.2545908 42.7335162,36.4535908 42.6265162,36.7025908 C42.5915162,36.7855908 42.4955162,36.7035908 42.4525162,36.8765908 C42.3975162,37.0995908 42.3175162,37.2445908 42.2795162,37.3975908 C42.1655162,37.8525908 42.1135162,37.8595908 41.9315162,38.0935908 L41.9315162,38.4405908 C41.8565162,38.5275908 41.5055162,38.3725908 41.4085162,38.4405908 C41.4055162,38.0205908 41.7445162,37.6415908 41.7575162,37.3975908 C41.7665162,37.2255908 41.9105162,37.2845908 41.9315162,37.2235908 C42.0975162,36.7275908 41.9805162,36.5945908 42.1055162,36.1805908 L42.4525162,35.8325908 C42.5685162,35.4945908 42.3355162,34.9795908 42.8005162,34.7895908 C43.0525162,34.1315908 42.3235162,34.4545908 42.4525162,33.9195908 C42.5105162,33.2815908 43.1425162,33.2175908 42.9745162,32.3545908 C42.0905162,30.7475908 39.9305162,30.4125908 37.5835162,30.2675908 C37.1985162,30.8095908 36.7575162,31.2955908 36.5405162,32.0065908 C35.9315162,32.3255908 36.5875162,33.9085908 35.4965162,33.7455908 C35.6575162,32.5925908 35.9945162,31.6575908 36.3665162,30.6145908 C36.4925162,30.2605908 36.8705162,30.1835908 36.5405162,29.9195908 L36.7135162,29.5705908 C36.7225162,29.4005908 36.8685162,29.4585908 36.8875162,29.3975908 C37.0905162,28.7825908 37.3115162,28.2995908 37.2355162,27.6595908 C37.1885162,27.2525908 36.8845162,26.8805908 36.7135162,26.4415908 C36.0485162,26.0395908 35.1965162,25.9595908 34.4535162,25.7455908 C33.6135162,25.5055908 32.8545162,25.1935908 32.0185162,25.0505908 C31.4985162,25.8985908 31.1065162,27.0695908 30.8015162,28.0065908 C30.7015162,28.3085908 30.8435162,29.0855908 30.2795162,29.0495908 C29.8365162,28.5575908 30.3975162,27.6725908 30.4535162,27.4845908 C30.5005162,27.3285908 30.4245162,27.1255908 30.4535162,26.9625908 C30.5315162,26.5145908 30.7435162,26.0625908 30.8015162,25.9195908 L30.8015162,25.7455908 C30.8105162,25.5655908 30.9465162,25.6445908 30.9755162,25.5715908 C31.0795162,25.3015908 31.0435162,24.9235908 31.1495162,24.7025908 L31.4975162,24.5285908 L31.4975162,24.1815908 L31.6715162,24.1815908 L31.6715162,23.8325908 L31.8445162,23.8325908 C31.9475162,23.7485908 31.8885162,22.4465908 31.8445162,22.2675908 L31.6715162,22.2675908 L31.6715162,21.9195908 L31.4975162,21.9195908 L31.4975162,21.5715908 C31.3145162,21.2965908 31.0055162,21.3155908 30.8015162,21.2245908 L30.6275162,20.8765908 C30.2545162,20.6645908 30.0515162,20.8355908 29.7575162,20.7025908 L29.5845162,20.3545908 C29.4385162,20.3025908 29.0295162,20.2435908 28.7145162,20.1805908 C27.7905162,19.9965908 26.7685162,19.9835908 25.7585162,20.0065908 C25.5995162,20.6805908 25.2795162,21.2355908 25.0615162,21.5715908 C24.8755162,21.8595908 24.6145162,22.5125908 24.5395162,22.7895908 C24.4695162,23.0595908 24.4035162,23.3185908 24.3665162,23.4855908 C24.2645162,23.9325908 24.6095162,24.8095908 23.8445162,24.8765908 C23.7345162,24.4255908 23.6485162,24.2625908 23.6705162,23.8325908 C23.6775162,23.7075908 23.8445162,23.6585908 23.8445162,23.6585908 C23.8935162,23.2565908 23.8915162,22.6795908 24.0185162,22.2675908 C24.0345162,22.2155908 24.3125162,22.0295908 24.3665162,21.9195908 C24.7015162,21.2435908 24.6655162,20.4645908 25.0615162,20.0065908 C24.8035162,19.8585908 24.6885162,19.5685908 24.7145162,19.1375908 C25.1125162,18.8395908 25.1255162,18.1565908 25.2365162,17.5725908 C24.8605162,17.2615908 24.2375162,16.2015908 23.8445162,16.1805908 C23.6505162,16.1705908 23.7595162,16.0525908 23.6705162,16.0065908 C23.0175162,15.6715908 22.1185162,15.6695908 21.2355162,15.4845908 C20.8575162,15.8205908 20.8165162,16.4335908 20.5395162,16.7025908 C20.5175162,17.0835908 20.2075162,17.2845908 20.1925162,17.5725908 C20.1825162,17.7625908 20.0575162,17.6615908 20.0185162,17.7465908 C19.8415162,18.1205908 19.7425162,18.4905908 19.6715162,18.9625908 C19.6425162,19.1535908 19.8445162,19.6825908 19.4965162,19.8335908 C19.0545162,19.3715908 19.2355162,18.5855908 19.3225162,18.0935908 C19.3825162,17.7595908 19.8005162,17.0525908 19.8445162,16.8765908 C19.9005162,16.6555908 19.8905162,16.6565908 20.0185162,16.5285908 C20.1185162,16.4285908 19.9695162,15.9735908 20.0185162,15.8335908 C20.0445162,15.7585908 20.3315162,15.5825908 20.3655162,15.4845908 C20.4165162,15.3525908 20.3585162,15.1065908 20.3655162,14.9625908 C20.3755162,14.7835908 20.5125162,14.8585908 20.5395162,14.7895908 C20.8245162,14.0335908 21.0875162,12.7675908 20.7145162,12.1805908 C20.6355162,12.0565908 20.6145162,11.9485908 20.5395162,11.8325908 C20.3665162,11.5645908 20.1745162,11.5025908 20.0185162,11.3115908 C19.6645162,10.8765908 19.3935162,10.5195908 19.1485162,10.0935908 C18.6425162,9.21259076 18.5435162,8.06059076 17.9305162,7.65959076 C17.4345162,9.07159076 16.9625162,10.5045908 16.5405162,11.8325908 Z M105.061516,2.44159076 C104.645516,2.76459076 104.074516,3.46359076 103.669516,3.48459076 C103.390516,3.49959076 102.712516,3.95159076 102.625516,4.00659076 C102.393516,4.15559076 102.083516,4.34659076 101.931516,4.35459076 C101.736516,4.36459076 101.846516,4.48159076 101.757516,4.52859076 C101.514516,4.65459076 101.294516,4.57459076 101.061516,4.70259076 L100.887516,5.04959076 L100.538516,5.04959076 C100.325516,5.16059076 100.224516,5.29459076 100.017516,5.39859076 C99.8145162,5.50159076 99.5715162,5.43959076 99.3225162,5.57159076 C99.1865162,5.64459076 99.1105162,6.00259076 98.9735162,6.09359076 C98.7645162,6.23459076 98.4975162,6.14859076 98.2785162,6.26759076 L97.9295162,6.44159076 C97.6815162,6.45459076 97.6395162,6.77759076 97.4085162,6.78959076 C97.1705162,6.80159076 96.3975162,7.28059076 96.3655162,7.31159076 C96.2065162,7.46359076 96.0415162,7.53259076 95.8435162,7.65959076 C95.6485162,7.78259076 95.6355162,7.83659076 95.4955162,8.00659076 L95.1495162,8.00659076 L95.1495162,8.18059076 L94.8005162,8.18059076 C94.6045162,8.32259076 94.3345162,8.67159076 94.1055162,8.87659076 C93.8765162,9.08059076 93.6205162,9.39459076 93.4085162,9.57159076 C93.1525162,9.78859076 92.8025162,9.86459076 92.5405162,10.0935908 C92.2845162,10.3165908 92.0815162,10.5795908 91.8445162,10.7885908 C91.1055162,11.4415908 90.4045162,12.3015908 89.7575162,12.8765908 C89.6175162,13.0005908 89.3915162,12.9315908 89.2355162,13.0505908 L89.2355162,13.3985908 C89.1225162,13.5105908 88.8995162,13.3445908 88.8875162,13.5725908 C88.8765162,13.7735908 88.7765162,13.6495908 88.7135162,13.7455908 C88.5125162,14.0565908 88.0265162,14.6275908 88.0175162,14.7895908 C88.0005162,15.1095908 87.2825162,15.6715908 87.1485162,15.8335908 C86.8205162,16.2275908 86.4435162,16.5085908 86.1045162,16.8765908 C85.9975162,16.9935908 86.0255162,17.2825908 85.9305162,17.3985908 L85.5835162,17.3985908 C85.3625162,17.6355908 85.1595162,17.9115908 85.2355162,18.2675908 C84.9055162,18.4265908 84.6135162,18.7105908 84.3655162,18.9625908 C84.1045162,19.2305908 83.9095162,19.5435908 83.6705162,19.8335908 C83.1545162,20.4575908 82.7165162,21.1035908 82.2785162,21.7455908 C82.0935162,22.0185908 81.7685162,22.2315908 81.7575162,22.4415908 C81.7435162,22.6905908 81.4975162,22.9895908 81.4085162,23.1375908 L81.2355162,23.3115908 C81.0275162,23.6385908 80.8885162,23.7735908 80.7135162,24.0065908 C80.5795162,24.1855908 80.5005162,24.3555908 80.3655162,24.5285908 C80.2305162,24.7025908 79.9695162,24.7155908 79.8445162,24.8765908 C79.6985162,25.0645908 79.8075162,25.3815908 79.6705162,25.5715908 C79.5885162,25.6855908 79.4215162,25.7875908 79.3225162,25.9195908 C79.1885162,26.0985908 79.1035162,26.2635908 78.9735162,26.4415908 C78.7965162,26.6885908 78.4645162,26.9365908 78.4525162,27.1365908 C78.4345162,27.4875908 78.0345162,27.4965908 77.9305162,27.6595908 C77.7945162,27.8755908 77.8945162,28.1445908 77.7575162,28.3545908 C77.6645162,28.4975908 77.3335162,28.5555908 77.2355162,28.7025908 C77.0945162,28.9125908 77.1925162,29.1865908 77.0615162,29.3975908 C76.9975162,29.5025908 76.7875162,29.6335908 76.7135162,29.7455908 C76.4995162,30.0655908 76.3675162,30.5645908 76.1915162,30.7895908 C76.0785162,30.9355908 75.7825162,30.9865908 75.6695162,31.1365908 C75.4565162,31.4225908 75.3745162,31.8755908 75.1485162,32.1805908 C74.9225162,32.4865908 74.4695162,32.5475908 74.4525162,32.8765908 C74.4425162,33.0775908 74.3415162,32.9535908 74.2795162,33.0505908 C74.0885162,33.3465908 74.1135162,33.7425908 73.9305162,34.0935908 C73.8855162,34.1805908 73.6595162,34.3225908 73.5825162,34.4415908 L73.4095162,34.7895908 C73.3995162,34.9855908 73.2855162,34.8725908 73.2355162,34.9625908 C72.8615162,35.6425908 72.5875162,36.3825908 72.1925162,37.0495908 C72.1325162,37.1515908 71.9135162,37.2855908 71.8435162,37.3975908 C71.7445162,37.5585908 71.7845162,37.7475908 71.6715162,37.9195908 C71.6015162,38.0235908 71.4055162,38.1595908 71.3235162,38.2675908 C70.6975162,39.0795908 70.2715162,39.9065908 69.7575162,40.7025908 C69.6895162,40.8085908 69.4755162,40.9275908 69.4095162,41.0495908 C69.3055162,41.2425908 69.3325162,41.4165908 69.2365162,41.5715908 C69.1695162,41.6765908 68.9635162,41.8065908 68.8875162,41.9195908 L68.7145162,42.2675908 C68.6955162,42.6205908 68.2845162,42.6215908 68.1925162,42.7885908 C68.0585162,43.0335908 68.1415162,43.2945908 68.0185162,43.4855908 C67.9515162,43.5865908 67.7605162,43.7115908 67.6705162,43.8325908 C67.5385162,44.0075908 67.4325162,44.1695908 67.3225162,44.3545908 C67.2325162,44.5045908 67.0375162,44.5865908 66.9745162,44.7025908 C66.8475162,44.9335908 66.9025162,45.2185908 66.8005162,45.3985908 C66.6955162,45.5835908 66.5575162,45.6015908 66.4535162,45.7455908 L66.4535162,46.0935908 L66.1055162,46.2675908 C65.8655162,46.6415908 65.8215162,46.7685908 65.5835162,46.9625908 L65.5835162,47.3115908 C65.5255162,47.4115908 65.3025162,47.5455908 65.2355162,47.6585908 C65.1195162,47.8575908 65.0345162,48.0175908 65.0615162,48.3545908 C64.7845162,48.5845908 64.4275162,48.7835908 64.1915162,49.0505908 C64.0645162,49.1935908 64.1355162,49.4035908 64.0185162,49.5715908 C63.9155162,49.7165908 63.6065162,49.7735908 63.4955162,49.9195908 C63.3995162,50.0495908 63.3925162,50.3235908 63.3225162,50.4405908 L63.1485162,50.6145908 C63.0315162,50.7985908 62.9475162,50.9835908 62.8015162,51.1365908 C62.6485162,51.2955908 62.5785162,51.4615908 62.4525162,51.6585908 C62.3745162,51.7825908 62.3765162,51.9055908 62.2795162,52.0055908 C61.5125162,52.6695908 61.1035162,53.5625908 60.5395162,54.2665908 C60.1675162,54.7345908 59.7455162,55.0105908 59.3235162,55.4845908 C58.9475162,55.9045908 58.6785162,56.4435908 58.2795162,56.8755908 C57.8855162,57.3025908 57.4945162,57.6205908 57.0615162,58.0925908 C56.6655162,58.5265908 56.2285162,58.9265908 55.8435162,59.3105908 C55.1535162,60.0015908 54.3135162,60.8805908 53.7575162,61.3975908 C53.6235162,61.5235908 53.3855162,61.4515908 53.2355162,61.5715908 L53.0625162,61.9195908 C52.9255162,62.0465908 52.6965162,61.9745908 52.5405162,62.0935908 L52.3665162,62.4405908 C52.1295162,62.6615908 51.6525162,62.6935908 51.4975162,62.7895908 C51.0285162,63.0775908 50.7275162,63.3985908 50.2795162,63.6585908 C49.2545162,64.2545908 48.1715162,64.7855908 46.9745162,65.2235908 C45.8215162,65.6465908 44.4705162,65.9335908 43.1495162,66.2665908 C42.8455162,66.3425908 42.5835162,66.5445908 42.2795162,66.6155908 C41.9055162,66.7025908 41.5935162,66.7025908 41.2345162,66.7895908 C40.9185162,66.8665908 40.5405162,66.8715908 40.1915162,66.9625908 C39.9195162,67.0345908 39.5945162,67.2355908 39.3225162,67.3105908 C38.6705162,67.4905908 38.0615162,67.6165908 37.4095162,67.8325908 C37.1635162,67.9145908 37.0525162,67.9215908 36.7135162,68.0065908 C36.5855162,68.0385908 36.5785162,68.1665908 36.5405162,68.1795908 C35.5565162,68.5255908 34.6265162,68.6435908 33.5845162,68.8765908 C31.5955162,69.3195908 29.9515162,70.0305908 28.0195162,70.4415908 C27.7615162,70.6665908 27.6005162,70.9485908 27.3225162,70.9625908 C27.0525162,70.9765908 26.8055162,71.2285908 26.6275162,71.3115908 C26.5315162,71.3545908 26.3605162,71.4805908 26.2795162,71.4845908 C26.0825162,71.4945908 26.1975162,71.6075908 26.1045162,71.6585908 C25.9235162,71.7595908 25.7955162,71.7305908 25.5835162,71.8325908 C25.0095162,72.1075908 24.6475162,72.6645908 24.0185162,72.7025908 C23.8625162,73.1855908 24.5385162,73.0955908 24.7145162,73.2245908 C24.9995162,73.4285908 25.1665162,73.7275908 25.4105162,73.9195908 C25.8735162,74.2835908 26.4065162,74.6615908 26.8015162,75.1365908 C27.1125162,75.5115908 27.3405162,75.8405908 27.4975162,76.1805908 C27.5415162,76.2755908 27.6665162,76.4475908 27.6705162,76.5275908 C27.6855162,76.7985908 27.9365162,77.0445908 28.0195162,77.2235908 C28.0625162,77.3195908 28.1895162,77.4905908 28.1925162,77.5715908 C28.2075162,77.8425908 28.4575162,78.0885908 28.5405162,78.2665908 C28.7005162,78.6135908 28.9615162,79.1555908 29.0625162,79.4835908 C29.3955162,80.5625908 29.7075162,81.5795908 29.9315162,82.6145908 C30.0355162,83.0965908 30.0205162,83.5545908 30.1055162,84.0055908 C30.1985162,84.4975908 30.3985162,84.9325908 30.4535162,85.3975908 C30.5175162,85.9485908 30.4215162,86.5275908 30.4535162,87.1355908 C30.4595162,87.2595908 30.6815162,87.1275908 30.4535162,87.3095908 C30.3685162,87.3785908 30.7045162,87.6305908 30.4535162,87.8325908 C30.3415162,87.9215908 30.6285162,88.0475908 30.6275162,88.0065908 C30.6355162,88.1815908 30.4675162,88.1275908 30.4535162,88.1795908 C30.4115162,88.3385908 30.6195162,88.3995908 30.6275162,88.5275908 C30.6965162,89.7315908 30.6815162,91.2195908 30.6275162,92.1805908 C30.6185162,92.3375908 30.4645162,92.3105908 30.4535162,92.3545908 C30.4085162,92.5205908 30.6375162,92.5675908 30.6275162,92.7025908 C30.5815162,93.3505908 30.3375162,94.2455908 30.2795162,94.4405908 C30.2315162,94.5995908 30.3135162,94.7995908 30.2795162,94.9625908 C30.1185162,95.7305908 29.7395162,96.4215908 29.9315162,97.0495908 C32.1715162,96.4605908 34.3685162,95.7375908 36.5405162,94.9625908 C37.1565162,94.7425908 37.8795162,94.5445908 38.1045162,94.2675908 L38.4535162,94.2675908 C38.9135162,94.0835908 39.6555162,93.9775908 39.8445162,93.7455908 L40.1915162,93.7455908 C40.5735162,93.6415908 41.0015162,93.5315908 41.4085162,93.3975908 C41.6215162,93.3275908 41.6595162,93.2375908 41.9315162,93.2235908 C42.1105162,93.2135908 42.0365162,93.0755908 42.1055162,93.0495908 C42.2595162,92.9935908 42.4705162,93.0965908 42.6265162,93.0495908 L42.9745162,92.7025908 C43.4785162,92.5105908 44.0055162,92.3685908 44.5405162,92.1805908 C44.6845162,92.1285908 44.9885162,92.0095908 45.0615162,92.0055908 C45.2405162,91.9965908 45.1665162,91.8585908 45.2365162,91.8315908 C45.5955162,91.6975908 45.9655162,91.7635908 46.2795162,91.6585908 L46.2795162,91.4845908 L46.6275162,91.4845908 C47.0155162,91.3285908 47.4345162,91.2545908 47.8445162,91.1365908 C48.4375162,90.9655908 48.9825162,90.7265908 49.5835162,90.6145908 C49.8035162,90.5735908 50.0555162,90.6265908 50.2795162,90.6145908 C50.4055162,90.6075908 50.4515162,90.4405908 50.4535162,90.4405908 C50.7265162,90.4055908 50.6155162,90.6675908 50.8015162,90.4405908 L51.1485162,90.4405908 C52.7205162,90.2735908 53.9075162,90.1935908 54.9745162,90.0935908 C55.2465162,90.0675908 55.1405162,90.3145908 55.3225162,90.0935908 C55.3985162,90.0005908 56.5665162,89.9315908 56.7135162,89.9195908 C57.4655162,89.8595908 58.5645162,90.0335908 58.8015162,89.7455908 C58.9425162,89.5725908 59.4655162,89.9195908 59.4965162,89.9195908 C59.8555162,89.9165908 60.0385162,89.7695908 60.3655162,89.7455908 C61.6255162,89.6495908 62.8035162,89.6525908 64.0185162,89.5705908 C64.1855162,89.5595908 64.2315162,89.3965908 64.3665162,89.3965908 C64.6325162,89.3965908 64.5435162,89.6055908 64.7135162,89.3965908 L65.0615162,89.3965908 C65.9435162,89.2915908 66.7215162,89.3295908 67.4965162,89.2235908 L67.4965162,89.0495908 L67.8445162,89.0495908 C68.5195162,88.9685908 68.7585162,88.9385908 69.2365162,88.8755908 C69.9535162,88.7815908 70.6065162,88.7895908 71.3235162,88.7015908 L71.3235162,88.5275908 L71.6715162,88.5275908 C72.5235162,88.4255908 73.0765162,88.3895908 73.7585162,88.3535908 C73.9055162,88.3465908 73.9015162,88.1865908 73.9305162,88.1795908 C74.9165162,87.9705908 75.6745162,87.8755908 76.5395162,87.6585908 C77.5105162,87.4145908 78.1775162,87.2165908 78.9735162,86.9625908 C79.1875162,86.8955908 79.2235162,86.8025908 79.4965162,86.7885908 C79.6745162,86.7795908 79.6015162,86.6405908 79.6705162,86.6145908 C80.2605162,86.3955908 81.0045162,86.2005908 81.2355162,85.9195908 L81.5835162,85.9195908 C82.2645162,85.6465908 83.1755162,85.1295908 83.6705162,84.8755908 C83.8345162,84.7915908 84.0175162,84.8095908 84.1925162,84.7015908 C84.3225162,84.6205908 84.3145162,84.3655908 84.5395162,84.3545908 C84.8165162,84.3385908 85.2635162,83.7735908 85.4095162,83.6585908 C85.7355162,83.3985908 86.0255162,83.1185908 86.2785162,82.9625908 C86.4525162,82.8555908 86.4885162,82.7155908 86.6265162,82.6145908 C87.0645162,82.2975908 87.5525162,82.0745908 88.0175162,81.7455908 C88.4735162,81.4225908 88.9535162,81.0375908 89.4095162,80.7015908 C89.6515162,80.5235908 89.9705162,80.1875908 90.1045162,80.1795908 C90.3015162,80.1695908 90.1875162,80.0565908 90.2795162,80.0055908 C90.4345162,79.9195908 90.6395162,79.9415908 90.8005162,79.8325908 L90.9745162,79.4835908 C91.1365162,79.3325908 91.3525162,79.3115908 91.4965162,79.1365908 L91.8445162,79.1365908 C91.9405162,79.0835908 92.0875162,78.8585908 92.1915162,78.7885908 C92.6395162,78.4925908 93.1145162,78.2405908 93.5835162,77.9185908 L93.7575162,77.5715908 C93.8925162,77.4695908 94.1575162,77.4735908 94.2785162,77.3975908 C94.4055162,77.3175908 94.5135162,77.3065908 94.6265162,77.2235908 C94.7385162,77.1415908 94.8505162,76.9555908 94.9735162,76.8755908 C95.3385162,76.6435908 95.8025162,76.5115908 96.0175162,76.3535908 C96.1295162,76.2725908 96.2455162,76.0905908 96.3655162,76.0065908 C96.5985162,75.8425908 96.8215162,75.6585908 97.0605162,75.4845908 C97.1755162,75.4015908 97.3025162,75.3895908 97.4085162,75.3105908 C97.5205162,75.2295908 97.6345162,75.0445908 97.7575162,74.9625908 C97.9575162,74.8305908 98.2115162,74.7565908 98.4525162,74.6155908 C98.7555162,74.4365908 99.0305162,74.1085908 99.3225162,74.0925908 C99.7055162,74.0725908 99.8475162,73.7795908 100.017516,73.5715908 L100.365516,73.5715908 C100.716516,73.4095908 100.924516,73.0655908 101.235516,73.0495908 C101.434516,73.0395908 101.315516,72.9335908 101.408516,72.8755908 C102.021516,72.5075908 102.418516,72.3725908 102.974516,72.0055908 L103.148516,71.6585908 C103.287516,71.5535908 103.544516,71.5675908 103.669516,71.4845908 C103.958516,71.2945908 104.200516,70.9705908 104.365516,70.9625908 C104.581516,70.9515908 104.975516,70.5445908 105.061516,70.4415908 L105.409516,70.4415908 C105.534516,70.3545908 105.599516,70.1905908 105.757516,70.0935908 C105.881516,70.0155908 105.989516,69.9905908 106.104516,69.9195908 C106.414516,69.7295908 106.696516,69.4125908 106.974516,69.3975908 C107.360516,69.3775908 107.685516,68.7185908 108.018516,68.7015908 C108.278516,68.6885908 108.792516,68.0795908 108.887516,68.0065908 C109.033516,67.8945908 109.096516,67.7685908 109.236516,67.6585908 C109.461516,67.4765908 109.809516,67.1435908 109.930516,67.1365908 C110.274516,67.1185908 110.333516,66.6295908 110.627516,66.6155908 C110.823516,66.6045908 110.708516,66.4925908 110.801516,66.4405908 C110.963516,66.3505908 111.148516,66.3775908 111.322516,66.2665908 L111.496516,65.9195908 C111.647516,65.8065908 111.883516,65.8475908 112.017516,65.7455908 C112.222516,65.5885908 112.328516,65.3945908 112.539516,65.2235908 C112.907516,64.9265908 113.191516,64.5575908 113.409516,64.3545908 C113.546516,64.2255908 113.774516,64.2985908 113.930516,64.1805908 L114.104516,63.8325908 C114.243516,63.7015908 114.461516,63.7765908 114.626516,63.6585908 C114.865516,63.4875908 114.944516,63.2775908 115.147516,63.1365908 C115.300516,63.0315908 115.497516,62.8325908 115.669516,62.7895908 C116.051516,62.6935908 115.962516,62.6125908 116.191516,62.4405908 C116.327516,62.3395908 116.591516,62.3435908 116.712516,62.2675908 C116.839516,62.1875908 116.947516,62.1765908 117.060516,62.0935908 C117.172516,62.0115908 117.286516,61.8275908 117.408516,61.7455908 C117.607516,61.6105908 117.876516,61.5575908 118.104516,61.3975908 L118.278516,61.0495908 C118.428516,60.9375908 118.666516,60.9775908 118.800516,60.8765908 C119.128516,60.6275908 119.211516,60.1955908 119.495516,60.1805908 C119.731516,60.1685908 120.063516,59.9205908 120.191516,59.8325908 C120.377516,59.7045908 120.531516,59.4295908 120.713516,59.3105908 L120.886516,59.3105908 C121.084516,59.2995908 120.969516,59.1885908 121.061516,59.1365908 C121.212516,59.0525908 121.427516,59.0725908 121.582516,58.9625908 L121.757516,58.6155908 C121.894516,58.4865908 122.122516,58.5595908 122.279516,58.4405908 L122.451516,58.0925908 C122.614516,57.9415908 122.831516,57.9195908 122.973516,57.7455908 C123.184516,57.4885908 123.649516,57.7825908 123.669516,57.3975908 C123.676516,57.2585908 124.300516,56.8795908 124.365516,56.8755908 C124.580516,56.8645908 124.975516,56.4585908 125.060516,56.3535908 L125.409516,56.3535908 C125.534516,56.2665908 125.599516,56.1055908 125.757516,56.0065908 C125.952516,55.8825908 125.964516,55.8295908 126.104516,55.6585908 L126.452516,55.6585908 L126.626516,55.3105908 C126.778516,55.1965908 127.013516,55.2415908 127.148516,55.1375908 C127.249516,55.0575908 127.670516,54.8305908 127.844516,54.6155908 C127.786516,54.6855908 128.510516,54.0185908 127.844516,54.0925908 C126.923516,54.2525908 126.165516,54.5365908 125.409516,54.6155908 C125.164516,54.6405908 125.045516,54.7635908 124.887516,54.7885908 C124.540516,54.8435908 124.701516,54.8735908 124.365516,54.7885908 C124.185516,54.7435908 124.083516,54.8815908 124.017516,54.9625908 L123.669516,54.9625908 C123.081516,55.1845908 122.063516,55.2595908 121.582516,55.3105908 C121.332516,55.3365908 121.225516,55.4525908 121.061516,55.4845908 C120.172516,55.6545908 119.239516,55.6465908 118.278516,55.6585908 C118.094516,55.6605908 118.176516,55.8045908 118.104516,55.8325908 C117.928516,55.8995908 117.799516,55.6615908 117.757516,55.6585908 C116.839516,55.5945908 116.328516,55.7845908 115.669516,55.8325908 C114.811516,55.8945908 113.189516,55.6275908 112.888516,56.0065908 C112.799516,56.1165908 112.668516,55.8315908 112.713516,55.8325908 C112.259516,55.8265908 111.508516,55.8225908 111.322516,55.8325908 C111.214516,55.8375908 111.126516,56.0075908 111.148516,56.0065908 C110.878516,56.0225908 110.978516,55.7895908 110.801516,56.0065908 L110.452516,56.0065908 C109.728516,56.0935908 109.132516,55.8805908 108.887516,56.1805908 C108.783516,56.3085908 108.401516,55.9995908 108.365516,56.0065908 C108.304516,56.0195908 108.374516,56.1725908 108.192516,56.1805908 C107.827516,56.1955908 107.470516,56.1905908 107.149516,56.1805908 C106.883516,56.1715908 106.966516,55.9775908 106.800516,56.1805908 C106.684516,56.3215908 105.542516,56.1905908 105.409516,56.1805908 C105.067516,56.1525908 104.711516,56.0035908 104.365516,56.0065908 C104.189516,56.0075908 104.161516,56.1485908 104.018516,56.1805908 C102.803516,56.4445908 100.770516,56.1305908 99.8445162,56.1805908 C99.7075162,56.1875908 99.6865162,56.3515908 99.6705162,56.3535908 C99.4955162,56.3835908 99.5375162,56.1885908 99.4955162,56.1805908 C99.3345162,56.1485908 99.3435162,56.3525908 99.3225162,56.3535908 C98.9215162,56.3945908 98.5035162,56.3035908 98.1045162,56.3535908 C97.4635162,56.4355908 96.8625162,56.6155908 96.1915162,56.7025908 C95.3005162,56.8165908 94.0275162,56.9455908 93.5835162,57.0495908 C93.0585162,57.1725908 92.5675162,57.0005908 92.1915162,57.0495908 C91.9535162,57.0815908 91.8245162,57.1995908 91.6705162,57.2245908 C90.9885162,57.3315908 90.2515162,57.4435908 89.5825162,57.5705908 C89.4125162,57.6045908 89.3795162,57.7115908 89.2355162,57.7455908 C89.0165162,57.7965908 88.7615162,57.7115908 88.5395162,57.7455908 C87.6485162,57.8815908 87.0375162,58.1045908 86.4525162,58.2675908 C85.9235162,58.4145908 85.3805162,58.4365908 85.2355162,58.6155908 L84.7145162,58.7885908 C84.4665162,58.8505908 84.3605162,58.8505908 84.1925162,58.9625908 C83.9295162,59.1365908 83.7015162,59.1805908 83.3225162,59.1365908 C83.2505162,60.6335908 82.8885162,62.0585908 82.8005162,63.4845908 C82.7815162,63.7985908 82.9765162,64.0185908 82.9745162,64.1805908 L82.8005162,64.3545908 C82.7625162,64.4815908 82.7905162,64.7435908 82.8005162,64.8755908 C82.8915162,65.9975908 83.3645162,67.1955908 83.3225162,68.0065908 C83.3165162,68.1135908 83.1475162,68.2025908 83.1495162,68.1795908 C83.1335162,68.4485908 83.3665162,68.3535908 83.1495162,68.5275908 C83.0465162,68.6095908 83.3155162,68.7595908 83.3225162,68.7015908 C83.2255162,69.4745908 82.6285162,69.8395908 82.2785162,70.2675908 L82.2785162,70.6145908 L81.9315162,70.7885908 C81.6475162,71.1065908 81.1835162,71.8165908 80.8875162,71.8325908 C80.6905162,71.8425908 80.8025162,71.9025908 80.7135162,72.0055908 C80.2735162,72.5135908 79.7875162,72.7145908 79.3225162,73.2245908 C79.0915162,73.4485908 78.6755162,73.4525908 78.6265162,73.0495908 C78.5905162,72.7205908 78.8405162,72.6885908 78.9735162,72.5275908 C79.5175162,71.8765908 80.1725162,71.6145908 80.7135162,71.1375908 C81.0175162,70.8685908 81.2765162,70.4325908 81.5835162,70.0935908 C82.0045162,69.6275908 82.3255162,69.4935908 82.4525162,68.8765908 C82.6945162,67.7055908 82.0025162,66.5045908 81.9315162,65.3975908 C81.9065162,65.0125908 82.0735162,64.4695908 82.1055162,64.0065908 C82.1805162,62.8985908 82.1275162,62.2145908 82.2785162,61.5715908 C82.4735162,60.7485908 82.4525162,58.3775908 82.8005162,58.0925908 L82.8005162,57.7455908 C83.2285162,56.6105908 83.7605162,54.7735908 84.0175162,53.7455908 C84.1395162,53.2575908 84.2215162,53.3705908 84.3655162,53.0495908 C84.5725162,52.5915908 84.8395162,51.8515908 84.8865162,51.6585908 C85.0545162,50.9885908 85.2765162,49.8235908 85.5835162,49.5715908 L85.5835162,49.2235908 C85.6755162,49.0915908 85.9745162,48.9825908 86.1045162,48.8765908 L86.1045162,48.5275908 C86.1605162,48.4295908 86.3905162,48.2935908 86.4525162,48.1805908 C86.5965162,47.9175908 86.6745162,47.6255908 86.8005162,47.3115908 C86.8315162,47.2335908 86.9325162,47.3035908 86.9745162,47.1365908 C87.0025162,47.0275908 86.9445162,46.8975908 86.9745162,46.7895908 C87.0875162,46.3775908 87.3655162,46.2685908 87.4955162,46.0935908 C87.5805162,45.9815908 87.6245162,45.6685908 87.6705162,45.5715908 C87.8235162,45.2495908 87.8695162,45.0375908 88.0175162,44.7025908 C88.2405162,44.1995908 88.6365162,43.4435908 88.7135162,43.1365908 C88.8295162,42.6715908 88.8815162,42.7205908 89.0615162,42.4415908 L89.2355162,42.0935908 C89.2495162,41.8435908 89.5725162,41.8035908 89.5825162,41.5715908 C89.5965162,41.3335908 90.0745162,40.5605908 90.1045162,40.5275908 C90.2585162,40.3695908 90.3265162,40.2035908 90.4535162,40.0065908 C90.6005162,39.7725908 90.7915162,39.4635908 90.8005162,39.3105908 C90.8105162,39.1195908 90.9335162,39.2215908 90.9745162,39.1365908 C91.0945162,38.8915908 91.0155162,38.6705908 91.1475162,38.4405908 C91.2075162,38.3395908 91.4105162,38.2255908 91.4965162,38.0935908 L91.6705162,37.7455908 C91.6805162,37.5445908 91.7775162,37.6695908 91.8445162,37.5715908 C92.0605162,37.2555908 92.3075162,36.8755908 92.5405162,36.5285908 C92.7985162,36.1425908 93.0395162,36.0735908 93.0615162,35.6585908 C93.0745162,35.4085908 93.3965162,35.3675908 93.4085162,35.1365908 C93.4195162,34.9355908 93.5175162,35.0605908 93.5835162,34.9625908 C93.6865162,34.8085908 93.7415162,34.9075908 93.7575162,34.6155908 C93.7655162,34.4445908 93.9115162,34.5005908 93.9315162,34.4415908 C94.1755162,33.6885908 94.0885162,32.9665908 94.1055162,32.1805908 C93.6535162,32.0695908 93.4915162,31.9835908 93.0615162,32.0065908 C92.9365162,32.0135908 92.8865162,32.1805908 92.8865162,32.1805908 C92.4515162,32.2325908 91.8755162,32.2315908 91.4965162,32.3545908 L91.1475162,32.7015908 C90.8495162,32.8555908 90.2105162,33.0445908 90.1045162,33.0505908 C89.8555162,33.0635908 89.8135162,33.3855908 89.5825162,33.3985908 C89.3125162,33.4115908 89.0665162,33.6635908 88.8875162,33.7455908 C88.7925162,33.7895908 88.6205162,33.9155908 88.5395162,33.9195908 C88.2605162,33.9345908 87.5825162,34.3855908 87.4955162,34.4415908 C87.3765162,34.5175908 87.2625162,34.5525908 87.1485162,34.6155908 C87.0505162,34.6695908 86.9115162,34.8985908 86.8005162,34.9625908 C86.7145162,35.0145908 86.5455162,34.9205908 86.4525162,34.9625908 L86.2785162,35.3115908 C86.0785162,35.4125908 85.7225162,35.4345908 85.5835162,35.4845908 C85.5285162,35.5045908 85.5495162,35.6165908 85.4095162,35.6585908 C85.2505162,35.7075908 85.0495162,35.6205908 84.8865162,35.6585908 C84.9085162,34.9705908 85.7025162,34.8695908 86.1045162,34.6155908 L86.1045162,34.4415908 L86.4525162,34.4415908 C86.5515162,34.3855908 86.6875162,34.1565908 86.8005162,34.0935908 L86.9745162,34.0935908 C87.1905162,34.0825908 87.5855162,33.6755908 87.6705162,33.5715908 L88.0175162,33.5715908 C88.1175162,33.5165908 88.2505162,33.2845908 88.3665162,33.2235908 C88.6165162,33.0905908 88.9685162,33.0175908 89.2355162,32.8765908 L89.2355162,32.7015908 L89.5825162,32.7015908 C89.7555162,32.6235908 89.9295162,32.3635908 90.1045162,32.3545908 C90.2925162,32.3445908 90.1995162,32.2145908 90.2795162,32.1805908 C90.9685162,31.8795908 91.6005162,31.7025908 92.3655162,31.6585908 C92.4195162,31.4705908 92.6035162,31.4445908 92.7135162,31.3115908 C92.8255162,31.1735908 92.6955162,30.8405908 93.0615162,30.9625908 C93.6235162,30.6775908 94.2035162,30.3985908 94.8005162,30.0935908 C95.0915162,29.9445908 95.3365162,29.9315908 95.6695162,29.7455908 C95.7685162,29.6905908 95.9085162,29.4645908 96.0175162,29.3975908 C96.1565162,29.3125908 96.4055162,29.3345908 96.5395162,29.2235908 C96.6765162,29.1125908 96.5945162,28.8365908 96.7135162,28.7025908 C96.8145162,28.5865908 97.1385162,28.6395908 97.2355162,28.5285908 C97.3415162,28.4065908 97.3195162,28.1255908 97.4085162,28.0065908 C97.5055162,27.8795908 97.6525162,27.8115908 97.7575162,27.6595908 C97.8315162,27.5505908 98.0375162,27.4375908 98.1045162,27.3105908 C98.1995162,27.1355908 98.2105162,26.9295908 98.2785162,26.7895908 C98.4465162,26.4455908 98.8015162,26.1985908 98.6265162,25.7455908 C97.8035162,25.5375908 96.9975162,25.0825908 96.3655162,25.3985908 C96.0055162,25.5775908 96.0075162,25.6615908 95.6695162,25.7455908 C95.4475162,25.8015908 95.3615162,26.0825908 95.1495162,26.0935908 C94.8785162,26.1075908 94.6305162,26.3595908 94.4525162,26.4415908 C94.3565162,26.4855908 94.1855162,26.6115908 94.1055162,26.6155908 C93.8335162,26.6295908 93.5875162,26.8805908 93.4085162,26.9625908 C93.3135162,27.0065908 93.1415162,27.1325908 93.0615162,27.1365908 C92.8655162,27.1475908 92.9775162,27.2635908 92.8865162,27.3105908 C92.3705162,27.5835908 91.6665162,27.7715908 91.3225162,28.0065908 L91.1475162,28.3545908 L90.8005162,28.3545908 C90.6975162,28.4175908 90.5645162,28.6275908 90.4535162,28.7025908 L90.1045162,28.8765908 C89.9055162,28.8865908 90.0265162,28.9905908 89.9305162,29.0495908 C89.5785162,29.2705908 89.1985162,29.3905908 88.8875162,29.5705908 C88.6825162,29.5965908 88.4935162,29.8815908 88.3665162,29.5705908 C88.3785162,29.1455908 88.8115162,29.0845908 89.0615162,28.8765908 C89.6895162,28.3545908 90.2185162,28.0235908 90.8005162,27.6595908 C90.9585162,27.5595908 91.0215162,27.3915908 91.1475162,27.3105908 C91.3665162,27.1725908 91.6215162,27.2595908 91.8445162,27.1365908 C91.9435162,27.0825908 92.0785162,26.8505908 92.1915162,26.7895908 C92.3705162,26.6935908 92.5705162,26.6885908 92.7135162,26.6155908 C93.0595162,26.4395908 93.4125162,26.2725908 93.7575162,26.0935908 C94.4115162,25.7555908 95.1135162,25.3045908 95.8435162,25.0505908 C96.3455162,24.9725908 96.2555162,24.3025908 96.7135162,24.1815908 C97.0235162,24.0865908 97.4145162,23.8415908 97.5835162,23.8325908 C97.7805162,23.8225908 97.6645162,23.7105908 97.7575162,23.6585908 C98.1475162,23.4405908 98.2615162,23.3705908 98.4525162,23.1375908 L98.8015162,23.1375908 L98.9735162,22.6155908 C99.0395162,22.5125908 99.2465162,22.3775908 99.3225162,22.2675908 C99.5185162,21.9845908 99.7095162,21.6425908 99.8445162,21.3985908 C99.8975162,21.2995908 100.130516,21.1635908 100.191516,21.0505908 C100.267516,20.9075908 100.332516,20.6335908 100.365516,20.5285908 C100.512516,20.0615908 100.709516,19.7675908 100.365516,19.3115908 C99.6215162,18.8735908 99.0025162,19.4125908 98.8015162,19.6585908 L98.4525162,19.6585908 L98.4525162,19.8335908 C98.2475162,20.0825908 97.3045162,19.8475908 97.0605162,20.0065908 C96.9945162,20.3375908 96.5725162,20.4225908 96.3655162,20.5285908 C96.1345162,20.6475908 95.7005162,20.7555908 95.4955162,20.8765908 L95.3225162,21.2245908 C95.1875162,21.3255908 94.9225162,21.3215908 94.8005162,21.3985908 C94.5085162,21.5825908 94.2145162,21.9045908 93.9315162,21.9195908 C93.7335162,21.9295908 93.8485162,22.0425908 93.7575162,22.0935908 C93.5945162,22.1845908 93.4085162,22.1565908 93.2355162,22.2675908 L93.0615162,22.6155908 C92.9355162,22.7095908 92.6515162,22.7275908 92.5405162,22.7895908 L92.5405162,22.9635908 L92.0185162,23.1375908 C91.8245162,23.2665908 91.1885162,23.7235908 90.9745162,23.3115908 C90.9235162,22.8485908 91.4535162,22.6265908 91.6705162,22.6155908 C91.8665162,22.6055908 91.7525162,22.4925908 91.8445162,22.4415908 C92.0075162,22.3505908 92.1905162,22.3775908 92.3655162,22.2675908 C92.6755162,22.0735908 92.8575162,21.8945908 93.0615162,21.7455908 C93.4535162,21.4605908 93.7875162,21.2245908 93.9315162,21.0505908 L94.2785162,21.0505908 C94.4045162,20.9625908 94.4705162,20.8005908 94.6265162,20.7025908 C94.7505162,20.6245908 94.8585162,20.5995908 94.9735162,20.5285908 C95.1115162,20.4435908 95.3475162,20.1885908 95.4955162,20.1805908 C95.6825162,20.1705908 95.5915162,20.0415908 95.6695162,20.0065908 C95.9295162,19.8935908 96.4565162,19.9155908 96.5395162,19.8335908 L96.5395162,19.4845908 C96.6365162,19.4115908 96.9815162,19.3435908 97.0605162,19.3115908 C97.6825162,19.0565908 98.3435162,19.0475908 98.9735162,18.7895908 C99.1405162,18.5875908 99.3545162,18.4405908 99.4955162,18.2675908 C99.6115162,18.1275908 99.5645162,17.8745908 99.6705162,17.7465908 L100.017516,17.7465908 C100.231516,17.5545908 100.357516,17.3545908 100.538516,17.2245908 C100.755516,17.0695908 101.225516,16.8825908 101.235516,16.7025908 C101.252516,16.3845908 102.013516,15.7895908 102.104516,15.6595908 C102.430516,15.1945908 102.900516,14.7225908 102.800516,14.0935908 C101.963516,13.3595908 100.736516,13.0285908 99.8445162,13.5725908 C99.6775162,13.6725908 99.6305162,13.7945908 99.4955162,13.9195908 C98.9075162,14.4705908 98.0465162,14.7635908 97.4085162,15.1375908 L97.4085162,15.3115908 L97.0605162,15.3115908 C96.7755162,15.5095908 96.8195162,15.7625908 96.5395162,15.8335908 C96.4375162,15.8585908 96.2875162,15.7915908 96.1915162,15.8335908 C96.1085162,15.8685908 95.9415162,16.1275908 95.8435162,16.1805908 C95.5145162,16.3585908 95.0825162,16.3735908 94.8005162,16.5285908 C94.5425162,16.6695908 94.4565162,17.2845908 94.1055162,16.8765908 C94.2865162,16.0215908 95.1575162,15.8985908 95.4955162,15.4845908 L95.8435162,15.4845908 C95.9415162,15.4315908 96.0835162,15.2055908 96.1915162,15.1375908 C96.4545162,14.9725908 96.8035162,14.7745908 97.0605162,14.6155908 L97.0605162,14.4415908 L97.4085162,14.4415908 C97.5085162,14.3865908 97.6435162,14.1545908 97.7575162,14.0935908 C97.9455162,13.9925908 98.1275162,14.0075908 98.2785162,13.9195908 C98.9945162,13.5045908 99.6165162,12.6845908 100.538516,12.7025908 C100.896516,11.7255908 102.010516,11.5065908 102.452516,10.6155908 C102.988516,10.5695908 103.238516,10.0875908 103.496516,9.74559076 C103.772516,9.37859076 104.101516,8.89559076 104.191516,8.35459076 C103.477516,7.66559076 102.615516,7.57059076 102.104516,7.83259076 C101.929516,7.92359076 101.778516,7.90059076 101.582516,8.00659076 C101.486516,8.05959076 101.342516,8.28759076 101.235516,8.35459076 C101.036516,8.47859076 100.856516,8.52659076 100.713516,8.70259076 L100.365516,8.70259076 C100.266516,8.75759076 100.129516,8.98659076 100.017516,9.04959076 C99.6385162,9.26759076 99.2545162,9.38359076 98.9735162,9.39859076 C98.7735162,9.40859076 98.8965162,9.50759076 98.8015162,9.57159076 C98.3385162,9.87859076 97.9855162,10.2415908 97.5835162,10.4415908 C97.5535162,10.6445908 97.3085162,10.6305908 97.0605162,10.6155908 C97.0585162,10.8435908 96.5775162,10.8365908 96.5395162,10.6155908 C96.6435162,10.1685908 97.0465162,10.3825908 97.0605162,10.0935908 C97.0715162,9.90959076 97.6545162,9.63759076 97.7575162,9.57159076 C97.8825162,9.49259076 97.9895162,9.47659076 98.1045162,9.39859076 C98.2735162,9.28359076 98.4635162,8.97159076 98.6265162,8.87659076 C98.8545162,8.74359076 99.0845162,8.80559076 99.3225162,8.70259076 C99.5405162,8.60759076 99.5345162,8.52059076 99.6705162,8.35459076 L100.017516,8.35459076 L100.017516,8.18059076 L100.365516,8.18059076 C100.450516,8.11759076 100.448516,7.89859076 100.538516,7.83259076 C101.307516,7.28259076 102.250516,7.07759076 103.148516,6.78959076 C103.262516,6.32359076 103.645516,6.12759076 103.843516,5.74659076 C104.193516,5.80159076 104.223516,5.55059076 104.365516,5.39859076 C104.887516,4.83859076 104.979516,4.49159076 105.235516,3.65859076 C105.390516,3.15159076 105.618516,2.58159076 105.583516,2.26759076 C105.573516,2.16159076 105.557516,2.06159076 105.409516,2.09359076 C105.387516,2.30959076 105.195516,2.33759076 105.061516,2.44159076 Z M106.278516,0.180590758 C106.412516,0.720590758 106.666516,1.58859076 106.452516,2.44159076 C106.413516,2.60059076 106.215516,3.41959076 106.104516,3.83259076 C105.996516,4.23959076 105.638516,4.08559076 105.931516,4.70259076 C105.259516,5.30459076 104.902516,6.22559076 104.191516,6.78959076 C104.280516,7.57059076 105.175516,7.54459076 105.061516,8.52759076 C104.687516,8.91559076 104.784516,9.33159076 104.540516,9.74559076 L104.191516,9.91959076 L104.191516,10.2675908 C103.978516,10.5315908 103.606516,10.7545908 103.322516,11.1375908 C103.198516,11.3025908 103.114516,11.5085908 102.974516,11.6585908 L102.625516,11.6585908 C102.433516,11.8955908 102.233516,12.0035908 102.279516,12.5285908 C102.185516,12.9695908 102.737516,12.9125908 102.974516,13.0505908 C103.224516,13.1965908 103.513516,13.3645908 103.669516,13.5725908 C103.716516,15.1465908 102.966516,16.1475908 102.104516,16.8765908 L101.931516,17.2245908 L101.582516,17.2245908 L101.582516,17.5725908 C101.331516,17.7775908 101.103516,18.0015908 100.713516,18.2675908 C100.560516,18.8265908 101.286516,18.5055908 101.235516,18.9625908 C101.869516,21.1795908 100.011516,22.3655908 99.3225162,23.8325908 C98.9815162,24.1295908 98.4525162,24.2385908 98.2785162,24.7025908 C98.6205162,24.4945908 98.5475162,25.0245908 98.6265162,25.0505908 C98.7825162,25.0995908 99.3295162,24.6345908 99.4955162,25.3985908 C99.7215162,26.1955908 99.1385162,26.8355908 98.8015162,27.4845908 C98.4905162,28.0815908 98.1145162,28.8035908 97.7575162,29.2235908 C97.6265162,29.3775908 97.3785162,29.4295908 97.2355162,29.5705908 C97.0025162,29.8055908 96.9005162,30.0375908 96.5395162,30.2675908 L96.3655162,30.4405908 C96.1285162,30.5575908 95.9065162,30.4845908 95.6695162,30.6145908 C95.5785162,30.6655908 95.6925162,30.7785908 95.4955162,30.7895908 C95.2615162,30.8015908 95.0285162,31.2525908 94.6265162,31.3115908 C94.7535162,31.4735908 94.9435162,31.5745908 95.1495162,31.6585908 C95.0735162,32.0225908 95.2685162,32.1195908 95.3225162,32.3545908 C94.9895162,33.0855908 95.3265162,33.9125908 94.9735162,34.4415908 C94.8825162,34.5795908 94.7965162,34.8625908 94.6265162,35.1365908 L94.6265162,35.4845908 C94.4575162,35.6245908 94.0355162,35.6175908 93.9315162,36.0065908 C93.7755162,36.3545908 93.6315162,36.6085908 93.4085162,36.8765908 C93.2045162,37.1225908 92.9005162,37.3155908 92.7135162,37.5715908 C92.5335162,37.8195908 92.3865162,38.1445908 92.1915162,38.4405908 C92.0935162,38.5905908 91.9285162,38.6675908 91.8445162,38.7895908 L91.8445162,39.1365908 L91.6705162,39.1365908 C91.5075162,39.4185908 91.4985162,39.8565908 91.3225162,40.1805908 C91.2585162,40.2995908 91.0645162,40.3725908 90.9745162,40.5275908 C90.8885162,40.6755908 90.9025162,40.8675908 90.8005162,41.0495908 C90.7385162,41.1605908 90.5055162,41.3005908 90.4535162,41.3975908 C90.3445162,41.5965908 90.3815162,41.7445908 90.2795162,41.9195908 C90.2145162,42.0295908 89.9855162,42.1685908 89.9305162,42.2675908 L89.9305162,42.6145908 C89.7875162,42.7335908 89.4725162,43.0555908 89.4095162,43.3105908 C89.3855162,43.4095908 89.4545162,43.5665908 89.4095162,43.6585908 C89.3535162,43.7735908 89.1145162,43.9085908 89.0615162,44.0065908 C88.9005162,44.3055908 88.9415162,44.6815908 88.7135162,45.0495908 C88.6525162,45.1485908 88.4065162,45.3115908 88.3665162,45.3985908 C88.3235162,45.4895908 88.3915162,45.6455908 88.3665162,45.7455908 L88.1925162,46.2675908 C88.0105162,46.4165908 87.8675162,46.8735908 87.6705162,47.3115908 C87.5255162,47.6295908 87.4445162,47.5195908 87.3225162,48.0065908 C87.2755162,48.1955908 87.2045162,48.0785908 87.1485162,48.1805908 C86.8625162,48.7065908 86.6555162,49.3545908 86.1045162,49.7455908 C86.0555162,49.9625908 86.1695162,50.2295908 86.1045162,50.4405908 C86.0775162,50.5315908 85.7765162,50.7255908 85.7575162,50.7885908 C85.6555162,51.1375908 85.7035162,51.6365908 85.5835162,52.0055908 C85.5725162,52.0375908 85.4395162,52.0575908 85.4095162,52.1805908 C85.3205162,52.5385908 85.1645162,52.8115908 85.0615162,53.2235908 C85.0365162,53.3265908 85.1025162,53.4755908 85.0615162,53.5715908 C85.0225162,53.6635908 84.7375162,53.8485908 84.7145162,53.9195908 C84.6785162,54.0235908 84.7405162,54.1595908 84.7145162,54.2665908 C84.6755162,54.4205908 84.5965162,54.5655908 84.5395162,54.7885908 C84.5055162,54.9265908 84.3775162,54.9205908 84.3655162,54.9625908 C84.2635162,55.3365908 84.3055162,55.8185908 84.1925162,56.1805908 C84.1835162,56.2075908 84.0485162,56.2345908 84.0175162,56.3535908 C83.9285162,56.7125908 83.7735162,56.9845908 83.6705162,57.3975908 C83.5975162,57.6865908 83.5285162,57.7825908 83.4965162,58.0925908 C83.8495162,58.3525908 84.2505162,57.9875908 84.5395162,57.9195908 C84.7475162,57.8705908 84.6415162,58.0795908 84.7145162,58.0925908 C84.8645162,58.1235908 85.0245162,57.8455908 85.4095162,57.7455908 C86.1565162,57.5515908 86.8835162,57.3845908 87.6705162,57.2245908 C88.3265162,57.0885908 88.7205162,56.9255908 89.4095162,56.8755908 C89.9455162,56.8375908 90.0265162,56.8105908 90.6265162,56.7025908 C90.6655162,56.6955908 90.6275162,56.4935908 90.8005162,56.5275908 C90.8425162,56.5365908 90.7995162,56.7345908 90.9745162,56.7025908 L91.1475162,56.5275908 C91.2585162,56.5005908 91.3865162,56.5535908 91.4965162,56.5275908 C91.9205162,56.4325908 92.5825162,56.4085908 93.4085162,56.3535908 C93.9955162,56.3155908 95.3355162,55.9845908 96.5395162,55.8325908 C96.8605162,55.7915908 97.1745162,55.9345908 97.5835162,55.8325908 C97.7745162,55.7845908 97.9355162,55.7325908 98.4525162,55.6585908 L98.8015162,55.6585908 C98.9795162,55.4405908 98.8465162,55.6335908 98.9735162,55.6585908 C98.9895162,55.6615908 99.4445162,55.5305908 99.8445162,55.4845908 C100.264516,55.4375908 100.535516,55.3335908 100.887516,55.3105908 C102.805516,55.1885908 104.777516,55.2895908 106.800516,55.3105908 C107.555516,55.3185908 108.371516,55.4375908 109.236516,55.3105908 C109.494516,55.2735908 109.547516,55.1515908 109.757516,55.1375908 C109.775516,55.1345908 109.944516,55.3715908 110.105516,55.3105908 C110.170516,55.2855908 110.109516,55.1565908 110.279516,55.1375908 C110.813516,55.0745908 111.578516,54.9975908 112.191516,54.9625908 C112.695516,54.9355908 113.344516,54.8355908 113.930516,54.9625908 C114.318516,55.0475908 114.126516,54.9915908 114.799516,54.9625908 C114.885516,54.9595908 117.219516,55.1935908 117.408516,54.9625908 C117.419516,54.9495908 117.658516,54.6695908 117.757516,54.7885908 L117.757516,54.9625908 C118.013516,55.0035908 118.015516,54.7935908 118.104516,54.7885908 C118.829516,54.7495908 119.642516,54.8565908 120.364516,54.7885908 C121.590516,54.6745908 122.851516,54.3225908 124.017516,54.0925908 C125.310516,53.8395908 126.537516,53.7005908 127.670516,53.3985908 C128.549516,53.1625908 129.303516,52.8755908 130.105516,52.5275908 L130.453516,52.5275908 L130.453516,52.3545908 L130.800516,52.3545908 C130.926516,52.2005908 131.584516,51.8325908 132.017516,51.6585908 L132.365516,51.6585908 C132.650516,51.3105908 133.113516,50.9775908 133.930516,51.3115908 C134.010516,51.8815908 133.661516,52.1175908 133.408516,52.3545908 C132.954516,52.7815908 132.504516,52.7395908 132.017516,53.0495908 C131.847516,53.1585908 131.744516,53.1615908 131.496516,53.2235908 C131.339516,53.2635908 130.986516,53.4285908 130.627516,53.5715908 C130.494516,53.6245908 130.275516,53.6595908 130.105516,53.7455908 C128.892516,54.3545908 127.864516,55.5045908 126.626516,56.3535908 C126.497516,56.4425908 126.247516,56.4205908 126.104516,56.5275908 L125.931516,56.8755908 C125.758516,56.9865908 125.571516,56.9605908 125.409516,57.0495908 C125.317516,57.1015908 125.431516,57.2125908 125.235516,57.2245908 L125.060516,57.2245908 C124.865516,57.3455908 124.724516,57.6215908 124.539516,57.7455908 C124.412516,57.8305908 124.158516,57.8145908 124.017516,57.9195908 L123.844516,58.2675908 C123.671516,58.3775908 123.485516,58.3505908 123.322516,58.4405908 C123.230516,58.4925908 123.344516,58.6055908 123.148516,58.6155908 C122.999516,58.6235908 122.763516,58.8785908 122.626516,58.9625908 C122.520516,59.0275908 122.384516,59.0585908 122.279516,59.1365908 C122.098516,59.2715908 121.966516,59.5145908 121.757516,59.6585908 C121.628516,59.7465908 121.377516,59.7245908 121.235516,59.8325908 L121.061516,60.1805908 C120.887516,60.2905908 120.702516,60.2645908 120.539516,60.3535908 C120.447516,60.4055908 120.562516,60.5175908 120.364516,60.5275908 C120.217516,60.5355908 119.980516,60.7925908 119.843516,60.8765908 C119.734516,60.9425908 119.608516,60.9705908 119.495516,61.0495908 C119.304516,61.1845908 119.159516,61.4375908 118.973516,61.5715908 C118.842516,61.6665908 118.598516,61.6355908 118.452516,61.7455908 C118.308516,61.8535908 118.184516,62.2645908 117.929516,62.4405908 L117.583516,62.4405908 C117.498516,62.5455908 117.103516,62.9515908 116.886516,62.9625908 L116.712516,62.9625908 C116.524516,63.0795908 116.370516,63.3705908 116.191516,63.4845908 C116.018516,63.5945908 115.832516,63.5675908 115.669516,63.6585908 C115.577516,63.7095908 115.693516,63.8215908 115.496516,63.8325908 C115.346516,63.8395908 115.111516,64.0955908 114.974516,64.1805908 C114.843516,64.2605908 114.406516,64.8595908 114.104516,64.8755908 C113.812516,64.8915908 113.328516,65.8965908 112.888516,65.9195908 C112.594516,65.9345908 112.535516,66.4235908 112.191516,66.4405908 C112.042516,66.4495908 111.806516,66.7045908 111.670516,66.7895908 C111.564516,66.8535908 111.427516,66.8835908 111.322516,66.9625908 C111.142516,67.0965908 111.005516,67.3355908 110.801516,67.4845908 C110.668516,67.5815908 110.564516,67.7535908 110.452516,67.8325908 L110.105516,67.8325908 L110.105516,68.0065908 C109.974516,68.0955908 109.727516,68.0725908 109.583516,68.1795908 C109.390516,68.3245908 109.037516,68.7765908 108.714516,69.0505908 C108.530516,69.2035908 108.362516,69.4495908 108.192516,69.5715908 L107.844516,69.5715908 C107.622516,69.8415908 107.106516,70.1815908 106.626516,70.4415908 C106.495516,70.5115908 106.260516,70.5165908 106.104516,70.6145908 L105.931516,70.9625908 C105.690516,71.0715908 105.537516,71.1095908 105.235516,71.3115908 C104.940516,71.5055908 104.643516,71.6495908 104.365516,71.8325908 L104.191516,72.1805908 C104.099516,72.2225908 103.930516,72.1285908 103.843516,72.1805908 C103.727516,72.2475908 103.598516,72.4665908 103.496516,72.5275908 C103.183516,72.7145908 102.787516,72.8475908 102.452516,73.0495908 L102.279516,73.3985908 C102.186516,73.4395908 102.017516,73.3465908 101.931516,73.3985908 C101.819516,73.4625908 101.682516,73.6895908 101.582516,73.7455908 C101.390516,73.8535908 101.234516,73.8195908 101.061516,73.9195908 C100.915516,74.0035908 100.821516,74.2065908 100.713516,74.2675908 L100.365516,74.2675908 C100.177516,74.4975908 100.065516,74.5795908 99.6705162,74.7885908 L99.3225162,74.7885908 C99.1285162,75.0255908 99.0045162,75.0755908 98.6265162,75.3105908 C98.5305162,75.3705908 98.6525162,75.4745908 98.4525162,75.4845908 L98.1045162,75.6585908 C97.9865162,75.7365908 97.8645162,75.9335908 97.7575162,76.0065908 C97.4475162,76.2155908 97.1615162,76.3365908 96.8865162,76.5275908 C96.7895162,76.5965908 96.9165162,76.6915908 96.7135162,76.7015908 C96.5065162,76.7125908 96.2865162,77.0375908 96.0175162,77.2235908 C95.8395162,77.3475908 95.6515162,77.4445908 95.4955162,77.5715908 C95.3825162,77.6645908 95.2505162,77.8475908 95.1495162,77.9185908 L94.8005162,77.9185908 L94.6265162,78.2665908 C94.2685162,78.5115908 93.8525162,78.7875908 93.2355162,78.9615908 C93.2525162,79.3865908 93.7135162,79.2595908 93.9315162,79.3105908 C94.2485162,79.3845908 94.4045162,79.4445908 94.6265162,79.4835908 C94.5635162,79.4735908 94.7215162,79.2125908 94.8005162,79.3105908 C95.1725162,79.7745908 96.5515162,79.6085908 97.4085162,79.4835908 C97.8775162,79.4175908 98.4125162,79.3895908 98.8015162,79.3105908 C98.8275162,79.3045908 98.8285162,79.1445908 98.9735162,79.1365908 L99.1475162,79.1365908 C99.3745162,79.0465908 99.5005162,79.0885908 100.017516,78.9615908 C100.392516,78.8715908 100.791516,78.6605908 101.235516,78.6145908 C101.180516,78.6205908 101.325516,78.8925908 101.408516,78.7885908 C101.632516,78.5105908 101.985516,78.7455908 102.625516,78.7885908 C102.760516,78.7975908 102.807516,78.5705908 102.974516,78.6145908 C103.016516,78.6255908 102.994516,78.7765908 103.148516,78.7885908 C103.680516,78.8315908 104.259516,78.7955908 104.886516,78.9615908 C104.898516,78.9655908 104.954516,79.1095908 105.061516,79.1365908 C106.271516,79.4395908 109.687516,79.5145908 111.148516,79.1365908 C111.191516,79.1255908 111.163516,78.9705908 111.322516,78.9615908 C111.804516,78.9375908 111.965516,78.7725908 112.365516,78.6145908 C112.632516,78.5105908 112.779516,78.5345908 113.061516,78.4405908 C113.122516,78.4205908 113.062516,78.2765908 113.235516,78.2665908 L113.409516,78.2665908 C113.872516,78.0815908 114.874516,77.6915908 115.669516,77.9185908 C115.712516,78.2975908 115.669516,78.5265908 115.496516,78.7885908 C115.363516,78.9875908 114.893516,79.3595908 114.626516,79.6585908 C114.213516,80.1195908 113.649516,80.3995908 113.409516,81.0495908 C113.672516,81.3085908 114.172516,81.3295908 114.626516,81.3975908 C114.703516,81.6495908 114.778516,81.3795908 114.974516,81.3975908 C115.051516,81.5525908 115.126516,81.7085908 115.322516,81.7455908 C115.064516,81.9515908 115.051516,82.4015908 114.799516,82.6145908 C114.172516,83.2045908 113.065516,83.3145908 112.539516,84.0055908 C112.698516,84.3505908 112.542516,84.5655908 112.888516,84.8755908 L113.235516,84.8755908 L113.409516,85.2235908 C113.601516,85.3175908 113.942516,85.1105908 113.930516,85.3975908 C114.043516,85.5735908 114.330516,85.5775908 114.278516,85.9195908 C113.634516,85.8185908 114.037516,86.4055908 113.409516,86.4405908 C112.994516,86.4635908 112.396516,86.6605908 111.844516,86.7885908 C111.808516,86.7965908 111.822516,86.9555908 111.670516,86.9625908 C111.500516,86.9715908 111.315516,86.9385908 111.148516,86.9625908 C110.587516,87.0445908 109.873516,87.2815908 109.061516,87.3095908 C108.987516,87.3135908 108.117516,87.4325908 108.018516,87.3095908 C107.793516,87.0365908 106.622516,87.1235908 106.104516,86.9625908 C105.789516,86.8645908 105.216516,86.7785908 104.713516,86.6145908 C104.654516,86.5955908 104.711516,86.4495908 104.540516,86.4405908 C104.137516,86.4195908 104.020516,86.4075908 103.669516,86.2665908 C103.447516,86.1775908 102.833516,85.8975908 102.452516,85.7445908 C102.333516,85.6975908 102.326516,85.5905908 102.279516,85.5715908 C102.045516,85.4755908 101.800516,85.5315908 101.582516,85.3975908 L101.408516,85.0495908 L101.061516,85.0495908 C100.517516,84.6005908 100.094516,83.8525908 99.4955162,83.3115908 C99.2255162,83.0655908 98.8255162,82.8785908 98.4525162,82.6145908 L98.2785162,82.2665908 C98.1865162,82.2255908 98.0165162,82.3175908 97.9295162,82.2665908 L97.5835162,81.9195908 C97.4075162,81.8535908 96.7175162,81.7995908 96.3655162,81.7455908 C96.1075162,81.7045908 96.0545162,81.5875908 95.8435162,81.5705908 L95.6695162,81.7455908 C95.5155162,81.7455908 95.5145162,81.5715908 95.4955162,81.5705908 C95.3905162,81.5675908 95.1745162,81.7185908 94.9735162,81.7455908 C94.5515162,81.8015908 93.6325162,81.6695908 93.0615162,81.7455908 C92.6185162,81.8045908 92.0265162,81.9405908 91.4965162,82.0935908 C91.4465162,82.1075908 91.4865162,82.2575908 91.3225162,82.2665908 C91.0425162,82.2805908 91.0235162,82.3875908 90.8005162,82.4405908 C90.6695162,82.4725908 90.1935162,82.3515908 90.1045162,82.4405908 C89.8885162,82.6575908 89.2675162,82.7005908 89.0615162,81.9195908 C88.5735162,82.2565908 88.1405162,82.6335908 87.6705162,82.9625908 C87.5405162,83.0535908 87.2925162,83.0285908 87.1485162,83.1365908 L86.9745162,83.4835908 C86.8085162,83.6015908 86.5935162,83.5275908 86.4525162,83.6585908 C86.3195162,83.7825908 86.1855162,84.1765908 85.9305162,84.3545908 L85.5835162,84.3545908 L85.5835162,84.5285908 C85.4535162,84.6185908 85.2045162,84.5935908 85.0615162,84.7015908 L84.8865162,85.0495908 C84.6665162,85.1975908 84.2755162,85.2415908 84.0175162,85.3975908 C83.9215162,85.4565908 83.9285162,85.6815908 83.8445162,85.7445908 L83.4965162,85.7445908 C83.3675162,85.9025908 83.1825162,86.0145908 82.9745162,86.0925908 L82.6265162,86.0925908 C82.3345162,86.4505908 81.2165162,86.8655908 80.5395162,87.1355908 L80.1915162,87.1355908 C80.0205162,87.3455908 79.3175162,87.6375908 78.8015162,87.8325908 L78.4525162,87.8325908 L78.4525162,88.0065908 C78.1405162,88.1015908 77.7435162,88.0975908 77.4095162,88.1795908 C76.9315162,88.2975908 76.7255162,88.4385908 76.3665162,88.5275908 C75.3855162,88.7725908 73.8805162,89.0085908 72.5395162,89.2235908 C71.3725162,89.4105908 70.2795162,89.5695908 69.0615162,89.7455908 C67.6945162,89.9415908 66.3415162,90.1535908 64.8875162,90.2675908 C64.7965162,90.2735908 63.9525162,90.1345908 63.8445162,90.2675908 C63.7195162,90.4195908 63.4615162,90.4855908 63.1485162,90.4405908 C62.6815162,90.3745908 62.6085162,90.3175908 61.7575162,90.4405908 C60.3075162,90.6515908 57.9475162,90.6255908 56.0185162,90.7885908 C55.2265162,90.8555908 54.5125162,91.0675908 53.7575162,91.1365908 C53.0515162,91.2015908 52.3445162,91.0805908 51.6715162,91.1365908 C51.4895162,91.1505908 51.2875162,91.2455908 50.8015162,91.3105908 C50.6545162,91.3305908 50.0725162,91.4425908 50.1055162,91.4845908 C49.9845162,91.3335908 49.7215162,91.3645908 49.2365162,91.4845908 C49.1965162,91.4945908 49.2175162,91.6495908 49.0615162,91.6585908 C48.8455162,91.6695908 48.5765162,91.6075908 48.3665162,91.6585908 C48.3285162,91.6675908 48.3455162,91.8235908 48.1925162,91.8315908 C47.9105162,91.8465908 47.8965162,91.9615908 47.6705162,92.0055908 C47.7355162,91.9925908 47.5735162,91.7355908 47.4965162,91.8315908 C47.3785162,91.9785908 47.3625162,91.9455908 47.1495162,92.0055908 C46.3645162,92.2275908 45.6565162,92.5985908 44.8865162,92.8755908 C44.5235162,93.0065908 44.0305162,93.0795908 43.6705162,93.2235908 C43.6175162,93.2455908 43.6375162,93.3625908 43.4965162,93.3975908 C43.3945162,93.4225908 43.2445162,93.3565908 43.1495162,93.3975908 C43.0505162,93.4395908 42.8785162,93.7145908 42.8005162,93.7455908 C42.5065162,93.8575908 42.3295162,93.8295908 42.1055162,93.9195908 C41.7295162,94.0685908 40.9605162,94.2595908 40.3655162,94.4405908 C40.2725162,94.4695908 40.1145162,94.5535908 40.0185162,94.6145908 C39.7015162,94.8175908 38.6535162,94.9595908 38.1045162,95.1365908 C37.3095162,95.3925908 36.6125162,95.7235908 35.8445162,96.0055908 C35.5975162,96.0975908 35.2875162,96.2745908 34.9745162,96.3545908 C34.6165162,96.4425908 34.3445162,96.5985908 33.9315162,96.7015908 C33.5975162,96.7855908 33.3485162,96.7055908 32.8885162,96.8765908 C32.7965162,96.9095908 32.6085162,97.2015908 32.5405162,97.2235908 C32.4025162,97.2675908 31.9415162,97.1265908 31.8445162,97.2235908 C31.7165162,97.3515908 31.7185162,97.3415908 31.4975162,97.3975908 C31.3475162,97.4345908 31.3795162,97.5525908 31.3235162,97.5705908 C30.6265162,97.7945908 29.6405162,97.6155908 29.2365162,98.4405908 C28.2685162,98.2145908 27.2795162,98.3015908 26.2795162,98.4405908 C25.6765162,98.5245908 25.1585162,98.6495908 24.5395162,98.7885908 C23.1025162,99.1105908 20.3395162,98.9005908 18.6275162,98.7885908 C18.5005162,98.7795908 18.4375162,98.5735908 18.2785162,98.6155908 C18.2305162,98.6275908 18.2745162,98.7885908 18.1065162,98.7885908 C17.9605162,98.7885908 17.7225162,98.8305908 17.5845162,98.7885908 L17.4095162,98.6155908 C17.2775162,98.6115908 17.2265162,98.8325908 17.0615162,98.7885908 C17.0155162,98.7765908 17.0515162,98.6205908 16.8885162,98.6155908 C16.9365162,98.6165908 16.8005162,98.8965908 16.7145162,98.7885908 C16.4145162,98.4145908 16.1975162,98.7885908 15.6705162,98.7885908 C15.3585162,98.7885908 15.3045162,98.5985908 14.9745162,98.6155908 C14.8535162,98.6205908 14.7755162,98.7565908 14.6275162,98.7885908 C14.4615162,98.8245908 14.2735162,98.7615908 14.1055162,98.7885908 C13.7635162,98.8445908 13.4315162,99.0425908 13.0625162,99.1365908 C12.7295162,99.2215908 12.3645162,99.2245908 12.0185162,99.3105908 C11.9685162,99.3215908 12.0255162,99.5195908 11.8445162,99.4835908 C11.8025162,99.4765908 11.8455162,99.2805908 11.6715162,99.3105908 C11.6555162,99.3135908 11.6345162,99.4765908 11.4975162,99.4835908 C11.1905162,99.5005908 11.1195162,99.6255908 10.8015162,99.6585908 C9.71251621,99.7725908 8.36251621,100.269591 7.32351621,100.701591 C7.24651621,100.732591 7.33351621,100.865591 7.14951621,100.875591 C6.95751621,100.885591 6.56851621,101.107591 6.27951621,101.223591 L5.93251621,101.223591 L5.93251621,101.397591 C5.49851621,101.614591 5.10851621,101.855591 4.71451621,102.092591 C4.51151621,102.214591 4.20451621,102.316591 4.01851621,102.440591 C3.80851621,102.581591 3.71951621,102.809591 3.49751621,102.962591 L3.14951621,102.962591 C3.03151621,103.105591 2.94751621,103.467591 2.62751621,103.483591 C2.33751621,103.499591 2.02551621,104.330591 1.58451621,104.354591 C1.34351621,104.366591 0.943516215,104.741591 0.540516215,104.875591 C0.474516215,104.898591 0.379516215,105.120591 0.191516215,105.048591 C0.171516215,105.041591 0.165516215,104.777591 0.0185162148,104.875591 C0.0645162148,104.655591 -0.0404837852,104.395591 0.0185162148,104.179591 C0.110516215,103.846591 0.244516215,103.971591 0.366516215,103.483591 C0.405516215,103.329591 0.565516215,103.067591 0.714516215,102.788591 C0.873516215,102.490591 1.06551621,102.157591 1.23551621,101.919591 C1.44451621,101.627591 1.72451621,101.480591 1.93151621,101.223591 C2.14551621,100.959591 2.22251621,100.618591 2.45251621,100.353591 C2.66051621,100.116591 2.92951621,99.9025908 3.14951621,99.6585908 C3.59651621,99.1605908 4.07351621,98.7385908 4.54051621,98.2665908 C5.45851621,97.3365908 6.41851621,96.4245908 7.32351621,95.4845908 C7.53951621,95.2585908 7.81951621,95.0175908 8.01851621,94.7895908 C8.26851621,94.5015908 8.31251621,94.1915908 8.54051621,93.9195908 C8.75251621,93.6645908 9.02351621,93.5075908 9.23751621,93.2235908 C9.30951621,93.1255908 9.53251621,92.9685908 9.58351621,92.8755908 C9.66351621,92.7325908 9.53651621,92.5185908 9.75851621,92.5275908 C9.74151621,90.7135908 9.70751621,89.1795908 10.1055162,87.6585908 C10.3425162,86.7505908 10.8795162,85.8245908 11.1495162,84.8755908 C11.2635162,84.4715908 11.2095162,84.1015908 11.3235162,83.8325908 L11.6715162,83.6585908 C11.8245162,83.3155908 11.8305162,83.1275908 12.0185162,82.7885908 C12.0695162,82.6975908 12.1815162,82.8115908 12.1925162,82.6145908 C12.2075162,82.3225908 12.2875162,82.4235908 12.3665162,82.2665908 C12.4295162,82.1425908 12.4465162,81.8945908 12.5405162,81.7455908 L12.8885162,81.5705908 L12.8885162,81.2235908 C13.0105162,81.0725908 13.2855162,81.0215908 13.4095162,80.8765908 L13.4095162,80.5275908 C13.5835162,80.3865908 13.8805162,80.2795908 14.1055162,80.0055908 C13.7175162,79.9795908 14.3015162,79.5335908 14.4535162,79.3105908 C14.6975162,78.9525908 15.0035162,78.1195908 15.4975162,78.0925908 C15.8665162,78.0725908 16.3445162,77.3385908 16.7145162,77.0495908 L17.0615162,77.0495908 L17.2355162,76.7015908 C17.5955162,76.4425908 18.0785162,76.2795908 18.4525162,76.0065908 C18.6745162,75.8445908 18.7845162,75.6485908 18.9745162,75.4845908 C19.1375162,75.3435908 19.3265162,75.2735908 19.4965162,75.1365908 C19.8515162,74.8495908 20.1995162,74.5495908 20.5395162,74.2675908 C20.8275162,74.0285908 21.0315162,73.8135908 21.4085162,73.5715908 C21.5945162,73.4545908 21.8245162,73.0645908 22.1055162,73.0495908 C22.3285162,73.0375908 22.3255162,72.7595908 22.4525162,72.7025908 C22.6655162,72.6065908 22.9635162,72.6675908 23.1495162,72.5275908 L23.3235162,72.1805908 C23.5475162,72.0535908 23.7935162,72.1415908 24.0185162,72.0055908 C24.1905162,71.9035908 24.3625162,71.5985908 24.5395162,71.4845908 L24.8875162,71.4845908 C25.1995162,71.1035908 25.6995162,70.9835908 26.2795162,70.6145908 L26.8015162,70.4415908 L26.8015162,70.2675908 L27.1495162,70.2675908 L27.1495162,70.0935908 L27.4975162,70.0935908 C27.7285162,69.8105908 27.9015162,69.7555908 28.5405162,69.5715908 C29.3675162,69.3335908 30.4265162,69.0155908 31.4975162,68.7015908 C31.5485162,68.6865908 31.5065162,68.5365908 31.6715162,68.5275908 C32.1035162,68.5045908 32.1465162,68.4615908 32.5405162,68.3535908 L32.8885162,68.3535908 C33.0755162,68.1265908 33.1865162,68.2975908 33.7585162,68.1795908 C33.7845162,68.1735908 33.7845162,68.0135908 33.9315162,68.0065908 C34.1545162,67.9945908 34.4075162,68.0475908 34.6275162,68.0065908 C34.6485162,68.0025908 34.6605162,67.8395908 34.8015162,67.8325908 C35.1775162,67.8135908 35.5075162,67.8455908 35.8445162,67.6585908 C35.9355162,67.6075908 35.8215162,67.4955908 36.0175162,67.4845908 C36.7605162,67.4455908 37.9175162,66.5525908 38.9745162,66.6155908 C39.0525162,65.8995908 38.9135162,65.1955908 38.8015162,64.5285908 C38.6905162,63.8645908 38.4115162,63.1425908 38.2785162,62.6145908 C38.1335162,62.0315908 37.8305162,61.4925908 37.5835162,60.8765908 L37.5835162,60.5275908 L37.4095162,60.5275908 L37.4095162,60.1805908 L37.2355162,60.1805908 L37.2355162,59.8325908 C37.1165162,59.7345908 36.8805162,59.3055908 36.7135162,58.9625908 L36.7135162,58.6155908 C36.5445162,58.4755908 36.4835162,58.4705908 36.3665162,58.2675908 C36.2445162,58.0555908 36.1775162,57.7925908 36.0175162,57.5705908 C35.8935162,57.3975908 35.6505162,57.2555908 35.4965162,57.0495908 C35.2045162,56.6585908 34.9235162,56.2145908 34.6275162,55.8325908 C34.4945162,55.6615908 33.7755162,55.1205908 33.7585162,54.7885908 C33.7555162,54.7385908 33.4175162,54.2345908 33.2365162,54.0925908 L32.8885162,54.0925908 C32.2275162,53.2875908 31.0485162,52.2795908 30.2795162,51.3115908 C29.8055162,50.7135908 29.0865162,50.0065908 28.3655162,49.3975908 L28.1925162,49.0505908 C27.9525162,48.9425908 27.5195162,48.9555908 27.4975162,48.5275908 L27.1495162,48.1805908 C26.9355162,47.9755908 26.4415162,47.4865908 26.1045162,47.1365908 C25.4515162,46.4545908 24.5905162,45.7615908 24.0185162,44.8755908 C23.9565162,44.7795908 23.8555162,44.9025908 23.8445162,44.7025908 C23.8295162,44.3935908 22.8265162,43.9565908 22.8015162,43.4855908 C22.7865162,43.2135908 22.5195162,43.1705908 22.2795162,42.9635908 C22.1765162,42.8735908 22.1165162,42.9865908 22.1055162,42.7885908 C22.0935162,42.5495908 21.7865162,42.5135908 21.5835162,42.2675908 L21.5835162,41.9195908 C21.4185162,41.7835908 21.3695162,41.7455908 21.2355162,41.5715908 L20.8875162,41.3975908 L20.8875162,41.0495908 C20.7415162,40.8675908 20.5125162,40.7025908 20.3655162,40.5275908 L20.0185162,40.3545908 L20.0185162,40.0065908 L19.6715162,39.8325908 L19.6715162,39.4845908 C19.5675162,39.3555908 19.2265162,39.2735908 19.1485162,39.1365908 C18.9895162,38.8555908 18.9405162,38.4405908 18.8015162,38.0935908 C18.7075162,37.8595908 18.5335162,37.7145908 18.4525162,37.3975908 C18.4275162,37.2975908 18.4965162,37.1425908 18.4525162,37.0495908 C18.3575162,36.8435908 18.2185162,36.7355908 18.1065162,36.5285908 C18.0325162,36.3935908 18.0315162,36.1695908 17.9305162,36.0065908 L17.5845162,35.8325908 C17.5425162,35.7405908 17.6355162,35.5705908 17.5845162,35.4845908 C17.5275162,35.3905908 17.2715162,35.2185908 17.2355162,35.1365908 C17.1255162,34.8835908 17.1225162,34.6345908 17.0615162,34.4415908 C16.9765162,34.1635908 16.9815162,34.0315908 16.8885162,33.7455908 C16.8025162,33.4855908 16.6785162,33.0495908 16.5405162,32.7015908 C16.5005162,32.6035908 16.3745162,32.5515908 16.3665162,32.5285908 C16.2195162,32.0865908 16.1695162,31.6065908 16.0195162,31.1365908 C15.9995162,31.0785908 15.8535162,31.1325908 15.8445162,30.9625908 C15.8375162,30.8155908 15.8925162,30.5805908 15.8445162,30.4405908 C15.7675162,30.2165908 15.5635162,30.1605908 15.4975162,29.9195908 C15.4595162,29.7845908 15.5905162,29.3165908 15.4975162,29.2235908 L15.3235162,29.2235908 C15.2945162,29.0935908 15.4115162,28.6165908 15.3235162,28.5285908 L15.1495162,28.5285908 C15.0455162,28.0375908 15.0775162,27.4405908 14.9745162,26.9625908 C14.8105162,26.1925908 14.6215162,25.7355908 14.4535162,24.8765908 C14.3425162,24.3045908 14.3685162,24.0375908 14.2795162,23.1375908 C14.2465162,22.8035908 14.1095162,22.6565908 14.1055162,22.4415908 C14.1005162,22.1435908 14.2445162,22.0575908 14.2795162,21.7455908 C14.3045162,21.5175908 14.2665162,21.2795908 14.2795162,21.0505908 C14.2765162,21.0905908 14.5665162,20.9665908 14.4535162,20.8765908 C14.2535162,20.7155908 14.2515162,20.3935908 14.2795162,19.8335908 C14.3105162,19.2105908 14.3965162,18.5285908 14.4535162,17.9195908 C14.6675162,15.6515908 15.1295162,13.3265908 15.8445162,11.3115908 C15.9695162,10.9615908 16.0175162,10.4145908 16.1915162,10.0935908 C16.2325162,10.0205908 16.3175162,10.0645908 16.3665162,9.91959076 C16.4955162,9.54759076 16.6945162,9.05859076 16.7145162,8.70259076 C16.7325162,8.37759076 17.0475162,8.12959076 17.0615162,7.83259076 C17.0655162,7.75859076 17.1275162,7.19159076 17.4095162,7.13759076 C17.4985162,6.88559076 17.4335162,6.36859076 17.5845162,6.09359076 C17.6405162,5.98959076 17.8495162,6.00159076 17.9305162,5.91959076 L18.1065162,5.57159076 C18.4835162,5.52559076 19.0735162,6.57059076 18.9745162,7.31159076 C18.9975162,7.82459076 19.3955162,8.12159076 19.4965162,8.52759076 C19.5565162,8.77059076 19.5505162,9.00059076 19.6715162,9.22359076 C19.7285162,9.33259076 19.7525162,9.62359076 19.8445162,9.74559076 C20.0055162,9.95959076 20.4185162,10.1185908 20.7145162,10.4415908 C20.9115162,10.6565908 21.0575162,10.9305908 21.2355162,11.1375908 L21.5835162,11.3115908 L21.5835162,11.6585908 C21.8755162,11.8975908 21.4785162,12.4735908 21.7575162,12.7025908 C22.0475162,12.9405908 21.8515162,13.0105908 21.7575162,13.5725908 C21.7215162,13.7875908 21.9265162,14.2965908 21.5835162,14.4415908 C21.8615162,14.7465908 22.8355162,14.6525908 23.3235162,14.9625908 C23.4825162,15.0655908 23.8035162,14.9385908 24.1925162,15.1375908 L24.3665162,15.4845908 C24.6055162,15.5925908 25.1465162,15.7605908 25.2365162,16.1805908 C25.3645162,16.2615908 25.4705162,16.4395908 25.5835162,16.5285908 C25.6685162,16.5965908 25.7325162,16.7455908 25.9325162,16.7025908 C26.2135162,17.4715908 25.9505162,18.2225908 26.1045162,18.7895908 C26.6215162,19.3275908 27.3765162,19.0305908 28.0195162,19.1375908 C28.0335162,19.1395908 28.0555162,19.3045908 28.1925162,19.3115908 C28.4165162,19.3225908 28.6675162,19.2725908 28.8875162,19.3115908 C28.9065162,19.3145908 28.9245162,19.4775908 29.0625162,19.4845908 C29.2665162,19.4955908 29.5645162,19.4225908 29.7575162,19.4845908 C29.8155162,19.5035908 29.7605162,19.6495908 29.9315162,19.6585908 C30.2355162,19.6745908 30.6365162,19.9925908 30.9755162,20.1805908 C31.2375162,20.3255908 31.4295162,20.3775908 31.6715162,20.5285908 C31.7665162,20.5875908 31.6445162,20.6915908 31.8445162,20.7025908 C32.1205162,20.7175908 32.2485162,21.1005908 32.3665162,21.2245908 C32.5205162,21.3845908 32.5855162,21.9255908 32.7155162,22.4415908 C32.7605162,22.6265908 32.9585162,22.8105908 32.8885162,23.1375908 C32.8565162,23.2835908 32.7335162,23.3085908 32.7155162,23.4855908 C32.7155162,23.4795908 32.9095162,23.6945908 32.8885162,23.8325908 C32.8845162,23.8635908 32.6215162,24.0245908 32.7155162,24.1815908 C32.9325162,24.5265908 33.3895162,24.4185908 33.7585162,24.5285908 C34.2255162,24.6685908 34.7715162,24.8985908 35.3235162,25.0505908 C35.4305162,25.0805908 35.5625162,25.0235908 35.6705162,25.0505908 C35.7225162,25.0635908 36.5945162,25.2185908 36.8875162,25.3985908 C37.0435162,25.4925908 37.1065162,25.7895908 37.2355162,25.9195908 C37.3605162,26.0445908 37.6605162,26.1275908 37.7575162,26.2675908 L37.7575162,26.6155908 L37.9305162,26.6155908 L37.9305162,26.9625908 C38.1535162,27.1445908 38.0015162,27.2615908 38.1045162,27.8325908 C38.1705162,28.1915908 38.3785162,28.8715908 37.9305162,29.3975908 C39.1765162,29.6515908 40.1455162,29.5795908 41.2345162,29.9195908 C41.5775162,30.0255908 42.0765162,30.1555908 42.2795162,30.2675908 L42.4525162,30.6145908 C42.7195162,30.7355908 42.8735162,30.6995908 43.1495162,30.9625908 C43.3975162,31.2015908 43.5655162,31.6155908 43.8445162,31.8335908 C44.2095162,32.4945908 43.7205162,32.9775908 44.0185162,33.5715908 C44.4255162,33.9715908 45.0855162,33.8775908 45.5835162,34.0935908 C46.1375162,34.3345908 46.4255162,34.6395908 46.8015162,34.9625908 C47.3065162,35.7395908 47.3205162,37.6955908 46.6275162,38.2675908 C47.8205162,39.4505908 49.1915162,40.4585908 50.4535162,41.5715908 C50.9205162,41.9835908 51.2755162,42.3645908 51.8445162,42.7885908 C51.9425162,42.8625908 51.8145162,42.9525908 52.0185162,42.9635908 C52.3355162,42.9795908 52.8925162,43.7195908 53.2355162,44.0065908 C53.3555162,44.1065908 53.7225162,44.5175908 53.9325162,44.5285908 C54.1685162,44.5415908 54.8395162,45.2985908 55.1495162,45.5715908 C55.7355162,46.0895908 56.2445162,46.6875908 56.8865162,47.3115908 L57.2365162,47.3115908 C57.3805162,47.4875908 57.5005162,47.9035908 57.7585162,48.1805908 C58.0505162,48.4955908 58.3565162,48.7415908 58.6275162,49.0505908 C59.3505162,49.8745908 60.3555162,50.7685908 60.8885162,52.0055908 C61.4605162,52.0415908 61.5105162,51.5185908 61.7575162,51.1365908 C61.8205162,51.0405908 61.9215162,51.1645908 61.9315162,50.9625908 C61.9395162,50.8105908 62.2805162,50.5325908 62.4525162,50.2675908 C62.6245162,50.0065908 62.6475162,49.7835908 62.8015162,49.5715908 C62.9445162,49.3745908 63.1575162,49.2505908 63.3225162,49.0505908 C63.5065162,48.8275908 63.6985162,48.7415908 63.8445162,48.5275908 L63.8445162,48.1805908 L64.0185162,48.1805908 L64.0185162,47.8335908 L64.1915162,47.8335908 C64.3205162,47.6125908 64.4025162,47.3515908 64.5405162,47.1365908 C64.6015162,47.0405908 64.7035162,47.1635908 64.7135162,46.9625908 C64.7305162,46.6385908 65.0375162,46.5305908 65.2355162,46.2675908 L65.2355162,45.9195908 C65.3785162,45.8025908 65.7405162,45.7165908 65.7575162,45.3985908 L65.9315162,44.8755908 L66.2785162,44.7025908 L66.2785162,44.3545908 L66.4535162,44.3545908 L66.4535162,44.0065908 L66.6275162,44.0065908 C66.8145162,43.6845908 66.9065162,43.3385908 67.1495162,42.9635908 C67.2115162,42.8665908 67.3115162,42.9905908 67.3225162,42.7885908 L67.3225162,42.6145908 C67.4745162,42.3925908 67.7055162,42.3045908 67.8445162,42.0935908 C68.4845162,41.1125908 69.0955162,40.1585908 69.7575162,39.1365908 C69.8195162,39.0415908 69.9195162,39.1645908 69.9315162,38.9625908 L69.9315162,38.7895908 C70.0495162,38.6155908 70.3215162,38.4715908 70.4535162,38.2675908 C70.5485162,38.1205908 70.7905162,37.9355908 70.8015162,37.7455908 C70.8245162,37.2925908 71.1275162,37.4365908 71.1485162,37.0495908 L71.3235162,36.5285908 L71.6715162,36.3545908 C71.7445162,36.2215908 71.6045162,35.9705908 71.6715162,35.8325908 L72.0185162,35.6585908 C72.1675162,35.3735908 72.0605162,35.0365908 72.1925162,34.7895908 C72.2765162,34.6295908 72.6085162,34.4465908 72.7145162,34.2675908 L72.7145162,33.9195908 L72.8875162,33.9195908 L72.8875162,33.5715908 L73.0615162,33.5715908 C73.2015162,33.3335908 73.2415162,33.1165908 73.4095162,32.8765908 C73.5525162,32.6715908 73.7665162,32.5795908 73.9305162,32.3545908 C74.0275162,32.2225908 74.2695162,32.0105908 74.2795162,31.8335908 C74.2945162,31.5395908 74.7825162,31.4805908 74.8005162,31.1365908 C74.8095162,30.9755908 75.1325162,30.7255908 75.3235162,30.4405908 C75.5255162,30.1385908 75.5425162,29.7005908 75.8445162,29.3975908 L76.1915162,29.2235908 L76.1915162,28.8765908 L76.3665162,28.8765908 L76.3665162,28.5285908 L76.5395162,28.5285908 C76.6795162,28.2875908 76.7515162,28.0295908 76.8865162,27.8325908 C77.0315162,27.6255908 77.2525162,27.5095908 77.4095162,27.3105908 C77.5055162,27.1875908 77.7475162,26.9615908 77.7575162,26.7895908 C77.7685162,26.5655908 78.0105162,26.5685908 78.1045162,26.4415908 L78.1045162,26.0935908 L78.2785162,26.0935908 L78.2785162,25.7455908 C78.4485162,25.6065908 78.4985162,25.5855908 78.6265162,25.3985908 C78.7575162,25.2065908 79.0205162,25.0635908 79.1485162,24.8765908 L79.1485162,24.5285908 C79.3165162,24.3915908 79.3645162,24.3575908 79.4965162,24.1815908 C79.6375162,23.9905908 79.8825162,23.8495908 80.0185162,23.6585908 C80.1545162,23.4695908 80.2385162,23.1435908 80.3655162,22.9635908 C80.4995162,22.7735908 80.7605162,22.6415908 80.8875162,22.4415908 L80.8875162,22.0935908 C81.2805162,21.7725908 81.6655162,21.1195908 82.1055162,20.5285908 C82.6905162,19.7395908 83.2785162,19.0835908 84.0175162,18.2675908 C84.1405162,18.1315908 84.3855162,17.9295908 84.5395162,17.7465908 C84.6995162,17.5545908 84.9505162,17.3625908 85.0615162,17.2245908 L85.0615162,16.8765908 C85.2295162,16.7395908 85.2775162,16.7075908 85.4095162,16.5285908 C85.7425162,16.0755908 86.2485162,15.7215908 86.6265162,15.1375908 C86.6885162,15.0405908 86.7895162,15.1645908 86.8005162,14.9625908 C86.8135162,14.7105908 87.6115162,14.0265908 87.8445162,13.7455908 L87.8445162,13.3985908 C87.9885162,13.2795908 88.2495162,13.3625908 88.3665162,13.2245908 L88.3665162,12.8765908 C88.8425162,12.4865908 89.5275162,11.7825908 90.1045162,11.3115908 C90.6405162,10.8745908 91.4925162,10.1655908 92.1915162,9.57159076 C92.4765162,9.33059076 92.7785162,9.11559076 93.0615162,8.87659076 C93.1995162,8.75859076 93.2645162,8.45559076 93.4085162,8.35459076 C93.5765162,8.23759076 93.7805162,8.29659076 93.9315162,8.18059076 L94.1055162,7.83259076 C94.3445162,7.72459076 94.4955162,7.68059076 94.8005162,7.48459076 C94.9925162,7.36159076 95.1145162,7.24959076 95.3225162,7.13759076 C95.4585162,7.06459076 95.6805162,7.06259076 95.8435162,6.96259076 C95.9875162,6.87659076 96.0525162,6.52059076 96.1915162,6.44159076 C96.2745162,6.39459076 96.4465162,6.46559076 96.5395162,6.44159076 C96.7535162,6.38859076 96.9225162,6.22559076 97.0605162,6.09359076 C97.3725162,5.79559076 98.5885162,5.40759076 99.1475162,5.04959076 L99.3225162,4.87659076 C99.6875162,4.66059076 100.380516,4.46159076 100.887516,4.18059076 C101.089516,4.06959076 101.198516,3.94659076 101.408516,3.83259076 C101.568516,3.74659076 101.847516,3.49859076 102.104516,3.48459076 C102.303516,3.47459076 102.540516,3.15159076 102.800516,2.96259076 C103.106516,2.74059076 103.311516,2.22959076 103.843516,2.44159076 C103.954516,2.30259076 104.186516,2.13859076 104.365516,1.91959076 L104.365516,1.57159076 L104.540516,1.57159076 C104.781516,1.37959076 105.193516,0.820590758 105.409516,0.354590758 C105.451516,0.165590758 105.755516,0.236590758 105.757516,0.00759075813 C106.038516,-0.0424092419 106.056516,0.170590758 106.278516,0.180590758 Z" id="Fill-69" fill="#000000"></path>
        <path d="M21.7575162,85.2235908 C21.9975162,85.1575908 21.9505162,84.9945908 22.1055162,84.8755908 C22.2005162,84.8025908 22.5545162,84.7915908 22.6265162,84.7015908 L22.6265162,84.3545908 C22.8865162,84.1415908 22.9925162,83.9855908 22.8015162,83.8325908 C22.6845162,83.7385908 22.9805162,83.6255908 22.9745162,83.6585908 C23.1435162,82.5945908 21.7205162,81.8755908 20.8875162,81.7455908 C20.8875162,81.7455908 20.8705162,81.9505908 20.7145162,81.9195908 C20.6835162,81.9125908 20.7045162,81.6365908 20.5395162,81.7455908 C20.1355162,82.1905908 19.9785162,82.2145908 19.8445162,82.7885908 C19.6395162,83.6685908 19.7595162,84.1735908 20.1925162,84.5285908 L20.1925162,84.8755908 C20.2735162,84.9915908 20.5515162,85.0075908 20.5395162,85.2235908 C20.9915162,85.1585908 21.4255162,85.3145908 21.7575162,85.2235908 Z M23.8445162,82.6145908 C23.8775162,82.9145908 23.7345162,83.2295908 23.6705162,83.4835908 C23.5975162,83.7835908 23.5905162,84.1395908 23.4965162,84.3545908 L23.1495162,84.5285908 C23.0085162,84.8395908 23.0415162,85.1305908 22.8015162,85.3975908 L22.4525162,85.3975908 C22.3485162,85.5255908 22.2825162,85.6885908 22.2795162,85.9195908 C21.4825162,85.9905908 20.5685162,86.2775908 19.8445162,85.9195908 C19.1055162,84.9925908 18.5615162,83.5145908 18.9745162,82.4405908 C19.0665162,82.2035908 19.0855162,82.0165908 19.3225162,81.7455908 C19.4495162,81.6005908 19.7205162,81.3095908 19.8445162,81.2235908 L20.1925162,81.2235908 C20.3575162,81.0235908 20.7155162,81.2225908 20.8875162,81.0495908 C21.0045162,80.9335908 21.1375162,80.8355908 21.4085162,80.8765908 C21.3905162,81.0765908 21.6525162,80.9705908 21.7575162,81.0495908 L21.9315162,81.3975908 C22.2265162,81.5425908 22.5795162,81.4315908 22.8015162,81.5705908 C23.2655162,81.8655908 23.5215162,82.2105908 23.8445162,82.6145908 Z" id="Fill-70" fill="#000000"></path>
    </g>
</svg>