<?xml version="1.0" encoding="UTF-8"?>
<svg width="201px" height="351px" viewBox="0 0 201 351" version="1.1" xmlns="http://www.w3.org/2000/svg" xmlns:xlink="http://www.w3.org/1999/xlink">
    <!-- Generator: Sketch 51.2 (57519) - http://www.bohemiancoding.com/sketch -->
    <title>Artboard</title>
    <desc>Created with Sketch.</desc>
    <defs></defs>
    <g id="Artboard" stroke="none" stroke-width="1" fill="none" fill-rule="evenodd">
        <g id="Group-2" fill="#000000">
            <path d="M62.1638043,10.4707582 C61.5354482,11.2807839 60.8205643,12.0400562 60.2921271,12.908956 C59.7657501,13.7727805 59.921294,14.5604747 60.9998003,15 C64.8245319,9.40696494 69.774124,5.24213321 76,2.53900211 C75.8825695,2.35933474 75.7661691,2.17966737 75.6487386,2 C74.0696076,2.60498165 72.4523632,3.12774264 70.9206164,3.83220114 C67.5110118,5.39946904 64.478421,7.48340751 62.1638043,10.4707582" id="Fill-75"></path>
            <path d="M64.3262932,11.9472656 C63.9203853,12.6865234 63.7057322,13.2597656 64.8400364,14 C65.2937581,13.3847656 65.6925449,12.875 66.056743,12.34375 C68.7302421,8.44335937 72.4993875,6.09082031 77.1922533,5.01074219 C77.4943953,4.94140625 77.7324466,4.61621094 78,4.40917969 C77.9440478,4.27246094 77.8870782,4.13671875 77.831126,4 C76.2512386,4.33691406 74.6398145,4.57910156 73.095533,5.03027344 C69.1961715,6.16699219 66.2459633,8.44921875 64.3262932,11.9472656" id="Fill-76"></path>
            <path d="M78.0013969,7.47661875 C76.3001501,8.09901591 74.5460884,8.68276749 72.8417945,9.38652376 C71.7743256,9.82789691 70.7373268,10.3852068 69.7653308,11.0116719 C68.7415357,11.6706807 68.7628647,12.1527334 69.721657,13.3059987 C70.4346572,12.8076742 71.1141402,12.2259566 71.8850336,11.8140761 C74.4648348,10.4350392 77.0801845,9.12210666 79.6762364,7.77256249 C81.1773963,6.99354905 82.6511331,6.84811965 83.9562688,7.33322332 C85.3639871,7.42170135 86.5563834,8.15291631 87.2084434,9.87976334 C87.5568181,9.99570006 87.8838638,10.3048647 88.3094294,10.8530216 C89.0082102,11.7510228 89.7689469,12.7924193 89.9548144,13.8643255 C90.5276522,17.1664883 90.8374315,20.5133985 91.2690911,23.9996362 C92.7824391,24.0098061 93.0383879,23.8145442 92.9957297,22.4273714 C92.9418992,20.6415391 92.8362696,18.8567237 92.7651727,17.0708913 C92.6168849,13.368035 91.444802,10.2235056 88.5277984,7.67798253 C86.1369118,5.59112147 83.5946903,4.65244078 80.4857252,5.11618768 C78.5488429,5.40501251 78.4228999,5.49450753 78.0013969,7.47661875" id="Fill-77"></path>
            <path d="M197.230696,184.613466 C196.074989,185.148285 194.891338,185.674106 193.666768,186.000996 C189.24155,187.179596 184.801361,188.307215 180.35219,189.390847 C174.853103,190.731393 169.340043,192.015958 163.830976,193.314518 C157.146241,194.888985 150.493443,196.622398 143.758808,197.940951 C140.888504,198.502761 137.838556,198.347813 134.886415,198.205862 C133.257647,198.127888 132.345457,196.576414 131.429275,195.335834 C130.111889,193.551438 128.853387,191.723057 127.548975,189.928665 C126.625807,188.659095 126.610837,188.670092 125.209618,188.294219 C125.85334,185.665109 126.22161,183.091981 127.127811,180.726782 C128.276532,177.724799 129.586931,174.640844 132.39436,172.774476 C133.429306,172.085709 134.92933,171.997739 136.241725,171.84779 C139.933399,171.423933 143.620083,171.542893 147.316747,172.007736 C149.764889,172.314632 152.230995,171.987742 154.693109,171.791809 C158.11931,171.519901 161.563476,171.484913 164.998659,171.318969 C169.042634,171.124035 173.083615,170.883117 177.127589,170.687183 C179.216444,170.586217 181.311287,170.598213 183.39615,170.448264 C184.785393,170.348298 186.159666,170.043401 187.543919,169.849467 C188.007998,169.784489 188.480061,169.760497 188.94913,169.7525 C191.031997,169.717511 193.11686,169.735505 195.19773,169.653533 C196.183774,169.614546 196.693761,170.182354 197.101951,170.894113 C197.330498,171.293977 197.443274,171.782812 197.512137,172.245655 C197.987195,175.444572 198.471234,178.643488 198.878426,181.851401 C199.041103,183.131968 198.366442,184.087644 197.230696,184.613466 Z M126.643772,198.862639 C126.586885,197.264181 126.753554,195.732699 126.418219,194.320178 C126.075899,192.876667 125.240556,191.551116 124.620786,190.174582 C124.757515,190.103606 124.893246,190.03163 125.029974,189.960654 C126.095859,191.498134 127.227613,192.995626 128.207668,194.586088 C128.991114,195.857657 128.456175,197.216197 126.643772,198.862639 Z M124.570885,197.677041 C124.124771,199.469434 123.114775,199.62638 121.642696,198.566739 C118.445042,196.263519 117.430056,192.774701 116.285328,189.329868 C116.119656,188.831037 116.173549,188.26123 116.110674,187.726411 C116.003886,186.81572 116.546809,186.569803 117.417082,186.433849 C117.86619,187.962331 118.258412,189.297879 118.654626,190.649421 C119.681588,190.907334 120.613738,191.387171 121.495987,191.306199 C122.904193,191.177242 123.431147,192.007961 123.972074,192.962638 C124.813404,194.448134 124.977079,196.042594 124.570885,197.677041 Z M115.637613,199.087563 C113.071705,196.154556 112.088656,192.679733 112.094644,188.864026 C112.095642,188.218245 112.32319,187.656435 113.349154,187.713416 C114.989898,191.669076 115.798294,196.082581 118.921097,199.552405 C117.379157,200.196187 116.458983,200.027245 115.637613,199.087563 Z M111.29024,179.298266 C111.464893,179.263278 111.640545,179.22729 111.815198,179.192302 C111.931967,179.61016 112.008814,180.044014 112.173487,180.442878 C112.70144,181.723445 113.363126,182.823072 114.961954,183.021005 C115.621645,183.102977 116.238421,183.53683 117.14562,183.925699 C115.425035,185.248251 113.928005,185.939017 111.896038,185.466177 C111.30022,183.469853 111.224371,181.390557 111.29024,179.298266 Z M112.378081,173.938082 C115.567752,172.744486 118.813311,171.701839 122.041904,170.615207 C122.203583,170.561226 122.420153,170.670189 122.610775,170.703178 C122.651694,170.841131 122.692613,170.980084 122.733531,171.118037 C119.062816,173.218326 115.476932,175.473562 111.571681,177.205975 C110.847119,175.198655 110.955903,174.470901 112.378081,173.938082 Z M114.495879,109.066056 C113.999863,110.190675 113.371111,111.277307 113.042762,112.44891 C112.623594,113.939405 112.348141,115.487881 112.18746,117.030358 C111.754319,121.203944 111.040735,125.293559 109.855088,129.345187 C109.048688,132.101253 108.763255,135.057252 108.595587,137.944274 C108.333108,142.467742 108.306162,147.007204 108.301172,151.539669 C108.299176,153.831892 108.637504,156.123116 108.692395,158.417339 C108.781219,162.152074 108.825132,165.889808 108.819144,169.625543 C108.939904,171.34496 109.041702,173.064378 109.094597,174.783795 C109.132522,175.198655 109.139508,175.612515 109.122542,176.027374 C109.12354,176.113345 109.12354,176.200316 109.124538,176.286286 C109.255278,176.704145 109.257274,177.100011 109.131524,177.465887 C109.12853,178.378578 109.111563,179.290269 109.072641,180.20296 C109.075635,180.220954 109.080625,180.238948 109.084617,180.257941 C109.108569,180.258941 109.130526,180.26094 109.154478,180.262939 C109.25927,180.932713 109.428934,181.645471 109.474843,182.366227 C109.873052,188.643101 110.226351,194.922974 110.657496,201.196848 C110.728355,202.237496 110.299207,202.724331 109.423944,202.967249 C107.683398,203.451085 105.952832,203.9969 104.185339,204.352779 C98.0894362,205.579364 91.9146897,206.228144 85.7269689,206.762963 C84.1760466,206.896918 82.764847,206.456067 81.485386,205.687327 C79.9434459,204.760641 79.9654024,203.024229 79.8516281,201.538733 C79.5991292,198.243849 79.5502263,194.93297 79.4614025,191.62809 C79.4095055,189.685748 79.4653946,187.740407 79.4234778,185.798064 C79.3775689,183.706773 79.2568085,181.617481 79.2069076,179.526189 C79.1899412,178.859415 79.4194857,178.166649 79.2987254,177.529865 C79.2158897,177.092013 78.7917315,176.576188 78.3875336,176.399248 C78.1589871,176.300282 77.4623695,176.737134 77.3296329,177.07202 C77.0661558,177.737795 76.9503855,178.499537 76.9453954,179.223292 C76.926433,181.723445 76.9573716,184.224597 77.0142587,186.724751 C77.0970944,190.307537 77.3935062,193.896321 77.2547814,197.469111 C77.17993,199.377465 76.4603579,201.28182 75.8854987,203.142189 C75.5292058,204.294799 74.9054436,205.366436 74.3904655,206.469063 C73.6339667,208.090513 72.4024107,208.960219 70.5690489,208.92723 C67.0550223,208.862252 63.5399977,208.853255 60.0269691,208.762286 C55.001941,208.63233 50.1725247,207.295783 45.3071797,206.226145 C43.6015644,205.852271 41.9628164,205.181499 40.2831496,204.679669 C38.6094709,204.177839 36.924814,203.714995 35.2431512,203.242156 C34.9836661,203.16918 34.7062167,203.159184 34.4487277,203.08021 C31.8229384,202.28448 31.1432871,201.203846 31.6422969,198.44778 C32.6902173,192.671736 33.5315477,186.84371 34.9138047,181.14764 C36.0964578,176.27429 36.6124339,171.320968 37.4497722,166.408632 C38.2441958,161.749211 38.8260411,157.053801 39.5845359,152.388381 C40.1903338,148.661644 39.2212568,145.27779 37.5685366,142.018894 C36.4996577,139.912607 35.4227947,137.80832 34.2551119,135.756015 C33.6952229,134.771349 33.7531081,134.11857 34.569488,133.277855 C37.0126397,130.764706 38.5775343,127.843695 39.1523935,124.269906 C40.1583971,118.010026 41.583569,111.819123 42.6434657,105.567241 C43.3201229,101.579592 43.6474733,97.5319629 44.1504751,93.5143238 C44.3091602,92.2467532 44.196384,90.7882472 44.8051759,89.7775896 C45.4868232,88.6479722 47.0686841,89.4996837 48.2243906,89.2317744 C48.5397648,89.1587992 48.8770954,89.1797921 49.4150279,89.1438042 C49.3491586,89.758596 49.3641289,90.2744213 49.2293962,90.7472611 C48.5816816,93.0204911 47.8940462,95.2807255 47.220383,97.5459582 C46.9758682,98.3696792 46.9928346,99.0524479 47.7154007,99.7412146 C52.6885318,104.47761 57.5528788,109.329967 62.582897,114.004383 C66.0849474,117.258281 69.8444868,120.233273 73.392446,123.440187 C74.7317882,124.651777 75.9942828,125.948337 77.230829,127.230903 C78.8086978,128.03663 80.4464478,128.815366 81.7608394,129.974973 C81.9883879,129.733055 82.2179324,129.496136 82.4454808,129.266214 C83.9145655,127.779717 85.5064066,126.29522 87.3168139,125.226582 C88.1242117,124.284901 88.9226273,123.336222 89.7020805,122.372549 C91.676163,119.932375 93.3708001,117.266278 95.1193303,114.799114 C99.5465447,115.587847 103.703296,115.127003 107.797172,115.084017 C107.866035,113.628511 107.91893,112.509889 107.984799,111.112363 C107.745275,111.020394 107.285188,110.784474 106.796158,110.668513 C105.87798,110.451587 104.95082,110.239658 104.014678,110.144691 C103.227241,110.065717 102.421839,110.130695 101.626417,110.17568 C100.570513,110.236659 99.5186001,110.340624 98.1443273,110.451587 C98.3539114,109.715836 98.3529134,109.210007 98.6024183,108.928103 C100.016612,107.332643 100.888881,105.472273 101.664342,103.501941 C102.27513,101.949467 103.186322,100.498958 104.083541,99.0794387 C105.309109,97.1410953 105.02168,95.4576655 103.555589,93.8062249 C102.664358,92.8035646 101.86694,91.7169326 100.957744,90.5803177 C101.602465,88.9198801 103.171351,88.0141869 104.34602,86.7756064 C104.576563,86.5326887 104.866987,86.348751 105.126472,86.1338238 C107.037679,84.5563582 107.142471,83.5716917 105.857022,81.501393 C104.399913,79.1561874 102.858971,76.833974 101.698275,74.3408185 C99.9657129,70.6210785 98.5345529,66.7613859 96.9097772,62.8017271 C98.1822521,62.6027945 99.0734835,63.0896296 99.9357723,63.5034894 C103.092508,65.0169767 106.274194,66.4904776 109.35009,68.1579128 C113.247356,70.2701973 117.020868,72.5874124 120.550863,75.3034924 C122.689619,76.948935 123.69163,79.0972073 124.192636,81.6323486 C124.789452,84.6463277 124.856319,87.6793003 124.69464,90.7312665 C124.430165,95.7325724 124.233555,100.738877 123.9082,105.736184 C123.338331,114.512211 122.665666,123.282241 122.102783,132.059267 C121.994997,133.738699 122.193603,135.439123 122.248494,137.13055 C122.357278,140.513404 122.332328,143.908254 122.600795,147.279112 C123.105793,153.612967 123.768478,159.933825 124.391242,166.258683 C124.548929,167.858141 124.539947,167.827152 123.000003,168.295993 C119.976004,169.214682 116.984939,170.238335 113.969922,171.185014 C113.145558,171.443927 112.283269,171.58088 111.440941,171.773815 C110.567674,170.691182 110.752307,169.48559 110.714383,168.385962 C110.544719,163.527608 110.392022,158.666255 110.367072,153.805901 C110.346114,149.688296 110.47885,145.568691 110.603603,141.452086 C110.673464,139.157863 110.741329,136.851644 111.037741,134.581413 C111.39603,131.84534 112.032766,129.148254 112.479879,126.422177 C112.862121,124.088967 113.292267,121.74876 113.435982,119.395557 C113.634588,116.141659 113.999863,112.932746 114.819237,109.776815 C114.867142,109.595876 114.804267,109.386947 114.495879,109.066056 Z M109.409971,208.470385 C108.611556,213.686618 107.7832,218.897853 107.008736,224.117085 C106.821109,225.385655 106.7752,226.677217 106.705338,227.959783 C106.427889,233.089046 106.034669,238.217308 105.935865,243.35057 C105.844048,248.16094 105.713307,252.956316 105.075573,257.730699 C104.572571,261.486426 104.654408,265.261148 104.65341,269.046866 C104.701315,269.043867 104.743232,269.040868 104.788143,269.037869 C104.480753,270.937225 104.296119,272.848578 104.597521,274.800916 C104.700317,275.463692 104.661395,276.153458 104.641434,276.830229 C104.397917,285.142413 103.809086,293.434605 103.210274,301.726796 C102.888912,306.181287 102.687312,310.644775 102.418845,315.102265 C102.325031,316.656739 102.228223,318.212212 102.067542,319.760687 C101.821031,322.134883 100.65734,323.745337 98.2381411,324.367127 C96.3538804,324.851963 94.438681,325.310807 92.6532241,326.059554 C89.0024688,327.588036 85.1471195,327.650015 81.3187168,327.882936 C79.9224875,327.967907 78.4913276,327.687002 77.0970944,327.446084 C76.6489836,327.36911 76.001269,326.950252 75.9124452,326.576379 C75.6829008,325.607707 75.5970711,324.570058 75.6609443,323.573396 C75.8854987,320.068583 76.1789164,316.567769 76.4793203,313.067954 C77.0382112,306.532168 77.5961041,299.996382 78.1999059,293.465594 C78.6420285,288.685213 79.2627967,283.768879 79.692943,278.129789 C79.9504321,274.762929 79.9155014,271.374077 79.9843647,267.994222 C79.9903529,267.702321 79.9574182,267.400423 79.893545,267.107522 C79.8875568,265.748983 79.8825668,264.390443 79.9164994,263.032903 C79.9554222,261.487426 80.2678023,259.93995 80.200935,258.40447 C80.0402538,254.696726 79.7697906,250.991981 79.4673906,247.293234 C78.921474,240.628492 78.4164761,233.958751 77.6849278,227.314002 C77.4533873,225.204716 76.7068687,223.109426 75.9244215,221.114102 C75.0930712,218.99482 73.1828619,218.898852 71.9473138,220.839195 C71.3015952,221.854851 70.7337221,222.97847 70.4123598,224.13108 C69.1239167,228.745517 67.9143171,233.381946 66.7406462,238.026373 C66.0949275,240.579508 65.3733595,243.140641 65.0480051,245.743759 C64.428235,250.703079 64.0739381,255.695388 63.5988808,260.672702 C63.5190393,261.509419 63.4411937,262.347135 63.3613522,263.184851 C62.9641404,265.623025 62.6078475,268.062199 62.2974634,270.50837 C62.225606,270.83526 62.1597367,271.163149 62.1078397,271.493037 C62.0968615,271.561014 62.1138278,271.63299 62.1487585,271.713962 C61.8204101,274.432041 61.5449567,277.157118 61.3373687,279.89719 C61.0868658,283.208069 61.096846,286.505952 61.096846,289.822828 C61.096846,291.485265 60.9371628,293.138705 60.9361648,294.799142 C60.9351668,295.273982 60.9371628,295.745822 60.9291787,296.213663 C60.8114124,297.231319 60.6926481,298.249974 60.5748818,299.267629 C60.5409491,299.394586 60.5100105,299.521543 60.4700897,299.6485 C60.4032224,299.858429 60.4112066,300.042366 60.4660976,300.199313 C60.2076106,302.428558 59.9541136,304.658803 59.7305573,306.891047 C59.4401336,309.782067 59.1057971,312.684084 59.0788506,315.583102 C59.0389298,319.807671 58.5169656,323.949268 57.5708431,328.04888 C57.0748274,330.197152 56.5089504,330.58602 54.3222897,330.463062 C54.0528244,330.448067 53.7793671,330.432072 53.516888,330.375092 C50.6435899,329.744305 47.7403512,329.924244 44.8371125,330.011215 C40.9468325,330.128175 37.183301,329.350439 33.4976151,328.210825 C32.1792313,327.803963 30.9526654,327.1022 29.7370777,326.558385 C30.0205152,324.319143 30.2620359,322.318821 30.5275091,320.322497 C30.9536634,317.107586 31.3488791,313.887677 31.8458928,310.684761 C32.2590729,308.018665 32.8159678,305.37556 33.2800468,302.716461 C34.0325535,298.403921 34.7900503,294.092382 35.488664,289.770846 C35.9188104,287.109747 36.260133,284.434653 36.6134319,281.761559 C37.0375902,278.549647 37.489693,275.338734 37.8170434,272.116826 C37.9208374,271.098171 37.9777246,270.075517 38.0126552,269.050864 C38.1334156,268.907913 38.1513799,268.760962 38.1653522,268.496052 C38.2352136,267.152507 38.2821205,265.804964 38.2771304,264.45842 C38.2691462,262.310147 38.1982869,260.162875 38.1753324,258.014602 C38.1433958,255.116584 38.152378,252.218566 38.1054711,249.320547 C38.053574,246.084644 37.896885,242.84874 37.897883,239.612836 C37.899879,235.2913 38.153376,230.964765 38.0336136,226.647228 C37.9168454,222.466644 37.4697326,218.295057 37.1553565,214.120471 C37.0994674,213.378722 37.0864932,212.608983 36.8709209,211.90922 C36.3279983,210.152815 36.616426,208.461388 37.0246159,206.696985 C37.332006,206.696985 37.6054633,206.637006 37.8399979,206.705982 C40.8769712,207.603678 43.8790138,208.633329 46.9489217,209.396071 C49.881103,210.124824 52.8601911,210.892564 55.8542496,211.086498 C61.097844,211.427383 66.3693829,211.305424 71.6269496,211.450375 C73.9134122,211.513354 75.3006593,210.485702 76.0861006,208.397409 C76.4533718,207.419741 76.9923023,206.50705 77.5262427,205.416419 C78.2807455,206.385091 78.7009117,207.430737 79.4494263,207.787616 C81.5033504,208.766284 83.634122,209.78294 86.0134005,209.537023 C89.2280212,209.203136 92.4386499,208.807271 95.6373024,208.344427 C97.6353374,208.056525 99.6014358,207.555694 101.593483,207.225806 C103.843019,206.851933 106.162416,206.834939 108.259255,205.73731 C108.576625,205.571367 109.053678,205.714318 109.747302,205.714318 C109.621551,206.748968 109.54171,207.613675 109.409971,208.470385 Z M106.351042,341.33438 C109.507777,341.955169 112.631578,342.743902 115.778334,343.414675 C116.762381,343.624604 117.778365,343.741564 118.784368,343.778552 C121.885215,343.893513 124.986061,343.970487 128.087906,344.011473 C128.823446,344.021469 129.567969,343.867521 130.297521,343.733567 C132.325497,343.360693 132.618914,342.596952 131.313505,340.805559 C132.434281,340.313725 133.446273,340.821553 133.683801,341.942174 C134.023128,343.542632 133.310542,345.692903 131.136855,345.764879 C128.657775,345.845851 126.215621,346.229721 123.69163,345.835855 C119.963029,345.255051 116.185526,344.939158 112.417004,344.679247 C108.127516,344.383347 104.077553,343.144766 100.023598,341.870198 C98.8020222,341.486328 97.5944186,341.057473 96.387813,340.628619 C94.0185148,339.784904 92.4865548,340.192766 90.9166702,342.271062 C90.1531853,343.28272 89.2799182,343.84253 88.0014553,343.690581 C85.5932343,343.404678 83.1331162,343.336701 80.7937585,342.769893 C79.0202779,342.341039 77.3206507,341.36137 76.8086667,338.894206 C77.69391,338.995172 78.3526029,338.988174 78.9653868,339.153118 C82.2927838,340.049815 85.6780659,340.030821 89.0154431,339.498002 C91.9526144,339.028161 94.8029581,339.511997 97.6892304,339.686938 C99.1483349,340.983498 101.183297,340.055813 102.824041,341.089462 C103.700302,341.641276 105.191343,341.106457 106.351042,341.33438 Z M112.067697,331.001879 C111.048719,331.240799 110.165472,331.651659 109.938922,329.837274 C110.798216,330.307115 111.352117,330.611012 112.067697,331.001879 Z M122.569856,335.466367 C123.033935,335.601321 123.466078,335.726279 124.275472,335.9612 C123.538933,336.391054 123.134735,336.626974 122.569856,336.955863 C122.569856,336.37306 122.569856,336.004185 122.569856,335.466367 Z M54.7753905,334.598661 C54.6326737,334.524686 54.4789787,334.338749 54.4640085,334.184801 C54.4500362,334.04185 54.6107173,333.882904 54.6935529,333.730955 C54.8612202,333.877905 55.0288875,334.025855 55.2793904,334.245781 C55.0278895,334.428719 54.8412598,334.63265 54.7753905,334.598661 Z M54.9899647,340.456677 C54.8951529,340.9785 54.6017351,341.461337 54.4490382,341.977162 C53.8821631,343.889514 53.3492207,344.338362 51.3621639,344.549291 C49.2204141,344.777213 47.0816583,345.02313 44.9399085,345.248054 C43.2792041,345.422995 41.7113155,345.099104 40.3180803,344.177416 C37.8599583,342.550967 35.3199987,342.385024 32.6473025,343.571622 C29.7310895,344.867183 26.6022985,345.424994 23.5004539,345.985804 C19.4005898,346.726553 15.2677911,347.29736 11.1339944,347.82918 C9.60403056,348.026113 8.02915581,347.989125 6.48322363,347.906153 C4.44925991,347.795191 3.40732757,346.773537 3.13486825,344.616268 C3.83447991,344.759219 4.47820248,344.808203 5.06004784,345.02313 C6.91037597,345.706898 8.77966646,346.180738 10.7777015,346.157746 C12.6599662,346.136753 14.5542072,346.398664 16.4244957,346.266709 C18.3606535,346.130755 20.2978094,345.776875 22.1910523,345.332025 C26.6362311,344.289379 31.0295129,343.005813 35.4966481,342.078128 C37.844988,341.590293 40.30311,341.603288 42.7163211,341.470333 C44.1295167,341.39136 45.5506964,341.464335 46.9688821,341.482329 C48.4808816,341.502323 49.8022594,341.277399 51.0537759,340.15278 C52.0917161,339.220096 53.5787652,338.789242 55.211525,337.961522 C55.1296875,338.963183 55.1227013,339.720926 54.9899647,340.456677 Z M29.5773945,133.94163 C27.9426386,134.689377 26.1452055,135.12123 24.3797091,135.516097 C23.7449687,135.658048 22.9475511,135.400136 22.3048265,135.132227 C19.0552751,133.776686 17.6780082,130.979633 16.8915688,127.795712 C15.2647971,121.203944 14.6779616,114.463228 14.1659776,107.720512 C13.9244569,104.555584 13.7677679,101.368663 13.8446154,98.1987371 C13.9044965,95.7145785 14.1589915,93.1854352 14.7418349,90.7772509 C15.2887496,88.5140176 16.9354817,86.7776057 18.7009782,85.2731154 C19.4854215,84.6043419 20.3936192,84.0825187 21.3577061,83.4167442 C21.3577061,85.2361279 21.404613,86.7616112 21.3447318,88.2820961 C21.2838526,89.8345703 21.1411358,91.3850451 20.9924309,92.9325209 C20.7479161,95.4786584 20.4085895,98.015799 20.228946,100.565935 C20.1291441,101.981456 20.4175717,102.135404 22.0633058,102.067427 C22.1780781,100.794858 22.1920503,99.6532444 22.3956463,98.5466192 C23.2409688,93.9531752 23.5902756,89.312747 23.7958677,84.6583236 C23.9715191,80.6766723 24.0922794,76.692022 24.2140378,72.7083714 C24.2549566,71.3698248 24.1791071,70.0262799 24.2539586,68.6907323 C24.2858952,68.118926 24.5683347,67.561115 24.7399941,66.9873093 C26.6202628,67.8110303 28.2809672,68.7437144 30.060436,69.2735349 C33.492625,70.2931895 37.0216219,70.8200111 40.6234742,70.3961546 C42.7712122,70.14424 43.0995606,70.2951888 43.0237111,72.4314652 C42.7861824,79.1201995 42.5456597,85.8129325 42.1015411,92.4906706 C41.6763848,98.8975004 40.3530109,105.184371 39.1224529,111.47624 C38.2302235,116.041693 37.4208297,120.625141 36.4228102,125.166602 C36.0505489,126.858029 35.3828739,128.521466 34.6054167,130.07494 C33.5824467,132.118247 31.5135523,133.05593 29.5773945,133.94163 Z M27.7310585,62.4528453 C32.6023916,65.8976784 37.9138513,66.6604201 43.533699,64.7530661 C44.0017702,67.437157 43.6714257,67.8870046 41.3630067,68.2088955 C38.3300254,68.6317523 35.338961,68.7437144 32.4057818,67.5851068 C31.4207365,67.1972382 30.3259092,67.0982717 29.3219016,66.7493899 C26.9426231,65.9236696 26.7100846,65.2968819 27.7310585,62.4528453 Z M29.0015373,49.9250888 C29.3757946,45.5085848 31.5434929,42.2956732 35.7361728,40.6662251 C38.9677599,39.4096507 42.3201073,38.6549064 45.8201617,38.8318465 C46.4279555,38.8618363 47.0267672,39.0437747 47.5706879,39.4506369 C45.9588864,39.7975194 44.3161463,40.0424364 42.7412716,40.5142766 C40.2312526,41.2660219 37.8689404,42.378645 35.7132183,43.8981303 C34.9457414,44.4389472 34.6862563,45.1097199 35.1473413,46.1353725 C38.7242431,44.586897 42.0216995,42.2107019 46.1115834,42.1297294 C44.3650493,43.9311192 41.6404561,44.3699705 40.1653833,46.683187 C41.2332641,47.299978 41.9468481,47.2359997 42.8051448,46.6911843 C44.3810176,45.6915229 46.0546963,44.846809 47.6954403,43.9501127 C47.9279788,43.8221561 48.2064263,43.6762055 48.450941,43.6961987 C48.9319864,43.7341859 49.624612,43.7271883 49.831202,44.020089 C50.2214276,44.5749011 49.9140376,45.1866939 49.3102358,45.5455723 C48.2732936,46.1603641 47.1804622,46.6931836 46.193421,47.3799509 C43.8790138,48.9924048 41.8021352,50.9557397 41.2033235,53.7757845 C40.5516168,56.8417459 39.7591893,59.9376973 40.0605912,63.2245839 C38.2212413,64.2232456 36.41283,63.7504058 34.7880543,63.3185521 C32.8708588,62.8097244 31.0724277,61.7950681 29.2899649,60.8693817 C28.8678027,60.6504558 28.4616088,59.9037088 28.4775771,59.4148743 C28.5803731,56.2489467 28.7350661,53.0810198 29.0015373,49.9250888 Z M42.8730101,63.0646381 C42.6883765,63.0876303 42.5027449,63.1106225 42.3181113,63.1336147 C42.2931608,62.7877319 42.2682103,62.4428487 42.2442579,62.0969658 L42.5726063,62.0519811 C42.6734062,62.3898666 42.7732082,62.7267525 42.8730101,63.0646381 Z M50.0018633,56.9197195 C48.5138163,59.9726854 48.9429647,60.0166705 50.0557564,61.7720759 C49.8900851,63.1366137 49.7573486,64.2472375 49.6176258,65.3568616 C49.575709,65.6877495 49.62561,66.108607 49.4429724,66.3285325 C48.2982441,67.7080652 47.1006207,69.0426131 45.9209617,70.392156 C45.7153696,70.2981878 45.5107756,70.2042197 45.3051836,70.1102515 C45.4658648,68.8546768 45.4439083,67.5411217 45.8251518,66.3575227 C46.4888347,64.2962209 45.7822369,62.8187214 44.2842097,61.5241599 C43.9269187,61.2152645 43.5017624,60.9603508 43.224313,60.5914758 C42.9199171,60.1886123 42.5456597,59.6777853 42.557636,59.2229394 C42.6264993,56.4978624 43.0496596,53.8557574 44.7542769,51.5835271 C45.6415162,50.399928 46.4758605,49.1813408 48.0178006,48.8014694 C48.6904657,49.632188 49.3601368,50.4579083 50.0288099,51.2836287 C48.4699034,54.2986074 48.4699034,54.2986074 50.0018633,56.9197195 Z M51.8032885,46.4282733 C52.6655773,45.7405063 53.4739731,46.2893204 54.237458,46.6971822 C55.4330854,47.3359658 56.2364911,48.3176333 56.4011643,49.6871694 C56.5528632,50.9587387 56.5628434,52.2463026 56.6836038,53.5228702 C56.8552631,55.3362559 56.9919918,57.1596383 57.2973858,58.9520311 C57.465053,59.9396966 57.3662491,60.7724145 56.5289108,61.2652476 C55.108729,62.0999648 53.6077077,62.7977285 51.7813321,63.7384098 C52.1775458,62.7197549 52.4360329,62.057979 52.7464169,61.2622486 C52.3601834,60.936359 51.8951063,60.5794799 51.471946,60.1786156 C50.8591621,59.598812 50.9350115,59.0250064 51.5108688,58.4352062 C52.1416171,57.7884253 52.7314466,57.1006582 53.465989,56.2909325 C52.9769594,56.0190246 52.59871,55.7970998 52.2104805,55.5941685 C50.8761284,54.8964049 50.6795186,54.1616538 51.4949005,52.8450997 C51.8462033,52.2782917 52.2424171,51.7374749 52.5647774,51.1546723 C52.7174744,50.8777661 52.7444209,50.5308836 52.8831456,50.0120594 C51.9889201,49.7521474 51.1835184,49.517227 50.3920889,49.2863052 C49.8970713,47.8158033 50.9180452,47.1340342 51.8032885,46.4282733 Z M51.9030905,32.7379107 C52.0168647,32.3690356 52.2563893,32.0771345 52.5577912,31.8832002 C52.6017041,31.9001944 52.6436209,31.9181883 52.6935219,31.9301843 C53.6246741,32.1521091 54.6636124,32.2130884 55.1726023,33.1307776 C55.7674219,34.2014149 57.3782254,33.2027532 56.7854018,32.1361145 C56.7035642,31.9881646 56.6127444,31.85421 56.5169345,31.7292523 C56.5458771,31.7042608 56.5748197,31.6812686 56.6037622,31.6542777 C56.850273,31.4273546 57.3732353,31.4513465 57.770447,31.4473478 C59.7894404,31.4283542 61.8094319,31.4383509 64.1248371,31.4383509 C64.1248371,32.6649354 64.0439975,33.6565995 64.1467935,34.62927 C64.2585717,35.6859121 64.4442033,36.7555498 64.7705557,37.7632084 C65.3114823,39.4336426 66.2855493,40.1553981 67.9392676,39.9144797 C70.8025855,39.4966213 73.6599153,38.986794 76.4813163,38.3440117 C78.3695692,37.9141573 78.5731652,37.4893012 78.6569988,35.4969761 C78.6999137,34.4833194 78.7747651,33.4606658 78.6949236,32.4530072 C78.5302503,30.3847078 79.6709866,29.9328608 81.2498534,29.9198652 C81.6440711,29.9168662 82.0382888,29.9908412 82.559255,30.0418239 C82.6470807,31.0174934 82.7279203,31.9471785 82.816744,32.8758639 C83.0911994,35.7678843 84.1041892,36.8115308 86.9994437,37.0244587 C88.2599423,37.1164275 89.5324172,37.0394536 91.0334385,37.0394536 C91.1362345,37.8241878 91.3557988,38.667902 91.3388324,39.5076176 C91.2440206,44.4399468 91.1023018,49.3712764 90.957589,54.3016064 C90.905692,56.0700074 90.1182546,57.4155516 88.8956807,58.7471005 C86.2289727,61.6551155 82.9295202,63.525482 79.4653946,65.1979155 C77.0601676,66.3585223 74.6968575,66.2095728 72.3125889,65.0189761 C69.8504749,63.7893926 67.2875608,62.7617407 64.8454072,61.4961693 C63.2385958,60.6634514 61.6906676,59.6647897 60.2744779,58.5401706 C59.6676821,58.0593335 59.2325456,57.1016579 59.1197694,56.3039281 C58.8193655,54.1666521 58.742518,51.9983865 58.5598804,49.8441163 C58.5029933,49.1703445 58.3522924,48.5035703 58.3163637,47.8287989 C58.2195558,45.9694287 56.5758177,45.3936238 55.463026,44.3989607 C55.2644201,44.221021 54.698543,44.5149214 54.3163016,44.4709363 C53.9081116,44.4229526 53.517886,44.2320173 53.1196762,44.1030609 C55.9191209,43.6902008 56.7055602,43.2163613 57.2634531,41.2940124 C57.7474926,39.6255776 57.306368,38.0761024 56.130701,37.3173595 C54.185561,36.0617848 53.4051098,36.146756 51.2703461,37.9501451 C51.0817204,36.0837773 51.3931025,34.3833533 51.9030905,32.7379107 Z M90.7140722,71.4398011 C90.1831259,72.8633189 87.8287979,75.1125571 85.7189847,76.3671321 C82.6889975,74.4727738 80.9594298,71.4058126 78.6699731,68.443816 C83.0991836,65.5827851 87.8407741,63.4385114 91.470571,59.5558266 C91.92966,63.64944 92.1442342,67.611098 90.7140722,71.4398011 Z M77.9084842,117.086339 C76.1230273,113.551537 74.3265923,110.018733 72.6788621,106.419952 C72.2986167,105.590233 72.3036068,104.458617 72.46828,103.524933 C73.5910519,97.1560902 74.3216022,90.7392638 74.9623307,84.3084421 C75.1539504,82.3890923 75.3964692,80.4747407 75.6599463,78.1755195 C77.2867181,79.8059673 77.3186547,81.6763337 77.8226545,83.2917865 C79.8675965,89.8465662 81.7169266,96.4633249 83.6670566,103.047095 C83.9325298,103.944791 84.2499,104.866478 84.7479117,105.644215 C85.4465254,106.734846 85.3786601,107.797486 85.0782562,108.945097 C84.1570842,112.463905 83.2498845,115.985712 82.3396907,119.507519 C82.0432789,120.65613 81.7548513,121.80774 81.0662179,123.014331 C80.0113113,121.039 78.9174819,119.083663 77.9084842,117.086339 Z M66.3604007,78.7473259 C63.661756,77.772656 60.4670957,74.0059319 60.1467314,71.4747893 C58.7774487,69.2335485 58.5459082,66.54246 59.0389298,63.9663326 C59.0578921,63.8673662 59.0988109,63.7893926 59.151706,63.7274136 C59.1986129,62.7107579 59.306399,61.6161287 59.3393336,60.3865452 C63.5250274,63.9793282 68.3634258,65.3878511 72.7597017,68.1849037 C70.5321222,71.8616582 68.4432674,75.3094904 66.3604007,78.7473259 Z M73.0750758,79.1641846 C72.7666878,81.0905321 72.6878443,83.0538671 72.4952265,85.0002078 C72.1558999,88.4280467 71.8235594,91.8578849 71.4522962,95.2837245 C71.2566843,97.077117 70.984225,98.8625122 70.7197498,100.854837 C68.9243128,99.1534137 62.3663267,81.3114573 62.4581445,78.7033407 C63.65976,79.606035 64.7805359,80.5147272 65.9691771,81.3224536 C67.1707926,82.1391769 67.6618181,81.9552392 68.2127249,80.5937004 C68.5171208,79.8419551 68.6827921,79.0242321 69.0550533,78.3124731 C69.5810096,77.3078135 70.2397025,76.3741297 70.9912111,75.1715371 C72.2716701,76.3661324 73.3714876,77.3168104 73.0750758,79.1641846 Z M79.9813707,74.4657761 C81.2967604,75.7833298 82.6680391,77.0608971 83.9255437,78.4444285 C85.0034047,79.6300269 85.888648,80.1168619 87.4335822,78.5174037 C88.3617403,77.5557295 89.4056687,76.7050176 90.3977001,75.8043227 C90.550397,75.8583045 90.703094,75.9122862 90.855791,75.9662679 C89.9056765,85.0371953 88.0044493,93.9641714 86.6471428,103.398976 C86.1990321,102.802178 85.9076104,102.556261 85.8008223,102.246366 C85.0313493,100.024119 83.9624704,97.8378593 83.63512,95.5466354 C83.1430964,92.1097996 81.8556513,88.9268777 81.0442614,85.6010043 C80.4863685,83.3177777 79.6550183,81.0955304 78.8526106,78.8792812 C77.9663693,76.4281114 77.9194624,76.4451057 79.9813707,74.4657761 Z M76.1170392,75.5843972 C75.4962711,76.2851599 74.8166198,76.1592025 74.1868695,75.5364135 C74.1389646,75.4894294 74.0661092,75.4604392 74.0331745,75.4064575 C73.5132064,74.5587447 72.4463236,73.5860741 72.6010166,72.8853115 C72.8904422,71.5727561 73.7816736,70.3341756 74.6349803,69.2285502 C75.1210158,68.5977638 76.0102511,68.6907323 76.5451896,69.4344804 C77.2438032,70.4061513 77.8805397,71.4228069 78.6290543,72.5474259 C77.7358268,73.6340579 76.9573716,74.6367182 76.1170392,75.5843972 Z M51.6406113,86.7985986 C49.1505527,86.5526819 47.2333573,88.1001578 45.0067758,87.2684395 C45.0836233,84.6163378 45.1574767,81.997225 45.2353223,79.3791118 C45.2552827,78.7033407 45.3680589,78.0185727 45.2981975,77.3527982 C45.1095718,75.5384128 45.8471082,74.0969011 46.9199792,72.7283647 C49.5397803,69.385497 52.1625755,66.0516263 55.7464635,63.652439 C56.0199208,63.4695009 56.3033584,63.2935605 56.6007682,63.1526083 C56.7025662,63.1046245 56.8592552,63.1736012 57.0089581,63.1905954 C57.3971877,63.7654007 57.512958,64.408183 56.7873978,64.7100807 C55.9161268,65.0719581 55.9291011,65.6237712 56.1336951,66.3375294 C57.1726333,69.9613019 58.2045855,73.5870738 59.2495119,77.2098466 C61.9242041,86.4867043 65.0559893,95.5916202 69.3035602,104.284676 C71.6419199,109.068055 73.8754875,113.901418 76.205863,118.688796 C77.4414111,121.228936 78.7837473,123.715094 80.0662023,126.232241 C80.1470419,126.391187 80.1240875,126.604115 80.1789785,127.013976 C78.9424324,126.595118 78.1949158,125.728412 77.5821318,124.894694 C76.4513758,123.356215 75.1679227,122.030664 73.6379588,120.89305 C72.8914403,120.339237 72.3704741,119.489525 71.6688664,118.861738 C69.7197343,117.115329 67.6797825,115.466888 65.7645831,113.684492 C61.970113,110.153688 58.228538,106.564903 54.4769827,102.986115 C53.1675811,101.736539 51.9430112,100.392994 50.5877008,99.1953995 C49.6036536,98.3246944 49.2852853,97.4249991 49.6924773,96.1554292 C50.394085,93.9711691 51.0637561,91.771914 51.6066787,89.5446685 C51.8152647,88.6889583 51.6406113,87.7402797 51.6406113,86.7985986 Z M97.4836384,112.130018 C100.087471,112.017056 102.696294,111.975071 105.304119,111.97807 C105.593545,111.97807 106.15543,112.472902 106.118503,112.613854 C106.017703,112.998724 105.667398,113.319615 105.404919,113.657501 C105.375977,113.695488 105.276175,113.685491 105.209307,113.686491 C102.336009,113.726477 99.459717,113.815447 96.6033852,113.475562 C96.5165575,113.267633 96.4287318,113.060703 96.3419041,112.852773 C96.7221495,112.600859 97.0934128,112.147012 97.4836384,112.130018 Z M93.5224991,69.5054564 C93.7151168,67.5621146 93.726095,65.600779 93.8418653,63.64944 C93.8728039,63.1346144 93.9875762,62.6247871 94.4586414,62.0159933 C94.901762,63.0166543 95.3848034,64.0013208 95.7790211,65.0199757 C96.6792347,67.3471874 97.4277493,69.7373778 98.4327549,72.0156061 C99.9816812,75.5294159 101.492683,79.0772141 103.859985,82.1591702 C104.100508,82.4730638 104.246218,82.8599328 104.548618,83.4227421 C103.307082,84.5443622 102.07852,85.654986 100.847962,86.7636105 C100.045554,87.485366 99.2072181,88.1701341 98.4437332,88.9298767 C97.566474,89.8025811 97.6263552,90.1684572 98.5106005,91.1131372 C99.7491426,92.4356892 100.977705,93.7692375 102.166346,95.1367742 C102.791106,95.8545311 102.817055,96.5872829 102.378924,97.5409599 C100.378893,101.899483 97.8129848,105.935117 95.5125499,110.120699 C93.4486456,113.874427 90.648203,117.039355 88.3028572,120.553165 C87.2279902,122.163619 85.8626995,123.585138 84.5782484,125.047643 C84.1730525,125.509486 83.6021854,125.826379 82.7349064,126.498151 C83.2548746,124.497829 83.6570764,123.020329 84.0233496,121.532833 C84.9704701,117.676139 85.888648,113.813448 86.8497408,109.959753 C87.1261922,108.851129 87.4844812,107.761498 87.8487583,106.677865 C89.0813124,103.007108 89.6232369,99.214393 90.086318,95.3816913 C90.6042901,91.0981422 91.4895334,86.859578 92.0663886,82.5820269 C92.6512281,78.2364989 93.0893586,73.869978 93.5224991,69.5054564 Z M125.520002,171.827797 C125.985079,173.38227 127.159748,174.669834 126.395265,176.449231 C126.353348,176.458228 126.313427,176.461227 126.27151,176.467225 C127.57692,179.81809 125.331376,184.817397 123.658695,187.49449 C123.410189,187.893355 123.044913,188.0553 122.680636,188.053301 C122.441112,188.575124 122.044898,188.942999 121.327322,188.843033 C120.525912,188.732071 120.176605,188.199251 120.073809,187.470498 C119.942071,186.534815 119.856241,185.593134 119.732487,184.656451 C119.531885,183.135966 118.126673,181.608484 116.668567,181.307586 C114.324219,180.823749 114.321225,180.82075 113.818223,178.057686 C117.637644,176.023375 121.502973,173.966072 125.520002,171.827797 Z M200.986243,180.3799 C200.911392,179.219293 200.825562,178.057686 200.71578,176.898079 C200.596018,176.320275 200.474259,175.741471 200.349507,175.164666 C200.070061,173.868106 199.726743,172.564547 199.542109,171.250992 C199.513167,171.04906 199.48123,170.851127 199.442307,170.657193 C199.291606,170.348298 199.129927,170.0464 198.955274,169.759497 C198.646886,169.252669 198.277618,168.804821 197.86344,168.409954 C196.787575,167.882133 195.497136,167.943112 194.321469,167.899127 C193.142808,167.856142 191.930214,167.785166 190.752551,167.882133 C189.321392,167.999094 187.801408,168.447941 186.411167,167.996095 C186.133717,168.081066 185.851278,168.138046 185.575824,168.151042 C177.553744,168.522916 169.527671,168.833811 161.504592,169.194689 C158.476601,169.330642 155.4536,169.665529 152.425609,169.700517 C150.00641,169.728508 147.570244,169.540571 145.163021,169.265664 C141.360567,168.830812 137.618992,169.4546 133.852467,169.678525 C132.574004,169.754499 131.499137,170.166359 130.559002,171.000077 C129.781545,171.688844 129.007082,172.380609 128.08591,173.199332 C127.842393,172.541555 127.536001,172.064716 127.510053,171.571883 C127.477118,170.946095 127.473126,170.319308 127.474124,169.69152 C127.457158,169.664529 127.440191,169.636539 127.425221,169.606549 C125.695653,166.257683 125.581879,162.589926 125.710624,158.905174 C125.454133,155.800226 125.412216,152.669286 124.972089,149.593328 C124.251519,144.557034 124.406212,139.504745 124.303416,134.453456 C124.274474,133.047933 124.216588,131.63841 124.285452,130.236885 C124.454117,126.806047 124.695638,123.380207 124.895242,119.951369 C125.110814,116.248623 125.268501,112.540879 125.539962,108.842132 C125.652738,107.305652 126.095859,105.793165 126.209633,104.256685 C126.55395,99.6172566 126.732596,94.9648325 127.124817,90.3304023 C127.455162,86.4317229 127.035993,82.6560019 126.079891,78.8772818 C125.554933,76.7989858 124.519986,75.2065252 122.884232,73.8799746 C120.628708,72.0525936 118.165596,70.5620984 115.711466,69.0246192 C111.131555,66.1565907 106.287168,63.8513716 101.398869,61.5961355 C99.5425526,60.7394257 97.3259513,60.4505235 96.0125577,58.5821564 C95.9137538,58.4422038 95.6482806,58.3032509 95.4955836,58.3352401 C94.2700157,58.592153 93.5524397,57.7004551 92.6642023,57.2566054 C92.8757824,55.8690754 93.2300794,54.6035041 93.2350695,53.3369331 C93.2550299,48.0567217 93.210119,42.774511 93.0913547,37.4952992 C93.0664042,36.4166646 93.3199011,35.883845 94.3658255,35.5839466 C95.5345064,35.2500597 96.3269338,34.4893174 96.5435041,33.1817603 C97.0315356,30.2397569 97.25609,27.3177466 96.182221,24.281775 C94.9925818,24.0758448 93.7500475,24.2537845 92.5095093,24.5996673 C91.7989194,24.7985999 91.0873315,25.0155265 90.3607733,25.1344862 C85.6421372,25.9022261 80.9165149,26.6309793 76.1978788,27.4027179 C72.0820464,28.07549 67.9183091,28.326405 63.7954907,29.0711527 C60.6686956,29.6359614 57.358265,29.1831148 54.2025273,29.1831148 C53.1685792,26.6429752 52.5488091,24.2457872 52.5707655,21.6936517 C52.595716,18.6056977 52.1386231,15.4937518 53.2743692,12.4777734 C53.3691811,12.2258587 53.3342504,11.923961 53.264389,11.5540863 C53.8382502,10.5314327 54.6486421,9.61174421 55.5508517,8.83700663 C55.1865746,9.48078856 54.8452519,10.149562 54.5298777,10.8473257 C54.1805709,11.6200639 54.0618066,12.555747 54.082765,13.4094578 C54.0927452,13.7883295 54.6586223,14.3671334 55.0708043,14.4750968 C55.7424714,14.6510372 55.8422734,14.0392445 55.97501,13.4574415 C56.9730294,9.09891792 59.4321495,5.80103501 63.3134472,3.58778471 C63.660758,3.38985175 64.0879104,3.33487038 64.9102784,3.07895706 C63.6797204,4.42849993 62.688687,5.35018773 61.8972576,6.42082507 C60.6217887,8.14524096 59.4521098,9.95062941 58.2924112,11.7570175 C57.8413064,12.4587798 57.6197461,13.2395154 58.8183675,13.8203186 C59.2305495,13.2675059 59.6427316,12.7606776 60.0060107,12.2208604 C61.2445528,10.3794841 62.4172257,8.49112379 63.7076649,6.686735 C65.0300408,4.83736144 66.6647967,3.3808548 69.0630375,3.0779574 C69.3285107,3.04396891 69.5640433,2.76606305 69.8893976,2.55013619 C68.8105386,0.820721996 67.4662063,2.68509048 66.2476245,1.91934986 C67.0490342,1.26557131 68.2097308,1.29056285 68.3933664,0 C67.9482497,0.0819722335 67.6258894,0.108963091 67.3264836,0.203930922 C66.9432441,0.325889611 66.5909432,0.559810375 66.2037117,0.647780577 C62.5409802,1.47749953 59.7465256,3.3108785 57.5937976,5.87201097 C57.3223363,5.66308174 56.949077,5.5891068 56.5648395,5.80703298 C53.6765711,7.44347866 51.1715422,10.2525272 50.6076612,13.5863979 C50.4839067,14.0292479 50.3980771,14.4760965 50.3781167,14.9189465 C50.2623464,17.4850773 50.2353999,20.0771992 50.4679384,22.6313341 C50.64858,24.6266582 51.1994867,26.6019891 51.7354232,28.5453308 C51.9759459,29.4180352 51.8202548,30.0018375 51.161562,30.4856736 C49.9729208,31.3593776 49.5347902,32.5899608 49.3890794,33.9824891 C49.2782992,35.0431298 49.1605329,36.1027709 49.0248023,37.3533473 C47.9449452,37.1904025 47.0227752,36.8865054 46.1235596,36.9434861 C42.3091291,37.1894028 38.4887105,37.1284235 34.8319671,38.7958586 C32.5564827,39.8325075 30.4576477,40.8881499 29.1242937,43.0204277 C28.1721831,44.5429119 26.9815459,45.9964196 26.7879301,47.8767827 C26.6352331,49.3542822 26.5673678,50.845777 26.5404212,52.3322734 C26.5014985,54.5485227 26.530441,56.7657717 26.530441,58.8970498 C25.7190512,59.1239729 25.1092613,59.294915 24.7260218,59.4018788 C24.9156455,61.0973045 25.1242316,62.5388162 25.2200415,63.9893248 C25.2729365,64.7790573 24.9525722,65.4868176 24.0803032,65.6867499 C23.1830837,65.8936798 22.8966521,66.5824465 22.8118204,67.3241952 C22.5673057,69.4644702 22.3657057,71.6107432 22.2209929,73.7600152 C22.0852623,75.7853292 22.0832662,77.8196401 21.9285732,79.8429547 C21.8946405,80.2958013 21.5702842,80.8506134 21.2060071,81.1325179 C19.6790373,82.3141177 18.0123447,83.3237757 16.5342779,84.5593571 C14.494326,86.2647795 12.904481,88.3660677 12.2228337,90.9841808 C11.366533,94.2720671 11.2797053,97.6509226 11.471325,101.019781 C11.7048616,105.135387 12.2278238,109.239997 12.3276257,113.356603 C12.4304217,117.564177 12.9962988,121.684782 13.8845361,125.773397 C14.3845439,128.071618 14.8256685,130.375838 15.9664048,132.513114 C16.9354817,134.328499 18.0552596,135.781007 20.1351322,136.300831 C20.4974133,136.3908 20.9674804,136.593731 21.1231715,136.885633 C21.8756782,138.305152 23.0273927,138.1622 24.2659348,137.822315 C26.6492054,137.169536 29.0324759,136.517757 31.6243325,135.808997 C32.9766489,138.637039 34.3688861,141.549053 35.7641173,144.460067 C37.3389921,147.747953 37.6823108,151.162796 37.0365922,154.749582 C36.0665172,160.132758 35.2072225,165.535928 34.3100029,170.9321 C33.7441259,174.331948 33.2640785,177.748791 32.622352,181.134644 C31.7790255,185.585137 30.7909862,190.008638 29.9127291,194.454132 C29.5674143,196.20254 29.6043411,198.084903 29.0254898,199.723348 C29.2230976,201.298814 29.6412678,202.627364 30.4776081,203.835954 C30.5973705,203.934921 30.7221229,204.02489 30.8508674,204.108862 C30.9227248,204.086869 30.9955802,204.065877 31.0694337,204.042884 C32.1163561,204.658676 33.2580904,205.329449 34.2401416,205.906253 C34.517591,210.705628 34.5285692,215.325063 35.1223908,219.867524 C35.6513411,223.912154 35.7940579,227.940789 35.7920619,231.991417 C35.7900658,235.095366 35.5495431,238.203313 35.6184065,241.304263 C35.8090282,249.81538 36.0874757,258.324498 36.362929,266.833615 C36.3369805,266.988563 36.2990558,267.128515 36.2222083,267.226482 C36.2012499,268.852931 36.0305885,270.477381 35.7251946,272.084836 C35.336965,275.834566 34.9986364,279.593293 34.4587078,283.32203 C33.9656862,286.722878 33.2101855,290.084739 32.5794372,293.465594 C32.2211482,295.388943 31.8598651,297.311291 31.5404989,299.241638 C31.1662416,301.50887 30.8598496,303.788098 30.4835962,306.05533 C29.8428677,309.917022 29.1372679,313.768717 28.524484,317.634407 C28.0693871,320.502436 27.6961278,323.38446 27.3298547,326.265484 C27.2090943,327.211163 27.2250626,328.174837 27.1791537,329.130513 C23.8886835,332.492375 19.8097778,334.627651 15.3845594,336.133141 C11.7597527,337.364724 8.10101321,338.501339 4.49317277,339.780906 C2.75961292,340.395697 1.37136782,341.426348 0.533031449,343.256728 C-0.16857625,344.790209 -0.249415829,346.20273 0.726647229,347.430315 C2.31349821,349.426638 4.32949757,350.921132 7.02115613,350.995107 C8.35850224,351.032095 9.70582855,350.851156 11.0441727,350.729197 C18.846689,350.015439 26.5953123,349.030773 33.9437298,346.071775 C35.2990403,345.52596 36.6743111,345.226061 37.9248295,346.287702 C39.947815,348.003121 42.2781905,348.171064 44.7652551,347.824181 C45.5576826,347.713219 46.3850407,347.882162 47.1944345,347.861169 C47.7972383,347.846174 48.4000421,347.750206 48.9978557,347.658237 C50.0497683,347.496292 51.0976887,347.165404 52.1476052,347.162405 C54.2664006,347.155408 55.6346853,346.034787 56.3782098,344.265387 C57.1297185,342.473993 57.6916035,340.576636 57.5967916,338.567317 C57.5389065,337.350729 57.5269303,336.132142 57.4820194,334.915554 C57.4570689,334.243781 57.6007837,333.713961 57.9710489,333.06818 C58.7974091,331.623669 59.559896,330.039206 59.8632939,328.419754 C60.4092105,325.504741 60.6816699,322.529749 60.9201965,319.566753 C61.3114201,314.726392 61.3992459,309.854043 61.9491546,305.033676 C62.0998555,303.714123 62.2705169,302.396569 62.4501604,301.079015 C62.3693208,300.874085 62.3463664,300.634166 62.4102396,300.365257 C62.5918792,299.598517 62.6906831,298.82178 62.7525603,298.042044 C62.9152375,296.826456 62.9381919,295.568882 62.9391899,294.322304 C63.0270156,292.747837 63.1567582,291.178369 63.2775185,289.604902 C63.5669442,285.841177 63.4960848,282.055459 63.6817164,278.284736 C63.8503817,274.851899 64.1368133,271.429059 64.6008924,268.033209 C64.8593794,266.134852 65.1737556,264.245492 65.556995,262.368128 C65.9482187,257.266856 66.3933354,252.188576 67.1677985,247.122292 C67.8434577,242.708787 69.1049543,238.462225 70.1778253,234.158683 C70.8624666,231.412613 71.5511001,228.665544 72.3385375,225.948464 C72.6010166,225.040772 72.8066086,223.996126 73.9653092,223.286366 C74.2148141,223.849175 74.5122239,224.285028 74.6030437,224.760867 C75.0451663,227.081081 75.5741166,229.397296 75.8106472,231.741502 C76.3346075,236.918748 76.6829163,242.113989 77.1420052,247.298232 C77.3436052,249.57946 77.7857278,251.847691 77.8615773,254.129918 C77.9953119,258.185545 77.9304406,262.247169 77.9573872,266.306794 C77.9573872,266.40676 77.9573872,266.507726 77.9573872,266.607692 C77.9404208,266.715655 77.9344327,266.81962 77.949403,266.905591 C77.9523971,266.918586 77.9533951,266.931582 77.9553911,266.945577 C77.9533951,267.548373 77.9573872,268.152169 78.0551931,268.73797 C78.0801436,268.891918 78.1120802,269.043867 78.1470109,269.195815 C78.1739574,271.745951 77.6529912,274.273095 77.641015,276.819233 C77.6330308,278.634618 77.4573794,280.456001 77.2607696,282.263389 C76.9334192,285.278367 76.4863064,288.280351 76.1659422,291.296329 C75.7158354,295.531894 75.3246118,299.774457 74.9313921,304.01602 C74.6818872,306.710108 74.4463546,309.407194 74.2547349,312.10728 C73.9623152,316.221886 73.6928499,320.338491 73.4613094,324.457096 C73.3964381,325.59871 73.4712896,326.751319 73.545143,327.894932 C73.5700935,328.278802 73.6728895,328.812621 73.9363667,328.999558 C75.3465682,330.000219 74.8824891,331.362757 74.8176179,332.696305 C74.6888733,335.326415 74.5800892,337.960522 74.5890714,340.591631 C74.5930635,341.595291 74.9892772,342.490988 75.9952809,343.114776 C79.3685867,345.205068 83.0782251,345.886837 86.9595229,346.132754 C89.5054706,346.2937 91.774967,346.11676 93.2001388,343.592615 C93.6781901,342.745901 94.4845899,342.729907 95.3378965,343.053797 C96.591409,343.530636 97.8259591,344.120436 99.1243824,344.406339 C103.118456,345.285041 106.998756,346.601595 111.101614,347.094428 C117.878167,347.908153 124.610806,349.013778 131.485164,348.546936 C134.474233,348.344005 137.08106,345.138091 136.366478,342.175095 C135.921361,340.32772 135.049092,338.727263 133.30156,337.853559 C130.778566,336.590986 128.223637,335.386394 125.635772,334.264774 C123.428153,333.307099 121.140692,332.53536 118.915109,331.616671 C116.307284,330.540036 113.714429,329.423414 111.139539,328.267806 C108.813156,327.223159 106.402939,326.319466 104.508698,324.490085 C103.918868,323.921278 103.466765,323.362467 103.919866,322.563738 C104.942836,320.758349 104.82008,318.787017 104.877965,316.825681 C105.012697,312.236236 105.110503,307.644791 105.369988,303.062343 C105.619493,298.678828 106.107525,294.309308 106.38697,289.926793 C106.55364,287.297683 106.580586,284.654579 106.561624,282.018472 C106.540665,279.122453 106.373996,276.227433 106.312119,273.330415 C106.280182,271.810929 106.274194,270.288445 106.336071,268.769959 C106.585576,268.59202 106.633481,268.273128 106.70434,267.652338 C106.773204,267.049542 106.723303,266.43475 106.750249,265.826956 C106.893964,262.650032 106.984784,259.46811 107.214328,256.297184 C107.383992,253.944981 107.956855,251.607773 107.964839,249.261567 C107.983801,244.128306 108.016736,239.00904 108.5387,233.892773 C108.861061,230.737842 108.861061,227.549922 109.151484,224.390992 C109.347096,222.249717 109.875048,220.140432 110.114573,218.001156 C110.54971,214.113473 110.86708,210.212794 111.271278,206.322112 C111.324173,205.806287 111.441939,205.08853 111.791246,204.849611 C112.996853,204.02589 112.755333,202.885276 112.74635,201.745663 C112.74136,201.066892 112.419,200.294154 113.080687,199.728346 C113.231388,199.796323 113.306239,199.809318 113.352148,199.854303 C113.495863,199.993256 113.634588,200.138207 113.76433,200.291155 C115.435015,202.247493 117.346222,202.8153 119.677596,201.420773 C120.005944,201.223839 120.578807,201.230837 120.960051,201.364792 C122.516961,201.909607 123.980058,201.980583 125.363313,200.910945 C125.558925,200.759996 125.871305,200.679024 126.121808,200.694019 C127.705665,200.784988 128.630829,199.957268 129.252595,198.597729 C129.430242,198.20986 129.794519,197.907962 130.092927,197.543086 C131.554028,199.439444 132.705742,200.386123 134.15287,200.489088 C137.523182,200.729007 140.914452,201.011911 144.244843,200.150203 C146.446474,199.580396 148.593214,198.761673 150.816802,198.321822 C153.845791,197.724025 156.949631,197.481107 159.763048,196.044594 C159.937702,195.954624 160.152276,195.935631 160.35188,195.903641 C162.408798,195.575752 164.492663,195.367823 166.517644,194.90298 C170.641461,193.956301 174.731345,192.863671 178.840191,191.849015 C180.338218,191.47914 181.846226,191.150252 183.353235,190.818364 C184.924118,190.471481 186.513963,190.199574 188.067879,189.792711 C190.729597,189.096947 193.360376,188.285222 196.022094,187.591457 C198.328517,186.989661 200.163875,185.898031 200.684841,183.379884 C200.887439,182.398216 201.049119,181.370564 200.986243,180.3799 Z" id="Fill-78"></path>
            <path d="M95.5903798,290.861733 C95.5293348,287.615669 95.5754065,284.3676 95.6226299,281.121536 C95.6433622,279.770933 95.8069166,278.422337 95.871417,277.070731 C95.9336137,275.781336 95.9912033,274.488931 95.9750782,273.198533 C95.9658639,272.456003 95.638755,271.865992 94.1299078,272.026539 C94.1299078,273.648065 94.1379703,275.196342 94.128756,276.743616 C94.1045683,280.622837 94.0792289,283.925091 94.0446752,287.73608 C94.0227911,290.175393 93.696834,292.643806 94.0204875,295.046997 C94.6804642,299.952716 94.045827,304.7892 93.558619,309.646755 C93.4699311,310.525751 93.39852,311.406754 93.3075284,312.285749 C93.2153851,313.168759 93.1082684,314.049761 93,315 C93.4411363,314.916716 93.6657357,314.928757 93.7129591,314.855508 C93.896094,314.568529 94.0780771,314.265497 94.1633097,313.949419 C95.5420045,308.831978 96.1455434,303.642291 95.9704711,298.389388 C95.8863903,295.878832 95.6364514,293.372289 95.5903798,290.861733" id="Fill-79"></path>
            <path d="M95.6494254,217 C95.5187437,217.018136 95.3880621,217.035264 95.2573805,217.053401 C95.2573805,219.485642 95.2611684,221.916877 95.2554866,224.349118 C95.2535926,225.367758 95.2270775,226.387406 95.2223427,227.406045 C95.2100321,229.975315 95.2677971,232.547607 95.181623,235.113854 C95.0556763,238.848866 94.6806768,242.580856 94.6854116,246.312846 C94.6901465,250.10529 93.5850345,253.851385 94.3388213,257.670025 C94.4515105,258.240302 94.3075713,258.894207 94.1854124,259.48665 C93.720451,261.733501 94.2602229,263.942065 94.3946924,266.163728 C94.4079499,266.379345 94.7545403,266.572796 95.1579488,267 C95.2602214,266.306801 95.3606,265.93602 95.362494,265.566247 C95.3729106,262.097229 95.3037819,258.626196 95.3814333,255.160202 C95.4609787,251.629723 95.7024556,248.104282 95.8293493,244.574811 C95.9230992,241.993451 95.989387,239.410076 95.9950688,236.827708 C96.0102203,230.701763 95.98844,224.575819 95.9571901,218.448866 C95.9543492,217.966247 95.7564328,217.483627 95.6494254,217" id="Fill-80"></path>
            <path d="M50.2326813,238.672764 C49.4768166,247.780488 48.7392811,256.890244 48,266 C48.5053645,265.556911 48.8387829,265.002033 48.9278109,264.398374 C49.3947712,261.236789 49.9472682,258.078252 50.1916587,254.889228 C50.5783193,249.843496 50.7485198,244.775407 50.9964015,239.714431 C51.0182221,239.267276 50.9361767,238.814024 50.8750791,238 C50.4692164,238.414634 50.244028,238.531504 50.2326813,238.672764" id="Fill-81"></path>
            <path d="M40.7698232,307.090096 C40.1008545,309.885144 40.2221115,312.860453 40.0001495,315.754645 C39.9939839,315.829753 40.1799799,315.917881 40.277602,316 C42.145782,312.948581 44.9357207,290.132537 43.6902674,287 C42.4324828,293.81487 42.3348607,300.546619 40.7698232,307.090096" id="Fill-82"></path>
            <path d="M63.9226275,175.921334 C63.1962816,175.921334 62.5858313,176.029087 62.0263351,175.900809 C60.2859023,175.501609 58.5664506,175.012101 56.838007,174.557484 C56.708124,174.523619 56.5802391,174.472308 56.4483579,174.45281 C54.1244505,174.10492 51.789553,173.820657 49.4776348,173.401958 C47.1707122,172.98326 44.8857697,172.431152 42.5328884,171.926251 C42.5328884,170.949287 42.5328884,170.210408 42.5328884,169.183159 C43.2892074,169.383272 43.9636001,169.553625 44.6329973,169.74245 C46.8290198,170.361262 48.9950694,171.142217 51.2260604,171.568099 C53.7268086,172.045293 56.1955855,172.721573 58.8022383,172.696944 C60.4387646,172.68155 62.0802865,173.283943 63.9226275,173.649278 C63.9226275,174.532855 63.9226275,175.182454 63.9226275,175.921334 Z M59.75538,170.094444 C55.9687897,169.852256 52.3060879,168.996387 48.6513789,168.085101 C46.4933221,167.546335 44.3852204,166.800271 42.250143,166.162987 C40.6495843,165.684768 39.8842734,166.254321 40.0141564,167.932194 C40.1420413,169.576202 40.4427705,171.194555 40.129053,172.864218 C39.9891789,173.611308 40.4497642,174.17573 41.2600346,174.31427 C45.2554368,174.997734 49.2418472,175.746876 53.2482395,176.356452 C56.9848748,176.924979 60.7285037,177.412434 64.2713135,178.86967 C64.6100085,179.009236 65.0216379,178.959977 65.4172816,179 C66.486319,176.394422 65.7649685,173.862732 65.7260036,171.192502 C63.5899271,170.784066 61.686641,170.218617 59.75538,170.094444 Z" id="Fill-83"></path>
            <path d="M103.545915,171.045506 C100.869987,172.245573 98.2224296,173.523031 95.5019198,174.607528 C94.1958724,175.128624 92.75,175.284436 91.2281357,175.637336 C90.6374253,172.456075 90.1460111,172.737776 93.5018131,171.205446 C95.8656677,170.12714 98.3744134,169.382128 100.799061,168.436934 C102.1274,167.918934 103.415209,167.295683 104.878306,166.649731 C105.014078,167.16154 105.140732,167.521663 105.203552,167.893137 C105.553114,169.973391 105.431527,170.199371 103.545915,171.045506 Z M106.336337,163.003096 C102.938993,164.444621 99.5700192,165.95425 96.1807807,167.416412 C94.4866681,168.146978 92.7672248,168.816662 91.0660196,169.530718 C89.6150811,170.140554 88.5511945,171.147661 88,172.848186 C89.1935794,173.579784 88.7295222,174.843827 88.7791702,175.981982 C88.8450299,177.498834 89.3911583,178.214953 90.7387479,177.94357 C93.3427368,177.421443 95.9619241,176.845659 98.4605375,175.958249 C100.880119,175.097667 103.137585,173.773776 105.50144,172.737776 C106.136732,172.459171 106.632199,172.191916 107,171.886482 C106.826738,168.922945 106.571406,165.961473 106.34647,163 C106.34343,163.001032 106.339377,163.002064 106.336337,163.003096 Z" id="Fill-84"></path>
            <path d="M79.6785758,161.752734 C79.5410886,162.303069 79.1645851,162.599327 78.5427197,162.683685 C78.4983008,162.68971 78.4549394,162.692723 78.4126357,162.695736 C77.9324879,162.81223 77.4280155,162.724859 77.0694911,162.288006 C76.7638464,161.91442 76.5671339,161.415302 76.5787674,160.930244 C76.5692491,160.755502 76.5872282,160.583773 76.6411655,160.427109 C76.6390503,160.420079 76.6379927,160.415057 76.6358775,160.408028 C76.6401079,160.408028 76.6432807,160.408028 76.6464535,160.409032 C76.7046211,160.24835 76.8019198,160.103736 76.9489254,159.986238 C77.3275441,159.586541 77.8764354,159.56746 78.3988869,159.722117 C78.6495368,159.771326 78.8896106,159.863718 79.102187,159.997284 C79.3464913,160.151941 79.5305127,160.343755 79.6531936,160.55465 C79.6616543,160.555654 79.6711727,160.555654 79.680691,160.555654 C79.6838638,160.578752 79.685979,160.599842 79.6902094,160.62294 C79.8689428,160.977444 79.8731732,161.380153 79.6785758,161.752734 Z M77.8605715,158.001816 C75.8088389,157.942565 73.9707403,159.341502 74.000353,160.938278 C74.0437143,163.28122 75.7104827,164.973401 77.9980588,164.999512 C80.5098448,165.027632 82.0031677,163.838586 81.999995,161.81299 C81.9957646,159.383681 80.579646,158.079145 77.8605715,158.001816 Z" id="Fill-85"></path>
            <path d="M80.6785758,140.75371 C80.5410885,141.30405 80.164585,141.60031 79.5427197,141.684669 C79.4983007,141.690694 79.4549393,141.693707 79.4126356,141.69672 C78.9324878,141.813215 78.4280154,141.725844 78.0705486,141.287982 C77.7649039,140.915398 77.5671338,140.416275 77.5798249,139.930209 C77.5703066,139.755466 77.5882857,139.58474 77.6411654,139.428073 C77.6401078,139.421044 77.6379926,139.415018 77.6358774,139.408992 C77.6401078,139.408992 77.6432806,139.408992 77.6475109,139.408992 C77.704621,139.249313 77.8019197,139.103694 77.9499829,138.987199 C78.327544,138.587499 78.8764353,138.568418 79.3988869,138.722071 C79.6495367,138.772285 79.8906681,138.864678 80.102187,138.998246 C80.3464912,139.152903 80.5315702,139.344719 80.6531935,139.555616 C80.6627119,139.555616 80.6722302,139.55662 80.680691,139.55662 C80.6849213,139.579718 80.6870365,139.600808 80.6902093,139.622902 C80.8689427,139.978414 80.8731731,140.380122 80.6785758,140.75371 Z M78.8605714,137.001756 C76.8098964,136.943509 74.9707401,138.342457 75.0003528,139.939247 C75.0437141,142.281205 76.7104825,143.974405 78.9980587,143.999512 C81.5109024,144.027631 83.0031677,142.83958 82.999995,140.812962 C82.9957646,138.383632 81.579646,137.080089 78.8605714,137.001756 Z" id="Fill-86"></path>
            <path d="M35.3273825,74.3637068 C35.2854794,74.0080243 35.4540662,73.7228984 35.7132807,73.5566554 C36.0777402,73.1584457 36.657562,72.9535416 37.1467563,73.3150233 C37.5726087,73.6291451 37.8162313,74.0756813 37.7431445,74.6092051 C37.7314506,74.6952261 37.7051394,74.7764146 37.6690832,74.8527703 C37.6953945,74.8817662 37.7207312,74.9117286 37.748017,74.9407244 C37.6788281,74.9735864 37.6135373,75.0064484 37.5501954,75.0373773 C37.4468994,75.1639925 37.3114452,75.2683776 37.1603992,75.3447334 C37.0220215,75.5902316 36.8154295,75.7903031 36.5250313,75.8502278 C35.8808931,75.9836088 35.3069182,75.5477044 35.2776834,74.8914315 C35.270862,74.7387199 35.2952243,74.5879415 35.3449233,74.4487614 C35.3400508,74.4197655 35.3312804,74.3927027 35.3273825,74.3637068 Z M36.2531485,76.9955642 C37.5989199,76.8834469 39.1123037,75.4433193 38.9934159,74.3869035 C38.8852474,73.424241 36.9937613,71.9309543 35.9744442,72.0024774 C34.9054281,72.0778667 33.9494528,73.2860274 34.0020753,74.4961213 C34.0605448,75.8221985 35.1958262,77.0844849 36.2531485,76.9955642 Z" id="Fill-87"></path>
            <path d="M35.1956237,83.8504562 C35.1540227,83.6546366 35.165463,83.4509842 35.2153841,83.2551646 C35.1176219,83.0661987 35.1186619,82.8312152 35.3037862,82.6305001 C35.5107511,82.4072658 35.7936377,82.2339654 36.0921247,82.1732614 L36.0921247,82.0851426 C36.1191653,82.1125573 36.1410058,82.1370347 36.1670064,82.1634704 C36.3261302,82.1409511 36.489414,82.1487839 36.6474977,82.2026343 C36.8877433,82.2026343 37.0676675,82.3426453 37.1560696,82.5257366 C37.3370338,82.6726013 37.470157,82.8772328 37.513838,83.1308192 C37.5211182,83.1719413 37.5252783,83.2150216 37.5294384,83.2581019 C37.5627191,83.3883219 37.5814396,83.5224584 37.5835196,83.6575739 C37.5887197,84.1490811 37.3297537,84.7316444 36.7598203,84.8413033 C36.0224431,84.9822934 35.3433071,84.5456157 35.1956237,83.8504562 Z M38.9729922,83.2218753 C39.1248357,82.2927113 38.6277041,81.5671997 37.7010424,81.2646585 C37.0312667,81.0453405 35.8196383,80.8544164 35.5877129,81.1559786 C34.8555357,82.1047245 33.8394319,83.0456377 34.0214362,84.4134375 C34.141039,85.3083331 34.7234526,85.8527115 35.6397141,85.9829316 C37.0177464,86.1797303 38.8773099,84.6386301 38.9729922,83.2218753 Z" id="Fill-88"></path>
            <path d="M77.0114534,48.7420058 C78.4723456,48.7683009 79.689428,49.3945137 80.996956,49.8571125 C82.3310277,50.3294503 83.5471271,49.5931877 83.8725344,48.2024695 C84.0052534,47.6356642 84.0317972,47.0162687 83.963963,46.4368028 C83.7211364,44.3526732 83.4055601,42.2763348 83.1401221,40.1931792 C83.044761,39.4432821 82.7675258,38.8784246 81.9004283,39.0225606 C81.1277088,39.1511144 81.0962494,39.7636927 81.1562188,40.402566 C81.3233464,42.1731022 81.4963727,43.9436385 81.613362,45.7180702 C81.6546524,46.3296746 81.5396292,46.9510179 81.4678627,47.9667876 C79.6471545,46.28098 77.9355709,46.7231271 76.2072746,47.2139688 C75.6911451,48.1294276 76.2062914,48.7264236 77.0114534,48.7420058" id="Fill-89"></path>
            <path d="M74.0266308,56.9573047 C74.37403,57.0672628 74.8304963,56.9456745 75.1991029,56.8092841 C76.5291165,56.3176444 77.816715,55.6726977 79.1709657,55.2815005 C80.7867756,54.8152357 82.4550994,54.549856 84.1769468,54.1808619 C84.4183084,53.5908943 84.6748183,52.9628642 85,52.1688396 C84.5031384,52.0916575 84.1830061,51.9647827 83.886101,52.0091889 C81.9501588,52.3020581 79.975841,52.465938 78.0984719,53.0009266 C76.5563833,53.4397018 75.1122531,54.2929346 73.6701428,55.0541832 C73.3348622,55.2307506 72.9359591,55.8492651 73.0086706,56.1453062 C73.0935006,56.4942118 73.6267179,56.8293726 74.0266308,56.9573047" id="Fill-90"></path>
            <path d="M153.836263,182.943321 C154.341016,182.166602 154.840608,181.381928 155.299943,180.59427 C155.944045,179.490355 156.374478,178.292956 157,177.18208 C156.471506,176.897648 156.0772,176.91356 155.739666,177.466512 C153.487375,181.16214 151.248502,184.864729 149.009629,188.568313 C148.981759,188.614061 149.022016,188.699589 149.034402,188.806997 C149.703277,189.293317 150.025328,188.758266 150.311251,188.32764 C151.355852,186.74934 152.342649,185.135238 153.406862,183.568872 C153.544147,183.365991 153.678334,183.142224 153.836263,182.943321" id="Fill-91"></path>
            <path d="M192.062164,180.199249 C191.873199,180.797816 190.870388,181.297974 190.143525,181.525227 C187.822963,182.250608 185.460408,182.835986 183.108852,183.458902 C180.496344,184.150804 177.882837,184.83662 175.263331,185.501131 C172.386873,186.23057 169.503416,186.927546 166.624959,187.647855 C164.268403,188.238305 161.928844,188.906874 159.556291,189.42225 C157.051764,189.966033 154.531239,190.480395 151.992717,190.809099 C148.038463,191.322446 144.063212,191.666368 140.09696,192.085365 C139.761023,192.120873 139.409089,192.121888 139.095149,192.231456 C136.720596,193.060319 134.52501,191.976812 132.960305,189.485151 C132.241441,188.340772 131.55657,187.174074 130.839705,186.027666 C130.437781,185.383446 130.450778,184.798068 130.801712,184.104136 C131.817521,182.096401 132.796336,180.067361 133.721162,178.014987 C134.228066,176.889885 134.952929,176.273057 136.210692,176.346102 C136.978548,176.390741 137.751402,176.354218 138.917182,176.354218 C136.862569,180.072434 134.481018,183.149473 132.818332,186.624204 C132.922312,186.715511 133.027292,186.806818 133.132273,186.898125 C133.381226,186.756092 133.718162,186.675945 133.867134,186.461881 C135.347855,184.342549 136.780585,182.187708 138.263305,180.06939 C139.003166,179.012261 139.771021,177.969334 140.614862,176.998438 C141.255741,176.261897 142.154572,176.271028 143.296357,176.50944 C140.887811,180.883036 137.346478,184.416609 135.681792,189.153402 C135.860758,189.008326 136.076718,188.893685 136.211692,188.71513 C138.914183,185.144019 141.596677,181.557691 144.311165,177.996726 C144.761081,177.40729 145.284982,176.835101 145.885868,176.421177 C146.181813,176.217258 146.731709,176.393785 147.167627,176.397843 C147.138632,176.820897 147.262609,177.356564 147.054648,177.647731 C146.026842,179.08835 144.884057,180.444763 143.831256,181.869149 C142.174568,184.108195 140.544875,186.36956 138.938178,188.646142 C138.746214,188.918034 138.763211,189.342103 138.578246,190.160821 C139.178133,189.638343 139.505071,189.482107 139.627048,189.226448 C141.027784,186.27318 143.300356,184.009786 145.390962,181.595229 C146.680719,180.103884 147.89249,178.542538 149.107261,176.988293 C149.891113,175.985948 149.865118,175.965657 151.674777,176.429293 C149.015279,181.065649 145.602922,185.138947 143.161382,189.825015 C144.510128,188.182507 145.889868,186.565362 147.20162,184.893433 C149.090264,182.485977 150.989906,180.083594 152.761572,177.587875 C153.496434,176.55205 154.229296,175.877394 155.543048,175.910873 C156.543859,175.936236 157.54867,175.802319 158.854424,175.719129 C158.595473,177.815127 157.482682,179.314588 156.421882,180.860716 C156.300905,181.115361 156.171929,181.363918 156.020958,181.599287 C155.863988,181.843786 155.675023,182.083213 155.483059,182.323654 C155.419071,182.434237 155.355083,182.545834 155.295095,182.658445 C155.279098,182.644242 155.2661,182.630039 155.251103,182.615836 C155.195114,182.685838 155.139124,182.755839 155.086134,182.826856 C154.879173,183.271216 154.643218,183.701372 154.328277,184.098049 C154.296283,184.137616 154.25929,184.169066 154.221297,184.194429 C154.144312,184.312113 154.067326,184.426754 154.002338,184.54038 C153.259478,185.838966 152.399641,187.066535 151.639784,188.353961 C151.458818,188.660346 151.480814,189.089488 151.391831,189.553123 C151.826749,189.498339 152.013713,189.528775 152.061704,189.459788 C154.437256,186.057087 156.815808,182.655402 159.154367,179.226324 C159.650274,178.498914 160.078193,177.699472 160.397133,176.877711 C161.132994,174.975486 161.099001,174.961282 163.605528,175.543617 C161.983834,179.691989 159.075382,183.118023 157.702641,187.500749 C158.016582,187.299874 158.4495,187.174074 158.628466,186.88595 C160.781061,183.413248 162.891663,179.913154 165.024261,176.428278 C165.8771,175.033313 166.004076,175.005921 167.883722,175.582169 C168.217659,176.793505 167.435806,177.657876 166.891909,178.568915 C165.390192,181.08391 163.835485,183.566441 162.330768,186.079407 C162.151802,186.377676 162.147803,186.783484 162.062819,187.13958 C162.194794,187.215669 162.326769,187.290744 162.459744,187.366833 C163.111621,186.482171 163.790493,185.615771 164.409377,184.707776 C165.403189,183.247882 166.260028,181.680448 167.352822,180.303745 C168.519602,178.83472 169.414433,177.278446 169.847351,175.228101 L172.398871,175.228101 L172.326884,175.288972 C174.062557,174.748233 175.811227,174.316048 177.674876,174.434746 C177.875838,175.87435 177.046994,176.777273 176.466104,177.732951 C175.156351,179.88982 173.748616,181.985819 172.412868,184.128485 C172.160915,184.532264 172.063934,185.03648 172.203907,185.694904 C172.413868,185.57722 172.732808,185.511276 172.816792,185.33272 C174.014566,182.772072 176.158162,180.893181 177.576894,178.497899 C178.332752,177.221633 179.005625,175.894641 179.871462,174.304888 C180.51634,174.257205 181.478159,174.185175 182.47997,174.1101 C182.188025,177.289606 179.793477,179.170526 178.738675,182.298291 C179.481535,181.850888 180.005437,181.708855 180.245391,181.363918 C181.875084,179.019362 183.725735,176.788433 184.305626,173.614 C186.608192,173.507475 188.884763,173.375588 191.163333,173.312687 C191.837206,173.294426 192.152147,173.789512 192.442092,174.424601 C193.360919,176.439438 192.644054,178.349779 192.062164,180.199249 Z M192.169144,171.001611 C189.603627,171.089874 187.028113,171.075671 184.478593,171.332344 C180.854277,171.698586 177.261954,172.415852 173.634638,172.718179 C168.453614,173.14935 163.253594,173.357326 158.059574,173.626174 C155.16312,173.776323 152.262666,173.860528 149.363213,173.968067 C145.310977,174.118216 141.258741,174.273438 137.205505,174.397209 C136.75359,174.410398 136.261683,174.30996 135.846761,174.127347 C134.146082,173.376602 134.022105,173.353268 133.14727,174.894324 C131.566568,177.68121 130.065851,180.51375 128.495147,183.306724 C127.862266,184.431826 127.810276,185.520406 128.489148,186.605943 C129.714917,188.56701 131.065662,190.453003 132.183452,192.473926 C133.219256,194.344701 134.689979,195.068054 136.724595,194.995009 C137.995356,194.821526 139.264117,194.626738 140.536877,194.478618 C144.610109,194.003823 148.68734,193.572652 152.756573,193.06945 C154.699207,192.830023 156.640841,192.531754 158.559479,192.13812 C160.408131,191.757675 162.222789,191.207805 164.058443,190.75533 C167.074874,190.011686 170.100304,189.310653 173.111736,188.547734 C176.706059,187.636695 180.283384,186.658698 183.878706,185.754761 C185.046486,185.46055 186.286253,185.4291 187.424038,185.0588 C188.556825,184.689515 189.580632,183.989496 190.690422,183.529918 C193.071973,182.544819 194.661674,181.224929 194.940621,178.23108 C195.145583,176.042761 194.814645,174.200392 194.029793,172.283964 C193.667861,171.399303 193.078972,170.970161 192.169144,171.001611 Z" id="Fill-92"></path>
        </g>
    </g>
</svg>