<?xml version="1.0" encoding="UTF-8"?>
<svg width="289px" height="323px" viewBox="0 0 289 323" version="1.1" xmlns="http://www.w3.org/2000/svg" xmlns:xlink="http://www.w3.org/1999/xlink">
    <!-- Generator: Sketch 51.3 (57544) - http://www.bohemiancoding.com/sketch -->
    <title>Telescope</title>
    <desc>Created with Sketch.</desc>
    <defs></defs>
    <g id="Page-1" stroke="none" stroke-width="1" fill="none" fill-rule="evenodd">
        <g id="Wizzard-01" transform="translate(-700.000000, -37.000000)" fill="#000000" fill-rule="nonzero">
            <g id="Telescope" transform="translate(700.000000, 37.000000)">
                <path d="M287.1,308.2 C286.1,306.2 285,303.9 283.5,302 C283,301.4 282.1,300.8 280.6,300.4 C276.5,299.1 272.2,297.7 267.7,297.5 C266.6,297.5 265.5,297.4 264.4,297.3 C263.8,297.3 263.3,297.2 262.7,297.2 L262.4,297.2 L262.4,296.9 C262.3,296.1 262.1,295.3 262,294.5 C261.7,292.7 261.4,290.8 261.2,288.9 C261.1,287.6 261,286.4 261,285.1 C261,284.1 261,283 260.9,281.9 C260.8,280.2 260.7,278.4 261.1,276.5 C262.6,270.3 257.9,265.1 252.5,263.7 C251.4,263.4 250.2,263.2 249,263 C248.4,262.9 247.8,262.8 247.1,262.7 L246.8,262.6 L246.8,262.3 C246.8,261.8 246.7,261.3 246.7,260.8 C246.6,259.6 246.5,258.5 246.4,257.2 C246.3,255.9 246.3,254.5 246.3,253.2 C246.3,251.2 246.2,249.2 246.1,247.1 C245.9,244.4 245.6,241.5 245,238 C244.8,236.8 244.7,235.6 244.6,234.4 C244.4,232.1 244.2,229.8 243.4,227.6 C243,226.5 242.6,225.4 242.2,224.3 C241.6,222.6 241.1,220.8 240.3,219.2 C239.2,216.9 237.9,214.8 236.5,212.5 C235.9,211.5 235.3,210.5 234.7,209.4 L234.5,209.1 L236.2,207.7 C237.4,206.8 238.5,205.8 239.7,204.9 C240.1,204.6 240.5,204.3 240.9,204 C242.2,203.1 243.3,202.3 244.2,201 C244.5,200.5 245.1,200.1 245.6,199.8 L245.8,199.7 C249.5,197.2 252.4,194.3 254.6,190.9 L255.6,189.4 C257.3,186.9 259,184.3 260.7,181.7 C263.9,176.6 266.9,170.9 266.9,164.1 C266.9,163.9 266.9,163.8 267,163.7 C267.4,161.9 267.2,160.2 266.5,158.1 C265.4,154.8 261.8,152.5 258,152.5 C256.1,152.5 254.3,153.1 252.9,154.2 C248.3,157.9 245.2,161 242.9,164.5 C242.3,165.3 241.7,166.1 241,166.9 C240.7,167.3 240.4,167.7 240.1,168.1 L239.9,168.4 L239.2,167.8 C238.9,167.6 238.7,167.4 238.5,167.2 L238,166.7 C235.7,164.4 233.4,162 231.1,159.6 C229.9,158.3 228.6,157 227.4,155.6 C225.9,154 224.4,152.3 222.8,150.4 C222.6,150.1 222.4,149.9 222.2,149.6 C222,149.3 221.8,149 221.6,148.8 C220.8,147.9 219.9,147 219.1,146.1 C217.4,144.4 215.7,142.6 214.2,140.7 C210.8,136.5 207,132.4 202.4,128.2 C199.8,125.8 197.1,123.4 194.5,121 C193.1,119.7 191.6,118.4 190.2,117.1 C189.1,116.1 187.9,115 186.7,113.8 L186.1,113.2 C184.6,111.7 183,110.2 181.6,108.7 C180.4,107.5 179.4,106.2 178.3,104.9 C176.2,102.3 174,99.7 171.1,97.9 C168.6,96.4 166.3,95.1 163.5,94.9 C162.8,94.8 162,94.7 161.3,94.6 C161,94.5 160.6,94.5 160.2,94.4 L159.6,94.3 L160,93.8 C160.1,93.7 160.1,93.6 160.2,93.5 C160.3,93.4 160.4,93.2 160.5,93.2 L163.5,91.5 C166.7,89.6 170,87.7 173.2,85.8 C175.2,84.7 175.3,84.5 174.6,82.4 C174.5,82 174.3,81.6 174.2,81.2 L173.9,80.3 L176.5,79.1 C178.2,78.3 179.9,77.6 181.6,76.8 C183.2,76 184.9,75.2 186.5,74.4 C187.3,74 188,73.6 188.8,73.3 C189.1,73.1 189.4,73 189.7,72.8 C190.4,72.4 191.2,72 192,71.7 C193,71.3 193.9,70.9 194.9,70.5 C196.4,69.9 197.9,69.3 199.3,68.6 C201.1,67.7 202.9,66.9 204.8,66 C209.6,63.7 214.5,61.4 219.5,59.3 C221.1,58.6 222.8,57.9 224.4,57.2 C226.8,56.1 229.4,55 231.9,54.1 C234.4,53.2 236.9,52 239.3,50.9 C241,50.1 242.8,49.2 244.6,48.5 C244.9,48.4 245.2,48.2 245.6,48.1 C247,47.5 248.4,46.9 250,46.8 L250.3,46.8 L250.7,47.8 C250.9,48.3 251.2,48.9 251.4,49.4 C252.4,51.7 253.8,52.2 256,51.1 C257,50.6 258,50 258.9,49.4 C259.4,49.1 259.8,48.8 260.3,48.5 L261.1,48 C262.2,47.3 263.3,46.7 264.4,46 C265.1,45.6 265.3,45.2 265.3,44.7 C265.1,43.1 265,41.7 264,40.5 C263.5,39.9 263.2,39.3 262.9,38.6 C262.6,38 262.4,37.5 262.2,36.9 C261.9,36.2 261.6,35.4 261.2,34.7 C258.4,29.1 255.9,23 253.7,16 C253.5,15.4 253.3,14.7 253.1,14.1 C252.5,12 251.8,9.8 250.7,7.9 C250.3,7.3 250,6.6 249.7,5.9 C249.5,5.5 249.4,5.2 249.2,4.8 C249.1,4.6 249,4.3 248.8,4.1 C248.5,3.4 248.2,2.7 247.8,2.1 C246.3,-0.1 244.3,-0.4 242.1,1.1 C240.6,2.1 239,3 237.4,3.8 C236.6,4.2 235.7,4.7 234.9,5.2 C234.6,5.4 234.3,5.7 234,5.9 C233.9,6 233.9,6 233.8,6.1 L236,11.8 L235.7,12 C235.5,12.1 235.4,12.2 235.3,12.2 C235.1,12.3 234.9,12.4 234.7,12.5 C232.1,13.5 229.5,14.6 226.8,15.6 C226.1,15.9 225.4,16.2 224.6,16.5 C222.7,17.2 220.8,18 218.9,18.7 C217.3,19.3 215.6,19.8 214,20.4 C212.3,21 210.6,21.5 208.9,22.1 C205.9,23.2 203,24.4 200.1,25.5 L199.3,25.8 C197.4,26.5 195.6,27.3 193.7,28 C189.1,29.8 184.3,31.6 179.7,33.7 C172.6,36.9 165.4,39.7 159.9,41.9 C159.3,42.1 158.6,42.3 158,42.5 C157.7,42.6 157.4,42.7 157.2,42.7 L157,42.8 L156.8,42.7 C156.5,42.4 156.2,42.2 155.9,41.9 C155.3,41.4 154.7,40.9 154.1,40.3 C153.5,39.6 152.8,39.5 151.9,39.9 C149.1,41.2 146.4,42.5 143.7,43.9 L140.9,45.3 C140.1,45.7 139.3,46.1 138.5,46.5 L136.7,47.4 L136.7,43.6 L140.4,42 C143,40.8 145.6,39.7 148.2,38.6 L150.3,37.6 C155,35.5 159.7,33.4 164.4,31.3 C166.1,30.5 167.6,29.7 169.1,28.9 C169.9,28.4 170.8,27.5 170.2,26.1 C168.8,22.4 167.2,18.6 165.4,14.4 C165.1,13.7 164.8,13.1 164.4,12.5 C164.2,12.2 164,11.8 163.9,11.5 C163.7,11.1 163.5,10.7 163.3,10.3 C162.9,9.5 162.5,8.6 162,7.8 C161.2,6.6 160.1,6.2 158.6,6.8 C158.3,6.9 158,7 157.6,7.2 C157,7.4 156.4,7.6 155.8,7.9 C152.2,9.6 148.6,11.2 145,12.9 L140.1,15.2 C135.9,17.2 131.7,19.1 127.5,21.1 C119.8,24.7 113.8,27.2 108,29.4 C105.3,30.4 102.5,31.6 99.9,32.7 C98,33.5 96,34.4 94,35.2 C92.7,35.7 91.3,36.2 90,36.6 C88.2,37.2 86.2,37.8 84.5,38.6 C82.1,39.7 79.6,40.5 77.2,41.3 C75.9,41.7 74.5,42.2 73.2,42.6 C72.9,42.7 72.5,42.8 72.1,42.9 C71.6,43 71.1,43.2 70.6,43.4 C70.2,43.6 70,43.8 69.9,44 C69.8,44.2 69.9,44.6 70.3,45.1 C71,46.3 71.8,47.7 72.4,49.3 C72.9,50.5 73.3,51.6 73.8,52.8 C74.2,53.8 74.6,54.8 75,55.8 C75.4,56.7 75.8,57.6 76.3,58.5 C76.5,58.9 76.7,59.3 76.9,59.8 C77.1,60.3 77.4,60.8 77.6,61.3 C78.1,62.4 78.6,63.6 79.3,64.7 C80.4,66.6 82.1,67.1 84,66.3 C84.9,65.9 85.7,65.5 86.6,65.1 C87.4,64.7 88.3,64.3 89.2,63.9 C90.7,63.3 92.2,62.7 93.8,62.1 C95.8,61.3 98,60.5 100,59.6 C100.8,59.2 101.6,58.9 102.4,58.6 C104.3,57.8 106.3,57 108.1,55.9 C109.4,55.1 110.8,54.7 112.2,54.3 C112.8,54.1 113.4,54 113.9,53.8 L114.2,53.7 L116.1,56.1 L115.7,56.3 C115,56.6 114.3,57 113.6,57.3 C112.1,58 110.5,58.8 109,59.5 C107.8,60 106.7,60.6 105.6,61.3 C103.7,62.3 101.8,63.4 99.6,64 C98.9,64.2 98.3,64.5 97.8,64.8 C96.7,65.5 96.4,66.3 96.8,67.6 C97,68.1 97.2,68.5 97.4,69.1 C97.5,69.4 97.6,69.6 97.8,69.9 L97.9,70.2 L97.6,70.4 C95.9,71.3 94.2,72.1 92.5,73 C88.6,75 84.7,77 80.7,78.9 C76.8,80.8 72.6,82.6 68.9,84.1 C62.7,86.7 56.4,89.3 51.1,91.4 C49.5,92.1 47.8,92.7 46.2,93.3 C45.4,93.6 44.6,93.9 43.9,94.2 C43.4,94.4 43.1,94.6 43.1,94.7 C43,94.9 43.1,95.2 43.4,95.7 C43.7,96.4 44,97 44.4,97.7 C44.7,98.3 45,98.9 45.3,99.5 C45.6,100.1 45.7,100.6 45.5,101 C45.3,101.4 45,101.8 44.4,102 C42.4,102.9 40.3,104 38.4,105.3 C37.4,106 36.3,106.7 35.2,107.4 C34.2,107.9 33.3,108.4 32.3,109 C30.7,109.8 29,110.7 27.5,111.7 C24.8,113.4 21.9,113.7 18.9,112.4 C16.7,111.5 15,111.7 13,113.2 C12,113.9 10.9,114.5 9.8,115.1 C9.2,115.4 8.5,115.8 7.9,116.1 C7.2,116.5 6.2,117.1 5.3,117.8 C4.6,118.4 4.5,119.1 4.9,120 C5.5,121.3 6,122.7 6.5,124 L6.8,124.9 C8.4,128.8 10,132.7 12,136.4 C13.1,138.4 14.1,140.6 15.1,142.6 L15.5,143.4 C16,144.5 16.5,145.7 17,146.9 C17.3,147.5 17.6,148.2 17.8,148.8 C17.9,149 18,149.2 18.2,149.3 C18.4,149.5 18.5,149.7 18.7,149.9 C19.1,150.3 19.5,150.8 19.7,151.3 C20.4,152.8 21.1,154.4 21.8,155.9 C22.2,156.7 22.5,157.5 22.9,158.3 C23.4,159.4 24.3,160 25.3,160 C25.9,160 26.6,159.7 27.2,159.2 C27.5,159 27.8,158.7 28.1,158.4 C28.3,158.2 28.4,158.1 28.6,157.9 C28.7,157.8 28.8,157.7 28.8,157.7 C29,157.5 29.3,157.2 29.6,157 C30,156.8 30.5,156.5 30.9,156.3 C32.2,155.6 33.5,154.9 35,154.4 C37.1,153.7 37.9,152.6 37.5,150.6 C37.5,150.4 37.5,150.2 37.5,150 L37.5,149.8 L38.2,140.9 L38.4,140.8 C39.1,140.4 39.8,139.9 40.5,139.5 C42.2,138.4 44,137.4 45.8,136.3 C47.3,135.4 48.9,134.6 50.5,133.9 C50.9,133.7 51.3,133.5 51.7,133.4 C54.2,132.3 56.5,131.3 58.3,129.2 L58.5,128.9 L58.8,129.1 C58.9,129.2 58.9,129.2 59,129.2 C59.1,129.3 59.3,129.4 59.3,129.5 L59.5,129.9 C60.1,131.1 60.8,132.4 61.4,133.6 C62,134.9 63,135.7 64.2,135.7 C64.9,135.7 65.7,135.4 66.4,134.9 L66.8,134.6 C67.5,134.1 68.1,133.5 68.9,133.1 C70.4,132.3 71.9,131.5 73.4,130.8 C74.2,130.4 75.1,130 75.9,129.5 C76.7,129.1 77.5,128.7 78.3,128.3 C79.4,127.7 80.6,127.1 81.7,126.5 C82,126.3 82.4,126.2 82.7,126.1 C83,126 83.3,125.9 83.6,125.8 C85.4,124.9 87.3,124 89.1,123.1 C90.7,122.3 92.2,121.5 93.8,120.8 C94.6,120.4 95.3,120.1 96.1,119.7 C97.2,119.2 98.4,118.6 99.5,118 C101.2,117.1 102.9,116.1 104.7,115.2 C106.8,114 109.1,112.8 111.3,111.7 C112.6,111 113.9,110.4 114.3,108.8 L114.4,108.5 L115.4,108.5 L115.8,109.3 C116.1,109.8 116.3,110.2 116.5,110.7 C117.7,113.1 119.2,113.7 121.7,112.8 C125.4,111.4 128.8,110.1 131.9,108.7 C133,108.2 134.1,107.6 135.2,107 C135.8,106.7 136.3,106.4 136.9,106.1 C137.7,105.7 138.5,105.3 139.4,104.9 L141.4,103.9 L141,104.8 C140.1,106.8 139.1,108.6 138.1,110.3 L138,110.4 C137.8,110.7 137.7,111 137.5,111.2 C137.1,111.9 136.7,112.5 136.4,113.2 C135.9,114.3 135.4,115.4 135,116.6 C134.5,117.8 133.9,119.1 133.4,120.4 C133,121.4 132.5,122.3 132,123.2 C131.5,124.1 131,125 130.6,126 C129.6,128.1 128.7,130.2 127.8,132.4 C127.1,134 126.4,135.6 125.7,137.2 C124.7,139.4 123.7,141.7 122.6,143.9 C121.6,146.1 120.5,148.4 119.5,150.6 C119.3,151 119.2,151.3 119,151.7 C118.5,152.8 117.9,153.9 117.7,155.1 C117.1,158.1 116.1,161.1 115,163.9 C114.4,165.4 113.9,167 113.4,168.6 C112.9,170.3 112.2,172.1 111.6,173.8 C111.1,175.1 110.7,176.3 110.3,177.6 C110,178.6 109.6,179.7 109.3,180.8 C108.8,182.7 108.2,184.7 107.4,186.5 C106.4,188.7 105.8,191 105.2,193.3 C104.7,195 104.3,196.7 103.6,198.4 C103.4,199 103.1,199.6 102.9,200.3 L102.4,201.6 L102.1,201.5 C101.8,201.4 101.5,201.3 101.2,201.1 C100.6,200.9 100.1,200.7 99.6,200.5 C99.1,200.3 98.6,200.2 98.1,200 C97,199.6 95.9,199.2 94.6,199.2 C94.3,199.2 94,199.2 93.7,199.3 C91,199.7 89.3,201.1 88.2,203.6 C86.9,206.7 86.8,209.4 88,212 C89.2,214.8 90.3,217.2 93.6,217.7 C94,217.8 94.4,218 94.8,218.1 C94.9,218.2 95,218.2 95.1,218.3 C95.8,218.6 96.5,219 97.1,219.4 C98.5,220.2 100,221 101.7,221.4 C103.4,221.8 105.1,222.3 106.7,222.8 L107.4,223 C107.8,223.1 108.1,223.3 108.5,223.5 C108.6,223.6 108.8,223.7 109,223.7 L109.3,223.8 L109.2,224.1 C109,224.6 108.9,225.1 108.8,225.6 C108.5,226.6 108.2,227.6 107.9,228.5 C106.1,233.3 104.2,239.8 104.6,246.9 C104.7,248.7 104.7,250.5 104.8,252.2 C104.9,255.8 104.9,259.5 105.5,263.1 C105.7,264.1 105.8,265.1 105.9,266.1 C105.9,266.6 106,267 106.1,267.4 L106.1,267.7 L105.9,267.8 C105.8,267.8 105.7,267.9 105.7,267.9 C105.5,268 105.4,268.1 105.1,268.1 C101.2,268.3 97.8,270 94.9,271.5 C92.3,272.9 90.7,275.2 90.3,278.2 C90.1,279.4 90.4,280.5 90.6,281.7 C90.7,282.2 90.8,282.7 90.9,283.1 C91.1,284.7 91.4,286.4 91.6,288 C91.9,290.2 92.2,292.4 92.5,294.6 C92.7,295.8 92.9,296.9 93.1,298.1 C93.2,298.6 93.3,299.2 93.4,299.8 L93.5,300.1 L93.2,300.2 C93,300.3 92.9,300.3 92.7,300.4 C92.4,300.5 92.2,300.6 91.9,300.6 C87.5,300.9 84.3,303.6 81.5,306.3 C81.2,306.6 81,307.4 81.1,307.9 C81.3,309.6 81.6,311.3 81.9,313.1 C82.3,315.3 83.4,316.7 85.2,317.4 C85.8,317.6 86.4,317.9 87,318.2 C87.7,318.6 88.5,318.9 89.3,319.2 C91.4,319.9 93.7,320.5 96.4,321.2 C98.6,321.7 100.8,321.8 103,321.9 C104,321.9 105,322 106,322 C111,322.4 115.9,321.7 121,319.9 C121.8,319.6 122.6,319.5 123.3,319.3 C123.6,319.2 123.8,319.2 124.1,319.1 C125.5,318.8 126.3,318.3 126.7,317.4 C127.3,316.1 128.3,315.6 129.9,315.9 C130.3,316 130.7,316 131,316.1 C131.4,316.2 131.8,316.2 132.2,316.3 C133.1,316.5 134,316.6 134.9,316.8 C136.7,317.1 138.6,317.5 140.5,317.7 C142.9,318 145.4,318.3 148.3,318.5 C149.1,318.6 150,318.6 150.8,318.7 C153.7,318.9 156.7,319.2 159.7,319.2 C163,319.2 166.3,319.1 169.5,319 C171.4,318.9 173.4,318.9 175.3,318.9 L175.5,318.9 C176.1,318.9 176.8,319 177.4,319 C178,319.1 178.6,319.1 179.2,319.1 L179.4,319.1 C184.2,319 189,318.9 194.2,318.7 L195.9,318.6 C198.7,318.5 201.5,318.4 204.3,318.2 C207,317.9 209.8,317.6 212.5,317.2 C214,317 215.6,316.8 217.1,316.6 L218.4,316.5 C221.9,316.1 225.5,315.7 228.9,314.6 C231.3,313.8 233.9,313.2 236,312.7 C236.3,312.6 236.6,312.6 237,312.6 C237.3,312.6 237.5,312.6 237.8,312.6 C238.1,312.6 238.4,312.6 238.7,312.6 L239,312.6 L239,312.9 C239,313.2 239.1,313.5 239.1,313.8 C239.1,314.4 239.2,314.9 239.3,315.4 C239.4,315.8 239.4,316.2 239.5,316.5 C239.6,316.9 239.7,317.3 239.7,317.7 C240,319.7 241.3,321 243.2,321.3 C243.4,321.3 243.7,321.3 243.9,321.3 C244.2,321.3 244.6,321.3 244.9,321.4 C249.5,322.4 254.2,322.5 258.7,322.6 L260.8,322.6 C261.2,322.6 261.6,322.6 262.1,322.6 C265.1,322.6 267.8,322.3 270.4,321.7 C272.5,321.2 274.5,320.8 276.6,320.4 L279.1,319.9 C281.2,319.5 283.2,318.7 285.3,317.5 C286.5,316.8 287.4,316.1 287.6,314.6 C287.7,313.7 288,312.8 288.2,311.9 C288.4,311.2 288.6,310.6 288.7,309.9 C287.1,309.5 287.3,308.6 287.1,308.2 Z M262.4,300.9 L262.5,300.6 L262.8,300.6 C267.9,300.6 273.4,300.9 278.6,303.3 L278.8,303.4 L278.8,303.7 C278.6,305 277.7,305.5 276.8,305.8 C273.1,307.1 270.2,307.8 267.3,308 C264.5,308.2 261.7,308.5 258.5,308.8 C257.6,308.9 257.1,308.9 256.6,308.9 C255.7,308.9 255,308.7 253.9,308.2 L253.1,307.9 L253.9,307.5 C254.2,307.3 254.6,307.2 254.9,307 C255.6,306.6 256.3,306.2 257.1,306 C259.7,305.5 261.4,303.7 262.4,300.9 Z M237.9,226.4 C238.1,227 238.3,227.6 238.5,228.2 C238.9,229.4 239.3,230.6 239.4,231.9 C239.6,234.1 239.9,236.3 240.2,238.5 C240.8,243 241.5,247.6 241.4,252.3 C241.4,257.3 241.8,262.4 242.8,267.6 C243,268.8 243.1,270 243.2,271.2 C243.3,271.8 243.3,272.4 243.4,273 L243.4,273.3 L243.1,273.4 C240.9,274.3 238.7,274.4 236.5,274.6 C235.1,274.7 233.7,274.8 232.3,275.1 L231.9,275.2 L231.6,272.9 C231.4,271.6 231.3,270.4 231.1,269.1 C230.6,265.1 230,261 229.5,257 L229.3,255.4 C229.1,253.6 228.8,251.7 228.5,249.9 C228.3,248.9 228.1,247.9 227.9,246.9 C227.8,246.4 227.7,245.9 227.6,245.4 C226.6,240.4 225.4,236 223.9,232.1 C222.9,229.5 221.8,227 220.7,224.5 C220.2,223.3 219.7,222.2 219.2,221 C219,220.6 218.8,220.1 218.7,219.7 L218.3,218.7 L230.3,211.9 L230.5,212 C231.5,212.5 232,213.2 232.3,214.2 C232.4,214.5 232.6,214.8 232.9,215.2 C233.1,215.4 233.2,215.7 233.4,215.9 C235.5,219.6 237,223 237.9,226.4 Z M137.4,266.5 C144.4,268.5 151.3,269.6 158.1,269.9 C159.4,269.9 160.7,270.1 161.9,270.3 C162.9,270.5 164,270.6 165,270.7 C166.1,270.8 167.3,270.8 168.7,270.8 C169.6,270.8 170.4,270.8 171.3,270.8 L171.7,270.8 C172.8,270.8 173.9,270.9 175,270.9 C177,271 179,271.1 180.7,270.9 C182.7,270.6 184.8,270.4 186.8,270.2 C188.5,270 190.3,269.9 192,269.6 C193.2,269.5 194.4,269.3 195.5,269.1 C197.1,268.8 198.8,268.5 200.5,268.4 C203.4,268.2 205.9,267.2 208.7,266.1 L209.9,265.6 C210.6,265.3 211.2,265.1 212,264.9 C212.3,264.8 212.7,264.7 213,264.6 L213.3,264.5 L213.4,264.8 C214.1,266.5 214.3,268.2 214.4,269.8 C214.5,270.3 214.5,270.9 214.6,271.4 C214.7,272.4 214.1,272.8 213.6,273.1 L213.4,273.2 C210.7,275 207.6,276.3 204.3,276.9 C201.3,277.5 198,278.1 194.1,278.7 C190.3,279.3 186.2,279.5 181.1,279.5 C179.9,279.5 178.7,279.5 177.6,279.5 C177.3,279.5 177,279.5 176.7,279.5 C176.5,279.5 176.3,279.5 176.1,279.5 C175.4,279.5 174.7,279.6 174,279.6 C172.8,279.7 171.6,279.7 170.4,279.7 C170,279.7 169.5,279.7 169.1,279.7 C165,279.5 161.7,279.2 158.8,278.8 C157.7,278.6 156.6,278.5 155.5,278.4 C152.1,278 148.6,277.6 145.3,276.4 C145,276.3 144.7,276.3 144.4,276.3 C144.1,276.3 143.8,276.3 143.5,276.3 C141.5,275.9 139.6,275.6 137.5,275.2 L135,274.7 L134.9,274.5 C134.1,271.4 133.7,268.6 133.2,265.7 L133.1,265.1 L134.9,265.7 C136,266.1 136.7,266.3 137.4,266.5 Z M135.4,262.2 L136.1,261.8 C136.5,261.6 136.8,261.4 137.1,261.2 C137.8,260.8 138.4,260.5 139,260.2 C140.5,259.6 142,259.2 143.5,258.8 C145.5,258.3 147.5,257.7 149.5,257.3 C150.3,257.1 151.1,257.1 151.9,257 C152.4,257 152.9,256.9 153.5,256.8 C154.8,256.6 155.9,256.5 157,256.2 C159.9,255.5 163,255.2 166.4,255.2 L166.9,255.2 C171.8,255.2 176.8,255.7 181.7,256.1 L181.9,256.1 C183.1,256.2 184.6,256.2 186.1,256.1 C186.7,256.1 187.4,256.1 188,256.1 C188.1,256.1 188.1,256.1 188.2,256.1 C188.4,256.1 188.6,256.1 188.8,256.1 C189.9,256.4 191,256.6 192.5,256.6 C193.3,256.6 194,256.6 194.8,256.5 C196,256.4 197.2,256.4 198.4,256.5 L199.2,256.5 C201.2,256.6 203.3,256.8 205.4,257.6 C206.4,258 207.5,258.3 208.5,258.5 C209.1,258.6 209.6,258.8 210.2,258.9 C210.5,259 210.7,259.1 210.9,259.3 C211,259.4 211.1,259.4 211.1,259.5 L211.3,259.6 L211.4,260.6 L211.2,260.7 C210.9,260.8 210.6,261 210.3,261.1 C209.5,261.5 208.7,261.9 207.8,262.2 C207.7,262.2 207.6,262.3 207.5,262.3 C207.2,262.3 206.9,262.2 206.6,262.1 C206.5,262 206.3,262 206.2,262 C205.8,261.9 205.4,261.8 205,261.7 C204.1,261.5 203.2,261.2 202.4,261 C198.2,260.3 193.9,260.2 189.7,260.1 C187.2,260 184.7,260 182.2,259.8 L181.8,259.8 C180.5,259.7 179.2,259.6 178,259.4 C176.4,259.2 174.7,259 172.6,259 C171.3,259 169.9,259 168.6,259.1 C167.3,259.1 165.9,259.2 164.5,259.2 L163.9,259.2 C160.8,259.2 157.8,259.7 154.8,260.3 C152.7,260.7 150.5,261.1 148.4,261.2 C146.4,261.4 144.5,261.9 142.6,262.4 L141.5,262.7 C141.2,262.8 140.9,263.1 140.5,263.4 C140.3,263.6 140.1,263.8 139.9,263.9 L139.7,264 L135.4,262.2 Z M214.1,256.1 C210.9,255 207.5,254.2 204.2,253.5 L203.9,253.4 C202,253 200,252.7 198.1,252.7 C194.9,252.6 191.6,252.6 188.4,252.5 C185.9,252.5 183.3,252.4 180.8,252.4 C179,252.4 177.1,252.2 174.6,251.9 C167.7,251.1 161.1,251.4 154.8,252.7 C153.8,252.9 152.8,253 151.9,253.1 C150.9,253.2 149.9,253.3 149,253.5 C144.7,254.4 139.8,255.6 135.1,257.6 C133.6,258.2 132,258.5 130.5,258.8 C129.4,259 128.9,259.2 128.6,259.5 C128.4,259.8 128.4,260.4 128.6,261.4 C128.8,262 128.9,262.7 129.1,263.4 L129.5,264.9 L123,264.9 L123,264.6 C122.9,264 122.9,263.3 122.8,262.7 C122.6,261.2 122.5,259.7 122.4,258.2 C122.4,256.8 122.4,255.4 122.5,254 C122.5,253.2 122.6,252.4 122.6,251.6 C122.7,247 123.2,242 124.1,235.8 C124.4,234 124.6,232.2 124.9,230.4 L125.3,227.7 L125.6,227.7 C126.2,227.6 126.9,227.6 127.5,227.6 C131.2,227.6 134.8,228.5 138.3,229.4 C139.1,229.6 140,229.8 140.8,230 L141.1,230.1 L141.1,230.4 C141.1,230.7 141.1,231 141.1,231.3 C141.1,231.9 141.1,232.6 141.1,233.2 C141,234.3 141.1,235 141.5,235.4 C141.9,235.8 142.5,236 143.4,236.1 C146,236.2 148.7,236.2 151.3,236.2 L153.8,236.2 C154.9,236.2 156.1,236.2 157.3,236.1 C158,236.1 158.3,235.7 158.4,234.9 C158.5,234 158.6,233.1 158.7,232.1 L158.9,230.4 L160.2,230.3 C160.9,230.3 161.6,230.2 162.3,230.2 L164.8,230 C167.7,229.8 170.7,229.6 173.6,229.3 C174.7,229.2 175.8,229 176.8,228.9 C178.1,228.7 179.5,228.5 180.9,228.4 C184.9,228.1 188.3,227.7 191.2,227 C192.1,226.8 193.1,226.6 194.1,226.4 C196.2,226 198.3,225.6 200.3,224.6 C201.8,223.8 203.6,223.5 205.2,223.2 C206.1,223 207,222.8 207.9,222.6 C209.3,222.2 210.7,221.7 212.4,221.1 C212.7,221 212.9,220.9 213.2,220.9 C214,220.9 214.4,221.5 214.6,221.9 C214.8,222.3 215.1,222.8 215.4,223.2 C216.3,224.7 217.2,226.3 217.8,228.2 C218.4,230.1 219.1,232 219.8,233.8 C220.4,235.4 221,237.1 221.6,238.8 C223.1,243.4 224.1,248.4 224.7,253.5 C224.9,255.3 225.1,257.1 225.4,259 L225.8,262.1 L219,261.5 L218.9,261.2 C218.4,258.7 216.9,257.1 214.1,256.1 Z M149.3,225.5 C149.4,225.5 149.6,225.4 149.8,225.4 C150,225.4 150.6,225.4 150.9,225.8 C152.3,227.5 153.5,229.2 154.5,230.6 C154.7,230.9 154.7,231.2 154.7,231.4 C154.7,231.5 154.7,231.6 154.7,231.7 L154.8,232 L154.5,232.1 C152.6,232.6 151.2,232.8 149.6,232.8 C148.4,232.8 147.1,232.7 145.5,232.4 L145.3,232.4 L145.2,232.2 C144.7,230.9 145,229.7 145.3,228.5 C145.4,228.1 145.5,227.7 145.6,227.3 C145.7,226.7 146.6,226.3 146.7,226.3 C147.6,226 148.5,225.7 149.3,225.5 Z M148.4,217 C145.5,217 143.2,215.5 141.4,212.2 C141.1,211.6 140.7,211.1 140.4,210.5 L140.3,210.4 C140.2,210.3 140.2,210.2 140.1,210.1 C139.9,209.9 139.7,209.6 139.7,209.3 C139.7,208.4 139.6,207.4 139.4,206.5 C139.2,204.7 138.9,202.9 139.5,201 C139.7,200.4 139.9,199.7 140.1,199.1 C140.2,198.7 140.3,198.3 140.4,198 C140.9,196.2 141,196.1 142.6,194.7 L142.8,194.6 L143,194.6 C144.2,194.9 145.4,194.9 146.8,194.3 C148.9,193.5 151.1,193.8 153.2,195.1 C157.5,197.7 159.5,201.7 159.3,207 C159.3,207.2 159.3,207.4 159.3,207.6 C159.3,207.9 159.3,208.3 159.3,208.6 C159.4,212.2 155.5,216 152.5,216.3 C152,216.3 151.4,216.4 150.9,216.5 C150.3,216.6 149.6,216.7 148.9,216.7 C148.8,217 148.6,217 148.4,217 Z M239.5,7.1 C240.4,6.6 241.4,6.1 242.3,5.5 C242.7,5.3 243.1,5 243.5,4.8 L243.8,4.6 L244,4.9 C246.4,8 247.5,11.5 248.5,14.9 L248.7,15.7 C248.9,16.2 249,16.7 249.1,17.2 C249.3,17.9 249.5,18.6 249.7,19.3 L250.8,22.1 C252.4,26.6 254.1,31.2 256,35.6 C256.8,37.5 257.8,39.4 258.9,41.2 C259.2,41.6 259.4,42.1 259.6,42.5 C260.6,44.2 260.6,44.5 258.9,45.6 C258,46.1 257.2,46.6 256.2,47 C255.9,47.1 255.7,47.2 255.4,47.2 C254.8,47.2 254.2,46.8 253.8,46.1 C253,44.5 252.1,43 251.2,41.4 C250.4,39.9 249.6,38.5 248.8,37 C245.6,31 243.3,25.5 241.9,20.3 C241.6,19.4 241.3,18.5 240.9,17.6 L240.6,16.8 C240.4,16.4 240.3,16 240.1,15.5 C239.8,14.8 239.5,14.2 239.3,13.5 C239.1,12.8 238.9,12 238.7,11.3 C238.6,10.8 238.5,10.3 238.3,9.8 C238.1,8.6 238.5,7.7 239.5,7.1 Z M235.7,15.9 L235.9,16.1 C236.7,17.1 237.1,18.3 237.5,19.5 C237.6,19.8 237.7,20.1 237.8,20.3 C238.2,21.4 238.6,22.6 239,23.7 C240,26.7 241.1,29.8 242.3,32.8 C243,34.5 244,36.2 245,37.8 C245.5,38.6 246,39.5 246.5,40.3 C246.8,40.8 247,41.4 247.3,42 C247.4,42.3 247.6,42.6 247.7,43 L247.9,43.3 L232.5,50.2 L232.3,49.9 C230,45.1 228.4,40.2 227,35.6 C226.8,35 226.6,34.4 226.4,33.9 C225.5,31.7 224.5,29.5 223.6,27.2 L221.7,22.6 C221.6,22.5 221.6,22.3 221.6,22.1 L221.5,21.6 L235.7,15.9 Z M157.5,46.6 C163.1,44.3 168.7,42 174.2,39.7 C187.9,33.9 202,28 216.7,23.4 L217,23.3 L217.1,23.6 C217.4,24.1 217.6,24.6 217.9,25.1 C218.5,26.2 219.1,27.3 219.6,28.4 C221.3,31.9 222.5,35.6 223.7,39.1 C224.4,41.2 225.1,43.4 225.9,45.5 L226.1,46.2 C226.7,48 227.4,49.8 229.4,51.1 L230,51.5 L229.3,51.8 C218.7,56.1 208.2,61 198,65.8 C189.6,69.7 180.8,73.8 172.1,77.5 L171.8,77.6 L171.6,77.3 C166.6,68.1 162.5,59 158.1,49.2 L157.1,46.8 L157.5,46.6 Z M154.2,13.1 C155,12.3 156.1,11.9 157.2,11.5 C157.6,11.3 158.1,11.2 158.6,11 L158.9,10.9 L159,11 C161.3,14.5 162.6,18.2 163.9,22.1 C164.4,23.6 164.9,25.2 165.5,26.7 L165.6,27 L161.8,28.8 L154,13.3 L154.2,13.1 Z M101.3,35.6 C103,34.9 104.8,34.2 106.6,33.5 C109.4,32.4 112.3,31.3 115.1,30.1 C118,28.9 120.9,27.5 123.6,26.3 C125.6,25.4 127.7,24.4 129.7,23.5 C131.2,22.9 132.7,22.3 134.1,21.7 C134.7,21.5 135.4,21.2 136,21 L136.2,20.9 L136.4,21.1 C137.6,22.3 138.3,23.1 138.2,23.8 C138.1,24.5 137.2,25 135.7,25.7 C133.6,26.7 131.5,27.7 129.4,28.8 C127.7,29.7 125.9,30.6 124.2,31.4 C121.9,32.5 119.6,33.5 117.3,34.4 L115.3,35.2 C113.1,36.1 110.9,37 108.8,37.8 C106.1,38.9 103.9,39.7 101.9,40.4 C101.5,40.5 101.2,40.6 100.9,40.6 C99.9,40.6 99.6,39.5 99.5,38.9 C99,36.9 99.3,36.4 101.3,35.6 Z M81.7,63.8 L81.1,62.5 C80.7,61.8 80.4,61 80,60.3 C79.6,59.4 79.1,58.6 78.7,57.7 C77.8,55.9 76.9,54.1 76,52.3 C75.3,50.8 74.8,49.1 74.3,47.6 L74.2,47.1 C74.1,46.7 74.2,46 74.4,45.7 C74.5,45.5 74.6,45.4 74.7,45.4 C74.9,45.3 75.1,45.3 75.3,45.3 C75.5,45.3 76.1,45.3 76.5,45.7 C77.1,46.3 77.7,47 78.1,47.8 C79.2,50.2 80.4,52.5 81.5,54.9 C82.2,56.3 82.9,57.8 83.5,59.2 C83.8,59.8 84.1,60.3 84.4,61 C84.6,61.3 84.7,61.6 84.9,62 L85.1,62.4 L81.7,63.8 Z M88.7,60.9 L88.4,61 L88.2,60.7 C88.1,60.4 87.9,60.2 87.7,59.9 C87.3,59.3 87,58.7 86.7,58.1 C85.9,55.8 85,53.8 84,52 C83,50.2 82.2,48.3 81.3,46.4 C80.9,45.6 80.6,44.7 80.2,43.9 L80,43.5 L80.4,43.4 C81.2,43.1 81.9,42.8 82.7,42.4 C84.4,41.6 86.1,40.9 87.9,40.4 C90.5,39.7 92.6,39 94.7,37.9 L95.1,37.7 L95.2,38.1 C95.4,38.6 95.6,39.1 95.7,39.6 C96.1,40.6 96.5,41.6 96.7,42.6 C97.1,44.2 98.2,45.2 99.6,45.2 C100.2,45.2 100.9,45 101.6,44.6 C102.9,43.8 104.3,43.1 105.7,42.5 L106.5,42.1 C109.1,40.9 111.2,39.9 113.4,39 C115,38.3 116.5,37.7 118.1,37.1 C120.4,36.2 122.8,35.2 125.1,34.2 C127.4,33.2 129.6,32.1 131.8,31 C133.4,30.2 134.9,29.4 136.5,28.7 C137.5,28.2 138.5,27.9 139.5,27.7 L140.2,27.5 C141.3,27.2 142.1,26.5 142.4,25.7 C142.7,24.9 142.5,24 141.9,23 C141.4,22.3 140.9,21.6 140.4,20.9 C140.1,20.6 139.9,20.2 139.6,19.8 L139.4,19.5 L139.7,19.3 C141.5,18.2 143.3,17.5 145.2,16.8 C146.9,16.2 148.7,15.5 150.3,14.5 L150.6,14.3 L158.8,30.4 L158.4,30.6 C149.8,34.3 141.1,38.2 132.6,41.9 C118.5,48.3 103.6,54.9 88.7,60.9 Z M133.9,48.5 L117.8,55.6 L117.8,52 L118,51.9 C118.8,51.5 119.6,51.1 120.4,50.7 C124.1,48.9 127.9,47 132.1,45.8 L132.4,45.7 L132.8,46.3 C133,46.6 133.1,46.8 133.3,47 C133.4,47.2 133.5,47.4 133.7,47.7 L133.9,48.5 Z M28.4,152.9 C28.3,153 28.2,153.1 28.1,153.2 C27.2,153.5 26.6,153.7 26.1,153.7 C25.1,153.7 24.8,153 24,151.6 C21.5,147.1 19.1,142.5 16.9,137.7 C16.4,136.7 15.8,135.6 15.2,134.7 C14.8,134 14.3,133.2 13.9,132.5 C13.2,131.1 12.5,129.7 11.9,128.3 L11.4,127.3 C11.3,127 11.1,126.6 11,126.3 C10.8,125.8 10.6,125.3 10.3,124.8 C9.2,123.1 8.7,121.3 8.6,119.1 L8.6,118.8 L10.7,117.9 L28.6,152.9 L28.4,152.9 Z M31.9,149.7 L14.5,116.1 L15,116 C15.7,115.9 16.3,115.8 16.9,115.8 C19.1,115.8 20.5,116.8 21.4,119.2 C21.6,119.7 21.8,120.3 22,120.8 C22.3,121.6 22.5,122.4 22.9,123.1 C24.1,125.8 25.5,128.5 26.7,131.1 L28.4,134.5 C29.5,136.8 30.7,139.2 31.9,141.5 C32.1,141.9 32.4,142.3 32.8,142.7 C33,142.9 33.1,143.1 33.3,143.3 L33.4,143.4 L31.9,149.7 Z M56.9,127.1 C55.7,127.6 54.6,128.2 53.4,128.7 C50.8,129.9 48.3,131.1 45.8,132.4 C43.8,133.4 41.9,134.5 39.9,135.6 C38.4,136.5 36.8,137.3 35.2,138.2 L34.9,138.4 L34.7,138 C33.5,135.5 32.1,133.1 30.9,130.7 C28.3,125.9 25.8,121.4 24.2,116.2 L24.1,116 L24.3,115.8 C26.1,114.4 28.3,113.4 30.3,112.6 C32,111.9 33.7,111.2 35.2,110.2 C37.6,108.6 40,107.1 42.4,105.7 C43.5,105.1 44.5,104.4 45.6,103.7 L46,103.5 L57.4,126.9 L56.9,127.1 Z M64.2,131 L64,130.8 C62.9,129.8 62.3,128.6 61.7,127.4 C61.6,127.1 61.4,126.9 61.3,126.6 C60,124 58.6,121.3 57.4,118.7 L56.2,116.2 C55.7,115.2 55.2,114.2 54.8,113.2 L53.6,110.8 C53,109.5 52.3,108.1 51.7,106.8 C51.3,105.8 50.9,104.9 50.5,103.9 L50.3,103.3 C50.1,102.8 49.9,102.2 49.7,101.7 C49.4,100.9 49.1,100.1 48.7,99.2 C48.2,98 47.9,96.9 49.4,96.2 C51.3,95.4 53.1,94.6 55.1,93.8 C55.9,93.5 56.7,93.1 57.6,92.8 L57.9,92.7 L58.1,93 C58.9,94.7 59.8,96.4 60.6,98.1 C62.5,102 64.3,105.7 66.4,109.3 C67.9,111.9 69.1,114.7 70.3,117.5 C71.5,120.2 72.7,123 74.2,125.7 L74.4,126 L64.2,131 Z M112.7,106.3 C101.5,112.4 89.9,118.8 77.7,123.9 L77.4,124 L77.2,123.8 C75.6,121.5 74.8,118.9 74.2,116.9 C73.6,114.8 72.9,113 72,111.7 C70.1,108.9 68.7,105.8 67.2,102.8 C66.6,101.5 65.9,100.1 65.2,98.7 C64.4,97.1 63.7,95.5 63,93.8 C62.7,93 62.4,92.3 62,91.5 L61.9,91.2 L98.4,74.1 L98.5,74.5 C102.4,85.4 107.2,95.9 112.7,105.8 L112.9,106.1 L112.7,106.3 Z M136.6,101.4 C132.8,103.3 128.9,105.3 125,107.2 C124,107.7 123,108.1 121.9,108.4 C121.5,108.6 121,108.7 120.6,108.9 C120.4,109 120.1,109 119.9,109 C119.2,109 118.8,108.5 118.5,108 C116.6,105.1 115.4,102.7 114.5,100.2 C114.4,99.9 114.2,99.6 114,99.3 L113.8,99 C111.4,95.7 109.7,92.2 108.4,88.2 C107.9,86.6 107.2,85.1 106.4,83.6 C106,82.7 105.5,81.7 105.1,80.8 C104.8,80.1 104.5,79.4 104.1,78.7 C103.1,76.6 102.1,74.4 101.9,72 C101.9,71.6 101.7,71.3 101.5,70.9 C101.4,70.6 101.2,70.3 101.1,70 C100.9,69.4 100.8,68.8 100.7,68.3 C100.7,68.1 100.6,67.9 100.6,67.7 L100.5,67.4 L100.8,67.3 C102.1,66.6 103.3,66 104.5,65.3 C107.4,63.7 110.2,62.3 113,60.8 C114.4,60.1 115.9,59.5 117.4,59 C118.4,58.6 119.4,58.2 120.4,57.8 C121.9,57.2 123.3,56.5 124.8,55.8 C126.3,55.1 127.7,54.4 129.2,53.8 C130.5,53.3 131.8,52.7 133.1,52.2 C134.7,51.6 136.4,50.9 138,50.2 C139.4,49.6 140.8,48.8 142.1,48.1 C143.1,47.6 144,47.1 145,46.6 C146.2,46 147.4,45.5 148.7,44.9 C149.3,44.6 149.9,44.4 150.5,44.1 L150.8,44 L151,44.3 C151.2,44.5 151.3,44.8 151.5,44.9 C151.8,45.3 152,45.6 152.2,46 C152.7,47.2 153.2,48.3 153.7,49.5 C154.1,50.3 154.4,51.2 154.8,52 C156.1,54.9 157.4,57.8 158.7,60.6 C160.7,64.9 162.5,68.7 164.2,72.2 C164.7,73.2 165.2,74.3 165.7,75.3 C166.6,77 167.4,78.8 168.2,80.6 C169.4,83.4 169.4,84.1 166.3,85.7 C161.4,88.4 156.5,91 150.6,94.1 C148.3,95.3 146,96.5 143.7,97.6 C142.7,98.1 141.6,98.6 140.6,99.2 L136.6,101.4 Z M107,219.9 L107.1,218 C107.2,216.8 107.2,215.6 107.3,214.4 C107.3,213.8 107.1,213.3 106.5,213 C106.3,212.9 105.9,212.9 105.6,213 C105.5,213 105.5,213 105.4,213 L104.8,219.3 L101.4,218.2 L101.6,216.6 C101.7,215.6 101.8,214.7 101.9,213.8 C102,212.8 101.8,212.5 101.3,212.4 C100.7,212.3 100.5,212.6 100.3,213.6 C100.1,214.3 100,214.9 99.8,215.7 L99.4,217.3 L99,217.2 C95.7,216.1 92.6,215 90.4,212.3 C89.5,211.2 89.1,209.4 89.4,207.6 C89.7,205.6 90.7,204 92.1,203.2 C92.5,202.9 93.5,202.5 94.3,202.6 C96.4,202.9 98.5,203.2 100.2,204.5 C101.2,205.2 101.5,205.4 102,205.4 C102.4,205.4 102.9,205.2 103.6,205 C103.7,204.5 103.9,203.9 104,203.4 C104.3,202.1 104.7,200.7 105.1,199.3 L105.2,199 C106,196.1 106.9,193.2 107.9,190.3 C108.4,188.7 109.1,187.2 109.6,185.6 C110.1,184.3 110.6,183.1 111,181.8 C111.5,180.4 112,179 112.4,177.7 C112.9,176.1 113.5,174.5 114,172.9 C114.4,171.7 114.8,170.4 115.2,169.2 C115.9,166.8 116.7,164.3 118,162 C118.4,161.3 118.6,160.6 118.8,159.8 C118.9,159.5 119,159.2 119.1,158.9 C119.3,158.3 119.5,157.7 119.6,157.1 C119.9,156 120.3,154.8 120.7,153.7 C121.6,151.3 122.7,149 123.7,146.7 L123.9,146.3 C124.5,144.9 125.2,143.5 125.9,142.1 C126.9,140.1 127.8,137.9 128.8,135.8 C130.3,132.4 131.9,129.3 133.8,126.5 C134.1,126.1 134.3,125.6 134.5,125 C134.7,124.5 134.9,123.9 135.2,123.4 C136.7,121.1 137.7,118.4 138.7,115.9 C139.2,114.5 139.7,113.1 140.3,111.8 C141.3,109.5 142.4,107.4 143.4,105.6 C143.8,104.8 144.6,104.2 145.3,103.9 C146.4,103.6 147.2,102.9 148.1,102.2 C148.7,101.7 149.4,101.2 150.2,100.8 C153.1,99.3 156.4,97.9 159.9,97.9 C160.3,97.9 160.8,97.9 161.2,98 C163,98.2 164.8,99.2 165.6,99.8 C168.1,101.5 170,103.1 171.6,104.9 C175.9,109.8 180.6,114.4 185.1,118.8 C186.5,120.2 188,121.4 189.4,122.7 C190.6,123.7 191.8,124.7 192.9,125.8 C194.5,127.3 196.1,128.9 197.6,130.5 C198.2,131.1 198.7,131.7 199.3,132.3 C199.9,132.9 200.5,133.5 201.1,134.1 C202.8,135.8 204.5,137.5 206.1,139.3 C207.1,140.4 208.1,141.6 209.1,142.8 C210,143.9 210.9,145 211.9,146 C212.1,146.3 212.4,146.5 212.6,146.8 C212.6,146.8 212.7,146.9 212.7,146.9 C215.1,148.8 216.9,151.2 218.8,153.5 C219.9,154.4 220.8,155.3 221.7,156.3 C221.9,156.6 222.2,156.8 222.4,157.1 C223.6,158.3 224.7,159.6 225.9,160.9 C226.4,161.5 227,162.1 227.5,162.7 L230.2,165.7 C232,167.7 233.8,169.6 235.6,171.6 C237.4,173.6 239,173.8 241.2,172.2 C242.1,171.6 242.8,170.8 243.6,169.8 C245.4,167.4 247.5,164.6 249.9,162.1 C251.5,160.4 253.5,158.9 255.5,157.5 L255.7,157.4 C257.4,156.2 259.4,156.5 260.9,158.2 C261.9,159.4 262.3,160.6 262.1,162 C262,162.7 261.9,163.4 261.8,164.1 C261.4,166.7 261,169.4 259.9,171.9 C259.6,172.6 259.4,173.3 259.2,174.2 C259.1,174.7 259,175.2 258.8,175.7 L258.6,176.3 L258.1,175.9 C257.7,175.6 257.4,175.2 257.1,175 C256.5,174.4 256,173.9 255.5,173.4 C255.2,173.1 254.8,172.9 254.4,172.7 C254.2,172.6 254,172.6 253.8,172.6 C253.7,172.6 253.6,172.6 253.6,172.6 C253.4,172.8 253.3,173.3 253.3,173.5 C253.8,174.9 254.7,175.9 256,176.3 C256.2,176.4 256.5,176.4 256.8,176.4 C257,176.4 257.1,176.4 257.3,176.5 L257.8,176.6 L254.6,182 L251.5,179.2 C250.4,178.2 249.4,177.9 248.2,178.3 C247.7,178.4 247.4,178.7 247.3,178.9 C247.2,179.2 247.4,179.5 247.6,179.7 C248.4,180.6 249.3,181.5 250.2,182.4 C250.5,182.7 250.9,183.1 251.2,183.4 C251.4,183.6 251.7,183.8 251.9,184.1 L252.6,184.7 L249.1,189.5 L248.8,189.2 C248.4,188.8 248,188.3 247.5,187.9 C245.8,186 244.2,184.2 241.5,184.5 C241,185.3 241.1,185.9 241.8,186.5 C243,187.5 244.3,188.5 245.6,189.6 C246.1,190 246.7,190.5 247.3,190.9 L247.6,191.2 L242.9,196 L242.7,195.6 C242.6,195.4 242.4,195.1 242.3,194.9 C242.1,194.5 241.9,194.2 241.7,193.9 C241.5,193.6 241.3,193.3 241.1,193 C240.5,192.2 239.9,191.3 239.1,190.7 C238.4,190.1 237.8,189.8 237.3,189.8 C237,189.8 236.5,189.9 235.8,191.2 C235.9,192.4 236.4,193.1 237.4,193.5 C238.2,193.9 238.8,195 238.9,195.3 C239.3,196.2 239.8,196.7 241.2,196.7 L242.2,196.7 L237.1,201 L236.9,200.7 C236.7,200.4 236.5,200.2 236.4,200 C236.1,199.5 235.8,199.1 235.5,198.7 C235,198.1 234.5,197.6 233.9,197.2 C232.8,196.4 232.1,196.3 231.6,197 C231,197.9 231.1,199.2 231.8,200 C232.4,200.6 232.9,201.1 233.5,201.8 L234.7,203 L231,206.2 L230.8,205.8 C230.7,205.6 230.5,205.3 230.4,205.1 C230.2,204.7 230,204.4 229.8,204.1 L229.4,203.5 C228.9,202.8 228.3,202 227.6,201.4 C227.3,201.2 226.9,201 226.4,201 C225.9,201 225.5,201.1 225.3,201.3 C225,201.7 224.6,202.3 225.3,203.4 C225.9,204.3 226.5,205.2 227.1,206.1 C227.4,206.5 227.7,206.9 228,207.3 L228.2,207.6 L225.5,209.6 L225.3,209.2 C225.1,208.9 225,208.6 224.8,208.4 C224.5,207.8 224.2,207.3 223.9,206.8 C223.4,206 222.7,205.2 221.9,204.5 C221.3,203.9 220.5,204 219.9,204.6 C219.4,205.1 219.4,205.6 219.9,206.5 C220.5,207.5 221.1,208.5 221.7,209.5 L222.7,211.2 L217.7,214.2 L217.5,214 C216.5,213.1 216.1,212 215.8,211 C215.7,210.8 215.7,210.6 215.6,210.4 C215.3,209.6 214.8,209 213.8,208.6 C213.2,208.3 212.7,208.4 212.4,208.7 C212.2,209 212.1,209.4 212.2,209.9 C212.3,210.3 212.4,210.6 212.6,211 C212.7,211.1 212.7,211.2 212.8,211.4 C213.2,212.2 213.6,213.1 214,214 L214.7,215.4 L210.9,217.5 L210.8,217 C210.7,216.6 210.6,216.3 210.6,216 C210.4,215.3 210.3,214.6 210.1,214 C209.9,213.3 209.6,212.7 209.4,212.1 C209.1,211.5 208.5,211.2 208,211.5 C207.7,211.7 207.3,212.3 207.3,212.9 C207.3,213.5 207.4,214.1 207.6,214.7 C207.7,214.9 207.7,215.1 207.7,215.2 C207.8,215.7 208,216.3 208.2,216.9 L208.6,218.1 L204.4,219.7 L204.1,218 C203.9,217.1 203.8,216.2 203.6,215.4 C203.4,214.3 202.9,213.6 202.1,213.2 C201.5,213 201,213 200.7,213.3 C200.5,213.6 200.4,214 200.5,214.6 C200.6,215.4 200.8,216.2 201,217 C201.1,217.3 201.2,217.6 201.2,217.9 C201.3,218.4 201.5,218.9 201.6,219.4 L201.9,220.6 L197.5,221.9 L196.6,218 C196.6,217.8 196.5,217.5 196.4,217.3 C196.2,216.6 195.1,215.9 194.5,215.9 C194.4,215.9 194.3,215.9 194.3,215.9 C193.6,216.2 193.4,216.8 193.6,217.8 C193.8,218.6 194,219.3 194.2,220.1 L194.4,220.6 C194.5,220.9 194.6,221.2 194.7,221.5 L195.1,222.5 L189.8,223.6 L189.9,222.3 C189.9,221.9 189.9,221.5 190,221.2 C190.2,219.6 189.7,218.5 188.4,217.9 C187.9,217.6 187.3,217.3 186.9,217.7 C186.6,218.1 186.4,218.8 186.5,219.3 C186.6,220.4 186.9,221.4 187.1,222.5 C187.2,223 187.3,223.4 187.4,223.9 L187.5,224.3 L183.2,224.7 L182.9,223 C182.7,221.9 182.5,220.9 182.3,219.9 C182.2,219.6 182,219.3 181.7,219 C181.1,218.2 180.4,218 179.8,218.4 C179.1,218.8 179.2,219.2 179.4,220.2 C179.7,221.2 179.9,222.3 180.2,223.4 L180.7,225.3 L176.7,225.3 L176.6,225 C176.5,224.7 176.5,224.4 176.4,224.1 C176.3,223.4 176.1,222.7 175.9,222 C175.7,221.5 175.3,221 174.9,220.6 C174.5,220.2 173.8,219.7 173.1,220.2 C172.5,220.6 172.6,221.1 172.9,222.1 C173.1,222.8 173.5,223.6 173.9,224.4 C174.1,224.8 174.3,225.2 174.4,225.6 L174.6,226 L169.3,226.9 L169.3,225.3 C169.3,224.5 169.3,223.7 169.3,222.9 C169.3,222.1 169,221.6 168.3,221.2 C167.9,220.9 167.5,220.8 167.3,220.8 C167.1,220.8 166.7,220.8 166.6,222 C166.5,222.9 166.5,223.9 166.6,224.9 C166.6,225.4 166.6,225.8 166.6,226.3 L166.6,226.6 L163.4,227.2 L163.4,226.8 C163.4,226.5 163.4,226.2 163.4,225.9 C163.4,225.3 163.4,224.9 163.4,224.4 C163.6,223.3 163.2,222.6 162.3,222.2 C162,222 161.4,221.8 161.1,221.8 C161,221.8 161,221.8 161,221.8 C160.7,221.9 160.4,222.6 160.3,223 C160.3,223.6 160.3,224.2 160.4,224.9 C160.4,225.2 160.5,225.4 160.5,225.7 C160.5,225.9 160.5,226.1 160.6,226.4 L160.7,227.2 L160,227.3 C159.4,227.4 158.9,227.5 158.4,227.5 C157.5,227.5 156.8,227.2 156.1,226.6 C155.4,225.9 154.6,225.3 153.7,224.6 C152.7,223.8 151.6,223 150.6,222 L150.1,221.5 L151.2,221.4 C151.5,221.4 151.7,221.3 152,221.3 C154.3,221.1 156.4,220.1 158.8,218.2 C160.1,217.1 161.3,216.8 162.9,217 C164.2,217.2 165.5,217.3 166.9,217.3 C171,217.3 175.4,216.5 180.6,214.9 C182.2,214.4 183.9,214 185.5,213.6 C186.3,213.4 187,213.2 187.8,213 C188.2,212.9 188.5,212.8 188.9,212.7 C189.5,212.5 190.2,212.3 190.8,212.2 C194.7,211.2 198.5,209.7 202.2,208.2 C203.5,207.7 204.7,207.1 206,206.6 C207.4,206.1 208.7,205.5 210.1,204.9 C210.7,204.6 211.4,204.3 212,204.1 C212.1,204 212.3,204 212.4,203.9 C212.6,203.8 212.9,203.7 213,203.6 C214.4,202.4 216,201.7 217.6,200.9 C218.4,200.5 219.2,200.2 220,199.7 C223.8,197.6 226.7,195.5 228.5,192.1 C230.1,189 230.2,186.1 229,183.3 L228.9,183.1 C228.8,182.8 228.6,182.5 228.6,182.2 C228,179 225.7,177.1 223.4,175.4 C222.5,174.7 221.4,174.6 220.3,175 C218.7,175.6 217.2,176.3 215.6,177.2 C213.6,178.2 211.7,179.4 209.8,180.4 L209.4,180.6 C207.6,181.6 205.8,182.6 204.1,183.7 C202.1,184.9 200.1,186 198.1,187.1 C196.9,187.8 196,188.3 195.1,188.6 C194.5,188.9 193.8,189.2 193.2,189.5 C191.4,190.3 189.6,191.2 187.6,191.6 C186.5,191.8 185.5,192.2 184.5,192.6 C183.4,193 182.3,193.4 181.1,193.7 C180.2,193.9 179.2,194.2 178.3,194.5 C177.5,194.8 176.6,195 175.8,195.2 C172.4,196 168.9,196.7 165.6,197.4 L161.2,198.3 L161.1,198.1 C158.6,194.7 155.1,192.8 152.3,191.5 C150.2,190.5 148.5,190.3 146.6,190.7 L145.6,190.9 C143.9,191.2 142.4,191.6 140.9,192.2 C139.5,192.8 138.5,193.4 137.9,194.6 C137.5,195.4 136.9,196.2 136.3,196.9 C136,197.3 135.7,197.6 135.4,198 L135.3,198.2 L135.1,198.2 C134.3,198.1 133.5,198.1 132.7,198 C130.6,197.8 128.4,197.7 126.3,197.4 C125.2,197.3 124.1,196.9 123,196.4 C120.1,195.2 117.1,195.8 115.3,197.9 L115.1,198.1 C114.9,198.3 114.8,198.5 114.7,198.6 C114.6,199 114.5,199.4 114.3,199.8 C113.7,201.7 113.1,203.6 113.2,205.7 C113.3,207.9 114.3,209.6 116.3,211 C119.3,212.9 122.6,214.1 125.8,214.4 C127,214.5 128.2,214.7 129.4,214.9 C131.1,215.2 132.8,215.4 134.5,215.4 L134.9,215.4 C135.4,215.4 135.8,215.4 136.3,215.3 C136.6,215.3 136.9,215.3 137.2,215.2 L137.4,215.2 L137.5,215.4 C139.2,218.2 141.9,219.9 146.3,221 L147,221.2 L146.4,221.7 C146,222 145.6,222.4 145.2,222.7 C144.1,223.7 143,224.7 141.2,224.8 C141,224.8 140.6,225.5 140.4,225.9 C140.2,226.2 140,226.6 139.8,226.9 L139.6,227.2 L136.4,225.2 L136.4,225 C136.4,224.8 136.5,224.6 136.5,224.3 C136.6,223.8 136.6,223.3 136.6,222.8 C136.6,221.6 135.8,220.6 134.8,220.5 C134.3,220.4 133.9,220.5 133.7,220.8 C133.5,221 133.4,221.4 133.4,221.8 C133.5,222.4 133.5,223 133.5,223.6 L133.6,225.2 L130.3,224.2 L130.4,223.1 C130.4,222.5 130.5,222 130.5,221.4 C130.5,220.5 130.4,220 130.2,219.7 C129.9,219.4 129.2,219.3 128.1,219.5 L127.8,224.2 L124.5,223.8 L124.5,223.5 C124.5,223.1 124.5,222.6 124.5,222.2 C124.5,220.8 124.5,219.8 123.3,219.1 L123.2,219.1 C122.9,218.9 122.8,218.9 122.7,218.9 C122.5,218.9 122.2,219 121.5,219.1 L121.5,223 L120.9,223 C119.9,223 119.3,222.9 118.9,222.5 C118.6,222.1 118.6,221.5 118.7,220.7 C118.9,219.3 118.6,218.6 117.6,218 C117.3,217.8 117,217.8 116.7,217.8 C115.9,217.8 115.4,218.4 115.4,219.3 C115.4,219.9 115.4,220.5 115.4,221.2 L115.4,222.7 L114.9,222.6 C114.6,222.5 114.2,222.5 113.9,222.4 C113,222.3 112,222.2 111.2,221.2 L111.1,221 L112.3,216.9 L110.6,215.4 C109.4,216.2 109.3,217.4 109.2,218.7 C109.1,219.5 109.1,220.2 108.8,221 L108.7,221.3 L107,219.9 Z M220.5,192.2 L220.8,192.5 L220.5,192.8 C217,195.8 212.9,198.2 208,200.2 L207.8,200.3 L207.6,200.1 C206.4,199 203.4,193.3 202.4,190.2 L202.3,189.9 L213.8,183.6 L214,183.8 C215.2,184.9 216.1,186.3 217,187.7 C218,189.3 219,190.9 220.5,192.2 Z M218,180.9 L223.4,178.6 L223.6,178.9 C225.9,183 226,186.6 223.8,190.2 L223.5,190.8 L218,180.9 Z M203.6,202 L203.3,202.2 C199.5,204.4 195.5,205.7 191.7,207 C191.1,207.2 190.5,207.4 189.9,207.6 C187.8,208.3 185.7,209 183.5,209.5 C182.1,209.8 180.7,210.2 179.3,210.7 C177.3,211.3 175.2,212 173.1,212.2 C172.5,212.3 172,212.3 171.4,212.4 C169.7,212.6 168,212.9 166.3,212.9 C166.3,212.9 166.3,212.9 166.3,212.9 C166,212.9 165.8,212.9 165.5,212.9 C165.2,212.9 165,212.8 164.7,212.7 C164.6,212.7 164.4,212.6 164.3,212.6 L163.9,212.5 L164.1,212.1 C165.4,208.5 164.7,204.9 164,201.4 L163.9,201.1 L164.2,201 C165.2,200.5 166.1,200.5 166.9,200.5 L167.7,200.5 C168,200.5 168.2,200.5 168.5,200.5 C169.2,200.4 170.1,200.3 170.9,200.2 L172.6,199.8 C174.9,199.2 177.4,198.7 179.7,198 C180.8,197.7 182,197.4 183.1,197.1 C185.6,196.5 188.1,195.9 190.4,194.7 C191.8,193.9 193.4,193.4 195.1,192.9 C195.9,192.7 196.7,192.4 197.5,192.1 L197.8,192 L203.6,202 Z M136.4,211.1 L136.6,211.7 L126.6,209.4 L127.4,207.5 C128,206 128.6,204.6 129.2,203.2 C129.2,203.2 129.6,202.4 130,202.4 L130.1,202.4 C130.7,202.5 131.1,202.2 131.6,201.9 C132,201.7 132.3,201.4 132.8,201.3 C133.1,201.2 133.4,201.3 133.8,201.3 C134,201.3 134.1,201.3 134.3,201.4 L134.7,201.4 L134.7,201.8 C134.4,204.9 135.3,207.9 136.4,211.1 Z M126.3,200.6 L123.8,209.1 L123.5,209.1 C121.4,209 119.8,207.8 119.2,205.8 C118.6,203.8 119.1,201.7 120.5,200.1 C121.1,199.4 121.8,199.3 122.8,199.5 L126.3,200.6 Z M108.5,234.5 C108.7,234 108.8,233.4 108.9,232.9 C109.4,230.9 110.1,228.9 110.8,227 C111.3,225.7 111.9,224.8 113.1,224.8 C113.6,224.8 114.2,224.9 115,225.3 L115.2,225.4 C115.6,225.6 116,225.7 116.3,225.7 C116.7,225.6 117.1,225.5 117.5,225.5 C118.7,225.5 119.7,226.1 120.7,226.7 L121,226.9 L120.9,227.2 C119,235.4 118.5,243.7 118,251.8 L117.9,253.1 C117.5,259.6 118.4,265.9 119.4,272.5 C119.7,274.6 120,276.8 120.3,279 L120.4,279.4 L120,279.4 C119.6,279.4 119.3,279.4 119,279.4 C118.7,279.4 118.4,279.4 118.1,279.4 C117.7,279.4 117.3,279.4 117,279.4 C115.6,279.3 114.2,279.1 112.8,279 C111.1,278.8 110.6,278.3 110.3,276.6 C110.1,275.3 109.8,274.1 109.5,272.8 C108.9,270 108.3,267.2 108,264.3 C107.5,259 107,253.3 107.2,247.6 C107.2,246.5 107.2,245.4 107.1,244.4 C107.1,243.9 107.1,243.3 107,242.8 C107,239.8 107.7,237.1 108.5,234.5 Z M94.2,276.6 C95.2,274.7 96.3,273.6 97.9,273 C98.4,272.8 98.9,272.5 99.4,272.1 C100.3,271.5 101.2,270.9 102.4,270.9 C102.9,270.9 103.5,270.8 104,270.8 C104.3,270.8 104.6,270.7 104.9,270.7 L105.3,270.7 L105.6,273.4 C105.8,275.2 106.1,277 106.3,278.8 C106.4,279.9 108.3,281.6 110.1,281.8 C111,281.9 111.9,282 112.8,282 C113.4,282 114.1,282.1 114.7,282.2 L116,282.3 C118,282.5 120,282.7 122.1,282.9 C122.4,282.9 122.7,283 123,283 C124.4,283 125.1,282.5 125.5,281.4 L123.3,268.6 L130.1,267.3 L130.1,267.7 C130.2,268.6 130.4,269.6 130.6,270.4 C131,272.2 131.3,274.1 131.1,276.1 C132.3,277.2 133.5,277.9 134.8,278.1 C137.1,278.5 139.4,279 141.7,279.4 C146.8,280.4 152,281.5 157.3,282.2 C158.7,282.4 160.1,282.5 161.5,282.6 C163.4,282.7 165.3,282.9 167.1,283.2 C168.4,283.4 169.8,283.5 171.3,283.5 C172.9,283.5 174.6,283.4 176.1,283.3 C177.7,283.2 179.3,283.1 181,283.1 L181.6,283.1 C185.3,283.1 189.2,283 193.6,282.6 C196.3,282.4 199.1,282.1 202.8,281.4 C207.1,280.7 211.4,279.3 215.9,277.2 C218.2,276.1 219.3,274.1 219.2,271.1 C219.1,269.7 219,268.3 218.9,266.9 C218.9,266.3 218.8,265.7 218.8,265.1 L218.8,264.7 L226.2,264.3 L226.2,264.6 C226.2,264.9 226.3,265.2 226.3,265.5 C226.4,266.2 226.5,266.9 226.6,267.6 C226.8,270 226.9,272.3 227,274.7 L227.1,276.4 C227.2,277.9 228,278.7 229.6,278.8 C230.3,278.8 231.1,278.7 231.8,278.7 L232,278.7 C233,278.6 233.9,278.4 234.9,278.3 C236.7,278.1 238.6,277.8 240.4,277.6 C241.8,277.5 243.5,277.6 245.1,277.7 L245.8,277.7 C246.7,277.7 247.3,277.6 247.7,277.2 C248,276.9 248.2,276.3 248.2,275.6 C248.2,273.8 248,272 247.9,270.3 L247.8,268.7 C247.8,268.1 247.7,267.5 247.6,266.9 L247.4,265.3 L247.9,265.5 C250.3,266.2 252.2,267 253.7,268.5 C255.6,270.4 256.1,272.8 255.3,275.3 C255.2,275.5 255.2,275.7 255.1,275.8 C255,276.1 254.9,276.3 254.8,276.6 C254.3,280.6 252.1,283.6 247.6,286.1 C243.6,288.3 239.2,289.5 235,290.6 C233.5,291 231.9,291.4 230.3,291.9 C227.6,292.7 224.8,293.4 222.2,294 L220.5,294.4 C216.8,295.3 213,295.7 209.3,296.1 L208.6,296.2 C206.8,296.4 205,296.6 203.2,296.8 C200.4,297.1 197.7,297.4 194.9,297.7 C193.3,297.9 191.7,297.9 190.2,298 C189.5,298 188.7,298.1 188,298.1 C187.1,298.2 186.2,298.2 185.4,298.3 C183.5,298.4 181.5,298.6 179.6,298.6 L179.2,298.6 C177.4,298.6 175.6,298.5 173.9,298.4 C172.6,298.3 171.4,298.3 170.1,298.2 C168.4,298.2 166.8,298.1 165.1,298.1 C162.7,298.1 160.3,298.1 157.9,298 C156.7,298 155.5,297.8 154.3,297.6 C153.4,297.5 152.4,297.3 151.4,297.3 C149.3,297.1 147.2,297 145.1,296.9 C142.3,296.7 139.5,296.6 136.6,296.3 C133.8,296.1 130.9,295.6 128.1,295.1 L128,295.1 C127.4,295 126.8,294.9 126.2,294.8 C123.7,294.4 121.1,294 118.7,293.3 L117.3,292.9 C112.9,291.7 108.4,290.4 104.3,288.3 C103.9,288.1 103.5,287.9 103,287.7 C100.3,286.4 97.6,285.1 95.3,283 C93.3,281.4 92.9,279.1 94.2,276.6 Z M86.4,306.3 C86.4,305.8 86.7,305.1 87.9,304.5 C89.9,303.4 91.7,303.3 93.6,304.2 C96.4,305.4 99.3,306.5 102.1,307.6 C103.4,308.1 104.6,308.5 105.9,309 C106.1,309.1 106.2,309.2 106.3,309.3 C106.3,309.3 106.4,309.4 106.4,309.4 L106.6,309.5 L106.5,310.6 L106.1,310.6 C105,310.6 104,310.5 102.9,310.5 C100.4,310.4 97.8,310.3 95.2,310.1 C93.6,310 91.9,309.7 90.3,309.4 C89.8,309.3 89.4,309.2 88.9,309.1 C88.4,309 87.8,308.8 87.4,308.5 C86.5,307.5 86.4,306.8 86.4,306.3 Z M114.2,317.7 C112.1,318.3 109.9,318.6 107.3,318.6 C106.7,318.6 106.1,318.6 105.5,318.6 C104.5,318.6 103.6,318.5 102.6,318.5 C100.9,318.5 99.1,318.4 97.3,318.2 C93.7,317.8 90.3,316.8 87.3,315.2 C86.2,314.6 84.9,313.6 85.2,311.4 L85.3,311 L85.7,311.1 C86.5,311.3 87.2,311.4 88,311.6 C89.6,312 91,312.3 92.5,312.5 C96.6,313 101.1,313.4 105.5,313.5 C105.7,313.5 106,313.5 106.2,313.5 C108.6,313.5 110.4,313.1 111.9,312.3 C112.5,312 113.3,311.9 113.8,312 C115.6,312.6 117.2,313.2 119.2,313.9 L122.4,315.1 L114.2,317.7 Z M239.8,307.4 C236.4,308.7 232.9,309.4 229.4,310.1 C227.5,310.5 225.6,310.9 223.7,311.4 C218.8,312.7 214.4,313.4 210.3,313.7 C208.7,313.8 207,314 205.4,314.2 C204.1,314.4 202.8,314.5 201.6,314.7 C201,314.8 200.3,314.8 199.9,314.8 L198.5,314.8 C198.1,314.8 197.8,314.8 197.4,314.8 C196,314.9 194.6,315 193.2,315.1 C191.1,315.2 188.8,315.4 186.6,315.5 C185,315.6 183.5,315.5 181.9,315.5 C180.7,315.5 179.5,315.5 178.3,315.5 C174.3,315.6 170.9,315.6 167.5,315.8 C165.9,315.9 164.2,315.9 162.4,315.9 C157.1,315.9 151.9,315.6 146.5,315.2 C142,314.9 137.5,314.2 133.2,313.5 C132,313.3 130.8,313.1 129.5,312.9 C125,312.2 120.7,310.8 116.5,309.5 C115.3,309.1 114,308.7 112.7,308.3 C109.6,307.3 106.6,306 103.7,304.8 C102.3,304.2 100.8,303.5 99.3,302.9 C96.9,301.9 95.8,300.3 95.9,297.7 C95.9,296.6 95.7,295.6 95.4,294.5 C95.2,293.9 95.1,293.3 95,292.7 C94.8,291.7 94.7,290.7 94.5,289.6 C94.4,289.1 94.4,288.6 94.3,288.1 L94.2,287.7 L94.6,287.7 C95.7,287.7 96.4,288.2 97.1,288.6 C97.3,288.7 97.5,288.9 97.8,289 C98.5,289.4 99.3,289.8 100,290.2 C101.5,291 103.1,291.9 104.7,292.5 C110.5,294.7 116.6,297 123,298 L125.3,298.4 C129.9,299.2 134.7,299.9 139.5,300 C141.7,300 143.8,300.3 146,300.5 C147.4,300.7 148.9,300.8 150.3,300.9 C154.3,301.2 158.3,301.4 162.3,301.5 C167.2,301.7 172.4,301.8 178.8,301.9 C180.3,301.9 181.9,301.9 183.4,301.8 C184.1,301.8 184.8,301.8 185.5,301.7 C186.2,301.7 186.9,301.7 187.6,301.7 C189.1,301.7 190.7,301.7 192.2,301.5 C193.7,301.3 195.2,301.1 196.7,300.9 C198.2,300.7 199.7,300.4 201.2,300.3 C203.4,300.1 205.6,299.9 207.7,299.8 C209.6,299.7 211.6,299.5 213.6,299.3 C216.3,299 218.7,298.8 221,298.2 C223.9,297.5 226.9,296.7 229.7,295.9 C231.1,295.5 232.4,295.1 233.8,294.7 C235.2,294.3 237.1,293.8 238.9,293.4 C240.2,293.1 241.5,292.8 242.8,292.5 C244,292.2 245.1,292 246.3,291.7 C246.8,291.6 247.2,291.4 247.6,291.2 C249.3,290.3 251.1,289.3 252.9,288.3 L255.4,286.9 L255.5,287.5 C255.6,288.6 255.7,289.6 255.8,290.6 C256.1,292.9 256.3,295.2 256.5,297.4 C256.7,299.6 255.7,301.3 253.6,302.6 C250.4,304.4 246.9,305.6 242.6,306.6 L242.4,306.6 C241.7,306.8 240.7,307 239.8,307.4 Z M282.1,308.6 C282.1,312.4 280,315 275.6,316.4 C273.1,317.2 270.4,317.8 268.4,318.2 C265.7,318.7 262.6,319.3 259.4,319.3 C258.8,319.3 258.2,319.3 257.7,319.2 C256.6,319.1 255.4,319.1 254.3,319.1 C252.8,319 251.2,319 249.7,318.9 C248.5,318.8 247.3,318.5 246.2,318.3 C245.7,318.2 245.2,318.1 244.7,318 C243.8,317.8 243.2,317.2 243.1,316.3 C243,315.2 242.8,314.1 242.7,313 L242.5,311.3 L242.8,311.2 C242.9,311.2 243,311.1 243.1,311.1 C243.3,311 243.4,311 243.6,311 L243.7,311 C244.9,311.1 246,311.3 247.2,311.5 C249.5,311.8 251.8,312.1 254.1,312.3 C256.3,312.5 258.3,312.5 260.1,312.3 C260.8,312.2 261.4,312.1 262.1,312.1 C264.4,311.8 266.8,311.5 269.2,311.5 L269.5,311.5 C272.7,311.5 276.1,310.8 279.5,309.4 C280,309.2 280.5,309 281,308.8 L282.4,308.3 L282.4,308.6 L282.1,308.6 Z" id="Shape"></path>
                <polygon id="Shape" points="0 157.8 2 157.2 1.5 156.7"></polygon>
                <path d="M121.8,184.2 C122.4,184.4 123,184.6 123.7,184.9 C124.8,185.3 126,185.8 127.2,186 C128,186.1 128.9,186.3 129.7,186.5 C131.2,186.9 132.8,187.2 134.5,187.2 L134.7,187.2 C136.3,187.2 137.8,187.4 139.3,187.6 C141.1,187.8 143.1,188.1 145,188 C146,187.9 147.1,187.9 148.3,187.9 C149.2,187.9 150.1,187.9 151,187.9 C151.9,187.9 152.8,187.9 153.6,187.9 L153.9,187.9 L153.9,188.2 L158,187.6 C161.4,187.1 164.7,186.6 168.1,186.2 C173.4,185.5 178.6,183.7 183.6,182 L184.3,181.8 C188.6,180.4 192.9,178.7 197,176.8 C197.8,176.5 198.5,176.1 199.3,175.8 C201.8,174.7 204.4,173.6 206.8,172.1 C207.3,171.8 207.9,171.6 208.4,171.4 C208.7,171.3 208.9,171.2 209.2,171.1 C209.4,171 209.5,171 209.7,170.9 C210.1,170.8 210.4,170.7 210.6,170.5 C211.8,169.3 212.9,167.9 213.9,166.6 C214.2,166.3 214.3,165.8 214.3,165.3 C213.4,164.1 212.5,163 211.7,162 C211.7,162 211.7,162 211.7,161.9 C210.5,160.9 209.4,159.7 208.4,158.6 C207.9,158 207.4,157.5 206.9,156.9 C204.6,154.5 202.4,151.9 200.2,149.4 C199.3,148.4 198.4,147.3 197.5,146.3 C196.6,145.3 195.7,144.2 194.8,143.2 C193.7,142 192.6,140.7 191.6,139.5 C190.9,138.7 190.2,137.9 189.5,137.1 C188.3,135.8 187.1,134.4 185.9,133 C184.8,131.7 183.8,130.5 182.7,129.2 C181.9,128.3 181.2,127.3 180.4,126.4 C179.2,125 178.1,123.6 176.8,122.3 C176,121.5 174.7,121 173.3,121 C172.1,121 170.9,121.4 170.2,122 C169.7,122.5 169.2,123 168.7,123.5 C168.2,124 167.6,124.6 167.1,125.1 C164.4,127.6 161.3,129.9 156.9,129.6 C156.7,129.6 156.6,129.6 156.4,129.7 C156.3,129.7 156.1,129.8 156,129.8 C155.6,129.9 155.1,129.9 154.7,130 C153.7,130.2 152.6,130.3 151.5,130.4 L151.3,130.4 C149.4,130.4 147.5,130.1 146,128.2 C145.6,127.7 144.8,127.3 143.9,127.3 C142.5,127.3 141.1,128 140.6,129 C139.9,130.5 139.4,132 138.8,133.5 L138.2,135 C137.5,136.8 136.8,138.6 136.1,140.3 C135,143.1 134,145.9 132.9,148.7 C132.3,150.2 131.7,151.7 131.1,153.1 C130.8,154 130.4,154.8 130.1,155.7 C129.9,156.1 129.8,156.5 129.6,157 L129.4,157.5 C129.1,158.4 128.7,159.3 128.4,160.2 C127.6,162.3 126.8,164.4 126.1,166.5 C125.1,169.3 124.2,172.1 123.3,174.8 L122.6,176.9 C122.3,177.9 122,178.8 121.7,179.8 C121.4,180.7 121.1,181.6 120.8,182.5 C120.7,182.9 120.6,183.3 120.8,183.5 C121.1,183.8 121.4,184 121.8,184.2 Z M172.6,125.3 L173.3,125.8 C174.3,126.6 175.3,127.3 176,128.5 C176.4,129.3 177,129.9 177.7,130.6 C178,131 178.4,131.3 178.7,131.7 C179.3,132.4 179.9,133.2 180.5,134 C181.3,135 182.2,136.1 183.1,137.1 C184.7,139 186.4,140.9 188.1,142.7 C189,143.7 189.9,144.7 190.8,145.7 C190.8,145.7 190.8,145.8 190.9,145.8 C193.8,149.1 202.6,163.7 206.1,168.3 C205.7,168.4 205.3,168.5 204.9,168.6 C202,170.4 199,171.9 195.3,173.4 L195,173.5 L194.8,173.2 C194.5,172.7 194.2,172.2 193.9,171.7 C193.2,170.6 192.6,169.6 192,168.5 C191.1,166.7 190.2,164.9 189.3,163.2 C188.6,161.8 187.9,160.3 187.2,158.9 C186.7,157.8 186.1,156.8 185.5,155.7 C185.2,155.2 184.9,154.6 184.6,154.1 C184.5,153.9 184.4,153.7 184.3,153.5 C184,153 183.7,152.5 183.5,151.9 C183,150 182,148.3 181,146.7 C180.4,145.8 179.9,144.9 179.4,143.9 C178.3,141.7 177.1,139.6 175.9,137.5 C175.3,136.5 174.8,135.6 174.2,134.6 C173.4,133.1 172.6,131.7 171.7,130.2 L170.4,127.9 L172.6,125.3 Z M149.6,134.3 L149.7,134.1 L150,134.1 C150.8,134.1 151.7,134 152.5,134 C154.4,134 156.4,133.9 158.3,133.6 C160.9,133.2 163.6,132.7 166,131 L166.3,130.8 L166.5,131.1 C170.3,136.8 173.4,142.7 176.4,148.5 C177.2,150 178,151.5 178.8,153 C181.5,158 183.9,163.1 186.4,168.4 C187.5,170.7 188.6,173.1 189.7,175.4 L189.9,175.8 L188.5,176.3 C187.7,176.6 186.9,176.9 186.1,177.1 C184.9,177.5 183.7,177.9 182.5,178.3 C179.6,179.3 176.6,180.3 173.6,181 C169.5,182.1 165.2,182.8 161.4,183.5 C159.3,183.9 157.2,184.1 155.1,184.2 L153.4,184.4 C152.8,184.5 152.3,184.5 151.8,184.5 L150.8,184.5 L150.2,184.5 C149.9,184.5 149.5,184.5 149.2,184.5 C148.9,184.5 148.5,184.5 148.2,184.5 C147.5,184.5 147,184.5 146.5,184.6 C145.8,184.7 145.2,184.7 144.5,184.7 C142.6,184.7 140.7,184.5 138.9,184.3 C138,184.2 137.1,184.1 136.2,184 C135.8,184 135.5,183.9 135.2,183.8 C135,183.8 134.8,183.7 134.7,183.7 L134.3,183.6 L134.4,183.2 C138.6,168 143.6,150.9 149.6,134.3 Z M126.2,179.9 C126.2,179.8 126.3,179.7 126.3,179.5 C126.3,179.5 126.3,179.5 126.3,179.5 C126.3,179.5 126.3,179.5 126.3,179.4 C126.7,178.7 127,178.1 127.3,177.4 C127.4,176.2 127.9,175.2 128.3,174.2 C128.5,173.8 128.6,173.5 128.8,173.1 C129.3,171.9 129.7,170.7 130.1,169.6 C130.4,168.8 130.6,168.1 130.9,167.3 L131.4,166 C132.6,162.6 133.9,159.1 135.2,155.7 C136.4,152.4 137.7,149.1 139,145.9 C139.9,143.7 140.9,141.5 141.9,139.4 C142.3,138.4 142.8,137.5 143.2,136.5 L144.7,133 L146,133.5 L145.9,133.8 C145.1,136.3 144.2,138.7 143.4,141.2 C141.5,146.7 139.5,152.4 137.7,158.1 C135.9,163.7 134.1,169.4 132.5,175 C131.7,177.5 131,180 130.2,182.6 L130.1,182.9 L126.2,182.4 L126.1,182.1 C125.9,181.2 125.9,180.5 126.2,179.9 Z" id="Shape"></path>
                <path d="M147.7,114.8 C147.8,115.1 147.8,115.4 147.9,115.6 C148.3,117.2 149.5,118.1 150.8,119 C151.1,119.2 151.5,119.5 151.8,119.7 C151.9,119.8 152.2,119.8 152.4,119.8 C152.5,119.8 152.6,119.8 152.7,119.8 L153.3,119.7 C153.7,119.6 154.2,119.6 154.6,119.5 C159.6,118.4 162.3,116.2 163.4,112.4 C163.4,112.3 163.5,112.3 163.5,112.2 C164.2,110.2 163.8,108.9 162,107.7 C160.9,107 159.8,106.2 158.8,105.2 C158.1,104.5 157.3,104.2 156.4,104.2 C156.1,104.2 155.8,104.2 155.4,104.3 C154.8,104.4 154.2,104.6 153.6,104.7 C153,104.8 152.4,105 151.9,105.1 C148.6,105.9 146.7,108.6 147.1,112 C147.3,113 147.5,113.9 147.7,114.8 Z M151,110.3 L151,109.9 C151.1,108.4 152.1,107.3 153.5,107.3 C153.9,107.3 154.4,107.4 154.8,107.6 C155.6,108 156.4,108.5 157.2,109 C158.4,109.7 158.9,110.8 158.8,112.4 L158.8,112.5 L158.7,112.6 C158.7,112.7 158.6,112.8 158.5,112.9 C158.3,113.2 158,113.7 157.6,114.2 C156.6,115.4 155.6,115.9 154.7,115.9 C154.5,115.9 154.2,115.9 154,115.8 C152.5,115.3 151.4,114 151,112 C151,111.5 151,110.9 151,110.3 Z" id="Shape"></path>
                <path d="M152,206.5 C152.1,206.4 152.1,206.3 152.2,206.2 C152.2,206.2 152.2,206.1 152.2,206.1 C151.4,204.7 149.9,203.6 148.6,203.5 C148.5,203.5 148.5,203.5 148.4,203.5 C147.3,203.5 145.9,204.4 145.6,205.3 C145.5,205.8 145.5,206.4 145.6,206.5 C146.8,207.7 148.2,208.4 149.8,208.5 L149.9,208.5 C150.6,208.5 150.9,208 151.4,207.2 C151.7,207 151.8,206.7 152,206.5 Z" id="Shape"></path>
            </g>
        </g>
    </g>
</svg>