<?xml version="1.0" encoding="UTF-8"?>
<svg width="193px" height="294px" viewBox="0 0 193 294" version="1.1" xmlns="http://www.w3.org/2000/svg" xmlns:xlink="http://www.w3.org/1999/xlink">
    <!-- Generator: Sketch 51.3 (57544) - http://www.bohemiancoding.com/sketch -->
    <title>Skull</title>
    <desc>Created with Sketch.</desc>
    <defs></defs>
    <g id="Page-1" stroke="none" stroke-width="1" fill="none" fill-rule="evenodd">
        <g id="Wizzard-01" transform="translate(-38.000000, -438.000000)" fill="#000000" fill-rule="nonzero">
            <g id="Skull" transform="translate(38.000000, 438.000000)">
                <path d="M0.6,187 C0.7,188.6 0.9,190.2 1.1,191.8 L1.2,192.6 C1.3,193.4 1.4,194.1 1.6,194.9 L2.4,199.6 C2.8,202.3 3.3,205 3.7,207.6 C4,209.5 4.3,211.5 4.6,213.5 C4.8,215 5,216.4 5.2,217.9 C5.3,218.6 5.4,219.2 5.5,219.9 C5.7,221.7 6,223.6 6.5,225.4 C7.2,228 6.3,230.2 5.4,231.8 C4.8,232.8 4.8,233.7 5.1,234.7 C5.4,235.6 5.2,236.5 5.1,236.9 C4.9,237.5 4.7,238.1 4.4,238.7 C4.3,239 4.1,239.4 4,239.7 C2.4,243.9 2.9,248.3 3.6,252.1 C4,254.5 4.5,256.5 5.2,258.4 C5.7,259.8 6.5,261.2 7.3,262.5 C7.6,263.1 8,263.7 8.3,264.3 L8.5,264.6 C8.7,265 9,265.5 9.2,266 C9.7,267.1 10.3,268.3 11.4,269.4 C12.2,270.1 12.8,271 13.4,271.9 C13.7,272.4 14.1,272.9 14.4,273.3 C15.1,274.2 15.9,275.2 16.9,276.1 C18.7,277.8 20.7,279.6 22.8,281.2 C24,282.1 25.2,282.8 26.4,283.2 C29.4,284.2 32.2,285 34.9,285.7 C36,286 37.6,285.9 39,285.7 C42.8,285.3 46.6,284.8 50.1,283.4 C54.4,281.7 58.1,278.7 61.4,274.2 C63.3,271.7 66.2,270.1 70,269.6 C73.1,269.2 76.1,269 78.4,268.9 L78.8,268.9 C79.3,268.9 79.8,268.8 80.3,268.9 C83.8,269 85.1,270.1 85.9,273.7 C86.3,275.6 86.2,277.5 86.1,279.4 C86.1,280.1 86,280.9 86,281.6 C86,282.8 86,283.8 86.8,284.7 C87.8,285.7 88.3,286.1 89,286.1 C89.4,286.1 90,286 90.8,285.6 C93.4,284.6 95.7,284.4 98.1,285 C98.4,285.1 98.7,285.1 99,285.1 C100.3,285.1 101.4,284.4 102.3,283.8 C102.5,283.6 102.8,283.5 103,283.3 C104,282.6 105.1,281.8 106.3,281.4 C106.9,281.2 107.6,281.1 108.5,281.1 C109,281.1 109.5,281.1 110,281.2 C110.7,281.3 111.4,281.5 112,281.7 C112.3,281.8 112.6,281.9 112.8,282 L113,282.1 L113,282.4 C113.2,284.5 114.1,286.3 116,288.2 C116.4,288.6 116.7,289 117,289.4 C117.5,290 118,290.5 118.5,291 C118.9,291.3 119.6,291.5 120.1,291.5 C123.2,291.1 126.1,290.7 128.7,289 L129,288.8 L129.2,289.1 C129.5,289.5 129.7,289.8 129.9,290.2 C130.5,291.3 131.1,292.2 132.4,292.4 C133,292.5 133.5,292.6 134.1,292.7 C135.1,292.9 136,293.1 137,293.1 L137.1,293.1 C139,293.1 140.2,291.6 140.8,290.4 L141,290.1 L141.3,290.2 C141.5,290.3 141.6,290.3 141.8,290.4 C142.1,290.5 142.5,290.6 142.8,290.8 C143.5,291.3 144.2,291.5 145.1,291.5 C146.1,291.5 147.1,291.1 147.9,290.8 C148.9,290.4 150,289.9 151,289.4 C151.4,289.2 151.9,289 152.3,288.7 C152.7,288.5 153.2,288.3 153.6,288.1 L154.4,287.7 L154.6,287.8 C157.3,289.5 159.8,289.6 162.3,288.4 C163.3,287.9 164.4,287.3 165.5,286.8 L165.9,286.6 C167.8,285.7 169.4,283 168.9,280.5 C168.4,278.3 167.8,275.7 166.6,273.4 L166.5,273.2 L166.6,273 C167.9,270.1 170.3,269.5 174,271.1 L174.2,271.2 L174.2,271.4 C174.2,271.6 174.2,271.7 174.2,271.9 C174.2,272.3 174.3,272.7 174.2,273.1 C173.9,275.9 174.7,278.6 176.7,281.5 C178.4,284.1 180.5,284.5 183,282.9 C183.9,282.3 184.7,281.6 185.5,280.9 C185.7,280.7 186,280.5 186.2,280.3 C186.4,280.2 186.5,279.8 186.6,279.6 C187.7,276.9 187.8,273.9 187.9,271.1 L187.9,270.4 C188,268.6 186.7,267.4 185.4,266.2 L185.2,266 L186.3,262.8 C185.7,262 185.1,261.1 184.5,260.3 C183,258.2 181.4,256.1 179.9,253.9 C178.7,252.1 178.6,251.1 179.2,248.8 L179.3,248.5 L181.4,248.4 C182.7,248.3 184.1,248.3 185.4,248.2 C187.2,248.1 188.6,247.3 190.1,245.5 C193.2,241.9 193.5,237.8 191,232.2 C188.9,227.5 186.9,223.9 184.7,220.8 C183,218.5 183.4,216.1 184,214.2 C184.2,213.4 184.5,212.6 184.8,211.8 C185.3,210.2 185.9,208.4 186.2,206.7 C186.5,205.1 186.3,203.2 185.7,201.7 C184.5,198.7 184.1,195.5 183.9,193.2 C183.6,189.9 183.5,186.6 183.4,183.5 C183.4,182.6 183.7,181.6 184,180.7 C184.8,178.2 184.3,175.9 182.4,173.4 C180.5,170.9 178.7,168.4 177.1,165.8 C176.5,164.8 176,163.7 175.6,162.6 C175.5,162.2 175.3,161.9 175.2,161.6 C173,156.2 170.2,149.8 166.4,143.9 C165.1,141.8 163.2,139.2 160.4,137.4 C159.5,136.8 158.8,136.1 158.1,135.4 C156.7,134 154.9,133.2 153.2,132.4 C152.7,132.2 152.2,132 151.7,131.7 C150,130.9 148.3,130.3 146.4,129.6 C145.6,129.3 144.8,129 144,128.7 L143.8,128.6 L143.8,128.4 C143.8,128.1 143.8,127.8 143.8,127.5 C143.8,126.8 143.8,126.1 143.6,125.4 C142.6,122.2 140.1,120.1 136.2,119.1 C135.4,118.9 134.5,118.7 133.6,118.6 C132.7,118.4 131.9,118.3 131,118.1 C125.7,116.8 121.8,114.9 118.7,112.1 C117.6,111.1 117.1,109.4 116.8,108.2 C116.4,106.4 116.2,104.7 115.9,102.9 C115.7,101.7 115.5,100.5 115.3,99.2 C115.2,98.5 115,97.8 114.9,97.1 C114.4,94.2 113.8,91.3 113.8,88.3 C113.8,87.6 113.7,86.9 113.5,86.2 C113.4,85.8 113.3,85.4 113.3,85 C113.2,84.5 113.2,84 113.1,83.6 C112.9,82.1 112.6,80.5 112.5,79 C112.4,77.5 112.8,76.2 113.7,75.2 C114.4,74.4 115.1,73.5 115.9,72.4 C116.2,72 116.3,71.3 116.2,70.8 C116.1,70.5 116,70.2 115.5,70 C114.4,69.6 113.9,68.8 113.4,68 C113.3,67.9 113.2,67.7 113.1,67.6 C111.4,65.1 109,63.3 106,62.3 C103.3,61.4 101,60.7 99,60.2 C97.9,59.9 96.8,59.8 95.7,59.7 C95,59.6 94.3,59.5 93.7,59.4 C91.8,59.1 89.8,58.8 87.9,58.3 C85.9,57.9 85.8,57.3 86.1,55.2 L86.1,54.9 L86.4,54.9 C88.2,54.9 89.3,54.3 89.9,53.1 C90.2,52.7 90.7,52.3 91.5,52 C93.5,51.2 95,49.8 96.6,48.4 C97.2,47.9 97.8,47.3 98.4,46.8 C99.8,45.6 100.9,44.4 101.7,43.2 C103.9,39.8 104.2,36.2 102.5,32.6 C101.1,29.6 99,26.7 95.8,23.6 C93.3,21.1 90.1,18.1 88.2,14.1 L88,13.7 C86.9,11.4 85.7,9 85.8,6.2 C85.8,5.5 86,4.8 86.2,4.1 C86.7,2.7 86.5,1.9 84.5,0.6 C84.1,0.4 83.6,0.2 83.1,0.2 C82.4,0.2 81.7,0.4 81.4,0.8 C80.9,1.4 80.4,2 79.9,2.6 C78.3,4.5 76.7,6.4 75.3,8.4 C72,13.4 70.3,18.6 70.3,24 C70.3,25.1 70.3,26 70.1,26.8 C69.7,29.5 70.3,32.2 72,35 C72.5,35.8 72.8,36.6 73.2,37.4 C73.4,37.9 73.7,38.5 74,39 C74.2,39.4 74.5,39.8 74.9,40.1 L75,40.2 C75.7,41 76.3,41.7 77,42.5 C78.5,44.1 80,45.8 81.4,47.5 C81.8,48 81.9,48.8 81.8,49.4 C81.6,51 81.4,52.7 81.1,54.3 L81,55.3 C81,55.5 80.9,55.7 80.8,55.9 C80.8,56 80.7,56.2 80.6,56.3 L80.5,56.6 L78.2,56.1 C76.6,55.7 75,55.4 73.4,55 L72.8,54.9 C72.1,54.7 71.3,54.6 70.5,54.5 C68.6,54.5 66.7,54.5 64.8,54.6 L64.7,54.6 C63.6,54.6 62.7,55 61.9,55.7 C60.8,56.7 59.6,57.7 58.1,58.4 C57.2,58.9 56.6,60 56.6,61.5 C56.6,62.5 56.5,63.6 56.4,64.5 C56.3,65.1 56.2,65.8 56.1,66.4 C55.9,67.5 55.7,68.6 55.7,69.7 C55.6,71.6 55.6,73.5 55.6,75.3 C55.6,76.4 55.6,77.5 55.6,78.5 C55.6,79.6 55.5,80.7 55.5,81.8 C55.4,83.4 55.4,85.1 55.4,86.7 C55.4,87.4 55.5,88.1 55.5,88.7 C55.6,89.3 55.6,89.9 55.6,90.5 C55.7,95.1 56.3,100 57.5,106.3 C58.3,110.5 59.1,115 60,120.4 C60.7,124.3 59.3,127.1 55.9,129.3 C53.9,130.5 51.7,131.3 48.7,131.8 L48,131.9 C46.5,132.1 44.9,132.4 43.5,132.9 C42.1,133.5 40.7,134.2 39.3,134.9 C38.5,135.3 37.7,135.8 36.9,136.2 C35.2,137 34,138.2 32.9,140.1 C31.6,142.3 31.8,144.3 33.4,146 L34.6,147.3 L34.6,147.5 C34.5,148.5 33.9,149.1 32.8,149.1 L32.5,149.1 C27.3,149.1 22.3,150.8 16.9,154.5 C16.8,154.6 16.7,154.6 16.6,154.7 C16.4,154.8 16.2,155 15.9,155.1 C9.8,158 7.2,163.5 5.3,169.1 L4.8,170.5 C4.1,172.5 3.4,174.5 3,176.5 C2.8,177.5 2.6,178.4 2.3,179.4 C1.1,181.7 0.5,184.3 0.6,187 Z M83.5,42.4 L83.2,42.7 L82.9,42.4 C80,39.8 75.2,31.6 75.1,27.3 C74.9,19.7 76.5,13.7 79.9,8.2 L80.3,7.6 L80.6,8.3 C82.5,13.4 84.5,17.1 86.8,20.3 C88.1,22.1 89.6,23.7 91.3,25.2 C93,26.7 94.3,28.6 95.6,30.5 C95.8,30.8 96.1,31.2 96.3,31.5 C97.9,33.9 98.4,36.4 97.8,39.2 C97.4,40.9 96.8,42.1 96.1,42.9 C93.3,45.8 89.9,48.1 87.2,49.8 C87.1,49.9 86.9,49.9 86.9,49.9 C86.9,49.9 86.8,49.9 86.7,49.9 C86.6,49.9 86.5,49.9 86.4,49.9 L85.9,49.9 L86,49.4 C86.1,49.2 86.1,49 86.1,48.7 C86.2,48.2 86.3,47.7 86.5,47.3 L87,46.2 C87.9,44.3 88.8,42.3 89.8,40.4 C90.7,38.8 91.1,37.1 91,34.7 C91,33.6 90.2,33 89.3,33 C89,33 88.6,33.1 88.3,33.3 C87.8,33.6 87.3,34 87.1,34.4 C86.5,35.6 85.9,37 85.6,38.4 C85.4,40.1 84.6,41.2 83.5,42.4 Z M107,69.7 C107,70.5 106.4,71 105.4,71 L104.6,71 C104.1,71 103.6,71 103.1,71 L101.5,71 C100,71 98.7,71 97.4,71.2 C96.1,71.3 94.8,71.4 93.4,71.4 C89.7,71.4 85.7,70.9 81.4,69.9 C80.3,69.6 79.2,69.3 78.1,68.9 C76.1,68.2 74.1,67.6 71.9,67.5 C71.3,67.5 70.7,67.2 70.2,67 L69.2,66.6 C67.9,66 66.6,65.5 65.3,64.8 C64.5,64.4 63.8,63.7 63.3,63 C62.8,62.2 62.7,61.1 63.1,60.2 C63.5,59.3 64.4,58.7 65.4,58.6 C66.4,58.5 67.8,58.5 69,58.6 L69.6,58.6 C74,58.8 78.1,60.1 81.2,61.2 L81.4,61.3 L81.5,61.5 C81.6,61.8 81.7,62 81.8,62.3 C82,62.8 82.2,63.3 82.3,63.8 C82.7,65.7 84.1,66.6 85.7,67.4 C86.3,67.7 87,67.6 87.6,67.1 C88,66.7 88.1,66.2 87.6,65.4 C87.3,65 87.1,64.5 86.8,64.1 L86.3,63.3 L86.9,62.4 L88.2,62.6 C89,62.7 89.8,62.8 90.6,63 C91.3,63.1 92,63.3 92.8,63.5 C94.1,63.8 95.5,64.1 96.8,64.3 C100.6,64.7 103.7,66.5 106.1,68.2 C106.7,68.3 107,69.1 107,69.7 Z M137.5,127.2 L137.5,127.4 L132.5,129.9 L132.3,129.8 C132,129.6 131.6,129.4 131.3,129.2 C130.5,128.7 129.6,128.2 128.7,127.8 C127.8,127.4 126.9,127.1 126,126.8 C125.5,126.6 124.9,126.4 124.4,126.2 C123.8,126 123.2,125.8 122.6,125.6 C120.5,124.9 118.4,124.2 116.6,122.7 C116.5,122.6 116.3,122.6 116,122.6 C115.8,122.6 115.6,122.6 115.4,122.7 C114.9,122.8 114.5,123.2 114.3,123.7 C114,124.4 114.2,125.2 114.6,125.9 C115.6,127.5 117.1,128.4 118.9,128.7 C122.1,129.1 124.8,130.6 127.5,132 C128.3,132.4 129,132.8 129.8,133.2 C130.7,133.7 131.5,134.3 132.3,134.8 C133.3,135.6 134.3,136.3 135.4,136.7 C137.5,137.4 138.5,138.8 139.6,140.3 L139.8,140.6 L139.5,141.5 L139.2,141.5 C139.1,141.5 138.9,141.5 138.8,141.5 L138.6,141.5 C138.2,141.5 137.9,141.5 137.5,141.4 C135.4,140.6 133.3,139.8 131.2,139 L129.6,138.4 C128.5,138 127.5,137.4 126.5,136.9 C125.3,136.3 124.1,135.6 122.8,135.2 C118.2,133.7 114.5,133.6 110.8,134.9 C109.5,135.3 108.5,136.1 107.5,136.9 C107,137.3 106.5,137.7 106,138 L106,141.1 C106,141.3 106,141.4 106,141.6 C105.7,143.6 106,145.7 106.7,147.9 C107,148.8 107,149.8 107,150.5 C107,151.5 106.4,152.2 105.6,152.2 C105.2,152.2 104.7,152 104.3,151.7 L104,151.5 C103.3,151 102.6,150.4 102.1,149.7 C100,146.9 97.4,144.7 95,142.9 C94,142.1 92.3,141.7 90.4,141.7 C88.2,141.7 86.2,142.3 85.1,143.2 C85,143.3 84.8,143.5 84.7,143.6 L84.5,143.8 C83,145.5 82.1,147.5 81.8,149.8 C81.7,150.8 81.5,151.8 81.3,152.8 C81,154.2 80.8,155.6 80.7,157.1 C80.6,158.7 80.6,160.4 80.6,162 C80.6,163.5 80.6,165.1 80.6,166.6 C80.5,167.9 80.1,169.3 79.4,170.5 C78.4,172.2 77,172.3 75.7,170.5 C73.9,168 72.4,165.2 71.1,161.9 C70.4,160.2 69.5,158.8 68.3,157.7 C67.5,157 66.7,156.4 65.6,156.6 C63.7,157 62.2,157.7 60.9,158.8 C60.2,159.4 59.5,160 58.8,160.5 L58.4,160.8 C55.9,162.8 53.3,165.3 53.7,169.5 C53.8,170.5 53.7,171.6 53.4,172.8 C52.1,177.9 50.6,183.9 49,189.8 C48.7,191 48.2,192.9 46.1,193.3 L45.9,193.3 L45.8,193.2 C44.2,191.7 42.2,186.3 42.6,184.4 C42.7,183.9 42.9,183.4 43.1,182.9 C43.2,182.7 43.3,182.5 43.5,182.3 C43.7,182 43.8,181.8 43.9,181.5 L44.6,179.3 C45.5,176.6 46.5,173.8 47.3,171 C48.1,168 47.8,165 47.4,161.5 C47.2,160.1 46.5,159 45.3,158.1 C43.6,156.9 41.7,156.8 39.9,156.8 L39.7,156.8 C39.2,156.8 38.6,156.8 38.1,156.8 C37,156.8 35.9,156.9 34.8,156.8 C34.1,156.8 33.4,156.2 33.1,155.6 C32.7,154.8 32.9,154 33.7,153.3 C35.1,152 36.7,151.5 38.4,151.1 C40.6,150.5 41.8,149.4 42.2,147.5 C41.5,146.5 40.5,145.9 39.2,145.2 C38.2,144.7 37.4,143.7 37.2,142.7 C37.1,142 37.2,141.4 37.6,141 C38.6,139.9 40.1,138.4 41.7,137.6 C43.3,136.7 45.2,136.3 47,136 C51.2,135.2 54.6,134.1 57.8,132.7 C60.9,131.3 62.8,129 64.3,126.9 C64.5,126.6 64.6,126.3 64.6,126.1 L64.7,125.4 C64.8,124.4 64.9,123.4 64.8,122.4 C64.7,120.6 64.4,118.9 64.1,117 C63.6,113.6 63.1,110.3 62.5,107 C62.3,105.8 62,104.7 61.8,103.5 C61.3,101.4 60.8,99.2 60.7,97 C60.6,95.6 60.5,94.1 60.3,92.7 C59.9,89.2 59.6,85.6 60.1,82 C60.3,80.9 60.3,79.7 60.3,78.5 C60.3,77.9 60.3,77.3 60.3,76.8 L60.3,76.1 L60.9,76.5 C61.4,76.8 61.9,77.2 62.3,77.5 C63.2,78.2 64,78.8 64.9,79.2 C67.8,80.5 69,82.6 68.8,85.7 C68.7,87.4 68.5,89.4 69.5,91 C71.3,94.1 73.6,95.8 76.5,96.4 C81.3,97.3 82.3,98.4 83.4,103.3 C83.5,103.6 83.5,103.9 83.5,104.2 L83.5,104.4 C83.6,105.5 83.7,106.5 83.8,107.6 C84,109.9 84.2,112.3 84.6,114.7 C85.2,118.4 86.3,121.5 88.1,124.2 C89.5,126.4 91.6,126.5 93.6,126.5 C96.3,126.4 98.8,124 98.9,121.2 C99,120.2 99.1,119.1 99.2,118.1 C99.5,115.4 99.8,112.6 99.2,109.9 C99.1,109.4 99.1,108.9 99.1,108.5 C99.1,108 99.1,107.5 99,107 C98,104.2 97.7,101.3 97.4,98.5 C97.3,97.9 97.3,97.4 97.2,96.8 C97.1,96 97.2,95.2 97.3,94.5 C97.3,94.2 97.4,93.8 97.4,93.4 L97.4,93 L97.8,93 C100.2,93.3 102.1,92.9 103.7,91.7 C105.3,90.6 106.4,89 107.2,86.7 L107.5,85.7 L106.9,85.4 C106.6,85.3 106.3,85.1 106.2,84.8 C105.5,83.2 104.8,81.6 104.2,79.9 C103.7,78.7 103.4,78.6 102.2,78.6 C101.9,78.6 101.6,78.7 101.3,78.7 L101.1,78.7 L101.1,78.8 C101,79 100.9,79.1 100.8,79.2 C99.5,81 99.5,82.7 100.9,84.6 C101.8,85.7 102,87.1 101.5,88.3 L101.4,88.4 C100.9,88.8 100.4,89 99.8,89 C99.4,89 98.9,88.9 98.5,88.8 L98.2,88.7 C97.8,88.6 97.4,88.6 97,88.6 C94.9,88.6 93.3,89.9 92.7,92 C92,94.5 92,97.1 92.5,100.4 C92.7,101.5 92.9,102.5 93.1,103.6 C93.7,107 94.4,110.6 94.3,114.1 C94.3,114.7 94.3,115.3 94.3,116 C94.4,118 94.5,120.1 93.4,122.4 L93.2,122.9 L92.8,122.5 C92.6,122.3 92.4,122.1 92.3,122 C91.9,121.7 91.6,121.3 91.4,120.9 L91.1,120.3 C90.5,119 90,117.6 89.7,116.1 C89.4,114.2 89.1,112.3 88.9,110.4 C88.8,109.4 88.7,108.5 88.6,107.5 C88.5,106.5 88.3,105.5 88.2,104.4 C87.9,102.3 87.6,100.2 87.4,98 C87.3,96.2 86.4,95.4 85,94.6 C83.3,93.6 81.4,93.1 79.6,92.7 C75.6,91.7 73.7,89 74.1,84.9 C74.1,84.7 74.1,84.6 74.2,84.4 C74.2,84.1 74.3,83.9 74.3,83.7 C74.3,83.3 74.2,83 74.2,82.6 C74.2,81.7 74.1,80.7 73.8,80 C73,78.2 71.7,77 70.1,76.5 C69.3,76.2 68.7,75.8 68,75.4 C67.8,75.3 67.5,75.1 67.3,75 C65.7,74.1 65.2,72.7 65.7,70.6 L65.8,70.2 L67.1,70.6 C67.8,70.8 68.4,71 69,71.2 C69.5,71.4 70,71.6 70.5,71.8 C71.4,72.1 72.4,72.5 73.3,72.7 C75.3,73.2 77.4,73.6 79.3,73.9 C82.5,74.4 85.6,74.9 88.8,75.4 L91.6,75.8 C91.8,75.8 92,75.8 92.1,75.8 L94,75.6 C95.6,75.5 97.3,75.3 99,75.1 L99.5,75 C100.8,74.9 102.1,74.7 103.3,74.7 C104.7,74.7 105.9,74.9 107.1,75.3 L107.4,75.4 L107.4,75.7 C107.4,76.2 107.3,76.8 107.2,77.3 C106.9,79.9 106.7,82.4 107.4,85 L107.6,85.8 L107.5,85.8 L107.7,86.7 C108,88 108.2,89.2 108.2,90.3 C108.2,90.6 108.2,90.8 108.2,91.1 C108.2,91.5 108.2,91.8 108.2,92.1 C108.5,93.5 108.8,94.9 109.2,96.3 C109.5,97.7 109.9,99.1 110.2,100.6 L110.3,101.1 C110.5,102.1 110.8,103.1 110.6,104 C110.4,105.1 110.6,105.9 111.1,107 C111.8,108.6 112.4,110.3 113.1,112 C113.4,112.7 113.6,113.4 113.9,114.1 C114,114.1 114.1,114.2 114.2,114.2 C114.6,114.4 115.1,114.7 115.5,115 C116,115.4 116.4,115.8 116.9,116.2 C117.7,116.9 118.5,117.6 119.4,118 C122.2,119.3 125.3,120.2 128.2,121.2 C129.3,121.6 130.5,121.8 131.6,122.1 C132.7,122.4 133.8,122.6 134.9,123 C137.2,123.5 137.8,124.5 137.5,127.2 Z M178.7,268.9 C179.4,268.2 180.4,267.9 182,268 L182.2,268 L182.3,268.2 C183.1,269.6 183.8,273.1 183.4,274.7 L183.4,274.9 C183.1,276.4 182.7,278.1 180.9,279.5 L180.6,279.7 L180.4,279.4 C180.2,279.1 180,278.9 179.8,278.6 C179.4,278.1 179,277.6 178.7,277.1 C178,275.9 177.9,274.6 177.9,273.3 C177.9,272.9 177.9,272.4 177.9,272 C177.8,270.6 178.1,269.6 178.7,268.9 Z M157.6,274.2 C157.9,274.1 158.2,274.1 158.5,274.1 C159.8,274.1 161,274.7 162,275.3 C162.3,275.5 162.6,275.6 162.9,275.8 C163.2,276 163.4,276.4 163.5,276.7 C163.7,277.5 164,278.5 164.2,279.4 C164.7,282.2 163.9,283.6 161.3,284.5 C160.8,284.7 160.2,284.9 159.6,285 C159.3,285.1 159,285.2 158.7,285.3 L158.4,285.4 L158.3,285.1 C157.1,282.7 155.8,280.2 155.3,277.3 C155,275.7 155.9,274.5 157.6,274.2 Z M144.3,277.5 C144.6,277.2 145.1,277 145.7,277 C146.3,277 147.1,277.2 148.5,277.6 L148.7,277.7 L149.1,279.1 C149.3,280 149.6,280.8 149.8,281.7 C150.2,283 150.2,284.1 149.7,284.9 C149.1,285.9 148,286.5 146.1,286.9 C146,286.9 145.8,286.9 145.7,286.9 C144.9,286.9 144.4,286.4 144.2,285.7 C144.1,285.4 144.1,285.2 144,284.9 C143.8,283.8 143.5,282.7 143.5,281.5 C143.6,279.3 143.7,278.1 144.3,277.5 Z M131.7,271.5 L131.8,271.2 L132.1,271.3 C132.3,271.4 132.6,271.4 132.8,271.5 C133.2,271.6 133.5,271.7 133.9,271.7 C136.1,272 137.2,273.6 138.4,275.1 L138.5,275.2 C139.6,276.7 139.3,278.1 138.8,279.3 C138.7,279.6 138.6,279.9 138.7,280.1 C139.1,282 138.7,283.8 137.4,285.8 C137.3,286 137.1,286.3 137,286.6 C136.8,287 136.7,287.4 136.4,287.8 C136.2,288.1 135.7,288.2 135.3,288.2 C135.1,288.2 134.9,288.2 134.7,288.1 C134.2,287.8 133.8,287.2 133.5,286.6 C133,285.2 132.4,283.8 132.1,282.4 C131.7,280.6 131.4,278.7 131.1,276.3 C130.9,274.9 130.7,273.2 131.7,271.5 Z M118.6,281 C119.1,280.3 119.8,279.9 120.8,279.8 C121.4,279.8 122.1,279.7 122.9,279.7 C123.5,279.7 124,279.7 124.6,279.7 C125.2,279.7 125.8,279.7 126.4,279.7 L126.7,279.7 L127.8,284.1 L127.6,284.2 C127.4,284.4 127.2,284.6 127,284.7 C126.6,285 126.2,285.4 125.9,285.6 C124.9,286.3 123.9,286.7 122.8,286.7 C120.9,286.7 119.3,285.5 118.5,283.5 C118,282.7 118.1,281.8 118.6,281 Z M6.1,183.2 L6.4,181.8 C6.7,180.1 7.1,178.3 7.6,176.6 C8,175.3 8.4,174 8.8,172.8 C9.2,171.5 9.7,170.2 10.1,168.8 C10.8,166.3 12.1,164.2 13.4,162.1 C13.7,161.7 13.9,161.2 14.2,160.8 C14.8,159.8 15.8,158.8 16.9,158.2 C19.2,156.9 21.7,155.8 24,154.7 L25.4,154 C25.7,153.8 26.1,153.8 26.5,153.8 C26.7,153.8 26.9,153.8 27.1,153.7 L27.5,153.6 L27.6,154 C27.6,154.3 27.7,154.5 27.7,154.7 C27.7,155.2 27.8,155.5 27.9,155.9 C28.4,157.8 29.1,159.1 30.8,159.7 C32,160.1 33.3,160.4 34.8,160.4 C35.3,160.4 35.9,160.4 36.6,160.3 C36.9,160.3 37.3,160.2 37.6,160.2 C38.3,160.1 39,160.1 39.7,160.1 L39.9,160.1 C40.5,160.1 41.4,160.4 41.6,161 C43.1,164.2 43.3,167.7 42,171.5 C41.6,172.8 41.1,174.2 40.6,175.5 L40.2,176.5 C39.9,177.2 39.7,178 39.6,178.7 C39.3,180.1 38.9,181.6 37.9,182.9 C37.3,183.7 37.2,184.5 37.5,185.6 C37.8,186.6 38.1,187.6 38.3,188.6 C38.8,190.4 39.2,192.2 40,193.8 C41.1,196.1 43.4,197.4 45.9,197.3 C49.5,197.1 51.3,194.7 52.1,192.7 C53,190.5 53.7,188.2 54.4,186 C54.7,184.9 55.1,183.8 55.4,182.7 C57.1,177.6 58,172.5 58,167.5 C58,167.1 58,166.5 58.3,166.1 C59.6,164 61.4,161.7 64.8,160.5 L65.1,160.4 L65.2,160.7 C65.5,161.3 65.8,161.9 66.1,162.5 C66.8,163.8 67.4,165 67.9,166.3 C68.8,169 70.7,171.3 72.4,173.4 C72.7,173.8 73,174.2 73.3,174.5 C73.5,174.8 73.9,175 74.6,175.2 C75.3,175.4 76.2,175.6 77,175.6 C78.2,175.6 79.1,175.2 79.9,174.3 C80.1,174 80.5,173.9 80.8,173.8 C81,173.7 81.1,173.7 81.3,173.6 C83.5,172.1 84.6,170.5 84.7,168.5 C84.8,166.7 84.8,164.9 84.7,163.1 C84.7,161.9 84.7,160.8 84.7,159.6 C84.7,157.6 84.8,155.8 85,154.1 C85.1,153.3 85.3,152.6 85.5,151.8 C85.6,151.4 85.7,151.1 85.8,150.7 C85.9,150.3 85.9,150 86,149.6 C86.1,148.9 86.3,148.1 86.5,147.3 C87.1,145.6 88.3,144.6 89.8,144.6 C90.5,144.6 91.1,144.8 91.8,145.1 C94.5,146.4 96.7,148.4 98.2,151.1 C99.3,153 100.8,154.1 103.4,155 C105.5,155.7 107.8,155.1 109.1,153.5 C110.1,152.3 110.5,150.8 110.2,149.2 C110,147.9 109.4,146.6 108.8,145.1 C108.5,144.3 108.2,143.4 108.9,142.4 L109.1,142.1 L109.4,142.3 C109.9,142.7 110.4,143 110.8,143.3 C111.9,144 112.9,144.7 113.7,145.6 C115,146.9 116.1,148.3 117.2,149.7 C117.7,150.3 118.2,150.9 118.7,151.6 C119.5,152.6 119.6,153.7 119.1,155 C118.5,156.3 117.9,157.3 116.2,157.6 C115,157.8 114.1,157.9 113,157.9 L112.8,157.9 C112.1,157.9 111.3,158.1 110.6,158.2 C109.8,158.4 109.5,158.7 109.6,159.2 C109.6,159.9 109.9,160.6 110.7,160.7 C112.2,160.9 113.7,161.2 115.2,161.2 C117.5,161.2 119.4,160.6 121,159.4 C121.3,159.2 121.6,159 121.9,158.9 C122.1,158.8 122.2,158.7 122.4,158.7 L122.8,158.5 L123,158.9 C123.5,160 124,161 124.5,162.1 C125.9,164.9 127.4,167.8 127.5,171.4 L127.5,171.9 L127,171.7 C126.5,171.5 126.1,171.4 125.7,171.3 C124.9,171 124.2,170.8 123.5,170.6 C120.1,169.3 117.2,168.9 114.4,169.1 C113.7,169.2 112.9,169.3 112.2,169.4 C111.7,169.5 111.3,169.5 110.8,169.6 C109.6,169.8 108.4,169.9 107.1,170 C104.4,170.3 101.7,170.6 99.1,171.1 C97,171.5 94.8,172.1 92.7,172.7 C91.6,173 90.4,173.4 89.3,173.6 C88.7,173.7 88.1,173.9 87.6,173.9 C87,174 86.3,174.1 85.7,174.3 C84.7,174.6 84.4,174.9 84.6,175.7 C84.8,176.8 85.6,177 86.2,177 C87.6,177 89.4,177 91,176.7 C92.9,176.3 94.8,175.8 96.7,175.3 C97.9,175 99,174.7 100.2,174.4 C101.5,174.1 102.9,173.7 104.4,173.6 C105.7,173.5 106.9,173.4 108.2,173.3 C110.1,173.2 112,173 113.8,172.7 C116,172.4 118.1,172.8 120.6,173.9 C122.4,174.7 124.5,175.6 126.6,175.8 C129,176 131.1,175.9 133,175.4 C135,174.9 136.5,173.3 137.8,170.5 C139,167.7 141,166.4 144.2,166.2 C144.3,166.2 144.4,166.2 144.5,166.2 L145,166.2 L145.1,166.2 C145.8,166.2 146.4,166.2 147.1,166.2 L148,166.2 C149.7,166.2 151.4,166.2 153,165.9 C156.3,165.4 159.6,165.5 163.2,166.2 C163.8,166.3 164.8,166 165.3,165.5 C165.5,165.3 165.6,164.4 165.4,163.7 C165.1,162.9 164.2,162.7 163.3,162.7 C160.9,162.6 158.8,162.5 156.6,162.5 L155.8,162.5 C151.9,162.5 148.1,162.7 145.3,162.8 C143.7,162.9 142.1,163 140.3,163.3 C138,163.6 136.2,165 134.6,167.7 C134.3,168.2 134,168.6 133.6,169.1 C133.4,169.3 133.2,169.6 133.1,169.8 L132.7,170.4 L125.7,153.2 L126.1,153.1 C126.3,153 126.5,153 126.7,152.9 C127.3,152.7 127.9,152.6 128.5,152.5 C128.8,152.4 129.2,152.5 129.6,152.5 C129.9,152.5 130.2,152.5 130.5,152.5 C131.5,152.4 132.5,151.2 132.4,150.2 C132.3,149.4 131.4,148.4 130.3,148.6 C129.5,148.7 128.5,148.7 127.6,148.6 C127.1,148.6 126.6,148.5 126.1,148.5 C124.8,148.5 123.9,148.7 123.1,149.3 L122.8,149.5 L122.6,149.2 C122.1,148.5 121.5,147.9 121,147.2 C119.9,145.8 118.8,144.4 117.6,143.3 C116.3,142.1 114.9,141.2 113.3,140.2 C112.6,139.7 111.9,139.3 111.1,138.7 L110.4,138.2 L111.2,138 C111.6,137.9 111.9,137.8 112.2,137.8 C112.7,137.7 113.1,137.6 113.5,137.4 C114.6,136.7 115.7,136.6 117,137.1 C117.8,137.4 118.7,137.7 119.6,138 C120.5,138.3 121.3,138.6 122.2,138.9 C123.2,139.3 124.2,139.8 125.2,140.2 L125.8,140.5 C126.1,140.6 126.4,140.8 126.6,140.9 C126.9,141.1 127.3,141.3 127.6,141.4 C129,142 130.4,142.5 131.7,143 C132.5,143.3 133.2,143.6 134,143.9 C134.3,144 134.6,144.2 134.9,144.3 C135.5,144.6 136,144.9 136.6,144.9 C137.4,145 138.2,145 139.1,145 C140.2,145 141.2,144.9 142,144.9 C142.8,144.9 143.7,144.2 144.3,143.1 C144.8,142.2 144.9,141.3 144.6,140.7 C143.8,139.1 142.8,137.5 141.6,135.7 C141.3,135.2 140.7,134.6 140.1,134.3 C139.5,133.9 138.8,133.6 138,133.3 C137.6,133.1 137.2,133 136.8,132.8 L135.7,132.3 L136.9,132.1 C137.3,132 137.7,132 138.1,131.9 C140.2,131.5 142.1,131.3 143.7,131.9 C144.8,132.3 145.9,132.8 147,133.3 C147.8,133.7 148.7,134.1 149.5,134.4 C153,135.8 155.7,138.3 158.3,140.7 C158.7,141.1 159.2,141.5 159.6,141.9 C162.7,144.7 164.7,148.5 166.4,152.1 C167.4,154.1 168.3,156.3 169.2,158.3 C169.5,159.1 169.9,159.8 170.2,160.6 C170.4,161 170.6,161.5 170.8,161.9 C171.3,163 171.9,164.1 172.2,165.3 C173.1,168.3 174.9,170.7 176.6,172.7 C177.5,173.8 178.2,175.1 178.9,176.4 C179.2,176.9 179.4,177.4 179.7,177.8 C179.9,178.2 179.8,178.7 179.8,178.9 C179.7,179.4 179.6,180 179.4,180.5 C179.2,181.2 179.1,181.9 179,182.6 L178.9,182.9 C178.7,183.7 178.6,184.6 178.6,185.5 C178.9,191.1 179.6,198.3 181.5,205.4 C181.6,205.9 181.6,206.5 181.4,207.2 L181,209 C180.5,211.2 179.9,213.6 179.2,215.8 C178.6,217.7 179.2,219.2 180,220.8 C180.7,222.3 181.7,223.7 182.6,225.1 C184,227.2 185.4,229.3 186.1,231.8 C186.3,232.4 186.5,233 186.8,233.7 C187.2,234.7 187.6,235.8 187.8,236.9 C187.8,237.1 187.9,237.3 187.9,237.5 C188.1,238.5 188.4,239.6 187.8,240.7 C187.5,241.2 187.3,241.6 187,242.1 C186.8,242.4 186.7,242.8 186.5,243.1 C185.7,244.6 183.6,245.6 182.1,245.1 C181.1,244.7 180,244.5 178.9,244.2 C176.6,243.6 174.3,243 172.2,241.7 C171.6,241.3 170.8,241.1 170.1,241 C169.9,241 169.7,240.9 169.5,240.9 C169.4,240.9 169.2,240.9 169.1,240.9 C168.4,240.9 168.2,241.5 168.1,241.8 C168,242.6 168.1,243.1 168.7,243.5 C169.8,244.3 171,244.9 172.1,245.5 C172.8,245.9 173.6,246.2 174.3,246.5 C174.6,246.6 175,246.8 175.3,246.9 L175.6,247 L175.5,247.3 C175.4,247.6 175.3,247.9 175.3,248.2 C175.1,248.8 175,249.5 174.6,250 C174.1,250.7 174.3,251.2 174.4,252.1 C174.7,253.5 175.5,254.6 176.3,255.8 C176.5,256.1 176.7,256.4 176.9,256.7 C177.2,257.1 177.5,257.6 177.7,258 C178.5,259.3 179.4,260.5 180.2,261.9 C180.6,262.5 180.7,263.6 180.4,264.2 C179.9,265.2 178.4,265.6 177.1,265.6 C176.5,265.6 175.4,265.5 174.8,264.8 C174.1,264 173.6,263.2 173,262.3 C172.9,262.1 172.7,261.9 172.6,261.6 C172,260.7 171.1,260.5 170.5,261.3 C169.6,262.4 169.4,263.5 169.8,264.7 C169.9,265.1 170.1,265.4 170.2,265.7 L170.4,266.3 L162.8,269.1 L162.3,267.9 C162,267.3 161.7,266.6 161.4,266 C160.9,265 159.9,264.3 159.2,264.5 C158.6,264.7 158,265.1 157.7,265.7 C157.4,266.4 157.3,267.2 157.6,267.9 C157.8,268.4 157.9,268.8 158.1,269.3 L158.5,270.4 L157.2,270.7 C156.6,270.8 156.1,270.9 155.6,271 C155.2,271.1 154.9,271.1 154.7,271.1 C153.7,271.1 153.3,270.6 152.8,269.4 C152.7,269.2 152.7,269.1 152.6,268.9 C152.5,268.7 152.5,268.5 152.4,268.3 C152.2,267.9 151.7,267.7 151.2,267.7 C150.8,267.7 150.3,267.9 150.1,268.2 C149.2,269.4 149.1,271 150,272.3 C150.2,272.6 150.4,272.9 150.7,273.4 L151.7,275 L145.2,273.7 L145.3,273.3 C145.7,271.5 144.7,270.1 143.8,268.9 C143.1,267.9 142,267.9 141.4,269 C141.2,269.3 141,269.7 140.8,270.1 C140.7,270.3 140.6,270.6 140.5,270.8 L140.3,271.2 L139.9,270.9 C137.3,268.7 134.3,268.2 131.4,267.9 L131.1,267.9 L131,267.6 C130.9,267.3 130.9,267.1 130.8,266.9 C130.7,266.4 130.6,266 130.4,265.5 C130.3,265.2 130.2,265 130.2,264.7 C130,263.9 129.7,263.1 129.4,262.4 C128.7,261.1 127.5,261.1 126.6,262.4 C126,263.3 126,264.2 125.9,265.3 C125.9,265.8 125.9,266.3 125.8,266.8 L125.8,267.1 C125.6,268.4 125.4,269.8 125.4,271.1 C125.4,272.1 125.6,273 125.8,274.1 C125.9,274.6 126,275 126,275.5 L126,275.8 L125.7,275.9 C125.5,275.9 125.4,276 125.2,276 C124.9,276.1 124.6,276.2 124.3,276.2 C120.9,276.4 117.5,276.8 114.3,278 C113.9,278.1 113.5,278.2 113,278 C112.5,277.9 112,277.7 111.5,277.6 C111,277.5 110.5,277.3 110,277.2 C109.7,277.1 109.4,277 109.1,277 C108.2,276.8 107.3,276.5 106.4,276.5 C104.2,276.5 102.1,277.5 100.2,279.4 C99.7,279.9 99,280.5 98.3,280.6 C96.7,280.8 95,280.9 92.8,280.9 C91.6,280.9 90.9,280.3 90.8,279 L90.8,278.2 C90.7,277.1 90.7,276.1 90.7,275 C90.6,272.4 90,270.4 88.7,268.7 C88.5,268.4 88.3,268.2 88.1,267.9 L87.5,267.1 L87.9,266.9 C88.8,266.5 89.7,266.3 90.7,266.3 C91.3,266.3 91.9,266.4 92.4,266.4 C92.6,266.4 92.9,266.4 93.1,266.5 C93.7,266.5 94.2,267 94.6,267.5 L94.9,267.8 C95.4,268.5 96,269.2 96.3,270.1 C96.8,271.7 98,272.2 99.9,271.7 C100.3,271.6 100.7,271.2 100.9,270.8 C101,270.5 101,270.2 100.9,269.9 L100.8,269.7 C100.1,268.3 99.3,266.9 98.3,265.8 C96.2,263.7 93.4,263 89.8,263.6 C89.1,263.7 88.5,263.9 87.8,264 C86.3,264.3 84.7,264.7 83.1,264.7 C82.5,264.7 81.9,264.7 81.4,264.6 C81,264.5 80.6,264.6 80.1,264.7 C79.8,264.8 79.5,264.8 79.2,264.8 C78.6,264.8 77.9,264.9 77.3,264.9 C75.6,265 73.8,265.2 72,265.1 C70.3,265 68.8,265.2 67,265.9 C62.3,267.7 58.3,270.7 54.8,275.1 C53.7,276.5 52.4,278.1 50.3,278.7 C49,279.1 47.6,279.6 46.4,280.1 L45.9,280.3 C43.4,281.3 40.8,281.8 38.1,281.8 C36.2,281.8 34.2,281.5 32.2,281 C28.4,279.9 25.5,277.4 22.7,275 C22.3,274.6 21.8,274.3 21.4,273.9 C18.8,271.7 17.1,268.8 15.5,265.9 C15.1,265.1 14.6,264.4 14.2,263.7 C11.6,259.4 10,255.4 9.2,251.3 C8.6,247.8 8,244.2 9.3,240.5 C10.8,236.3 12.9,231.6 17.5,228.5 C18.7,227.7 19.8,226.7 21.1,225.3 C22,224.3 23,223.3 23,221.8 C21.3,221 18.8,221.5 17.2,223 C16.3,223.9 15.3,224.7 14.3,225.5 C13.8,225.9 13.3,226.3 12.8,226.7 L12.4,227.1 L12.2,226.6 C12.1,226.4 12.1,226.1 12,226 C11.9,225.6 11.8,225.3 11.7,225 C11.2,222.1 10.8,219.1 10.3,216.2 L9.4,210.6 C8.9,207.2 8.3,203.7 7.8,200.3 C7.6,199.3 7.7,198.5 8.5,197.7 C9.3,196.9 10,195.8 10.6,194.7 C12.2,192.1 14.3,189.7 16.9,187.7 C17.1,187.5 17.3,187.4 17.5,187.2 C18.1,186.6 18.9,186 20,186 L20.2,186 L21.1,187.2 C22.2,188.7 23.4,190.3 25.1,191.3 C25.7,191.6 26.5,192 27.3,192.1 C28.4,192.2 29.4,191.7 29.8,190.8 C30.1,190.1 29.8,189.7 29.1,189.1 C28.9,188.9 28.8,188.8 28.6,188.6 C28.6,188.6 28.5,188.5 28.5,188.5 C28.5,188.4 28.4,188.3 28.3,188.3 C26.5,187.8 25.9,186.5 25.4,185.2 C25.2,184.9 25.1,184.5 24.9,184.2 L24.7,183.9 L25,183.7 C25.1,183.6 25.2,183.5 25.3,183.5 C25.5,183.3 25.7,183.2 26,183.1 C26.5,183 27,183 27.5,182.9 C28.9,182.7 30.3,182.5 31.7,182.5 C33.4,182.6 34.9,182.1 36.3,181.7 C37.2,181.4 37.4,180.7 37.4,180.1 C37.4,179.8 37.3,179.3 36.3,179.1 C35.8,179 35.3,178.9 34.6,178.9 L34.3,178.9 C33.8,178.9 33.4,179 32.9,179 C32.4,179.1 31.8,179.1 31.3,179.1 L31.1,179.1 C30.9,179.1 30.7,179.1 30.5,179.1 C28.2,179.1 26.5,179.4 24.8,180 C23.4,180.5 22,181 20.7,181.5 C20.1,181.7 19.5,181.9 18.9,182.1 L18.7,182.1 L18.6,182 C18.5,182 18.4,181.9 18.3,181.8 C18.2,181.6 18,181.5 17.9,181.3 C17.4,180.5 17,180.2 16.7,180.2 C16.4,180.2 16,180.4 15.4,180.9 C14.6,181.6 14.2,182.3 14.3,183.3 C14.5,184.7 13.7,185.6 13,186.2 C11.9,187.2 10.8,188.3 9.8,189.3 C9.2,189.9 8.6,190.5 8,191 C7.8,191.2 7.6,191.2 7.4,191.2 C7.3,191.2 7.3,191.2 7.2,191.2 L6.9,191.2 L6.8,190.9 C5.8,187.8 5.7,185.4 6.1,183.2 Z" id="Shape"></path>
                <path d="M138.7,225.4 C139.5,224.5 140.7,223.9 141.9,223.9 C143.3,223.9 144.6,224.6 145.3,225.8 C145.6,226.3 145.9,226.8 146.2,227.3 C147.4,229.4 148.7,231.5 149.3,233.8 C149.7,235.2 150.2,236.5 150.8,237.8 C150.9,238.1 151.2,238.3 151.5,238.5 C151.6,238.6 151.8,238.7 152,238.9 L152.7,239.5 L152.6,237.8 C152.6,237.4 152.5,237.1 152.5,236.8 C151.7,230.7 152.5,226.2 155,222.2 C156.7,219.4 156,216 153,213.7 C152.2,213 151.4,212.4 150.6,211.7 C149.4,210.7 148.4,209.6 147.3,208.5 C145.8,206.9 144.2,205.2 142.3,203.9 C142.1,203.8 142,203.5 141.8,203.2 L141.7,203 C140.9,201.6 140.2,200.1 139.4,198.7 L138.5,197 L138.3,197 C136.2,196.9 134.6,197.4 133.3,198.7 C133,199 132.5,199.3 132,199.5 C131.9,199.6 131.7,199.6 131.6,199.7 C130.9,200.1 130.2,200 129.6,199.2 C129.4,199 129,198.5 129.8,197.6 L130.1,197.3 C131.4,195.8 132.7,194.4 134.8,194.3 C135.3,194.3 135.7,194.2 136.2,194 C136.4,193.9 136.6,193.9 136.9,193.8 L137.2,193.7 L137.2,193.4 C137.1,192.9 137.1,192.4 137,191.9 C136.8,190.8 136.7,189.8 136.6,188.7 C136.5,187.2 136.5,185.6 136.6,184.2 C136.7,183.5 136.9,182.7 137.3,182.3 C138.2,181.3 139.2,180.3 140.1,179.3 C140.7,178.7 141.3,178.1 141.9,177.4 C143,176.2 144.3,175.6 145.5,175.2 C146,175 146.4,174.8 146.9,174.5 C147.3,174.3 147.6,174.1 148,173.9 L148.4,173.7 C149.7,173.2 151,172.6 152.3,172.3 C153.2,172.1 153.8,172.4 154.1,173.1 C154.3,173.8 154.1,174.4 153.4,174.8 C152.9,175.1 152.3,175.4 151.7,175.7 C151.3,175.9 150.8,176.2 150.4,176.4 C150.1,176.6 149.9,176.7 149.7,176.9 C149.6,177 149.5,177.1 149.4,177.1 L148.1,178.1 L149.7,177.8 C151.7,177.4 153.7,177.4 156.4,177.6 C159.8,178 162.9,178.8 166.1,180.1 C169.1,181.4 171.1,183.3 172.2,186.1 C172.9,188 173.7,190 174.4,192 C175.5,195 176.5,198.3 176.3,201.7 C176,205 174.7,207.5 172.4,209.2 C168.6,211.9 164.5,213.2 160.1,212.9 C159.7,212.9 159.4,212.9 159,212.9 C158.8,212.9 158.6,212.9 158.5,212.9 L158,212.9 L158.2,213.4 C158.3,213.7 158.4,214 158.6,214.2 C158.8,214.8 159.1,215.2 159.2,215.7 C159.8,218 159.6,220.2 158.6,222.5 C158.2,223.3 157.8,224.2 158.1,224.9 C158.2,225.2 158.3,225.5 158.4,225.8 C159.1,227.8 159.7,229.8 161.3,231.5 C161.7,231.9 162.1,232.4 162.4,232.9 C165.2,237.4 166.9,241.8 167.7,246.2 C168.2,248.8 168,250.7 167,252.5 C165.9,254.5 163.9,255.3 161.8,254.4 C161.1,254.1 160.4,253.9 159.6,253.6 C159.3,253.5 158.9,253.4 158.6,253.3 L158.3,253.2 L158.2,253.5 C156.9,256.2 155,257.6 152.5,257.8 C152,257.8 151.4,257.9 150.8,257.9 C149.3,257.9 148.2,257.7 147.3,257.3 C142,254.6 140.1,249.3 138.8,244.4 C138.5,243.2 138.3,241.9 138.1,240.7 C138,239.9 137.9,239.2 137.7,238.4 C137.1,235.5 136.6,232.4 137,229.3 C136.9,228 137.5,226.7 138.7,225.4 Z" id="Shape"></path>
                <path d="M123.5,221.6 C123.1,222 122.7,222.3 122.3,222.5 C117.9,224.4 113.1,225.1 107.8,224.6 C107.4,224.6 106.9,224.5 106.4,224.5 C105.9,224.5 105.4,224.5 104.8,224.5 C103,224.6 101.1,224.8 99.3,225 C96.8,225.3 94.2,225.6 91.6,225.5 C89.2,225.4 86.9,224.9 84.6,223.9 C83.3,223.3 82.3,222.3 81.5,220.9 C81.5,220.8 81.4,220.7 81.4,220.7 C81.3,220.5 81.1,220.2 80.9,220 C79.1,218.2 78.6,215.8 78.2,213.4 C78,212.4 77.8,211.3 77.5,210.3 C77.5,210.2 77.5,210.1 77.5,209.9 L77.5,209.8 C77.5,208.9 77.5,208.1 77.5,207.2 C77.5,205.2 77.5,203.2 77.6,201.2 C77.8,197.6 79.3,195.3 82.2,194.2 C82.6,194.1 82.9,193.8 83.2,193.6 C87.9,189.7 93.7,187.6 98.7,186 C101.6,185 104.7,184.3 108.1,183.6 C109.8,183.2 111.6,183 113.4,182.7 C114.1,182.6 114.9,182.5 115.7,182.4 C116.1,184.1 117.4,184.4 118.4,184.7 L118.5,184.7 C122.1,185.6 124.4,188 125.3,192 C125.5,192.8 125.7,193.5 125.9,194.3 C126.5,196.3 127.1,198.2 126.7,200.3 C126.7,200.5 126.7,200.8 126.8,201 C126.8,201.1 126.9,201.2 126.9,201.3 C127,202.3 127.1,203.3 127.1,204.3 C127.3,206.6 127.5,209 127.5,211.4 C127.4,216.2 126.2,219.5 123.6,221.8 L123.5,221.6 Z" id="Shape"></path>
                <path d="M51.2,250.2 C51.4,250 51.5,249.8 51.6,249.6 C51.6,249.5 51.7,249.4 51.7,249.3 L51.9,248.9 L51.5,248.8 C47.8,247.4 45,244.6 42.3,242 L41.8,241.5 C41.2,240.9 40.8,240.4 40.7,239.9 C39.8,237.5 38.8,235 39.5,232.2 C39.8,231.1 40.3,230.3 40.9,229.5 L41.2,229.1 C42.4,227.5 43.8,226.2 45.4,225.3 C46,225 46.6,224.6 47.2,224.3 C48.8,223.5 50.4,222.7 51.6,221.2 C52,220.7 52.5,220.4 52.9,220.2 C53.5,220 54.4,219.9 55.2,220 C55.4,220 55.6,220.1 55.6,220.2 C55.7,220.3 55.7,220.5 55.7,220.7 C55.3,222.5 54.3,224.1 52.7,225.3 C52.1,225.8 51.3,226.1 50.5,226.5 C49.9,226.8 49.2,227.1 48.6,227.5 C46.3,229 44,230.9 44.2,234.4 C44.4,237.4 45.6,240 47.7,241.8 C48.9,242.9 50.4,243.8 51.8,244.7 L52.3,245 C53,245.4 53.4,245.7 53.8,245.7 C54.3,245.7 54.6,245.3 55.2,244.7 L55.5,244.4 C57.6,241.9 59.6,239.6 62.7,239.1 L62.9,239.1 L63,238.9 C63.2,238.5 63.4,238.1 63.6,237.7 C63.9,237 64.2,236.3 64.7,235.9 C65.8,235 67,234.2 68.2,233.4 C68.7,233.1 69.2,232.8 69.7,232.4 C70,232.2 70.3,232 70.6,231.8 C71.3,231.4 72,230.9 72.6,230.4 C73.9,229.4 74.1,228.5 73.4,227 C72.9,226 72.4,225 71.9,224 C71.6,223.4 71.2,222.7 70.9,222.1 C70.6,221.6 70.4,221.1 70.1,220.6 C69.5,219.5 68.9,218.4 68.5,217.2 C67.5,214 66.9,210.7 66.5,208.2 C66.3,207.1 66.1,206 65.8,205 C65.3,202.7 64.7,200.3 64.8,197.9 C64.8,197.3 64.8,196.8 64.7,196.2 C64.6,195.1 64.6,194 64.8,193 C65.2,190.9 65.8,188.8 66.5,186.7 C66.7,186.2 66.8,185.6 67,185.1 C67.8,182.4 71.1,180.3 74.1,180.7 C74.2,181.7 74.2,181.7 73.7,182.3 C71.3,185.3 70,189 69.5,194 C69.2,197.4 69.9,200.6 70.5,203.3 C70.8,204.4 71.1,205.5 71.4,206.5 C71.9,208.4 72.4,210.3 72.8,212.2 C73.6,216.4 75.4,220.4 78.1,224.6 C79.8,227.2 79.5,229.5 77.3,231.4 C76.7,231.9 76.1,232.3 75.6,232.6 C75.1,232.9 74.6,233.3 74,233.6 C73.1,234.2 72.2,234.7 71.3,235.4 C70.5,236 69.7,236.8 69,237.6 C68.6,238 68.6,238.9 68.8,239.4 C69.6,241.7 70.9,243.8 73,246.2 C76.8,250.5 80.5,253.5 84.4,255.7 L84.7,255.8 C85.2,256.1 85.7,256.4 86.3,256.4 C86.8,256.4 87.4,256.5 87.9,256.5 C90,256.7 92.1,256.9 94.2,256.7 C98.8,256.4 103.1,254.6 108.2,251 C109.7,249.9 111.2,248.7 112.7,247.5 L113.4,247 C114.2,246.4 114.9,245.7 115.7,245.1 C116.4,244.5 117,244 117.7,243.4 C119,242.4 120,241.5 121.2,240.7 C123.5,239 126.3,238.7 129.5,239.7 C132.6,240.7 134.5,242.5 135.5,245.2 C136.1,246.8 136,247.1 135.1,247.6 C134,248.3 133,248.2 132.3,247.1 C132,246.7 131.8,246.4 131.5,246 C131.1,245.4 130.7,244.9 130.3,244.3 C129.2,243 127.9,242.3 126.5,242.3 C125.5,242.3 124.4,242.7 123.4,243.4 L123.2,243.6 C121.4,245 119.5,246.4 117.9,248.1 C115.4,250.7 112.4,252.7 109.6,254.7 C108.7,255.3 107.7,256 106.8,256.7 C103.4,259.2 99.3,259.9 94.4,260.7 L94.1,260.7 C93,260.9 91.9,261 90.9,261 C84.8,260.6 80.3,259.1 76.7,256.2 C75.1,255 73.6,253.6 72.2,252.3 L71.6,251.8 C71.2,251.4 70.8,251 70.4,250.4 C70,249.9 69.7,249.4 69.3,248.9 C68.5,247.8 67.8,246.7 66.8,245.7 C66,244.9 65.2,243.9 64.8,242.5 C64.5,241.4 63.8,241.1 63.4,241.1 C63,241.1 62.5,241.3 62,241.7 C61.7,242 61.3,242.3 61,242.7 C60.2,243.7 59.4,244.8 58.7,245.8 C57.5,247.3 56.4,248.9 55.2,250.4 C55,250.6 54.9,250.8 54.7,251 C54,251.9 53.3,252.8 52.5,253.5 C49.6,255.9 46.8,257.7 44,259 C41.4,260.2 38.7,260.8 35.7,260.8 C33.4,260.8 31,260.5 28.2,259.8 C27.4,259.6 26.5,259 25.8,258.2 C25.5,257.9 25.4,257 25.6,256.4 C25.7,256.3 26.3,256 26.8,256 L26.9,256 C27.5,256 28.1,256.1 28.9,256.4 C33,257.9 37.3,257.8 41.8,256.1 C45.5,255.7 48.2,253.2 51.2,250.2 Z" id="Shape"></path>
                <path d="M61.2,210.3 C61.1,211.2 60.6,211.8 59.8,212.4 C59.5,212.7 59.1,212.8 58.7,212.8 C58.3,212.8 57.9,212.7 57.6,212.6 C57.1,212.4 57,212.1 56.9,211.3 C56.9,211.2 56.9,211.1 56.8,210.9 C56.9,210.5 57,210.2 57.1,209.8 C57.4,208.9 57.6,208 58,207.1 C58.3,206.5 58.8,205.9 59.6,205.2 C59.9,205 60.4,204.8 60.7,204.8 C60.8,204.8 60.8,204.8 60.8,204.8 C61.2,205.1 61.5,205.7 61.5,206.2 C61.5,207.1 61.4,208.1 61.3,209 C61.3,209.6 61.3,209.9 61.2,210.3 Z" id="Shape"></path>
                <path d="M82,133.6 C80,135.1 77.3,137.7 77.8,142 C77.9,143.2 77.8,144.6 77.7,145.7 C77.4,148.8 76.3,150 73.5,150.7 C70.8,151.4 68.4,150.1 67.4,147.5 C67.3,147.3 67.2,147.1 67,146.8 C66.9,146.7 66.8,146.5 66.6,146.3 L66.3,145.9 L66,146.2 C65.8,146.4 65.5,146.6 65.3,146.8 C64.9,147.2 64.5,147.5 64.2,147.9 C63.1,149.4 61.7,150.4 59.8,150.9 C57.7,151.5 56.3,151.2 54.9,149.9 C53.2,148.4 52.6,146.7 53.2,144.6 C53.5,143.5 54.1,142.5 54.7,141.5 L55,140.9 C55.2,140.6 55.5,140.3 55.9,140.2 C60.1,138.7 63.4,135.6 66,130.7 C67.4,128.1 68,125.5 67.7,123.1 C67.6,122.3 67.7,121.5 67.7,120.6 C67.7,120.1 67.8,119.6 67.8,119.1 L67.8,118.3 C67.8,115.4 67.9,112.4 67.9,109.4 C67.9,108.1 68.4,107 69.4,106.2 C69.7,106 70,105.9 70.3,105.9 C70.8,105.9 71.3,106.2 71.5,106.9 C71.9,108.8 72.3,110.7 72.3,112.7 C72.4,115.7 72.3,118.9 72.3,121.9 L72.3,123.5 C72.3,125.8 72.1,128.2 70.9,130.2 C70.5,131 70,131.7 69.5,132.4 C68.8,133.5 68.1,134.6 67.5,135.8 C66.7,137.5 65.3,138.4 63.9,139.5 L63.6,139.7 C63,140.2 62.3,140.6 61.6,141 C60.9,141.4 60.2,141.8 59.5,142.3 C58.8,142.8 58.2,143.6 57.8,144.3 C57.5,144.8 57.4,145.3 57.5,145.7 C57.6,146.3 58.1,146.8 59,147.3 L59.3,147.5 L59.5,147.2 C61.7,144.5 63.9,142.9 66.6,142.4 C69,141.9 70.4,142.6 71.2,144.9 C71.2,145 71.3,145.1 71.3,145.3 C71.4,145.8 71.5,146.7 72.7,146.8 L73.1,146.9 L73.1,146.5 C73.1,146 73.2,145.5 73.2,145 C73.3,143.9 73.4,142.8 73.3,141.8 C73,138.9 74.5,136.7 76.2,134.6 C78.2,132.1 80.4,130.6 82.9,130.2 C83.2,130.1 83.5,130.1 83.7,130.1 C84.3,130.1 84.8,130.3 85.2,131.1 L84.4,131.7 C83.6,132.3 82.8,132.9 82,133.6 Z" id="Shape"></path>
            </g>
        </g>
    </g>
</svg>