<?xml version="1.0" encoding="UTF-8"?>
<svg width="259px" height="159px" viewBox="0 0 259 159" version="1.1" xmlns="http://www.w3.org/2000/svg" xmlns:xlink="http://www.w3.org/1999/xlink">
    <!-- Generator: Sketch 51.3 (57544) - http://www.bohemiancoding.com/sketch -->
    <title>Spell</title>
    <desc>Created with Sketch.</desc>
    <defs></defs>
    <g id="Page-1" stroke="none" stroke-width="1" fill="none" fill-rule="evenodd">
        <g id="Wizzard-01" transform="translate(-388.000000, -37.000000)" fill="#000000" fill-rule="nonzero">
            <g id="Spell" transform="translate(388.000000, 37.000000)">
                <path d="M258.8,71.7 C258.5,69.8 258.1,68 257.7,66.2 L257.4,64.7 C257.2,64 257.1,63.3 256.9,62.6 C256.6,61.3 256.2,59.9 256.1,58.5 C255.8,55.2 254.7,52.1 253.7,49 C253.4,48.1 253.1,47.1 252.8,46.2 C252.3,44.5 251.2,43.5 249.8,43.5 C249.1,43.5 248.5,43.8 248,44.2 C246.9,45.3 245.6,45.7 244.2,46.2 C243.3,46.5 242.4,46.9 241.5,47.4 L241.1,47.6 L240.9,47.2 C240.5,46.3 240.2,45.5 239.8,44.7 C238.9,42.8 238.1,40.9 237.6,39 C237.2,37.6 236.4,36.7 235.1,35.9 C233,34.7 230.4,34.4 227.5,34.9 C223.6,35.5 219.5,36.5 215.4,37.7 C210.3,39.2 204.8,40.6 199,41.2 C198.4,41.3 197.9,41.3 197.2,41.3 C196.7,41.3 196.2,41.3 195.6,41.3 C195.1,41.3 194.6,41.3 194.1,41.3 L193.6,41.3 L193.8,40.8 C194,40.4 194.1,39.9 194.3,39.5 C194.7,38.5 195,37.6 195.3,36.6 C195.6,35.5 195.8,34.3 196,33.2 C196.1,32.8 196.1,32.4 196.2,32.1 C196.7,29.5 196.8,26.8 196.5,24 C196.2,20.9 195.1,18 194.1,15.4 C192.6,11.6 189.9,8.2 186,5 C184.7,3.9 183.1,3.5 181.4,3.1 C180.8,2.9 180.2,2.8 179.6,2.6 C177.9,2.1 176.2,1.8 174.3,1.8 C172.2,1.8 169.9,2.1 167.1,2.8 C165.4,3.2 163.8,4.2 162.3,5.1 C161.8,5.4 161.3,5.7 160.8,6 C158.7,7.2 156.9,8.9 154.9,11.7 C153.2,14.1 151.6,16.5 150.1,18.9 L149.5,19.8 C148,22.1 146.6,24.2 146.6,26.9 C146.6,27.5 146.4,28.1 146.2,28.7 C145.5,30.4 144.6,32.5 143.3,34.4 L143.1,34.7 L142.8,34.4 C142.5,34.1 142.2,33.9 142,33.7 C141.5,33.2 141,32.8 140.6,32.5 C138.7,31 136.5,31.1 134.7,32.6 C134.3,33 133.9,33.4 133.5,33.8 C133.3,34 133.1,34.2 133,34.4 L131.6,35.8 L130.9,34.9 C130.7,34.6 130.5,34.3 130.2,34 C129.4,33 128,32.4 126.6,32.4 C125.6,32.4 123.8,32.8 123.1,35.1 C122.8,36.1 122.7,37.1 122.5,38.2 C122.4,38.7 122.4,39.3 122.3,39.8 L122.2,40.3 L121.7,40.1 C117.5,38 115.6,34.1 114,30.7 C113.2,29 112.6,27.2 112,25.4 C111.6,24.3 111.3,23.1 110.8,22 C109.2,17.8 107,13.8 104.9,10 L104.7,9.6 C103.5,7.3 101.8,5.6 100,3.8 C99,2.8 97.7,2.1 96.8,1.8 C92.6,0.1 88,-0.3 83.3,0.7 C81.7,1 79.5,1.8 77.9,3.6 C76.5,5.1 75.4,6.9 74.4,8.6 L73.8,9.6 C73.2,10.5 72.8,11.5 72.7,12.4 C72.3,14.6 72,16.8 71.7,18.9 L71.6,19.5 C71.5,20.1 71.5,20.8 71.6,21.4 C73.6,29.2 76.7,35.5 81.2,40.7 C81.4,40.9 81.5,41.2 81.6,41.4 C81.6,41.5 81.7,41.6 81.7,41.8 L81.9,42.3 L77.4,42.3 C77,42.3 76.6,42.3 76.2,42.3 C75.3,42.3 74.5,42.3 73.6,42.3 C71.4,42.2 69.1,42 66.9,41.9 C65.2,41.8 63.5,41.7 61.8,41.6 C61,41.5 60.2,41.5 59.3,41.5 C58.4,41.5 57.6,41.4 56.7,41.4 C54.6,41.3 52.5,41.1 50.4,41 C47.5,40.8 44.6,40.6 41.7,40.4 C39.7,40.3 37.6,40.2 34.7,40.2 C33.6,40.2 32.5,40.2 31.4,40.1 C29.3,40.1 27.2,40 25.1,40 C23.4,40 22,40 20.6,40.1 C18.6,40.2 16.6,40.7 15.2,41.6 C10.7,44.3 7.8,47.5 6.2,51.4 C5.8,52.4 5.4,53.4 5,54.4 C4.5,55.8 3.9,57.2 3.3,58.6 C2,61.5 1.2,64.8 0.9,68.3 C0.4,73.9 0.2,78.9 2.8,83.6 C2.9,83.8 2.9,84 3,84.2 C3,84.3 3,84.4 3.1,84.5 L3.3,85.1 C4.3,87.8 5.3,90.3 7.5,92.2 C8.7,93.3 9.7,93.7 11,93.7 L11.2,93.7 C12.7,93.6 14.3,93.8 15.9,94.2 C19.2,95 22.6,95.2 26.9,94.7 L27.3,94.7 C30.7,94.4 34.2,94 37.6,93.6 C39.9,93.3 42.3,93.1 44.7,93 C48.4,92.7 52.2,92.4 55.9,91.7 C61.3,90.7 66.8,90.3 71.4,90 C77.6,89.6 84,89.4 90.1,89.2 C93.1,89.1 96.1,89 99.1,88.9 C99.4,88.9 99.6,88.8 99.9,88.7 C100.1,88.6 100.3,88.6 100.5,88.6 C100.8,88.5 101.1,88.5 101.5,88.4 L102.3,88.3 L102.5,89.5 C102.6,90 102.7,90.5 102.8,90.9 C103.5,95.1 105.8,98.2 110,100.6 C112.8,102.2 115.8,103.2 118.7,104.2 L118.9,104.3 C120.6,104.9 122.3,105.6 123.4,107.3 C124,108.2 124.2,109.1 124,109.9 C123.8,110.7 123.2,111.3 122.2,111.8 L122,111.9 C121.2,112.3 120.4,112.7 119.6,112.9 C116.5,113.5 113.2,114.1 110.1,114.6 L108.3,114.9 C107.5,115 106.7,115.1 105.9,115.2 C104.3,115.4 102.7,115.6 101.3,116.1 C96.3,117.9 92.1,120.6 88.7,124.1 C86.6,126.2 85.4,128.6 85.1,131.3 C85,132.2 84.9,133 84.8,133.9 C86.6,135.8 88.4,137.6 90.3,139.3 C90.9,139.8 91.4,140.2 92,140.7 C91.8,139.2 92.3,137.8 92.8,136.6 C93.6,134.7 95.1,132.8 96.9,131.3 C99.1,129.6 101.5,128.1 103.8,126.6 C104.4,126.2 105,125.9 105.6,125.5 C106.7,124.8 107.7,124.3 108.8,124.1 C110.3,123.7 111.8,123.5 113.3,123.2 C114.1,123.1 114.9,122.9 115.6,122.8 C116.4,122.6 117.2,122.5 118.1,122.4 C120.1,122.1 122.1,121.7 124,121.1 C126.7,120.2 129.5,119 132.2,117.5 C133.1,117 134.1,115.8 134.8,114.4 C135.3,113.5 135.4,112.3 135.5,111.2 L135.6,110.6 C135.7,109.5 135.7,108.5 135.5,107.6 C135.4,106.9 135.2,106.3 135,105.6 C134.8,105.1 134.7,104.5 134.5,104 C134.2,102.7 133.4,101.6 132,100.6 C131.3,100.1 130.5,99.7 129.7,99.3 C128.7,98.8 127.7,98.2 126.7,97.5 C124.5,95.8 122,94.7 119.5,93.7 L118.5,93.3 C116.8,92.6 115.6,91.4 114.8,89.7 L114.5,89.2 L126.3,89.2 L126.4,89.5 C127.1,91.4 128.9,92.2 131,93 C132.3,93.5 133.4,93.4 134.4,92.5 L137.1,90.4 L137.3,90.8 C138.2,92.3 139.6,93 141.6,93.3 C141.9,93.3 142.2,93.4 142.5,93.4 C144.1,93.4 145.4,92.8 146.3,91.7 L146.5,91.4 L146.8,91.6 C147,91.7 147.1,91.9 147.3,92 C147.6,92.2 147.8,92.4 148,92.6 C149,93.7 150.4,94.2 151.7,94.5 C152,94.6 152.4,94.6 152.7,94.6 C154.2,94.6 155.6,93.7 156.1,92.4 C156.5,91.3 157.2,90.8 158.4,91 C158.9,91 159.4,91.1 159.9,91.2 C161.1,91.3 162.4,91.5 163.6,91.5 C165.8,91.5 167.8,92.3 169.2,93.1 C169.7,93.4 170.2,93.9 170.3,94.3 C171.4,97.7 171.7,100.4 171.2,102.8 C169.8,109.3 166.3,114 160.8,116.9 C157.4,118.7 153.5,119.7 149.2,119.7 L148.9,119.7 C148.4,119.7 148,119.7 147.5,119.7 C147,119.7 146.6,119.7 146.1,119.7 C145,119.7 144.1,119.8 143.4,119.9 C142.6,120 141.9,120.1 141.1,120.2 C138.5,120.6 135.8,121 133.2,121.6 C129.1,122.6 125.3,124.3 121.6,126.8 C118.4,128.9 116.3,131.8 115.3,135.6 C114.3,139.1 114.8,142.6 115.5,145.5 C116.3,149 118.1,152 121,154.5 C121.7,155.1 122.5,155.5 123.3,156 C124.4,156.6 125.6,157.3 126.5,158.3 C126.9,158.8 127.9,158.9 128.6,158.5 L129,158.2 C130.1,157.5 131.2,156.8 132,155.8 C133.2,154.4 133.2,153.5 131.9,151.9 C131,150.7 130,149.8 129,149 C126.4,146.9 125.3,144 125.5,139.8 C125.6,138.6 126,137.4 126.9,136.1 C128.2,134.3 129.9,133 131.5,131.7 C133.1,130.5 134.5,129.9 136,129.7 C136.7,129.6 137.3,129.5 138,129.5 C138.7,129.4 139.4,129.4 140,129.3 C141.5,129.1 143,128.9 144.5,128.7 C146.5,128.4 148.5,128.1 150.5,127.9 C151.2,127.8 152,127.7 152.7,127.7 C153.5,127.6 154.4,127.5 155.3,127.4 C155.6,127.4 155.9,127.2 156.3,127.1 C156.7,126.9 157.1,126.8 157.6,126.7 C161.4,126.3 165,125.1 168.6,123.9 L169.2,123.7 C173.6,122.2 176.6,120.1 178.6,117 C181.3,112.8 182.4,107.9 181.6,102.5 C181.3,100.5 180.9,98.5 180.5,96.3 C180.3,95.3 180.1,94.4 180,93.4 L179.9,93 L180.3,93 C180.4,93 180.6,93 180.7,93 C181,93 181.3,93 181.6,93 L184.7,93.4 C188.8,94 193.1,94.6 197.3,95.2 C199.9,95.6 202.5,96 205.1,96.4 C209.5,97.1 214.1,97.8 218.6,98.4 C220.6,98.7 222.7,98.8 224.7,98.9 C226.5,99 228.4,99.1 230.2,99.3 C232,99.5 233.9,99.6 235.9,99.6 C239,99.6 242,99.4 244.5,99.1 C246.3,98.9 248.4,98.5 250,96.9 C251.5,95.4 252.9,94.2 254.2,93.3 C255.3,92.5 255.9,91.5 256.1,90 C256.3,88.8 256.1,87.8 255.5,87.2 C255,86.6 254.2,86.3 253.2,86.3 L252.7,86.3 C252.3,86.3 251.9,86.3 251.4,86.3 C250.6,86.3 249.8,86.3 248.9,86.3 C248.1,86.3 247.4,86.2 246.6,86.1 C246.3,86.1 245.9,86 245.6,86 L245.2,86 L245.3,85.6 C246,82.8 246.1,82.6 248.8,82.2 C249.7,82 250.4,81.7 250.8,81.1 C251.2,80.6 251.3,79.9 251.1,79 C251,78.4 250.7,77.9 250.5,77.3 C250.4,77 250.2,76.7 250.1,76.4 L249.9,75.9 L250.4,75.8 C251,75.7 251.6,75.7 252.2,75.6 C253.6,75.4 254.9,75.3 256.3,75.2 C257.7,75.1 258.3,75 258.6,74.6 C259,73.6 259,73 258.8,71.7 Z M90.4,131.4 L90.2,131.2 C89.5,130.7 89,130.3 89,129.7 C89,129.2 89.4,128.7 90.1,127.8 L90.3,127.6 L93.2,129.1 L90.4,131.4 Z M95.1,126.9 L92.6,124.8 L95.8,122 L98.8,124.7 L95.1,126.9 Z M101.1,123.1 L98.9,120.3 L101.8,118.7 L104.8,120.9 L101.1,123.1 Z M113.8,119.3 L107.4,120.2 L106.1,118.1 L106.5,117.9 C106.6,117.8 106.8,117.8 106.9,117.7 C107.2,117.5 107.5,117.4 107.8,117.4 L107.9,117.4 C108.5,117.5 109.1,117.4 109.8,117.3 C110.3,117.2 110.9,117.1 111.4,117.1 C112.4,117.1 113.2,117.4 113.9,118.1 L114,118.2 L113.8,119.3 Z M125,116.1 C123.5,117.2 121.8,117.5 120.1,117.8 C119.3,117.9 118.5,118.1 117.7,118.3 L117.2,118.4 L117.2,118 C117.2,117.8 117.2,117.5 117.2,117.3 C117.2,116.6 117.2,116.3 117.5,116.2 C118,116 118.6,115.8 119.1,115.6 C120.3,115.2 121.5,114.7 122.8,114.7 C123.4,114.7 124,114.8 124.5,115 C124.7,115.1 124.8,115.2 124.9,115.3 C124.9,115.3 125,115.4 125,115.5 L125.3,115.8 L125,116.1 Z M129,114 L128.8,114.2 L128.6,114.1 C127.4,113.3 127.8,112.4 128,111.8 C128.2,111.4 128.3,111.1 128.2,110.8 L128.1,110.4 L130.5,110 L130.6,110.1 C130.9,110.3 131,110.7 131,111.1 C131,111.8 130.2,113 129,114 Z M123.3,102 C123.7,101.8 124,101.6 124.3,101.4 C124.9,101 125.5,100.6 126.2,100.6 C126.5,100.6 126.8,100.7 127.1,100.8 L127.3,100.9 C129.2,101.9 131.4,103 131.2,106.1 L131.2,106.4 L130.9,106.5 C130.1,106.7 129.5,106.8 129,106.8 C127.6,106.8 126.6,106.2 125.7,105 C125.4,104.5 124.8,104.1 124.2,103.6 C123.9,103.3 123.6,103.1 123.2,102.8 L122.8,102.4 L123.3,102 Z M118.9,135.5 L119.3,135.6 C121.7,136.1 122,136.6 121.8,138.7 C121.7,139.3 121.7,139.8 121.7,140.4 L121.6,141.7 L118.2,141.7 L118.9,135.5 Z M121.1,149.8 L120.9,149.6 C119.8,148.3 119.3,147 119.2,145.4 L119.2,145.1 L119.5,145 C120,144.8 120.5,144.7 120.9,144.7 C122.8,144.7 123.6,146.5 124.2,148 L124.3,148.3 L121.1,149.8 Z M125.7,150 L126,150.1 C127.7,151 128.5,151.8 128.6,152.7 C128.7,153.4 128.2,154.1 127.3,154.8 L127.1,155 L123.6,152.8 L125.7,150 Z M124.9,132.2 C124.6,132.6 124.2,133 124.1,133.5 L124,133.9 L120.6,132.5 L120.8,132.1 C121.7,130.2 123.3,129.2 125,128.1 L125.3,127.9 L125.5,128.2 C126.5,130.1 125.7,131.2 124.9,132.2 Z M129.1,128.2 L129,127.8 C128.7,127 128.5,126.4 128.8,126 C129.1,125.4 129.8,125.2 131.6,124.6 L131.9,124.5 L133,126.4 L129.1,128.2 Z M145.9,124.9 L145.7,124.5 L135.9,125.9 L135.9,123.4 L136.1,123.3 C136.6,123.1 137.1,122.8 137.6,122.8 C138.2,122.8 138.7,123.1 139.1,123.6 C139.6,124.2 140.5,124 141.3,123.2 L141.5,123 C142,122.5 142.5,121.8 143.7,122 L143.8,122 L144,122.2 C144.1,122.4 144.3,122.6 144.5,122.8 C144.6,123 144.8,123.1 145,123.4 L145.4,123.9 L145.6,123.7 C145.8,123.5 146.1,123.4 146.3,123.2 C146.8,122.8 147.4,122.4 148,122 C149.6,121.2 149.9,122.3 150.2,123.6 L150.3,124 L145.9,124.9 Z M216.7,40.9 C220.6,39.7 225.1,38.4 229.8,38.3 C230,38.3 230.1,38.3 230.3,38.3 C231,38.3 231.6,38.3 232.1,38.4 C233.3,38.8 234,39.3 234.3,39.9 C235.3,41.8 236.2,43.8 237,45.7 L237.7,47.2 C237.8,47.5 237.9,47.8 237.9,48.1 C237.9,48.2 238,48.4 238,48.6 L238.1,48.9 L237.8,49 C237.6,49.1 237.4,49.2 237.3,49.3 C236.9,49.5 236.5,49.8 236.1,49.9 C226.8,53.2 218.9,55 211.3,55.5 C210.2,55.6 209,55.5 207.9,55.4 L207,55.3 C206,55.2 205.3,55.4 204.9,55.8 C204.5,56.2 204.4,56.8 204.4,57.7 C204.4,58.5 204.4,59.4 204.5,60.2 C204.5,61 204.6,61.9 204.6,62.7 C204.6,63.1 204.5,63.5 204.5,64.1 C204.5,64.4 204.4,64.7 204.4,65.1 L204.3,65.8 L203.8,65.3 C203.5,65 203.2,64.7 202.9,64.4 C202.3,63.9 201.8,63.4 201.3,62.8 C200.6,61.8 199.6,61.5 198.3,61.9 C197.4,62.1 197.1,62.8 197,64.2 C197,64.8 196.8,65.4 196.7,66 C196.6,66.3 196.6,66.6 196.5,66.9 L196.3,67.9 L195.8,66.9 C194.8,64.9 194.3,61.6 194.7,59.8 C194.8,59.2 194.7,58.6 194.3,58 C194,57.5 193.5,57.1 192.9,57 C192.1,56.8 191.1,56.9 190,57.2 C189.1,57.4 188.3,57.6 187.4,57.9 C184.2,58.7 180.9,59.6 177.5,59.7 C176.3,59.7 175.1,59.7 173.7,59.6 C171.4,59.5 169.2,59.3 166.9,59.1 L164,58.9 L162.2,55 L162.7,55 C164.1,54.9 165.5,54.8 166.9,54.7 C170.2,54.5 173.6,54.2 177,53.8 C179,53.6 181,52.7 183.4,51.1 C185.9,49.4 188.3,47.3 190.7,44.9 C191.1,44.5 191.9,44.2 192.5,44.2 L192.6,44.2 C200,44.7 207.8,43.6 216.7,40.9 Z M158.7,49.2 L159.1,49 C160.9,48.1 162.8,47.9 164.6,47.7 C166.1,47.5 167.6,47.3 169,46.8 L169.4,46.7 L170.7,51.4 L161.3,52.9 L158.7,49.2 Z M160.6,75.1 L159.3,77.8 L158.4,78.5 L158.2,78 C158.2,77.9 158.1,77.8 158.1,77.7 C158,77.4 157.8,77.1 157.9,76.8 C158.1,75.7 158.8,75.2 159.9,75.1 L160.6,75.1 Z M185.6,44.6 L186,44.9 L183.3,47.2 L179.9,42.3 L180.2,42.1 C180.5,41.9 180.7,41.7 181.1,41.7 C181.7,41.7 182.5,42.3 185.6,44.6 Z M183.4,39.4 L186.1,34.8 L190.7,37.2 L190.7,37.4 C190.7,38.7 190,39.6 189.3,40.4 C188.8,41 188.3,41.7 188.1,42.4 L187.9,42.9 L183.4,39.4 Z M178.5,50.4 C177.7,50.9 176.1,51.3 174.6,51.3 C174.1,51.3 173.6,51.3 173.2,51.2 L172.9,51.1 L172.9,46 L175.7,44.2 C176.2,43.9 176.6,43.7 176.9,43.7 C177.5,43.7 177.9,44.2 178.3,44.9 C178.7,45.6 179,46.2 179.4,47 C180.3,48.7 180.1,49.4 178.5,50.4 Z M177.7,4.4 L178,4.4 C182.2,4.9 185.6,6.9 188.2,10.5 C191.2,14.7 193,19.6 193.3,25.3 C193.4,26.7 193.1,28 192.9,29.4 C192.8,29.9 192.7,30.4 192.6,30.8 C192.5,31.6 192.3,32.4 192.1,33.2 C192,33.6 191.9,34 191.8,34.3 L191.7,34.8 L187.1,32.3 L188.4,25.9 L188.8,25.9 C189.1,25.9 189.4,25.9 189.7,26 C190.7,26.1 191.5,26.2 192.1,25.2 C191.7,23.9 191,23.4 189.7,23.3 C189,23.3 188.2,22.8 187.7,21.9 C187.1,21 186.9,19.9 187.2,19.2 C187.3,18.8 187.7,18.6 188,18.4 C188.4,18.2 188.7,18 189,17.8 L189.1,17.7 C188.7,16.2 188.4,15.9 187.5,15.9 C187.3,15.9 187.1,15.9 186.8,16 C185.5,16.2 184.6,15.8 183.9,14.7 C183.7,14.4 183.5,14.2 183.3,13.9 C183.2,13.8 183.1,13.6 182.9,13.4 L182.8,13.3 L182.8,13.1 C183.1,12.2 183.8,11.7 184.5,11.2 L184.6,11.1 C185.3,10.6 185.5,10.1 185.3,9.4 C185.1,8.8 184.3,8.6 183.4,8.8 C182.9,8.9 182.3,9.1 182,9.4 C181.4,9.9 180.9,10.2 180.2,10.2 C179.6,10.2 179,10 178.3,9.5 C178,9.3 177.7,9.1 177.3,8.9 C177.1,8.8 176.9,8.7 176.6,8.5 L176.3,8.3 L177.7,4.4 Z M166.9,5.5 L167.1,5.4 C169.3,4.5 171.1,4.2 173.2,4.4 L173.6,4.4 L173.5,5.5 C173.5,5.9 173.5,6.2 173.4,6.5 C173.2,8.7 173,8.8 171,9.3 C170.2,9.5 169.4,9.8 168.5,10.1 C168.1,10.3 167.6,10.4 167.1,10.6 L166.6,10.8 L166.9,5.5 Z M162.8,7.6 L163,8.2 C164,11.2 163.4,13.3 161.2,14.9 L160.9,15.1 L158.1,12 L162.8,7.6 Z M158.6,23.5 C158.7,23.4 158.7,23.2 158.8,23.1 C159,22.6 159.2,22.1 159.5,21.7 C162.7,18.1 166.2,14.4 171.1,12.5 C172.3,12 173.6,11.8 174.7,11.7 C174.9,11.7 175.1,11.7 175.3,11.7 C176.5,11.7 177.4,12.2 177.9,13.3 C178,13.5 178.3,13.7 178.5,13.8 C180.9,15.4 182.6,17.7 183.7,21.2 C184.7,24.1 184.5,27.1 183.3,30.3 L182.9,31.2 C182.3,32.7 181.7,34.3 180.9,35.7 C179.3,38.5 176.6,40 174,41.5 L173.2,42 C172.5,42.4 171.7,42.8 170.9,43.1 C170.5,43.3 170.1,43.5 169.7,43.7 L169.4,43.8 L169.2,43.5 C168.7,42.7 168,42.4 166.9,42.4 C166.7,42.4 166.5,42.4 166.4,42.4 C165.5,42.5 164.6,42.5 163.7,42.6 C160.9,42.8 158,43 155.2,43 L155,43 C153.9,43 152.8,42.8 151.6,42.7 C151,42.6 150.4,42.5 149.8,42.5 L149.3,42.4 L149.5,41.9 C149.6,41.7 149.7,41.4 149.8,41.2 C150,40.7 150.2,40.4 150.5,40 C152.3,37.9 153.5,35.4 154.5,33 C154.9,32.2 155.2,31.4 155.6,30.5 C156.3,29 157,27.3 157.6,25.8 C158,25.1 158.3,24.3 158.6,23.5 Z M153.2,19.6 C153.5,19.1 153.8,18.6 154,18.1 C154.6,17 155.1,15.9 156.3,15.1 L156.7,14.8 L156.9,15.2 C158.1,17.9 156.8,19.9 155.3,21.7 L155,22 L153,19.7 L153.2,19.6 Z M151.4,22.8 L151.7,22.5 L152,22.8 C154.2,24.9 154.2,25.2 152.9,28.2 L152.7,28.6 L152.3,28.4 C151,27.7 150.3,26.9 150.1,26 C149.9,25 150.3,24 151.4,22.8 Z M148.9,30.3 L149.1,30 L151.5,31.6 L149.3,35.4 L149,34.9 C147.4,32.9 147.4,32.7 148.9,30.3 Z M146.3,36.1 L148.2,37.4 L145.1,40.9 L143.9,38.1 L146.3,36.1 Z M135.6,36.4 L135.9,36.5 C139.5,37.2 140,37.4 141.1,38.8 L141.5,39.4 L140.8,39.4 C140.4,39.4 140.1,39.4 139.8,39.4 C139.1,39.4 138.4,39.4 137.7,39.4 C137.1,39.5 136.4,39.6 135.8,39.7 C135.5,39.8 135.2,39.8 134.9,39.9 L134.7,39.9 L134,39.2 L135.6,36.4 Z M125.2,38 C125.3,37.7 125.3,37.3 125.4,37 C125.5,36.3 125.9,35.4 127,35.2 C127.9,35 128.3,35.7 129,37.1 L129.1,37.4 L125.8,39.3 L125.1,38.5 L125.2,38 Z M123.5,45.1 L123.3,45.4 C122.1,47.1 121.5,48 120.6,48 C119.9,48 119.2,47.6 117.9,46.7 L117.6,46.5 L120.2,42.7 L123.5,45.1 Z M113.2,49.1 L119.6,50.9 L119.3,51.3 C118.8,52.1 118.4,52.6 117.1,52.6 C116.3,52.6 115.1,52.4 112.7,52 L112.3,51.9 L113.2,49.1 Z M111.5,44.9 L111.9,43.7 L113.9,44.4 L113.6,45.5 L111.5,44.9 Z M113.9,38.8 C114.2,38.7 114.5,38.7 114.7,38.7 C115.9,38.7 116.7,39.4 117.4,40.1 C117.8,40.5 118.2,40.8 118.6,41 L119.2,41.3 L118.6,41.7 C118,42.1 117.4,42.3 116.9,42.3 C116.9,42.3 116.9,42.3 116.9,42.3 C115.7,42.3 114.7,41.1 113.6,39.4 L113.3,39 L113.9,38.8 Z M111.7,32.6 C111.7,32.7 111.9,32.9 112,33.1 C112.3,33.5 112.6,33.9 112.5,34.4 C112.4,34.8 112.1,35.2 111.5,35.5 L111.2,35.7 L109.4,32.5 L109.6,32.3 C110,31.9 110.4,31.7 110.8,31.7 C111.1,31.7 111.5,31.9 111.7,32.6 Z M110.2,28.2 L109.8,28.3 C109,28.5 108.6,28.6 108.2,28.6 C108.2,28.6 108.2,28.6 108.2,28.6 C107.4,28.6 107.1,28 106.8,27.3 C106.4,26.4 106.1,25.5 105.7,24.5 C105.5,24.1 105.4,23.6 105.2,23.1 L105.1,22.8 L107.8,21.7 L110.2,28.2 Z M106.4,18.9 L106,19 C105.4,19.2 104.9,19.4 104.5,19.4 C103.4,19.4 102.9,18.5 101.9,16.4 L101.8,16.1 L104.3,14.3 L106.4,18.9 Z M99.4,7.5 C100.8,8.1 101.4,9.3 102.1,10.6 C102.3,11 102.5,11.3 102.7,11.7 L102.9,12.1 L99.6,13.3 L96.1,10.3 L99.2,7.5 L99.4,7.5 Z M91.6,2.7 L97.1,4.4 L96.8,4.8 C95.5,6.5 94.5,7.4 93.2,7.4 C92.5,7.4 91.7,7.1 90.5,6.5 L90.2,6.3 L91.6,2.7 Z M94.1,12.5 C94.3,12.7 94.5,12.9 94.6,13 C95.7,14.1 97,15.4 98,16.8 C99,18.3 100,20 100.8,21.8 C101.6,23.6 102.4,25.5 103.1,27.3 C103.7,28.8 104.3,30.4 105,31.9 C105.3,32.6 105.7,33.2 106.1,33.8 C106.3,34.2 106.6,34.5 106.8,34.9 C107.5,36.2 108.2,37.5 109,38.9 L110.4,41.5 L109.7,41.4 C109.2,41.3 108.7,41.2 108.2,41.2 C107.2,41 106.2,40.9 105.3,40.8 L105.1,40.8 C104.4,40.8 103.7,40.9 103,41 C102.6,41.1 102.2,41.1 101.9,41.1 C101.7,41.1 101.6,41.1 101.4,41.2 C100.9,41.3 100.4,41.4 100.1,41.2 C99.8,41.1 99.6,41 99.3,40.9 C98,40.4 96.6,39.8 95.5,39 C93.2,37.2 91.1,35.1 89,33.1 L88.9,33 C86.5,30.6 85.2,27.6 83.9,24.7 C83.6,24.1 83.3,23.4 83,22.8 C81.9,20.4 82,18 82,15.6 C82,15.1 82,14.6 82,14.2 C82,12.9 82.9,11.5 83.7,10.3 L84,9.9 C84.6,8.9 85.9,8.6 86.9,9.2 C87.4,9.5 87.6,9.5 87.8,9.5 C88.2,9.4 88.6,9.4 88.9,9.4 C91.2,9.6 92.7,11.1 94.1,12.5 Z M110.3,48.1 L110.2,48.5 C109.6,50.3 109.3,51.3 108.1,51.3 C107.5,51.3 106.6,50.9 105.4,50.4 L105.1,50.3 L105.8,47.3 L110.3,48.1 Z M99.7,45 L99.9,44.7 L103.4,46.3 L101.1,49.3 L97.7,48 L99.4,44.5 L99.7,44.6 L99.7,45 Z M92.6,41.5 L96.3,43.8 L94.4,46.4 L90.3,44.1 L92.6,41.5 Z M87.2,41.7 L83.8,38 L86.9,36.2 L90.5,39.5 L87.2,41.7 Z M82.1,3.9 C83.8,2.8 85.5,2.6 87.5,2.4 L88.8,2.3 L88.5,2.9 C87.2,5.5 87.1,5.5 83.4,7.5 L83,7.7 L81.9,4 L82.1,3.9 Z M78.8,6.7 L79.1,7 C80.9,9 80.1,10.6 79,12.1 L78.8,12.4 L76.3,10.3 L78.8,6.7 Z M75.5,13.8 L76,14.4 C76.3,14.8 76.7,15.1 77.1,15.4 C78.2,16.2 79.4,17.2 78.6,19.4 L78.5,19.8 L74.9,18.4 L75.5,13.8 Z M75.1,22 L76,22.3 C78.3,22.9 80.3,23.5 80.5,26.1 C80.5,26.5 80.7,26.9 80.9,27.3 C81,27.6 81.1,27.8 81.3,28.1 L81.5,28.6 L77.8,28.6 L75.1,22 Z M81.6,35 L79.4,31.9 L83.2,31.5 L84.7,33.9 L81.6,35 Z M19.4,43.2 C20.9,42.4 22.4,42.4 23.9,42.4 L24.8,42.4 C27.3,42.4 29.7,42.5 31.8,42.5 L34.1,42.6 C37.6,42.7 41.1,42.8 44.7,43 C48.2,43.2 51.7,43.5 55.1,43.8 C57.3,44 59.4,44.1 61.6,44.3 C62.6,44.4 63.7,44.4 64.7,44.5 C65.6,44.5 66.4,44.6 67.3,44.6 C69.3,44.7 71.3,44.9 73.4,45 C75.3,45.1 77.2,45.3 79.2,45.4 C79.4,45.4 79.7,45.4 79.9,45.4 C81.1,45.4 82,45.2 82.8,44.7 C83.9,44 85,44.1 86,45 C88.7,47.6 92.2,49.2 95.5,50.7 C96.2,51 96.9,51.3 97.6,51.7 C98.3,52 99,52.2 99.8,52.4 C100.3,52.5 100.7,52.6 101.2,52.8 C102,53.1 102.8,53.3 103.6,53.6 C104.9,54.1 106.3,54.5 107.6,54.9 C108.7,55.2 109.9,55.4 111.2,55.7 C111.8,55.8 112.4,55.9 113.1,56.1 L114.3,56.3 L113.2,56.8 C110.7,57.9 108.5,58.1 105.9,57.5 C105.5,57.4 105,57.3 104.6,57.2 C102.6,56.7 100.5,56.3 98.5,56.2 C96.4,56.1 94.2,55.7 91.6,54.9 C90.9,54.7 90.2,54.4 89.6,54.1 L89.3,54 C87.8,53.4 86.4,54 85.9,55.7 C84.9,58.7 83.5,61.5 82,64.4 C81.6,65.1 81.2,65.9 80.9,66.6 L80.7,67 L80.3,66.7 C80,66.5 79.8,66.3 79.5,66.1 C79,65.7 78.5,65.4 78.2,65 C77.6,64.1 76.7,63.9 75.8,63.6 L75.3,63.5 C74.2,63.1 73.5,63.7 73.5,65 C73.5,67.2 72.4,69.7 70.7,71.7 L70.3,72.2 L70.1,71.6 C70,71.3 69.9,71 69.8,70.8 C69.6,70.2 69.4,69.7 69.3,69.1 C69,66.3 68.7,63.6 68.6,60.9 C68.5,59.7 68,58.8 67,58 C66.7,57.8 66.3,57.7 65.8,57.7 L65.7,57.7 C64.9,57.7 64.1,57.7 63.2,57.7 C61.7,57.7 60.3,57.8 58.8,57.7 C54.8,57.5 50.8,58.1 47,58.8 C45.9,59 44.8,59.2 43.8,59.3 C38.8,60 34.7,62.4 31.1,64.8 C30.7,65.1 30.3,65.4 29.8,65.9 C29.6,66.1 29.3,66.3 29.1,66.5 L28.5,67 L28.4,66.3 C28.3,65.6 28.3,64.9 28.3,64.2 C28.2,62.7 28.2,61.4 27.9,60 C27.4,57.7 26.7,55.5 25.7,53.3 C25.4,52.5 24.8,51.9 24.2,51.1 C23.8,50.6 23.4,50.1 23,49.6 C22.2,48.3 21.4,47.1 20.6,45.7 C20.3,45.1 19.9,44.5 19.5,43.9 L19.3,43.6 L19.4,43.2 Z M13.2,68 C13.4,69.3 14,70.7 14.5,71.6 C15.3,73 16,73.6 17,73.6 C17.5,73.6 18,73.5 18.7,73.3 C19.2,73.1 19.7,72.9 20.3,72.7 C20.6,72.6 20.9,72.4 21.3,72.3 L22.1,72 L21.8,72.8 C21.7,73 21.6,73.2 21.6,73.4 C21.5,73.7 21.4,74 21.2,74.3 C20.9,74.7 20.7,75.2 20.4,75.7 C19.5,77.2 18.6,78.7 17.6,80.1 C17,80.9 16.5,81.3 15.9,81.3 C15.1,81.3 14.6,80.6 14.1,79.9 C12.9,78.1 12.2,75.9 12,73.2 C11.8,70.8 11.8,68.3 11.7,66 C11.7,65 11.7,63.9 11.7,62.9 C11.6,60.6 11.7,58.3 12.5,56.1 C12.6,55.8 12.8,55.5 12.9,55.2 L13.4,54.2 L13.8,54.6 C15.9,56.6 16.3,59.1 16.6,61.4 C16.7,62 16.8,62.6 16.9,63.3 L17,63.6 L16.7,63.7 C16.6,63.7 16.6,63.8 16.5,63.8 C16.3,63.9 16.2,64 16,64 C14.8,64.1 14.1,64.4 13.7,64.9 C13.1,65.3 13,66.4 13.2,68 Z M20.9,69.3 L20.4,69.3 L20.5,68.8 C21.3,63.8 20,59.1 18.5,54.7 L18.3,54.2 L19.4,54.1 C19.7,54.1 20,54.1 20.3,54 C21.3,53.9 22,54.3 22.5,55.3 C24.2,58.7 24.7,62.3 24,66.2 C24,66.5 23.9,66.7 23.8,67 L23.7,67.3 C23.3,69.1 23.1,69.2 20.9,69.3 Z M10.1,88.6 L9.8,88.7 L9.6,88.5 C9.5,88.4 9.4,88.3 9.3,88.2 C9,87.9 8.8,87.7 8.6,87.3 C8.3,86.7 8,86.2 7.8,85.6 C6.9,83.9 6.1,82.2 5.4,80.4 C4.2,77.1 3.7,73.4 4.1,69 C4.5,64.2 5.5,59.4 7.1,54.7 C8.6,50.3 10.3,46.8 13.5,44.3 L13.6,44.2 L13.9,44.2 C15.8,44.2 17.1,45.1 18,47 C18.4,47.9 18.9,48.7 19.5,49.5 C19.8,49.9 20,50.3 20.2,50.6 L20.3,50.8 L19.7,51.6 L19.5,51.5 C19.2,51.4 18.9,51.3 18.7,51.2 C18.1,51 17.4,50.8 16.8,50.5 C15.8,50 15.3,49.8 14.8,49.8 C14.3,49.8 13.8,50.1 12.8,50.5 L12.6,50.6 C10.1,51.9 9.5,53.9 8.9,56.7 C8.4,59 8.4,61.4 8.3,63.7 C8.3,64.7 8.3,65.7 8.2,66.7 C8.1,69.1 8.4,71.4 8.8,74.1 C9.3,77 9.9,79.8 12.2,81.7 C12.7,82.2 13.4,82.6 14,83 C14.3,83.2 14.7,83.4 15,83.7 L15.3,83.9 L15.1,84.2 C13.9,86.5 11.9,87.6 10.1,88.6 Z M103.5,82 L103.2,82.6 C103,82.9 102.9,83.3 102.8,83.6 C102.8,83.7 102.7,83.8 102.7,83.9 L102.6,84.1 L97.1,84.4 C92.8,84.7 88.6,84.9 84.4,85.1 C83.3,85.2 82.1,85.2 81,85.2 C79.4,85.2 77.8,85.3 76.2,85.4 C70.1,85.9 63.7,86.5 55.8,87.4 C54.6,87.5 53.3,87.7 52.2,87.9 C51.2,88.1 50.2,88.2 49.2,88.4 C47.4,88.6 45.6,88.8 43.9,88.9 L36.3,89.6 C33.7,89.8 31,90.1 28.4,90.4 L27.9,90.4 C25.8,90.6 23.6,90.8 21.5,90.8 C20.2,90.8 19.1,90.7 17.9,90.6 C17.1,90.5 16.4,90.3 15.8,90 L15.1,89.7 L15.7,89.3 C18.2,87.8 19.8,85.6 21.3,83.5 C21.9,82.7 22.4,81.8 23,81 C24,79.4 25.1,77.8 26.3,76.2 C28.5,73.2 30.2,71 31.9,69 C35.5,64.9 40.2,62.4 46.2,61.4 C46.9,61.3 47.5,61.2 48.2,61.1 C51.2,60.6 54.3,60.1 57.4,60.2 C58.9,60.2 60.5,60.3 62.1,60.4 C62.8,60.4 63.5,60.5 64.3,60.5 L64.6,60.5 L64.6,60.8 C64.7,61.6 64.9,62.5 65,63.3 C65.3,65.1 65.5,66.7 65.8,68.4 C66.3,71.2 66.9,73.6 67.5,76 C67.9,77.4 68.8,78.3 69.9,78.3 C70.4,78.3 70.9,78.1 71.4,77.8 C71.7,77.6 72,77.3 72.2,77.1 C73.1,75.6 73.9,74.1 74.8,72.6 C75.5,71.4 76.1,70.2 76.8,69.1 C76.9,68.9 77.1,68.7 77.3,68.6 C77.4,68.5 77.5,68.4 77.6,68.3 L77.9,68 L78.1,68.4 C78.2,68.6 78.4,68.8 78.5,69 C78.8,69.4 79.1,69.8 79.3,70.2 C79.7,70.9 80.2,71.3 81.2,71.6 C82.3,71.9 82.8,71.7 83.3,70.9 C83.7,70.2 84.1,69.5 84.6,68.5 C85.3,67 86,65.5 86.6,64 C87,63.1 87.4,62.2 87.9,61.2 C88.3,60.4 88.7,59.6 89.1,58.7 L89.8,57.2 L90.1,57.3 C90.6,57.4 91.2,57.6 91.7,57.8 C92.8,58.2 93.8,58.5 94.8,58.5 L94.9,58.5 C97.6,58.5 100.3,58.9 102.9,59.4 C104.2,59.6 105.4,59.8 106.7,60 C107.8,60.1 109.3,60.1 110.7,60 L111.6,60 C112.8,60 114,59.9 115.3,59.8 C115.9,59.8 116.4,59.7 117,59.7 L117.4,59.7 L117.4,60.1 C117.4,63.8 117.3,67.6 119.7,71.1 L120,71.5 L119.5,71.7 C118.9,71.9 118.3,72.1 117.7,72.3 C116.5,72.7 115.4,73 114.3,73.5 L113.6,73.8 C110.3,75.1 107,76.5 104.9,79.7 C104.3,80.3 103.9,81.1 103.5,82 Z M120.3,74.1 C121.1,74.1 121.7,74.5 122.3,75.3 L122.6,75.7 L122.2,75.9 C120.8,76.6 119.9,77 119.1,77 C118.3,77 117.7,76.6 117.3,75.7 L117.1,75.4 L117.4,75.2 C118.8,74.4 119.6,74.1 120.3,74.1 Z M115.6,78 L115.2,78.3 C115,78.5 114.7,78.6 114.5,78.7 C114.1,79 113.7,79.3 113.3,79.4 C113.1,79.5 112.9,79.5 112.7,79.5 C112.3,79.5 111.7,79.3 111.4,78.3 L111.3,78.1 L113.6,76.1 L115.6,78 Z M110.1,82.7 C109.9,83.1 109.8,83.5 109.5,83.9 L109.1,84.8 L106.6,84.7 L106.5,84.5 C106.1,83.1 106.7,82.1 107.5,81.2 C107.9,80.8 108.7,80.7 109.1,80.8 C109.5,80.9 109.8,81.1 109.9,81.4 C110.3,81.9 110.3,82.3 110.1,82.7 Z M105.8,88.6 L106.1,88.5 C107.4,88.2 108.2,88.1 108.8,88.1 C109.9,88.1 110.1,88.7 110.5,89.7 L110.6,90 L106.3,92.4 L105.8,88.6 Z M115.8,98.9 C117.1,97.3 118.1,96.4 119.2,96.4 C120,96.4 120.8,96.9 121.8,98.1 L122.1,98.4 L121.8,98.6 C120.8,99.4 119.6,100.2 118.2,100.2 C117.4,100.2 116.7,99.9 115.9,99.4 L115.6,99.2 L115.8,98.9 Z M114.7,94.3 L115,94.6 L111.5,97.7 L108.5,95.9 L109.8,94.9 C110.3,94.5 110.8,94.1 111.3,93.8 C111.9,93.3 112.3,93.1 112.8,93.1 C113.3,93 113.8,93.4 114.7,94.3 Z M126.4,83.9 L126.2,86.4 L125.8,86.3 C124,85.8 122.2,85.7 120.2,85.6 C118.2,85.5 116,85.4 113.9,84.8 L113.2,84.6 L113.7,84.2 C114.1,83.9 114.3,83.6 114.6,83.4 C115.1,82.9 115.6,82.5 116.2,82.2 C117.7,81.5 119.2,80.8 120.6,80.2 C121.6,79.8 122.5,79.4 123.5,78.9 C123.8,78.8 124.1,78.5 124.4,78.3 C124.6,78.2 124.8,78 125,77.8 L125.1,77.7 L125.3,77.7 C126.3,77.9 126.7,78.5 126.6,79.6 C126.6,80.9 126.5,82.3 126.4,83.9 Z M133,88.4 C132.3,89.2 131.8,89.5 131.3,89.5 C130.8,89.5 130.4,89.2 130,88.6 L129.8,88.4 L130,88.2 C130.4,87.8 130.8,87.6 131.3,87.6 C131.6,87.6 131.8,87.7 132.1,87.7 C132.3,87.7 132.5,87.8 132.8,87.8 L133.5,87.9 L133,88.4 Z M133.9,85.9 L133.5,85.9 C132.6,85.9 131.8,85.5 131.1,85.1 C130.8,84.9 130.4,84.7 130,84.6 L129.7,84.5 L130.6,80.3 L133.9,81.1 L133.9,85.9 Z M141.9,89.8 L141.6,90 L141.4,89.8 C140.5,89 139.6,87.9 139.4,86.3 L139.4,85.9 L142.8,86.2 L142.9,86.4 C143.4,87.8 143,88.9 141.9,89.8 Z M147.5,86 L146.8,86 L145.4,82.8 L150.5,81.8 L152.2,84.8 L151.9,85 C150.4,85.9 148.9,86 147.5,86 Z M152.3,91.1 L149.3,89.3 L149.5,89 C149.9,88.4 150.5,88.3 150.9,88.2 C151.3,88.1 151.5,88.1 151.6,87.9 L151.9,87.6 L152.7,88.4 L152.3,91.1 Z M148.8,79 C147.3,79.6 145.6,79.9 143.5,79.9 C143.2,79.9 142.9,79.9 142.7,79.9 C137.2,79.7 132.9,78.6 129.4,76.4 C129,76.1 128.5,75.9 128,75.7 C127.2,75.4 126.4,75 125.7,74.4 C121.5,70.5 119.6,66.1 119.8,60.8 C119.8,60.5 119.8,60.3 119.8,60 C119.8,59.3 119.7,58.7 119.9,58 C120,57.2 120.4,56.4 120.9,55.8 L121,55.7 C121.9,54.7 122.3,54.1 121.8,53 C121.6,52.6 121.7,51.9 121.9,51.5 L122,51.2 C123.8,48.1 125.7,44.9 129.4,43.3 C130.8,42.7 132.3,42.1 133.7,41.6 L134.1,41.5 C134.4,41.4 135.1,41.2 135.4,41.4 C136.3,41.8 137.2,41.8 138.1,41.8 C138.3,41.8 138.5,41.8 138.7,41.8 C139.1,41.8 139.6,41.8 140.1,41.9 C143,42.5 146.2,43.2 148.8,45.3 C149.9,46.2 151.1,46.9 152.3,47.5 C153.6,48.2 155.1,49.1 155.9,50.9 C156.3,51.8 156.7,52.7 157.2,53.5 C157.8,54.6 158.3,55.8 158.8,56.9 C159.2,57.9 159.4,59.1 159.5,60.1 C159.9,65.1 158.6,69.4 155.8,73.1 C154,75.4 151.9,77.7 148.8,79 Z M163.2,87.6 C161.7,87.5 160.3,87.3 158.9,87.2 C156.9,87 155.7,86.1 155,84.3 C154.7,83.5 154.3,82.8 153.9,82 C153.7,81.6 153.5,81.3 153.3,80.9 L153.2,80.6 L153.4,80.4 C154.8,79.1 156,79.1 157.4,80.1 C158.8,81.2 160.2,82.2 161.6,83.3 C162.7,84.1 163.7,84.9 164.8,85.7 C165,85.9 165.2,86.1 165.4,86.5 C165.5,86.7 165.6,86.9 165.8,87.1 L166.3,87.8 L163.2,87.6 Z M166.8,80.7 C165.8,81.4 165.3,81.8 164.6,81.8 C163.9,81.8 163.2,81.3 161.8,80.1 L161.4,79.7 L164.5,78.1 L167.3,80.3 L166.8,80.7 Z M170.9,88.2 L168.4,85.1 L170,82.7 L173.1,86.6 L170.9,88.2 Z M157.6,122.3 C156.7,122.9 156.2,123.3 155.5,123.3 C154.9,123.3 154.3,122.9 153.5,122.3 L152.7,121.7 L153.7,121.6 C154.1,121.6 154.5,121.5 154.9,121.4 C155.9,121.2 156.8,121.2 157.6,121.6 L158.1,121.9 L157.6,122.3 Z M166.4,120.3 C166,120.5 165.6,120.6 165.2,120.8 C164.3,121.2 163.4,121.6 162.5,121.9 C162.3,122 162.1,122 161.9,122 C161.9,122 161.9,122 161.9,122 C161.3,122 161.2,121.6 160.6,120.3 L160.5,120 L160.8,119.8 L164.6,118 L166.9,120.1 L166.4,120.3 Z M173.5,115.5 C172.9,116.7 171.9,117.4 171,118 C170.7,118.2 170.3,118.5 170,118.8 L169.7,119 L167.6,116.2 L170.4,113.7 L173.8,115.2 L173.5,115.5 Z M177.3,108.6 C177.2,108.9 177.1,109.2 177.1,109.4 C176.9,110 176.7,110.7 176.5,111.3 C176.2,112 175.8,112.7 175,112.7 C174.6,112.7 174.2,112.5 173.6,112.1 L172.2,111.2 L172.3,110.9 C173.8,107.7 173.9,107.4 177.1,108 L177.5,108.1 L177.3,108.6 Z M174.7,90.6 L175.1,90.4 L175.3,90.8 L177.1,96.1 L176.9,96.3 C176.4,96.7 176,96.9 175.6,96.9 C175.1,96.9 174.7,96.6 174.5,95.9 L174.4,95.7 C174,94.6 173.7,93.4 173.3,92.3 C173.1,91.3 173.5,91.1 174.7,90.6 Z M177.9,103.5 C177.9,103.9 177.9,104.3 177.9,104.7 L177.9,105.1 L174.9,105.1 L175,103.7 C175.1,102.9 175.1,102.2 175.2,101.4 C175.3,100.1 176.5,100 177.1,100 L177.3,100 L177.4,100.2 C178,101.3 177.9,102.4 177.9,103.5 Z M254.1,70.8 C253.8,71.2 253.4,71.4 252.7,71.6 L252,71.7 C250.2,72 248.2,72.3 246.5,71.8 C245.5,71.5 244.9,71.7 244.5,72.4 C244.1,73.1 244.1,73.6 244.4,74.2 C244.8,74.9 245.2,75.6 245.7,76.4 C245.9,76.8 246.1,77.1 246.3,77.5 L246.6,78 L244.5,78.3 C243.3,78.5 242.1,78.7 240.9,78.8 C240.6,78.8 240.3,78.9 240,78.9 C239.1,79 238.3,79.2 237.4,79.4 C234.3,80.2 231,81.1 227.6,81.1 C227.2,81.1 226.8,81.2 226.5,81.3 C226.1,81.4 225.8,81.7 225.7,82.1 C225.6,82.5 225.6,82.9 225.8,83.4 C226.6,84.9 228.1,85.3 229.6,85.4 C233.2,85.7 236.6,86.5 240.6,87.6 C242.5,88.1 244.6,88.3 246.6,88.6 C247.5,88.7 248.4,88.8 249.3,88.9 C249.5,88.9 249.8,88.9 250.2,89 L251.8,89.1 L251.2,89.7 C250.9,90 250.7,90.2 250.4,90.5 C249.9,91 249.6,91.3 249.2,91.7 C246.6,94 243.6,95.2 240.2,95.3 C238.3,95.4 236.4,95.4 234.6,95.4 C228.8,95.4 223.5,95.1 218.4,94.4 C213,93.7 207.5,92.8 202.1,91.9 C199.2,91.4 196.4,90.9 193.5,90.5 C190.6,90 187.8,89.6 184.9,89.4 C182.5,89.2 180.4,88.5 178.1,87.7 C177.6,87.5 177.2,87 177,86.7 C175.4,84 173.2,81.6 170.1,79.3 C168.1,77.8 166.1,76.1 164.2,74.5 C163.3,73.8 162.5,73 161.6,72.3 L161.4,72.1 L163.8,62.1 L164.1,62.1 C164.3,62.1 164.6,62 164.8,62 C165.4,61.9 166,61.8 166.7,61.9 C168.5,62 170.3,62.1 172.1,62.2 C173.1,62.3 174.1,62.3 175.1,62.4 C178.7,62.6 182.1,62.2 186.9,61 C187.5,60.9 188,60.8 188.6,60.7 C188.9,60.7 189.2,60.6 189.5,60.5 L189.8,60.4 L189.9,60.7 C190,60.9 190,61.1 190.1,61.3 C190.3,61.7 190.4,62 190.5,62.4 C190.7,63.4 190.9,64.4 191.1,65.4 C191.4,66.9 191.7,68.5 192.1,70.1 C192.8,73 193.4,75.2 194.1,77.1 C194.3,77.8 195.1,78.5 195.8,78.8 C196.1,79 196.4,79.1 196.7,79.1 C197.6,79.1 198.3,78.3 198.4,77.2 C198.7,74.6 199,71.9 199.4,69.6 C199.5,69.2 199.7,68.7 199.9,68.3 C200,68.1 200.1,67.8 200.2,67.5 L200.4,67.1 L201.7,68 C202.5,68.5 203.1,69 203.8,69.5 C204,69.6 204.1,69.8 204.3,70 C204.4,70.1 204.5,70.2 204.6,70.3 C205.5,71.1 206.2,71.6 207.2,71.1 C208.2,70.6 208.2,69.9 208.2,68.7 C208.1,66.7 208.1,64.8 208.2,62.9 L208.2,61.6 C208.2,59.7 208.6,59.2 210.5,58.9 C211.8,58.7 213.2,58.5 214.6,58.3 C217.9,57.9 221.4,57.4 224.7,56.8 C227.4,56.3 230.1,55.4 232.7,54.5 L233.6,54.2 C238.6,52.6 242.9,50.9 246.7,49.1 C247.5,48.7 248,48.6 248.5,48.6 C249.5,48.6 250,49.4 250.4,50.7 C250.9,52.2 251.2,53.9 251.5,55.4 C251.6,56 251.7,56.5 251.8,57.1 C252.4,59.8 252.9,62.5 253.5,65.2 C253.6,65.8 253.7,66.3 253.8,66.9 C253.9,67.6 254.1,68.4 254.2,69.1 C254.4,69.9 254.4,70.4 254.1,70.8 Z M242.9,82.2 L242.6,84.9 L238.1,83.8 L238.3,82.6 L242.9,82.2 Z" id="Shape"></path>
                <path d="M147.4,57.6 C146.9,57.1 146.1,56.9 145.5,57.2 C144.9,57.5 144.5,58 143.9,58.3 C143.5,58.5 143.1,58.5 142.7,58.6 C142.2,57.4 142.3,55.8 143.3,54.9 C143.7,54.8 144.1,54.7 144.5,54.6 C145.5,54.5 147.1,54.3 147.8,53.4 C148.5,52.5 148.2,50.9 147.8,49.9 C147.6,49.2 147,48.5 146.3,48.3 C146.2,47.9 145.9,47.6 145.4,47.6 C144.2,47.6 143,47.9 142,48.5 C140.9,49.2 140.6,50.4 140.6,51.6 C140.3,52.5 140.1,53.4 139.8,54.3 C139.4,55.8 138,56.6 136.8,54.9 C135.9,53.7 136.9,53.3 136.8,52.2 C136.8,50.3 134.2,49 132.5,49.1 C130.4,49.2 130.1,52.1 130,53.8 C129.8,56.5 132.8,56 134.1,57.2 C134.9,58.1 135.3,59.2 135,60.6 C134.9,61 134.8,61.4 134.6,61.8 C134.6,62 134.6,62.1 134.5,62.3 C133.8,63.9 133.1,65.3 131.4,66.1 C130.7,66.5 130.1,66.6 129.7,67 C129.7,67.4 129.8,67.8 129.9,68.3 C130.4,69.8 131,71 132.6,71.2 C132.9,71.2 133.2,71.2 133.6,71.2 C134.8,71.2 135.8,71 136.7,70.4 C137.1,69.7 136.6,68.3 136.4,67.4 C136.2,66.2 136.1,65.1 136.7,64 C136.8,63.8 137,63.6 137.1,63.5 C137.9,62.1 139.4,61.3 141.1,61.1 C141.8,61.4 142.4,62 142.8,62.7 C143.2,63.4 143.8,63.8 144.6,64 C145.9,64.3 148.5,62.8 149.2,61.8 C150.5,60.3 148.6,58.6 147.4,57.6 Z" id="Shape"></path>
                <path d="M137.9,46 C138.3,46 138.8,46 139.2,46 C139.4,46 139.7,46 139.9,46 C140.9,46 141.4,45.8 141.6,45.1 C141.6,44.9 141.6,44.7 141.5,44.6 C141.3,44.3 140.8,44 140.1,43.9 L140,43.9 C138.8,43.6 137.5,43.4 136.3,43.4 C131.8,43.7 128.1,45.9 125.5,49.9 C123.8,52.5 123.2,55.5 122.6,58.7 C122.5,59.2 122.4,59.7 122.3,60.3 C122.3,60.5 122.4,60.7 122.4,60.9 C122.5,61.5 122.6,62.2 122.8,62.8 C123,63.7 123.3,64 123.9,64 L124,64 C124.3,64 125,63.9 125.3,62.4 C125.4,61.7 125.5,61 125.7,60.2 C125.9,59.2 126.1,58.1 126.2,57 C126.5,54.1 127.9,51.4 130.4,49.1 C132.7,46.9 135.1,45.8 137.9,46 Z" id="Shape"></path>
                <path d="M157.1,63.1 C157,62.1 156.9,61 156.8,60 C156.7,58.8 156.5,57.6 156.5,56.4 C156.4,55.1 155.7,54.6 154.7,54.1 C153.9,53.8 153.3,53.6 152.8,54.2 C152.4,54.6 152.6,54.9 152.9,55.5 C153,55.6 153,55.8 153.1,55.9 C154.2,58.4 155.1,61.6 153.4,65 C152.9,65.9 152.5,66.8 152.1,67.7 C151.9,68 151.8,68.4 151.6,68.7 C152.6,69.3 153.4,69.3 154.1,68.7 C155.5,67.5 157.2,65.7 157.1,63.1 Z" id="Shape"></path>
                <path d="M144.2,73.7 C144.1,73.6 143.7,73.7 143.4,73.7 C143.3,73.7 143.1,73.7 143,73.8 C142.4,73.9 141.7,73.9 141.1,74 C140.1,74.1 139,74.2 138,74.3 C137.7,74.3 137.4,74.3 137.1,74.3 C136.7,74.3 136.4,74.2 136.2,74.3 C135.9,74.4 135.5,74.5 135.2,74.5 C134.3,74.5 133.6,74.1 132.8,73.6 C131.7,73 130.7,72.5 129.8,72.3 C129.5,72.2 128.8,72.4 128.6,72.7 C128.5,72.9 128.6,73.5 128.7,73.7 C130.2,75.1 132.2,76.6 134.7,76.8 C135.5,76.9 136.3,76.8 137.1,76.8 C137.5,76.8 137.8,76.8 138.2,76.8 L138.6,76.8 L138.6,76.9 C138.9,76.9 139.1,76.9 139.4,76.9 C140.3,76.9 141.3,76.9 142,76.8 C143,76.7 144,76.4 144.8,75.9 C145.1,75.7 145.4,75 145.4,74.8 C145.2,74.5 144.8,74.1 144.2,73.7 Z" id="Shape"></path>
            </g>
        </g>
    </g>
</svg>