<?xml version="1.0" encoding="UTF-8"?>
<svg width="345px" height="346px" viewBox="0 0 345 346" version="1.1" xmlns="http://www.w3.org/2000/svg" xmlns:xlink="http://www.w3.org/1999/xlink">
    <!-- Generator: Sketch 51.3 (57544) - http://www.bohemiancoding.com/sketch -->
    <title>Group</title>
    <desc>Created with Sketch.</desc>
    <defs></defs>
    <g id="Page-1" stroke="none" stroke-width="1" fill="none" fill-rule="evenodd">
        <g id="Wizzard-01" transform="translate(-317.000000, -656.000000)" fill="#000000" fill-rule="nonzero">
            <g id="Group" transform="translate(317.000000, 656.000000)">
                <path d="M342.9,45.2 C342.8,45.2 342.8,45.2 342.9,45.2 C342.6,45.3 342.4,45.5 342.1,45.7 C341.9,45.9 341.6,46 341.4,46.2 C340.8,46.5 340.2,46.8 339.6,47.2 L338.6,47.7 L337.9,46.9 L338,46.7 C338.1,46.5 338.1,46.4 338.2,46.2 C338.4,45.8 338.5,45.4 338.8,45 C339.2,44.4 339.6,43.8 340,43.2 C340.5,42.5 340.9,41.8 341.3,41.1 C343,38.2 343.6,35.1 343.1,31.8 C343,31.4 343,31 342.9,30.6 C342.7,29.2 342.6,27.9 341.9,26.7 C341.6,26.2 341.5,25.7 341.5,25.1 C341.1,24.2 340.8,23.4 340.4,22.5 C339.7,22.7 339.1,23.2 338.5,23.7 L338.1,24 C337.6,24.4 337.1,24.8 336.6,25.3 C335.7,26.1 334.8,26.9 333.8,27.6 C330.7,29.8 327.6,32 324.6,34 C323,35 321.1,36.1 318.9,36.1 C318.4,36.1 318,36.1 317.5,36 C314.8,35.5 312.7,36.4 311.1,38.8 C309.7,40.8 308,42.5 306.3,44 C305.5,44.7 304.7,45.2 303.7,45.7 C303.3,45.9 302.9,46.1 302.5,46.4 L302.1,46.6 L301.7,45.7 C301.6,45.5 301.5,45.3 301.4,45.1 C300.5,42.9 299.3,42.1 297.1,42.5 L297,42.5 C296.2,42.6 295.4,42.8 294.7,43.2 C294,43.6 293.4,44 292.7,44.4 C290.6,45.6 288.4,46.9 286.6,48.5 L285.7,49.3 C282.3,52.3 278.9,55.4 276.6,59.5 C276.3,60 276,60.5 275.7,61 C275.1,61.9 274.6,62.9 274.1,63.9 C273.4,65.3 272.8,66.8 272.2,68.4 C271.9,69.1 271.6,69.9 271.3,70.7 L270.9,71.8 L270.3,69.9 C270.2,69.4 270.1,69.1 270,68.7 C269.7,67.4 268.9,66.4 267.7,65.7 C266.6,65.1 265.8,65.4 265.2,66.4 C264.5,67.8 263.8,69.2 263.1,70.6 C262.6,71.6 262.2,72.5 261.7,73.5 C261.5,74 261.2,74.5 260.9,75 C260.8,75.2 260.6,75.4 260.5,75.7 L260.3,76 L260,75.8 C259.2,75.4 258.6,75.2 258,75.2 C257.4,75.2 256.9,75.4 256.5,75.9 C256.1,76.3 255.6,76.7 255.2,77.1 C254.3,78 253.3,78.9 252.4,79.8 C251.8,80.4 251.2,81 250.9,81.8 C250.5,82.6 250.2,83.5 249.8,84.3 C248.3,87.6 246.8,91 245.6,94.4 C244.1,98.6 243.6,99.2 239.2,99.7 L239,99.7 C238.4,99.8 237.7,99.8 237.1,100 C236.6,100.1 236,100.3 235.6,100.6 C232.2,103.3 230.7,106.9 231,111.3 C231.1,112 231.1,112.6 231.2,113.3 C231.4,115 231.5,116.8 231.6,118.5 C231.7,121 230.2,122.4 227.6,122.7 C226.3,122.8 225.3,123 224.4,123.2 C223.1,123.5 222,124.6 221.2,126 C220.4,127.5 220.3,129.1 220.8,130.3 C221,130.7 221.1,131.2 221.3,131.7 C221.4,131.9 221.5,132.2 221.5,132.4 L221.6,132.7 L221.3,132.9 C221,133.1 220.7,133.2 220.4,133.3 C219.9,133.6 219.4,133.8 219,134.1 C216.8,135.4 214.7,137 214.5,140.1 C214.5,140.8 214.4,141.9 214,142.8 C213.3,144.5 213.1,146.4 213.4,148.8 C213.6,150.7 214,152.7 214.4,154.6 C215.1,158 215.8,161.4 215.7,165 C215.7,166 215.7,166.9 215.7,167.9 C215.8,170 215.8,172.2 215.3,174.3 C214.9,175.9 214.1,177.9 212.4,179.2 C211.4,180 211.1,180.9 211.2,181.9 C211.2,185.1 211.8,188.4 213.1,192.3 C214.1,195.4 215,198.7 215.9,201.8 C216.2,202.8 216.5,203.8 216.8,204.8 C217.3,206.6 216.8,208.3 216.2,209.8 C215.9,210.6 215.6,211.3 215.4,212 C214.7,214.7 214,217.5 213.3,220.6 C213.1,221.6 212.8,222.6 212.6,223.5 C212,226.1 211.3,228.8 210.8,231.5 C209.8,237 210.1,242.5 210.4,248 C210.5,249.7 210.6,251.4 210.6,253 C210.6,254.2 211,254.5 212.4,254.6 C213.9,254.7 214.4,254.3 214.7,252.7 C215,251 215.2,249.3 215.5,247.7 C215.9,245.2 216.3,242.6 216.8,240.1 C217.9,233.6 219.7,227.5 222,221.8 C223,219.3 223.8,216.7 224.5,214.2 L224.7,213.4 C225.3,211.3 226,208.9 229.2,208.8 L232.5,207.1 C234.6,206 236.7,204.9 238.8,203.8 C243.4,201.4 247,198.7 249.9,195.7 C252.3,193.1 253.1,190.3 252.3,187.4 C252.1,186.6 251.7,185.8 251.4,185 C251.2,184.5 251,184.1 250.8,183.6 C250.2,182 250.2,181.2 251.9,180.2 C253.1,179.5 254.3,178.9 255.6,178.4 C262,176.1 267.9,172.7 273.6,168 C274.1,167.6 274.5,167.3 274.9,166.8 C275.9,165.6 276.9,164.5 277.9,163.3 C279.6,161.3 281.4,159.1 283.2,157.1 C286.2,153.7 289,149.8 291.8,144.7 C293.4,141.9 293.3,141.6 291.5,139.3 L291.3,139.1 L291.5,138.9 C291.6,138.8 291.6,138.7 291.8,138.6 C292.1,138.5 292.3,138.3 292.6,138.2 C296.5,136.5 299.6,133.8 302.2,130 C303.1,128.7 303.1,127.4 302.3,126 L301.4,124.4 L302,123.8 C302.2,123.5 302.5,123.3 302.7,123 C303.1,122.5 303.5,122 303.8,121.5 C304.7,120.3 305.7,119.1 306.4,117.9 C306.8,117.2 306.9,116.4 306.7,115.7 C306.5,114.9 305.8,114.3 305,113.9 C303.7,113.3 302.2,112.8 300.8,112.4 L300.7,112.4 C299.6,112 298.4,111.7 297.2,111.4 C296.6,111.2 296.1,111.1 295.5,110.9 L294.7,110.7 L295.4,110.2 C295.6,110.1 295.7,110 295.9,109.9 C296.1,109.7 296.3,109.6 296.6,109.5 C297.3,109.3 298,109.1 298.7,109 C299.8,108.7 301,108.4 302.1,108.1 C302.6,108 303,107.8 303.3,107.7 C305.7,107 305.7,107 306,103.9 C306,103.7 306.1,103.6 306.2,103.3 C306.2,103.2 306.3,103.1 306.4,102.9 L306.5,102.7 L307.5,102.7 C308.1,102.7 308.7,102.7 309.3,102.7 C309.9,102.7 310.6,102.8 311.2,102.8 C312.8,102.9 314.4,103 316,103 C318.3,103 320.2,102.8 322,102.4 C325.6,101.6 329.3,100.5 332.1,96.9 C334.9,93.4 336.3,89.4 336.7,83.6 C336.8,82.8 336.5,82.3 335.8,82.1 C335.1,81.8 334.2,81.8 333.3,81.7 C332.7,81.7 332.2,81.7 331.6,81.6 C330.6,81.6 329.6,81.6 328.6,81.4 C326.3,81 324.7,80 323.7,78.5 L323.4,78.1 L323.9,77.9 C324.8,77.6 325.7,77.3 326.5,77 C328.7,76.3 330.7,75.6 332.8,74.9 C333.6,74.6 334.7,74.2 335.6,73.4 C336.8,72.4 337.9,71.2 338.9,70.1 C339.3,69.7 339.7,69.3 340.1,68.9 C341.4,67.5 342.1,65.7 342.8,64 C343,63.5 343.2,63.1 343.4,62.6 C343.5,62.3 343.6,62 343.7,61.7 C344,59.8 344.2,57.9 344.2,56 C343.9,52 343.2,48.6 342.9,45.2 Z M226.1,198.7 L223.3,206.9 C222.5,209.3 221.6,211.7 220.8,214.1 C220.2,215.8 219.6,217.6 219,219.3 C218.7,220.2 218.4,221.1 218.1,222 C217.6,223.6 217,225.2 216.5,226.8 C216.3,227.3 216.1,227.7 215.9,228.1 C215.8,228.3 215.7,228.5 215.6,228.6 L215.4,229.1 L214.7,228.3 L214.7,228.1 C215,226.8 215.2,225.5 215.5,224.2 C216.1,221.2 216.7,218 217.6,215 C217.8,214.5 217.9,213.9 218,213.4 C218.5,211.3 219.1,209.2 220.6,207.4 C220.8,207.2 220.9,207 220.9,206.9 C220.5,205.4 221.1,204.2 221.6,203 C221.9,202.4 222.2,201.7 222.3,201.1 C222.5,199.9 223,198.8 223.5,197.7 C223.8,197 224.1,196.4 224.3,195.7 C225.1,193.3 225.9,190.9 226.7,188.4 C227.4,186.4 228,184.4 228.7,182.4 C229.3,180.6 230,178.8 230.6,177.1 L231.5,174.8 C232.3,172.7 233.1,170.6 233.9,168.5 C234.5,167.1 235.1,165.7 235.7,164.4 C236.1,163.6 236.5,162.7 236.9,161.9 C237.4,160.7 238,159.5 238.5,158.2 C239.2,156.5 240,154.9 240.7,153.2 C241.9,150.6 243,148.1 244.3,145.6 C246.2,141.9 248.2,138.2 250.1,134.7 C250.5,133.9 251.1,133.3 251.6,132.6 C251.9,132.2 252.2,131.8 252.5,131.4 C253.6,129.8 254.8,128.2 255.9,126.6 C258.3,123.3 260.7,119.8 263.2,116.5 C264.5,114.8 265.9,113.3 267.3,111.8 C267.9,111.1 268.5,110.5 269.2,109.8 L270.4,108.4 C271.7,106.9 273.1,105.4 274.5,103.9 C275.2,103.1 275.9,102.4 276.6,101.6 C277.6,100.5 278.7,99.4 279.7,98.2 C284,93.2 288.3,88.3 292.5,83.4 C296.2,79 299.5,75.8 303,73.3 C303.6,72.9 304.1,72.4 304.7,71.8 C305,71.5 305.4,71.1 305.8,70.8 C306.4,70.3 307.1,69.9 307.8,69.6 L308.4,69.4 L308.3,70.1 C308,71.9 306.9,73.4 306,74.4 C305.2,75.3 304.3,76.1 303.5,76.9 C303.2,77.2 302.8,77.5 302.5,77.8 C302.2,78.1 301.8,78.4 301.4,78.7 C300.7,79.3 300,79.9 299.4,80.5 C297.2,83.3 294.7,85.7 292.2,88.1 C291.7,88.6 291.2,89.1 290.6,89.6 C287.7,92.4 285,95.3 282,98.5 C279.6,101.1 277.3,103.6 275.1,106.2 C273.6,108.1 272,110 270.6,111.9 C269.1,113.8 267.5,115.8 265.9,117.8 C264.6,119.4 263.5,121.1 262.4,122.7 C261.9,123.5 261.3,124.3 260.8,125.2 C260.3,126 259.7,126.7 259.1,127.4 C258.4,128.3 257.7,129.2 257.1,130.1 C256.4,131.2 255.8,132.3 255.2,133.5 C254.7,134.4 254.3,135.2 253.8,136.1 C253.1,137.2 252.5,138.3 251.8,139.4 C251,140.7 250.1,142.1 249.3,143.5 C248.1,145.6 247,147.8 245.9,150 L245.7,150.3 C244,153.8 241.9,158 239.9,162.2 C239.5,163.1 239.1,164 238.8,164.9 C238.6,165.4 238.4,165.9 238.2,166.4 C237.8,167.3 237.5,168.3 237.1,169.2 C236.4,170.9 235.7,172.7 235.1,174.4 C234.5,176 233.9,177.6 233.4,179.2 C232.8,181 232.2,182.8 231.5,184.5 C230.9,186.1 230.3,187.6 229.7,189.1 C229.2,190.4 228.7,191.6 228.2,192.9 C227.7,194.1 227.3,195.4 226.9,196.7 C226.5,197.5 226.3,198.1 226.1,198.7 Z M340.7,56.1 C340.6,56.4 340.6,56.6 340.5,56.9 C339.7,61.2 337.5,65.1 334,68.7 C332.8,69.9 331.1,70.9 328.6,71.8 C326.7,72.5 324.8,73 322.8,73.4 C321.9,73.6 320.9,73.9 320,74.1 L319.8,74.2 C318.9,74.4 318,74.7 317.1,75.1 C316.6,75.3 316.2,75.7 316.1,76 C316,76.3 316.1,76.7 316.3,77 C316.8,77.8 317.5,78.6 318.4,79.3 C319.9,80.5 321.2,81.3 322.5,82 C324,82.8 325.7,83.5 327.5,84.1 C328.4,84.4 329.3,84.6 330.2,84.7 C330.6,84.8 331,84.8 331.4,84.9 L331.6,84.9 L331.7,85.1 C332.3,86.6 331.8,87.9 331.4,89 L331.4,89.1 C329.4,94.4 325.5,97.5 319.6,98.4 C318.4,98.6 317.2,98.7 315.8,98.7 C314.2,98.7 312.6,98.6 311,98.5 C309.8,98.4 308.6,98.3 307.4,98.3 C305.8,98.2 304,98.5 302.4,99 C301.2,99.3 301.1,99.6 301.3,101.1 C301.5,103 300.9,104 299,104.4 C296.5,104.9 294.1,105.4 291.6,105.9 C290.2,106.2 288.8,106.5 287.3,106.8 C287.1,106.8 287,106.9 286.8,106.9 C285.8,107.1 285.2,107.2 284.9,108.1 C284.7,108.7 284.7,109.3 284.9,109.7 C285.2,110.3 285.8,110.7 286.7,110.9 C288,111.3 289.4,111.7 290.7,112.1 C291.5,112.3 292.2,112.6 293,112.8 C293.7,113 294.4,113.2 295,113.4 C295.9,113.6 296.8,113.9 297.6,114.2 C298.6,114.5 299.6,114.9 300.6,115.2 C301.1,115.4 301.5,115.5 302,115.7 L302.4,115.8 L302.2,116.2 C301.3,118.4 299.8,119.7 298.3,121 L297.9,121.3 C297.8,121.4 297.6,121.5 297.5,121.6 C297.4,121.6 297.4,121.7 297.3,121.7 C296.2,122.4 295.7,123.1 295.7,123.8 C295.7,124.5 296.1,125.2 297.1,126 C297.3,126.2 297.6,126.3 297.8,126.5 L298.5,126.9 L298.3,127.2 C296.8,130.2 294.7,132.3 292,133.6 C291.5,133.8 291,134.1 290.5,134.4 C288.8,135.3 287,136.2 284.9,136.4 C283.7,136.5 283,137.6 283,138.6 C283,139.8 283.6,140.3 285.1,140.6 C286.1,140.8 287.2,140.9 287.9,142.1 L288,142.3 L287.6,143 C287.4,143.4 287.1,143.8 286.9,144.1 C286.3,145 285.8,145.8 285.3,146.7 C284.1,148.6 282.9,150.6 281.4,152.4 C280.8,153.2 280.2,153.9 279.5,154.7 C276.4,158.5 273.2,162.5 269.3,165.7 C265,169.2 260.1,172.1 254.9,174.1 C252.5,175 250.2,176.2 247.9,177.3 C246,178.2 245.2,180.8 246.1,182.9 C246.2,183 246.2,183.1 246.2,183.3 C246.3,183.6 246.4,183.8 246.6,184 C249.5,187.4 248.9,191.2 245.1,194.6 C243.1,196.3 240.9,198 237.7,200 C235.6,201.3 233.5,202.5 231.4,203.6 C230.6,204.1 229.7,204.5 228.9,205 C228.7,205.1 228.5,205.2 228.3,205.2 C228.1,205.3 227.9,205.3 227.7,205.4 L226.9,205.7 L227.9,203.2 C228.3,202 228.7,201 229.1,200 C229.7,198.4 230.3,196.8 230.9,195.2 L232.2,191.8 C232.4,191.2 232.6,190.6 232.9,190 C233.2,189.3 233.4,188.6 233.7,187.8 C234.2,186.3 234.7,184.9 235.2,183.4 C236.3,180.1 237.5,176.7 238.9,173.5 C239.8,171.3 240.6,169.1 241.4,166.9 C241.9,165.5 242.4,164 243,162.5 C243.5,161.2 244.2,159.9 244.8,158.7 C245.3,157.7 245.9,156.6 246.4,155.6 C248.6,150.4 251.6,145.5 254.4,140.8 C255.5,139 256.6,137.2 257.6,135.4 C259.6,131.9 261.9,128.6 264.2,125.4 C265,124.2 265.9,123 266.7,121.8 C269.1,118.2 272,115 274.8,111.8 C276,110.4 277.2,109.1 278.3,107.7 C279,106.9 279.7,106 280.4,105.1 C281.3,103.9 282.3,102.7 283.4,101.5 C285.8,98.8 288.4,96.1 291.2,93.4 C293.2,91.5 295.2,89.6 297.2,87.7 C298.1,86.9 299,86 299.9,85.2 C300,85.1 300.1,85 300.1,85 C301.3,82.8 303.1,81.2 304.8,79.6 C305.9,78.6 306.9,77.6 307.9,76.5 C308.9,75.4 309.8,74 310.9,72.2 C311.7,71 311.9,69.6 311.5,68.2 C311.4,67.8 311.4,67.4 311.4,66.9 C311.4,66.8 311.4,66.6 311.4,66.4 C310.2,65.6 309.2,65.7 307.8,66.6 C300.5,71.4 295,76.1 290.5,81.4 C286.8,85.8 282.9,90 279.2,94.1 C277.5,96 275.7,97.9 274,99.8 C272.1,101.9 270.2,103.9 268.3,106 C266.1,108.4 264,111 261.9,113.6 C258.8,117.4 256.6,120.4 254.5,123.2 C253.8,124.2 253.1,125.2 252.4,126.1 C249.6,130 246.6,134 244.4,138.3 C241.7,143.5 239.3,148.6 237.2,153 C235.2,157.3 233.4,161.3 231.8,165.1 C229.5,170.5 227.8,174.8 226.3,178.8 C225.3,181.5 224.4,184.4 223.4,187.1 C222.8,189 222.1,190.9 221.5,192.8 C221,194.2 220.5,195.5 219.9,196.9 C219.6,197.5 219.4,198.2 219.1,198.8 L218.9,199.3 L218.5,199 C218.5,199 218.4,198.9 218.4,198.9 C218.2,198.8 218,198.7 218,198.5 C217.7,197.7 217.5,196.9 217.2,196.2 C216.5,194.1 215.7,191.9 215.2,189.7 C214.7,187.9 214.5,185.9 214.4,183.3 C214.4,182.2 215.1,181 215.5,180.5 C218.1,176.9 219.1,173.2 218.8,169.1 C218.7,167.3 218.6,165.4 218.5,163.6 C218.4,159.7 217.6,155.8 216.8,152 L216.4,150.1 C215.6,146.3 216.3,142.5 218.6,138.1 C219.2,137 220.2,136.3 221.6,136.1 C222.7,135.9 223.6,135.5 224.1,134.7 C224.6,133.9 224.8,132.9 224.5,131.7 C224.4,131.3 224.2,130.8 224,130.4 L223.9,130.1 C223.3,128.7 223.5,127.3 224.5,126.2 C225.3,125.3 226.3,125.1 227.8,125.6 C228.1,125.7 228.7,125.7 229.2,125.5 C233.4,123.9 234.4,122.4 234.4,117.9 C234.4,115.7 234.3,113.7 234,111.8 C233.7,109.9 233.9,107.9 234.6,105.7 C235.4,103.4 237.5,102 240.2,102 C242.1,102 243.6,101.3 245,100.5 C246.5,99.6 247.3,98.7 247.5,97.7 C247.8,95.5 248.7,93.5 249.5,91.5 C250,90.3 250.6,89 251,87.7 C251.8,85 253.5,82.5 255.9,80.2 C256.1,80 256.4,79.8 256.7,79.7 C256.9,79.6 257,79.5 257.2,79.4 L257.8,79 L257.8,80.5 C257.8,81 257.8,81.4 257.8,81.8 C257.8,82.8 258.3,83.3 259.1,83.5 C259.8,83.6 260.6,83.1 261,82.4 C261.1,82.2 261.1,82 261.2,81.7 C261.7,78.8 263,76.3 264.3,73.9 C264.8,72.9 265.3,71.9 265.8,70.8 C265.9,70.6 266,70.4 266.2,70.2 C266.3,70.1 266.4,69.9 266.6,69.8 L267.1,69.2 L267.3,70 C267.4,70.4 267.5,70.7 267.6,71 C267.8,71.6 267.9,72.2 268,72.8 C268.1,73.8 268.1,74.9 268.2,75.9 C268.2,76.5 268.3,77 268.3,77.6 C268.4,78.6 268.8,79.1 269.9,79.2 C270.8,79.3 271.2,79 271.5,78 C271.9,76.8 272.4,75.7 272.8,74.6 C273,74.1 273.2,73.6 273.4,73.1 C273.7,72.4 274,71.7 274.3,71 C275,69.4 275.6,67.8 276.2,66.2 C277.5,62.3 280,59.2 282,56.9 C284.6,54 287.1,51.6 289.7,49.5 L289.9,49.4 C291.9,47.8 293.9,46.1 296.5,45.2 C297.1,45 297.5,44.9 297.8,44.9 C299.2,44.9 299.3,46.4 299.3,47.2 C299.3,49.1 300.3,49.8 302.1,49.4 C304.8,48.9 307.2,47.5 309.1,45.5 C309.9,44.7 310.6,43.8 311.4,43 C312.2,42.1 312.9,41.3 313.7,40.4 C314.8,39.2 316,38.8 317.4,39.1 C319.9,39.6 322.2,39.1 325.1,37.4 C329.4,34.8 333.3,32.1 336.8,29.2 C337,28.9 337.3,28.6 337.6,28.5 C337.7,28.4 337.9,28.3 338,28.2 L338.4,27.9 L338.6,28.3 C338.7,28.4 338.7,28.6 338.8,28.7 C339,28.9 339.1,29.1 339.2,29.4 C339.3,29.7 339.3,29.9 339.4,30.2 C339.5,30.7 339.6,31.2 339.6,31.8 C340,38.9 335.7,47.9 329.4,51.7 C329.8,52 330.4,52.2 331.1,52.3 C331.5,52.4 331.9,52.4 332.3,52.5 C332.9,52.6 333.5,52.7 334.1,52.8 C335.2,52.9 336.4,52.8 337.5,52.7 C338.1,52.6 338.7,52.4 339.4,52.3 C339.7,52.2 340,52.1 340.3,52 L340.6,51.9 L340.7,52.2 C341.3,53.5 341,54.8 340.7,56.1 Z" id="Shape"></path>
                <path d="M236.6,295 C236,294.3 235.7,293.5 235.4,292.7 L235.1,291.8 C234.6,290.5 234.1,289.3 233.8,287.9 C233.6,287.1 233.4,286.2 233.2,285.4 C232.3,281.9 231.3,278.2 232,274.3 C232.3,272.8 231.8,271.6 230.7,270.5 C227.6,267.8 224.9,266.4 222.1,265.8 L220.2,265.4 C215.5,264.5 210.7,263.5 205.9,263.5 C205.6,263.5 205.3,263.5 205,263.5 C197.1,263.7 191.7,265.5 187.2,269.3 C185.5,270.8 184.9,272.6 185.6,274.7 C185.7,275.1 185.9,275.7 185.9,276.3 C185.9,277.1 185.8,277.9 185.8,278.7 C185.7,281 185.6,283.5 185.3,285.8 C185,288.2 184,290.7 182.3,293.3 C181.3,294.7 180.2,296.2 178.5,298 C176.5,300.2 175.5,302.7 175.2,305.8 C175.4,306.8 175.5,307.9 175.7,309 C176.1,311.5 176.4,314 177.1,316.5 C177.9,319.8 179.1,323.2 180.2,326.4 C180.5,327.2 180.7,328 181,328.8 C181.8,331.1 182.6,333.6 183.7,336 C184.5,337.9 185.8,339.5 187.4,340.6 C190.9,343 194.9,344.5 199.1,345 C202.4,345.4 206.1,345.9 209.8,345.9 C211.6,345.9 213.2,345.8 214.8,345.6 C216.2,345.4 217.5,345.3 218.9,345.1 C221.6,344.8 224.5,344.5 227.2,343.8 C233.2,342.3 237,338.5 238.8,332.1 C239.9,328.3 240.4,324.1 240.4,319.3 C240.4,318.4 240.4,317.5 240.4,316.7 C240.4,315.4 240.4,314.2 240.4,312.9 C240.4,312.3 240.4,311.7 240.4,311.1 C240.4,309.2 240.4,307.2 240.2,305.3 C239.8,301.2 239,297.8 236.6,295 Z M191.1,272.3 L191.3,272 C191.9,270.9 192.5,269.7 194.3,269.4 C195.1,269.2 195.8,269.1 196.6,268.9 C199,268.4 201.4,267.8 203.9,267.9 C204,267.9 204.1,267.9 204.1,267.9 C204.3,267.9 204.4,267.9 204.6,267.9 C206.3,268.1 208.1,268.4 209.8,268.6 L213.7,269.2 C214.1,269.3 214.5,269.3 214.9,269.3 C215.8,269.4 216.6,269.4 217.5,269.7 C220.1,270.6 222.8,271.6 225.5,272.7 C226.4,273.1 227.3,274 226.7,276.3 L226.6,276.6 L224.9,276.3 C223.9,276.1 222.9,275.9 222,275.7 C221,275.5 220.1,275.2 219.1,274.9 C217.4,274.4 215.8,273.8 214,273.8 L213.7,273.8 C212.4,273.8 211.1,273.6 209.9,273.5 C209.1,273.4 208.2,273.2 207.4,273.2 C206.7,273.2 206,273.2 205.3,273.3 C204.8,273.3 204.4,273.4 203.9,273.4 C200,273.5 196.8,274 194,275 C193.6,275.1 193.2,275.4 192.7,275.6 C192.5,275.7 192.3,275.8 192,275.9 L191.8,276 L191.6,275.9 C190.3,274.9 190.5,273.3 191.1,272.3 Z M180.3,301.3 C180.7,300.8 181,300.4 181.3,299.9 C182,299 182.6,298.1 183.4,297.3 C186.3,294.4 188,291.1 188.7,287.4 C189,285.7 189.2,284.1 189.5,282.3 C189.6,281.5 189.7,280.8 189.8,280 L189.9,279.5 L190.4,279.7 C191,280 191.6,280.3 192.2,280.6 C193.4,281.3 194.6,281.9 195.8,282.2 C198.5,282.9 201.3,283.4 204,283.9 L205.9,284.2 C208.1,284.6 210.3,284.9 212.4,285.2 C212.8,285.2 213.1,285.2 213.5,285.1 C213.9,285 214.3,285 214.7,285 C219,285.3 223.2,284.1 227.1,282.9 C227.3,282.9 227.4,282.8 227.6,282.8 L228.3,282.7 L228.4,283 C228.6,283.9 228.9,284.8 229.1,285.7 C229.6,287.7 230.1,289.8 230.8,291.7 C231.5,293.6 232.5,295.5 233.5,297.3 C233.9,298.1 234.4,298.9 234.8,299.7 L234.9,299.9 L234.8,300.1 C233.7,301.7 232.1,302.2 230.5,302.6 C228.3,303.2 226.1,303.6 224,304.1 C220.4,304.9 215.5,305.8 210.6,306 C209.7,306 208.8,306 208,306 C205.8,306 203.5,305.9 201.3,305.9 C200.4,305.9 199.4,305.8 198.5,305.8 C197.1,305.8 195.7,305.7 194.1,305.5 C189,305 184.7,303.8 180.6,301.7 L180.2,301.5 L180.3,301.3 Z M226.7,312.7 C228.5,312.5 230.3,312.1 232,311.7 C232.6,311.6 233.2,311.4 233.8,311.3 C234.1,311.2 234.5,311.1 234.9,310.9 C235.1,310.8 235.4,310.7 235.7,310.6 L236.2,310.4 L236.2,312.1 C236.2,312.9 236.2,313.6 236.2,314.3 L236.2,316.3 C236.2,319 236.1,321.9 236,324.7 C236,325.9 235.8,327.1 235.5,328.1 C235.3,328.7 235.2,329.4 235,330 C234.5,331.9 234.1,333.9 232.9,335.7 C231.4,337.9 229.4,340.3 226.1,341.1 C221,342.4 215.8,343 210.5,343 C209.6,343 208.7,343 207.9,342.9 C201.9,342.7 197.4,341.9 193.3,340.3 C190.5,339.2 188.6,337.5 187.5,335.1 C186.5,333 185.7,330.7 184.8,328.1 L184.5,327.2 C183.1,323.1 181.7,318.8 180.6,314.6 C179.8,311.7 179.6,309 179.8,306.1 L179.8,305.6 L180.3,305.7 C188.6,308.2 197.1,309.5 205.5,309.5 C215.3,309.5 225.3,307.8 235.5,304.4 L235.9,304.2 L236.4,307.9 L236.1,308 C235.4,308.2 234.7,308.4 234,308.5 C232.5,308.9 231,309.3 229.5,309.6 C228.1,309.9 226.6,310 225.2,310.2 C224.7,310.3 224.2,310.3 223.7,310.4 C223.7,312.1 224.8,312.9 226.7,312.7 Z" id="Shape"></path>
                <path d="M245.5,128 C245.5,127.3 245.4,126.5 245.3,125.8 C245.2,124.9 245.1,124 245.1,123.1 C244.9,119.7 244.8,116.2 244.7,112.8 L244.5,107.5 C244.5,107.3 244.5,107.1 244.4,107 C244.2,106.7 243.9,106.5 243.7,106.2 C243.7,106.2 243.7,106.2 243.6,106.1 C243.6,106.1 243.5,106.2 243.5,106.2 C243.2,106.5 242.9,106.8 242.7,107.1 C242.7,107.2 242.7,107.4 242.7,107.5 C242.7,107.7 242.8,107.8 242.8,108 C242.8,109.3 242.8,110.5 242.8,111.8 L242.8,113.4 L242.7,113.4 L243,117 C243.4,121.2 243.7,125.4 244.1,129.6 L244.1,130 C244.1,130.6 244.2,131.2 244.3,131.8 L244.4,132 C244.5,132.6 244.6,132.8 245,132.8 L245,133.2 L245.1,132.8 C245.6,132.8 245.7,132.6 245.7,131.7 L245.7,130.9 C245.6,130 245.6,129 245.5,128 Z" id="Shape"></path>
                <path d="M276.5,137 C276.3,136.9 276.2,136.9 276.1,136.8 C275.7,136.9 275.3,137 274.9,137 C274.1,137.2 273.4,137.3 272.7,137.5 L271.8,137.7 C269.1,138.4 266.2,139 263.4,139.8 C262,140.2 260.7,140.6 259.5,141.2 C258.8,141.5 258.2,142.3 258.2,142.7 C258.2,142.7 258.2,142.8 258.2,142.9 C258.6,143.2 259.3,143.4 260,143.6 C260.2,143.6 260.4,143.7 260.6,143.8 C260.6,143.8 260.7,143.8 260.7,143.7 C260.8,143.6 260.9,143.6 261,143.6 C261.6,143.4 262.2,143.3 262.8,143.1 C263.9,142.8 265,142.5 266.1,142.2 C269.4,141.2 272.7,140.2 276,139.1 C277.4,138.6 277.5,138.2 277.4,137.8 C277.3,137.4 276.7,137.2 276.5,137 Z" id="Shape"></path>
                <path d="M279.9,128.7 C277.8,129.4 275.7,130 273.6,130.7 C271.5,131.3 269.3,132 267.2,132.6 L265.1,133.2 C264.9,133.3 264.7,133.3 264.6,133.3 C264.3,133.4 264.1,133.4 263.9,133.5 C263.2,133.8 262.7,134.9 262.9,135.4 C263.2,136 263.7,136.2 264.5,136.1 L264.7,136.1 C265.1,136 265.5,136 265.9,135.8 L267.6,135.2 C271.4,133.9 275.3,132.5 279.2,131.1 C280,130.8 280.8,130.3 281.5,129.8 L281.8,129.6 C282.3,129.3 282.6,128.9 282.3,128.1 L279.9,128.7 Z" id="Shape"></path>
                <path d="M253.6,103.6 C253.4,101.7 253.3,99.7 253.1,97.8 C253,96.2 253,96.1 251.1,95.8 C251.1,95.9 251,96.1 251,96.2 C250.9,96.8 250.8,97.3 250.8,97.8 C251,102.7 251.3,106.9 251.6,110.8 C251.7,112 251.9,113.2 252.1,114.3 C252.2,114.7 252.2,115.2 252.3,115.6 C253.5,115.5 253.8,114.9 253.9,114.4 C254.1,113.5 254.2,112.4 254.2,111.2 C254.1,108.7 253.9,106.2 253.6,103.6 Z" id="Shape"></path>
                <path d="M249.6,114.4 C249.3,110.7 248.9,106.8 248.5,103.2 L248.5,102.8 C248.5,102.3 248.3,102 248.2,101.8 C247.9,101.5 247.5,101.3 247.2,101.3 C247.1,101.3 246.9,101.7 246.8,101.9 C246.7,102.2 246.7,102.5 246.8,102.9 L246.9,104.6 C247,106.3 247.2,108.1 247.3,109.8 C247.7,113.8 248.2,117.8 248.7,121.8 C248.8,122.2 248.9,122.6 249.1,123.1 C249.1,123.2 249.2,123.3 249.2,123.4 C250,122.5 250,122.4 250,121.5 C250,119 249.8,116.6 249.6,114.4 Z" id="Shape"></path>
                <path d="M272.8,144 C272.2,143.9 271.4,143.7 270.6,143.7 C270.4,143.7 270.1,143.7 269.9,143.7 C267.9,144 265.9,144.4 263.9,144.8 L262.1,145.2 C261.4,145.3 260.8,145.4 260.2,145.7 C259.6,145.9 258.7,147.7 258.9,148.1 C259.1,148.7 260,149 260.8,148.8 C262.1,148.5 263.5,148.1 264.8,147.8 C267,147.2 269.2,146.7 271.5,146.1 C272.1,146 272.6,145.7 273.2,145.4 C273.3,145.3 273.4,145.2 273.5,145 C273.5,144.9 273.6,144.9 273.6,144.8 C273.5,144.7 273.5,144.7 273.4,144.6 C273.2,144.3 273,144 272.8,144 Z" id="Shape"></path>
                <path d="M313.2,86.9 C310.3,86.9 307.3,87 304.4,87.1 C302.4,87.2 302.3,87.2 301.9,89.4 C302.6,89.9 303.3,90 304.2,89.9 C305.8,89.7 307.4,89.5 309,89.4 C310.4,89.3 311.8,89.2 313.2,89 C314.2,88.9 315.3,88.5 316.3,88.2 L316.7,88 C316.8,88 317,87.7 317,87.6 C316.9,87.4 316.7,87.1 316.4,87.1 C315.9,87 315.4,86.9 314.7,86.9 L313.2,86.9 Z" id="Shape"></path>
                <path d="M257.8,97.8 C257.6,96.6 257.1,96 256.7,96 C256.7,96 256.6,96 256.6,96 C255.9,96.3 255.7,96.8 255.8,98 C256.2,100.9 256.5,103.7 256.9,106.6 L257.3,109.4 C258.7,109.4 258.7,109.3 259,107.9 C259.5,105.2 258.9,102.6 258.4,100.1 C258.1,99.3 257.9,98.5 257.8,97.8 Z" id="Shape"></path>
                <path d="M263.5,150.5 C261.6,150.8 259.9,151 258.2,151.3 C257.7,151.4 257.4,151.5 257.1,151.7 C256.4,152.2 256.1,152.8 256.2,153.6 C256.3,154.1 256.5,154.2 257.2,154.2 C257.3,154.2 257.4,154.2 257.5,154.2 C260.5,154.5 263.3,153.3 265.8,152.2 C266.1,152.1 266.3,151.6 266.6,151.2 C266.7,151.1 266.7,151 266.8,150.9 L265.4,150.2 L263.5,150.5 Z" id="Shape"></path>
                <path d="M264.6,89.8 C264.5,89 264.4,88.7 264.3,88.6 C263.9,88.2 263.4,88 263,88 C262.7,88 262.7,88.1 262.6,88.2 C262.5,88.4 262.4,88.7 262.4,89.1 C262.6,91.3 262.8,93.6 263,95.8 L263.3,99.4 C263.4,100.1 263.4,100.5 264,100.7 C264.6,100 264.9,99 264.9,97.5 C264.9,95.2 264.7,92.8 264.6,90.6 L264.6,89.8 Z" id="Shape"></path>
                <path d="M212.3,312.7 C211.3,312.7 210.4,312.7 209.4,312.8 C207.7,312.8 206,312.9 204.3,312.8 C201,312.7 197.7,312.6 194.4,312.3 C192.3,312.1 190.2,311.5 188.1,310.9 C187,310.6 185.9,310.1 184.9,309.7 C184.4,309.5 183.9,309.3 183.4,309.1 C183.2,309 183,309 182.8,309 C182.5,309 182.1,309.1 181.7,309.7 C181.9,309.9 182.1,310.1 182.3,310.3 C182.9,310.9 183.5,311.4 184.2,311.7 C188,313.3 191.4,314.7 195.2,315.1 C195.7,315.2 196.2,315.3 196.7,315.3 C197.4,315.4 198.1,315.6 198.8,315.6 L198.8,316 L198.8,315.6 C203.3,315.6 207.9,315.4 212,315.3 C212.4,315.3 212.8,315.2 213.2,315.1 C213.3,315.1 213.4,315 213.5,315 C213.5,314 213.3,313.4 213,313.1 C212.9,312.8 212.7,312.7 212.3,312.7 Z" id="Shape"></path>
                <path d="M183.1,206.3 C183.1,205.5 183.1,204.7 183.1,203.9 C183.1,202.9 183,201.9 182.9,201 C182.8,200 182.7,198.9 182.5,197.9 C182.1,194.7 181.8,191.3 181.3,188 C181.2,187.1 181,186.1 180.9,185.2 C180.5,182 180.1,178.7 178.9,175.7 C178.5,174.6 178.2,173.5 178,172.5 C177.7,171.3 177.4,170 176.9,168.8 C174.9,163.9 172.8,158.7 171.3,153.1 C170.8,151.3 169.9,149.6 169.1,147.9 C168.9,147.5 168.7,147 168.5,146.6 C168.2,145.9 167.8,145.3 167.4,144.6 C166.4,142.8 165.3,140.9 165.1,138.6 C165,137 164.1,136.3 162.2,136.3 C160.6,136.2 159.2,136.6 157.7,137 C156.8,137.2 156,137.4 155.1,137.6 C154.8,137.6 154.4,137.7 154,137.8 L152.1,138.1 L152.6,137.3 C153.2,136.3 154,135.5 154.6,134.8 C155.2,134.2 155.7,133.5 156.2,132.9 C156.7,132 157.5,131.3 158.3,130.6 C158.6,130.4 158.8,130.1 159.1,129.9 C159.6,129.4 159.8,128.9 159.7,128.4 C159.6,128 159.4,127.8 159,127.6 L158.6,127.4 C157.6,126.9 156.6,126.4 155.5,126.4 C154.8,126.4 154.2,126.6 153.6,127 C153,127.4 152.4,127.7 151.7,128 C151.3,128.1 150.9,128.3 150.5,128.4 C148.8,129 147.1,129.7 145,129.5 L144.3,129.5 L144.7,128.9 C147.2,125.3 150.4,122.6 153.4,119.9 C154.4,119 155.4,118.2 156.4,117.3 L157,116.8 L157.1,118.1 C157.4,117.5 157.7,117.1 157.9,116.7 C158.8,114.9 158.7,113.9 157.4,112.4 C156.6,111.5 156,110.5 155.7,109.6 C154.7,106.9 153.7,104.1 152.6,100.6 C152.2,99.2 151.7,97.9 151.7,96.6 C151.7,95.5 151.3,94.7 150.3,93.9 C149.4,93.2 148.3,93 146.9,93.1 C146.4,93.2 145.8,93.2 145.3,93.2 L144.2,93.3 L144,92.3 L145.3,91.1 C146.1,90.3 146.9,89.6 147.7,88.8 C148.7,87.9 148.8,87.1 148.1,86.1 C146.6,83.9 145.8,81.3 145.1,78.9 L144.9,78.3 C144.2,76.2 143.3,74.1 142.4,72.1 C141.7,70.7 141.1,69.2 140.5,67.7 C140.1,66.7 139.6,65.8 139,64.8 C138.6,64.2 138.2,63.5 137.8,62.8 C136.4,59.9 134.4,59.3 131.6,60.6 C129.3,61.7 126.9,61.7 124.6,61.7 C124.1,61.7 123.6,61.7 123.1,61.7 L122.2,61.7 L122.7,61 C123.4,60.1 124.2,59.2 125.3,58.4 C126,57.8 126.7,57.3 127.4,56.8 C128.2,56.2 129,55.6 129.8,54.9 C130.4,54.4 130.7,53.9 130.6,53.4 C130.5,52.9 130.2,52.5 129.6,52.2 C129.1,51.9 128.4,51.8 127.7,51.7 C127.5,51.7 127.3,51.6 127.1,51.6 C126.8,51.5 126.5,51.5 126.2,51.5 C126,51.5 125.9,51.5 125.7,51.5 L125.5,51.5 L125.1,50.6 L125.3,50.4 C125.5,50.2 125.8,50 126,49.7 C126.5,49.2 127,48.7 127.6,48.3 C128.4,47.7 129.3,47.1 130.1,46.5 C131.5,45.5 133,44.5 134.3,43.4 C135.4,42.4 136.6,42.1 138.1,42.3 C138.7,42.4 139.2,42.4 139.8,42.5 C141.4,42.7 143,42.9 144.5,42.9 C147.1,42.9 149.2,42.4 151,41.2 C151.3,41 151.7,41 152,40.9 C152.2,40.9 152.4,40.8 152.6,40.8 C153.7,40.4 154.3,39.8 154.4,38.9 C155.5,33.4 155.6,28.6 154.8,24.2 C154.7,23.7 154.6,23.2 154.5,22.6 C154.3,21.6 154,20.5 154,19.5 C153.7,16.1 152.5,15.1 149.2,15.3 C148.2,15.4 147.1,15.3 146.1,15.3 C145.6,15.3 145.2,15.3 144.7,15.3 L144.4,15.3 L143.8,11 L144.2,11 C144.6,11 144.9,10.9 145.3,10.9 C146.1,10.8 146.9,10.7 147.5,10.9 C148.1,11 148.6,10.9 148.9,10.5 C149.2,10.2 149.4,9.6 149.3,9.1 C149.2,7.5 146.8,3.8 145.3,3.4 C143.8,2.9 142.1,2.6 140.3,2.4 C139,2.2 137.7,2.1 136.5,2 C135.2,1.9 133.8,1.8 132.4,1.6 C125.6,0.7 118.6,0.2 111.5,0.3 C108.8,0.3 106.1,0.4 103.4,0.5 C98.5,0.6 93.5,0.8 88.6,0.7 C84.5,0.6 80.4,1.1 76.4,1.5 C74.3,1.7 72.1,2 69.9,2.1 C68,2.2 66,2.4 64.1,2.6 C61,2.9 57.7,3.3 54.5,3.3 C47.5,3.4 40.6,4.5 33.5,5.7 C29.9,6.3 26.5,7.2 23.6,7.9 C21.1,8.6 18.5,9.4 16.1,10.2 L14.3,10.8 C13.3,11.1 12.7,11.4 12.7,12.2 C12.7,13.3 12.1,13.8 11.5,14.3 C11.4,14.4 11.3,14.5 11.1,14.6 C10.6,15.1 10.2,15.5 9.7,16 C8.3,17.3 6.9,18.7 5.7,20.3 C3.2,23.7 1.7,27.3 1,31.4 C0.4,35.1 -0.1,39.5 0.4,44.1 C0.4,44.4 0.5,44.8 0.6,45.1 C0.7,45.6 0.8,46.1 0.8,46.6 C0.8,49.7 1.4,52.9 2.5,56.7 C2.8,57.7 3,58.7 3.2,59.8 C3.6,61.5 3.9,63.2 4.6,64.8 C5.6,67.2 6.3,69.6 7,72 L7.3,73.2 C9.7,81.1 11.9,88.8 14.1,96.6 C14.3,97.5 14.6,98.3 14.9,99.2 C15.7,101.8 16.5,104.4 16.7,107.2 C16.8,108.6 18.2,109.4 19.5,109.4 C19.8,109.4 20.1,109.4 20.3,109.3 C21.1,109.1 21.8,109 22.8,108.9 C25.2,108.6 27.6,108.4 30,108.2 C30.2,108.2 30.3,108.2 30.5,108.2 L30.9,108.2 C31.1,108.2 31.3,108.2 31.5,108.2 L32.3,108.2 L31.8,108.9 C30.8,110.1 29.7,110.5 28.6,111 C28.4,111.1 28.2,111.2 28.1,111.2 C27.2,111.6 26.8,112.1 26.8,112.8 C26.8,113.9 27.3,114.5 28.2,114.9 C28.7,115.1 29.2,115.3 29.8,115.5 L31.4,116.1 L30.9,116.6 C30.5,117 30.1,117.3 29.7,117.7 C28.9,118.4 28.1,119.1 27.4,119.8 C27,120.2 26.5,120.6 26,121 C25.2,121.7 24.4,122.3 23.8,123.1 C23.3,123.8 23.1,124.6 22.9,125.4 C22.7,126 22.6,126.6 22.3,127.2 C21.8,128.2 22,128.8 22.9,129.7 C23.7,130.5 24.4,131.3 25.1,132 C26.9,134.1 28,136.6 29,139.1 C29.6,140.6 30.3,142.1 31.1,143.5 C32.4,145.8 33.4,148.2 34.4,150.6 C35.1,152.3 35.8,154 36.6,155.6 C39,160.5 41.5,165.3 44,170 L44.9,171.6 C45.2,172.1 45.7,172.8 46.2,173 C48.5,173.9 50,174 51.6,173.4 C52.8,172.9 54,172.9 55,173.3 L55.7,173.6 L55.1,174 C54.4,174.5 53.6,174.8 53,175 C52.7,175.1 52.4,175.2 52.1,175.3 C51.7,175.4 51.2,175.5 50.9,175.7 C50,176.1 49.5,176.6 49.3,177.3 C49.1,178 49.3,178.7 49.9,179.5 C50,179.7 50.2,179.9 50.3,180.1 C50.6,180.5 50.9,180.8 51.1,181.3 C52.6,184.8 54,188.4 55.5,192.2 C55.7,192.6 55.7,193 55.8,193.4 C55.9,193.9 56,194.3 56.2,194.7 C56.8,195.8 56.9,197 57.1,198 C57.1,198.3 57.2,198.7 57.2,199 L57.3,199.4 L57,199.5 C56.2,199.7 55.5,199.9 54.8,200.2 C53.2,200.7 51.7,201.1 50.2,201.4 C46.3,202.2 43,202.7 39.9,203 C37.9,203.2 35.9,203.4 33.9,203.4 C32.7,203.4 31.7,203.3 30.7,203.2 C30,203.1 29.4,203.1 28.8,203.1 C26.8,203.1 25.2,203.6 23.7,204.7 C21.3,206.5 19.9,208.6 19.5,211.3 L19.2,212.9 C18.9,214.8 18.6,216.7 18.3,218.6 C17.6,223.7 18.5,228.1 21.2,232.1 C21.5,232.6 21.9,233.1 22.3,233.6 C23.2,234.7 24,235.8 24.5,237.3 C24.8,238.1 25.7,238.6 26.9,238.5 C27.3,238.5 27.7,238.4 28.1,238.3 C28.6,238.2 29.1,238.1 29.6,238.1 C34.4,237.9 39.4,237.8 45,237.6 C45,237.6 45,237.6 45,237.6 C45.4,237.6 45.7,237.7 46,237.8 C46.1,237.8 46.3,237.9 46.4,237.9 L46.8,238 L46.7,238.4 C46.3,240.1 45,240.5 43.9,240.9 L43.7,241 C42.7,241.3 41.7,241.5 40.7,241.7 C40.1,241.8 39.5,241.9 38.9,242.1 L38.7,242.2 C37.7,242.4 37.1,242.6 37,243.5 C36.8,244.4 37.4,245.5 38.3,246 C41.4,247.7 44.3,248.5 47.2,248.5 C49.8,248.5 52.4,248.7 55.4,249.1 C60.3,249.7 65.2,249.4 69.8,248.1 C70.3,247.9 70.9,247.8 71.4,247.7 C72.5,247.4 73.5,247.1 74.6,246.8 C75.6,246.5 76.6,246.2 77.6,245.9 C80.2,245.1 83,244.4 85.5,243.4 C87,242.8 88.5,242 90,241.2 C91,240.6 92.1,240.1 93.1,239.6 L93.3,239.5 C96.9,237.8 100.7,236 104.5,234.5 C109.7,232.5 115.6,231.3 123,230.9 C124.5,230.8 126.1,230.8 127.8,230.8 C133.6,230.8 139.2,231.3 145.9,232 C151.2,232.5 156.6,232.6 163,232.2 C163.5,232.2 164,232.1 164.5,232.1 C165.9,232 167.4,232 168.8,231.7 C169.4,231.6 170,231.4 170.6,231.2 C171.2,231 171.8,230.8 172.4,230.6 C176,229.9 178.7,228 180.9,224.6 C181.1,224.2 181.2,223.7 181.3,223.3 C181.5,222.5 181.6,221.7 181.8,220.8 L181.9,220.2 C182,219.7 182.1,219.1 182.2,218.6 C182.4,217.4 182.7,216.2 182.7,215 C183.1,211.5 183.1,208.8 183.1,206.3 Z M23.7,10.9 C25.2,9.9 27,9.5 28.8,9.1 L29.6,8.9 C34.9,7.7 39.3,6.9 43.4,6.3 C47.3,5.7 51.3,5.6 54.3,5.5 C60.1,5.3 65.9,4.7 71.5,4.2 C72.8,4.1 74.1,3.9 75.4,3.8 C79.1,3.4 82.9,3.3 86.6,3.2 C87.5,3.2 88.4,3.2 89.3,3.1 C92.9,3 96.8,2.9 100.7,3 L103.1,3 C110.6,3.1 118.4,3.3 126.1,3.7 C129.7,3.9 133.4,4.4 136.9,4.8 C138,5 139.2,5.1 140.3,5.2 C141,5.3 141.6,5.5 142.3,5.8 C142.6,5.9 143,6.1 143.4,6.2 L144,6.4 L143.6,6.9 C143.4,7.1 143.3,7.2 143.2,7.4 C143,7.7 142.8,7.9 142.5,8 C140.6,8.7 138.9,9.9 137.2,11 C136.6,11.4 136,11.8 135.4,12.2 C134.2,12.9 133,13.6 131.8,14.2 C131.3,14.5 130.7,14.8 130.2,15 C130.1,15.1 129.9,15.1 129.8,15.2 C129.5,15.3 129.3,15.4 129.1,15.6 C128.7,15.9 128.5,16.3 128.5,16.7 C128.5,17.1 128.7,17.5 129,18 C130.1,19.2 131.4,19.7 133.3,19.7 C133.6,19.7 134,19.7 134.3,19.7 C135,19.6 135.7,19.5 136.3,19.5 C136.8,19.4 137.3,19.4 137.8,19.3 C138,19.3 138.2,19.2 138.4,19.2 C139,19.1 139.7,19 140.2,19.2 C141.5,19.6 143.1,19.4 144.6,19.1 C145,19 145.3,19 145.7,18.9 C146.3,18.8 146.7,18.8 147.1,18.8 C148.7,18.8 149.2,19.7 149.7,21.5 L149.9,22.2 C150.2,23.2 150.4,24.2 150.7,25.2 C151.2,27 151.1,28.8 150.9,30.3 C150.7,31.6 150.7,32.8 150.6,34.2 C150.6,34.8 150.6,35.4 150.5,36 L150.5,36.4 L149.9,36.4 C148.6,36.4 147.8,36.6 147.3,37.8 C147,38.4 146.1,38.7 145.3,38.9 L145.1,39 C144,39.3 142.9,39.4 141.6,39.4 C140.3,39.4 138.9,39.3 137.5,39.1 L136.1,38.9 C134,38.6 131.8,38.4 129.7,38.2 C126,37.9 122.2,37.6 118.5,37.3 L116,37.1 C111.6,36.7 106.9,36.9 102.1,37.6 C99.2,38 96.2,38.2 93.4,38.5 C92.5,38.6 91.7,38.6 90.8,38.7 C85.5,39.2 79.8,40.2 73.3,41.8 L71.4,42.3 C67.5,43.3 63.4,44.3 59.6,45.5 C56.5,46.5 53.5,47.7 50.5,48.9 C49,49.5 47.6,50.1 46.1,50.6 C44.5,51.2 42.9,51.8 41.2,52.4 L38,53.6 L38.3,52.8 C38.6,51.9 39,51 39.3,50.1 C40,48.2 40.7,46.5 41,44.7 C41.5,42.1 41.6,39.5 41.7,36.9 C41.7,36.2 41.8,35.6 41.8,34.9 C41.8,34.3 41.8,33.7 41.7,33 C41.6,32.3 41.5,31.5 41.6,30.8 C41.9,27.9 40.9,25 38.8,22.2 C36.7,19.4 34.2,17 31.7,15.3 C30.2,14.2 28.3,13.6 26.4,12.9 C25.6,12.6 24.7,12.3 23.9,12 L23.2,11.7 L23.7,10.9 Z M141.1,15 C140.7,15.2 140.3,15.4 139.8,15.5 L139.1,15.8 L138.7,14.6 L141,13.2 L141.1,13.8 C141.1,13.9 141.2,14.1 141.2,14.2 C141.4,14.6 141.4,14.9 141.1,15 Z M27.1,33.7 C26,33.9 25,34.1 23.9,34.3 C22.4,34.6 21.9,35.1 21.8,36.4 C21.6,38.7 22.1,40.3 23.3,41.6 C23.4,41.7 23.4,41.7 23.5,41.8 C23.7,41.9 23.9,42.1 24,42.3 C24.8,43.7 25.8,44.3 27.2,44.3 C28.1,44.3 29.1,44 29.8,43.8 C31.2,43.4 32.6,43 34.1,42.6 L36.9,41.8 L36.8,42.4 C36.7,42.8 36.7,43.2 36.6,43.5 C36.5,44.3 36.4,45.1 36,45.8 C35,47.8 33.9,49.9 32.6,52.1 C32,53.1 30.4,53.6 29.1,53.6 C28.4,53.6 27.7,53.5 27.1,53.2 L26.7,53 C25.5,52.4 24.3,51.9 23.5,50.6 C23.2,50.1 22.7,49.8 22.1,49.4 C21.8,49.2 21.4,48.9 21.1,48.7 C19,46.9 17.8,44.4 17.4,41.6 C17,38.4 17,34.7 19.6,31.7 C20.8,30.3 22.4,29.6 24.1,29.6 C25.8,29.6 27.4,30.4 28.6,31.7 C28.8,31.9 28.8,32.1 28.9,32.4 C28.9,32.5 29,32.7 29,32.8 L29.1,33.2 L27.1,33.7 Z M29.4,36 L29.4,36.5 C29.3,38.3 29.1,39.8 27.2,41 L26.9,41.2 L23.9,37.2 L29.4,36 Z M36.8,39.4 L36.7,39.7 L32.9,39.9 L32.9,39.4 C32.9,38.8 33,38.3 33.1,37.7 C33.2,36.5 33.4,35.4 33.3,34.3 C33.2,33.2 32.8,32.1 32.3,30.9 C32.1,30.3 31.9,29.8 31.7,29.2 L31.6,28.8 L36.9,28 L36.9,28.5 C36.8,29.9 37,31.2 37.1,32.6 C37.3,34.7 37.5,37 36.8,39.4 Z M38.1,205.9 C39.6,205.7 41.1,205.5 42.5,205.3 C47.9,204.6 52.9,204 57.5,201.2 L57.8,201 L58,201.3 C59.6,203.9 61,214.9 60.1,217.8 L60,218 L56.8,218.6 C54.5,219 52.3,219.4 50,219.8 C48.8,220 47.7,220.3 46.5,220.6 C44.5,221.2 42.5,221.7 40.1,221.7 L39.6,221.7 L39.7,221.2 C40.5,218.3 40.9,215.8 40.2,213.4 C39.8,211.8 39.1,210.2 38.4,208.5 C38.1,207.8 37.8,207 37.5,206.3 L37.3,205.8 L38.1,205.9 Z M23.7,215.4 C23.9,213.5 24.1,211.4 25.1,209.3 C26.1,207.1 28.5,205.9 30.7,206.4 C31.5,206.6 32.3,207.1 32.8,207.6 C33.3,208.2 33.7,208.9 34,209.5 L34.2,210 C34.5,210.5 34.7,211 34.9,211.6 C35,211.9 35.2,212.2 35.3,212.6 L35.5,213 L23.5,215.8 L23.7,215.4 Z M36.2,217.9 L35.7,219.1 C35.4,219.9 35,220.6 34.6,221.4 C34.2,222.3 33.5,222.7 32.5,222.7 C32.2,222.7 32,222.7 31.7,222.6 C30.2,222.3 30.1,220.9 30.1,220.1 C30.1,219.6 30.5,218.7 31,218.5 C32,218.1 33,217.8 34.1,217.4 C34.5,217.3 34.9,217.2 35.2,217 L35.5,216.9 L36.2,217.9 Z M60,233 C60,233.1 60,233.3 60,233.5 C60,233.7 60,233.9 60,234.1 C59.9,234.6 59.8,235.1 59.8,235.6 C59.6,236.8 59.4,238.1 59,239.2 C57.5,242.9 55.3,244.4 51.3,244.4 C51.1,244.4 51,244.4 50.8,244.4 C50.1,244.4 49.5,244.3 48.7,244.3 L46.4,244.2 L47.2,243.5 C47.9,242.9 48.6,242.3 49.2,241.8 C50.6,240.6 51.9,239.4 53.3,238.4 C54,237.8 54.4,237.4 54.4,237 C54.4,236.6 54.1,236.2 53.5,235.7 C52.5,234.9 51.3,234.6 50,234.3 C48.5,234 46.9,233.8 45.1,233.8 C43.3,233.8 41.6,234 39.8,234.1 C38.5,234.2 37.2,234.3 35.9,234.4 C34,234.5 32,234.4 30.2,234.1 C29.5,234 28.8,233.5 28,232.6 C27.1,231.7 26.2,230.6 25.6,229.5 C24.4,227.1 23.1,224.4 23.1,221.4 C23.1,220.7 23.4,220.1 23.9,219.5 L24.3,219 L24.6,219.6 C24.8,220 24.9,220.4 25.1,220.8 C25.5,221.7 25.9,222.6 26.1,223.6 C26.5,225.2 27.6,225.9 29.1,226.3 C31.7,227.1 34.1,227.1 36.5,226.5 C39.5,225.7 42.5,225.1 45.5,224.5 C46.3,224.3 47.2,224.2 48,224 C51.4,223.3 54.9,222.6 58.2,222 C58.6,221.9 59.1,222 59.5,222 C59.7,222 59.9,222 60.1,222.1 L60.4,222.1 L60.5,222.4 C60.5,222.6 60.6,222.7 60.6,222.9 C60.7,223.3 60.8,223.6 60.8,223.9 C60.7,225 60.7,226.1 60.8,227.1 C60.9,228.9 61,231 60,233 Z M177.8,202.4 L177.8,204.9 C177.8,208.3 177.7,211.8 177.6,215.2 C177.5,216.4 177.2,217.6 176.9,218.7 C176.8,219 176.7,219.4 176.6,219.7 C175.9,222.3 174.3,224.1 171.7,225.1 C169,226.2 166.1,227.3 162.8,227.3 C162,227.3 161.2,227.3 160.5,227.3 C159.1,227.3 157.7,227.4 156.3,227.4 C152.9,227.4 150.3,227.2 147.8,226.9 C146.3,226.7 144.7,226.7 142.9,226.7 L142.5,226.7 C141.9,226.7 141.3,226.7 140.7,226.7 C138.9,226.7 137.2,226.6 135.4,226.5 C132.5,226.4 129.4,226.3 126.4,226.3 C125,226.3 123.6,226.3 122.4,226.4 C118.7,226.5 114.9,227.2 111.3,227.7 C110.4,227.8 109.5,228 108.5,228.1 C107.1,228.3 105.8,228.7 104.4,229.1 C103.8,229.3 103.2,229.4 102.6,229.6 C102.3,229.7 102,229.7 101.8,229.9 C100.3,230.6 98.8,231.3 97.3,232 C93.8,233.6 90.1,235.3 86.7,237.1 C83,239.1 78.9,240.9 74.1,242.4 C71.4,243.3 68.5,243.9 65.8,244.6 L65.1,244.8 C64.4,245 63.6,245 62.9,245 C62.6,245 62.3,245 62,245 L61.2,245.1 L61.6,244.4 C64.7,239.5 65.1,234.1 65.4,229.3 C65.7,224.3 65.6,219.2 65.4,214.9 C65.3,212 64.9,209.1 64.6,206.3 L64.5,205.5 C64,202 63.2,198.6 62.3,195.2 C62,194.2 61.8,193.2 61.5,192.1 C60.4,187.8 58.6,183.7 56.9,180 C56.1,178.3 56.4,178 57.8,177 C62,174 66.1,172 70.1,170.7 C71,170.4 71.4,170.1 71.3,169.4 C71.2,168.4 71.1,167.7 70.2,167.3 C68.7,166.7 67.3,166.4 65.8,167.2 C64.4,168 62.5,168.2 60.8,168.4 C58.6,168.6 56.4,168.7 54.3,168.7 C53.4,168.7 52.6,168.8 51.7,168.8 L51.6,168.8 C50.8,168.8 50.1,168.5 49.5,167.7 C47.8,165.5 46.3,162.9 45,159.8 C44.8,159.4 44.6,159 44.3,158.5 C44.2,158.3 44,158 43.9,157.8 C43.4,156.9 43,156.1 42.5,155.2 C41.4,153.3 40.3,151.3 39.5,149.3 C37.6,144.7 35.5,140.2 33.1,135.9 C32.7,135.3 32.4,134.6 32.2,134 C31.3,131.3 29.6,129 27,126.6 L26.7,126.4 L26.9,126.1 C28.8,123.6 30.8,121 33.6,119.1 C34.6,118.4 35.6,117.6 36.6,116.9 C37.1,116.5 37.6,116.1 38.1,115.8 C39.1,115.1 39.4,114.4 39,113.6 C38.6,112.5 37.8,112 36.8,112 C36.5,112 36.2,112 35.8,112 L34.5,111.9 L34.9,111.3 C35.9,109.8 37.2,108.9 38.5,108 C38.9,107.7 39.3,107.5 39.7,107.3 C40,107.1 40.4,106.9 40.7,106.7 C42.4,105.5 42.3,104.7 42,104 C41.6,103.1 40,102.3 38.8,102.4 C38.6,102.4 38.4,102.5 38.3,102.5 C36.4,103.5 34.4,103.6 32.5,103.8 C31.9,103.8 31.4,103.9 30.8,103.9 C30.1,104 29.4,104.1 28.7,104.2 C28,104.3 27.3,104.4 26.5,104.5 C25.6,104.6 24.9,104.6 24.2,104.6 C22.4,104.5 21.2,103.6 20.8,102 C20.3,100 19.7,98 19.2,96 C18.7,94.2 18.3,92.5 17.8,90.7 C17.6,90 17.4,89.3 17.2,88.6 C17,87.9 16.7,87.1 16.5,86.4 C16.1,84.8 15.7,83.3 15.3,81.7 C14.6,79 13.9,76.2 13.2,73.5 C12.6,71.6 11.9,69.6 11.2,67.8 C10.9,67 10.6,66.1 10.3,65.3 C10.2,65.1 10.1,64.9 10.1,64.7 C10,64.3 9.8,64 9.7,63.6 C9.1,61.4 8.4,59.3 7.8,57.1 L7.5,56 C6.6,52.8 6.1,49.8 5.9,46.6 C5.9,45.7 5.7,44.8 5.5,43.9 C5.3,42.8 5.1,41.7 5.1,40.6 C5.1,36.1 5.3,31.4 7.1,26.9 C8.8,22.5 11.6,19 15.4,16.3 C17.6,14.8 20.3,14.3 22.9,15.1 C24,15.4 25.2,15.8 26.8,16.4 C29.2,17.3 30.7,19.1 32.2,20.9 C32.6,21.3 32.9,21.8 33.3,22.2 C33.8,22.8 34.2,23.4 34.7,24.1 C34.9,24.4 35.1,24.7 35.4,25 L35.7,25.4 L35.3,25.6 C34.1,26.3 33,26.3 32,26.2 C31.7,26.2 31.3,26.2 31,26.2 C30.4,26.2 29.8,26.3 29.1,26.3 C28.6,26.3 28.1,26.4 27.6,26.4 L27.1,26.4 C26.5,26.4 25.9,26.5 25.3,26.4 C24.9,26.4 24.5,26.3 24.1,26.3 C22.7,26.3 21.5,26.6 20.6,27.3 C20.2,27.6 19.7,27.9 19.2,28.1 C18.5,28.5 17.9,28.8 17.4,29.3 C14.2,31.9 13.7,35.6 13.4,39.9 C13.4,40.2 13.4,40.4 13.3,40.7 C13.2,42 13.1,43.3 13.5,44.6 C14.2,46.7 15.6,48.3 16.9,49.9 L17.5,50.7 C18.3,51.7 19.3,52.6 20.3,53.4 C21,54 21.7,54.6 22.4,55.3 C23.9,56.8 25.7,57.5 28.2,57.5 C29,57.5 29.9,57.4 30.9,57.3 C31.2,57.3 31.5,57.2 31.8,57.1 C32.5,57 33.3,56.8 34,56.8 C37.6,56.8 41,55.6 44,54.5 C46.6,53.6 49.1,52.5 51.6,51.6 C54.1,50.6 56.8,49.6 59.4,48.6 C61.6,47.8 64,47.1 66.8,46.4 L67.9,46.1 C74.3,44.5 80.8,42.9 87.5,42.2 C90.3,41.9 93.1,41.6 95.9,41.3 C97.8,41.1 99.6,40.9 101.5,40.7 C102.2,40.6 102.9,40.5 103.6,40.4 C104.7,40.2 105.9,40.1 107.1,40 C108.3,39.9 109.6,39.9 111,39.9 C114.7,39.9 118.7,40.2 123.5,40.8 C124.7,41 125.9,41.1 127.2,41.2 C127.8,41.3 128.5,41.3 129.1,41.4 L129.8,41.5 L129.4,42.1 C128.1,43.9 126.5,45 124.9,46.1 L124.3,46.6 C123.1,47.5 121.8,48.3 120.6,49.1 C119.8,49.6 119,50.1 118.3,50.7 C117.7,51.1 117.4,51.5 117.4,51.9 C117.4,52.3 117.8,52.6 118.3,52.9 C118.8,53.2 119.4,53.3 120,53.4 L120.4,53.5 C121,53.6 121.7,53.8 122.3,53.9 L123.7,54.2 L123.3,54.7 C123.1,55 122.8,55.3 122.6,55.5 C122.2,56.1 121.7,56.6 121.2,57 C119.9,58.1 118.7,59.3 117.4,60.4 C116.2,61.4 115.1,62.4 114,63.4 C113.4,63.9 113.1,64.4 113,64.8 C112.8,65.4 113,66 113.4,66.6 C114.1,67.5 115.4,67.9 116.5,67.5 C120.3,66 124.4,65.4 128.3,64.7 C129.1,64.6 129.9,64.4 130.7,64.3 L130.8,64.3 C131.8,64.1 132.4,64 132.9,64 C134.2,64 134.7,64.8 135.4,66.6 C137.1,70.5 138.7,74.5 140.3,78.4 L141.1,80.3 C141.6,81.5 142,82.7 142.4,83.9 C142.6,84.5 142.8,85 143,85.6 L143.1,85.8 L142.9,86 C140.9,88.3 139.2,89.9 137.3,91.1 C136.4,91.6 135.9,92.2 135.9,93.1 C135.9,94.4 136.2,94.9 137.1,95.1 C137.5,95.2 138,95.3 138.4,95.4 C139.2,95.6 140,95.7 140.8,95.8 C141.2,95.9 141.6,95.8 142.1,95.8 C142.3,95.8 142.5,95.8 142.6,95.8 L142.8,95.8 C145.2,95.8 146.6,96.9 147.3,99.2 C148.6,103.7 150.3,108.3 151.7,112.2 C152.1,113.3 152,114.2 151.3,115.1 C151.2,115.3 151.1,115.4 150.9,115.6 C150.5,116.1 150.2,116.6 149.7,117.1 C148.5,118.3 147.2,119.5 146,120.7 C144.6,122.1 143.2,123.5 141.8,124.9 C139.5,127.2 137.2,129.6 134.8,132.2 C134.4,132.6 134.1,133.1 133.9,133.6 C133.4,134.8 133.6,135.3 134.8,135.8 C136.8,136.7 138.2,136.7 139.6,135.8 L139.8,135.7 C140,135.5 140.2,135.4 140.5,135.3 C142.4,134.7 144.3,134.2 146.5,133.6 L149.5,132.7 L148.4,134.6 C148,135.2 147.7,135.7 147.5,136.2 C147.2,136.8 147,137.2 146.9,137.7 C146.5,139.1 147,140.1 148.5,140.9 C150.3,141.8 152,142.1 153.7,141.8 C154.2,141.7 154.6,141.6 155.1,141.5 C155.8,141.3 156.5,141.1 157.2,141 C157.7,140.9 158.3,140.9 159,141 C159.3,141 159.5,141 159.8,141 L160.1,141 L160.6,142.2 C160.9,142.9 161.1,143.6 161.4,144.2 C161.8,145.2 162.2,145.9 162.9,146.7 C163.7,147.5 164.2,148.7 164.6,149.9 L164.8,150.4 C165.5,152.2 166.1,154 166.7,155.8 C167,156.6 167.2,157.3 167.5,158.1 C167.5,158.2 167.6,158.3 167.6,158.3 C167.7,158.4 167.7,158.6 167.8,158.7 C168.5,161.6 169.8,164.4 171.1,167 C171.5,167.9 171.8,168.9 172.1,169.9 C172.2,170.3 172.3,170.7 172.5,171.1 C172.6,171.3 172.6,171.5 172.6,171.7 C172.7,171.9 172.7,172.2 172.8,172.4 C174.7,176.9 175.4,181.7 176,186.1 C176.3,188.2 176.5,190.3 176.8,192.4 C177.1,194.4 177.3,196.4 177.6,198.4 C177.8,199.8 177.8,201.1 177.8,202.4 Z" id="Shape"></path>
            </g>
        </g>
    </g>
</svg>