<?xml version="1.0" encoding="UTF-8"?>
<svg width="147px" height="69px" viewBox="0 0 147 69" version="1.1" xmlns="http://www.w3.org/2000/svg" xmlns:xlink="http://www.w3.org/1999/xlink">
    <!-- Generator: Sketch 50.2 (55047) - http://www.bohemiancoding.com/sketch -->
    <title>Artboard</title>
    <desc>Created with Sketch.</desc>
    <defs>
        <polygon id="path-1" points="0.236 11.117 53.19 11.117 53.19 0.54 0.236 0.54"></polygon>
    </defs>
    <g id="Artboard" stroke="none" stroke-width="1" fill="none" fill-rule="evenodd">
        <polygon id="Fill-625" fill="#F7D869" points="140.904 55.472 146.209 55.472 146.209 18.048 140.904 18.048"></polygon>
        <path d="M38.695,0.922 C37.561,0.922 36.638,1.845 36.638,2.979 C36.638,4.114 37.561,5.037 38.695,5.037 C39.829,5.037 40.752,4.114 40.752,2.979 C40.752,1.845 39.829,0.922 38.695,0.922 Z M38.695,5.547 C37.279,5.547 36.128,4.395 36.128,2.979 C36.128,1.564 37.279,0.412 38.695,0.412 C40.111,0.412 41.262,1.564 41.262,2.979 C41.262,4.395 40.111,5.547 38.695,5.547 Z" id="Fill-1264" fill="#333333"></path>
        <path d="M58.465,0.922 C57.331,0.922 56.408,1.845 56.408,2.979 C56.408,4.114 57.331,5.037 58.465,5.037 C59.6,5.037 60.523,4.114 60.523,2.979 C60.523,1.845 59.6,0.922 58.465,0.922 Z M58.465,5.547 C57.05,5.547 55.898,4.395 55.898,2.979 C55.898,1.564 57.05,0.412 58.465,0.412 C59.881,0.412 61.033,1.564 61.033,2.979 C61.033,4.395 59.881,5.547 58.465,5.547 Z" id="Fill-1265" fill="#333333"></path>
        <path d="M78.236,0.922 C77.101,0.922 76.178,1.845 76.178,2.979 C76.178,4.114 77.101,5.037 78.236,5.037 C79.37,5.037 80.293,4.114 80.293,2.979 C80.293,1.845 79.37,0.922 78.236,0.922 Z M78.236,5.547 C76.82,5.547 75.669,4.395 75.669,2.979 C75.669,1.564 76.82,0.412 78.236,0.412 C79.651,0.412 80.802,1.564 80.802,2.979 C80.802,4.395 79.651,5.547 78.236,5.547 Z" id="Fill-1266" fill="#333333"></path>
        <path d="M98.006,0.922 C96.872,0.922 95.948,1.845 95.948,2.979 C95.948,4.114 96.872,5.037 98.006,5.037 C99.14,5.037 100.063,4.114 100.063,2.979 C100.063,1.845 99.14,0.922 98.006,0.922 Z M98.006,5.547 C96.59,5.547 95.439,4.395 95.439,2.979 C95.439,1.564 96.59,0.412 98.006,0.412 C99.421,0.412 100.573,1.564 100.573,2.979 C100.573,4.395 99.421,5.547 98.006,5.547 Z" id="Fill-1267" fill="#333333"></path>
        <path d="M117.776,0.922 C116.642,0.922 115.719,1.845 115.719,2.979 C115.719,4.114 116.642,5.037 117.776,5.037 C118.91,5.037 119.834,4.114 119.834,2.979 C119.834,1.845 118.91,0.922 117.776,0.922 Z M117.776,5.547 C116.361,5.547 115.209,4.395 115.209,2.979 C115.209,1.564 116.361,0.412 117.776,0.412 C119.192,0.412 120.343,1.564 120.343,2.979 C120.343,4.395 119.192,5.547 117.776,5.547 Z" id="Fill-1268" fill="#333333"></path>
        <path d="M38.695,16.611 C37.561,16.611 36.638,17.534 36.638,18.668 C36.638,19.802 37.561,20.726 38.695,20.726 C39.829,20.726 40.752,19.802 40.752,18.668 C40.752,17.534 39.829,16.611 38.695,16.611 Z M38.695,21.235 C37.279,21.235 36.128,20.084 36.128,18.668 C36.128,17.253 37.279,16.101 38.695,16.101 C40.111,16.101 41.262,17.253 41.262,18.668 C41.262,20.084 40.111,21.235 38.695,21.235 Z" id="Fill-1269" fill="#333333"></path>
        <g id="Fill-1269" transform="translate(0.000000, 13.000000)">
            <mask id="mask-2" fill="white">
                <use xlink:href="#path-1"></use>
            </mask>
            <use id="Mask" fill="#4057DF" xlink:href="#path-1"></use>
            <path d="M38.695,3.611 C37.561,3.611 36.638,4.534 36.638,5.668 C36.638,6.802 37.561,7.726 38.695,7.726 C39.829,7.726 40.752,6.802 40.752,5.668 C40.752,4.534 39.829,3.611 38.695,3.611 Z M38.695,8.235 C37.279,8.235 36.128,7.084 36.128,5.668 C36.128,4.253 37.279,3.101 38.695,3.101 C40.111,3.101 41.262,4.253 41.262,5.668 C41.262,7.084 40.111,8.235 38.695,8.235 Z" fill="#FFFFFF" mask="url(#mask-2)"></path>
        </g>
        <path d="M58.465,16.611 C57.331,16.611 56.408,17.534 56.408,18.668 C56.408,19.802 57.331,20.726 58.465,20.726 C59.6,20.726 60.523,19.802 60.523,18.668 C60.523,17.534 59.6,16.611 58.465,16.611 Z M58.465,21.235 C57.05,21.235 55.898,20.084 55.898,18.668 C55.898,17.253 57.05,16.101 58.465,16.101 C59.881,16.101 61.033,17.253 61.033,18.668 C61.033,20.084 59.881,21.235 58.465,21.235 Z" id="Fill-1270" fill="#333333"></path>
        <path d="M78.236,16.611 C77.101,16.611 76.178,17.534 76.178,18.668 C76.178,19.802 77.101,20.726 78.236,20.726 C79.37,20.726 80.293,19.802 80.293,18.668 C80.293,17.534 79.37,16.611 78.236,16.611 Z M78.236,21.235 C76.82,21.235 75.669,20.084 75.669,18.668 C75.669,17.253 76.82,16.101 78.236,16.101 C79.651,16.101 80.802,17.253 80.802,18.668 C80.802,20.084 79.651,21.235 78.236,21.235 Z" id="Fill-1271" fill="#333333"></path>
        <path d="M98.006,16.611 C96.872,16.611 95.948,17.534 95.948,18.668 C95.948,19.802 96.872,20.726 98.006,20.726 C99.14,20.726 100.063,19.802 100.063,18.668 C100.063,17.534 99.14,16.611 98.006,16.611 Z M98.006,21.235 C96.59,21.235 95.439,20.084 95.439,18.668 C95.439,17.253 96.59,16.101 98.006,16.101 C99.421,16.101 100.573,17.253 100.573,18.668 C100.573,20.084 99.421,21.235 98.006,21.235 Z" id="Fill-1272" fill="#333333"></path>
        <path d="M117.776,16.611 C116.642,16.611 115.719,17.534 115.719,18.668 C115.719,19.802 116.642,20.726 117.776,20.726 C118.91,20.726 119.834,19.802 119.834,18.668 C119.834,17.534 118.91,16.611 117.776,16.611 Z M117.776,21.235 C116.361,21.235 115.209,20.084 115.209,18.668 C115.209,17.253 116.361,16.101 117.776,16.101 C119.192,16.101 120.343,17.253 120.343,18.668 C120.343,20.084 119.192,21.235 117.776,21.235 Z" id="Fill-1273" fill="#333333"></path>
        <path d="M38.695,32.3 C37.561,32.3 36.638,33.222 36.638,34.357 C36.638,35.491 37.561,36.414 38.695,36.414 C39.829,36.414 40.752,35.491 40.752,34.357 C40.752,33.222 39.829,32.3 38.695,32.3 Z M38.695,36.924 C37.279,36.924 36.128,35.772 36.128,34.357 C36.128,32.941 37.279,31.79 38.695,31.79 C40.111,31.79 41.262,32.941 41.262,34.357 C41.262,35.772 40.111,36.924 38.695,36.924 Z" id="Fill-1274" fill="#333333"></path>
        <path d="M58.465,32.3 C57.331,32.3 56.408,33.222 56.408,34.357 C56.408,35.491 57.331,36.414 58.465,36.414 C59.6,36.414 60.523,35.491 60.523,34.357 C60.523,33.222 59.6,32.3 58.465,32.3 Z M58.465,36.924 C57.05,36.924 55.898,35.772 55.898,34.357 C55.898,32.941 57.05,31.79 58.465,31.79 C59.881,31.79 61.033,32.941 61.033,34.357 C61.033,35.772 59.881,36.924 58.465,36.924 Z" id="Fill-1275" fill="#333333"></path>
        <path d="M78.236,32.3 C77.101,32.3 76.178,33.222 76.178,34.357 C76.178,35.491 77.101,36.414 78.236,36.414 C79.37,36.414 80.293,35.491 80.293,34.357 C80.293,33.222 79.37,32.3 78.236,32.3 Z M78.236,36.924 C76.82,36.924 75.669,35.772 75.669,34.357 C75.669,32.941 76.82,31.79 78.236,31.79 C79.651,31.79 80.802,32.941 80.802,34.357 C80.802,35.772 79.651,36.924 78.236,36.924 Z" id="Fill-1276" fill="#333333"></path>
        <path d="M98.006,32.3 C96.872,32.3 95.948,33.222 95.948,34.357 C95.948,35.491 96.872,36.414 98.006,36.414 C99.14,36.414 100.063,35.491 100.063,34.357 C100.063,33.222 99.14,32.3 98.006,32.3 Z M98.006,36.924 C96.59,36.924 95.439,35.772 95.439,34.357 C95.439,32.941 96.59,31.79 98.006,31.79 C99.421,31.79 100.573,32.941 100.573,34.357 C100.573,35.772 99.421,36.924 98.006,36.924 Z" id="Fill-1277" fill="#333333"></path>
        <path d="M117.776,32.3 C116.642,32.3 115.719,33.222 115.719,34.357 C115.719,35.491 116.642,36.414 117.776,36.414 C118.91,36.414 119.834,35.491 119.834,34.357 C119.834,33.222 118.91,32.3 117.776,32.3 Z M117.776,36.924 C116.361,36.924 115.209,35.772 115.209,34.357 C115.209,32.941 116.361,31.79 117.776,31.79 C119.192,31.79 120.343,32.941 120.343,34.357 C120.343,35.772 119.192,36.924 117.776,36.924 Z" id="Fill-1278" fill="#333333"></path>
        <path d="M38.695,47.988 C37.561,47.988 36.638,48.911 36.638,50.045 C36.638,51.18 37.561,52.102 38.695,52.102 C39.829,52.102 40.752,51.18 40.752,50.045 C40.752,48.911 39.829,47.988 38.695,47.988 Z M38.695,52.612 C37.279,52.612 36.128,51.461 36.128,50.045 C36.128,48.63 37.279,47.478 38.695,47.478 C40.111,47.478 41.262,48.63 41.262,50.045 C41.262,51.461 40.111,52.612 38.695,52.612 Z" id="Fill-1279" fill="#333333"></path>
        <path d="M58.465,47.988 C57.331,47.988 56.408,48.911 56.408,50.045 C56.408,51.18 57.331,52.102 58.465,52.102 C59.6,52.102 60.523,51.18 60.523,50.045 C60.523,48.911 59.6,47.988 58.465,47.988 Z M58.465,52.612 C57.05,52.612 55.898,51.461 55.898,50.045 C55.898,48.63 57.05,47.478 58.465,47.478 C59.881,47.478 61.033,48.63 61.033,50.045 C61.033,51.461 59.881,52.612 58.465,52.612 Z" id="Fill-1280" fill="#333333"></path>
        <path d="M78.236,47.988 C77.101,47.988 76.178,48.911 76.178,50.045 C76.178,51.18 77.101,52.102 78.236,52.102 C79.37,52.102 80.293,51.18 80.293,50.045 C80.293,48.911 79.37,47.988 78.236,47.988 Z M78.236,52.612 C76.82,52.612 75.669,51.461 75.669,50.045 C75.669,48.63 76.82,47.478 78.236,47.478 C79.651,47.478 80.802,48.63 80.802,50.045 C80.802,51.461 79.651,52.612 78.236,52.612 Z" id="Fill-1281" fill="#333333"></path>
        <path d="M98.006,47.988 C96.872,47.988 95.948,48.911 95.948,50.045 C95.948,51.18 96.872,52.102 98.006,52.102 C99.14,52.102 100.063,51.18 100.063,50.045 C100.063,48.911 99.14,47.988 98.006,47.988 Z M98.006,52.612 C96.59,52.612 95.439,51.461 95.439,50.045 C95.439,48.63 96.59,47.478 98.006,47.478 C99.421,47.478 100.573,48.63 100.573,50.045 C100.573,51.461 99.421,52.612 98.006,52.612 Z" id="Fill-1282" fill="#333333"></path>
        <path d="M117.776,47.988 C116.642,47.988 115.719,48.911 115.719,50.045 C115.719,51.18 116.642,52.102 117.776,52.102 C118.91,52.102 119.834,51.18 119.834,50.045 C119.834,48.911 118.91,47.988 117.776,47.988 Z M117.776,52.612 C116.361,52.612 115.209,51.461 115.209,50.045 C115.209,48.63 116.361,47.478 117.776,47.478 C119.192,47.478 120.343,48.63 120.343,50.045 C120.343,51.461 119.192,52.612 117.776,52.612 Z" id="Fill-1283" fill="#333333"></path>
        <path d="M38.695,63.676 C37.561,63.676 36.638,64.6 36.638,65.734 C36.638,66.868 37.561,67.791 38.695,67.791 C39.829,67.791 40.752,66.868 40.752,65.734 C40.752,64.6 39.829,63.676 38.695,63.676 Z M38.695,68.301 C37.279,68.301 36.128,67.149 36.128,65.734 C36.128,64.318 37.279,63.167 38.695,63.167 C40.111,63.167 41.262,64.318 41.262,65.734 C41.262,67.149 40.111,68.301 38.695,68.301 Z" id="Fill-1284" fill="#333333"></path>
        <path d="M58.465,63.676 C57.331,63.676 56.408,64.6 56.408,65.734 C56.408,66.868 57.331,67.791 58.465,67.791 C59.6,67.791 60.523,66.868 60.523,65.734 C60.523,64.6 59.6,63.676 58.465,63.676 Z M58.465,68.301 C57.05,68.301 55.898,67.149 55.898,65.734 C55.898,64.318 57.05,63.167 58.465,63.167 C59.881,63.167 61.033,64.318 61.033,65.734 C61.033,67.149 59.881,68.301 58.465,68.301 Z" id="Fill-1285" fill="#333333"></path>
        <path d="M78.236,63.676 C77.101,63.676 76.178,64.6 76.178,65.734 C76.178,66.868 77.101,67.791 78.236,67.791 C79.37,67.791 80.293,66.868 80.293,65.734 C80.293,64.6 79.37,63.676 78.236,63.676 Z M78.236,68.301 C76.82,68.301 75.669,67.149 75.669,65.734 C75.669,64.318 76.82,63.167 78.236,63.167 C79.651,63.167 80.802,64.318 80.802,65.734 C80.802,67.149 79.651,68.301 78.236,68.301 Z" id="Fill-1286" fill="#333333"></path>
        <path d="M98.006,63.676 C96.872,63.676 95.948,64.6 95.948,65.734 C95.948,66.868 96.872,67.791 98.006,67.791 C99.14,67.791 100.063,66.868 100.063,65.734 C100.063,64.6 99.14,63.676 98.006,63.676 Z M98.006,68.301 C96.59,68.301 95.439,67.149 95.439,65.734 C95.439,64.318 96.59,63.167 98.006,63.167 C99.421,63.167 100.573,64.318 100.573,65.734 C100.573,67.149 99.421,68.301 98.006,68.301 Z" id="Fill-1287" fill="#333333"></path>
        <path d="M117.776,63.676 C116.642,63.676 115.719,64.6 115.719,65.734 C115.719,66.868 116.642,67.791 117.776,67.791 C118.91,67.791 119.834,66.868 119.834,65.734 C119.834,64.6 118.91,63.676 117.776,63.676 Z M117.776,68.301 C116.361,68.301 115.209,67.149 115.209,65.734 C115.209,64.318 116.361,63.167 117.776,63.167 C119.192,63.167 120.343,64.318 120.343,65.734 C120.343,67.149 119.192,68.301 117.776,68.301 Z" id="Fill-1288" fill="#333333"></path>
    </g>
</svg>