<?xml version="1.0" encoding="UTF-8"?>
<svg width="36px" height="45px" viewBox="0 0 36 45" version="1.1" xmlns="http://www.w3.org/2000/svg" xmlns:xlink="http://www.w3.org/1999/xlink">
    <!-- Generator: Sketch 50.2 (55047) - http://www.bohemiancoding.com/sketch -->
    <title>Combined Shape</title>
    <desc>Created with Sketch.</desc>
    <defs></defs>
    <g id="Page-2" stroke="none" stroke-width="1" fill="none" fill-rule="evenodd">
        <g id="Stack" transform="translate(-198.000000, -154.000000)" fill="#1A171B">
            <path d="M203.491,189.027 L221.661,189.027 L233.445,189.027 L233.44,189.685 L221.661,189.685 L203.491,189.685 L198.889,189.685 L198.889,189.027 L203.491,189.027 Z M203.491,197.59 L221.661,197.59 L233.387,197.59 L233.383,198.248 L221.661,198.248 L203.491,198.248 L198.889,198.248 L198.889,197.59 L203.491,197.59 Z M203.491,193.308 L221.661,193.308 L233.416,193.308 L233.411,193.966 L221.661,193.966 L203.491,193.966 L198.889,193.966 L198.889,193.308 L203.491,193.308 Z M203.491,154.775 L221.661,154.775 L233.676,154.775 L233.671,155.432 L221.661,155.432 L203.491,155.432 L198.889,155.432 L198.889,154.775 L203.491,154.775 Z M203.491,163.338 L221.661,163.338 L233.618,163.338 L233.614,163.995 L221.661,163.995 L203.491,163.995 L198.889,163.995 L198.889,163.338 L203.491,163.338 Z M203.491,171.901 L221.661,171.901 L233.56,171.901 L233.556,172.558 L221.661,172.558 L203.491,172.558 L198.889,172.558 L198.889,171.901 L203.491,171.901 Z M203.491,180.464 L221.661,180.464 L233.502,180.464 L233.498,181.122 L221.661,181.122 L203.491,181.122 L198.889,181.122 L198.889,180.464 L203.491,180.464 Z M203.491,159.056 L221.661,159.056 L233.647,159.056 L233.642,159.714 L221.661,159.714 L203.491,159.714 L198.889,159.714 L198.889,159.056 L203.491,159.056 Z M203.491,167.619 L221.661,167.619 L233.589,167.619 L233.585,168.277 L221.661,168.277 L203.491,168.277 L198.889,168.277 L198.889,167.619 L203.491,167.619 Z M203.491,176.182 L221.661,176.182 L233.531,176.182 L233.527,176.84 L221.661,176.84 L203.491,176.84 L198.889,176.84 L198.889,176.182 L203.491,176.182 Z M203.491,184.746 L221.661,184.746 L233.474,184.746 L233.469,185.403 L221.661,185.403 L203.491,185.403 L198.889,185.403 L198.889,184.746 L203.491,184.746 Z" id="Combined-Shape"></path>
        </g>
    </g>
</svg>