<?xml version="1.0" encoding="UTF-8"?>
<svg width="118px" height="105px" viewBox="0 0 118 105" version="1.1" xmlns="http://www.w3.org/2000/svg" xmlns:xlink="http://www.w3.org/1999/xlink">
    <!-- Generator: Sketch 50.2 (55047) - http://www.bohemiancoding.com/sketch -->
    <title>Artboard</title>
    <desc>Created with Sketch.</desc>
    <defs></defs>
    <g id="Artboard" stroke="none" stroke-width="1" fill="none" fill-rule="evenodd">
        <path d="M97.402429,9.789875 C84.350429,-3.263125 63.187429,-3.263125 50.135429,9.788875 C37.082429,22.841875 37.082429,44.003875 50.135429,57.056875 C63.187429,70.108875 84.350429,70.108875 97.402429,57.056875 C110.454429,44.003875 110.454429,22.841875 97.402429,9.789875" id="Fill-248" fill="#F7D869"></path>
        <path d="M98.214429,12.905875 C98.214429,12.768875 98.156429,12.632875 98.058429,12.534875 C97.970429,12.446875 97.833429,12.387875 97.707429,12.379875 C97.570429,12.378875 97.433429,12.437875 97.336429,12.534875 C97.238429,12.632875 97.180429,12.768875 97.180429,12.905875 C97.180429,13.040875 97.229429,13.167875 97.326429,13.265875 C97.434429,13.373875 97.561429,13.421875 97.697429,13.422875 C97.970429,13.421875 98.222429,13.148875 98.214429,12.905875" id="Fill-250" fill="#333333"></path>
        <path d="M100.651429,17.292875 C100.661429,17.165875 100.603429,17.028875 100.495429,16.921875 C100.407429,16.833875 100.270429,16.774875 100.144429,16.766875 C100.008429,16.765875 99.870429,16.824875 99.773429,16.921875 C99.675429,17.019875 99.617429,17.155875 99.617429,17.292875 C99.617429,17.427875 99.676429,17.564875 99.764429,17.652875 C99.871429,17.760875 100.008429,17.818875 100.134429,17.809875 C100.417429,17.799875 100.659429,17.535875 100.651429,17.292875" id="Fill-251" fill="#333333"></path>
        <path d="M104.034429,21.708875 C104.307429,21.708875 104.559429,21.434875 104.551429,21.191875 C104.551429,21.054875 104.493429,20.918875 104.394429,20.820875 C104.307429,20.733875 104.170429,20.674875 104.043429,20.665875 C103.907429,20.664875 103.770429,20.723875 103.673429,20.820875 C103.575429,20.918875 103.517429,21.054875 103.517429,21.191875 C103.517429,21.327875 103.576429,21.464875 103.663429,21.551875 C103.761429,21.649875 103.898429,21.708875 104.034429,21.708875" id="Fill-252" fill="#333333"></path>
        <path d="M101.577429,23.131875 C101.567429,23.276875 101.615429,23.403875 101.724429,23.512875 C101.811429,23.599875 101.948429,23.657875 102.084429,23.658875 C102.357429,23.657875 102.610429,23.404875 102.601429,23.141875 C102.601429,23.004875 102.543429,22.868875 102.455429,22.781875 C102.347429,22.672875 102.220429,22.624875 102.093429,22.615875 C101.957429,22.614875 101.820429,22.673875 101.723429,22.770875 C101.625429,22.868875 101.567429,23.004875 101.577429,23.131875" id="Fill-253" fill="#333333"></path>
        <path d="M97.678429,21.181875 C97.668429,21.327875 97.716429,21.453875 97.824429,21.562875 C97.912429,21.649875 98.048429,21.707875 98.184429,21.708875 C98.457429,21.708875 98.710429,21.434875 98.701429,21.191875 C98.701429,21.054875 98.653429,20.928875 98.555429,20.831875 C98.447429,20.722875 98.320429,20.674875 98.194429,20.665875 C98.058429,20.664875 97.920429,20.723875 97.824429,20.820875 C97.725429,20.918875 97.667429,21.054875 97.678429,21.181875" id="Fill-254" fill="#333333"></path>
        <path d="M101.090429,29.467875 C101.070429,29.603875 101.128429,29.740875 101.226429,29.838875 C101.324429,29.936875 101.460429,29.994875 101.596429,29.995875 C101.870429,29.994875 102.123429,29.741875 102.113429,29.478875 C102.113429,29.341875 102.055429,29.205875 101.957429,29.107875 C101.859429,29.009875 101.723429,28.950875 101.615429,28.961875 C101.470429,28.950875 101.333429,29.009875 101.236429,29.106875 C101.137429,29.205875 101.079429,29.341875 101.090429,29.467875" id="Fill-255" fill="#333333"></path>
        <path d="M103.029429,26.553875 C103.029429,26.688875 103.088429,26.826875 103.176429,26.913875 C103.274429,27.011875 103.410429,27.069875 103.546429,27.070875 C103.829429,27.060875 104.062429,26.806875 104.063429,26.553875 C104.063429,26.416875 104.005429,26.280875 103.907429,26.182875 C103.819429,26.094875 103.682429,26.036875 103.556429,26.027875 C103.420429,26.026875 103.282429,26.085875 103.185429,26.182875 C103.087429,26.280875 103.029429,26.416875 103.029429,26.553875" id="Fill-256" fill="#333333"></path>
        <path d="M106.597429,31.544875 C106.499429,31.642875 106.441429,31.778875 106.441429,31.915875 C106.441429,32.050875 106.490429,32.177875 106.588429,32.275875 C106.686429,32.373875 106.822429,32.431875 106.958429,32.432875 C107.031429,32.432875 107.101429,32.410875 107.167429,32.377875 C107.157429,32.061875 107.144429,31.744875 107.125429,31.428875 C107.073429,31.409875 107.020429,31.392875 106.968429,31.389875 C106.832429,31.388875 106.694429,31.447875 106.597429,31.544875" id="Fill-257" fill="#333333"></path>
        <path d="M103.029429,33.378875 C103.029429,33.513875 103.088429,33.650875 103.176429,33.737875 C103.283429,33.845875 103.410429,33.894875 103.546429,33.894875 C103.829429,33.884875 104.072429,33.620875 104.063429,33.377875 C104.063429,33.240875 104.015429,33.114875 103.907429,33.006875 C103.819429,32.918875 103.682429,32.860875 103.556429,32.851875 C103.420429,32.850875 103.282429,32.909875 103.185429,33.006875 C103.087429,33.104875 103.029429,33.240875 103.029429,33.378875" id="Fill-258" fill="#333333"></path>
        <path d="M103.029429,39.227875 C103.029429,39.362875 103.088429,39.499875 103.176429,39.586875 C103.274429,39.685875 103.410429,39.742875 103.546429,39.744875 C103.819429,39.743875 104.062429,39.479875 104.063429,39.227875 C104.063429,39.089875 104.014429,38.963875 103.907429,38.855875 C103.809429,38.757875 103.682429,38.708875 103.556429,38.700875 C103.419429,38.699875 103.282429,38.758875 103.185429,38.855875 C103.087429,38.953875 103.029429,39.089875 103.029429,39.227875" id="Fill-259" fill="#333333"></path>
        <path d="M105.008429,43.156875 C105.282429,43.155875 105.524429,42.891875 105.525429,42.639875 C105.525429,42.502875 105.477429,42.375875 105.380429,42.278875 C105.271429,42.169875 105.144429,42.121875 105.018429,42.112875 C104.882429,42.111875 104.745429,42.170875 104.648429,42.267875 C104.549429,42.365875 104.491429,42.502875 104.492429,42.639875 C104.491429,42.774875 104.550429,42.911875 104.649429,43.009875 C104.736429,43.097875 104.872429,43.154875 105.008429,43.156875" id="Fill-260" fill="#333333"></path>
        <path d="M100.651429,40.689875 C100.660429,40.561875 100.602429,40.425875 100.495429,40.318875 C100.407429,40.230875 100.270429,40.171875 100.134429,40.172875 C99.997429,40.172875 99.870429,40.220875 99.773429,40.318875 C99.675429,40.416875 99.627429,40.542875 99.617429,40.689875 C99.617429,40.824875 99.676429,40.961875 99.764429,41.049875 C99.871429,41.156875 100.008429,41.214875 100.134429,41.206875 C100.407429,41.205875 100.660429,40.932875 100.651429,40.689875" id="Fill-261" fill="#333333"></path>
        <path d="M101.138429,44.101875 C101.148429,43.973875 101.090429,43.837875 100.982429,43.730875 C100.884429,43.631875 100.758429,43.583875 100.631429,43.575875 C100.495429,43.573875 100.358429,43.633875 100.261429,43.730875 C100.163429,43.828875 100.105429,43.964875 100.105429,44.101875 C100.105429,44.236875 100.153429,44.363875 100.251429,44.461875 C100.359429,44.568875 100.485429,44.617875 100.622429,44.618875 C100.895429,44.617875 101.147429,44.344875 101.138429,44.101875" id="Fill-262" fill="#333333"></path>
        <path d="M98.701429,39.714875 C98.711429,39.586875 98.653429,39.450875 98.545429,39.343875 C98.447429,39.245875 98.320429,39.196875 98.185429,39.197875 C98.047429,39.197875 97.920429,39.246875 97.823429,39.343875 C97.725429,39.441875 97.667429,39.577875 97.668429,39.714875 C97.667429,39.849875 97.716429,39.976875 97.814429,40.074875 C97.921429,40.181875 98.048429,40.230875 98.185429,40.231875 C98.458429,40.230875 98.711429,39.977875 98.701429,39.714875" id="Fill-263" fill="#333333"></path>
        <path d="M97.726429,42.639875 C97.726429,42.502875 97.678429,42.375875 97.581429,42.278875 C97.472429,42.169875 97.346429,42.121875 97.219429,42.112875 C97.083429,42.111875 96.946429,42.170875 96.849429,42.267875 C96.751429,42.366875 96.693429,42.502875 96.692429,42.639875 C96.693429,42.774875 96.751429,42.911875 96.850429,43.009875 C96.947429,43.106875 97.074429,43.155875 97.209429,43.156875 C97.483429,43.155875 97.735429,42.881875 97.726429,42.639875" id="Fill-264" fill="#333333"></path>
        <path d="M95.289429,39.226875 C95.289429,39.090875 95.241429,38.963875 95.144429,38.866875 C95.035429,38.757875 94.899429,38.699875 94.782429,38.700875 C94.646429,38.699875 94.508429,38.758875 94.412429,38.855875 C94.313429,38.953875 94.255429,39.090875 94.266429,39.216875 C94.255429,39.362875 94.304429,39.488875 94.412429,39.597875 C94.500429,39.685875 94.636429,39.743875 94.772429,39.743875 C95.045429,39.743875 95.288429,39.479875 95.289429,39.226875" id="Fill-265" fill="#333333"></path>
        <path d="M93.914429,42.998875 C94.013429,43.097875 94.149429,43.155875 94.285429,43.156875 C94.558429,43.155875 94.802429,42.911875 94.802429,42.639875 C94.802429,42.502875 94.753429,42.375875 94.646429,42.267875 C94.548429,42.169875 94.421429,42.121875 94.285429,42.122875 C94.148429,42.122875 94.021429,42.170875 93.924429,42.267875 C93.826429,42.365875 93.768429,42.502875 93.768429,42.639875 C93.768429,42.774875 93.827429,42.911875 93.914429,42.998875" id="Fill-266" fill="#333333"></path>
        <path d="M92.852429,38.739875 C92.852429,38.602875 92.803429,38.475875 92.707429,38.379875 C92.598429,38.270875 92.471429,38.221875 92.335429,38.222875 C92.198429,38.222875 92.071429,38.271875 91.974429,38.368875 C91.876429,38.466875 91.818429,38.602875 91.818429,38.739875 C91.818429,38.874875 91.877429,39.011875 91.975429,39.110875 C92.072429,39.207875 92.199429,39.255875 92.335429,39.256875 C92.608429,39.255875 92.852429,39.012875 92.852429,38.739875" id="Fill-267" fill="#333333"></path>
        <path d="M91.848429,36.819875 C92.121429,36.818875 92.374429,36.565875 92.365429,36.302875 C92.365429,36.165875 92.316429,36.038875 92.208429,35.931875 C92.110429,35.833875 91.974429,35.775875 91.857429,35.775875 C91.721429,35.774875 91.584429,35.834875 91.487429,35.931875 C91.389429,36.029875 91.331429,36.165875 91.341429,36.291875 C91.321429,36.428875 91.379429,36.564875 91.477429,36.662875 C91.575429,36.760875 91.711429,36.818875 91.848429,36.819875" id="Fill-268" fill="#333333"></path>
        <path d="M87.948429,35.844875 C88.222429,35.843875 88.474429,35.570875 88.465429,35.327875 C88.465429,35.190875 88.407429,35.054875 88.309429,34.956875 C88.221429,34.868875 88.084429,34.809875 87.958429,34.801875 C87.821429,34.800875 87.685429,34.859875 87.588429,34.956875 C87.489429,35.054875 87.431429,35.190875 87.431429,35.327875 C87.432429,35.462875 87.490429,35.600875 87.578429,35.687875 C87.686429,35.795875 87.812429,35.843875 87.948429,35.844875" id="Fill-269" fill="#333333"></path>
        <path d="M88.436429,29.507875 C88.709429,29.506875 88.952429,29.243875 88.953429,28.990875 C88.953429,28.854875 88.904429,28.727875 88.807429,28.630875 C88.698429,28.521875 88.572429,28.473875 88.445429,28.464875 C88.309429,28.463875 88.172429,28.522875 88.075429,28.619875 C87.977429,28.717875 87.919429,28.853875 87.919429,28.991875 C87.919429,29.126875 87.978429,29.263875 88.076429,29.361875 C88.173429,29.458875 88.300429,29.506875 88.436429,29.507875" id="Fill-270" fill="#333333"></path>
        <path d="M90.415429,32.402875 C90.415429,32.266875 90.357429,32.129875 90.269429,32.042875 C90.171429,31.944875 90.034429,31.885875 89.908429,31.876875 C89.771429,31.875875 89.634429,31.934875 89.537429,32.031875 C89.439429,32.129875 89.381429,32.266875 89.381429,32.403875 C89.381429,32.538875 89.440429,32.675875 89.538429,32.773875 C89.626429,32.861875 89.762429,32.918875 89.898429,32.919875 C90.171429,32.918875 90.424429,32.665875 90.415429,32.402875" id="Fill-271" fill="#333333"></path>
        <path d="M85.969429,29.965875 C85.969429,30.100875 86.028429,30.238875 86.116429,30.325875 C86.214429,30.423875 86.350429,30.481875 86.486429,30.482875 C86.759429,30.482875 87.011429,30.208875 87.003429,29.966875 C87.003429,29.828875 86.954429,29.702875 86.847429,29.594875 C86.759429,29.506875 86.622429,29.447875 86.495429,29.439875 C86.359429,29.438875 86.222429,29.497875 86.125429,29.594875 C86.027429,29.692875 85.969429,29.828875 85.969429,29.965875" id="Fill-272" fill="#333333"></path>
        <path d="M88.923429,27.070875 C89.196429,27.069875 89.450429,26.816875 89.440429,26.553875 C89.440429,26.416875 89.391429,26.290875 89.284429,26.182875 C89.186429,26.084875 89.059429,26.036875 88.933429,26.027875 C88.796429,26.026875 88.660429,26.085875 88.562429,26.182875 C88.464429,26.280875 88.406429,26.416875 88.406429,26.553875 C88.406429,26.688875 88.465429,26.826875 88.553429,26.913875 C88.651429,27.011875 88.787429,27.069875 88.923429,27.070875" id="Fill-273" fill="#333333"></path>
        <path d="M86.028429,26.066875 C86.037429,25.938875 85.980429,25.802875 85.872429,25.695875 C85.774429,25.597875 85.647429,25.548875 85.521429,25.539875 C85.384429,25.538875 85.247429,25.597875 85.150429,25.695875 C85.052429,25.793875 84.994429,25.929875 84.994429,26.066875 C84.994429,26.201875 85.043429,26.328875 85.141429,26.426875 C85.249429,26.533875 85.375429,26.582875 85.511429,26.583875 C85.784429,26.582875 86.037429,26.309875 86.028429,26.066875" id="Fill-274" fill="#333333"></path>
        <path d="M88.894429,23.142875 C88.894429,23.276875 88.953429,23.414875 89.051429,23.512875 C89.148429,23.609875 89.274429,23.657875 89.410429,23.658875 C89.684429,23.657875 89.936429,23.384875 89.927429,23.141875 C89.928429,23.004875 89.879429,22.878875 89.782429,22.780875 C89.684429,22.682875 89.547429,22.623875 89.420429,22.615875 C89.284429,22.614875 89.147429,22.673875 89.050429,22.770875 C88.952429,22.868875 88.894429,23.004875 88.894429,23.142875" id="Fill-275" fill="#333333"></path>
        <path d="M85.482429,21.679875 C85.482429,21.814875 85.541429,21.951875 85.628429,22.039875 C85.726429,22.137875 85.862429,22.195875 85.998429,22.196875 C86.272429,22.195875 86.514429,21.931875 86.515429,21.679875 C86.516429,21.542875 86.467429,21.415875 86.359429,21.308875 C86.272429,21.220875 86.135429,21.161875 86.008429,21.153875 C85.872429,21.152875 85.735429,21.211875 85.638429,21.308875 C85.540429,21.406875 85.482429,21.542875 85.482429,21.679875" id="Fill-276" fill="#333333"></path>
        <path d="M88.436429,19.759875 C88.709429,19.758875 88.961429,19.484875 88.953429,19.242875 C88.953429,19.105875 88.894429,18.969875 88.796429,18.871875 C88.698429,18.773875 88.562429,18.715875 88.455429,18.725875 C88.309429,18.714875 88.172429,18.773875 88.075429,18.871875 C87.977429,18.969875 87.919429,19.105875 87.929429,19.231875 C87.919429,19.358875 87.967429,19.504875 88.065429,19.602875 C88.173429,19.709875 88.300429,19.758875 88.436429,19.759875" id="Fill-277" fill="#333333"></path>
        <path d="M87.432429,14.855875 C87.431429,14.990875 87.480429,15.117875 87.578429,15.215875 C87.686429,15.322875 87.812429,15.371875 87.948429,15.372875 C88.231429,15.361875 88.474429,15.098875 88.465429,14.855875 C88.465429,14.718875 88.417429,14.591875 88.309429,14.484875 C88.211429,14.386875 88.084429,14.337875 87.958429,14.328875 C87.822429,14.327875 87.684429,14.387875 87.587429,14.484875 C87.489429,14.582875 87.431429,14.718875 87.432429,14.855875" id="Fill-278" fill="#333333"></path>
        <path d="M78.687429,29.507875 C78.960429,29.506875 79.204429,29.263875 79.204429,28.990875 C79.214429,28.863875 79.155429,28.727875 79.048429,28.619875 C78.950429,28.521875 78.823429,28.472875 78.687429,28.474875 C78.550429,28.473875 78.423429,28.522875 78.326429,28.619875 C78.228429,28.717875 78.170429,28.853875 78.170429,28.991875 C78.170429,29.126875 78.229429,29.263875 78.317429,29.350875 C78.424429,29.458875 78.551429,29.506875 78.687429,29.507875" id="Fill-279" fill="#333333"></path>
        <path d="M76.250429,30.970875 C76.523429,30.969875 76.776429,30.716875 76.767429,30.453875 C76.776429,30.325875 76.718429,30.189875 76.611429,30.082875 C76.512429,29.983875 76.376429,29.925875 76.250429,29.936875 C76.113429,29.936875 75.986429,29.984875 75.889429,30.081875 C75.791429,30.179875 75.733429,30.316875 75.744429,30.442875 C75.723429,30.578875 75.781429,30.715875 75.879429,30.813875 C75.987429,30.920875 76.114429,30.969875 76.250429,30.970875" id="Fill-280" fill="#333333"></path>
        <path d="M79.145429,30.940875 C79.145429,31.076875 79.194429,31.202875 79.291429,31.300875 C79.399429,31.408875 79.526429,31.456875 79.662429,31.457875 C79.935429,31.456875 80.179429,31.212875 80.179429,30.940875 C80.188429,30.813875 80.130429,30.677875 80.023429,30.569875 C79.925429,30.471875 79.798429,30.422875 79.662429,30.423875 C79.525429,30.423875 79.398429,30.472875 79.301429,30.569875 C79.203429,30.667875 79.145429,30.803875 79.145429,30.940875" id="Fill-281" fill="#333333"></path>
        <path d="M76.737429,33.348875 C76.600429,33.348875 76.474429,33.396875 76.377429,33.494875 C76.278429,33.592875 76.220429,33.728875 76.220429,33.865875 C76.220429,34.000875 76.279429,34.137875 76.367429,34.225875 C76.465429,34.323875 76.601429,34.381875 76.737429,34.382875 C77.011429,34.381875 77.254429,34.137875 77.254429,33.865875 C77.254429,33.728875 77.206429,33.601875 77.098429,33.494875 C77.000429,33.396875 76.873429,33.347875 76.737429,33.348875" id="Fill-282" fill="#333333"></path>
        <path d="M81.095429,34.819875 C81.085429,34.965875 81.143429,35.101875 81.241429,35.200875 C81.349429,35.307875 81.485429,35.365875 81.612429,35.357875 C81.894429,35.346875 82.137429,35.083875 82.129429,34.840875 C82.138429,34.712875 82.080429,34.576875 81.973429,34.468875 C81.874429,34.370875 81.738429,34.312875 81.621429,34.313875 C81.485429,34.312875 81.348429,34.371875 81.251429,34.468875 C81.153429,34.566875 81.095429,34.702875 81.095429,34.819875" id="Fill-283" fill="#333333"></path>
        <path d="M78.717429,36.302875 C78.717429,36.165875 78.668429,36.038875 78.571429,35.941875 C78.473429,35.843875 78.336429,35.784875 78.200429,35.785875 C78.062429,35.785875 77.936429,35.834875 77.839429,35.931875 C77.741429,36.029875 77.683429,36.165875 77.683429,36.302875 C77.683429,36.437875 77.742429,36.574875 77.840429,36.672875 C77.927429,36.760875 78.063429,36.818875 78.200429,36.819875 C78.473429,36.818875 78.716429,36.574875 78.717429,36.302875" id="Fill-284" fill="#333333"></path>
        <path d="M76.279429,39.714875 C76.279429,39.577875 76.231429,39.450875 76.134429,39.353875 C76.035429,39.255875 75.899429,39.196875 75.762429,39.197875 C75.625429,39.197875 75.499429,39.246875 75.402429,39.343875 C75.304429,39.441875 75.245429,39.577875 75.245429,39.714875 C75.246429,39.849875 75.304429,39.986875 75.402429,40.084875 C75.490429,40.172875 75.626429,40.230875 75.762429,40.231875 C76.036429,40.230875 76.279429,39.986875 76.279429,39.714875" id="Fill-285" fill="#333333"></path>
        <path d="M70.859429,37.277875 C70.859429,37.412875 70.918429,37.549875 71.005429,37.637875 C71.103429,37.735875 71.239429,37.793875 71.376429,37.794875 C71.649429,37.793875 71.893429,37.549875 71.893429,37.277875 C71.893429,37.140875 71.844429,37.013875 71.736429,36.906875 C71.638429,36.807875 71.512429,36.759875 71.376429,36.760875 C71.239429,36.760875 71.112429,36.809875 71.015429,36.906875 C70.917429,37.004875 70.859429,37.140875 70.859429,37.277875" id="Fill-286" fill="#333333"></path>
        <path d="M73.325429,42.668875 C73.599429,42.667875 73.842429,42.424875 73.842429,42.151875 C73.842429,42.014875 73.794429,41.888875 73.696429,41.790875 C73.588429,41.682875 73.461429,41.633875 73.325429,41.634875 C73.188429,41.634875 73.062429,41.683875 72.965429,41.780875 C72.866429,41.878875 72.808429,42.014875 72.808429,42.151875 C72.809429,42.286875 72.867429,42.423875 72.965429,42.522875 C73.053429,42.609875 73.189429,42.667875 73.325429,42.668875" id="Fill-287" fill="#333333"></path>
        <path d="M78.229429,40.689875 C78.229429,40.552875 78.181429,40.425875 78.073429,40.318875 C77.975429,40.219875 77.848429,40.171875 77.712429,40.172875 C77.575429,40.172875 77.448429,40.221875 77.351429,40.318875 C77.253429,40.416875 77.195429,40.552875 77.195429,40.689875 C77.195429,40.824875 77.254429,40.961875 77.342429,41.049875 C77.440429,41.147875 77.576429,41.205875 77.712429,41.206875 C77.985429,41.205875 78.229429,40.961875 78.229429,40.689875" id="Fill-288" fill="#333333"></path>
        <path d="M82.616429,41.176875 C82.616429,41.039875 82.568429,40.913875 82.470429,40.816875 C82.362429,40.707875 82.235429,40.659875 82.099429,40.659875 C81.962429,40.659875 81.836429,40.708875 81.738429,40.805875 C81.640429,40.903875 81.582429,41.039875 81.582429,41.176875 C81.582429,41.311875 81.641429,41.449875 81.739429,41.547875 C81.836429,41.644875 81.963429,41.692875 82.099429,41.693875 C82.372429,41.692875 82.616429,41.449875 82.616429,41.176875" id="Fill-289" fill="#333333"></path>
        <path d="M78.170429,45.563875 C78.170429,45.698875 78.229429,45.835875 78.317429,45.923875 C78.415429,46.021875 78.551429,46.079875 78.687429,46.080875 C78.960429,46.079875 79.204429,45.835875 79.204429,45.563875 C79.204429,45.426875 79.155429,45.300875 79.048429,45.192875 C78.950429,45.094875 78.823429,45.045875 78.687429,45.046875 C78.550429,45.046875 78.423429,45.095875 78.326429,45.192875 C78.228429,45.290875 78.170429,45.426875 78.170429,45.563875" id="Fill-290" fill="#333333"></path>
        <path d="M82.069429,44.588875 C82.070429,44.724875 82.118429,44.850875 82.216429,44.948875 C82.324429,45.056875 82.450429,45.104875 82.586429,45.105875 C82.860429,45.104875 83.112429,44.831875 83.103429,44.588875 C83.103429,44.451875 83.055429,44.325875 82.947429,44.217875 C82.849429,44.119875 82.723429,44.071875 82.596429,44.062875 C82.460429,44.061875 82.323429,44.120875 82.226429,44.217875 C82.128429,44.315875 82.070429,44.451875 82.069429,44.588875" id="Fill-291" fill="#333333"></path>
        <path d="M80.637429,49.980875 C80.910429,49.979875 81.154429,49.735875 81.154429,49.463875 C81.163429,49.335875 81.105429,49.199875 80.997429,49.091875 C80.900429,48.994875 80.763429,48.935875 80.637429,48.946875 C80.500429,48.946875 80.373429,48.994875 80.276429,49.091875 C80.178429,49.190875 80.120429,49.326875 80.130429,49.452875 C80.110429,49.588875 80.168429,49.725875 80.266429,49.823875 C80.374429,49.930875 80.501429,49.979875 80.637429,49.980875" id="Fill-292" fill="#333333"></path>
        <path d="M81.612429,52.904875 C81.885429,52.903875 82.129429,52.659875 82.129429,52.387875 C82.129429,52.250875 82.070429,52.114875 81.972429,52.016875 C81.874429,51.918875 81.748429,51.869875 81.612429,51.870875 C81.475429,51.870875 81.348429,51.919875 81.251429,52.016875 C81.153429,52.114875 81.095429,52.250875 81.095429,52.387875 C81.095429,52.523875 81.154429,52.660875 81.241429,52.747875 C81.339429,52.845875 81.475429,52.903875 81.612429,52.904875" id="Fill-293" fill="#333333"></path>
        <path d="M84.020429,54.337875 C84.019429,54.472875 84.078429,54.609875 84.176429,54.707875 C84.264429,54.795875 84.400429,54.853875 84.536429,54.854875 C84.809429,54.853875 85.053429,54.609875 85.053429,54.337875 C85.053429,54.200875 85.005429,54.073875 84.908429,53.976875 C84.810429,53.878875 84.672429,53.819875 84.536429,53.820875 C84.399429,53.820875 84.273429,53.869875 84.175429,53.966875 C84.077429,54.064875 84.019429,54.200875 84.020429,54.337875" id="Fill-294" fill="#333333"></path>
        <path d="M83.103429,56.287875 C83.103429,56.150875 83.055429,56.023875 82.947429,55.916875 C82.849429,55.817875 82.723429,55.769875 82.587429,55.770875 C82.449429,55.770875 82.323429,55.818875 82.226429,55.915875 C82.128429,56.014875 82.069429,56.150875 82.070429,56.287875 C82.070429,56.422875 82.129429,56.559875 82.216429,56.647875 C82.314429,56.745875 82.450429,56.803875 82.586429,56.804875 C82.860429,56.803875 83.103429,56.559875 83.103429,56.287875" id="Fill-295" fill="#333333"></path>
        <path d="M83.104429,60.186875 C83.103429,60.049875 83.045429,59.913875 82.947429,59.815875 C82.849429,59.717875 82.723429,59.668875 82.587429,59.669875 C82.449429,59.669875 82.323429,59.718875 82.225429,59.815875 C82.128429,59.913875 82.069429,60.049875 82.070429,60.186875 C82.069429,60.321875 82.129429,60.459875 82.216429,60.546875 C82.314429,60.644875 82.450429,60.702875 82.587429,60.703875 C82.860429,60.702875 83.104429,60.459875 83.104429,60.186875" id="Fill-296" fill="#333333"></path>
        <path d="M86.516429,58.724875 C86.516429,58.587875 86.457429,58.451875 86.359429,58.353875 C86.261429,58.254875 86.135429,58.206875 85.999429,58.207875 C85.861429,58.207875 85.735429,58.256875 85.638429,58.353875 C85.540429,58.451875 85.482429,58.587875 85.482429,58.724875 C85.482429,58.859875 85.541429,58.996875 85.628429,59.084875 C85.726429,59.182875 85.862429,59.240875 85.999429,59.241875 C86.272429,59.240875 86.516429,58.996875 86.516429,58.724875" id="Fill-297" fill="#333333"></path>
        <path d="M88.465429,62.623875 C88.465429,62.486875 88.417429,62.360875 88.309429,62.252875 C88.211429,62.154875 88.084429,62.105875 87.949429,62.106875 C87.811429,62.106875 87.684429,62.155875 87.587429,62.252875 C87.489429,62.350875 87.431429,62.486875 87.432429,62.623875 C87.431429,62.759875 87.480429,62.885875 87.578429,62.983875 C87.686429,63.091875 87.812429,63.139875 87.948429,63.140875 C88.221429,63.139875 88.465429,62.896875 88.465429,62.623875" id="Fill-298" fill="#333333"></path>
        <path d="M80.763429,64.202875 C80.665429,64.300875 80.617429,64.426875 80.607429,64.573875 C80.607429,64.708875 80.666429,64.846875 80.754429,64.933875 C80.852429,65.031875 80.988429,65.089875 81.124429,65.090875 C81.407429,65.079875 81.640429,64.825875 81.641429,64.573875 C81.641429,64.436875 81.583429,64.300875 81.485429,64.202875 C81.387429,64.104875 81.260429,64.055875 81.124429,64.056875 C80.987429,64.056875 80.861429,64.105875 80.763429,64.202875" id="Fill-299" fill="#333333"></path>
        <path d="M76.737429,63.628875 C77.011429,63.627875 77.254429,63.383875 77.254429,63.111875 C77.254429,62.974875 77.206429,62.847875 77.109429,62.750875 C77.000429,62.641875 76.874429,62.593875 76.737429,62.594875 C76.600429,62.594875 76.474429,62.642875 76.377429,62.740875 C76.279429,62.838875 76.220429,62.974875 76.220429,63.111875 C76.220429,63.246875 76.279429,63.383875 76.378429,63.481875 C76.475429,63.578875 76.601429,63.627875 76.737429,63.628875" id="Fill-300" fill="#333333"></path>
        <path d="M72.838429,66.493875 C72.701429,66.493875 72.574429,66.542875 72.477429,66.639875 C72.428429,66.688875 72.389429,66.748875 72.362429,66.812875 C72.682429,66.825875 73.002429,66.830875 73.322429,66.834875 C73.295429,66.765875 73.259429,66.699875 73.209429,66.649875 C73.111429,66.551875 72.993429,66.492875 72.838429,66.493875" id="Fill-301" fill="#333333"></path>
        <path d="M73.306429,62.126875 C73.296429,62.271875 73.344429,62.398875 73.443429,62.496875 C73.550429,62.603875 73.677429,62.652875 73.813429,62.653875 C74.086429,62.652875 74.329429,62.408875 74.329429,62.136875 C74.329429,61.999875 74.271429,61.863875 74.173429,61.765875 C74.086429,61.677875 73.949429,61.618875 73.813429,61.619875 C73.676429,61.619875 73.549429,61.667875 73.452429,61.765875 C73.354429,61.863875 73.296429,61.999875 73.306429,62.126875" id="Fill-302" fill="#333333"></path>
        <path d="M69.913429,63.628875 C70.187429,63.627875 70.430429,63.383875 70.430429,63.111875 C70.430429,62.973875 70.382429,62.847875 70.274429,62.740875 C70.176429,62.641875 70.049429,62.593875 69.913429,62.594875 C69.776429,62.594875 69.649429,62.642875 69.552429,62.739875 C69.454429,62.838875 69.396429,62.973875 69.396429,63.111875 C69.396429,63.246875 69.455429,63.383875 69.543429,63.471875 C69.641429,63.569875 69.777429,63.627875 69.913429,63.628875" id="Fill-303" fill="#333333"></path>
        <path d="M73.306429,59.201875 C73.286429,59.337875 73.344429,59.473875 73.442429,59.571875 C73.550429,59.679875 73.677429,59.727875 73.813429,59.728875 C74.086429,59.727875 74.329429,59.464875 74.339429,59.221875 C74.339429,59.084875 74.281429,58.948875 74.173429,58.840875 C74.075429,58.742875 73.939429,58.684875 73.813429,58.694875 C73.676429,58.694875 73.549429,58.743875 73.452429,58.840875 C73.354429,58.938875 73.296429,59.074875 73.306429,59.201875" id="Fill-304" fill="#333333"></path>
        <path d="M69.543429,60.546875 C69.641429,60.644875 69.777429,60.702875 69.913429,60.703875 C70.196429,60.693875 70.439429,60.429875 70.430429,60.186875 C70.430429,60.049875 70.372429,59.913875 70.274429,59.815875 C70.186429,59.727875 70.049429,59.668875 69.913429,59.669875 C69.776429,59.669875 69.650429,59.718875 69.553429,59.815875 C69.454429,59.913875 69.406429,60.040875 69.396429,60.186875 C69.397429,60.321875 69.455429,60.459875 69.543429,60.546875" id="Fill-305" fill="#333333"></path>
        <path d="M66.959429,50.925875 C66.959429,51.060875 67.018429,51.197875 67.106429,51.285875 C67.204429,51.383875 67.340429,51.441875 67.476429,51.442875 C67.759429,51.431875 68.002429,51.168875 67.993429,50.925875 C67.993429,50.788875 67.935429,50.652875 67.837429,50.554875 C67.749429,50.466875 67.612429,50.407875 67.486429,50.398875 C67.349429,50.397875 67.213429,50.457875 67.115429,50.554875 C67.017429,50.652875 66.959429,50.788875 66.959429,50.925875" id="Fill-306" fill="#333333"></path>
        <path d="M71.249429,50.066875 C71.151429,49.968875 71.024429,49.920875 70.888429,49.921875 C70.751429,49.921875 70.624429,49.969875 70.527429,50.066875 C70.429429,50.164875 70.371429,50.300875 70.371429,50.437875 C70.371429,50.573875 70.430429,50.710875 70.518429,50.797875 C70.616429,50.896875 70.752429,50.953875 70.888429,50.954875 C71.161429,50.954875 71.405429,50.710875 71.405429,50.437875 C71.405429,50.300875 71.356429,50.174875 71.249429,50.066875" id="Fill-307" fill="#333333"></path>
        <path d="M67.934429,48.000875 C67.934429,48.135875 67.993429,48.273875 68.081429,48.360875 C68.179429,48.458875 68.315429,48.516875 68.451429,48.517875 C68.724429,48.517875 68.968429,48.273875 68.968429,48.000875 C68.968429,47.863875 68.910429,47.727875 68.812429,47.629875 C68.714429,47.531875 68.587429,47.482875 68.451429,47.483875 C68.314429,47.483875 68.187429,47.532875 68.090429,47.629875 C67.992429,47.727875 67.934429,47.863875 67.934429,48.000875" id="Fill-308" fill="#333333"></path>
        <path d="M58.224429,54.785875 C58.088429,54.784875 57.951429,54.844875 57.854429,54.941875 C57.756429,55.039875 57.698429,55.175875 57.708429,55.301875 C57.689429,55.437875 57.746429,55.574875 57.844429,55.672875 C57.952429,55.780875 58.088429,55.837875 58.215429,55.829875 C58.488429,55.828875 58.740429,55.554875 58.732429,55.312875 C58.741429,55.184875 58.683429,55.048875 58.576429,54.941875 C58.477429,54.842875 58.342429,54.785875 58.224429,54.785875" id="Fill-309" fill="#333333"></path>
        <path d="M65.887429,45.679875 C65.789429,45.581875 65.653429,45.523875 65.526429,45.534875 C65.389429,45.533875 65.263429,45.582875 65.165429,45.679875 C65.067429,45.777875 65.009429,45.914875 65.020429,46.040875 C65.000429,46.176875 65.058429,46.312875 65.156429,46.411875 C65.264429,46.518875 65.390429,46.566875 65.526429,46.568875 C65.800429,46.567875 66.043429,46.323875 66.043429,46.051875 C66.053429,45.923875 65.995429,45.787875 65.887429,45.679875" id="Fill-310" fill="#333333"></path>
        <path d="M61.169429,47.026875 C61.169429,46.888875 61.120429,46.762875 61.013429,46.654875 C60.915429,46.556875 60.788429,46.507875 60.652429,46.509875 C60.515429,46.509875 60.388429,46.557875 60.291429,46.654875 C60.193429,46.752875 60.135429,46.888875 60.135429,47.026875 C60.135429,47.161875 60.184429,47.287875 60.282429,47.385875 C60.389429,47.493875 60.516429,47.541875 60.652429,47.542875 C60.925429,47.541875 61.169429,47.298875 61.169429,47.026875" id="Fill-311" fill="#333333"></path>
        <path d="M57.757429,59.211875 C57.757429,59.074875 57.708429,58.948875 57.601429,58.840875 C57.503429,58.742875 57.366429,58.684875 57.259429,58.694875 C57.113429,58.684875 56.976429,58.743875 56.879429,58.840875 C56.781429,58.938875 56.723429,59.074875 56.734429,59.201875 C56.713429,59.337875 56.771429,59.473875 56.870429,59.571875 C56.977429,59.679875 57.104429,59.727875 57.240429,59.728875 C57.523429,59.718875 57.766429,59.454875 57.757429,59.211875" id="Fill-312" fill="#333333"></path>
        <path d="M61.120429,58.713875 C61.110429,58.859875 61.158429,58.986875 61.256429,59.084875 C61.355429,59.182875 61.491429,59.240875 61.627429,59.241875 C61.900429,59.240875 62.152429,58.966875 62.144429,58.724875 C62.144429,58.587875 62.086429,58.451875 61.988429,58.353875 C61.890429,58.255875 61.763429,58.206875 61.646429,58.207875 C61.500429,58.197875 61.363429,58.256875 61.266429,58.353875 C61.168429,58.451875 61.110429,58.587875 61.120429,58.713875" id="Fill-313" fill="#333333"></path>
        <path d="M64.064429,62.653875 C64.356429,62.652875 64.590429,62.379875 64.581429,62.136875 C64.581429,61.999875 64.532429,61.872875 64.425429,61.765875 C64.327429,61.667875 64.191429,61.608875 64.083429,61.619875 C63.937429,61.609875 63.800429,61.667875 63.703429,61.765875 C63.605429,61.863875 63.557429,61.989875 63.558429,62.126875 C63.538429,62.261875 63.596429,62.398875 63.694429,62.496875 C63.801429,62.603875 63.928429,62.652875 64.064429,62.653875" id="Fill-314" fill="#333333"></path>
        <path d="M89.684429,39.958875 C89.684429,39.821875 89.635429,39.694875 89.527429,39.586875 C89.430429,39.488875 89.293429,39.430875 89.177429,39.431875 C89.040429,39.430875 88.903429,39.489875 88.806429,39.586875 C88.708429,39.685875 88.650429,39.821875 88.661429,39.947875 C88.640429,40.083875 88.698429,40.220875 88.796429,40.318875 C88.904429,40.425875 89.031429,40.474875 89.167429,40.475875 C89.440429,40.474875 89.693429,40.220875 89.684429,39.958875" id="Fill-315" fill="#333333"></path>
        <path d="M100.622429,52.358875 C100.484429,52.358875 100.358429,52.406875 100.261429,52.503875 C100.163429,52.602875 100.104429,52.738875 100.115429,52.864875 C100.105429,53.010875 100.153429,53.137875 100.262429,53.245875 C100.339429,53.323875 100.456429,53.370875 100.576429,53.382875 C100.753429,53.145875 100.922429,52.904875 101.092429,52.664875 C101.068429,52.610875 101.037429,52.558875 100.993429,52.514875 C100.884429,52.406875 100.748429,52.347875 100.622429,52.358875" id="Fill-316" fill="#333333"></path>
        <path d="M95.874429,55.915875 C95.776429,56.014875 95.718429,56.149875 95.718429,56.287875 C95.718429,56.422875 95.777429,56.559875 95.864429,56.647875 C95.962429,56.744875 96.098429,56.803875 96.234429,56.804875 C96.508429,56.803875 96.752429,56.559875 96.751429,56.287875 C96.752429,56.149875 96.703429,56.023875 96.596429,55.915875 C96.497429,55.817875 96.371429,55.769875 96.235429,55.770875 C96.097429,55.770875 95.971429,55.818875 95.874429,55.915875" id="Fill-317" fill="#333333"></path>
        <path d="M97.336429,52.503875 C97.238429,52.601875 97.180429,52.737875 97.180429,52.875875 C97.180429,53.010875 97.239429,53.147875 97.327429,53.235875 C97.425429,53.333875 97.561429,53.391875 97.697429,53.392875 C97.970429,53.391875 98.214429,53.147875 98.214429,52.875875 C98.214429,52.737875 98.165429,52.611875 98.058429,52.503875 C97.960429,52.405875 97.833429,52.357875 97.697429,52.358875 C97.560429,52.358875 97.433429,52.406875 97.336429,52.503875" id="Fill-318" fill="#333333"></path>
        <path d="M98.312429,50.320875 C98.409429,50.418875 98.536429,50.466875 98.672429,50.467875 C98.945429,50.466875 99.189429,50.222875 99.189429,49.950875 C99.189429,49.813875 99.140429,49.686875 99.043429,49.589875 C98.935429,49.481875 98.808429,49.432875 98.672429,49.433875 C98.535429,49.433875 98.408429,49.482875 98.311429,49.579875 C98.213429,49.677875 98.155429,49.813875 98.155429,49.950875 C98.155429,50.085875 98.214429,50.223875 98.312429,50.320875" id="Fill-319" fill="#333333"></path>
        <path d="M94.285429,53.820875 C94.148429,53.820875 94.021429,53.869875 93.924429,53.966875 C93.826429,54.064875 93.768429,54.200875 93.779429,54.327875 C93.758429,54.463875 93.817429,54.599875 93.914429,54.697875 C94.022429,54.804875 94.149429,54.853875 94.285429,54.854875 C94.558429,54.853875 94.811429,54.600875 94.802429,54.337875 C94.812429,54.209875 94.753429,54.073875 94.646429,53.966875 C94.548429,53.868875 94.412429,53.809875 94.285429,53.820875" id="Fill-320" fill="#333333"></path>
        <path d="M91.818429,57.262875 C91.818429,57.397875 91.867429,57.523875 91.965429,57.621875 C92.073429,57.729875 92.199429,57.777875 92.335429,57.779875 C92.608429,57.778875 92.852429,57.534875 92.852429,57.262875 C92.852429,57.124875 92.804429,56.998875 92.696429,56.890875 C92.598429,56.792875 92.471429,56.744875 92.335429,56.745875 C92.198429,56.744875 92.072429,56.793875 91.974429,56.890875 C91.876429,56.988875 91.818429,57.124875 91.818429,57.262875" id="Fill-321" fill="#333333"></path>
        <path d="M90.356429,52.875875 C90.356429,53.010875 90.415429,53.147875 90.502429,53.235875 C90.610429,53.342875 90.746429,53.400875 90.873429,53.392875 C91.146429,53.391875 91.398429,53.117875 91.399429,52.884875 C91.399429,52.747875 91.341429,52.611875 91.233429,52.503875 C91.135429,52.406875 91.009429,52.357875 90.883429,52.348875 C90.746429,52.347875 90.609429,52.406875 90.512429,52.503875 C90.414429,52.602875 90.356429,52.737875 90.356429,52.875875" id="Fill-322" fill="#333333"></path>
        <path d="M93.340429,49.950875 C93.339429,49.813875 93.291429,49.686875 93.183429,49.579875 C93.085429,49.481875 92.959429,49.432875 92.823429,49.433875 C92.685429,49.433875 92.559429,49.482875 92.462429,49.579875 C92.364429,49.677875 92.306429,49.813875 92.306429,49.950875 C92.306429,50.085875 92.365429,50.223875 92.452429,50.310875 C92.550429,50.408875 92.686429,50.466875 92.823429,50.467875 C93.096429,50.466875 93.340429,50.223875 93.340429,49.950875" id="Fill-323" fill="#333333"></path>
        <path d="M89.928429,47.513875 C89.928429,47.376875 89.879429,47.249875 89.771429,47.142875 C89.673429,47.044875 89.547429,46.995875 89.411429,46.996875 C89.273429,46.996875 89.147429,47.045875 89.050429,47.142875 C88.952429,47.240875 88.894429,47.376875 88.894429,47.513875 C88.894429,47.648875 88.953429,47.785875 89.040429,47.873875 C89.138429,47.971875 89.274429,48.029875 89.411429,48.030875 C89.684429,48.029875 89.927429,47.785875 89.928429,47.513875" id="Fill-324" fill="#333333"></path>
        <path d="M88.406429,44.101875 C88.406429,44.236875 88.465429,44.373875 88.563429,44.471875 C88.651429,44.559875 88.787429,44.617875 88.923429,44.618875 C89.196429,44.617875 89.440429,44.373875 89.440429,44.101875 C89.440429,43.964875 89.392429,43.837875 89.295429,43.740875 C89.186429,43.631875 89.059429,43.583875 88.923429,43.584875 C88.786429,43.584875 88.659429,43.632875 88.562429,43.730875 C88.464429,43.827875 88.406429,43.964875 88.406429,44.101875" id="Fill-325" fill="#333333"></path>
        <path d="M96.752429,46.538875 C96.752429,46.401875 96.693429,46.265875 96.595429,46.167875 C96.497429,46.069875 96.361429,46.010875 96.235429,46.021875 C96.097429,46.021875 95.971429,46.070875 95.874429,46.167875 C95.775429,46.265875 95.718429,46.401875 95.728429,46.528875 C95.708429,46.664875 95.766429,46.800875 95.864429,46.898875 C95.963429,46.996875 96.098429,47.054875 96.245429,47.045875 C96.518429,47.045875 96.741429,46.840875 96.752429,46.538875" id="Fill-326" fill="#333333"></path>
        <path d="M93.438429,32.773875 C93.340429,32.675875 93.202429,32.616875 93.076429,32.607875 C92.940429,32.606875 92.802429,32.665875 92.705429,32.762875 C92.607429,32.860875 92.549429,32.996875 92.550429,33.134875 C92.549429,33.269875 92.608429,33.406875 92.707429,33.504875 C92.794429,33.591875 92.930429,33.650875 93.067429,33.651875 C93.340429,33.650875 93.592429,33.377875 93.583429,33.134875 C93.583429,32.996875 93.535429,32.870875 93.438429,32.773875" id="Fill-327" fill="#333333"></path>
        <path d="M77.011429,50.194875 C77.020429,50.066875 76.962429,49.930875 76.854429,49.823875 C76.756429,49.724875 76.620429,49.667875 76.494429,49.677875 C76.357429,49.677875 76.230429,49.725875 76.133429,49.823875 C76.035429,49.921875 75.977429,50.057875 75.987429,50.183875 C75.967429,50.319875 76.025429,50.456875 76.123429,50.554875 C76.231429,50.662875 76.358429,50.710875 76.494429,50.711875 C76.767429,50.710875 77.020429,50.457875 77.011429,50.194875" id="Fill-328" fill="#333333"></path>
        <path d="M77.468429,53.635875 C77.742429,53.634875 77.985429,53.391875 77.985429,53.118875 C77.985429,52.981875 77.937429,52.855875 77.829429,52.747875 C77.731429,52.649875 77.605429,52.601875 77.469429,52.602875 C77.331429,52.601875 77.205429,52.650875 77.108429,52.747875 C77.010429,52.845875 76.951429,52.981875 76.952429,53.119875 C76.952429,53.253875 77.011429,53.391875 77.098429,53.478875 C77.196429,53.576875 77.332429,53.634875 77.468429,53.635875" id="Fill-329" fill="#333333"></path>
        <path d="M79.876429,55.068875 C79.876429,55.203875 79.925429,55.330875 80.023429,55.428875 C80.130429,55.536875 80.257429,55.584875 80.393429,55.585875 C80.666429,55.584875 80.910429,55.341875 80.910429,55.068875 C80.910429,54.931875 80.862429,54.804875 80.754429,54.697875 C80.656429,54.599875 80.529429,54.550875 80.393429,54.551875 C80.256429,54.551875 80.129429,54.600875 80.032429,54.697875 C79.934429,54.795875 79.876429,54.931875 79.876429,55.068875" id="Fill-330" fill="#333333"></path>
        <path d="M78.960429,57.018875 C78.960429,56.881875 78.912429,56.754875 78.804429,56.647875 C78.717429,56.559875 78.579429,56.500875 78.443429,56.501875 C78.306429,56.501875 78.180429,56.549875 78.083429,56.647875 C77.984429,56.745875 77.926429,56.881875 77.926429,57.018875 C77.926429,57.153875 77.985429,57.290875 78.073429,57.378875 C78.171429,57.476875 78.307429,57.534875 78.443429,57.535875 C78.717429,57.534875 78.960429,57.290875 78.960429,57.018875" id="Fill-331" fill="#333333"></path>
        <path d="M94.655429,59.084875 C94.557429,59.182875 94.499429,59.318875 94.499429,59.455875 C94.499429,59.507875 94.515429,59.558875 94.530429,59.608875 C94.777429,59.412875 95.020429,59.212875 95.262429,59.008875 C95.187429,58.966875 95.105429,58.938875 95.016429,58.938875 C94.879429,58.938875 94.752429,58.987875 94.655429,59.084875" id="Fill-332" fill="#333333"></path>
        <path d="M58.215429,46.080875 C58.488429,46.079875 58.741429,45.826875 58.732429,45.563875 C58.732429,45.426875 58.683429,45.300875 58.576429,45.192875 C58.488429,45.104875 58.351429,45.045875 58.215429,45.046875 C58.078429,45.046875 57.951429,45.095875 57.854429,45.192875 C57.756429,45.290875 57.698429,45.426875 57.708429,45.553875 C57.688429,45.689875 57.746429,45.825875 57.844429,45.923875 C57.952429,46.031875 58.079429,46.079875 58.215429,46.080875" id="Fill-333" fill="#333333"></path>
        <path d="M60.622429,42.639875 C60.623429,42.774875 60.682429,42.911875 60.780429,43.009875 C60.867429,43.097875 61.003429,43.155875 61.139429,43.156875 C61.413429,43.155875 61.656429,42.911875 61.656429,42.639875 C61.657429,42.502875 61.608429,42.375875 61.511429,42.278875 C61.402429,42.170875 61.276429,42.121875 61.139429,42.122875 C61.002429,42.122875 60.876429,42.170875 60.779429,42.267875 C60.681429,42.366875 60.623429,42.502875 60.622429,42.639875" id="Fill-334" fill="#333333"></path>
        <path d="M65.068429,40.201875 C65.068429,40.064875 65.020429,39.938875 64.923429,39.841875 C64.814429,39.732875 64.688429,39.684875 64.552429,39.685875 C64.414429,39.684875 64.288429,39.733875 64.191429,39.830875 C64.093429,39.928875 64.034429,40.064875 64.035429,40.202875 C64.035429,40.336875 64.094429,40.474875 64.192429,40.572875 C64.279429,40.659875 64.415429,40.717875 64.551429,40.718875 C64.825429,40.717875 65.069429,40.474875 65.068429,40.201875" id="Fill-335" fill="#333333"></path>
        <path d="M63.060429,36.302875 C63.060429,36.437875 63.119429,36.574875 63.217429,36.672875 C63.304429,36.760875 63.440429,36.818875 63.577429,36.819875 C63.850429,36.818875 64.094429,36.574875 64.094429,36.302875 C64.094429,36.165875 64.045429,36.038875 63.948429,35.941875 C63.839429,35.833875 63.713429,35.784875 63.577429,35.785875 C63.439429,35.785875 63.313429,35.834875 63.216429,35.931875 C63.118429,36.029875 63.060429,36.165875 63.060429,36.302875" id="Fill-336" fill="#333333"></path>
        <path d="M60.652429,39.743875 C60.925429,39.743875 61.169429,39.499875 61.169429,39.226875 C61.178429,39.099875 61.120429,38.963875 61.013429,38.855875 C60.915429,38.757875 60.778429,38.699875 60.652429,38.710875 C60.515429,38.709875 60.388429,38.758875 60.291429,38.855875 C60.193429,38.953875 60.135429,39.090875 60.146429,39.216875 C60.126429,39.352875 60.183429,39.488875 60.282429,39.587875 C60.389429,39.694875 60.516429,39.742875 60.652429,39.743875" id="Fill-337" fill="#333333"></path>
        <path d="M57.240429,42.181875 C57.513429,42.180875 57.757429,41.936875 57.757429,41.664875 C57.767429,41.536875 57.708429,41.400875 57.601429,41.292875 C57.503429,41.194875 57.367429,41.136875 57.240429,41.147875 C57.103429,41.147875 56.976429,41.195875 56.879429,41.293875 C56.781429,41.391875 56.723429,41.527875 56.733429,41.653875 C56.714429,41.789875 56.772429,41.926875 56.870429,42.024875 C56.977429,42.131875 57.104429,42.180875 57.240429,42.181875" id="Fill-338" fill="#333333"></path>
        <path d="M55.417429,37.881875 C55.319429,37.979875 55.261429,38.115875 55.271429,38.241875 C55.251429,38.377875 55.309429,38.514875 55.407429,38.612875 C55.515429,38.719875 55.642429,38.768875 55.778429,38.769875 C56.051429,38.768875 56.294429,38.504875 56.304429,38.261875 C56.304429,38.124875 56.246429,37.988875 56.138429,37.880875 C56.040429,37.782875 55.904429,37.724875 55.778429,37.735875 C55.641429,37.735875 55.514429,37.783875 55.417429,37.881875" id="Fill-339" fill="#333333"></path>
        <path d="M58.185429,37.277875 C58.185429,37.412875 58.244429,37.549875 58.332429,37.637875 C58.430429,37.735875 58.566429,37.793875 58.702429,37.794875 C58.976429,37.793875 59.219429,37.549875 59.219429,37.277875 C59.219429,37.140875 59.171429,37.013875 59.063429,36.906875 C58.965429,36.808875 58.838429,36.759875 58.702429,36.760875 C58.565429,36.760875 58.439429,36.808875 58.342429,36.906875 C58.243429,37.004875 58.185429,37.140875 58.185429,37.277875" id="Fill-340" fill="#333333"></path>
        <path d="M61.656429,31.915875 C61.666429,31.788875 61.608429,31.651875 61.500429,31.544875 C61.402429,31.446875 61.266429,31.388875 61.140429,31.398875 C61.002429,31.398875 60.876429,31.447875 60.779429,31.544875 C60.681429,31.642875 60.622429,31.778875 60.633429,31.905875 C60.613429,32.041875 60.671429,32.177875 60.769429,32.275875 C60.877429,32.383875 61.003429,32.431875 61.139429,32.432875 C61.412429,32.431875 61.656429,32.187875 61.656429,31.915875" id="Fill-341" fill="#333333"></path>
        <path d="M58.196429,33.367875 C58.176429,33.503875 58.234429,33.639875 58.332429,33.737875 C58.440429,33.845875 58.576429,33.903875 58.702429,33.894875 C58.976429,33.894875 59.219429,33.650875 59.219429,33.377875 C59.229429,33.250875 59.171429,33.114875 59.063429,33.006875 C58.965429,32.908875 58.829429,32.850875 58.702429,32.860875 C58.565429,32.860875 58.439429,32.909875 58.342429,33.006875 C58.244429,33.104875 58.185429,33.240875 58.196429,33.367875" id="Fill-342" fill="#333333"></path>
        <path d="M54.286429,32.402875 C54.286429,32.538875 54.345429,32.675875 54.443429,32.773875 C54.531429,32.861875 54.667429,32.919875 54.803429,32.919875 C55.076429,32.919875 55.320429,32.675875 55.320429,32.402875 C55.320429,32.266875 55.271429,32.139875 55.174429,32.042875 C55.065429,31.933875 54.939429,31.885875 54.803429,31.885875 C54.666429,31.885875 54.539429,31.934875 54.442429,32.031875 C54.344429,32.129875 54.286429,32.266875 54.286429,32.402875" id="Fill-343" fill="#333333"></path>
        <path d="M52.005429,32.518875 C51.907429,32.617875 51.848429,32.753875 51.849429,32.890875 C51.849429,33.025875 51.908429,33.162875 52.006429,33.260875 C52.093429,33.348875 52.230429,33.406875 52.366429,33.407875 C52.639429,33.406875 52.883429,33.162875 52.883429,32.890875 C52.882429,32.753875 52.834429,32.626875 52.737429,32.529875 C52.628429,32.421875 52.502429,32.372875 52.366429,32.373875 C52.229429,32.373875 52.102429,32.421875 52.005429,32.518875" id="Fill-344" fill="#333333"></path>
        <path d="M52.365429,29.507875 C52.639429,29.506875 52.882429,29.263875 52.882429,28.990875 C52.883429,28.853875 52.834429,28.727875 52.727429,28.619875 C52.629429,28.521875 52.502429,28.472875 52.366429,28.474875 C52.229429,28.473875 52.102429,28.522875 52.005429,28.619875 C51.907429,28.717875 51.849429,28.853875 51.849429,28.991875 C51.849429,29.126875 51.908429,29.263875 51.995429,29.350875 C52.093429,29.448875 52.230429,29.506875 52.365429,29.507875" id="Fill-345" fill="#333333"></path>
        <path d="M56.879429,27.644875 C56.781429,27.742875 56.723429,27.878875 56.723429,28.016875 C56.723429,28.151875 56.782429,28.288875 56.880429,28.386875 C56.968429,28.474875 57.104429,28.532875 57.240429,28.533875 C57.513429,28.532875 57.757429,28.288875 57.757429,28.016875 C57.757429,27.879875 57.708429,27.752875 57.611429,27.655875 C57.503429,27.546875 57.376429,27.498875 57.240429,27.499875 C57.103429,27.498875 56.976429,27.547875 56.879429,27.644875" id="Fill-346" fill="#333333"></path>
        <path d="M58.829429,25.695875 C58.731429,25.793875 58.673429,25.929875 58.673429,26.066875 C58.673429,26.201875 58.732429,26.338875 58.830429,26.436875 C58.927429,26.533875 59.054429,26.582875 59.190429,26.583875 C59.463429,26.582875 59.707429,26.338875 59.707429,26.066875 C59.706429,25.929875 59.658429,25.802875 59.561429,25.705875 C59.452429,25.597875 59.326429,25.548875 59.190429,25.549875 C59.053429,25.549875 58.926429,25.597875 58.829429,25.695875" id="Fill-347" fill="#333333"></path>
        <path d="M63.089429,28.533875 C63.362429,28.532875 63.606429,28.288875 63.606429,28.016875 C63.606429,27.879875 63.558429,27.752875 63.461429,27.655875 C63.352429,27.546875 63.225429,27.498875 63.089429,27.499875 C62.952429,27.499875 62.825429,27.547875 62.728429,27.644875 C62.630429,27.742875 62.572429,27.878875 62.572429,28.016875 C62.572429,28.151875 62.621429,28.277875 62.729429,28.386875 C62.826429,28.483875 62.953429,28.532875 63.089429,28.533875" id="Fill-348" fill="#333333"></path>
        <path d="M59.160429,19.730875 C59.160429,19.864875 59.219429,20.002875 59.317429,20.100875 C59.405429,20.187875 59.541429,20.245875 59.677429,20.246875 C59.950429,20.245875 60.194429,20.002875 60.194429,19.729875 C60.194429,19.592875 60.146429,19.466875 60.049429,19.368875 C59.940429,19.260875 59.813429,19.211875 59.677429,19.213875 C59.540429,19.212875 59.413429,19.261875 59.316429,19.358875 C59.218429,19.456875 59.160429,19.592875 59.160429,19.730875" id="Fill-349" fill="#333333"></path>
        <path d="M57.210429,22.654875 C57.210429,22.789875 57.259429,22.916875 57.357429,23.014875 C57.465429,23.121875 57.601429,23.179875 57.727429,23.171875 C58.001429,23.170875 58.254429,22.917875 58.244429,22.654875 C58.254429,22.526875 58.196429,22.390875 58.088429,22.283875 C57.990429,22.184875 57.864429,22.136875 57.727429,22.137875 C57.590429,22.137875 57.464429,22.185875 57.366429,22.283875 C57.269429,22.380875 57.210429,22.517875 57.210429,22.654875" id="Fill-350" fill="#333333"></path>
        <path d="M54.442429,26.182875 C54.344429,26.280875 54.286429,26.416875 54.286429,26.554875 C54.286429,26.688875 54.345429,26.826875 54.433429,26.913875 C54.531429,27.011875 54.667429,27.069875 54.803429,27.070875 C55.076429,27.069875 55.320429,26.826875 55.320429,26.553875 C55.320429,26.416875 55.271429,26.290875 55.164429,26.182875 C55.065429,26.084875 54.939429,26.035875 54.803429,26.037875 C54.666429,26.036875 54.539429,26.085875 54.442429,26.182875" id="Fill-351" fill="#333333"></path>
        <path d="M50.055429,25.695875 C49.957429,25.793875 49.908429,25.919875 49.899429,26.066875 C49.899429,26.201875 49.958429,26.338875 50.046429,26.426875 C50.144429,26.524875 50.280429,26.582875 50.416429,26.583875 C50.689429,26.582875 50.933429,26.338875 50.933429,26.066875 C50.933429,25.929875 50.875429,25.793875 50.777429,25.695875 C50.679429,25.597875 50.552429,25.548875 50.416429,25.549875 C50.279429,25.549875 50.143429,25.607875 50.055429,25.695875" id="Fill-352" fill="#333333"></path>
        <path d="M47.130429,23.745875 C47.032429,23.843875 46.984429,23.969875 46.974429,24.116875 C46.974429,24.251875 47.034429,24.388875 47.121429,24.476875 C47.219429,24.574875 47.346429,24.623875 47.491429,24.633875 C47.764429,24.632875 48.008429,24.388875 48.008429,24.116875 C48.008429,23.979875 47.960429,23.852875 47.852429,23.745875 C47.754429,23.647875 47.628429,23.598875 47.491429,23.599875 C47.354429,23.599875 47.218429,23.657875 47.130429,23.745875" id="Fill-353" fill="#333333"></path>
        <path d="M49.080429,22.770875 C48.982429,22.868875 48.934429,22.995875 48.924429,23.141875 C48.924429,23.276875 48.983429,23.414875 49.071429,23.501875 C49.169429,23.599875 49.305429,23.657875 49.441429,23.658875 C49.714429,23.657875 49.958429,23.414875 49.958429,23.141875 C49.958429,23.004875 49.900429,22.868875 49.802429,22.770875 C49.704429,22.672875 49.577429,22.624875 49.441429,22.624875 C49.304429,22.624875 49.168429,22.682875 49.080429,22.770875" id="Fill-354" fill="#333333"></path>
        <path d="M53.341429,22.683875 C53.614429,22.682875 53.858429,22.439875 53.858429,22.166875 C53.857429,22.029875 53.809429,21.903875 53.712429,21.806875 C53.603429,21.697875 53.467429,21.639875 53.341429,21.649875 C53.203429,21.649875 53.077429,21.698875 52.980429,21.795875 C52.881429,21.893875 52.823429,22.029875 52.834429,22.156875 C52.824429,22.301875 52.872429,22.428875 52.981429,22.537875 C53.068429,22.625875 53.204429,22.682875 53.341429,22.683875" id="Fill-355" fill="#333333"></path>
        <path d="M50.542429,18.383875 C50.445429,18.481875 50.396429,18.608875 50.387429,18.754875 C50.386429,18.890875 50.446429,19.027875 50.533429,19.114875 C50.641429,19.222875 50.767429,19.270875 50.903429,19.271875 C51.176429,19.270875 51.430429,19.017875 51.420429,18.754875 C51.430429,18.627875 51.372429,18.491875 51.264429,18.383875 C51.177429,18.296875 51.040429,18.237875 50.893429,18.227875 C50.766429,18.238875 50.630429,18.295875 50.542429,18.383875" id="Fill-356" fill="#333333"></path>
        <path d="M53.954429,16.921875 C53.857429,17.019875 53.798429,17.155875 53.799429,17.292875 C53.798429,17.427875 53.858429,17.564875 53.955429,17.662875 C54.043429,17.750875 54.179429,17.808875 54.315429,17.809875 C54.588429,17.808875 54.832429,17.564875 54.832429,17.292875 C54.832429,17.155875 54.784429,17.028875 54.687429,16.931875 C54.578429,16.823875 54.452429,16.774875 54.316429,16.775875 C54.178429,16.775875 54.052429,16.824875 53.954429,16.921875" id="Fill-357" fill="#333333"></path>
        <path d="M57.366429,15.459875 C57.269429,15.556875 57.210429,15.693875 57.211429,15.830875 C57.210429,15.965875 57.270429,16.102875 57.357429,16.190875 C57.455429,16.288875 57.591429,16.346875 57.727429,16.347875 C58.001429,16.346875 58.244429,16.102875 58.244429,15.830875 C58.244429,15.693875 58.196429,15.566875 58.088429,15.459875 C57.990429,15.360875 57.864429,15.312875 57.728429,15.313875 C57.590429,15.313875 57.464429,15.361875 57.366429,15.459875" id="Fill-358" fill="#333333"></path>
        <path d="M52.980429,12.047875 C52.882429,12.145875 52.824429,12.281875 52.834429,12.407875 C52.814429,12.543875 52.872429,12.680875 52.970429,12.778875 C53.078429,12.885875 53.205429,12.934875 53.341429,12.935875 C53.614429,12.934875 53.867429,12.681875 53.858429,12.418875 C53.867429,12.290875 53.809429,12.154875 53.701429,12.047875 C53.603429,11.948875 53.467429,11.890875 53.341429,11.901875 C53.204429,11.901875 53.077429,11.949875 52.980429,12.047875" id="Fill-359" fill="#333333"></path>
        <path d="M51.391429,15.859875 C51.664429,15.858875 51.908429,15.615875 51.908429,15.342875 C51.908429,15.205875 51.859429,15.079875 51.752429,14.971875 C51.653429,14.873875 51.527429,14.825875 51.391429,14.826875 C51.254429,14.825875 51.127429,14.874875 51.030429,14.971875 C50.932429,15.069875 50.874429,15.205875 50.874429,15.343875 C50.874429,15.477875 50.933429,15.615875 51.020429,15.702875 C51.118429,15.800875 51.255429,15.858875 51.391429,15.859875" id="Fill-360" fill="#333333"></path>
        <path d="M48.593429,17.408875 C48.495429,17.506875 48.437429,17.643875 48.437429,17.780875 C48.437429,17.915875 48.496429,18.052875 48.594429,18.150875 C48.681429,18.238875 48.818429,18.295875 48.953429,18.296875 C49.227429,18.296875 49.471429,18.052875 49.470429,17.779875 C49.470429,17.643875 49.422429,17.516875 49.325429,17.419875 C49.216429,17.310875 49.090429,17.262875 48.954429,17.263875 C48.817429,17.262875 48.690429,17.311875 48.593429,17.408875" id="Fill-361" fill="#333333"></path>
        <path d="M49.470429,12.905875 C49.470429,12.768875 49.422429,12.642875 49.325429,12.544875 C49.216429,12.436875 49.090429,12.387875 48.954429,12.388875 C48.817429,12.388875 48.690429,12.437875 48.593429,12.534875 C48.495429,12.632875 48.437429,12.768875 48.437429,12.905875 C48.437429,13.040875 48.496429,13.178875 48.594429,13.276875 C48.681429,13.363875 48.818429,13.421875 48.953429,13.422875 C49.227429,13.421875 49.470429,13.177875 49.470429,12.905875" id="Fill-362" fill="#333333"></path>
        <path d="M69.426429,12.388875 C69.289429,12.388875 69.162429,12.437875 69.065429,12.534875 C68.967429,12.632875 68.919429,12.759875 68.909429,12.905875 C68.909429,13.041875 68.968429,13.177875 69.055429,13.265875 C69.163429,13.373875 69.290429,13.421875 69.426429,13.422875 C69.699429,13.421875 69.951429,13.148875 69.943429,12.905875 C69.953429,12.778875 69.894429,12.642875 69.787429,12.534875 C69.699429,12.446875 69.562429,12.387875 69.426429,12.388875" id="Fill-373" fill="#333333"></path>
        <path d="M72.808429,13.880875 C72.808429,14.015875 72.867429,14.152875 72.955429,14.240875 C73.063429,14.348875 73.189429,14.396875 73.325429,14.397875 C73.608429,14.387875 73.851429,14.123875 73.842429,13.880875 C73.852429,13.753875 73.794429,13.617875 73.686429,13.509875 C73.598429,13.421875 73.461429,13.362875 73.335429,13.354875 C73.199429,13.353875 73.062429,13.412875 72.965429,13.509875 C72.866429,13.607875 72.809429,13.743875 72.808429,13.880875" id="Fill-374" fill="#333333"></path>
        <path d="M73.355429,20.217875 C73.355429,20.080875 73.297429,19.944875 73.199429,19.846875 C73.100429,19.747875 72.974429,19.699875 72.848429,19.690875 C72.711429,19.689875 72.574429,19.748875 72.477429,19.845875 C72.379429,19.944875 72.321429,20.080875 72.332429,20.206875 C72.311429,20.342875 72.369429,20.479875 72.467429,20.577875 C72.575429,20.684875 72.702429,20.733875 72.838429,20.734875 C73.111429,20.733875 73.363429,20.459875 73.355429,20.217875" id="Fill-375" fill="#333333"></path>
        <path d="M70.859429,16.805875 C70.859429,16.940875 70.918429,17.077875 71.005429,17.165875 C71.113429,17.272875 71.239429,17.321875 71.375429,17.322875 C71.658429,17.311875 71.901429,17.047875 71.892429,16.805875 C71.902429,16.677875 71.844429,16.541875 71.736429,16.434875 C71.649429,16.346875 71.512429,16.287875 71.385429,16.278875 C71.249429,16.277875 71.112429,16.336875 71.015429,16.433875 C70.917429,16.532875 70.859429,16.667875 70.859429,16.805875" id="Fill-376" fill="#333333"></path>
        <path d="M74.281429,19.231875 C74.261429,19.368875 74.319429,19.504875 74.417429,19.602875 C74.515429,19.700875 74.651429,19.758875 74.788429,19.759875 C75.061429,19.758875 75.324429,19.495875 75.305429,19.242875 C75.305429,19.105875 75.246429,18.969875 75.148429,18.871875 C75.050429,18.773875 74.914429,18.714875 74.797429,18.715875 C74.661429,18.714875 74.524429,18.774875 74.427429,18.871875 C74.329429,18.969875 74.271429,19.105875 74.281429,19.231875" id="Fill-377" fill="#333333"></path>
        <path d="M72.350429,23.171875 C72.624429,23.170875 72.867429,22.926875 72.867429,22.654875 C72.867429,22.517875 72.819429,22.390875 72.711429,22.283875 C72.613429,22.185875 72.487429,22.136875 72.350429,22.137875 C72.213429,22.137875 72.087429,22.185875 71.989429,22.283875 C71.891429,22.381875 71.833429,22.517875 71.833429,22.654875 C71.833429,22.789875 71.893429,22.926875 71.980429,23.014875 C72.078429,23.112875 72.214429,23.170875 72.350429,23.171875" id="Fill-378" fill="#333333"></path>
        <path d="M75.762429,23.658875 C76.045429,23.648875 76.288429,23.384875 76.279429,23.141875 C76.279429,23.004875 76.231429,22.878875 76.123429,22.770875 C76.035429,22.682875 75.899429,22.624875 75.772429,22.615875 C75.636429,22.614875 75.499429,22.673875 75.402429,22.770875 C75.304429,22.868875 75.245429,23.004875 75.245429,23.141875 C75.246429,23.276875 75.294429,23.403875 75.392429,23.501875 C75.500429,23.609875 75.636429,23.667875 75.762429,23.658875" id="Fill-379" fill="#333333"></path>
        <path d="M72.380429,26.066875 C72.380429,25.929875 72.331429,25.802875 72.234429,25.705875 C72.126429,25.597875 71.989429,25.538875 71.863429,25.549875 C71.726429,25.549875 71.599429,25.598875 71.502429,25.695875 C71.404429,25.793875 71.346429,25.929875 71.357429,26.055875 C71.337429,26.191875 71.394429,26.328875 71.503429,26.436875 C71.591429,26.524875 71.727429,26.582875 71.863429,26.583875 C72.136429,26.582875 72.380429,26.338875 72.380429,26.066875" id="Fill-380" fill="#333333"></path>
        <path d="M75.275429,28.045875 C75.548429,28.044875 75.792429,27.800875 75.792429,27.528875 C75.792429,27.391875 75.743429,27.265875 75.646429,27.167875 C75.538429,27.059875 75.411429,27.010875 75.275429,27.011875 C75.138429,27.011875 75.011429,27.060875 74.914429,27.157875 C74.816429,27.255875 74.758429,27.391875 74.758429,27.528875 C74.758429,27.663875 74.817429,27.801875 74.915429,27.899875 C75.003429,27.986875 75.139429,28.044875 75.275429,28.045875" id="Fill-381" fill="#333333"></path>
        <path d="M72.332429,29.955875 C72.321429,30.100875 72.369429,30.227875 72.478429,30.336875 C72.565429,30.423875 72.702429,30.481875 72.838429,30.482875 C73.111429,30.481875 73.355429,30.238875 73.355429,29.965875 C73.355429,29.828875 73.306429,29.702875 73.209429,29.605875 C73.100429,29.496875 72.964429,29.438875 72.838429,29.449875 C72.701429,29.448875 72.574429,29.497875 72.477429,29.594875 C72.379429,29.692875 72.321429,29.828875 72.332429,29.955875" id="Fill-382" fill="#333333"></path>
        <path d="M70.382429,31.905875 C70.362429,32.041875 70.420429,32.177875 70.518429,32.275875 C70.625429,32.383875 70.752429,32.431875 70.888429,32.432875 C71.161429,32.431875 71.415429,32.178875 71.405429,31.915875 C71.415429,31.788875 71.356429,31.651875 71.249429,31.544875 C71.151429,31.446875 71.015429,31.388875 70.888429,31.398875 C70.751429,31.398875 70.624429,31.447875 70.527429,31.544875 C70.429429,31.642875 70.371429,31.778875 70.382429,31.905875" id="Fill-383" fill="#333333"></path>
        <path d="M82.586429,20.734875 C82.860429,20.733875 83.112429,20.459875 83.103429,20.217875 C83.113429,20.089875 83.055429,19.953875 82.947429,19.846875 C82.849429,19.747875 82.723429,19.699875 82.596429,19.690875 C82.460429,19.689875 82.323429,19.748875 82.226429,19.845875 C82.128429,19.944875 82.069429,20.080875 82.070429,20.217875 C82.070429,20.352875 82.129429,20.489875 82.216429,20.577875 C82.324429,20.684875 82.450429,20.733875 82.586429,20.734875" id="Fill-384" fill="#333333"></path>
        <path d="M84.507429,18.754875 C84.507429,18.890875 84.555429,19.016875 84.653429,19.114875 C84.761429,19.222875 84.888429,19.270875 85.024429,19.271875 C85.306429,19.261875 85.549429,18.997875 85.541429,18.754875 C85.541429,18.617875 85.492429,18.491875 85.384429,18.383875 C85.287429,18.285875 85.160429,18.237875 85.033429,18.228875 C84.897429,18.227875 84.760429,18.286875 84.663429,18.383875 C84.565429,18.481875 84.507429,18.617875 84.507429,18.754875" id="Fill-385" fill="#333333"></path>
        <path d="M81.251429,17.896875 C81.153429,17.994875 81.095429,18.130875 81.095429,18.267875 C81.095429,18.402875 81.154429,18.539875 81.241429,18.627875 C81.339429,18.725875 81.475429,18.783875 81.612429,18.784875 C81.885429,18.783875 82.128429,18.519875 82.129429,18.267875 C82.129429,18.130875 82.080429,18.003875 81.973429,17.896875 C81.874429,17.798875 81.748429,17.749875 81.621429,17.740875 C81.485429,17.739875 81.348429,17.799875 81.251429,17.896875" id="Fill-386" fill="#333333"></path>
        <path d="M84.019429,15.342875 C84.019429,15.477875 84.078429,15.615875 84.166429,15.702875 C84.273429,15.810875 84.400429,15.858875 84.536429,15.859875 C84.819429,15.849875 85.052429,15.595875 85.053429,15.342875 C85.053429,15.205875 84.995429,15.069875 84.897429,14.971875 C84.809429,14.884875 84.672429,14.825875 84.546429,14.816875 C84.409429,14.815875 84.273429,14.874875 84.175429,14.971875 C84.077429,15.069875 84.019429,15.205875 84.019429,15.342875" id="Fill-387" fill="#333333"></path>
        <path d="M79.301429,13.996875 C79.203429,14.094875 79.145429,14.231875 79.145429,14.367875 C79.145429,14.503875 79.194429,14.629875 79.291429,14.727875 C79.399429,14.835875 79.535429,14.893875 79.662429,14.884875 C79.945429,14.874875 80.187429,14.610875 80.179429,14.367875 C80.188429,14.240875 80.130429,14.104875 80.023429,13.996875 C79.935429,13.909875 79.798429,13.850875 79.671429,13.841875 C79.535429,13.840875 79.398429,13.899875 79.301429,13.996875" id="Fill-388" fill="#333333"></path>
        <path d="M83.074429,13.422875 C83.347429,13.421875 83.599429,13.148875 83.591429,12.905875 C83.591429,12.768875 83.542429,12.642875 83.445429,12.544875 C83.337429,12.436875 83.210429,12.387875 83.084429,12.379875 C82.947429,12.378875 82.810429,12.437875 82.713429,12.534875 C82.615429,12.632875 82.557429,12.768875 82.568429,12.895875 C82.557429,13.040875 82.606429,13.167875 82.714429,13.276875 C82.811429,13.373875 82.938429,13.421875 83.074429,13.422875" id="Fill-389" fill="#333333"></path>
        <path d="M89.381429,11.930875 C89.381429,12.066875 89.440429,12.203875 89.528429,12.290875 C89.635429,12.398875 89.762429,12.446875 89.898429,12.447875 C90.181429,12.437875 90.423429,12.173875 90.415429,11.931875 C90.415429,11.793875 90.367429,11.667875 90.259429,11.559875 C90.171429,11.471875 90.034429,11.413875 89.908429,11.404875 C89.771429,11.403875 89.634429,11.462875 89.537429,11.559875 C89.439429,11.657875 89.381429,11.793875 89.381429,11.930875" id="Fill-391" fill="#333333"></path>
        <path d="M41.184429,29.965875 C41.194429,29.838875 41.136429,29.702875 41.028429,29.594875 C40.930429,29.496875 40.794429,29.438875 40.667429,29.448875 C40.640429,29.448875 40.615429,29.459875 40.589429,29.463875 C40.550429,29.791875 40.511429,30.118875 40.482429,30.446875 C40.541429,30.469875 40.603429,30.482875 40.667429,30.482875 C40.940429,30.482875 41.194429,30.228875 41.184429,29.965875" id="Fill-400" fill="#333333"></path>
        <path d="M44.109429,28.015875 C44.109429,27.878875 44.060429,27.752875 43.963429,27.655875 C43.855429,27.546875 43.718429,27.488875 43.592429,27.499875 C43.455429,27.499875 43.328429,27.547875 43.231429,27.644875 C43.133429,27.742875 43.075429,27.878875 43.085429,28.005875 C43.075429,28.151875 43.123429,28.277875 43.232429,28.386875 C43.329429,28.483875 43.456429,28.532875 43.592429,28.532875 C43.865429,28.532875 44.118429,28.278875 44.109429,28.015875" id="Fill-401" fill="#333333"></path>
        <path d="M42.159429,23.141875 C42.159429,23.038875 42.121429,22.943875 42.061429,22.856875 C41.976429,23.110875 41.892429,23.365875 41.814429,23.621875 C42.009429,23.545875 42.159429,23.354875 42.159429,23.141875" id="Fill-402" fill="#333333"></path>
        <path d="M41.769429,33.006875 C41.671429,33.104875 41.613429,33.240875 41.613429,33.377875 C41.613429,33.512875 41.672429,33.650875 41.759429,33.737875 C41.857429,33.835875 41.993429,33.893875 42.130429,33.894875 C42.403429,33.894875 42.656429,33.659875 42.656429,33.368875 C42.646429,33.221875 42.589429,33.104875 42.490429,33.006875 C42.403429,32.918875 42.266429,32.859875 42.130429,32.861875 C41.992429,32.860875 41.866429,32.909875 41.769429,33.006875" id="Fill-403" fill="#333333"></path>
        <path d="M45.181429,31.544875 C45.083429,31.642875 45.025429,31.778875 45.025429,31.915875 C45.025429,32.050875 45.073429,32.177875 45.171429,32.275875 C45.279429,32.383875 45.406429,32.431875 45.542429,32.432875 C45.815429,32.431875 46.058429,32.188875 46.058429,31.915875 C46.059429,31.778875 46.010429,31.651875 45.902429,31.544875 C45.805429,31.446875 45.678429,31.397875 45.542429,31.398875 C45.405429,31.398875 45.278429,31.447875 45.181429,31.544875" id="Fill-404" fill="#333333"></path>
        <path d="M43.086429,35.804875 C43.065429,35.940875 43.123429,36.076875 43.221429,36.174875 C43.329429,36.282875 43.465429,36.340875 43.592429,36.331875 C43.865429,36.331875 44.109429,36.087875 44.109429,35.814875 C44.118429,35.687875 44.060429,35.551875 43.953429,35.443875 C43.855429,35.345875 43.718429,35.287875 43.592429,35.298875 C43.455429,35.297875 43.328429,35.346875 43.231429,35.443875 C43.133429,35.541875 43.075429,35.678875 43.086429,35.804875" id="Fill-405" fill="#333333"></path>
        <path d="M47.462429,35.327875 C47.462429,35.462875 47.521429,35.600875 47.619429,35.697875 C47.706429,35.785875 47.842429,35.843875 47.989429,35.833875 C48.262429,35.834875 48.485429,35.610875 48.505429,35.317875 C48.496429,35.190875 48.438429,35.054875 48.350429,34.966875 C48.252429,34.868875 48.115429,34.809875 47.979429,34.810875 C47.842429,34.810875 47.715429,34.859875 47.618429,34.956875 C47.520429,35.054875 47.462429,35.190875 47.462429,35.327875" id="Fill-406" fill="#333333"></path>
        <path d="M47.618429,39.830875 C47.520429,39.928875 47.462429,40.064875 47.462429,40.202875 C47.462429,40.337875 47.510429,40.463875 47.608429,40.561875 C47.706429,40.659875 47.842429,40.718875 47.979429,40.718875 C48.252429,40.718875 48.496429,40.474875 48.496429,40.201875 C48.496429,40.064875 48.447429,39.938875 48.340429,39.830875 C48.241429,39.732875 48.115429,39.684875 47.979429,39.685875 C47.842429,39.684875 47.715429,39.733875 47.618429,39.830875" id="Fill-407" fill="#333333"></path>
        <path d="M49.441429,37.306875 C49.714429,37.306875 49.958429,37.062875 49.968429,36.780875 C49.958429,36.652875 49.900429,36.516875 49.812429,36.429875 C49.714429,36.331875 49.577429,36.272875 49.441429,36.273875 C49.304429,36.272875 49.177429,36.321875 49.080429,36.418875 C48.982429,36.516875 48.924429,36.652875 48.924429,36.790875 C48.924429,36.925875 48.983429,37.062875 49.081429,37.160875 C49.169429,37.247875 49.305429,37.306875 49.441429,37.306875" id="Fill-408" fill="#333333"></path>
        <path d="M49.928429,43.643875 C50.202429,43.642875 50.455429,43.389875 50.445429,43.126875 C50.446429,42.989875 50.397429,42.862875 50.300429,42.765875 C50.191429,42.657875 50.065429,42.608875 49.929429,42.609875 C49.791429,42.609875 49.665429,42.658875 49.568429,42.755875 C49.469429,42.853875 49.412429,42.989875 49.412429,43.126875 C49.412429,43.261875 49.471429,43.398875 49.569429,43.496875 C49.666429,43.593875 49.792429,43.642875 49.928429,43.643875" id="Fill-409" fill="#333333"></path>
        <path d="M49.441429,48.030875 C49.733429,48.029875 49.967429,47.756875 49.958429,47.513875 C49.958429,47.376875 49.900429,47.240875 49.802429,47.142875 C49.714429,47.054875 49.577429,46.995875 49.441429,46.996875 C49.304429,46.996875 49.177429,47.044875 49.080429,47.142875 C48.982429,47.240875 48.934429,47.366875 48.924429,47.513875 C48.924429,47.648875 48.983429,47.785875 49.071429,47.873875 C49.169429,47.971875 49.305429,48.029875 49.441429,48.030875" id="Fill-410" fill="#333333"></path>
        <path d="M51.878429,50.467875 C52.170429,50.466875 52.404429,50.193875 52.395429,49.950875 C52.395429,49.813875 52.337429,49.677875 52.239429,49.579875 C52.151429,49.491875 52.015429,49.432875 51.888429,49.424875 C51.751429,49.423875 51.614429,49.482875 51.517429,49.579875 C51.419429,49.677875 51.371429,49.803875 51.361429,49.950875 C51.361429,50.085875 51.420429,50.222875 51.508429,50.310875 C51.606429,50.408875 51.742429,50.466875 51.878429,50.467875" id="Fill-411" fill="#333333"></path>
        <path d="M67.847429,16.444875 C67.944429,16.541875 68.071429,16.590875 68.207429,16.590875 C68.480429,16.590875 68.733429,16.316875 68.724429,16.073875 C68.724429,15.937875 68.666429,15.800875 68.578429,15.713875 C68.481429,15.615875 68.343429,15.556875 68.217429,15.547875 C68.081429,15.546875 67.943429,15.605875 67.847429,15.702875 C67.748429,15.800875 67.690429,15.936875 67.691429,16.074875 C67.690429,16.209875 67.739429,16.335875 67.847429,16.444875" id="Fill-413" fill="#333333"></path>
        <path d="M44.781429,38.496875 C44.781429,38.631875 44.840429,38.768875 44.938429,38.866875 C45.026429,38.953875 45.162429,39.011875 45.298429,39.013875 C45.571429,39.011875 45.815429,38.768875 45.815429,38.496875 C45.815429,38.358875 45.766429,38.232875 45.669429,38.135875 C45.571429,38.037875 45.434429,37.978875 45.298429,37.979875 C45.161429,37.978875 45.034429,38.027875 44.937429,38.124875 C44.839429,38.222875 44.781429,38.358875 44.781429,38.496875" id="Fill-414" fill="#333333"></path>
        <path d="M45.327429,42.882875 C45.328429,42.745875 45.269429,42.609875 45.171429,42.511875 C45.084429,42.424875 44.947429,42.364875 44.820429,42.356875 C44.684429,42.355875 44.547429,42.414875 44.450429,42.511875 C44.351429,42.609875 44.303429,42.736875 44.294429,42.883875 C44.294429,43.017875 44.353429,43.155875 44.440429,43.242875 C44.538429,43.340875 44.674429,43.398875 44.810429,43.399875 C45.093429,43.389875 45.336429,43.125875 45.327429,42.882875" id="Fill-415" fill="#333333"></path>
        <polygon id="Fill-554" fill="#312A20" points="8.93642904 83.555875 107.191429 83.555875 107.191429 78.591875 8.93642904 78.591875"></polygon>
        <path d="M0.46342904,102.003875 C0.46342904,103.729875 0.78042904,103.841875 1.22842904,103.841875 C1.73542904,103.841875 1.99142904,103.637875 1.99142904,102.003875 C1.99142904,100.304875 1.69542904,100.160875 1.22842904,100.160875 C0.39842904,100.160875 0.46342904,101.128875 0.46342904,102.003875 Z M2.45242904,102.003875 C2.45242904,102.708875 2.57142904,104.256875 1.22842904,104.256875 C-0.11557096,104.256875 0.0034290396,102.761875 0.0034290396,102.003875 C0.0034290396,100.969875 -0.0495709604,99.745875 1.22842904,99.745875 C2.62442904,99.745875 2.45242904,101.509875 2.45242904,102.003875 Z" id="Fill-1205" fill="#312A20"></path>
        <polyline id="Fill-1206" fill="#312A20" points="5.04342904 100.337875 4.23942904 100.647875 4.10142904 100.245875 5.48442904 99.718875 5.48442904 103.801875 6.42642904 103.801875 6.42642904 104.197875 3.93642904 104.197875 3.93642904 103.801875 5.04342904 103.801875 5.04342904 100.337875"></polyline>
        <path d="M16.278429,102.003875 C16.278429,103.729875 16.594429,103.841875 17.042429,103.841875 C17.549429,103.841875 17.806429,103.637875 17.806429,102.003875 C17.806429,100.304875 17.510429,100.160875 17.042429,100.160875 C16.212429,100.160875 16.278429,101.128875 16.278429,102.003875 Z M18.267429,102.003875 C18.267429,102.708875 18.386429,104.256875 17.042429,104.256875 C15.698429,104.256875 15.817429,102.761875 15.817429,102.003875 C15.817429,100.969875 15.764429,99.745875 17.042429,99.745875 C18.438429,99.745875 18.267429,101.509875 18.267429,102.003875 Z" id="Fill-1207" fill="#312A20"></path>
        <path d="M19.771429,103.801875 L21.397429,101.700875 C21.601429,101.437875 21.766429,101.233875 21.766429,100.877875 C21.766429,100.463875 21.490429,100.160875 21.061429,100.160875 C20.541429,100.160875 20.278429,100.568875 20.212429,101.042875 L19.777429,100.983875 C19.883429,100.252875 20.284429,99.745875 21.061429,99.745875 C21.753429,99.745875 22.227429,100.166875 22.227429,100.864875 C22.227429,101.286875 22.016429,101.615875 21.766429,101.938875 L20.330429,103.801875 L22.221429,103.801875 L22.221429,104.197875 L19.771429,104.197875 L19.771429,103.801875" id="Fill-1208" fill="#312A20"></path>
        <path d="M32.093429,102.003875 C32.093429,103.729875 32.409429,103.841875 32.857429,103.841875 C33.364429,103.841875 33.620429,103.637875 33.620429,102.003875 C33.620429,100.304875 33.324429,100.160875 32.857429,100.160875 C32.027429,100.160875 32.093429,101.128875 32.093429,102.003875 Z M34.081429,102.003875 C34.081429,102.708875 34.200429,104.256875 32.857429,104.256875 C31.513429,104.256875 31.632429,102.761875 31.632429,102.003875 C31.632429,100.969875 31.579429,99.745875 32.857429,99.745875 C34.253429,99.745875 34.081429,101.509875 34.081429,102.003875 Z" id="Fill-1209" fill="#312A20"></path>
        <path d="M36.099429,101.536875 L37.396429,100.199875 L35.565429,100.199875 L35.565429,99.804875 L38.002429,99.804875 L38.002429,100.199875 L36.784429,101.443875 C37.469429,101.431875 38.055429,101.832875 38.055429,102.563875 C38.055429,103.149875 37.745429,103.604875 37.258429,103.900875 C36.896429,104.124875 36.467429,104.256875 35.624429,104.256875 L35.624429,103.841875 C36.349429,103.841875 36.659429,103.762875 36.889429,103.630875 C37.278429,103.420875 37.594429,103.037875 37.594429,102.577875 C37.594429,102.017875 37.100429,101.839875 36.613429,101.839875 C36.441429,101.839875 36.270429,101.872875 36.099429,101.892875 L36.099429,101.536875" id="Fill-1210" fill="#312A20"></path>
        <path d="M47.907429,102.003875 C47.907429,103.729875 48.223429,103.841875 48.671429,103.841875 C49.178429,103.841875 49.435429,103.637875 49.435429,102.003875 C49.435429,100.304875 49.139429,100.160875 48.671429,100.160875 C47.841429,100.160875 47.907429,101.128875 47.907429,102.003875 Z M49.896429,102.003875 C49.896429,102.708875 50.015429,104.256875 48.671429,104.256875 C47.328429,104.256875 47.446429,102.761875 47.446429,102.003875 C47.446429,100.969875 47.394429,99.745875 48.671429,99.745875 C50.067429,99.745875 49.896429,101.509875 49.896429,102.003875 Z" id="Fill-1211" fill="#312A20"></path>
        <polyline id="Fill-1212" fill="#312A20" points="51.373429 103.097875 52.025429 99.718875 52.467429 99.837875 51.900429 102.702875 53.092429 102.702875 53.092429 100.469875 53.533429 100.469875 53.533429 102.702875 53.883429 102.702875 53.883429 103.097875 53.533429 103.097875 53.533429 104.197875 53.092429 104.197875 53.092429 103.097875 51.373429 103.097875"></polyline>
        <path d="M63.721429,102.003875 C63.721429,103.729875 64.038429,103.841875 64.486429,103.841875 C64.993429,103.841875 65.249429,103.637875 65.249429,102.003875 C65.249429,100.304875 64.953429,100.160875 64.486429,100.160875 C63.656429,100.160875 63.721429,101.128875 63.721429,102.003875 Z M65.710429,102.003875 C65.710429,102.708875 65.829429,104.256875 64.486429,104.256875 C63.142429,104.256875 63.261429,102.761875 63.261429,102.003875 C63.261429,100.969875 63.208429,99.745875 64.486429,99.745875 C65.882429,99.745875 65.710429,101.509875 65.710429,102.003875 Z" id="Fill-1213" fill="#312A20"></path>
        <path d="M67.366429,99.804875 L69.618429,99.804875 L69.618429,100.199875 L67.807429,100.199875 L67.807429,101.549875 C68.024429,101.470875 68.228429,101.411875 68.459429,101.411875 C69.104429,101.411875 69.651429,101.846875 69.651429,102.577875 C69.651429,103.149875 69.348429,103.624875 68.874429,103.926875 C68.531429,104.144875 68.083429,104.256875 67.227429,104.256875 L67.227429,103.841875 C67.774429,103.841875 68.215429,103.808875 68.511429,103.650875 C68.907429,103.439875 69.190429,103.037875 69.190429,102.577875 C69.190429,102.109875 68.874429,101.826875 68.413429,101.826875 C68.136429,101.826875 67.919429,101.931875 67.682429,102.056875 L67.366429,102.056875 L67.366429,99.804875" id="Fill-1214" fill="#312A20"></path>
        <path d="M79.536429,102.003875 C79.536429,103.729875 79.852429,103.841875 80.300429,103.841875 C80.807429,103.841875 81.064429,103.637875 81.064429,102.003875 C81.064429,100.304875 80.768429,100.160875 80.300429,100.160875 C79.470429,100.160875 79.536429,101.128875 79.536429,102.003875 Z M81.525429,102.003875 C81.525429,102.708875 81.644429,104.256875 80.300429,104.256875 C78.956429,104.256875 79.075429,102.761875 79.075429,102.003875 C79.075429,100.969875 79.022429,99.745875 80.300429,99.745875 C81.696429,99.745875 81.525429,101.509875 81.525429,102.003875 Z" id="Fill-1215" fill="#312A20"></path>
        <path d="M84.260429,103.841875 C84.800429,103.841875 85.031429,103.367875 85.031429,102.833875 C85.031429,102.333875 84.879429,101.819875 84.293429,101.819875 C83.977429,101.819875 83.707429,102.037875 83.483429,102.247875 C83.490429,103.624875 83.858429,103.841875 84.260429,103.841875 Z M85.057429,100.489875 C84.853429,100.311875 84.636429,100.160875 84.352429,100.160875 C83.556429,100.160875 83.503429,101.174875 83.483429,101.760875 C83.746429,101.536875 84.010429,101.404875 84.359429,101.404875 C85.189429,101.404875 85.492429,102.089875 85.492429,102.814875 C85.492429,103.597875 85.070429,104.256875 84.227429,104.256875 C83.095429,104.256875 83.022429,102.886875 83.022429,102.049875 C83.022429,101.154875 83.134429,99.745875 84.333429,99.745875 C84.695429,99.745875 85.044429,99.883875 85.307429,100.126875 L85.057429,100.489875 Z" id="Fill-1216" fill="#312A20"></path>
        <path d="M95.351429,102.003875 C95.351429,103.729875 95.667429,103.841875 96.115429,103.841875 C96.622429,103.841875 96.878429,103.637875 96.878429,102.003875 C96.878429,100.304875 96.582429,100.160875 96.115429,100.160875 C95.285429,100.160875 95.351429,101.128875 95.351429,102.003875 Z M97.339429,102.003875 C97.339429,102.708875 97.458429,104.256875 96.115429,104.256875 C94.771429,104.256875 94.890429,102.761875 94.890429,102.003875 C94.890429,100.969875 94.837429,99.745875 96.115429,99.745875 C97.511429,99.745875 97.339429,101.509875 97.339429,102.003875 Z" id="Fill-1217" fill="#312A20"></path>
        <polyline id="Fill-1218" fill="#312A20" points="100.852429 100.199875 99.041429 100.199875 99.041429 99.804875 101.491429 99.804875 99.495429 104.282875 99.100429 104.104875 100.852429 100.199875"></polyline>
        <path d="M111.165429,102.003875 C111.165429,103.729875 111.481429,103.841875 111.929429,103.841875 C112.436429,103.841875 112.693429,103.637875 112.693429,102.003875 C112.693429,100.304875 112.397429,100.160875 111.929429,100.160875 C111.099429,100.160875 111.165429,101.128875 111.165429,102.003875 Z M113.154429,102.003875 C113.154429,102.708875 113.273429,104.256875 111.929429,104.256875 C110.586429,104.256875 110.704429,102.761875 110.704429,102.003875 C110.704429,100.969875 110.652429,99.745875 111.929429,99.745875 C113.325429,99.745875 113.154429,101.509875 113.154429,102.003875 Z" id="Fill-1219" fill="#312A20"></path>
        <path d="M116.535429,100.864875 C116.535429,100.469875 116.298429,100.160875 115.883429,100.160875 C115.468429,100.160875 115.231429,100.469875 115.231429,100.864875 C115.231429,101.306875 115.560429,101.477875 115.883429,101.694875 C116.205429,101.477875 116.535429,101.306875 116.535429,100.864875 Z M115.086429,103.097875 C115.086429,103.551875 115.441429,103.841875 115.883429,103.841875 C116.324429,103.841875 116.680429,103.551875 116.680429,103.097875 C116.680429,102.577875 116.271429,102.392875 115.883429,102.149875 C115.494429,102.392875 115.086429,102.577875 115.086429,103.097875 Z M117.140429,103.077875 C117.140429,103.795875 116.581429,104.256875 115.883429,104.256875 C115.185429,104.256875 114.625429,103.795875 114.625429,103.077875 C114.625429,102.464875 115.007429,102.175875 115.507429,101.924875 C115.105429,101.674875 114.770429,101.371875 114.770429,100.864875 C114.770429,100.225875 115.237429,99.745875 115.883429,99.745875 C116.528429,99.745875 116.996429,100.225875 116.996429,100.864875 C116.996429,101.371875 116.666429,101.674875 116.265429,101.924875 C116.759429,102.175875 117.140429,102.464875 117.140429,103.077875 Z" id="Fill-1220" fill="#312A20"></path>
        <path d="M0.60042904,15.743875 C0.60042904,17.976875 1.00942904,18.121875 1.58842904,18.121875 C2.24442904,18.121875 2.57742904,17.856875 2.57742904,15.743875 C2.57742904,13.545875 2.19342904,13.357875 1.58842904,13.357875 C0.51542904,13.357875 0.60042904,14.610875 0.60042904,15.743875 Z M3.17342904,15.743875 C3.17342904,16.654875 3.32742904,18.658875 1.58842904,18.658875 C-0.14957096,18.658875 0.0034290396,16.723875 0.0034290396,15.743875 C0.0034290396,14.405875 -0.0645709604,12.820875 1.58842904,12.820875 C3.39542904,12.820875 3.17342904,15.104875 3.17342904,15.743875 Z" id="Fill-1258" fill="#201600"></path>
        <path d="M6.71242904,18.121875 C7.41142904,18.121875 7.70942904,17.507875 7.70942904,16.817875 C7.70942904,16.169875 7.51342904,15.504875 6.75542904,15.504875 C6.34642904,15.504875 5.99742904,15.786875 5.70742904,16.058875 C5.71642904,17.840875 6.19342904,18.121875 6.71242904,18.121875 Z M7.74342904,13.783875 C7.47942904,13.553875 7.19842904,13.357875 6.83242904,13.357875 C5.80142904,13.357875 5.73342904,14.669875 5.70742904,15.428875 C6.04842904,15.138875 6.38942904,14.968875 6.84042904,14.968875 C7.91442904,14.968875 8.30642904,15.854875 8.30642904,16.791875 C8.30642904,17.805875 7.76042904,18.658875 6.67042904,18.658875 C5.20442904,18.658875 5.11042904,16.885875 5.11042904,15.802875 C5.11042904,14.644875 5.25542904,12.820875 6.80642904,12.820875 C7.27542904,12.820875 7.72642904,12.999875 8.06742904,13.314875 L7.74342904,13.783875 Z" id="Fill-1259" fill="#201600"></path>
        <path d="M0.60042904,36.205875 C0.60042904,38.438875 1.00942904,38.583875 1.58842904,38.583875 C2.24442904,38.583875 2.57742904,38.319875 2.57742904,36.205875 C2.57742904,34.007875 2.19342904,33.820875 1.58842904,33.820875 C0.51542904,33.820875 0.60042904,35.072875 0.60042904,36.205875 Z M3.17342904,36.205875 C3.17342904,37.117875 3.32742904,39.120875 1.58842904,39.120875 C-0.14957096,39.120875 0.0034290396,37.186875 0.0034290396,36.205875 C0.0034290396,34.868875 -0.0645709604,33.283875 1.58842904,33.283875 C3.39542904,33.283875 3.17342904,35.566875 3.17342904,36.205875 Z" id="Fill-1260" fill="#201600"></path>
        <polyline id="Fill-1261" fill="#201600" points="7.71842904 33.871875 5.37542904 33.871875 5.37542904 33.359875 8.54442904 33.359875 5.96342904 39.154875 5.45142904 38.924875 7.71842904 33.871875"></polyline>
        <path d="M0.60042904,56.668875 C0.60042904,58.901875 1.00942904,59.046875 1.58842904,59.046875 C2.24442904,59.046875 2.57742904,58.782875 2.57742904,56.668875 C2.57742904,54.470875 2.19342904,54.283875 1.58842904,54.283875 C0.51542904,54.283875 0.60042904,55.535875 0.60042904,56.668875 Z M3.17342904,56.668875 C3.17342904,57.580875 3.32742904,59.583875 1.58842904,59.583875 C-0.14957096,59.583875 0.0034290396,57.648875 0.0034290396,56.668875 C0.0034290396,55.330875 -0.0645709604,53.746875 1.58842904,53.746875 C3.39542904,53.746875 3.17342904,56.029875 3.17342904,56.668875 Z" id="Fill-1262" fill="#201600"></path>
        <path d="M7.54742904,55.194875 C7.54742904,54.683875 7.24142904,54.283875 6.70442904,54.283875 C6.16742904,54.283875 5.86042904,54.683875 5.86042904,55.194875 C5.86042904,55.765875 6.28642904,55.987875 6.70442904,56.268875 C7.12142904,55.987875 7.54742904,55.765875 7.54742904,55.194875 Z M5.67342904,58.083875 C5.67342904,58.671875 6.13342904,59.046875 6.70442904,59.046875 C7.27542904,59.046875 7.73542904,58.671875 7.73542904,58.083875 C7.73542904,57.410875 7.20742904,57.171875 6.70442904,56.856875 C6.20142904,57.171875 5.67342904,57.410875 5.67342904,58.083875 Z M8.33142904,58.057875 C8.33142904,58.986875 7.60742904,59.583875 6.70442904,59.583875 C5.80142904,59.583875 5.07642904,58.986875 5.07642904,58.057875 C5.07642904,57.265875 5.57142904,56.890875 6.21842904,56.566875 C5.69842904,56.242875 5.26442904,55.850875 5.26442904,55.194875 C5.26442904,54.367875 5.86942904,53.746875 6.70442904,53.746875 C7.53942904,53.746875 8.14442904,54.367875 8.14442904,55.194875 C8.14442904,55.850875 7.71842904,56.242875 7.19842904,56.566875 C7.83742904,56.890875 8.33142904,57.265875 8.33142904,58.057875 Z" id="Fill-1263" fill="#201600"></path>
    </g>
</svg>