<?xml version="1.0" encoding="UTF-8"?>
<svg width="96px" height="51px" viewBox="0 0 96 51" version="1.1" xmlns="http://www.w3.org/2000/svg" xmlns:xlink="http://www.w3.org/1999/xlink">
    <!-- Generator: Sketch 50.2 (55047) - http://www.bohemiancoding.com/sketch -->
    <title>Artboard</title>
    <desc>Created with Sketch.</desc>
    <defs></defs>
    <g id="Artboard" stroke="none" stroke-width="1" fill="none" fill-rule="evenodd">
        <polygon id="Fill-420" fill="#4057DF" points="56.399 50.568 63.457 50.568 63.457 0.1 56.399 0.1"></polygon>
        <polyline id="Fill-683" fill="#000000" points="89.235 7.719 90.019 6.936 95.342 12.259 94.558 13.037 89.235 7.719"></polyline>
        <polyline id="Fill-684" fill="#000000" points="89.235 12.259 94.558 6.936 95.342 7.719 90.019 13.037 89.235 12.259"></polyline>
        <polyline id="Fill-685" fill="#000000" points="89.235 20.374 90.019 19.59 95.342 24.913 94.558 25.691 89.235 20.374"></polyline>
        <polyline id="Fill-686" fill="#000000" points="89.235 24.913 94.558 19.59 95.342 20.374 90.019 25.691 89.235 24.913"></polyline>
        <polyline id="Fill-687" fill="#000000" points="89.235 33.028 90.019 32.244 95.342 37.566 94.558 38.344 89.235 33.028"></polyline>
        <polyline id="Fill-688" fill="#000000" points="89.235 37.566 94.558 32.244 95.342 33.028 90.019 38.344 89.235 37.566"></polyline>
        <polyline id="Fill-689" fill="#000000" points="76.849 7.719 77.632 6.936 82.949 12.259 82.171 13.037 76.849 7.719"></polyline>
        <polyline id="Fill-690" fill="#000000" points="76.849 12.259 82.171 6.936 82.949 7.719 77.632 13.037 76.849 12.259"></polyline>
        <polyline id="Fill-691" fill="#000000" points="76.849 20.374 77.632 19.59 82.949 24.913 82.171 25.691 76.849 20.374"></polyline>
        <polyline id="Fill-692" fill="#000000" points="76.849 24.913 82.171 19.59 82.949 20.374 77.632 25.691 76.849 24.913"></polyline>
        <polyline id="Fill-693" fill="#000000" points="76.849 33.028 77.632 32.244 82.949 37.566 82.171 38.344 76.849 33.028"></polyline>
        <polyline id="Fill-694" fill="#000000" points="76.849 37.566 82.171 32.244 82.949 33.028 77.632 38.344 76.849 37.566"></polyline>
        <path d="M0,21.769 C0,33.792 9.746,43.538 21.769,43.538 C33.791,43.538 43.538,33.792 43.538,21.769 C43.538,9.747 33.791,0 21.769,0 C9.746,0 0,9.747 0,21.769" id="Fill-1314" fill="#333333"></path>
        <path d="M40,28.132 C40.191,27.763 40.361,27.401 39.557,27.362 C39.714,27.562 39.593,27.854 39.515,28.132 L40,28.132" id="Fill-1315" fill="#FFFFFF"></path>
        <path d="M38.531,28.025 C38.691,27.987 38.859,27.972 39.044,28.004 C39.044,27.662 39.044,27.32 39.044,26.978 C38.839,26.991 38.674,27.052 38.531,27.138 L38.531,28.025" id="Fill-1316" fill="#FFFFFF"></path>
        <path d="M38.535,22.078 C38.534,22.08 38.533,22.082 38.531,22.084 C38.595,21.993 38.665,21.911 38.739,21.832 C38.667,21.909 38.597,21.99 38.535,22.078" id="Fill-1317" fill="#FFFFFF"></path>
        <path d="M39.033,21.562 C39.117,21.497 39.206,21.438 39.297,21.381 C39.206,21.438 39.117,21.497 39.033,21.562" id="Fill-1318" fill="#FFFFFF"></path>
        <path d="M42.67,18.138 C42.461,18.71 42.999,19.153 43.082,19.676 C43.105,19.82 42.71,20.131 42.688,20.112 C40.832,18.626 40.959,20.354 39.49,21.066 L39.449,21.291 C39.419,21.307 39.391,21.326 39.362,21.343 C39.763,21.108 40.22,20.946 40.687,20.809 C41.529,20.56 42.396,20.383 42.994,19.959 C43.189,19.821 43.315,19.62 43.405,19.383 C43.343,18.81 43.256,18.244 43.15,17.685 C42.935,17.776 42.757,17.901 42.67,18.138" id="Fill-1319" fill="#FFFFFF"></path>
        <path d="M38.794,21.776 C38.863,21.707 38.935,21.642 39.011,21.581 C38.935,21.642 38.863,21.707 38.794,21.776" id="Fill-1320" fill="#FFFFFF"></path>
        <path d="M39.604,24.822 C40.024,24.015 40.815,23.825 41.609,23.639 C41.23,23.453 40.995,22.814 41.097,22.23 C40.829,23.236 40.237,23.741 39.561,23.701 L39.559,24.942 C39.57,24.9 39.585,24.859 39.604,24.822" id="Fill-1321" fill="#FFFFFF"></path>
        <path d="M43.149,23.712 C43.241,23.712 43.346,23.695 43.451,23.666 C43.49,23.214 43.514,22.758 43.525,22.298 C42.9,22.193 42.703,23.001 42.355,23.441 C42.461,23.407 42.565,23.37 42.665,23.327 C42.749,23.291 42.976,23.712 43.149,23.712" id="Fill-1322" fill="#FFFFFF"></path>
        <path d="M42.355,23.441 C42.114,23.519 41.862,23.579 41.609,23.639 C41.623,23.645 41.636,23.656 41.65,23.662 C41.971,23.787 42.182,23.66 42.355,23.441" id="Fill-1323" fill="#FFFFFF"></path>
        <path d="M42.465,24.882 C42.553,25.395 42.8,25.75 43.117,26.038 C43.189,25.675 43.252,25.31 43.305,24.942 C43.05,24.839 42.775,24.799 42.465,24.882" id="Fill-1324" fill="#FFFFFF"></path>
        <path d="M38.531,13.595 L38.531,14.487 C38.576,14.511 38.634,14.53 38.711,14.538 C38.798,14.548 38.907,14.547 39.044,14.532 C38.871,14.191 38.703,13.849 38.531,13.506 C38.534,13.534 38.533,13.565 38.531,13.595" id="Fill-1325" fill="#FFFFFF"></path>
        <path d="M42.123,16.072 C42.233,15.464 42.111,15.029 41.691,14.472 C41.237,13.87 41.292,12.981 40.583,12.479 C40.183,13.603 41.263,14.424 41.213,15.565 C41.206,15.721 41.779,15.899 42.123,16.072" id="Fill-1326" fill="#FFFFFF"></path>
        <path d="M40.07,10.94 C40.025,10.963 39.98,10.985 39.934,11.008 C39.988,11.002 40.035,10.983 40.07,10.94" id="Fill-1327" fill="#FFFFFF"></path>
        <path d="M39.044,11.453 C39.34,11.304 39.637,11.157 39.934,11.008 C39.581,11.047 38.919,10.463 39.044,11.453" id="Fill-1328" fill="#FFFFFF"></path>
        <path d="M40.07,17.868 C40.678,17.979 41.251,17.994 41.61,17.355 C41.051,17.392 40.398,17.143 40.07,17.868" id="Fill-1329" fill="#FFFFFF"></path>
        <path d="M39.557,15.688 C39.215,15.732 38.857,15.744 38.531,15.819 L38.531,16.425 C38.923,16.28 39.284,16.073 39.557,15.688" id="Fill-1330" fill="#FFFFFF"></path>
        <path d="M38.531,24.062 L38.531,25.805 C38.627,25.824 38.736,25.831 38.849,25.831 C38.969,25.832 39.093,25.826 39.214,25.822 C39.335,25.818 39.452,25.815 39.557,25.822 L39.559,24.942 L39.561,23.701 C39.45,23.694 39.327,23.671 39.204,23.637 C38.966,23.57 38.722,23.458 38.531,23.328 L38.531,23.466 C38.588,23.663 38.577,23.863 38.531,24.062" id="Fill-1331" fill="#FFFFFF"></path>
        <path d="M39.449,21.291 L39.49,21.066 C39.29,21.162 38.928,20.847 38.531,20.729 L38.531,22.085 L38.531,22.084 C38.533,22.082 38.534,22.08 38.535,22.078 C38.597,21.99 38.667,21.909 38.739,21.832 C38.757,21.813 38.775,21.794 38.794,21.776 C38.863,21.707 38.935,21.642 39.011,21.581 C39.018,21.575 39.025,21.569 39.033,21.562 C39.117,21.497 39.206,21.438 39.297,21.381 C39.319,21.368 39.34,21.355 39.362,21.343 C39.391,21.326 39.419,21.307 39.449,21.291" id="Fill-1332" fill="#FFFFFF"></path>
        <path d="M38.715,35.428 C38.754,35.236 38.77,34.959 38.787,34.547 C38.849,33.034 40.07,31.467 40.07,30.057 C39.727,30.057 39.859,29.612 39.563,29.733 C38.759,30.063 38.651,30.758 38.531,31.487 L38.531,33.838 C38.584,33.9 38.627,33.97 38.648,34.055 C38.587,34.161 38.553,34.254 38.531,34.343 L38.531,35.658 C38.593,35.583 38.653,35.505 38.715,35.428" id="Fill-1333" fill="#FFFFFF"></path>
        <path d="M40.07,28.901 C39.653,28.776 39.834,28.451 40,28.132 L39.515,28.132 C39.417,28.483 39.386,28.811 40.07,28.901" id="Fill-1334" fill="#FFFFFF"></path>
        <path d="M17.542,27.35 C17.421,27.07 17.213,27.165 16.943,27.539 C16.889,27.613 16.832,27.699 16.773,27.796 C16.711,27.897 16.646,28.009 16.58,28.132 L17.319,28.132 L17.542,27.35" id="Fill-1335" fill="#FFFFFF"></path>
        <path d="M19.925,28.132 L21.615,28.132 C21.779,27.745 21.92,27.378 21.972,27.074 C21.597,27.153 20.465,27.876 20.121,28.042 C20.058,28.073 19.992,28.103 19.925,28.132" id="Fill-1336" fill="#FFFFFF"></path>
        <path d="M37.666,28.132 L38.214,28.132 C38.282,28.102 38.351,28.074 38.42,28.052 C38.457,28.041 38.494,28.034 38.531,28.025 L38.531,27.138 C38.146,27.369 37.933,27.8 37.666,28.132" id="Fill-1337" fill="#FFFFFF"></path>
        <path d="M6.323,28.132 L6.946,28.132 C6.945,27.908 6.894,27.673 6.713,27.491 C6.614,27.669 6.478,27.889 6.323,28.132" id="Fill-1338" fill="#FFFFFF"></path>
        <path d="M9.85,28.011 C9.809,27.625 9.392,27.351 8.893,27.491 C9.016,27.704 9.15,27.913 9.254,28.132 L9.839,28.132 C9.845,28.092 9.85,28.053 9.85,28.011" id="Fill-1339" fill="#FFFFFF"></path>
        <path d="M3.05,28.132 C3.242,27.763 3.411,27.401 2.607,27.362 C2.764,27.562 2.644,27.854 2.566,28.132 L3.05,28.132" id="Fill-1340" fill="#FFFFFF"></path>
        <path d="M11.965,28.132 L12.564,28.132 C12.852,27.181 13.141,26.18 13.726,25.737 C12.932,26.07 12.468,27.152 11.965,28.132" id="Fill-1341" fill="#FFFFFF"></path>
        <path d="M27.653,27.339 C26.917,27.371 26.189,27.381 25.6,26.826 C25.076,27.001 25.216,27.573 25.409,28.132 L26.626,28.132 C26.615,27.694 26.76,27.325 27.653,27.339" id="Fill-1342" fill="#FFFFFF"></path>
        <path d="M31.552,27.862 C31.223,27.806 30.843,28.193 30.372,28.123 C30.374,28.126 30.375,28.129 30.377,28.132 L31.959,28.132 C31.898,28 31.781,27.901 31.552,27.862" id="Fill-1343" fill="#FFFFFF"></path>
        <path d="M1.581,28.025 C1.741,27.987 1.909,27.972 2.094,28.004 C2.094,27.662 2.094,27.32 2.094,26.978 C1.889,26.991 1.725,27.052 1.581,27.138 L1.581,28.025" id="Fill-1344" fill="#FFFFFF"></path>
        <path d="M38.321,22.455 C38.271,22.562 38.224,22.674 38.187,22.796 C38.224,22.674 38.271,22.562 38.321,22.455" id="Fill-1345" fill="#FFFFFF"></path>
        <path d="M38.522,22.098 C38.463,22.184 38.409,22.278 38.359,22.376 C38.409,22.278 38.463,22.184 38.522,22.098" id="Fill-1346" fill="#FFFFFF"></path>
        <path d="M38.406,14.13 C38.385,14.247 38.388,14.352 38.451,14.428 C38.467,14.446 38.486,14.464 38.51,14.478 C38.516,14.482 38.524,14.484 38.531,14.487 L38.531,13.595 C38.517,13.76 38.437,13.957 38.406,14.13" id="Fill-1347" fill="#FFFFFF"></path>
        <path d="M38.531,15.819 C38.09,15.92 37.707,16.138 37.504,16.714 C37.848,16.622 38.2,16.546 38.531,16.425 L38.531,15.819" id="Fill-1348" fill="#FFFFFF"></path>
        <path d="M4.922,11.086 C5.094,11.086 5.272,11.121 5.43,11.069 C5.794,10.947 6.288,10.805 6.375,10.544 C6.461,10.284 6.121,9.889 5.948,9.546 C5.417,9.934 5.167,10.507 4.922,11.086" id="Fill-1349" fill="#FFFFFF"></path>
        <path d="M10.554,3.11 C10.439,3.179 10.326,3.253 10.211,3.325 C10.333,3.257 10.446,3.185 10.554,3.11" id="Fill-1350" fill="#FFFFFF"></path>
        <path d="M7.729,5.828 C7.932,5.81 8.1,5.265 8.241,4.907 C8.287,4.79 8.346,4.686 8.41,4.587 C8.089,4.838 7.775,5.097 7.468,5.364 C7.425,5.576 7.336,5.749 7.172,5.842 C7.123,5.87 7.048,5.854 6.96,5.819 C6.403,6.337 5.875,6.884 5.374,7.457 C5.479,7.914 5.867,8.329 6.678,8.606 C6.782,8.642 6.598,9.326 6.77,9.452 C7.23,9.792 7.773,9.292 8.252,9.016 C7.216,9.128 6.579,8.237 5.686,7.99 C6.086,7.001 6.361,5.952 7.729,5.828" id="Fill-1351" fill="#FFFFFF"></path>
        <path d="M14.301,2.848 C14.285,3.049 13.727,3.199 13.385,3.371 C13.556,3.542 13.724,3.827 13.898,3.827 C14.069,3.827 14.246,3.561 14.402,3.365 C14.949,2.681 15.091,1.792 14.857,1.127 C14.607,1.211 14.358,1.297 14.111,1.389 C14.304,1.844 14.34,2.366 14.301,2.848" id="Fill-1352" fill="#FFFFFF"></path>
        <path d="M16.582,4.407 C16.57,4.552 17.146,4.738 17.49,4.911 C17.212,4.433 16.745,3.92 17.039,3.407 C17.202,3.123 18.557,3.119 18.644,2.858 C18.731,2.598 17.479,2.087 17.582,1.877 C17.787,1.46 19.67,2.216 19.029,1.318 C16.207,0.292 16.794,1.74 16.582,4.407" id="Fill-1353" fill="#FFFFFF"></path>
        <path d="M19.029,4.397 C19.201,4.569 19.427,4.877 19.512,4.84 C20.056,5.038 20.957,3.998 20.451,3.487 C19.922,2.953 19.576,4.106 19.029,4.397" id="Fill-1354" fill="#FFFFFF"></path>
        <path d="M11.23,6.983 C10.461,7.239 11.125,8.355 11.283,9.023 C11.381,9.432 11.888,9.819 12.187,9.486 C12.677,8.94 11.516,7.468 13.283,7.496 C12.549,7.528 11.819,7.538 11.23,6.983" id="Fill-1355" fill="#FFFFFF"></path>
        <path d="M30.491,3.884 C30.812,3.335 31.275,2.881 31.685,2.392 C31.504,2.299 31.325,2.205 31.141,2.117 C30.945,2.693 30.673,3.295 30.491,3.884" id="Fill-1356" fill="#FFFFFF"></path>
        <path d="M22.793,2.216 L23.049,2.729 C23.306,3.499 24.204,3.628 24.858,2.413 C24.926,2.29 25.186,2.685 25.359,2.858 C26.04,2.103 25.561,0.875 26.02,0.454 C26.031,0.444 26.042,0.435 26.053,0.424 C25.768,0.367 25.481,0.316 25.192,0.27 C24.643,1.129 24.162,2.03 22.793,2.216" id="Fill-1357" fill="#FFFFFF"></path>
        <path d="M19.885,2.13 C21.273,2.325 21.482,1.191 21.536,0.082 C21.537,0.059 21.55,0.033 21.57,0.005 C21.557,0.005 21.544,0.006 21.53,0.006 C21.121,0.797 20.621,1.532 19.885,2.13" id="Fill-1358" fill="#FFFFFF"></path>
        <path d="M27.754,19.28 C28.361,19.391 28.934,19.406 29.293,18.767 C28.734,18.803 28.081,18.553 27.754,19.28" id="Fill-1359" fill="#FFFFFF"></path>
        <path d="M33.912,4.911 C33.912,4.569 33.819,4.185 33.958,3.907 C33.98,3.864 34.005,3.823 34.031,3.782 C33.807,3.63 33.579,3.484 33.35,3.34 C33.257,3.834 33.483,4.455 33.912,4.911" id="Fill-1360" fill="#FFFFFF"></path>
        <path d="M23.982,4.803 C23.768,4.856 23.603,5.076 23.414,5.23 C24.095,5.296 24.876,5.187 25.402,5.517 C25.534,5.599 25.392,6.109 25.359,6.45 C26.545,4.967 27.403,4.307 28.637,2.772 C28.661,2.741 29.111,1.865 29.283,1.333 C29.205,1.304 29.125,1.279 29.046,1.251 C27.97,2.454 26.593,4.572 25.368,5.277 C25.161,5.396 24.574,4.656 23.982,4.803" id="Fill-1361" fill="#FFFFFF"></path>
        <path d="M31.217,4.141 C30.018,5.268 28.077,5.283 27.197,6.758 C26.762,7.487 27.666,7.471 28.119,7.763 C28.533,8.03 28.821,8.417 29.164,8.76 C29.445,7.479 27.036,7.746 27.784,6.838 C28.341,6.167 28.821,5.559 29.25,5.322 C30.508,4.625 30.896,6.45 31.73,7.22 C31.587,6.46 31.679,5.621 32.286,5.27 C31.774,5.06 31.347,4.77 31.217,4.141" id="Fill-1362" fill="#FFFFFF"></path>
        <path d="M33.041,5.54 C32.772,5.343 32.446,5.177 32.296,5.262 C32.292,5.264 32.289,5.268 32.286,5.27 C32.526,5.369 32.785,5.45 33.041,5.54" id="Fill-1363" fill="#FFFFFF"></path>
        <path d="M33.694,8.217 C33.615,8.476 33.1,8.587 32.757,8.76 C33.701,8.907 33.896,7.421 34.809,8.76 C34.982,8.588 35.149,8.419 35.322,8.246 C34.466,8.419 34.444,7.738 34.322,7.214 C34.245,6.879 34.412,6.445 34.238,6.243 C33.929,5.883 33.49,5.698 33.041,5.54 C33.115,5.594 33.186,5.651 33.247,5.706 C34.014,6.4 33.949,7.401 33.694,8.217" id="Fill-1364" fill="#FFFFFF"></path>
        <path d="M22.961,6.415 C23.031,6.978 23.07,7.563 23.373,7.956 C23.469,8.078 24.087,7.751 24.228,7.891 C24.543,8.212 25.481,8.657 25.58,9.161 C25.883,8.927 26.383,8.707 26.385,8.459 C26.388,7.794 24.702,7.666 23.728,7.328 C23.37,7.203 23.082,6.85 22.961,6.415" id="Fill-1365" fill="#FFFFFF"></path>
        <path d="M22.961,6.415 C22.943,6.275 22.924,6.137 22.899,6.004 C22.902,6.146 22.924,6.284 22.961,6.415" id="Fill-1366" fill="#FFFFFF"></path>
        <path d="M21.084,5.141 C19.425,5.217 19.799,7.135 20.056,7.775 C20.44,8.417 21.355,8.768 21.018,7.667 C19.849,3.844 21.234,5.902 21.595,5.595 C21.423,5.423 21.249,5.134 21.084,5.141" id="Fill-1367" fill="#FFFFFF"></path>
        <path d="M8.067,13.413 C7.843,13.144 7.553,13.026 7.233,12.979 C7.231,12.984 7.228,12.988 7.226,12.993 C7.506,13.133 7.787,13.273 8.067,13.413" id="Fill-1368" fill="#FFFFFF"></path>
        <path d="M8.324,14.59 C8.327,14.582 8.328,14.572 8.331,14.564 C8.439,14.296 8.935,14.192 9.279,14.019 C8.874,13.817 8.47,13.615 8.067,13.413 C8.104,13.457 8.138,13.505 8.172,13.557 C8.332,13.812 8.374,14.275 8.324,14.59" id="Fill-1369" fill="#FFFFFF"></path>
        <path d="M5.405,23.441 C5.164,23.519 4.912,23.579 4.66,23.639 C4.674,23.645 4.686,23.656 4.701,23.662 C5.022,23.787 5.233,23.66 5.405,23.441" id="Fill-1370" fill="#FFFFFF"></path>
        <path d="M2.655,24.822 C3.074,24.015 3.865,23.825 4.66,23.639 C4.28,23.453 4.046,22.814 4.147,22.23 C3.879,23.236 3.288,23.741 2.611,23.701 L2.609,24.942 C2.62,24.9 2.635,24.859 2.655,24.822" id="Fill-1371" fill="#FFFFFF"></path>
        <path d="M1.585,22.078 C1.584,22.08 1.583,22.082 1.582,22.084 C1.645,21.993 1.716,21.911 1.79,21.832 C1.717,21.909 1.648,21.99 1.585,22.078" id="Fill-1372" fill="#FFFFFF"></path>
        <path d="M5.721,18.138 C5.511,18.71 6.05,19.153 6.133,19.676 C6.156,19.82 5.761,20.131 5.738,20.112 C3.882,18.626 4.01,20.354 2.54,21.066 L2.499,21.291 C2.47,21.307 2.441,21.326 2.412,21.343 C2.813,21.108 3.271,20.946 3.737,20.809 C4.579,20.56 5.446,20.383 6.045,19.959 C6.69,19.503 6.593,18.375 6.885,17.432 C6.827,17.464 6.76,17.493 6.682,17.519 C6.269,17.656 5.868,17.738 5.721,18.138" id="Fill-1373" fill="#FFFFFF"></path>
        <path d="M7.236,16.72 C7.256,16.695 7.272,16.668 7.294,16.643 C7.442,16.47 8.09,16.678 8.159,16.54 C8.402,16.053 8.169,15.36 8.267,14.796 C8.244,14.847 8.217,14.89 8.183,14.906 C7.063,15.465 7.235,16.166 7.236,16.72" id="Fill-1374" fill="#FFFFFF"></path>
        <path d="M2.083,21.562 C2.168,21.497 2.256,21.438 2.348,21.381 C2.256,21.438 2.168,21.497 2.083,21.562" id="Fill-1375" fill="#FFFFFF"></path>
        <path d="M1.845,21.776 C1.913,21.707 1.985,21.642 2.061,21.581 C1.985,21.642 1.913,21.707 1.845,21.776" id="Fill-1376" fill="#FFFFFF"></path>
        <path d="M5.686,12.993 C5.827,13.005 5.957,12.999 6.084,12.985 C5.95,12.992 5.816,12.996 5.686,12.993" id="Fill-1377" fill="#FFFFFF"></path>
        <path d="M6.2,23.712 C6.541,23.713 7.052,23.489 7.139,23.228 C7.225,22.969 6.943,22.401 6.684,22.319 C5.969,22.092 5.773,22.975 5.405,23.441 C5.511,23.407 5.616,23.37 5.716,23.327 C5.8,23.291 6.027,23.712 6.2,23.712" id="Fill-1378" fill="#FFFFFF"></path>
        <path d="M7.236,16.72 C7.075,16.933 6.964,17.175 6.885,17.432 C7.191,17.263 7.237,17.012 7.236,16.72" id="Fill-1379" fill="#FFFFFF"></path>
        <path d="M6.084,12.985 C6.472,12.966 6.871,12.927 7.233,12.979 C7.402,12.642 7.569,12.305 7.739,11.966 C7.274,12.479 6.767,12.909 6.084,12.985" id="Fill-1380" fill="#FFFFFF"></path>
        <path d="M8.324,14.59 C8.3,14.656 8.28,14.724 8.267,14.796 C8.293,14.741 8.311,14.671 8.324,14.59" id="Fill-1381" fill="#FFFFFF"></path>
        <path d="M10.742,24.413 C10.804,24.28 11.331,24.368 11.674,24.368 C11.463,23.246 12.136,21.663 13.161,21.973 C14.009,22.228 13.714,23.481 13.726,24.368 C14.869,23.131 13.34,22.661 13.808,21.85 C14.053,21.424 14.661,21.186 15.266,21.289 C15.266,20.947 15.266,20.605 15.266,20.263 C12.7,20.313 11.171,22.944 10.25,25.119 C10.443,24.914 10.614,24.686 10.742,24.413" id="Fill-1382" fill="#FFFFFF"></path>
        <path d="M8.565,25.824 C7.453,26.227 6.768,24.547 5.516,24.882 C5.763,26.321 7.243,26.524 8.081,27.447 C8.371,26.438 9.294,26.002 10.024,25.34 C9.719,25.187 9.414,25.036 9.108,24.882 C8.936,25.224 8.829,25.729 8.565,25.824" id="Fill-1383" fill="#FFFFFF"></path>
        <path d="M10.024,25.34 C10.061,25.358 10.097,25.376 10.134,25.395 C10.171,25.304 10.211,25.211 10.25,25.119 C10.178,25.195 10.102,25.269 10.024,25.34" id="Fill-1384" fill="#FFFFFF"></path>
        <path d="M1.581,14.487 C1.627,14.511 1.684,14.53 1.761,14.538 C1.848,14.548 1.958,14.547 2.094,14.532 C1.931,14.208 1.77,13.884 1.607,13.558 C1.598,13.58 1.59,13.603 1.581,13.625 L1.581,14.487" id="Fill-1385" fill="#FFFFFF"></path>
        <path d="M5.173,16.072 C5.284,15.464 5.161,15.029 4.741,14.472 C4.287,13.87 4.343,12.981 3.634,12.479 C3.233,13.603 4.314,14.424 4.263,15.565 C4.256,15.721 4.83,15.899 5.173,16.072" id="Fill-1386" fill="#FFFFFF"></path>
        <path d="M2.985,11.008 C2.944,11.012 2.9,11.008 2.854,11 C2.834,11.034 2.813,11.068 2.794,11.103 C2.857,11.072 2.921,11.04 2.985,11.008" id="Fill-1387" fill="#FFFFFF"></path>
        <path d="M2.985,11.008 C3.038,11.002 3.085,10.983 3.121,10.94 C3.075,10.963 3.03,10.985 2.985,11.008" id="Fill-1388" fill="#FFFFFF"></path>
        <path d="M10.714,10.992 C10.839,11.155 10.969,11.311 11.11,11.454 C11.016,11.285 10.898,11.1 10.819,10.94 C10.784,10.958 10.749,10.975 10.714,10.992" id="Fill-1389" fill="#FFFFFF"></path>
        <path d="M12.722,15.188 C13.089,15.506 13.497,15.793 13.898,16.072 C13.591,15.653 13.178,15.333 12.722,15.188" id="Fill-1390" fill="#FFFFFF"></path>
        <path d="M11.235,11.895 C10.396,13.021 10.835,14.041 10.927,15.036 C10.945,15.239 11.501,15.501 11.845,15.502 C12.016,15.502 12.195,15.094 12.352,15.109 C12.478,15.121 12.601,15.15 12.722,15.188 C11.928,14.501 11.323,13.673 11.385,12.483 C11.395,12.302 11.672,12.139 11.845,11.966 C11.554,11.85 11.319,11.667 11.11,11.454 C11.217,11.648 11.292,11.819 11.235,11.895" id="Fill-1391" fill="#FFFFFF"></path>
        <path d="M8.766,9.4 C9.107,10.086 9.449,10.769 9.792,11.453 C10.099,11.299 10.406,11.147 10.714,10.992 C10.192,10.309 9.743,9.538 8.766,9.4" id="Fill-1392" fill="#FFFFFF"></path>
        <path d="M14.68,14.85 C14.747,15.743 14.383,16.761 15.437,17.355 C15.335,16.627 15.393,15.967 15.677,15.234 C15.705,15.162 15.255,14.959 15.253,14.8 C15.252,14.776 15.255,14.755 15.255,14.732 C15.129,14.828 14.946,14.879 14.68,14.85" id="Fill-1393" fill="#FFFFFF"></path>
        <path d="M15.536,13.908 C15.376,14.117 15.263,14.377 15.255,14.732 C15.493,14.551 15.529,14.207 15.536,13.908" id="Fill-1394" fill="#FFFFFF"></path>
        <path d="M16.479,13.041 C16.691,12.784 16.408,12.194 16.466,11.761 C16.432,11.847 16.394,11.92 16.347,11.965 C15.23,13.044 15.54,13.228 15.538,13.73 C15.538,13.786 15.538,13.846 15.536,13.908 C15.816,13.546 16.235,13.337 16.479,13.041" id="Fill-1395" fill="#FFFFFF"></path>
        <path d="M16.498,11.616 C16.481,11.661 16.473,11.71 16.466,11.761 C16.492,11.696 16.517,11.624 16.539,11.544 C16.524,11.567 16.508,11.59 16.498,11.616" id="Fill-1396" fill="#FFFFFF"></path>
        <path d="M17.399,10.979 C17.211,10.824 17.027,10.673 16.838,10.517 C16.695,10.83 16.625,11.233 16.539,11.544 C16.695,11.301 17.103,11.165 17.399,10.979" id="Fill-1397" fill="#FFFFFF"></path>
        <path d="M17.108,14.23 C18.007,13.912 17.469,14.47 19.128,14.763 C19.087,14.382 18.928,13.803 19.063,13.724 C20.727,12.765 19.863,10.651 21.144,9.354 C20.906,9.303 20.673,9.251 20.435,9.199 C20.476,9.582 19.947,11.206 19.8,11.301 C18.625,12.072 20.431,12.004 19.691,12.926 C18.835,13.995 17.726,12.865 17.108,14.23" id="Fill-1398" fill="#FFFFFF"></path>
        <path d="M16.051,19.027 C16.207,19.154 17.398,18.718 16.856,18.27 C16.174,17.707 15.287,19.26 14.411,18.125 C14.238,18.467 14.07,18.808 13.898,19.151 C14.842,19.299 14.806,18.019 16.051,19.027" id="Fill-1399" fill="#FFFFFF"></path>
        <path d="M18.306,19.277 C17.731,20.245 16.82,20.575 16.397,21.679 C16.177,22.253 15.004,22.915 15.266,23.171 C16.163,24.046 15.618,23.975 15.76,24.838 C15.827,25.238 16.226,25.501 16.724,25.361 C15.994,24.214 15.507,23.804 16.219,22.328 C16.352,22.05 17.053,21.965 17.063,21.774 C17.192,19.322 18.927,20.862 19.124,19.71 C19.178,19.392 18.503,18.944 18.306,19.277" id="Fill-1400" fill="#FFFFFF"></path>
        <path d="M20.563,20.147 C20.758,19.606 22.109,20.02 21.595,18.894 C21.844,19.802 19.828,18.839 20.563,20.147" id="Fill-1401" fill="#FFFFFF"></path>
        <path d="M22.622,15.815 C22.538,15.835 22.475,16.238 22.544,16.449 C22.733,17.029 23.55,17.037 23.744,17.424 C24.115,18.153 23.33,18.812 22.855,19.432 C23.201,19.599 23.543,19.767 23.888,19.933 C24.054,19.587 24.402,19.171 24.296,18.943 C23.604,17.47 24.506,15.947 24.951,14.581 C25.623,14.871 26.161,14.562 26.436,14.025 C27.067,12.791 28.386,10.888 28.521,9.449 C28.144,9.52 27.558,9.527 27.508,9.7 C26.88,11.89 25.073,15.265 22.622,15.815" id="Fill-1402" fill="#FFFFFF"></path>
        <path d="M21.675,12.993 C21.76,13.328 21.468,13.756 21.841,14.116 C22.446,12.634 22.471,10.944 24.088,9.827 C23.439,9.367 23.001,9.912 22.5,10.162 C23.278,11.366 21.357,11.75 21.675,12.993" id="Fill-1403" fill="#FFFFFF"></path>
        <path d="M29.295,23.936 C29.368,23.982 29.44,24.029 29.509,24.078 C29.446,24.025 29.374,23.977 29.295,23.936" id="Fill-1404" fill="#FFFFFF"></path>
        <path d="M24.115,25.402 C24.644,25.663 25.107,26.223 25.706,26.27 C26.034,26.296 26.416,26.048 26.706,25.799 C27.497,25.121 26.883,23.854 28.265,23.75 C28.635,23.723 29.01,23.789 29.295,23.936 C28.674,23.548 27.933,23.292 27.241,23.257 C27.557,24.601 26.721,25.01 26.173,25.145 C25.713,25.259 24.309,24.067 24.715,23.278 C25.176,22.382 26.642,22.108 26.898,21.118 C26.997,20.739 27.482,19.833 26.461,20.182 C24.852,20.731 25.385,23.224 23.135,22.743 C24.14,23.012 24.602,23.593 24.625,24.285 C24.645,24.886 24.266,25.172 23.839,25.408 C23.949,25.378 24.049,25.369 24.115,25.402" id="Fill-1405" fill="#FFFFFF"></path>
        <path d="M29.713,24.329 C30.205,25.329 29.428,26.652 28.267,26.849 C28.924,27.125 29.832,27.608 30.193,27.239 C31.267,26.136 30.644,24.881 29.509,24.078 C29.595,24.151 29.666,24.234 29.713,24.329" id="Fill-1406" fill="#FFFFFF"></path>
        <path d="M23.369,25.664 C23.521,25.577 23.683,25.495 23.839,25.408 C23.682,25.453 23.506,25.547 23.369,25.664" id="Fill-1407" fill="#FFFFFF"></path>
        <path d="M23.369,25.664 C23.067,25.836 22.808,26.034 22.733,26.362 C22.645,26.744 22.789,27.538 23.648,27.362 C23.008,27.004 22.899,26.376 23.196,25.86 C23.235,25.792 23.297,25.725 23.369,25.664" id="Fill-1408" fill="#FFFFFF"></path>
        <path d="M28.609,13.334 C28.437,13.507 28.268,13.675 28.096,13.848 C28.309,13.968 28.461,14.144 28.564,14.33 C28.539,14.004 28.545,13.673 28.609,13.334" id="Fill-1409" fill="#FFFFFF"></path>
        <path d="M28.564,14.33 C28.582,14.577 28.62,14.821 28.67,15.064 C28.743,14.876 28.709,14.594 28.564,14.33" id="Fill-1410" fill="#FFFFFF"></path>
        <path d="M28.531,15.242 C27.107,15.998 27.897,16.861 27.069,17.44 C27.411,17.269 27.729,17.05 28.102,16.956 C28.432,16.872 28.779,16.927 29.122,16.927 C28.996,16.303 28.797,15.689 28.67,15.064 C28.64,15.141 28.597,15.207 28.531,15.242" id="Fill-1411" fill="#FFFFFF"></path>
        <path d="M31.346,15.73 C31.518,15.388 31.801,15.047 31.802,14.703 C31.802,14.19 31.518,13.679 31.346,13.164 C31.377,13.899 31.255,14.55 30.902,15.252 C30.867,15.321 31.173,15.557 31.346,15.73" id="Fill-1412" fill="#FFFFFF"></path>
        <path d="M31.028,9.333 C30.702,9.007 30.149,9.424 30.144,9.787 C30.139,10.227 30.213,11.019 31.085,10.798 C31.623,10.663 32.114,10.472 32.629,10.299 C31.033,10.498 31.374,9.68 31.028,9.333" id="Fill-1413" fill="#FFFFFF"></path>
        <path d="M32.458,12.479 C33.111,13.134 33.341,11.66 33.822,11.115 C33.224,11.548 31.796,11.819 32.458,12.479" id="Fill-1414" fill="#FFFFFF"></path>
        <path d="M33.5,23.236 C33.525,23.356 33.724,23.448 33.918,23.529 C33.944,22.902 33.994,22.283 34.425,21.717 C32.764,22.232 33.401,22.765 33.5,23.236" id="Fill-1415" fill="#FFFFFF"></path>
        <path d="M32.372,25.309 C32.372,25.652 32.292,26.188 32.412,26.237 C33.353,26.621 33.598,25.641 33.75,24.974 C33.37,25.264 32.853,25.335 32.372,25.309" id="Fill-1416" fill="#FFFFFF"></path>
        <path d="M33.75,24.974 C34.058,24.738 34.276,24.358 34.308,23.764 C34.311,23.686 34.117,23.613 33.918,23.529 C33.901,23.944 33.894,24.361 33.797,24.769 C33.782,24.832 33.766,24.902 33.75,24.974" id="Fill-1417" fill="#FFFFFF"></path>
        <path d="M34.798,14.559 C34.786,14.703 35.362,14.889 35.705,15.063 C35.428,14.585 34.96,14.072 35.254,13.559 C35.418,13.274 36.773,13.271 36.859,13.01 C36.946,12.751 35.695,12.24 35.798,12.029 C36.003,11.611 37.886,12.369 37.245,11.47 C34.423,10.444 35.008,11.893 34.798,14.559" id="Fill-1418" fill="#FFFFFF"></path>
        <path d="M32.338,16.302 C33.295,17.371 32.126,18.741 31.518,19.625 C31.497,19.656 31.459,19.675 31.416,19.689 C32.07,19.766 32.725,19.872 33.069,19.135 C33.105,19.06 32.674,18.816 32.69,18.662 C32.74,18.193 32.771,17.483 33.655,17.611 C33.997,17.662 34.336,17.629 34.679,17.629 C34.313,16.496 33.063,16.835 32.338,16.302" id="Fill-1419" fill="#FFFFFF"></path>
        <path d="M30.574,19.681 C30.852,19.681 31.223,19.753 31.416,19.689 C31.126,19.656 30.836,19.628 30.574,19.681" id="Fill-1420" fill="#FFFFFF"></path>
        <path d="M32.113,16.089 C32.179,16.174 32.256,16.242 32.338,16.302 C32.273,16.23 32.199,16.158 32.113,16.089" id="Fill-1421" fill="#FFFFFF"></path>
        <path d="M29.384,22.456 C29.125,22.542 29.115,22.03 28.772,22.03 C28.6,22.029 28.046,22.37 27.873,22.543 C28.972,22.803 30.162,22.462 31.209,22.415 C31.725,22.39 32.039,22.169 32.457,21.96 C32.736,21.822 32.832,21.346 33.005,21.003 C31.965,21.095 31.018,21.569 29.931,21.627 C29.742,21.637 29.645,22.37 29.384,22.456" id="Fill-1422" fill="#FFFFFF"></path>
        <path d="M36.109,17.022 C34.959,17.252 35.992,18.844 35.058,19.464 C35.306,19.824 35.822,20.23 35.965,19.921 C36.498,18.768 37.125,18.533 37.624,17.411 C37.019,17.515 36.532,16.938 36.109,17.022" id="Fill-1423" fill="#FFFFFF"></path>
        <path d="M13.213,8.802 C13.492,8.802 13.865,8.874 14.056,8.81 C13.766,8.776 13.476,8.748 13.213,8.802" id="Fill-1424" fill="#FFFFFF"></path>
        <path d="M14.753,5.209 C14.819,5.295 14.896,5.363 14.977,5.423 C14.913,5.35 14.838,5.279 14.753,5.209" id="Fill-1425" fill="#FFFFFF"></path>
        <path d="M14.158,8.746 C14.136,8.776 14.099,8.795 14.056,8.81 C14.71,8.886 15.365,8.991 15.71,8.256 C15.745,8.18 15.313,7.936 15.33,7.782 C15.379,7.313 15.41,6.604 16.294,6.732 C16.637,6.782 16.975,6.749 17.319,6.749 C16.952,5.617 15.704,5.955 14.977,5.423 C15.934,6.491 14.765,7.863 14.158,8.746" id="Fill-1426" fill="#FFFFFF"></path>
        <path d="M12.871,12.223 C13.625,12.022 14.422,11.906 14.924,11.196 C14.121,11.301 13.225,11.221 12.871,12.223" id="Fill-1427" fill="#FFFFFF"></path>
        <path d="M3.121,17.868 C3.728,17.979 4.301,17.994 4.66,17.355 C4.102,17.392 3.448,17.143 3.121,17.868" id="Fill-1428" fill="#FFFFFF"></path>
        <path d="M20.312,15.045 C20.718,16.555 20.018,17.981 18.26,17.611 C18.738,17.889 19.212,18.296 19.787,18.092 C19.996,18.017 19.977,17.919 20.294,17.601 C20.701,16.926 21.224,16.244 21.224,15.559 C21.224,15.387 20.655,15.219 20.312,15.045" id="Fill-1429" fill="#FFFFFF"></path>
        <path d="M12.801,17.364 C12.759,16.976 12.342,16.702 11.845,16.842 C12.121,17.32 12.462,17.777 12.358,18.381 C12.53,18.04 12.801,17.74 12.801,17.364" id="Fill-1430" fill="#FFFFFF"></path>
        <path d="M2.607,15.688 C2.266,15.732 1.907,15.744 1.581,15.819 L1.581,16.425 C1.974,16.28 2.335,16.073 2.607,15.688" id="Fill-1431" fill="#FFFFFF"></path>
        <path d="M37.525,6.757 C37.451,7.157 37.358,7.545 37.233,7.892 C37.03,8.455 36.018,8.844 36.022,9.529 C36.022,9.551 36.026,9.572 36.034,9.594 C36.091,9.744 36.326,9.892 36.478,10.042 C36.625,9.788 36.765,9.581 36.895,9.394 C36.96,9.3 37.022,9.212 37.081,9.124 C37.14,9.037 37.196,8.951 37.248,8.864 C37.301,8.776 37.35,8.686 37.395,8.592 C37.44,8.497 37.482,8.396 37.519,8.287 C37.556,8.178 37.588,8.059 37.617,7.929 C37.645,7.799 37.668,7.656 37.687,7.497 C37.698,7.401 37.814,7.319 37.971,7.234 C37.826,7.072 37.675,6.915 37.525,6.757" id="Fill-1432" fill="#FFFFFF"></path>
        <path d="M38.531,20.729 C38.366,20.68 38.196,20.665 38.03,20.727 C37.345,20.981 37.638,21.847 37.381,22.112 C36.894,22.615 36.424,23.126 36.021,23.672 C35.887,23.854 35.76,24.04 35.642,24.231 C35.525,24.423 35.416,24.619 35.319,24.822 C35.028,25.429 34.837,26.092 34.795,26.841 C34.779,27.105 33.5,27.232 34.027,27.759 C34.552,28.283 34.806,27.368 34.903,26.843 C34.924,26.73 34.95,26.621 34.981,26.516 C35.042,26.306 35.123,26.111 35.218,25.927 C35.74,24.915 36.692,24.242 37.246,23.292 C37.347,23.12 37.435,22.938 37.504,22.743 C37.749,22.867 38.057,22.952 38.268,23.092 C38.192,22.993 38.158,22.891 38.187,22.796 C38.224,22.674 38.271,22.562 38.321,22.455 C38.333,22.428 38.346,22.402 38.359,22.376 C38.409,22.278 38.463,22.184 38.522,22.098 C38.525,22.094 38.528,22.089 38.531,22.085 L38.531,20.729" id="Fill-1433" fill="#FFFFFF"></path>
        <path d="M38.442,23.263 C38.4,23.197 38.341,23.141 38.268,23.092 C38.312,23.151 38.373,23.208 38.442,23.263" id="Fill-1434" fill="#FFFFFF"></path>
        <path d="M38.531,23.466 L38.531,23.328 C38.5,23.307 38.47,23.285 38.442,23.263 C38.449,23.273 38.458,23.281 38.463,23.292 C38.493,23.35 38.514,23.408 38.531,23.466" id="Fill-1435" fill="#FFFFFF"></path>
        <path d="M38.229,24.948 C38.189,25.074 38.159,25.198 38.148,25.321 C38.12,25.626 38.28,25.753 38.515,25.803 C38.52,25.804 38.525,25.804 38.531,25.805 L38.531,24.062 C38.462,24.359 38.32,24.656 38.229,24.948" id="Fill-1436" fill="#FFFFFF"></path>
        <path d="M18.157,6.856 C18.262,7.171 18.365,7.486 18.469,7.802 C18.481,7.448 19.156,6.877 18.157,6.856" id="Fill-1437" fill="#FFFFFF"></path>
        <path d="M18.516,7.946 C18.5,7.898 18.485,7.85 18.469,7.802 C18.467,7.856 18.479,7.905 18.516,7.946" id="Fill-1438" fill="#FFFFFF"></path>
        <path d="M35.965,6.064 C36.056,5.882 36.175,5.712 36.267,5.535 C36.111,5.396 35.952,5.259 35.792,5.123 C35.933,5.409 36.026,5.711 35.965,6.064" id="Fill-1439" fill="#FFFFFF"></path>
        <path d="M19.388,25.633 C19.055,25.722 18.757,25.886 18.441,26.022 C19.226,26.918 20.239,26.112 21.116,26.314 C19.815,25.711 20.347,23.99 20.554,22.938 C20.562,22.901 20.589,22.869 20.623,22.839 C19.992,23.028 19.348,23.19 19.323,24.001 C19.321,24.086 19.814,24.138 19.86,24.286 C20,24.737 20.251,25.401 19.388,25.633" id="Fill-1440" fill="#FFFFFF"></path>
        <path d="M21.116,26.314 C21.205,26.355 21.301,26.391 21.407,26.421 C21.312,26.369 21.215,26.337 21.116,26.314" id="Fill-1441" fill="#FFFFFF"></path>
        <path d="M20.623,22.839 C20.903,22.755 21.18,22.666 21.4,22.513 C21.144,22.623 20.774,22.704 20.623,22.839" id="Fill-1442" fill="#FFFFFF"></path>
        <path d="M9.279,7.946 C9.106,7.605 8.938,7.263 8.766,6.92 C8.811,7.326 8.189,8.063 9.279,7.946" id="Fill-1443" fill="#FFFFFF"></path>
        <path d="M10.819,4.183 C11.426,4.294 11.999,4.309 12.358,3.67 C11.799,3.707 11.146,3.458 10.819,4.183" id="Fill-1444" fill="#FFFFFF"></path>
        <path d="M25.53,12.052 C25.357,11.71 25.189,11.369 25.017,11.025 C25.062,11.432 24.44,12.169 25.53,12.052" id="Fill-1445" fill="#FFFFFF"></path>
        <path d="M22.028,20.939 C22.249,21.261 22.522,21.568 22.439,21.975 C22.576,21.745 22.793,21.543 22.793,21.289 C22.76,21.029 22.426,20.845 22.028,20.939" id="Fill-1446" fill="#FFFFFF"></path>
        <path d="M18.776,21.954 C19.079,21.837 19.306,21.644 19.2,21.118 C19.059,21.398 18.864,21.668 18.776,21.954" id="Fill-1447" fill="#FFFFFF"></path>
        <path d="M18.733,22.149 C18.74,22.083 18.756,22.018 18.776,21.954 C18.585,22.027 18.363,22.07 18.174,22.144 C18.346,22.144 18.422,25.096 18.733,22.149" id="Fill-1448" fill="#FFFFFF"></path>
        <path d="M10.301,16.703 C8.428,17.078 9.697,17.472 8.391,17.955 C8.734,17.858 9.378,17.743 9.986,17.991 C10.098,18.038 10.048,18.917 10.147,19.294 C10.246,19.669 10.339,20.033 10.438,20.404 C10.509,20.069 10.921,19.42 10.954,19.202 C11.094,18.256 11.127,17.14 10.301,16.703" id="Fill-1449" fill="#FFFFFF"></path>
        <path d="M8.391,17.955 C8.234,17.999 8.14,18.039 8.14,18.039 C8.233,18.01 8.316,17.983 8.391,17.955" id="Fill-1450" fill="#FFFFFF"></path>
        <path d="M10.002,22.795 C10.316,22.613 10.407,21.927 9.963,21.802 C9.49,21.672 8.946,22.371 8.335,20.884 C8.437,21.418 8.512,21.939 8.659,22.473 C8.896,23.341 9.622,23.017 10.002,22.795" id="Fill-1451" fill="#FFFFFF"></path>
        <path d="M1.581,24.062 L1.581,25.805 C1.678,25.824 1.786,25.831 1.9,25.831 C2.019,25.832 2.144,25.826 2.264,25.822 C2.385,25.818 2.503,25.815 2.607,25.822 L2.609,24.942 L2.611,23.701 C2.5,23.694 2.378,23.671 2.253,23.637 C2.016,23.57 1.772,23.458 1.581,23.328 L1.581,23.466 C1.638,23.663 1.627,23.863 1.581,24.062" id="Fill-1452" fill="#FFFFFF"></path>
        <path d="M2.499,21.291 L2.54,21.066 C2.341,21.162 1.978,20.847 1.581,20.729 L1.581,22.085 L1.582,22.084 C1.583,22.082 1.584,22.08 1.585,22.078 C1.648,21.99 1.717,21.909 1.79,21.832 C1.807,21.813 1.826,21.794 1.845,21.776 C1.913,21.707 1.985,21.642 2.061,21.581 C2.069,21.575 2.076,21.569 2.083,21.562 C2.168,21.497 2.256,21.438 2.348,21.381 C2.369,21.368 2.391,21.355 2.412,21.343 C2.441,21.326 2.47,21.307 2.499,21.291" id="Fill-1453" fill="#FFFFFF"></path>
        <path d="M38.103,32.836 C37.957,33.057 37.943,33.209 37.996,33.329 C38.018,33.377 38.05,33.42 38.089,33.46 C38.213,33.587 38.403,33.688 38.531,33.838 L38.531,31.487 C38.454,31.952 38.372,32.429 38.103,32.836" id="Fill-1454" fill="#FFFFFF"></path>
        <path d="M36.991,36.215 C37.683,35.992 38.096,35.953 38.349,35.868 C38.409,35.797 38.472,35.729 38.531,35.658 L38.531,34.343 C38.453,34.655 38.557,34.897 38.43,35.311 C38.352,35.568 37.334,36.043 36.991,36.215" id="Fill-1455" fill="#FFFFFF"></path>
        <path d="M15.967,29.399 C15.929,29.483 15.891,29.568 15.854,29.655 C15.588,30.264 15.306,30.957 15.014,31.7 C14.931,31.913 14.847,32.129 14.762,32.349 C14.678,32.569 14.593,32.792 14.508,33.018 C14.398,33.309 14.562,33.848 14.412,33.934 C14.15,34.082 13.944,34.224 13.785,34.359 C13.253,34.805 13.234,35.156 13.345,35.314 C13.378,35.362 13.423,35.392 13.47,35.402 C13.529,35.414 13.586,35.423 13.641,35.427 C13.752,35.436 13.856,35.428 13.953,35.408 C14.536,35.285 14.867,34.684 14.913,34.153 C14.917,34.109 14.919,34.066 14.919,34.023 C14.917,33.68 15.104,33.723 15.104,33.38 C15.103,33.209 15.415,32.89 15.617,32.739 C15.906,32.522 16.153,31.521 16.406,30.626 C16.434,30.526 16.462,30.428 16.491,30.332 C16.576,30.045 16.662,29.781 16.751,29.573 C16.84,29.364 16.932,29.211 17.029,29.147 L17.319,28.132 L16.58,28.132 C16.488,28.302 16.391,28.492 16.29,28.7 C16.186,28.915 16.078,29.149 15.967,29.399" id="Fill-1456" fill="#FFFFFF"></path>
        <path d="M12.133,31.773 C11.493,31.799 10.878,32.467 10.25,34.059 C10.184,34.23 10.85,34.798 11.341,34.965 C11.692,35.361 11.718,36.002 12.009,35.578 C12.299,35.156 10.64,34.172 10.97,33.465 C11.301,32.758 12.774,31.746 12.133,31.773" id="Fill-1457" fill="#FFFFFF"></path>
        <path d="M8.068,37.639 C9.507,37.121 9.42,36.927 9.792,35.702 C9.449,35.873 8.268,36.014 8.252,36.215 C8.165,37.283 8.198,37.537 8.068,37.639" id="Fill-1458" fill="#FFFFFF"></path>
        <path d="M8.068,37.639 C7.966,37.676 7.857,37.714 7.739,37.755 C7.907,37.703 8.006,37.688 8.068,37.639" id="Fill-1459" fill="#FFFFFF"></path>
        <path d="M10.261,40.246 C10.817,39.929 11.256,39.545 11.23,38.784 C11.204,38.047 10.049,37.755 9.792,38.268 C9.792,38.83 9.941,39.48 9.806,39.954 C9.956,40.053 10.108,40.15 10.261,40.246" id="Fill-1460" fill="#FFFFFF"></path>
        <path d="M14.301,39.798 C14.285,39.998 13.727,40.148 13.385,40.321 C13.556,40.492 13.724,40.776 13.898,40.777 C14.069,40.777 14.246,40.51 14.402,40.315 C15.529,38.905 14.949,36.616 12.871,37.241 C14.146,37.64 14.383,38.802 14.301,39.798" id="Fill-1461" fill="#FFFFFF"></path>
        <path d="M19.029,38.268 C16.207,37.241 16.794,38.69 16.582,41.356 C16.57,41.501 17.146,41.688 17.49,41.86 C17.212,41.382 16.745,40.869 17.039,40.357 C17.202,40.073 18.557,40.069 18.644,39.807 C18.731,39.548 17.479,39.037 17.582,38.826 C17.787,38.41 19.67,39.165 19.029,38.268" id="Fill-1462" fill="#FFFFFF"></path>
        <path d="M20.451,40.437 C19.922,39.902 19.576,41.056 19.029,41.347 C19.201,41.518 19.427,41.826 19.512,41.79 C20.056,41.988 20.957,40.947 20.451,40.437" id="Fill-1463" fill="#FFFFFF"></path>
        <path d="M24.858,39.362 C24.926,39.239 25.186,39.635 25.359,39.807 C26.04,39.053 25.561,37.824 26.02,37.404 C26.964,36.54 27.352,36.443 28.002,35.23 C28.37,34.54 29.3,34.489 29.945,34.753 C30.214,34.864 30.432,35.359 30.433,35.702 C30.433,35.873 30.15,36.043 29.977,36.215 C32.436,37.116 31.047,39.038 30.491,40.834 C31.115,39.768 32.275,39.058 32.544,37.755 C30.876,37.047 30.992,35.356 29.842,34.311 C29.212,33.739 28.288,35.297 27.412,34.163 C27.556,34.926 27.45,35.691 26.853,36.158 C26.634,36.329 26.11,36.098 25.927,36.273 C24.882,37.262 24.7,38.907 22.793,39.165 L23.049,39.679 C23.306,40.448 24.204,40.577 24.858,39.362" id="Fill-1464" fill="#FFFFFF"></path>
        <path d="M21.536,37.032 C21.545,36.844 22.27,36.458 22.405,36.562 C22.399,36.422 22.475,36.185 22.533,36.031 C22.632,35.766 23.352,35.678 23.368,35.479 C23.467,34.216 22.916,33.581 23.55,32.449 C23.935,31.759 24.795,31.864 25.53,31.895 C24.45,31.102 23.923,31.419 23.477,31.895 L21.938,31.254 C21.08,31.767 23.204,33.303 22.901,33.916 C22.004,35.716 21.532,37.741 19.885,39.08 C21.273,39.274 21.482,38.141 21.536,37.032" id="Fill-1465" fill="#FFFFFF"></path>
        <path d="M18.42,29.448 C19.17,29.293 19.917,29.139 20.667,28.984 C20.671,29.314 20.852,29.505 20.964,29.833 C21.094,29.301 21.378,28.694 21.615,28.132 L19.925,28.132 C19.005,28.532 17.85,28.802 18.42,29.448" id="Fill-1466" fill="#FFFFFF"></path>
        <path d="M34.128,29.548 C34.135,29.482 34.151,29.417 34.172,29.353 C33.98,29.426 33.759,29.469 33.57,29.544 C33.742,29.544 33.817,32.495 34.128,29.548" id="Fill-1467" fill="#FFFFFF"></path>
        <path d="M34.172,29.353 C34.475,29.236 34.702,29.043 34.596,28.517 C34.455,28.798 34.259,29.067 34.172,29.353" id="Fill-1468" fill="#FFFFFF"></path>
        <path d="M37.666,28.132 C37.402,28.46 37.082,28.689 36.478,28.517 C36.521,28.56 36.571,28.603 36.623,28.647 C36.725,28.733 36.831,28.82 36.888,28.903 C36.912,28.94 36.925,28.975 36.927,29.01 C37.046,28.815 37.222,28.642 37.498,28.506 C37.686,28.413 37.865,28.305 38.048,28.211 C38.103,28.183 38.158,28.157 38.214,28.132 L37.666,28.132" id="Fill-1469" fill="#FFFFFF"></path>
        <path d="M36.827,29.53 C36.877,29.397 36.913,29.232 36.929,29.026 C36.929,29.02 36.927,29.015 36.927,29.01 C36.782,29.245 36.722,29.512 36.678,29.784 C36.735,29.715 36.787,29.635 36.827,29.53" id="Fill-1470" fill="#FFFFFF"></path>
        <path d="M36.076,30.088 C35.972,30.107 35.867,30.119 35.762,30.134 C35.606,30.157 35.453,30.187 35.319,30.253 C35.274,30.275 35.231,30.302 35.191,30.333 C35.11,30.396 35.04,30.479 34.984,30.593 C34.966,30.627 34.955,30.666 34.947,30.707 C34.891,30.996 35.03,31.413 34.882,31.515 C34.69,31.648 34.503,31.781 34.323,31.914 C34.142,32.047 33.967,32.182 33.798,32.317 C33.628,32.453 33.464,32.59 33.306,32.731 C32.514,33.433 31.86,34.206 31.346,35.189 C31.456,35.152 31.564,35.109 31.669,35.061 C31.878,34.963 32.077,34.842 32.254,34.697 C32.696,34.333 33.007,33.817 33.039,33.143 C33.043,33.068 33.094,32.999 33.178,32.937 C33.261,32.875 33.378,32.82 33.512,32.771 C33.646,32.722 33.798,32.679 33.954,32.644 C34.109,32.608 34.268,32.579 34.415,32.557 C34.514,32.543 34.606,32.506 34.684,32.452 C34.723,32.425 34.759,32.394 34.792,32.358 C34.889,32.252 34.954,32.112 34.971,31.948 C34.983,31.84 34.973,31.721 34.938,31.597 C35.184,31.567 35.393,31.522 35.57,31.465 C36.396,31.199 36.54,30.665 36.629,30.104 C36.646,29.998 36.661,29.89 36.678,29.784 C36.519,29.976 36.305,30.049 36.076,30.088" id="Fill-1471" fill="#FFFFFF"></path>
        <path d="M33.912,36.215 C34.425,37.876 34.956,37.231 35.433,37.144 C36.035,37.034 36.3,36.319 36.44,35.693 C36.553,35.185 36.478,34.678 36.478,34.163 C35.956,35.388 35.505,36.724 33.912,36.215" id="Fill-1472" fill="#FFFFFF"></path>
        <path d="M33.378,40.181 C33.599,40.041 33.819,39.901 34.034,39.754 C33.798,39.75 33.6,39.776 33.513,39.893 C33.45,39.979 33.409,40.078 33.378,40.181" id="Fill-1473" fill="#FFFFFF"></path>
        <path d="M29.329,37.898 C28.219,39.009 26.702,41.458 25.368,42.226 C25.161,42.346 24.574,41.606 23.982,41.753 C23.768,41.806 23.603,42.025 23.414,42.18 C24.095,42.246 24.876,42.136 25.402,42.466 C25.514,42.536 25.429,42.914 25.38,43.235 C25.424,43.227 25.468,43.218 25.512,43.211 C26.62,41.859 27.457,41.19 28.637,39.722 C28.67,39.681 29.484,38.087 29.329,37.898" id="Fill-1474" fill="#FFFFFF"></path>
        <path d="M31.217,41.09 C30.605,41.665 29.8,41.951 29.042,42.289 C29.813,42.016 30.565,41.702 31.294,41.347 C31.262,41.268 31.236,41.183 31.217,41.09" id="Fill-1475" fill="#FFFFFF"></path>
        <path d="M22.961,43.364 C22.943,43.225 22.924,43.087 22.899,42.953 C22.902,43.096 22.924,43.233 22.961,43.364" id="Fill-1476" fill="#FFFFFF"></path>
        <path d="M23.007,43.501 C22.99,43.456 22.974,43.411 22.961,43.364 C22.966,43.41 22.973,43.457 22.978,43.503 C22.988,43.503 22.997,43.502 23.007,43.501" id="Fill-1477" fill="#FFFFFF"></path>
        <path d="M21.595,42.544 C21.423,42.373 21.249,42.084 21.084,42.091 C20.134,42.134 19.852,42.782 19.832,43.448 C20.123,43.474 20.415,43.497 20.709,43.511 C20.158,41.243 21.276,42.816 21.595,42.544" id="Fill-1478" fill="#FFFFFF"></path>
        <path d="M4.274,32.623 L3.634,33.649 C3.844,33.661 4.013,33.657 4.152,33.636 C4.291,33.616 4.399,33.58 4.487,33.531 C4.635,33.448 4.727,33.328 4.812,33.178 C4.845,33.118 4.878,33.053 4.914,32.984 C4.966,32.881 5.023,32.769 5.095,32.648 C5.094,32.539 5.1,32.432 5.11,32.329 C5.196,31.503 5.626,30.871 6.045,30.269 C6.412,29.742 6.771,29.237 6.884,28.645 C6.909,28.515 6.946,28.329 6.946,28.132 L6.323,28.132 C5.495,29.432 4.074,31.499 4.274,32.623" id="Fill-1479" fill="#FFFFFF"></path>
        <path d="M13.299,28.731 C13.299,29.073 13.299,29.414 13.299,29.757 C13.812,29.585 14.323,29.417 14.838,29.244 C14.233,29.349 13.777,29.008 13.299,28.731" id="Fill-1480" fill="#FFFFFF"></path>
        <path d="M20.174,34.265 C20.151,33.092 18.401,33.828 17.956,32.8 C17.558,32.981 17.068,33.417 17.346,33.61 C18.386,34.339 18.507,34.997 19.524,35.688 C19.528,35.074 20.183,34.696 20.174,34.265" id="Fill-1481" fill="#FFFFFF"></path>
        <path d="M2.613,29.733 C2.196,29.905 1.967,30.175 1.826,30.497 C2.059,31.03 2.311,31.553 2.585,32.062 C2.867,31.375 3.121,30.7 3.121,30.057 C2.778,30.057 2.909,29.612 2.613,29.733" id="Fill-1482" fill="#FFFFFF"></path>
        <path d="M14.753,42.159 C14.819,42.244 14.896,42.312 14.977,42.372 C14.913,42.3 14.838,42.228 14.753,42.159" id="Fill-1483" fill="#FFFFFF"></path>
        <path d="M15.059,42.479 C15.195,42.524 15.331,42.567 15.468,42.609 C15.291,42.553 15.124,42.479 14.977,42.372 C15.009,42.408 15.032,42.444 15.059,42.479" id="Fill-1484" fill="#FFFFFF"></path>
        <path d="M16.566,42.908 C16.283,42.794 15.965,42.74 15.66,42.663 C15.96,42.75 16.261,42.833 16.566,42.908" id="Fill-1485" fill="#FFFFFF"></path>
        <path d="M27.081,32.441 C27.559,32.718 28.034,33.125 28.609,32.921 C28.818,32.847 28.799,32.748 29.116,32.431 C29.522,31.756 30.046,31.073 30.046,30.388 C30.046,30.217 29.476,30.048 29.133,29.875 C29.54,31.385 28.84,32.81 27.081,32.441" id="Fill-1486" fill="#FFFFFF"></path>
        <path d="M9.407,29.03 C9.56,28.726 9.79,28.454 9.839,28.132 L9.254,28.132 C9.383,28.405 9.464,28.695 9.407,29.03" id="Fill-1487" fill="#FFFFFF"></path>
        <path d="M3.121,28.901 C2.703,28.776 2.885,28.451 3.05,28.132 L2.566,28.132 C2.467,28.483 2.436,28.811 3.121,28.901" id="Fill-1488" fill="#FFFFFF"></path>
        <path d="M10.888,29.638 C10.718,29.766 10.556,29.893 10.399,30.02 C9.774,30.53 9.244,31.042 8.687,31.563 C8.547,31.693 8.406,31.824 8.261,31.956 C7.972,32.219 7.668,32.486 7.334,32.756 C7.011,33.017 6.767,33.324 6.587,33.663 C6.088,34.603 6.069,35.791 6.171,36.947 C6.23,37.008 6.286,37.071 6.346,37.13 C6.62,36.898 6.712,36.627 6.726,36.342 C6.754,35.789 6.501,35.185 6.767,34.706 C7.573,33.247 8.879,32.364 10.131,31.4 C10.245,31.312 10.359,31.224 10.471,31.134 C10.696,30.955 10.918,30.771 11.133,30.579 C11.348,30.387 11.556,30.186 11.754,29.973 C12.117,29.582 12.34,28.872 12.564,28.132 L11.965,28.132 C11.651,28.742 11.322,29.314 10.888,29.638" id="Fill-1489" fill="#FFFFFF"></path>
        <path d="M23.477,30.355 C24.13,31.01 24.36,29.536 24.841,28.991 C24.243,29.424 22.815,29.695 23.477,30.355" id="Fill-1490" fill="#FFFFFF"></path>
        <path d="M26.556,29.329 C26.799,29.059 26.637,28.562 26.626,28.132 L25.409,28.132 C25.5,28.394 25.602,28.653 25.653,28.867 C25.75,29.275 26.258,29.662 26.556,29.329" id="Fill-1491" fill="#FFFFFF"></path>
        <path d="M31.666,29.808 C31.777,30.014 32.179,29.742 32.372,29.5 C31.829,29.191 32.139,28.518 31.959,28.132 L30.377,28.132 C30.766,28.877 31.252,29.038 31.666,29.808" id="Fill-1492" fill="#FFFFFF"></path>
        <path d="M17.832,36.001 C17.029,36.105 16.133,36.025 15.779,37.027 C16.533,36.826 17.33,36.71 17.832,36.001" id="Fill-1493" fill="#FFFFFF"></path>
        <path d="M19.372,31.04 C19.648,31.518 19.988,31.975 19.885,32.579 C20.056,32.238 20.328,31.939 20.328,31.562 C20.285,31.174 19.869,30.9 19.372,31.04" id="Fill-1494" fill="#FFFFFF"></path>
        <path d="M31.224,32.192 C31.169,32.566 31.395,32.902 31.517,33.264 C31.5,32.651 31.903,32.247 32.243,31.813 C31.77,31.604 31.319,31.816 31.224,32.192" id="Fill-1495" fill="#FFFFFF"></path>
        <path d="M6.884,31.382 C7.078,30.841 8.429,31.254 7.915,30.13 C8.164,31.036 6.147,30.073 6.884,31.382" id="Fill-1496" fill="#FFFFFF"></path>
        <path d="M25.872,34.29 C25.699,33.948 25.531,33.607 25.359,33.264 C25.404,33.67 24.782,34.407 25.872,34.29" id="Fill-1497" fill="#FFFFFF"></path>
        <path d="M12.358,40.619 C11.939,40.647 11.465,40.514 11.118,40.753 C11.342,40.879 11.568,41 11.797,41.118 C12.013,41.04 12.206,40.891 12.358,40.619" id="Fill-1498" fill="#FFFFFF"></path>
        <path d="M0.883,27.908 C0.906,27.982 0.925,28.058 0.947,28.132 L1.265,28.132 C1.333,28.102 1.401,28.074 1.471,28.052 C1.507,28.041 1.544,28.034 1.581,28.025 L1.581,27.138 C1.279,27.319 1.082,27.623 0.883,27.908" id="Fill-1499" fill="#FFFFFF"></path>
        <path d="M1.371,22.455 C1.321,22.562 1.275,22.674 1.238,22.796 C1.275,22.674 1.321,22.562 1.371,22.455" id="Fill-1500" fill="#FFFFFF"></path>
        <path d="M1.572,22.098 C1.513,22.184 1.459,22.278 1.409,22.376 C1.459,22.278 1.513,22.184 1.572,22.098" id="Fill-1501" fill="#FFFFFF"></path>
        <path d="M1.576,13.638 C1.553,13.794 1.484,13.972 1.456,14.13 C1.436,14.247 1.438,14.352 1.501,14.428 C1.517,14.446 1.537,14.464 1.561,14.478 C1.566,14.482 1.575,14.484 1.581,14.487 L1.581,13.625 C1.579,13.629 1.577,13.634 1.576,13.638" id="Fill-1502" fill="#FFFFFF"></path>
        <path d="M1.581,15.819 C1.198,15.907 0.859,16.085 0.644,16.508 C0.628,16.572 0.615,16.638 0.599,16.702 C0.929,16.616 1.265,16.54 1.581,16.425 L1.581,15.819" id="Fill-1503" fill="#FFFFFF"></path>
        <path d="M0.436,17.418 C0.394,17.626 0.36,17.837 0.323,18.048 C0.445,17.866 0.563,17.661 0.674,17.411 C0.593,17.425 0.514,17.425 0.436,17.418" id="Fill-1504" fill="#FFFFFF"></path>
        <path d="M1.581,20.729 C1.417,20.68 1.247,20.665 1.08,20.727 C0.396,20.981 0.688,21.847 0.432,22.112 C0.292,22.256 0.155,22.4 0.02,22.546 C0.032,22.905 0.054,23.262 0.083,23.617 C0.159,23.512 0.231,23.404 0.296,23.292 C0.397,23.12 0.485,22.938 0.555,22.743 C0.799,22.867 1.108,22.952 1.318,23.092 C1.242,22.993 1.208,22.891 1.238,22.796 C1.275,22.674 1.321,22.562 1.371,22.455 C1.383,22.428 1.396,22.402 1.409,22.376 C1.459,22.278 1.513,22.184 1.572,22.098 C1.576,22.094 1.578,22.089 1.581,22.085 L1.581,20.729" id="Fill-1505" fill="#FFFFFF"></path>
        <path d="M1.493,23.263 C1.451,23.197 1.391,23.141 1.318,23.092 C1.363,23.151 1.423,23.208 1.493,23.263" id="Fill-1506" fill="#FFFFFF"></path>
        <path d="M1.279,24.948 C1.239,25.074 1.209,25.198 1.198,25.321 C1.171,25.626 1.33,25.753 1.565,25.803 C1.57,25.804 1.576,25.804 1.581,25.805 L1.581,24.062 C1.512,24.359 1.371,24.656 1.279,24.948" id="Fill-1507" fill="#FFFFFF"></path>
        <path d="M1.581,23.466 L1.581,23.328 C1.55,23.307 1.521,23.285 1.493,23.263 C1.499,23.273 1.508,23.281 1.514,23.292 C1.543,23.35 1.564,23.408 1.581,23.466" id="Fill-1508" fill="#FFFFFF"></path>
        <path d="M0.947,28.132 C0.961,28.178 0.974,28.224 0.988,28.27 C1.025,28.25 1.061,28.23 1.098,28.211 C1.153,28.183 1.209,28.157 1.265,28.132 L0.947,28.132" id="Fill-1509" fill="#FFFFFF"></path>
    </g>
</svg>