<?xml version="1.0" encoding="UTF-8"?>
<svg width="56px" height="117px" viewBox="0 0 56 117" version="1.1" xmlns="http://www.w3.org/2000/svg" xmlns:xlink="http://www.w3.org/1999/xlink">
    <!-- Generator: Sketch 50.2 (55047) - http://www.bohemiancoding.com/sketch -->
    <title>DNA</title>
    <desc>Created with Sketch.</desc>
    <defs></defs>
    <g id="DNA" stroke="none" stroke-width="1" fill="none" fill-rule="evenodd">
        <path d="M36.25,43.002 C34.8,41.676 34.29,41.854 33.69,42.616 C33.91,42.675 34.11,42.749 34.32,42.777 C34.9,42.855 35.49,42.915 36.25,43.002 Z M50.43,98.226 C50.49,98.787 50.57,99.344 50.62,99.904 C50.66,100.442 50.41,100.995 50.66,101.59 C51.78,100.562 52.15,99.207 52.64,97.924 C52.69,97.781 52.62,97.592 52.61,97.45 C51.84,97.724 51.14,97.972 50.43,98.226 Z M26.24,45.131 C26.49,45.258 26.55,45.313 26.63,45.324 C28.4,45.608 30.16,45.93 31.94,46.147 C32.83,46.255 33.53,45.755 34.14,45.089 C33.87,44.717 33.62,44.401 33.42,44.057 C33.23,43.742 32.97,43.632 32.63,43.566 C31.77,43.402 30.96,43.515 30.15,43.808 C29.41,44.074 28.64,44.258 27.9,44.503 C27.39,44.669 26.9,44.878 26.24,45.131 Z M37.39,29.849 C35.71,29.801 34.21,30.201 32.69,30.259 C31.13,30.319 29.58,30.583 28.03,30.757 L27.93,30.95 C28.03,30.997 28.13,31.04 28.22,31.091 C29.18,31.607 30.13,32.125 31.09,32.639 C31.65,32.937 32.2,33.021 32.79,32.685 C33.76,32.136 34.76,31.643 35.73,31.088 C36.28,30.773 36.88,30.512 37.39,29.849 Z M23.03,72.084 C22.77,73.319 23.09,73.778 24.27,73.823 C24.62,73.837 24.97,73.809 25.32,73.753 C26.96,73.491 28.59,73.17 30.23,72.954 C31.84,72.743 33.27,72.168 34.56,71.209 C34.7,71.107 34.8,70.965 34.96,70.803 C34.26,70.71 23.78,71.847 23.03,72.084 Z M38.33,85.514 C37.47,84.999 36.63,84.446 35.74,83.977 C34.69,83.419 33.6,82.911 32.51,82.432 C32.24,82.314 31.88,82.349 31.57,82.392 C31.31,82.428 31.06,82.568 30.81,82.679 C29.39,83.308 27.98,83.939 26.56,84.578 C26.41,84.647 26.29,84.77 26.01,84.968 C30.22,85.272 34.23,85.739 38.33,85.514 Z M42.78,25.507 C42.37,25.559 42.14,25.582 41.9,25.62 C40.91,25.78 39.92,25.984 38.92,26.1 C36.76,26.349 34.59,26.538 32.43,26.783 C30.98,26.947 30.74,27.396 31.2,28.804 C31.31,29.145 31.46,29.309 31.83,29.269 C32.62,29.185 33.41,29.155 34.19,29.049 C35.91,28.814 37.63,28.55 39.35,28.287 C39.59,28.251 39.84,28.196 40.04,28.068 C41.03,27.404 41.93,26.631 42.78,25.507 Z M45.76,62.526 C45.42,62.515 45.27,62.493 45.12,62.508 C44.25,62.597 43.39,62.736 42.52,62.781 C38.99,62.962 35.46,63.112 31.93,63.281 C31.24,63.314 30.54,63.383 29.81,63.439 C29.91,63.891 29.98,64.232 30.06,64.571 C30.2,65.157 30.29,65.211 30.92,65.147 C31.86,65.05 32.81,64.923 33.76,64.875 C35.6,64.782 37.45,64.76 39.29,64.66 C40.57,64.591 41.84,64.409 43.12,64.337 C44.32,64.268 44.92,63.414 45.76,62.526 Z M29.84,27.129 C29.53,27.136 29.23,27.131 28.94,27.15 C26.88,27.287 24.82,27.476 22.75,27.549 C21.57,27.591 20.52,28.024 19.47,28.445 C18.86,28.688 18.9,29.409 19.5,29.715 C19.76,29.848 20.06,29.954 20.35,29.977 C21.22,30.047 22.09,30.151 22.95,30.094 C24.93,29.963 26.91,29.747 28.89,29.562 C29.18,29.535 29.48,29.496 29.78,29.45 C30.07,29.405 30.21,29.219 30.16,28.93 C30.07,28.371 29.96,27.815 29.84,27.129 Z M34.54,46.311 C34.89,46.38 35.11,46.435 35.34,46.465 C37.95,46.813 40.56,47.176 43.18,47.493 C44.04,47.597 44.91,47.592 45.78,47.611 C45.99,47.616 46.21,47.543 46.41,47.468 C46.85,47.303 46.95,47.075 46.8,46.642 C46.65,46.169 46.33,45.862 45.85,45.711 C45.13,45.481 44.42,45.194 43.68,45.028 C42.42,44.741 41.14,44.487 39.85,44.298 C38.64,44.12 37.42,44.019 36.2,43.936 C35.68,43.9 35.15,43.766 34.5,43.975 C34.74,44.298 34.93,44.524 35.1,44.757 C35.43,45.214 35.41,45.395 35,45.809 C34.88,45.935 34.76,46.07 34.54,46.311 Z M9.54,114.05 C9.9,113.137 10.4,112.358 10.39,111.355 C10.2,111.324 10.05,111.289 9.89,111.275 C9.38,111.228 8.86,111.233 8.35,111.137 C6.82,110.846 6.31,109.895 6.13,108.672 C6.01,107.842 6.92,106.793 7.78,106.691 C8,106.665 8.22,106.627 8.57,106.574 C8.29,106.252 8.12,106.044 7.94,105.85 C7.12,104.984 6.19,104.201 5.69,103.082 C5.43,102.522 5.2,101.952 4.95,101.351 C4.54,101.285 4.45,101.63 4.35,101.931 C4.14,102.522 3.95,103.117 3.76,103.713 C3.5,104.514 3.24,105.312 3.01,106.121 C2.81,106.842 2.94,107.524 3.36,108.147 C3.6,108.508 3.81,108.897 4.1,109.223 C5.6,110.952 7.32,112.448 9.13,113.853 C9.21,113.916 9.32,113.946 9.54,114.05 Z M31.41,87.847 C30.62,86.983 29.99,86.214 28.79,86.206 C27.32,86.196 25.86,86.047 24.39,86.011 C23.94,86 23.45,86.083 23.04,86.259 C21.82,86.781 20.62,87.358 19.43,87.942 C18.95,88.176 18.51,88.487 17.89,88.86 C18.29,88.96 18.48,89.047 18.68,89.054 C19.93,89.097 21.16,89.076 22.41,89.275 C24.15,89.551 25.93,89.559 27.69,89.72 C28.27,89.772 28.74,89.643 29.21,89.297 C29.68,88.94 30.21,88.649 30.71,88.325 C30.91,88.197 31.1,88.058 31.41,87.847 Z M49.22,13.155 C49.45,12.362 49.48,11.663 49.31,10.938 C48.96,9.401 48.24,8.011 47.41,6.712 C46.18,4.815 44.54,3.302 42.63,2.083 C42.51,2.004 42.34,1.997 42.17,1.951 C42.11,2.092 42.07,2.189 42.03,2.288 C41.44,3.879 41.7,5.517 41.79,7.141 C41.8,7.345 41.98,7.605 42.15,7.725 C42.78,8.153 43.44,8.539 44.09,8.928 C45.54,9.788 47.04,10.579 48.14,11.921 C48.46,12.313 48.8,12.684 49.22,13.155 Z M45.19,109.723 C45.45,108.815 45.39,108.395 45.04,107.759 C44.88,107.487 44.7,107.352 44.39,107.362 C43.25,107.398 42.11,107.411 40.97,107.469 C39.8,107.529 38.64,107.69 37.47,107.703 C33.99,107.742 30.51,107.728 27.02,107.741 C26.76,107.742 26.51,107.796 26.29,107.821 C26.15,108.276 25.99,108.632 25.94,109.004 C25.82,109.935 26.03,110.335 26.89,110.267 C27.68,110.204 28.47,110.247 29.26,110.238 C31.22,110.215 33.18,110.22 35.14,110.155 C37.91,110.064 40.68,109.921 43.46,109.8 C44.05,109.774 44.64,109.748 45.19,109.723 Z M28.76,63.374 C28.59,63.357 28.51,63.338 28.43,63.341 C25.49,63.459 22.55,63.582 19.61,63.693 C19.09,63.712 18.57,63.638 18.06,63.674 C16.54,63.779 15.02,63.916 13.5,64.044 C12.25,64.15 11.01,64.241 9.76,64.378 C9.24,64.436 8.88,64.904 9.03,65.341 C9.2,65.852 9.45,66.385 10.01,66.585 C10.85,66.889 11.71,67.157 12.64,66.942 C13.22,66.808 13.82,66.704 14.41,66.638 C16.06,66.453 17.72,66.291 19.37,66.127 C21.38,65.926 23.38,65.726 25.39,65.54 C25.8,65.502 26.21,65.523 26.61,65.521 C27.43,65.518 28.22,65.43 29.09,65.24 C28.97,64.578 28.87,63.998 28.76,63.374 Z M25.08,107.72 C24.82,107.712 24.56,107.696 24.3,107.696 C22.99,107.699 21.68,107.74 20.38,107.704 C17.93,107.636 15.49,107.483 13.04,107.445 C11.39,107.419 9.73,107.51 8.07,107.587 C7.31,107.623 6.89,108.253 7.14,108.959 C7.33,109.51 7.65,110.002 8.29,110.119 C8.79,110.212 9.31,110.281 9.82,110.3 C10.5,110.325 11.18,110.277 11.86,110.285 C15.23,110.328 18.6,110.391 21.98,110.418 C22.98,110.426 23.98,110.343 25,110.3 C25.03,109.469 25.05,108.691 25.08,107.72 Z M30.44,89.643 L30.51,89.879 C30.74,89.903 30.97,89.93 31.2,89.951 C32.18,90.039 33.15,90.148 34.13,90.204 C35.46,90.281 36.78,90.336 38.11,90.362 C38.98,90.379 39.86,90.259 40.72,90.326 C42.34,90.452 43.92,90.176 45.52,90.021 C45.75,89.998 45.99,89.99 46.23,90.025 C46.9,90.124 47.34,89.935 47.59,89.402 C47.81,88.92 47.69,88.46 47.22,88.012 C46.82,87.624 46.32,87.535 45.79,87.527 C43.85,87.499 41.94,87.334 40.02,87.051 C38.11,86.77 36.17,86.737 34.25,86.614 C33.44,86.563 32.64,86.558 31.64,86.526 C32.04,86.916 32.3,87.169 32.55,87.436 C32.95,87.854 32.94,88.178 32.48,88.519 C32.15,88.756 31.76,88.906 31.41,89.101 C31.08,89.278 30.76,89.462 30.44,89.643 Z M46.08,48.8 C46.22,49.036 46.31,49.173 46.39,49.304 C46.87,50 47.41,50.662 47.8,51.398 C48.15,52.041 48.57,52.295 49.29,52.204 C50.04,52.11 50.25,52.036 50.28,51.301 C50.31,50.519 50.31,49.713 50.16,48.949 C49.82,47.186 49.49,45.387 47.78,44.308 C47.67,44.236 47.58,44.132 47.47,44.045 C45.69,42.563 43.98,41.012 42.63,39.104 C42.48,38.887 42.25,38.715 42.03,38.55 C41.54,38.177 41.39,38.195 40.86,38.513 C40.07,38.986 39.25,39.43 38.46,39.897 C37.62,40.388 36.79,40.891 35.85,41.451 C36.32,41.771 36.71,41.971 37.02,42.252 C37.86,43.011 38.79,43.49 39.96,43.336 L40.21,43.371 C40.98,43.538 41.74,43.777 42.52,43.856 C43.62,43.967 44.63,44.352 45.68,44.631 C46.82,44.933 47.51,45.629 47.81,46.758 C47.99,47.41 47.79,47.934 47.18,48.253 C46.85,48.428 46.5,48.588 46.08,48.8 Z M26.98,52.937 L26.94,52.741 C26.71,52.709 26.47,52.663 26.24,52.646 C24.96,52.551 23.68,52.46 22.41,52.372 C21.02,52.276 19.64,52.152 18.25,52.101 C16.29,52.03 14.33,52.028 12.38,51.97 C11.87,51.955 11.46,52.093 11.13,52.453 C10.45,53.196 9.78,53.948 9.12,54.711 C9.02,54.837 8.99,55.034 8.88,55.31 C9.6,55.333 10.22,55.358 10.83,55.371 C12.33,55.402 13.83,55.369 15.32,55.466 C18.44,55.67 21.56,55.946 24.69,56.18 C25.35,56.229 26.01,56.226 26.67,56.248 C26.57,55.933 26.4,55.746 26.21,55.577 C25.94,55.343 25.65,55.139 25.4,54.893 C24.98,54.486 25.01,54.082 25.5,53.746 C25.72,53.592 25.98,53.49 26.22,53.36 C26.47,53.221 26.73,53.078 26.98,52.937 Z M5.37,99.943 C6.18,99.969 6.77,100.021 7.36,100.001 C9.95,99.913 12.53,99.816 15.12,99.698 C16.48,99.636 17.85,99.621 19.19,99.407 C20.86,99.139 22.53,98.933 24.22,98.862 C24.94,98.832 25.66,98.739 26.45,98.668 C26.21,98.216 25.9,97.868 25.89,97.513 C25.88,97.139 26.16,96.758 26.35,96.293 C24.59,96.341 22.86,96.397 21.12,96.433 C18.81,96.481 16.5,96.535 14.19,96.549 C12.53,96.559 10.87,96.491 9.21,96.679 C7.5,96.872 7.48,96.826 6.47,98.168 C6.09,98.679 5.79,99.257 5.37,99.943 Z M5.42,16.44 C5.75,15.962 5.96,15.63 6.2,15.318 C6.37,15.089 6.57,14.877 6.77,14.674 C6.98,14.464 7.24,14.299 7.43,14.07 C8.53,12.692 9.87,11.63 11.47,10.879 C12.92,10.205 13.06,9.92 13.08,8.308 L13.08,8.226 C13.06,6.509 13.03,4.793 13,3.077 C12.99,2.903 12.92,2.731 12.87,2.48 C12.48,2.673 12.16,2.817 11.86,2.992 C11.27,3.333 10.67,3.664 10.11,4.049 C9,4.816 7.87,5.559 7.14,6.77 C6.05,8.557 5.11,10.381 5.02,12.523 C4.97,13.774 5.05,15.014 5.42,16.44 Z M38.75,95.368 L38.74,95.287 C37.93,95.337 37.12,95.364 36.31,95.438 C33.87,95.661 31.43,95.921 28.99,96.123 C28.19,96.189 27.75,96.736 27.26,97.234 C27.2,97.298 27.18,97.438 27.19,97.537 C27.26,98.129 27.83,98.59 28.45,98.551 C28.91,98.522 29.37,98.452 29.83,98.426 C31.44,98.335 33.04,98.279 34.64,98.165 C36.16,98.056 37.68,97.858 39.2,97.757 C42.81,97.516 46.43,97.313 50.04,97.087 C50.62,97.052 51.18,96.94 51.65,96.574 C52.19,96.157 52.24,95.703 51.71,95.301 C51.38,95.053 50.95,94.882 50.54,94.809 C47.9,94.34 45.27,94.802 42.65,95.018 C41.35,95.125 40.05,95.251 38.75,95.368 Z M26.59,15.824 L26.49,15.575 C24.51,15.512 22.53,15.433 20.55,15.389 C18.84,15.351 17.11,15.469 15.41,15.308 C13.16,15.094 10.91,15.033 8.65,15.143 C8.27,15.162 7.87,15.367 7.52,15.557 C7.37,15.637 7.24,15.9 7.24,16.081 C7.24,17.364 7.96,18.183 9.23,18.339 C9.85,18.414 10.47,18.419 11.1,18.444 C13.03,18.524 14.96,18.603 16.89,18.671 C17.81,18.704 18.73,18.71 19.66,18.733 C21.72,18.785 23.79,18.842 25.86,18.889 C26.04,18.893 26.22,18.835 26.54,18.782 C26.26,18.316 26.03,17.932 25.79,17.549 C25.41,16.923 25.43,16.791 26,16.321 C26.2,16.157 26.39,15.99 26.59,15.824 Z M53.61,98.622 C53.47,98.862 53.37,99.014 53.28,99.173 C52.77,100.1 52.31,101.058 51.74,101.95 C51.26,102.705 50.65,103.373 50.12,104.1 C49.19,105.387 48.06,106.491 46.89,107.554 C46.19,108.189 46.06,108.985 46.62,109.755 C46.81,110.012 46.88,110.245 46.65,110.479 C46.39,110.743 46.37,111.039 46.42,111.381 C46.54,112.295 46.64,113.212 46.77,114.125 C46.8,114.359 46.91,114.583 46.97,114.796 C47.58,114.801 47.72,114.787 48.21,114.413 C49.05,113.764 49.9,113.124 50.68,112.403 C52.11,111.067 52.99,109.383 53.39,107.472 C53.66,106.168 53.84,104.844 54.04,103.525 C54.26,102.025 54.11,100.538 53.81,99.062 C53.78,98.941 53.71,98.832 53.61,98.622 Z M48.79,15.212 C48.28,15.39 47.82,15.733 47.41,15.673 C44.85,15.289 42.3,15.615 39.74,15.579 C38.05,15.555 36.36,15.664 34.67,15.671 C32.69,15.678 30.7,15.631 28.72,15.627 C28.43,15.626 28.06,15.641 27.86,15.806 C27.47,16.133 27.17,16.567 26.84,16.966 L26.83,17.201 C26.96,18.071 27.8,18.858 28.68,18.865 C29.99,18.876 31.3,18.873 32.6,18.832 C34.64,18.766 36.68,18.637 38.72,18.583 C41.15,18.518 43.57,18.523 46,18.458 C47.17,18.426 48.27,18.205 48.52,16.753 C48.56,16.543 48.71,16.353 48.75,16.143 C48.82,15.814 48.97,15.467 48.79,15.212 Z M17.12,67.579 L17.1,67.814 C17.56,68.003 18.03,68.194 18.5,68.381 C19.38,68.736 20.24,69.193 21.16,69.413 C22.08,69.634 22.9,70.01 23.73,70.432 C24.07,70.605 24.51,70.659 24.9,70.631 C25.93,70.556 26.95,70.4 27.98,70.289 C30.88,69.977 33.78,69.663 36.68,69.367 C37.41,69.292 38.06,69.008 38.64,68.593 C39.74,67.796 40.82,66.957 41.9,66.124 C42.03,66.025 42.1,65.857 42.28,65.619 C42.01,65.633 41.87,65.637 41.74,65.647 C40.93,65.712 40.12,65.805 39.3,65.839 C37.51,65.913 35.71,65.99 33.91,66.007 C32.19,66.022 30.52,66.421 28.8,66.46 C26.84,66.504 24.88,66.656 22.93,66.825 C21.16,66.979 19.41,67.216 17.65,67.425 C17.47,67.447 17.3,67.527 17.12,67.579 Z M49.77,53.397 C49.11,53.351 48.6,53.274 48.09,53.288 C46.38,53.334 44.67,53.448 42.95,53.468 C41.38,53.487 39.81,53.421 38.23,53.386 C37.25,53.364 36.27,53.359 35.3,53.296 C33.39,53.174 31.5,53.011 29.6,52.883 C29.34,52.866 29.03,52.891 28.81,53.01 C28.24,53.319 27.7,53.686 27.15,54.043 C26.98,54.154 26.84,54.309 26.69,54.447 C27.05,54.843 27.46,55.136 27.64,55.535 C27.96,56.241 28.49,56.339 29.15,56.377 C31.54,56.516 33.93,56.682 36.33,56.835 C36.46,56.844 36.6,56.835 36.74,56.831 C39.1,56.771 41.47,56.77 43.84,56.913 C45.22,56.995 46.62,56.876 48,56.822 C48.23,56.814 48.55,56.737 48.65,56.58 C49.21,55.646 49.52,54.612 49.77,53.397 Z M33.6,81.6 C34.67,82.154 35.59,82.591 36.48,83.099 C37.91,83.927 39.32,84.807 40.75,85.652 C41.09,85.858 41.45,86.115 41.83,86.175 C42.72,86.316 43.62,86.35 44.51,86.431 C45.3,86.501 46.1,86.51 46.87,86.665 C47.98,86.889 49.28,88.273 48.56,89.815 C48.29,90.392 47.91,90.921 47.57,91.496 C47.74,91.811 47.93,92.169 48.11,92.534 C48.44,93.234 48.98,93.566 49.76,93.443 C50.47,93.329 51.11,93.543 51.74,93.815 C52.12,93.984 52.47,94.252 52.99,94.577 C52.9,94.032 52.87,93.637 52.76,93.26 C52.01,90.524 50.76,88.023 49.15,85.703 C47.43,83.236 45.2,81.283 42.81,79.51 C42.26,79.107 41.68,78.748 41.11,78.381 C40.82,78.189 40.5,78.147 40.2,78.378 C39.35,79.026 38.4,79.495 37.42,79.905 C36.67,80.218 35.93,80.568 35.19,80.899 C34.69,81.119 34.2,81.334 33.6,81.6 Z M6.42,17.459 C5.94,18.124 5.85,18.761 6.08,19.453 C6.57,20.951 7.42,22.256 8.38,23.478 C9.18,24.505 10.16,25.385 10.99,26.393 C12.19,27.85 13.73,28.878 15.29,29.854 C17.57,31.283 19.95,32.556 22.28,33.903 C23.03,34.338 23.76,34.808 24.51,35.246 C25.27,35.685 26,35.866 26.87,35.401 C27.92,34.833 29.04,34.402 30.13,33.904 C30.25,33.852 30.34,33.748 30.43,33.675 L30.34,33.492 C29.09,32.678 27.84,31.85 26.41,31.363 C25.95,31.207 25.46,31.042 24.99,31.04 C24.1,31.035 23.2,31.186 22.31,31.197 C21.22,31.211 20.14,31.124 19.11,30.668 C17.84,30.101 17.56,28.517 18.61,27.595 C18.74,27.475 18.89,27.361 19.03,27.237 C18.78,26.633 18.27,26.338 17.81,26.018 C16.52,25.112 15.2,24.26 13.91,23.356 C13.42,23.015 12.97,22.605 12.53,22.201 C11.74,21.468 10.91,20.751 10.18,19.955 C9.85,19.592 9.56,19.325 9.05,19.288 C8.08,19.218 7.26,18.853 6.77,17.942 C6.7,17.801 6.59,17.681 6.42,17.459 Z M9.1,56.438 C8.38,56.171 8.03,56.396 7.78,56.862 C7.63,57.151 7.47,57.439 7.33,57.735 C6.87,58.722 6.37,59.692 5.98,60.708 C5.67,61.544 5.5,62.435 5.27,63.304 C5.07,64.082 4.99,64.848 5.41,65.599 C5.68,66.093 5.9,66.619 6.15,67.129 C6.64,68.133 7.52,68.82 8.28,69.57 C8.99,70.265 9.91,70.732 10.73,71.323 C12.1,72.322 13.55,73.158 15.19,73.637 C15.71,73.788 16.2,74.053 16.71,74.239 C17.91,74.677 19.1,75.163 20.32,75.507 C21.35,75.795 22.36,76.079 23.27,76.654 C23.5,76.803 23.7,76.845 23.95,76.716 C25.16,76.087 26.37,75.464 27.57,74.83 C27.69,74.77 27.77,74.648 27.87,74.555 C27.22,74.541 26.64,74.667 26.05,74.727 C25.32,74.8 24.58,74.909 23.85,74.842 C22.36,74.705 21.65,73.537 22.08,72.105 C22.19,71.75 22.25,71.381 22.33,71.009 C22.21,70.941 22.12,70.879 22.02,70.839 C19.8,69.936 17.57,69.065 15.37,68.116 C14.68,67.817 14.06,67.741 13.32,67.878 C12.25,68.077 11.18,68.105 10.11,67.708 C9.34,67.425 8.79,67.013 8.4,66.298 C7.72,65.03 8.21,63.672 9.63,63.233 C8.86,61.023 8.81,58.734 9.1,56.438 Z M47,52.069 C46.92,51.856 46.87,51.668 46.77,51.523 C46.3,50.856 45.81,50.207 45.34,49.538 C44.93,48.94 44.4,48.621 43.65,48.565 C42.64,48.491 41.64,48.364 40.65,48.172 C38.86,47.824 37.06,47.576 35.25,47.369 C33.88,47.213 32.49,47.371 31.13,47.08 C30.12,46.864 29.09,46.747 28.07,46.593 C26.78,46.398 25.49,46.197 24.2,46.03 C23.91,45.993 23.6,46.057 23.31,46.129 C21.3,46.639 19.36,47.364 17.49,48.26 C16.17,48.895 14.91,49.669 13.63,50.395 C13.41,50.52 13.23,50.714 12.97,50.928 C13.65,51.239 14.24,51.189 14.84,51.17 C15.41,51.152 15.98,51.094 16.55,51.116 C18.92,51.209 21.29,51.308 23.66,51.439 C25.86,51.561 28.06,51.721 30.25,51.874 C31.15,51.937 32.05,52.053 32.94,52.099 C34.93,52.199 36.93,52.198 38.91,52.37 C41.5,52.595 44.08,52.239 46.66,52.207 C46.74,52.206 46.81,52.15 47,52.069 Z M8.84,95.558 C9.2,95.6 9.41,95.65 9.61,95.643 C10.29,95.617 10.97,95.557 11.65,95.535 C13.28,95.481 14.92,95.446 16.55,95.395 C17.08,95.378 17.61,95.204 18.13,95.452 C18.27,95.517 18.45,95.507 18.62,95.502 C20.22,95.453 21.83,95.408 23.44,95.34 C24.83,95.281 26.22,95.205 27.6,95.114 C29.26,95.004 30.91,94.887 32.57,94.74 C33.52,94.656 34.46,94.47 35.4,94.394 C38.86,94.119 42.32,94.038 45.76,93.533 C46.2,93.468 46.65,93.407 47.09,93.344 C46.92,91.936 46.11,91.224 44.87,91.3 C44.65,91.313 44.44,91.34 44.22,91.356 C43.4,91.416 42.59,91.514 41.77,91.524 C40.74,91.537 39.7,91.489 38.67,91.448 C37.67,91.408 36.66,91.344 35.66,91.286 C34.66,91.229 33.65,91.168 32.65,91.104 C31.94,91.059 31.24,91.003 30.53,90.96 C29.17,90.878 27.81,90.83 26.46,90.715 C24.67,90.564 22.88,90.342 21.09,90.188 C20,90.095 18.9,90.167 17.83,89.997 C16.74,89.824 15.78,89.819 15,90.71 L14.8,90.85 C13.49,91.746 12.18,92.623 10.89,93.547 C10.15,94.081 9.54,94.759 8.84,95.558 Z M47.21,19.634 C46.3,19.605 45.51,19.551 44.73,19.561 C43.01,19.582 41.3,19.642 39.58,19.673 C38.14,19.698 36.69,19.68 35.25,19.724 C32.72,19.802 30.19,19.985 27.66,19.988 C24.69,19.993 21.72,19.857 18.75,19.77 C18.26,19.756 17.78,19.66 17.29,19.648 C16.75,19.634 16.21,19.697 15.66,19.682 C14.44,19.649 13.22,19.583 11.99,19.543 C11.77,19.535 11.55,19.587 11.24,19.621 C12.21,20.841 13.35,21.681 14.45,22.562 C15.27,23.221 16.23,23.699 17.1,24.301 C17.95,24.889 18.79,25.503 19.58,26.158 C20.21,26.674 20.86,26.836 21.63,26.588 C21.92,26.499 22.22,26.469 22.52,26.46 C23.69,26.421 24.86,26.434 26.02,26.367 C27.9,26.258 29.78,26.137 31.65,25.953 C33.17,25.804 34.67,25.55 36.19,25.355 C38.43,25.067 40.67,24.786 42.91,24.511 C43.76,24.407 44.36,23.965 44.84,23.279 C45.15,22.832 45.51,22.417 45.84,21.991 C46.4,21.291 46.92,20.573 47.21,19.634 Z M48.23,58.034 C47.03,57.995 45.96,57.949 44.88,57.931 C44.23,57.92 43.57,57.978 42.92,57.963 C42.19,57.946 41.45,57.855 40.72,57.844 C39.22,57.821 37.72,57.854 36.22,57.816 C35.33,57.792 34.43,57.652 33.53,57.609 C30.76,57.474 27.98,57.378 25.2,57.231 C23.6,57.147 22,56.988 20.4,56.869 C18.68,56.742 16.97,56.603 15.26,56.505 C13.77,56.419 12.28,56.161 10.77,56.374 C10.41,56.426 10.16,56.498 10.11,56.922 C9.95,58.283 9.93,59.647 10.18,60.993 C10.29,61.596 10.57,62.17 10.79,62.749 C10.92,63.063 11.18,63.178 11.52,63.159 C12.31,63.117 13.1,63.108 13.89,63.057 C15.49,62.954 17.09,62.817 18.69,62.722 C19.65,62.666 20.6,62.677 21.55,62.631 C23.95,62.515 26.34,62.358 28.74,62.269 C30.89,62.188 33.04,62.205 35.19,62.124 C37.01,62.054 38.84,61.941 40.66,61.784 C42.45,61.631 44.23,61.41 46.01,61.189 C46.32,61.151 46.71,61.045 46.88,60.828 C47.54,60.02 47.89,59.052 48.23,58.034 Z M6.02,101.134 C5.96,101.879 6.38,102.385 6.68,102.895 C7.45,104.172 8.67,105.045 9.68,106.11 C9.96,106.408 10.32,106.519 10.72,106.504 C11.2,106.487 11.69,106.395 12.18,106.406 C13.59,106.438 15.01,106.525 16.42,106.556 C19.78,106.629 23.13,106.715 26.48,106.733 C29.42,106.748 32.37,106.672 35.31,106.649 C36.49,106.64 37.66,106.717 38.83,106.663 C41.01,106.561 43.18,106.396 45.36,106.251 C45.89,106.215 46.43,106.157 46.96,106.093 C47.06,106.081 47.17,106.014 47.24,105.938 C47.84,105.275 48.44,104.612 49.02,103.929 C49.14,103.796 49.18,103.581 49.2,103.397 C49.32,102.342 49.45,101.288 49.53,100.229 C49.56,99.83 49.5,99.409 49.4,99.019 C49.24,98.406 49.06,98.305 48.4,98.336 C45.51,98.472 42.63,98.611 39.75,98.75 C39.61,98.757 39.48,98.781 39.34,98.795 C37.53,98.976 35.71,99.192 33.89,99.329 C31.31,99.523 28.73,99.658 26.15,99.819 C24.9,99.897 23.64,99.917 22.4,100.067 C19.42,100.428 16.46,100.849 13.44,100.775 C12.31,100.747 11.16,100.888 10.02,100.929 C8.96,100.968 7.9,100.969 6.84,101.004 C6.58,101.012 6.32,101.085 6.02,101.134 Z M4.02,62.756 L4.28,62.76 C4.41,62.383 4.54,62.008 4.66,61.629 C4.8,61.189 4.89,60.728 5.07,60.309 C5.63,59.014 6.23,57.733 6.82,56.449 C7,56.055 7.16,55.638 7.41,55.291 C7.92,54.587 8.48,53.919 9.02,53.245 C10.36,51.607 11.9,50.228 13.73,49.142 C15.93,47.829 18.21,46.689 20.64,45.869 C21.77,45.487 22.92,45.126 24.05,44.757 C25.58,44.262 27.11,43.778 28.63,43.273 C29.51,42.981 30.39,42.689 31.25,42.341 C33.35,41.487 35.33,40.405 37.31,39.309 C39.45,38.118 41.6,36.929 43.42,35.26 C44.28,34.474 45.09,33.614 45.81,32.696 C46.44,31.886 46.95,30.972 47.43,30.059 C47.97,29.027 48.59,27.987 48.88,26.874 C49.44,24.694 50.13,22.523 50.16,20.234 C50.17,19.827 50.29,19.423 50.3,19.016 C50.33,18.065 50.34,17.113 50.33,16.161 C50.33,16.006 50.22,15.852 50.09,15.512 C49.87,16.073 49.72,16.446 49.58,16.825 C49.28,17.645 49.07,18.499 48.69,19.28 C48.21,20.283 47.69,21.283 47.05,22.184 C46.22,23.332 45.27,24.389 44.36,25.468 C43.71,26.236 43.03,26.977 42.35,27.727 C42.25,27.848 42.13,27.964 42,28.059 C40.78,28.934 39.59,29.837 38.34,30.665 C37.32,31.341 36.26,31.943 35.19,32.547 C34.15,33.138 33.11,33.723 32.03,34.248 C30.93,34.785 29.8,35.253 28.67,35.736 C27.67,36.166 26.66,36.578 25.66,36.991 C24.5,37.464 23.31,37.866 22.19,38.413 C20.57,39.199 19.03,40.12 17.42,40.923 C15.66,41.802 13.97,42.783 12.37,43.924 C11.18,44.777 9.94,45.577 8.79,46.493 C6.83,48.068 5.67,50.217 4.67,52.486 C3.47,55.189 3.16,57.977 3.62,60.871 C3.71,61.505 3.88,62.128 4.02,62.756 Z M2.39,104.294 C2.53,104.033 2.68,103.846 2.75,103.636 C3.02,102.867 3.26,102.085 3.53,101.319 C4.11,99.738 5.08,98.392 6.08,97.06 C7.42,95.261 8.94,93.627 10.75,92.292 C11.54,91.712 12.37,91.186 13.17,90.622 C14.8,89.476 16.42,88.334 18.15,87.341 C19.78,86.407 21.66,85.978 23.18,84.831 L23.33,84.772 C24.82,84.119 26.32,83.47 27.82,82.809 C29.58,82.027 31.33,81.214 33.1,80.454 C34.5,79.854 35.94,79.34 37.34,78.735 C37.98,78.455 38.6,78.088 39.19,77.691 C40.04,77.112 40.87,76.501 41.66,75.848 C43.03,74.726 44.38,73.585 45.7,72.402 C46.2,71.953 46.59,71.383 47,70.84 C47.77,69.817 48.65,68.845 49.22,67.717 C49.7,66.752 50.12,65.744 50.64,64.79 C51.58,63.075 52.05,61.188 52.46,59.3 C52.86,57.432 53.05,55.532 52.68,53.615 C52.54,52.898 52.51,52.16 52.42,51.432 C52.33,50.708 52.21,49.997 51.6,49.477 L51.48,49.636 L51.45,49.878 C51.58,51.572 51.17,53.179 50.66,54.769 C50.46,55.389 50.22,55.998 50.05,56.626 C49.69,57.999 49.06,59.264 48.48,60.548 C47.67,62.332 46.22,63.598 44.92,64.984 C44.68,65.235 44.35,65.387 44.08,65.611 C43.27,66.289 42.49,67.019 41.65,67.656 C40.8,68.294 39.92,68.867 39.27,69.734 C39.09,69.98 38.77,70.176 38.47,70.278 C37.32,70.673 36.35,71.359 35.35,72.021 C33.99,72.921 32.65,73.857 31.12,74.482 C29.86,74.994 28.64,75.57 27.42,76.155 C25.45,77.097 23.53,78.135 21.54,79.007 C19.79,79.771 17.97,80.356 16.36,81.406 C14.9,82.356 13.37,83.202 11.96,84.218 C10.46,85.297 9.03,86.481 7.65,87.703 C6.92,88.342 6.19,89.005 5.71,89.899 C4.89,91.466 4.02,93.012 3.4,94.675 C3.09,95.513 2.81,96.369 2.59,97.236 C2.42,97.918 2.36,98.629 2.25,99.326 C2.08,100.399 1.8,101.473 2,102.563 C2.1,103.101 1.9,103.709 2.39,104.294 Z M41.67,77.353 C42.5,77.952 43.25,78.479 43.99,79.026 C45.57,80.196 47.09,81.438 48.44,82.868 C49.95,84.463 51.13,86.301 52.11,88.246 C53.88,91.76 54.96,95.478 55.16,99.431 C55.17,99.702 55.23,99.971 55.24,100.242 C55.28,101.031 55.4,101.83 55.31,102.606 C55.15,104.065 54.83,105.507 54.64,106.965 C54.41,108.791 53.5,110.299 52.52,111.781 C51.36,113.552 49.65,114.746 47.92,115.892 C47.66,116.064 47.31,116.118 46.99,116.178 C46.52,116.268 46.2,116.108 46.01,115.655 C45.88,115.334 45.82,114.975 45.77,114.627 C45.64,113.602 45.53,112.571 45.4,111.546 C45.3,110.872 45.23,110.805 44.57,110.819 C43.07,110.851 41.57,110.903 40.08,110.958 C36.23,111.101 32.4,111.41 28.55,111.239 C27.8,111.205 27.04,111.38 26.28,111.41 C25.65,111.434 25.03,111.368 24.4,111.371 C21.57,111.384 18.74,111.418 15.9,111.421 C14.73,111.421 13.56,111.348 12.39,111.332 C11.57,111.322 11.52,111.375 11.33,112.145 C11.26,112.462 11.15,112.773 11.08,113.092 C10.95,113.645 10.81,114.198 10.74,114.759 C10.64,115.484 9.96,115.867 9.38,115.428 C8.43,114.706 7.5,113.942 6.6,113.148 C5.73,112.378 4.93,111.525 4.06,110.749 C2.69,109.528 1.77,108.064 1.46,106.241 C1.23,104.9 0.98,103.561 0.76,102.218 C0.72,101.955 0.73,101.674 0.77,101.409 C1.02,99.821 1.27,98.231 1.56,96.649 C1.65,96.145 1.85,95.659 2.02,95.168 C2.54,93.614 3.2,92.121 4.06,90.724 C4.13,90.609 4.21,90.493 4.26,90.365 C4.66,89.16 5.53,88.309 6.37,87.406 C7.95,85.715 9.83,84.413 11.75,83.166 C13.69,81.904 15.63,80.627 17.64,79.489 C18.82,78.824 20.14,78.42 21.4,77.896 C21.67,77.785 21.93,77.661 22.19,77.543 L22.19,77.363 C21.46,77.089 20.74,76.74 19.99,76.557 C18.47,76.187 17.05,75.574 15.64,74.944 C15.44,74.855 15.24,74.765 15.03,74.71 C13.31,74.258 11.78,73.46 10.37,72.403 C8.88,71.292 7.37,70.213 6.16,68.784 C5.84,68.397 5.6,67.933 5.32,67.508 C5.04,67.103 4.83,66.618 4.47,66.322 C3.76,65.74 3.52,64.926 3.28,64.136 C2.83,62.649 2.58,61.119 2.44,59.563 C2.31,58.17 2.18,56.786 2.53,55.418 C2.75,54.581 3.02,53.751 3.35,52.947 C3.87,51.635 4.35,50.3 5.14,49.102 C6.1,47.636 7.11,46.238 8.62,45.254 C10.26,44.183 11.79,42.941 13.47,41.938 C16.77,39.968 20.12,38.068 23.69,36.618 C23.76,36.588 23.82,36.532 23.99,36.425 C23.72,36.206 23.54,36.025 23.33,35.881 C21.5,34.637 19.6,33.535 17.65,32.507 C15.62,31.438 13.73,30.14 11.87,28.814 C11.61,28.627 11.38,28.381 11.16,28.141 C10.02,26.898 8.89,25.651 7.76,24.397 C7.51,24.115 7.26,23.822 7.06,23.499 C6.27,22.2 5.45,20.932 4.99,19.451 C4.41,17.614 4.15,15.738 4,13.837 C3.85,11.863 4.21,9.988 5.19,8.247 C5.48,7.727 5.76,7.192 5.99,6.642 C6.35,5.784 7,5.19 7.68,4.604 C9.25,3.26 11.01,2.242 12.87,1.368 C13.69,0.982 14.01,1.163 14.03,2.098 C14.07,3.706 14.08,5.314 14.09,6.923 C14.09,7.822 14.06,8.721 14.05,9.619 C14.04,10.377 13.69,10.915 13,11.228 C12.53,11.44 12.05,11.649 11.59,11.88 C10.59,12.379 9.7,13.024 8.97,14.034 C9.24,14.065 9.39,14.1 9.54,14.097 C12.13,14.041 14.71,14.187 17.3,14.414 C17.57,14.438 17.84,14.451 18.11,14.428 C20.24,14.254 22.36,14.418 24.49,14.503 C25.17,14.53 25.85,14.483 26.53,14.503 C27.65,14.536 28.76,14.621 29.87,14.641 C31.78,14.675 33.69,14.713 35.6,14.679 C37.18,14.65 38.75,14.508 40.33,14.439 C40.96,14.411 41.58,14.451 42.21,14.448 C42.97,14.445 43.74,14.417 44.5,14.421 C44.91,14.423 45.32,14.438 45.72,14.503 C46.59,14.644 47.44,14.573 48.46,14.513 C48.25,14.118 48.13,13.827 47.96,13.573 C46.93,12.073 45.53,11.016 43.96,10.15 C43.03,9.638 42.09,9.147 41.16,8.656 C40.82,8.479 40.72,8.19 40.71,7.844 C40.66,5.883 40.7,3.927 41.06,1.989 C41.23,1.107 41.75,0.715 42.62,0.913 C43.44,1.099 44.12,1.587 44.71,2.139 C45.81,3.155 46.85,4.232 47.91,5.283 C47.99,5.359 48.1,5.42 48.15,5.512 C48.83,6.834 49.67,8.106 50.16,9.499 C50.85,11.474 51.3,13.535 51.42,15.648 C51.51,17.448 51.43,19.241 51.23,21.027 C50.9,23.914 50.14,26.704 49.04,29.381 C48.58,30.479 47.92,31.496 47.29,32.512 C46.2,34.268 44.64,35.605 43.13,36.977 C42.93,37.157 42.67,37.27 42.42,37.428 C43.31,38.417 44.01,39.281 44.8,40.051 C46.01,41.227 47.28,42.334 48.52,43.476 C49.34,44.234 50.15,45.004 50.96,45.769 L51.12,45.951 C51.59,47.178 52.38,48.226 52.99,49.374 C53.19,49.753 53.31,50.193 53.37,50.619 C53.56,51.939 53.71,53.264 53.85,54.59 C54.07,56.686 53.67,58.71 53.15,60.729 C52.76,62.238 52.31,63.714 51.64,65.129 C50.45,67.652 49.11,70.053 47.27,72.191 C45.74,73.964 44,75.457 42.19,76.905 C42.04,77.022 41.9,77.15 41.67,77.353 Z" id="Fill-1925" fill="#333333"></path>
    </g>
</svg>