<?xml version="1.0" encoding="UTF-8"?>
<svg width="85px" height="136px" viewBox="0 0 85 136" version="1.1" xmlns="http://www.w3.org/2000/svg" xmlns:xlink="http://www.w3.org/1999/xlink">
    <!-- Generator: Sketch 50.2 (55047) - http://www.bohemiancoding.com/sketch -->
    <title>Tree</title>
    <desc>Created with Sketch.</desc>
    <defs></defs>
    <g id="Tree" stroke="none" stroke-width="1" fill="none" fill-rule="evenodd">
        <g id="Group-3" fill="#333333">
            <path d="M29.326,63.009 C29.148,64.076 29.243,64.881 29.576,65.652 C29.92,66.449 30.31,67.227 30.669,68.019 C31.702,70.298 33.012,72.4 34.693,74.258 C35.039,74.641 35.464,74.951 36.056,75.474 C36.396,70.913 35.464,66.881 33.977,62.763 C32.414,63.468 30.949,63.525 29.326,63.009 Z M36.703,85.758 C36.812,85.721 36.922,85.684 37.032,85.648 C36.818,83.092 36.627,80.535 36.366,77.984 C36.331,77.637 36.023,77.205 35.715,77.015 C33.821,75.845 32.579,74.064 31.484,72.244 C30.316,70.305 29.468,68.175 28.474,66.131 C28.266,65.703 28.028,65.29 27.785,64.834 C27.031,65.336 26.384,65.714 25.805,66.176 C25.542,66.387 25.318,66.742 25.239,67.07 C24.927,68.378 25.151,69.664 25.813,70.796 C26.669,72.259 27.54,73.747 28.636,75.026 C30.381,77.061 32.319,78.931 34.17,80.876 C34.303,81.015 34.422,81.18 34.504,81.354 C35.057,82.512 35.589,83.679 36.146,84.835 C36.301,85.157 36.515,85.451 36.703,85.758 Z M15.402,72.044 C15.655,73.32 16.656,74.774 17.672,75.606 C18.569,76.342 19.554,76.59 20.685,76.438 C21.737,76.297 21.732,76.323 22.1,77.327 C22.541,78.531 22.956,79.748 23.471,80.921 C24.034,82.203 25.044,82.977 26.411,83.385 C28.769,84.089 30.684,83.259 32.617,81.792 C32.391,81.422 32.226,81.048 31.97,80.753 C30.83,79.443 29.701,78.121 28.5,76.869 C26.491,74.776 24.993,72.387 24.058,69.64 C23.969,69.38 23.809,69.144 23.695,68.922 C22.376,69.723 21.144,70.541 19.848,71.241 C18.483,71.977 16.916,71.925 15.402,72.044 Z M46.617,50.874 C44.283,51.863 42.001,51.128 39.689,50.829 C39.25,51.979 38.535,52.756 37.551,53.287 C37.017,53.575 36.92,54.006 37.159,54.55 C37.425,55.158 37.627,55.798 37.932,56.384 C38.516,57.503 38.979,57.639 40.132,57.102 C40.354,56.999 40.569,56.858 40.747,56.691 C41.346,56.128 41.974,55.586 42.498,54.959 C42.902,54.474 43.27,54.376 43.767,54.728 C44.437,55.203 45.101,55.687 45.943,56.293 C45.57,56.513 45.365,56.727 45.151,56.738 C44.877,56.751 44.575,56.641 44.319,56.515 C43.621,56.171 43.108,56.382 42.52,56.85 C41.75,57.462 40.862,57.927 40.018,58.445 C39.748,58.611 39.457,58.743 39.148,58.905 C39.532,59.996 39.865,61.015 40.249,62.013 C40.562,62.826 40.9,63.634 41.297,64.407 C41.561,64.92 41.918,65.438 42.623,65.361 C44.348,65.173 45.719,64.479 46.331,62.715 C46.521,62.168 46.743,61.631 46.961,61.093 C47.66,59.367 48.37,57.644 49.066,55.917 C49.451,54.96 49.412,54.916 48.683,54.222 C48.359,53.913 48.078,53.54 47.848,53.154 C47.446,52.481 47.099,51.775 46.617,50.874 Z M56.518,131.505 L56.653,131.247 C54.669,129.362 53.239,127.088 51.964,124.708 C51.75,124.309 51.547,123.894 51.41,123.464 C50.832,121.649 50.278,119.825 49.721,118.003 C49.528,117.369 49.279,116.74 49.181,116.09 C48.809,113.633 48.462,111.172 48.157,108.706 C47.927,106.853 47.773,104.99 47.59,103.132 C47.412,101.322 47.237,99.512 47.066,97.702 C46.991,96.919 46.928,96.135 46.862,95.352 C46.668,93.038 46.408,90.728 46.296,88.41 C46.13,84.974 46.049,81.533 45.968,78.093 C45.871,73.928 47.196,70.306 50.077,67.243 C50.951,66.314 51.689,65.236 52.369,64.15 C53.779,61.901 54.439,59.365 54.95,56.791 C55.06,56.239 55.051,55.664 55.101,55.058 C53.487,55.314 52.026,55.546 50.543,55.781 C49.614,57.997 48.709,60.227 47.746,62.432 C47.094,63.926 46.315,65.327 44.802,66.18 C43.01,67.189 41.069,66.804 40.162,64.976 C39.355,63.35 38.831,61.586 38.156,59.893 C37.441,58.097 36.695,56.313 35.93,54.445 C34.69,54.785 33.597,55.084 32.304,55.438 C33.522,56.675 33.817,58.198 34.313,59.637 C34.664,60.655 35.089,61.65 35.397,62.68 C35.895,64.343 36.435,66.005 36.76,67.705 C37.737,72.816 37.91,78.017 38.325,83.189 C38.5,85.378 38.595,87.574 38.724,89.767 C39.036,95.102 39.646,100.425 39.247,105.786 C39.112,107.606 39.124,109.438 39.09,111.265 C39.066,112.551 39.148,113.843 39.057,115.124 C38.877,117.645 38.624,120.163 38.368,122.678 C38.301,123.331 38.149,123.983 37.966,124.614 C37.315,126.862 36.316,128.956 35.11,130.958 C34.969,131.193 34.932,131.491 34.847,131.759 L35.08,131.845 C35.554,131.134 36.043,130.433 36.498,129.711 C37.132,128.704 37.864,128.704 38.444,129.731 C38.505,129.839 38.54,129.961 38.597,130.072 C39.108,131.061 39.338,131.105 40.145,130.368 C40.237,130.284 40.309,130.179 40.402,130.097 C41.224,129.375 41.595,129.47 42.05,130.5 C42.29,131.045 42.55,131.581 42.822,132.166 C43.159,131.996 43.356,131.926 43.521,131.809 C44.234,131.306 44.901,131.178 45.683,131.763 C46.002,132.001 46.544,132.021 46.982,132.01 C49.054,131.957 51.126,131.873 53.197,131.769 C54.306,131.714 55.411,131.595 56.518,131.505 Z M79.08,38.85 C79.391,38.829 79.718,38.859 80.009,38.772 C80.259,38.697 80.578,38.541 80.678,38.331 C81.142,37.365 81.311,36.357 80.832,35.331 C80.516,34.652 80.227,33.96 79.875,33.301 C79.087,31.827 78.018,30.64 76.366,30.118 C75.021,29.693 73.665,29.299 72.321,28.872 C71.972,28.76 71.604,28.629 71.322,28.408 C70.97,28.13 71.102,27.665 71.538,27.556 C71.775,27.497 72.036,27.493 72.281,27.514 C73.473,27.616 74.661,27.626 75.781,28.229 C76.766,28.76 77.372,28.433 77.802,27.386 C78.284,26.216 77.512,24.147 76.383,23.58 C74.642,22.706 74.633,22.652 76.116,21.296 C77.102,20.395 77.502,19.343 76.98,18.049 C76.81,17.626 76.622,17.21 76.421,16.801 C75.989,15.918 75.468,15.162 74.365,15.004 C73.698,14.908 73.55,14.417 73.678,13.78 C74.004,12.168 73.23,10.953 72.149,9.903 C71.36,9.136 70.4,9.035 69.395,9.586 C68.485,10.085 67.622,10.669 66.729,11.199 C66.43,11.377 66.102,11.507 65.704,11.699 C65.439,11.109 65.189,10.674 65.044,10.207 C64.337,7.937 61.776,6.937 59.979,7.183 C55.844,7.749 52.612,9.652 50.967,13.694 C50.671,14.419 50.392,15.167 50.244,15.931 C50.179,16.267 50.349,16.826 50.608,17.017 C51.491,17.669 52.461,18.202 53.457,18.816 C54.357,17.143 53.346,15.575 53.448,14.035 C53.992,13.812 54.207,14.123 54.319,14.5 C54.399,14.772 54.381,15.075 54.393,15.365 C54.448,16.688 54.483,18.012 54.553,19.335 C54.608,20.368 55.304,20.88 56.262,21.367 C56.317,20.919 56.408,20.599 56.387,20.287 C56.262,18.343 56.096,16.402 55.983,14.457 C55.96,14.056 55.744,13.398 56.412,13.365 C57.003,13.336 56.878,13.999 56.884,14.346 C56.914,16.214 56.862,18.083 56.872,19.952 C56.877,20.933 56.831,21.94 57.034,22.887 C57.202,23.674 57.669,24.409 58.073,25.129 C58.181,25.322 58.563,25.508 58.778,25.469 C59.743,25.295 60.693,25.039 61.693,24.802 C61.635,24.122 61.591,23.51 61.531,22.9 C61.401,21.583 61.229,20.27 61.14,18.951 C61.047,17.591 61.013,16.226 60.995,14.862 C60.989,14.369 61.288,14.152 61.798,14.253 C61.725,15.065 61.574,15.802 61.609,16.529 C61.697,18.377 61.874,20.22 62.003,22.065 C62.047,22.684 62.089,23.307 62.068,23.926 C62.046,24.582 62.277,24.984 62.873,25.321 C63.514,25.683 64.09,26.186 64.626,26.7 C65.351,27.395 65.469,28.417 64.993,29.445 C64.443,28.853 63.937,28.254 63.373,27.717 C62.802,27.171 62.173,26.606 61.321,26.684 C60.335,26.774 59.344,26.931 58.386,27.182 C57.283,27.471 57.159,27.421 56.857,26.281 C56.679,25.609 56.413,24.954 56.128,24.317 C55.303,22.47 53.754,21.245 52.277,19.975 C51.295,19.13 50.188,18.463 48.893,18.185 C46.958,17.769 45.01,17.879 43.062,18.063 C42.818,18.086 42.553,18.148 42.349,18.274 C41.014,19.105 39.69,19.953 38.37,20.808 C38.165,20.941 38.023,21.183 37.809,21.286 C37.656,21.36 37.374,21.356 37.256,21.258 C37.132,21.156 37.052,20.876 37.099,20.717 C37.18,20.448 37.355,20.199 37.524,19.965 C38.293,18.899 39.344,18.15 40.443,17.475 C41.622,16.75 42.839,16.246 44.314,16.354 C45.749,16.459 47.205,16.285 48.538,16.237 C49.059,14.963 49.498,13.806 50.006,12.68 C50.329,11.963 50.724,11.272 51.145,10.607 C51.641,9.824 51.694,9.024 51.261,8.243 C50.658,7.157 50.074,6.038 49.302,5.077 C48.668,4.287 47.846,3.585 46.978,3.055 C44.686,1.655 42.137,1.354 39.523,1.742 C37.004,2.116 35.036,3.4 33.684,5.595 C33.347,6.141 33.284,6.617 33.568,7.225 C33.862,7.857 34.041,8.554 34.189,9.24 C34.398,10.21 33.878,10.936 33.273,11.791 C33.073,11.45 32.9,11.265 32.851,11.052 C32.72,10.486 32.599,9.911 32.557,9.334 C32.509,8.668 32.344,8.113 31.705,7.784 C31.563,7.712 31.414,7.595 31.34,7.459 C30.755,6.39 29.732,5.811 28.809,5.104 C27.806,4.336 26.679,4.128 25.508,4.334 C24.245,4.557 22.974,4.846 21.777,5.295 C20.196,5.888 19.224,7.076 18.984,8.809 C18.871,9.624 18.679,10.427 18.525,11.228 C18.167,11.325 17.888,11.4 17.61,11.477 C16.404,11.81 15.705,12.574 15.514,13.83 C15.373,14.759 15.425,15.753 14.88,16.38 C13.462,16.612 12.196,16.779 10.948,17.035 C10.068,17.216 9.329,17.728 8.793,18.441 C7.995,19.5 7.203,20.572 6.516,21.704 C5.176,23.909 5.366,26.247 6.958,28.312 C7.629,29.182 7.368,30.115 6.415,30.655 C5.666,31.08 4.913,31.562 4.308,32.166 C1.795,34.674 1.249,37.784 1.812,41.15 C2.05,42.571 2.755,43.804 3.841,44.783 C4.81,45.655 4.924,45.679 5.976,44.954 C7.859,43.656 9.895,42.786 12.187,42.551 C12.675,42.501 13.156,42.379 13.766,42.267 C13.716,41.792 13.71,41.388 13.625,41.001 C12.966,38.02 14.242,34.825 16.798,33.204 C17.523,32.745 18.314,32.391 19.176,31.935 C19.081,31.132 19.019,30.311 18.879,29.503 C18.752,28.77 18.485,28.06 18.375,27.326 C18.074,25.321 17.824,23.309 17.553,21.299 C17.536,21.176 17.454,21.031 17.495,20.937 C17.583,20.732 17.731,20.554 17.854,20.365 C18.039,20.488 18.296,20.571 18.39,20.743 C18.5,20.946 18.466,21.226 18.498,21.472 C18.845,24.138 19.171,26.807 19.554,29.468 C19.664,30.234 19.94,30.976 20.164,31.82 C20.794,31.789 21.324,31.774 21.851,31.734 C22.784,31.662 23.024,31.326 22.813,30.466 C22.507,29.218 22.184,27.974 21.925,26.716 C21.416,24.236 20.941,21.749 20.467,19.262 C20.43,19.063 20.515,18.841 20.543,18.63 C20.634,18.621 20.726,18.612 20.818,18.603 C21.456,20.312 21.493,22.173 21.961,23.927 C22.44,25.725 22.703,27.581 23.063,29.425 C23.954,28.594 24.635,27.741 25.508,27.192 C27.171,26.147 27.607,26.163 28.483,26.872 C28.047,27.111 27.683,27.35 27.289,27.518 C25.731,28.181 24.697,29.291 24.319,30.96 C24.182,31.562 24.099,32.176 23.971,32.906 C23.451,32.989 22.911,33.205 22.416,33.128 C21.249,32.946 20.21,33.832 19.04,33.455 C18.947,33.425 18.805,33.52 18.694,33.575 C16.232,34.8 14.725,36.995 15.008,39.788 C15.095,40.648 15.395,41.484 15.558,42.339 C15.729,43.227 15.174,43.842 14.286,43.887 C13.129,43.945 11.957,43.957 10.824,44.168 C9.073,44.493 7.485,45.316 6.277,46.604 C3.975,49.06 3.233,51.965 4.252,55.241 C4.61,56.392 5.331,57.176 6.533,57.473 C6.927,57.571 7.314,57.701 7.797,57.844 C7.651,58.623 7.519,59.348 7.378,60.07 C7.095,61.52 7.355,62.889 8.045,64.169 C9.026,65.988 10.374,67.484 12.068,68.681 C13.963,70.021 16.03,70.621 18.303,70.029 C20.245,69.525 21.81,68.369 23.063,66.809 C23.24,66.589 23.379,66.298 23.423,66.022 C23.545,65.272 24.019,64.962 24.667,64.633 C26.147,63.882 27.659,63.065 28.187,61.314 C28.423,60.53 28.454,59.685 28.585,58.868 C28.632,58.573 28.699,58.281 28.783,57.856 C30.366,58.768 29.466,60.251 29.989,61.347 C31.089,62.056 32.105,62.085 33.389,61.406 C32.826,57.693 31.051,54.944 28.039,54.639 C27.969,55.068 27.898,55.501 27.828,55.934 C27.143,53.561 24.946,52.275 23.795,50.209 C24.633,52.792 24.448,55.441 24.53,58.068 C24.295,56.954 24.209,55.82 24.021,54.703 C23.831,53.581 23.541,52.475 23.284,51.314 C22.182,51.942 22.04,52.095 22.007,53.114 C21.945,55.019 21.936,56.926 21.901,58.832 C21.893,59.246 21.856,59.659 21.845,60.073 C21.835,60.433 21.843,60.793 21.843,61.154 C21.067,58.359 21.666,55.457 20.898,52.704 C19.762,52.699 19.646,52.753 19.569,53.59 C19.5,54.33 19.509,55.078 19.504,55.822 C19.495,57.095 19.502,58.368 19.502,59.641 C19.246,59.53 19.115,59.4 19.1,59.257 C18.966,57.985 18.854,56.71 18.733,55.437 C18.682,54.9 18.622,54.364 18.574,53.826 C18.514,53.165 18.054,53.041 17.514,53.032 C16.938,53.023 16.876,53.427 16.828,53.871 C16.647,55.529 16.45,57.185 16.258,58.842 C16.132,58.198 16.049,57.547 16.027,56.893 C15.992,55.862 16.019,54.829 15.979,53.799 C15.94,52.777 15.803,51.816 14.649,51.347 C14.219,51.172 13.774,50.813 13.986,50.181 C14.466,49.801 14.941,49.967 15.398,50.184 C15.811,50.38 16.242,50.567 16.598,50.844 C18.193,52.089 21.849,50.86 22.619,49.42 C22.95,48.801 23.167,48.122 23.469,47.485 C23.768,46.853 24.449,46.797 24.833,47.375 C24.99,47.611 25.062,47.907 25.154,48.182 C25.365,48.813 25.55,49.453 25.771,50.08 C26.058,50.893 26.604,51.436 27.353,51.913 C28.971,52.943 30.734,53.214 32.583,53.3 C33.737,53.353 34.751,53.21 35.154,52.103 C35.693,52.014 36.147,52.053 36.467,51.864 C37.259,51.396 37.929,50.771 38.341,49.914 C39.1,48.337 39.104,48.339 40.811,48.916 C40.968,48.969 41.121,49.042 41.281,49.082 C43.003,49.508 44.734,49.681 46.43,49.012 C49.015,47.992 50.339,45.924 51.014,43.343 C51.126,42.914 51.253,42.488 51.399,41.968 C52.482,42.074 53.473,42.134 54.451,42.279 C55.322,42.41 56.073,42.227 56.82,41.768 C58.327,40.84 59.41,39.595 60.013,37.921 C60.2,37.402 60.375,36.794 61.24,36.872 C61.46,37.572 61.602,38.218 61.207,38.904 C60.896,39.443 60.662,40.027 60.357,40.569 C59.91,41.363 59.75,42.189 59.922,43.088 C60.329,45.203 60.726,47.32 61.12,49.437 C61.18,49.764 61.204,50.098 61.245,50.428 L60.988,50.473 C60.599,49.23 60.203,47.989 59.823,46.743 C59.441,45.495 59.366,44.146 58.686,43.005 C57.298,43.381 57.029,43.742 57.197,44.92 C57.279,45.495 57.401,46.065 57.466,46.642 C57.573,47.585 57.649,48.531 57.738,49.477 C56.5,47.84 56.785,45.815 56.047,43.938 C55.413,43.966 54.782,43.995 54.124,44.024 C53.987,45.921 54.473,47.641 54.267,49.389 C53.443,47.735 53.427,45.849 52.645,44.015 C52.457,44.339 52.348,44.467 52.302,44.615 C51.629,46.784 50.396,48.575 48.617,49.972 C48.108,50.372 48.082,50.763 48.375,51.258 C48.586,51.616 48.794,51.978 49.035,52.316 C50.081,53.783 51.689,54.361 53.422,53.763 C54.978,53.227 56.543,52.659 57.669,51.33 C57.823,51.149 58.218,51.004 58.412,51.077 C58.587,51.144 58.701,51.524 58.736,51.781 C58.856,52.686 58.884,53.605 59.033,54.505 C59.4,56.733 60.706,58.232 62.717,59.206 C63.644,59.654 64.583,59.52 65.531,59.484 C66.287,59.456 67.041,59.388 68.061,59.32 C67.723,59.714 67.607,59.945 67.422,60.046 C66.914,60.324 66.39,60.586 65.846,60.782 C65.344,60.964 64.656,60.899 64.329,61.224 C63.984,61.567 63.968,62.243 63.809,62.773 C63.453,62.231 63.445,61.47 63.061,61.083 C62.582,60.6 61.816,60.34 61.079,60.386 C60.439,61.895 61.513,63.35 60.946,64.794 C60.581,63.313 60.31,61.823 60.088,60.325 C59.881,58.933 59.054,57.977 57.927,56.972 C57.414,58.574 58.162,59.98 58.018,61.409 C57.876,62.821 57.987,64.26 57.987,65.687 L57.743,65.71 C57.608,65.121 57.402,64.538 57.351,63.941 C57.191,62.047 57.091,60.147 56.961,58.25 C56.927,57.754 56.861,57.261 56.822,56.765 C56.773,56.15 56.663,55.546 57.208,55.027 C57.542,54.71 57.476,54.277 57.154,53.901 C56.084,54.133 56.135,55.043 56.076,55.772 C55.911,57.821 55.388,59.776 54.765,61.72 C54.634,62.129 54.645,62.611 54.7,63.046 C54.882,64.483 54.873,65.91 54.636,67.347 C54.107,66.378 54.442,65.177 53.77,64.134 C53.538,64.388 53.364,64.548 53.226,64.734 C52.212,66.102 51.257,67.518 50.186,68.839 C47.452,72.211 46.925,76.091 47.433,80.231 C47.441,80.3 47.528,80.36 47.724,80.611 C48.559,80.614 49.544,80.611 50.528,80.623 C51.45,80.635 52.221,80.291 52.904,79.689 C53.652,79.029 54.408,78.378 55.18,77.747 C56.342,76.798 56.835,75.485 57.082,74.089 C57.197,73.436 57.423,72.698 56.938,72.021 C56.611,71.969 56.276,71.946 55.96,71.859 C55.361,71.695 54.758,71.527 54.189,71.285 C54.029,71.217 53.87,70.859 53.914,70.684 C53.959,70.506 54.234,70.316 54.441,70.265 C54.666,70.209 54.928,70.322 55.175,70.337 C55.879,70.378 56.59,70.483 57.287,70.425 C58.958,70.286 60.199,69.38 60.841,67.875 C61.385,66.599 61.202,66.099 63.171,66.535 L63.416,66.582 C65.686,66.919 67.933,65.665 68.854,63.556 C69.02,63.176 69.207,62.804 69.392,62.432 C69.585,62.044 69.858,61.857 70.297,62.107 C70.624,62.95 70.206,63.635 69.818,64.319 C69.429,65.005 69.099,65.747 68.594,66.338 C68.103,66.914 67.424,67.33 66.694,67.925 C67.798,68.635 68.815,69.131 70.031,68.888 C70.885,68.718 71.743,68.511 72.555,68.203 C74.286,67.545 75.369,65.624 75.089,63.853 C74.943,62.922 75.115,62.698 76.182,62.466 C78.401,61.984 79.835,60.585 80.628,58.528 C80.892,57.843 80.882,57.058 81.057,56.334 C81.304,55.307 81.193,54.349 80.619,53.464 C80.268,52.924 80.259,52.511 80.834,52.089 C82.06,51.188 82.741,49.909 83.107,48.465 C83.258,47.866 83.275,47.233 83.371,46.618 C83.61,45.087 83.317,43.632 82.656,42.264 C82.204,41.329 81.691,40.348 80.279,40.968 C80.098,40.095 80.035,39.234 79.08,38.85 Z M44.479,132.909 C44.046,133.245 43.759,133.48 43.459,133.697 C42.732,134.222 42.298,134.119 41.886,133.304 C41.737,133.009 41.651,132.682 41.522,132.376 C41.413,132.116 41.285,131.865 41.128,131.53 C40.668,131.852 40.284,132.154 39.869,132.405 C39.065,132.893 38.614,132.775 38.119,131.968 C37.909,131.624 37.732,131.26 37.498,130.829 C36.265,131.812 36.233,133.411 35.19,134.576 C34.291,133.667 33.47,132.838 32.421,131.778 C32.284,132.573 32.193,133.074 32.113,133.576 C32.049,133.986 32.062,134.421 31.918,134.799 C31.843,134.995 31.471,135.234 31.294,135.193 C31.104,135.148 30.985,134.798 30.841,134.578 L30.844,134.455 C31.425,132.821 30.983,131.165 30.951,129.518 C30.948,129.357 30.992,129.196 31.029,128.928 C32.436,128.736 32.625,130.388 33.77,130.668 C34.994,128.44 36.259,126.206 36.803,123.657 C36.976,122.85 37.047,122.019 37.137,121.196 C37.337,119.379 37.537,117.562 37.699,115.742 C37.754,115.125 37.667,114.497 37.697,113.877 C37.82,111.308 37.964,108.74 38.099,106.171 C38.112,105.923 38.138,105.673 38.128,105.426 C38.007,102.52 37.895,99.614 37.75,96.709 C37.687,95.466 37.553,94.226 37.447,92.985 C37.433,92.821 37.341,92.648 37.371,92.496 C37.683,90.948 36.973,89.657 36.346,88.347 C35.649,86.888 34.944,85.432 34.222,83.985 C34.043,83.625 33.788,83.303 33.537,82.915 C32.607,83.476 31.798,84.053 30.916,84.478 C29.099,85.356 27.324,85.604 25.321,84.681 C23.494,83.838 22.412,82.558 21.715,80.798 C21.531,80.334 21.364,79.865 21.205,79.392 C20.797,78.178 20.793,78.231 19.548,78.06 C18.267,77.884 17.101,77.533 16.201,76.393 C15.263,75.206 14.329,74.065 13.928,72.579 C13.722,71.812 13.245,71.341 12.547,70.928 C10.538,69.738 8.626,68.383 7.407,66.321 C6.799,65.293 6.316,64.181 5.872,63.069 C5.521,62.188 5.733,61.263 5.942,60.365 C6.034,59.969 6.133,59.573 6.243,59.121 C5.542,58.707 4.912,58.315 4.264,57.959 C3.52,57.549 3.076,56.951 2.939,56.107 C2.866,55.657 2.754,55.211 2.629,54.772 C1.968,52.447 2.362,50.254 3.47,48.161 C4.075,47.018 4.096,46.753 3.092,45.923 C1.564,44.66 0.734,43.079 0.526,41.116 C0.31,39.075 0.357,37.101 0.936,35.08 C1.614,32.707 2.885,30.902 4.914,29.572 C5.049,29.483 5.159,29.356 5.357,29.179 C5.077,28.335 4.82,27.467 4.503,26.621 C3.795,24.736 4.027,22.925 4.985,21.216 C5.654,20.023 6.444,18.897 7.198,17.753 C8.302,16.08 9.99,15.488 11.872,15.272 C12.036,15.253 12.205,15.277 12.37,15.263 C13.695,15.152 13.821,15.029 14.022,13.721 C14.288,11.98 14.919,10.513 16.825,10.004 C17.278,9.883 17.467,9.573 17.546,9.103 C17.67,8.37 17.82,7.627 18.079,6.934 C18.753,5.134 20.141,4.052 21.901,3.43 C23.643,2.814 25.447,2.497 27.294,2.712 C27.93,2.787 28.585,3.015 29.147,3.327 C29.902,3.747 30.587,4.3 31.28,4.825 C31.729,5.165 32.06,5.163 32.441,4.702 C33.149,3.844 33.823,2.927 34.664,2.214 C36.518,0.644 38.737,0.043 41.152,0.131 C41.525,0.145 41.901,0.162 42.274,0.141 C44.423,0.019 46.42,0.579 48.219,1.687 C49.875,2.706 51.046,4.231 51.967,5.938 C52.318,6.586 52.665,7.236 53.066,7.982 C53.601,7.738 54.002,7.546 54.41,7.37 C55.552,6.876 56.672,6.316 57.845,5.913 C60.267,5.08 62.598,5.261 64.679,6.879 C65.155,7.249 65.53,7.76 65.902,8.244 C66.121,8.529 66.243,8.889 66.444,9.284 C66.767,9.168 67.045,9.107 67.282,8.974 C67.679,8.75 68.038,8.458 68.434,8.231 C70.639,6.968 72.864,7.629 74.182,9.809 C74.77,10.782 75.329,11.707 75.375,12.884 C75.385,13.149 75.647,13.505 75.893,13.642 C76.898,14.203 77.455,15.11 77.914,16.096 C78.177,16.66 78.354,17.262 78.588,17.84 C78.892,18.588 78.807,19.291 78.436,19.995 C78.07,20.689 77.742,21.402 77.345,22.212 C78.523,23.025 79.078,24.139 79.382,25.501 C79.703,26.943 78.908,27.964 78.371,29.068 C79.036,29.751 79.695,30.317 80.213,30.992 C80.714,31.645 81.08,32.404 81.489,33.126 C82.297,34.553 82.706,36.034 82.069,37.651 C81.932,37.999 81.855,38.369 81.722,38.719 C81.536,39.204 81.625,39.565 82.031,39.929 C83.909,41.615 84.341,43.914 84.53,46.255 C84.665,47.924 84.413,49.576 83.603,51.084 C83.333,51.587 83.041,52.098 82.662,52.516 C82.18,53.047 81.943,53.535 82.113,54.301 C82.463,55.876 82.152,57.446 81.816,58.992 C81.303,61.355 79.601,62.732 77.62,63.796 C76.895,64.185 76.567,64.623 76.323,65.425 C75.214,69.085 72.175,70.955 68.364,70.338 C67.391,70.181 66.42,69.577 65.606,68.967 C64.521,68.153 63.413,67.87 62.041,68.177 C61.521,69.743 60.424,70.873 58.966,71.705 C58.72,71.846 58.547,72.187 58.434,72.473 C58.315,72.775 58.273,73.12 58.256,73.449 C58.113,76.219 56.7,78.281 54.64,79.988 C54.256,80.306 53.885,80.64 53.493,80.947 C52.55,81.685 51.509,82.139 50.275,82.09 C49.413,82.055 48.549,82.083 47.571,82.083 C47.527,82.843 47.436,83.452 47.467,84.055 C47.604,86.663 47.718,89.275 47.95,91.876 C48.318,96.006 48.827,100.124 49.177,104.255 C49.492,107.981 49.949,111.688 50.647,115.354 C51.607,120.397 53.512,125.05 56.84,129.043 C57.1,129.354 57.309,129.723 57.473,130.095 C57.952,131.177 58.699,131.701 59.885,131.649 C60.471,131.624 61.045,131.539 61.539,131.949 C61.595,132.447 61.406,132.775 60.92,132.884 C60.031,133.083 59.145,133.39 58.247,133.432 C55.843,133.543 53.432,133.518 51.026,133.587 C49.823,133.622 48.625,133.756 47.423,133.825 C46.371,133.886 45.32,133.908 44.479,132.909 Z" id="Fill-906"></path>
            <path d="M58.767,12.198 C59.503,13.181 59.165,14.161 59.281,15.045 C59.405,15.985 59.408,16.943 59.421,17.894 C59.434,18.847 59.415,19.802 59.369,20.754 C59.323,21.707 59.227,22.658 59.068,23.627 C58.869,22.911 58.682,22.182 58.723,21.429 C58.855,18.975 58.828,16.533 58.345,14.112 C58.219,13.479 58.43,12.919 58.767,12.198" id="Fill-907"></path>
            <path d="M25.203,26.342 C25.096,26.101 24.944,25.87 24.89,25.618 C24.614,24.331 24.407,23.028 24.091,21.751 C23.834,20.711 23.44,19.706 23.141,18.675 C22.998,18.18 22.937,17.66 22.838,17.152 L23.066,17.04 C23.226,17.177 23.474,17.285 23.531,17.456 C23.832,18.353 24.143,19.253 24.343,20.176 C24.745,22.028 25.082,23.895 25.432,25.758 C25.465,25.931 25.406,26.121 25.39,26.304 L25.203,26.342" id="Fill-908"></path>
            <path d="M64.11,49.171 C63.514,46.269 61.842,43.724 62.357,40.426 C62.886,42.046 63.198,43.484 63.571,44.906 C64.426,48.168 64.484,48.47 64.11,49.171" id="Fill-909"></path>
            <path d="M16.226,30.142 C15.943,28.264 15.123,26.487 15.242,24.484 C15.871,24.817 15.9,24.811 16.34,27.154 C16.52,28.116 16.542,29.107 16.636,30.085 C16.499,30.104 16.363,30.123 16.226,30.142" id="Fill-910"></path>
            <path d="M25.729,17.189 C26.377,19.658 27.441,21.913 27.558,24.451 C27.291,23.725 27.009,23.004 26.759,22.272 C26.317,20.978 25.894,19.677 25.463,18.379 C25.334,17.989 25.179,17.594 25.729,17.189" id="Fill-911"></path>
            <path d="M65.38,23.132 C64.902,21.613 64.405,20.104 64.325,18.5 C64.319,18.396 64.405,18.262 64.489,18.187 C64.569,18.116 64.702,18.104 64.812,18.065 C65.269,19.293 65.675,22.2 65.38,23.132" id="Fill-912"></path>
            <path d="M68.028,46.266 C67.103,45.297 66.729,43.434 67.001,42.403 C67.511,42.755 67.496,42.757 67.673,44.258 C67.752,44.932 67.907,45.597 68.028,46.266" id="Fill-913"></path>
            <path d="M68.628,20.95 C68.431,20.392 68.234,19.833 68.031,19.258 C68.884,19.119 69.053,19.495 68.628,20.95" id="Fill-914"></path>
            <path d="M29.477,17.933 C29.648,18.834 29.819,19.735 29.991,20.636 L29.748,20.691 C29.538,19.792 29.328,18.893 29.118,17.994 C29.238,17.974 29.357,17.954 29.477,17.933" id="Fill-915"></path>
            <path d="M13.576,29.786 C13.2,29.206 12.671,28.689 13.013,27.811 C13.277,28.437 13.541,29.064 13.805,29.691 L13.576,29.786" id="Fill-916"></path>
            <path d="M70.087,43.967 C70.185,44.433 70.254,44.756 70.323,45.079 C69.902,44.831 69.58,44.563 70.087,43.967" id="Fill-917"></path>
        </g>
    </g>
</svg>